<!-- RECRAFT VECTORIZE from logo/options-w/mock/W1-modular-navbar-light.png -->
<svg version="1.1" xmlns="http://www.w3.org/2000/svg" style="display: block;" viewBox="0 0 4096 256" width="4096" height="256" preserveAspectRatio="none">
<path transform="translate(0,0)" fill="rgb(255,255,255)" d="M 0 0 L 4096 0 L 4096 256 L 0 256 L 0 0 z"/>
<path transform="translate(0,0)" fill="rgb(66,55,201)" d="M 3694.07 64.3973 C 3745.45 62.5205 3807.85 64.1585 3860.25 64.1309 L 3931.12 64.0958 C 3941.24 64.0937 3959.22 63.5898 3968.89 64.4092 C 3972.02 68.3983 3971.85 65.8894 3974.94 68.527 C 3978.92 71.9145 3983.49 75.7672 3986.69 79.8934 C 3987.24 84.4034 3986.45 83.2499 3989.57 86.0479 C 3990.27 94.1469 3990.8 170.106 3989.14 173.084 C 3985.82 176.487 3986.77 179.391 3986.28 179.99 C 3982.75 184.281 3975.97 191.685 3970.51 192.906 L 3969.09 194.798 C 3965.04 195.94 3702.46 196.424 3693.9 194.807 C 3690.15 190.065 3691.08 194.861 3684.31 188.489 C 3677.05 181.66 3677.32 177.7 3673.84 173.099 C 3672.15 170.188 3672.62 94.1226 3673.39 86.0216 C 3676.3 83.5772 3675.53 84.1394 3676.3 79.9203 C 3679.5 75.7263 3684.02 71.8665 3688.06 68.481 C 3691.2 65.8571 3691.01 68.3913 3694.07 64.3973 z"/>
<path transform="translate(0,0)" fill="rgb(51,39,197)" d="M 3694.07 64.3973 C 3745.45 62.5205 3807.85 64.1585 3860.25 64.1309 L 3931.12 64.0958 C 3941.24 64.0937 3959.22 63.5898 3968.89 64.4092 L 3968.14 68.0113 C 3966.31 69.3615 3953.19 68.8759 3950.12 68.8713 L 3910.29 68.8557 L 3743.87 68.77 C 3737.57 68.8085 3697.72 69.6764 3694.89 68.0272 L 3694.07 64.3973 z"/>
<path transform="translate(0,0)" fill="rgb(51,39,197)" d="M 3693.9 194.807 C 3694.23 193.904 3694.92 191.087 3695.93 191.131 C 3724.21 192.357 3963.94 188.64 3968.07 191.519 L 3969.09 194.798 C 3965.04 195.94 3702.46 196.424 3693.9 194.807 z"/>
<path transform="translate(0,0)" fill="rgb(51,39,197)" d="M 3673.39 86.0216 L 3676.75 87.4044 C 3678.95 95.7416 3677.18 158.467 3677.17 171.307 C 3675.56 172.899 3676.07 172.465 3673.84 173.099 C 3672.15 170.188 3672.62 94.1226 3673.39 86.0216 z"/>
<path transform="translate(0,0)" fill="rgb(51,39,197)" d="M 3989.14 173.084 C 3986.72 172.622 3987.41 173.072 3985.8 171.298 C 3985.8 144.209 3985.75 117.109 3985.84 90.0194 C 3985.85 86.7877 3986.97 86.9939 3989.57 86.0479 C 3990.27 94.1469 3990.8 170.106 3989.14 173.084 z"/>
<path transform="translate(0,0)" fill="rgb(226,224,247)" d="M 3932.99 109.509 L 3935.63 110.626 C 3937.96 113.81 3938.04 138.735 3935.1 141.634 C 3930.38 141.213 3928.45 142.895 3924.77 142.652 C 3916.7 142.121 3918.38 133.404 3915.37 130.492 C 3910.64 130.622 3902.29 130.845 3898.64 134.009 L 3898.67 135.901 L 3900.88 137.792 C 3905.01 138.48 3906.32 137.088 3910.88 135.933 L 3913.39 137.74 C 3909.61 141.672 3904.9 144.409 3899.49 141.546 C 3896.3 139.822 3893.91 136.903 3892.87 133.427 C 3890.58 125.934 3895.3 118.406 3902.53 116.204 C 3912.06 117.369 3910.08 124.733 3915.98 127.061 C 3917.94 123.041 3918.7 121.458 3921.5 117.998 C 3924.5 116.248 3927.07 117.111 3930.47 117.749 C 3932.41 115.994 3932.26 112.868 3932.99 109.509 z"/>
<path transform="translate(0,0)" fill="rgb(51,39,197)" d="M 3926.79 120.358 C 3934.75 123.644 3933.37 134.237 3927.68 139.479 C 3919.13 135.8 3919.97 125.75 3926.79 120.358 z"/>
<path transform="translate(0,0)" fill="rgb(226,224,247)" d="M 3751.57 137.557 C 3743.6 142.861 3735.41 146.263 3727.53 138.217 C 3724.22 134.773 3722.39 130.175 3722.42 125.401 C 3722.6 111.212 3734.22 109.27 3745.48 109.474 C 3747.82 111.605 3749.29 112.806 3751.03 115.506 L 3750.35 117.1 L 3746.56 118.459 L 3749.43 119.709 C 3746.06 119.876 3743.48 120.09 3740.14 120.54 L 3739.23 121.791 L 3748.89 122.327 L 3741.74 123.054 L 3751.3 124.671 L 3756.36 125.067 L 3756.56 134.39 L 3754.47 133.902 C 3752.81 135.196 3752.57 135.706 3751.57 137.557 z"/>
<path transform="translate(0,0)" fill="rgb(51,39,197)" d="M 3741.74 123.054 C 3740.32 123.701 3739.57 124.559 3738.46 125.637 C 3739.45 128.791 3742.42 127.191 3747.35 130.163 L 3747.83 132.262 C 3735.78 153.056 3714.32 118.372 3738.05 114.091 C 3741.08 113.544 3744.57 116.291 3746.56 118.459 L 3749.43 119.709 C 3746.06 119.876 3743.48 120.09 3740.14 120.54 L 3739.23 121.791 L 3748.89 122.327 L 3741.74 123.054 z"/>
<path transform="translate(0,0)" fill="rgb(51,39,197)" d="M 3751.3 124.671 L 3756.36 125.067 L 3756.56 134.39 L 3754.47 133.902 C 3752.81 135.196 3752.57 135.706 3751.57 137.557 C 3751.91 132.165 3752.01 130 3751.3 124.671 z"/>
<path transform="translate(0,0)" fill="rgb(226,224,247)" d="M 3756.36 125.067 C 3764.14 109.582 3774.39 116.841 3778.63 130.093 C 3778.69 130.277 3778.75 130.462 3778.81 130.647 C 3780.97 133.738 3780.42 138.671 3778.54 141.816 L 3777.74 141.856 L 3777.09 135.478 C 3775.79 138.577 3774.45 140.752 3771.13 142.114 C 3768.59 143.146 3765.74 143.104 3763.23 141.998 C 3759.79 140.477 3757.85 137.779 3756.56 134.39 L 3756.36 125.067 z"/>
<path transform="translate(0,0)" fill="rgb(51,39,197)" d="M 3778.81 130.647 C 3780.97 133.738 3780.42 138.671 3778.54 141.816 L 3777.74 141.856 L 3777.09 135.478 C 3770.83 135.32 3766.8 141.361 3762.01 134.882 L 3762.53 133.433 C 3765.64 131.602 3774.13 131.982 3778.81 130.647 z"/>
<path transform="translate(0,0)" fill="rgb(255,255,255)" d="M 3873.18 121.927 C 3868.53 129.361 3874.18 136.677 3869.17 142.41 L 3867.96 141.804 C 3865.6 138.041 3866.43 124.05 3867.35 119.56 C 3870.92 115.211 3878.01 124.005 3881.42 111.861 L 3882.98 111.081 C 3885.13 112.12 3888.07 117.928 3888.27 120.262 L 3885.64 122.52 L 3890.12 122.444 C 3893.49 126.064 3892.32 133.532 3890.7 137.704 L 3887.8 139.45 C 3888.71 140.109 3888.46 140.049 3888.84 141.376 C 3885.84 142.635 3887 142.415 3883.54 141.846 C 3877.23 135.517 3883.01 127.028 3879.67 120.562 L 3873.18 121.927 z"/>
<path transform="translate(0,0)" fill="rgb(51,39,197)" d="M 3885.64 122.52 L 3890.12 122.444 C 3893.49 126.064 3892.32 133.532 3890.7 137.704 L 3887.8 139.45 L 3885.67 136.91 C 3884.75 133.346 3884.54 125.992 3885.64 122.52 z"/>
<path transform="translate(0,0)" fill="rgb(226,224,247)" d="M 3848.25 116.992 C 3864.27 116.041 3860.26 124.837 3861.63 136.173 C 3861.54 135.451 3864.14 140.128 3864.35 140.625 L 3863.48 142.137 C 3859.23 143.614 3856.96 139.161 3855.93 139.672 C 3851.45 141.902 3850.81 143.339 3844.87 142.34 C 3833.2 123.615 3856.05 134.508 3857.37 122.486 C 3852.63 120.836 3845.86 124.94 3842.82 122.812 C 3843.63 120.602 3846.4 118.591 3848.25 116.992 z"/>
<path transform="translate(0,0)" fill="rgb(226,224,247)" d="M 3813.33 124.856 L 3813.77 122.576 C 3817.09 120.745 3818.51 119.658 3822.18 120.331 C 3826.85 125.016 3823.85 124.961 3823.84 129.673 L 3825.9 132.007 C 3826.76 136.074 3826.91 134.59 3825.73 138.44 C 3820.7 144.323 3810.12 145.056 3807.57 136.337 C 3810.53 134.834 3815.59 139.23 3821.03 137.095 L 3821.78 134.997 C 3818.19 130.229 3812.73 134.538 3810.69 127.537 L 3813.33 124.856 z"/>
<path transform="translate(0,0)" fill="rgb(51,39,197)" d="M 3813.33 124.856 L 3813.77 122.576 C 3817.09 120.745 3818.51 119.658 3822.18 120.331 C 3826.85 125.016 3823.85 124.961 3823.84 129.673 C 3820.97 128.016 3816.13 127.983 3813.33 124.856 z"/>
<path transform="translate(0,0)" fill="rgb(255,255,255)" d="M 3831.06 110.515 L 3832.27 111.068 C 3838.82 120.385 3834.51 117.896 3833.88 129.382 C 3833.51 136.01 3835.06 137.298 3838.9 141.904 C 3825.93 144.326 3829.91 131.434 3829.59 122.384 L 3827.4 120.557 C 3826.72 118.104 3829.67 115.985 3831.06 110.515 z"/>
<path transform="translate(0,0)" fill="rgb(255,255,255)" d="M 3782.85 110.244 C 3790.09 112.615 3787.01 124.17 3786.15 129.365 C 3785.14 135.516 3787.48 137.402 3791.11 141.95 L 3786.4 142.329 C 3777.48 138.014 3780.79 118.16 3782.85 110.244 z"/>
<path transform="translate(0,0)" fill="rgb(51,39,197)" d="M 3873.18 121.927 L 3879.67 120.562 C 3879.15 125.213 3879.04 138.343 3878.28 140.684 L 3876.17 138.957 L 3876.98 139.498 L 3876.2 139.019 L 3874.28 141.129 C 3871.66 137.424 3873.81 126.927 3873.18 121.927 z"/>
<path transform="translate(0,0)" fill="rgb(51,39,197)" d="M 3729.94 144.474 C 3734.02 144.188 3745.21 142.903 3747.16 146.469 C 3742.61 147.102 3735.02 147.858 3730.75 146.356 L 3729.94 144.474 z"/>
<path transform="translate(0,0)" fill="rgb(51,39,197)" d="M 3809.64 144.428 C 3812.96 144.26 3820.81 143.514 3823.18 145.168 L 3823.28 146.833 C 3819.18 147.05 3813.48 147.737 3809.79 146.311 L 3809.64 144.428 z"/>
<path transform="translate(0,0)" fill="rgb(51,39,197)" d="M 3897.83 113.428 C 3901.39 112.716 3904.76 112.315 3908.23 113.347 L 3908.89 114.598 C 3905.59 115.263 3901.14 115.542 3897.9 114.52 L 3897.83 113.428 z"/>
<path transform="translate(0,0)" fill="rgb(51,39,197)" d="M 3881.16 144.45 C 3885.55 144.04 3888.24 143.222 3891.21 146.628 C 3887.83 147.084 3884.86 147.816 3881.76 146.387 L 3881.16 144.45 z"/>
<path transform="translate(0,0)" fill="rgb(51,39,197)" d="M 3782.07 144.457 C 3786.32 144.026 3789.47 143.106 3792.22 146.633 C 3788.83 147.087 3785.86 147.817 3782.75 146.378 L 3782.07 144.457 z"/>
<path transform="translate(0,0)" fill="rgb(51,39,197)" d="M 3810.81 113.438 C 3814.25 112.878 3817.62 111.992 3820.87 113.221 L 3821.4 115.145 C 3817.28 115.271 3814.94 115.47 3810.92 114.516 L 3810.81 113.438 z"/>
<path transform="translate(0,0)" fill="rgb(51,39,197)" d="M 3761.65 113.492 C 3765.91 112.561 3768.89 111.593 3772.29 114.672 C 3769.24 115.075 3763.54 116.276 3761.65 113.492 z"/>
<path transform="translate(0,0)" fill="rgb(161,175,193)" d="M 1410.64 106.275 C 1415.63 106.177 1421.19 106.314 1426.22 106.339 L 1433.79 111.835 C 1435.17 115.842 1436.29 119.322 1438.24 123.127 C 1439.07 121.637 1442.32 116.055 1443.22 115.407 C 1451.73 109.307 1460.4 115.632 1460.1 125.358 C 1459.88 132.263 1458.7 134.003 1454.64 138.324 C 1443.16 141.77 1441.03 135.898 1438.3 127.113 C 1436.77 127.493 1431.77 135.202 1426.33 139.062 C 1421.11 139.218 1414.85 138.998 1409.54 138.935 C 1409.34 131.994 1408.22 111.019 1410.64 106.275 z"/>
<path transform="translate(0,0)" fill="rgb(255,255,255)" d="M 1413.94 110.739 C 1429.91 110.162 1434.74 116.018 1428.92 131.504 C 1423.75 135.434 1420.24 134.69 1413.91 134.497 C 1414.47 126.321 1414.25 118.909 1413.94 110.739 z"/>
<path transform="translate(0,0)" fill="rgb(255,255,255)" d="M 1445.69 117.879 C 1447.21 117.838 1449.42 118.027 1451 118.116 C 1457.35 123.045 1455.26 127.89 1452.67 134.675 C 1450.35 134.799 1449.33 134.507 1447.06 133.991 C 1441.56 129.991 1443.85 123.289 1445.69 117.879 z"/>
<path transform="translate(0,0)" fill="rgb(1,2,9)" d="M 235.874 112.828 C 246.374 110.689 256.651 117.361 258.97 127.823 C 261.29 138.285 254.795 148.674 244.374 151.173 C 237.473 152.827 230.215 150.63 225.391 145.425 C 220.566 140.219 218.925 132.816 221.098 126.06 C 223.271 119.304 228.92 114.245 235.874 112.828 z"/>
<path transform="translate(0,0)" fill="rgb(255,255,255)" d="M 236.133 121.764 C 241.799 119.771 248.007 122.759 249.984 128.43 C 251.961 134.102 248.956 140.301 243.279 142.262 C 237.624 144.215 231.455 141.224 229.486 135.575 C 227.517 129.926 230.49 123.749 236.133 121.764 z"/>
<path transform="translate(0,0)" fill="rgb(1,2,9)" d="M 265.307 111.636 C 268.104 111.407 269.131 111.238 271.713 112.52 C 277.01 117.326 279.561 133.225 281.603 140.973 C 284.292 133.38 286.389 111.429 295.613 111.648 C 303.651 117.164 302.038 130.295 305.795 135.178 L 307.44 135.177 C 312.872 128.938 309.539 116.299 317.424 111.644 C 320.853 111.667 319.681 111.257 322.403 113.316 C 322.893 116.436 320.773 121.093 319.779 125.23 C 316.487 133.752 315.482 151.639 306.242 152.775 C 296.276 149.071 301.24 132.13 294.018 127.221 C 290.394 129.815 289.936 150.819 281.889 153.75 C 275.131 152.014 274.136 143.783 272.554 137.745 C 270.444 129.69 265.448 119.814 265.307 111.636 z"/>
<path transform="translate(0,0)" fill="rgb(1,2,9)" d="M 169.054 110.592 C 169.288 110.688 175.771 113.82 175.165 113.957 C 191.722 110.227 207.2 116.662 198.241 135.873 C 191.859 149.559 178.221 140.736 174.124 142.091 L 173.938 142.155 C 174.239 149.122 176.586 166.248 170.705 169.885 L 168.571 169.253 C 167.468 168.166 166.561 166.268 166.649 164.756 C 167.215 155.03 163.813 116.991 169.054 110.592 z"/>
<path transform="translate(0,0)" fill="rgb(255,255,255)" d="M 183.553 120.719 C 187.569 119.927 191.468 122.537 192.266 126.552 C 193.063 130.567 190.458 134.47 186.445 135.273 C 182.423 136.077 178.511 133.466 177.712 129.444 C 176.913 125.421 179.529 121.513 183.553 120.719 z"/>
<path transform="translate(0,0)" fill="rgb(1,2,9)" d="M 127.38 94.3168 C 135.199 95.2625 153.156 92.091 156.879 98.1525 C 156.735 101.073 157.144 100.15 155.124 102.217 C 149.658 104.342 139.603 103.527 133.346 103.452 L 133.142 118.716 C 137.431 118.862 145.965 117.87 149.274 119.655 C 151.467 122.168 152.002 121.928 152.14 124.816 C 148.637 129.434 137.068 126.774 133.981 128.817 C 132.669 131.418 133.157 136.17 133.26 139.249 C 133.313 141.278 133.22 140.661 134.502 142.401 C 139.362 143.862 148.212 142.664 154.396 143.265 C 156.804 145.311 156.112 144.422 156.928 147.943 C 156.405 149.295 156.171 150.678 155.119 151.358 L 154.982 151.445 C 152.348 153.149 130.017 152.601 126.383 151.235 C 125.864 149.974 125.506 148.653 125.317 147.303 C 124.018 137.879 124.859 108.088 125.307 97.038 C 126.111 95.9825 126.802 95.0754 127.38 94.3168 z"/>
<path transform="translate(0,0)" fill="rgb(161,175,193)" d="M 590.898 106.218 C 591.96 106.624 594.724 107.385 594.903 108.382 C 595.668 112.648 596.101 135.001 594.541 137.417 C 590.226 139.639 585.418 139.154 580.851 137.992 C 575.464 136.621 577.5 132.848 574.508 129.302 C 566.25 133.758 570.496 143.34 555.797 137.76 C 551.216 132.916 549.16 123.412 553.087 118.251 C 564.674 103.023 570.377 121.493 574.491 123.57 C 578.503 113.968 578.683 112.881 588.788 113.903 C 590.953 111.177 590.427 110.137 590.898 106.218 z"/>
<path transform="translate(0,0)" fill="rgb(255,255,255)" d="M 558.421 117.69 C 560.745 117.7 561.64 117.843 563.922 118.3 C 570.065 122.785 567.191 129.437 564.738 135.175 L 559.991 134.203 C 553.91 130.103 556.313 123.358 558.421 117.69 z"/>
<path transform="translate(0,0)" fill="rgb(255,255,255)" d="M 581.806 117.858 C 584.29 117.775 584.909 117.839 587.328 118.412 C 592.659 123.023 590.736 129.219 588.126 134.853 C 583.912 134.362 584.822 135.01 581.598 132.612 C 578.84 127.792 580.419 123.072 581.806 117.858 z"/>
<path transform="translate(0,0)" fill="rgb(161,175,193)" d="M 1227.04 112.916 C 1231.37 113.859 1234.78 113.79 1238.66 114.888 C 1243.91 120.164 1242.54 166.024 1221.08 144.812 C 1225.43 138.66 1227.58 149.351 1234.49 143.307 C 1235.42 139.654 1235.6 140.811 1234.58 137.605 C 1232.51 137.859 1230.19 138.497 1228.14 139 C 1215.74 135.71 1218.48 119.818 1227.04 112.916 z"/>
<path transform="translate(0,0)" fill="rgb(255,255,255)" d="M 1226.92 117.743 C 1229.37 117.725 1229.94 117.822 1232.3 118.487 C 1237.81 122.964 1235.8 129.086 1233.12 134.569 C 1228.54 134.366 1229.52 135.07 1226.35 132.424 C 1223.95 127.601 1225.54 122.757 1226.92 117.743 z"/>
<path transform="translate(0,0)" fill="rgb(161,175,193)" d="M 1472.71 113.227 C 1477.28 113.083 1483.68 114.479 1485.69 118.932 L 1484.52 120.517 C 1480.28 121.548 1481.37 118.841 1475.58 117.547 C 1470.86 119.329 1470.01 126.119 1471.04 130.516 C 1475.93 135.903 1480.94 131.944 1487.46 132.089 C 1492.98 132.212 1494.4 136.109 1501.18 133.709 C 1499.82 129.906 1488.63 127.445 1487.49 119.089 C 1488.83 115.352 1487.98 116.556 1490.92 114.015 C 1494.53 112.823 1496.54 113.282 1500.3 113.739 C 1503.38 116.733 1503.61 116.071 1504.53 119.841 C 1501.97 121.522 1498.82 117.107 1492.71 118.379 L 1492.08 119.61 C 1496.9 122.839 1504.99 126.629 1505.29 132.828 C 1500.73 147.308 1487.64 134.832 1486.72 135.259 C 1477.13 139.714 1466.65 143.207 1465.92 127.242 C 1465.62 120.857 1468.16 117.217 1472.71 113.227 z"/>
<path transform="translate(0,0)" fill="rgb(161,175,193)" d="M 1110 106.36 C 1115.42 106.177 1121.71 106.321 1127.2 106.324 C 1140.75 118.107 1130.76 125.263 1116.76 125.067 C 1112.95 124.8 1114.1 134.364 1112.08 138.626 L 1110.67 138.751 L 1109.18 136.545 C 1109.06 130.969 1108.46 110.582 1110 106.36 z"/>
<path transform="translate(0,0)" fill="rgb(255,255,255)" d="M 1113.65 110.773 C 1118.28 110.577 1123.73 109.743 1127.28 112.679 C 1128.78 116.51 1128.35 115.537 1127.59 119.898 C 1124.33 120.414 1118.04 121.32 1115.32 119.499 C 1113.12 115.957 1113.81 115.401 1113.65 110.773 z"/>
<path transform="translate(0,0)" fill="rgb(161,175,193)" d="M 509.223 106.38 C 514.559 106.14 521.142 106.322 526.59 106.343 C 527.296 106.987 527.991 107.643 528.675 108.31 C 540.682 120.057 526.014 125.226 515.046 124.965 C 510.77 126.278 515.337 133.049 511.658 138.734 L 509.72 138.467 L 508.306 136.051 C 508.25 130.129 507.603 110.938 509.223 106.38 z"/>
<path transform="translate(0,0)" fill="rgb(255,255,255)" d="M 512.889 110.79 C 517.398 110.576 523.144 109.726 526.592 112.704 C 528.076 116.395 527.742 115.182 527.147 119.269 C 526.273 119.628 525.366 119.896 524.438 120.071 C 521.282 120.651 517.433 121.475 514.782 119.67 C 512.258 115.902 513.052 115.964 512.889 110.79 z"/>
<path transform="translate(0,0)" fill="rgb(161,175,193)" d="M 809.402 106.404 C 814.909 106.122 821.362 106.331 826.944 106.375 C 827.524 106.888 828.096 107.41 828.661 107.941 C 840.455 119.072 828.1 125.157 816.758 125.06 L 815.479 125.118 C 811.515 127.985 814.76 134.225 811.347 138.833 C 808.493 137.562 808.479 136.102 808.726 132.978 C 809.386 124.66 807.583 114.447 809.402 106.404 z"/>
<path transform="translate(0,0)" fill="rgb(255,255,255)" d="M 813.215 110.806 C 817.831 110.573 823.213 109.713 826.808 112.602 C 828.4 116.473 827.999 115.343 827.266 119.727 C 826.884 119.819 826.5 119.902 826.114 119.974 C 822.927 120.567 817.536 121.423 814.865 119.572 C 812.602 115.925 813.336 115.662 813.215 110.806 z"/>
<path transform="translate(0,0)" fill="rgb(161,175,193)" d="M 887.777 105.471 C 889.622 105.901 891.013 106.551 892.746 107.295 C 892.968 110.424 891.894 108.593 889.235 112.448 C 891.9 114.139 891.793 113.495 892.723 115.934 C 884.448 125.294 890.798 133.655 887.104 138.02 C 883.051 138.387 879.22 138.775 875.136 138.77 C 872.705 133.17 871.016 112.236 875.131 107.416 C 879.271 107.98 875.733 110.724 880.378 113.697 C 884.232 112.41 885.181 109.399 887.777 105.471 z"/>
<path transform="translate(0,0)" fill="rgb(255,255,255)" d="M 877.793 117.378 C 881.377 117.72 880.887 117.146 883.363 119.249 C 885.137 123.789 884.104 130.657 883.718 135.685 C 880.698 135.538 881.755 135.791 879.027 134.02 C 877.198 129.847 877.832 122.403 877.793 117.378 z"/>
<path transform="translate(0,0)" fill="rgb(161,175,193)" d="M 902.635 113.308 C 919.873 112.481 922.266 129.397 910.526 138.993 C 893.342 140.223 891.585 123.142 902.635 113.308 z"/>
<path transform="translate(0,0)" fill="rgb(255,255,255)" d="M 903.274 117.553 C 905.736 117.628 906.504 117.785 908.89 118.407 C 914.742 123.302 912.074 129.139 909.598 135.056 C 907.135 134.881 906.429 134.646 904.088 133.845 C 898.826 129.196 901.036 123.209 903.274 117.553 z"/>
<path transform="translate(0,0)" fill="rgb(161,175,193)" d="M 649.55 106.281 C 651.829 107.59 651.376 108.604 652.555 109.853 C 659.014 116.696 650.515 118.514 651.982 125.681 C 652.715 129.264 655.094 133.785 656.72 137.069 L 655.776 138.631 L 652.749 139.007 C 644.53 135.386 650.303 126.765 647.154 117.982 C 646.061 117.714 645.5 117.283 645.189 118.413 C 643.714 123.764 635.781 117.817 634.17 118.544 L 632.925 119.106 C 631.093 122.252 631.329 125.928 631.222 129.587 C 636.128 138.56 639.253 130.808 644.674 133.338 C 643.393 136.515 642.701 137.033 640.086 139.096 C 629.278 141.655 624.642 128.819 627.071 120.118 C 630.446 108.029 639.694 117.494 646.265 113.999 C 648.609 111.764 648.848 109.413 649.55 106.281 z"/>
<path transform="translate(0,0)" fill="rgb(161,175,193)" d="M 855.252 113.231 C 861.251 113.04 864.764 113.415 867.014 119.794 C 868.304 123.452 870.87 135.406 869.182 138.862 C 865.377 139.239 863.841 135.498 862.209 136.222 C 856.466 138.767 857.895 139.064 851.15 138.651 C 849.227 135.45 848.595 134.514 848.216 130.769 C 851.339 121.657 862.081 128.279 863.451 120.643 C 857.723 115.155 854.22 120.855 849.959 119.009 C 851.32 115.627 852.12 115.761 855.252 113.231 z"/>
<path transform="translate(0,0)" fill="rgb(1,2,9)" d="M 206.567 111.262 C 207.745 111.348 210.234 111.535 210.969 112.216 C 216.392 117.236 214.631 149.142 211.722 153.444 C 211.362 153.357 211.005 153.256 210.653 153.141 C 209.069 152.626 207.037 151.848 206.52 150.338 C 204.324 143.923 204.737 116.364 206.567 111.262 z"/>
<path transform="translate(0,0)" fill="rgb(161,175,193)" d="M 946.932 112.519 C 949.664 113.008 955.566 116.964 956.444 116.137 C 968.374 104.898 975.007 128.272 967.07 138.424 L 966.044 137.995 C 964.965 133.066 965.26 126.875 965.304 121.75 L 964.034 118.949 C 962.076 117.677 961.369 117.822 959.022 118.01 C 954.211 123.061 956.979 129.517 955.81 137.421 L 953.921 138.81 C 948.808 135.71 954.018 122.016 949.823 118.619 C 948.068 117.198 947.193 118.949 945.526 115.522 L 946.932 112.519 z"/>
<path transform="translate(0,0)" fill="rgb(161,175,193)" d="M 1203.62 113.146 C 1206.43 113.205 1207.03 113.458 1209.6 114.639 C 1213.86 119.144 1217.11 136.469 1209.94 138.141 C 1207.05 133.557 1210.61 122.018 1205.71 118.053 C 1205.7 118.044 1201.74 117.064 1201.34 116.964 C 1198.54 123.584 1198.9 136 1195.66 138.792 C 1193.15 135.421 1193.73 119.192 1194.62 114.814 C 1197.37 113.3 1197.19 115.182 1200.75 115.915 L 1203.62 113.146 z"/>
<path transform="translate(0,0)" fill="rgb(161,175,193)" d="M 600.434 113.213 C 609.265 116.187 601.682 126.24 605.592 133.059 C 608.651 134.963 607.411 134.526 611.26 134.515 C 616.86 128.777 612.363 121.984 615.11 114.638 L 616.916 114.004 L 619.099 115.198 C 618.716 121.894 620.866 134.228 617.341 138.478 C 614.626 138.392 611.912 138.263 609.2 138.09 C 595.933 137.261 599.614 122.996 600.434 113.213 z"/>
<path transform="translate(0,0)" fill="rgb(161,175,193)" d="M 1169.03 113.251 C 1173.77 113.137 1175.1 113.431 1179.19 115.694 C 1181.09 118.282 1180.8 117.199 1180.41 120.43 C 1176.91 121.857 1176.02 117.516 1170.7 117.902 C 1165.52 120.945 1165.67 130.032 1170.62 133.92 C 1174.52 134.613 1173.56 134.361 1177.56 132.713 C 1177.82 132.068 1178.37 131.846 1179.02 131.375 L 1180.29 132.364 C 1180.11 135.721 1180.4 134.541 1178.48 137.564 C 1166.45 145.685 1153.46 126.257 1169.03 113.251 z"/>
<path transform="translate(0,0)" fill="rgb(161,175,193)" d="M 839.44 106.217 L 842.185 107.243 C 844.605 110.406 843.501 133.18 843.488 138.562 L 840.541 138.349 C 837.502 134.796 838.921 111.618 839.44 106.217 z"/>
<path transform="translate(0,0)" fill="rgb(161,175,193)" d="M 921.112 113.348 C 925.486 114.971 928.58 113.717 930.627 115.564 C 924.645 124.148 925.129 123.486 925.428 133.751 C 925.079 137.496 925.684 136.406 923.257 138.778 L 921.89 138.222 C 920.538 134.236 921.104 118.296 921.112 113.348 z"/>
<path transform="translate(0,0)" fill="rgb(161,175,193)" d="M 538.773 113.417 C 543.43 114.977 545.774 113.897 548.311 115.663 C 542.454 123.646 542.793 122.6 543.05 132.249 C 542.847 136.68 543.515 135.657 540.954 138.815 L 539.628 138.176 C 538.207 133.788 538.721 118.497 538.773 113.417 z"/>
<path transform="translate(0,0)" fill="rgb(161,175,193)" d="M 1139.63 113.305 C 1143.92 114.977 1146.17 114.118 1148.62 115.818 C 1143.07 124.285 1143.48 123.94 1143.85 134.25 C 1144.09 135.351 1143.57 136.595 1143.22 137.7 L 1141.26 138.711 L 1139.97 137.409 C 1138.98 131.184 1139.5 119.999 1139.63 113.305 z"/>
<path transform="translate(0,0)" fill="rgb(161,175,193)" d="M 938.442 113.24 L 941.67 114.416 C 944.553 118.257 942.462 130.445 942.633 137.955 C 941.972 138.244 940.464 138.317 939.677 138.391 C 936.608 134.009 938.184 119.452 938.442 113.24 z"/>
<path transform="translate(0,0)" fill="rgb(161,175,193)" d="M 1153.85 113.315 L 1156.62 114.728 C 1158.27 118.251 1157.57 134.164 1157.49 138.706 L 1154.66 138.429 L 1153.36 136.487 C 1152.44 129.985 1152.51 119.728 1153.85 113.315 z"/>
<path transform="translate(0,0)" fill="rgb(161,175,193)" d="M 1184.55 113.226 C 1187.08 114.415 1186.34 113.774 1187.89 116.094 C 1188.59 121.718 1189.16 134.403 1187.03 139.463 C 1181.7 137.456 1183.84 118.208 1184.55 113.226 z"/>
</svg>