<!-- RECRAFT VECTORIZE from logo/options-w/mock/W1-modular-navbar-dark.png -->
<svg version="1.1" xmlns="http://www.w3.org/2000/svg" style="display: block;" viewBox="0 0 4096 256" width="4096" height="256" preserveAspectRatio="none">
<path transform="translate(0,0)" fill="rgb(11,17,33)" d="M 0 0 L 4096 0 L 4096 256 L 0 256 L 0 0 z"/>
<path transform="translate(0,0)" fill="rgb(66,55,202)" d="M 3694.08 64.3377 C 3772.53 62.6145 3851.74 65.1092 3930.26 64.1196 C 3942.66 63.9632 3956.54 63.7082 3968.89 64.3141 C 3971.19 67.5001 3979.96 71.3941 3984.47 77.0798 C 3989.55 83.4815 3984.85 82.1815 3989.54 86.0759 C 3990.31 94.1062 3990.77 170.217 3989.12 173.067 C 3985.58 176.75 3987.7 178.739 3985.04 181.397 C 3981.25 185.173 3975.81 191.793 3970.49 192.863 L 3969.04 194.8 C 3964.49 195.89 3940.49 195.448 3933.94 195.443 L 3856.64 195.431 L 3744.4 195.459 C 3736.08 195.458 3700.51 195.988 3693.92 194.873 C 3691.28 191.204 3691.18 193.239 3687.03 190.164 C 3682.61 187.187 3672.32 175.514 3672.76 170.58 C 3674.25 153.81 3668.71 89.2959 3677.25 78.8732 L 3685.75 70.1548 C 3690.06 65.1179 3689.92 70.2166 3694.08 64.3377 z"/>
<path transform="translate(0,0)" fill="rgb(226,224,247)" d="M 3932.99 109.507 C 3935.99 110.782 3935.19 110.045 3937 112.474 C 3937.1 118.95 3938.62 137.134 3934.84 141.418 C 3932.29 141.67 3927.08 142.875 3924.71 142.732 C 3916.48 142.235 3919.2 133.773 3915.34 130.565 C 3910.62 130.665 3902.3 130.837 3898.65 134.01 L 3898.67 135.902 L 3900.88 137.791 C 3905.01 138.479 3906.32 137.087 3910.88 135.932 L 3913.39 137.739 C 3909.61 141.672 3904.9 144.411 3899.49 141.547 C 3896.29 139.823 3893.91 136.904 3892.87 133.428 C 3890.57 125.931 3895.29 118.407 3902.53 116.203 C 3912.07 117.367 3910.08 124.733 3915.98 127.061 C 3917.94 123.063 3918.73 121.452 3921.5 117.994 C 3924.48 116.194 3927.06 117.091 3930.47 117.759 C 3932.41 115.992 3932.25 112.869 3932.99 109.507 z"/>
<path transform="translate(0,0)" fill="rgb(55,43,198)" d="M 3926.79 120.358 C 3934.75 123.644 3933.37 134.237 3927.68 139.479 C 3919.13 135.8 3919.97 125.75 3926.79 120.358 z"/>
<path transform="translate(0,0)" fill="rgb(226,224,247)" d="M 3751.57 137.557 C 3743.6 142.863 3735.4 146.264 3727.53 138.218 C 3724.22 134.774 3722.39 130.175 3722.42 125.401 C 3722.6 111.211 3734.22 109.269 3745.48 109.474 C 3747.82 111.605 3749.29 112.806 3751.03 115.506 L 3750.35 117.099 L 3746.56 118.459 L 3749.43 119.71 C 3746.06 119.876 3743.48 120.09 3740.14 120.541 L 3739.23 121.792 L 3748.88 122.321 L 3741.7 123.092 L 3751.31 124.447 L 3756.33 125.161 L 3756.56 134.388 L 3754.47 133.907 C 3752.81 135.196 3752.57 135.708 3751.57 137.557 z"/>
<path transform="translate(0,0)" fill="rgb(55,43,198)" d="M 3741.7 123.092 C 3740.3 123.715 3739.54 124.583 3738.45 125.637 C 3739.46 128.8 3742.41 127.165 3747.34 130.173 L 3747.83 132.265 C 3735.83 153.058 3714.29 118.389 3738.05 114.091 C 3741.08 113.543 3744.57 116.292 3746.56 118.459 L 3749.43 119.71 C 3746.06 119.876 3743.48 120.09 3740.14 120.541 L 3739.23 121.792 L 3748.88 122.321 L 3741.7 123.092 z"/>
<path transform="translate(0,0)" fill="rgb(55,43,198)" d="M 3751.31 124.447 L 3756.33 125.161 L 3756.56 134.388 L 3754.47 133.907 C 3752.81 135.196 3752.57 135.708 3751.57 137.557 C 3751.91 132.082 3751.98 129.868 3751.31 124.447 z"/>
<path transform="translate(0,0)" fill="rgb(226,224,247)" d="M 3756.33 125.161 C 3764.23 109.315 3774.64 117.062 3778.77 130.516 L 3778.81 130.647 C 3780.96 133.738 3780.42 138.669 3778.54 141.814 L 3777.75 141.85 L 3777.09 135.478 C 3775.79 138.578 3774.45 140.752 3771.13 142.114 C 3768.59 143.147 3765.74 143.106 3763.23 142 C 3759.79 140.478 3757.85 137.779 3756.56 134.388 L 3756.33 125.161 z"/>
<path transform="translate(0,0)" fill="rgb(55,43,198)" d="M 3778.81 130.647 C 3780.96 133.738 3780.42 138.669 3778.54 141.814 L 3777.75 141.85 L 3777.09 135.478 C 3770.84 135.32 3766.8 141.361 3762.01 134.882 L 3762.53 133.433 C 3765.64 131.602 3774.13 131.982 3778.81 130.647 z"/>
<path transform="translate(0,0)" fill="rgb(251,251,252)" d="M 3873.18 121.928 C 3868.54 129.366 3874.18 136.68 3869.17 142.411 L 3867.96 141.805 C 3865.6 138.041 3866.43 124.049 3867.35 119.558 C 3870.92 115.209 3878.01 124.005 3881.42 111.859 L 3882.98 111.079 C 3885.13 112.122 3888.07 117.928 3888.27 120.264 L 3885.64 122.516 L 3890.12 122.451 C 3893.49 126.057 3892.32 133.539 3890.69 137.701 L 3887.8 139.45 C 3888.17 139.727 3888.65 140.559 3888.93 140.993 C 3887.02 142.62 3887.64 142.157 3884.61 142.184 C 3876.51 137.685 3883.15 127.885 3879.67 120.563 L 3873.18 121.928 z"/>
<path transform="translate(0,0)" fill="rgb(55,43,198)" d="M 3885.64 122.516 L 3890.12 122.451 C 3893.49 126.057 3892.32 133.539 3890.69 137.701 L 3887.8 139.45 L 3885.67 136.91 C 3884.75 133.344 3884.54 125.99 3885.64 122.516 z"/>
<path transform="translate(0,0)" fill="rgb(226,224,247)" d="M 3848.25 116.994 C 3864.27 116.043 3860.26 124.841 3861.63 136.183 C 3861.54 135.467 3864.13 140.142 3864.34 140.63 L 3863.48 142.136 C 3859.23 143.617 3856.95 139.157 3855.93 139.67 C 3851.45 141.912 3850.81 143.356 3844.87 142.331 C 3833.15 123.543 3856.34 134.517 3857.32 122.458 C 3852.85 120.959 3846.65 124.617 3842.85 122.962 C 3843.55 120.591 3846.3 118.659 3848.25 116.994 z"/>
<path transform="translate(0,0)" fill="rgb(226,224,247)" d="M 3813.33 124.856 L 3813.77 122.576 C 3817.09 120.745 3818.51 119.658 3822.18 120.331 C 3826.85 125.016 3823.85 124.961 3823.84 129.673 C 3826.76 132.414 3827.17 134.255 3825.95 138.054 C 3821.07 144.439 3810.58 145.18 3807.48 136.351 C 3811.45 134.468 3816.21 140.027 3821.14 137.189 L 3821.31 134.556 C 3816.68 129.817 3810.83 134.025 3810.78 127.319 L 3813.33 124.856 z"/>
<path transform="translate(0,0)" fill="rgb(55,43,198)" d="M 3813.33 124.856 L 3813.77 122.576 C 3817.09 120.745 3818.51 119.658 3822.18 120.331 C 3826.85 125.016 3823.85 124.961 3823.84 129.673 C 3820.97 128.016 3816.13 127.983 3813.33 124.856 z"/>
<path transform="translate(0,0)" fill="rgb(251,251,252)" d="M 3831.06 110.514 L 3832.27 111.067 C 3841.8 124.559 3826.21 126.693 3838.91 141.904 C 3825.93 144.327 3829.9 131.44 3829.59 122.385 L 3827.4 120.559 C 3826.72 118.104 3829.67 115.984 3831.06 110.514 z"/>
<path transform="translate(0,0)" fill="rgb(251,251,252)" d="M 3782.85 110.244 C 3790.09 112.601 3787.01 124.176 3786.16 129.365 C 3785.15 135.517 3787.48 137.401 3791.11 141.95 L 3786.4 142.331 C 3777.48 138.014 3780.79 118.161 3782.85 110.244 z"/>
<path transform="translate(0,0)" fill="rgb(55,43,198)" d="M 3873.18 121.928 L 3879.67 120.563 C 3879.19 124.881 3878.98 138.274 3878.24 140.357 C 3877.19 139.922 3877.01 139.757 3876.16 138.995 L 3874.26 141.1 C 3871.68 137.447 3873.8 126.896 3873.18 121.928 z"/>
<path transform="translate(0,0)" fill="rgb(55,43,198)" d="M 3729.96 144.475 C 3734.04 144.189 3745.19 142.91 3747.15 146.466 C 3742.61 147.095 3735.02 147.85 3730.75 146.354 L 3729.96 144.475 z"/>
<path transform="translate(0,0)" fill="rgb(55,43,198)" d="M 3809.66 144.429 C 3812.97 144.261 3820.81 143.512 3823.18 145.18 L 3823.27 146.824 C 3819.17 147.042 3813.48 147.729 3809.79 146.309 L 3809.66 144.429 z"/>
<path transform="translate(0,0)" fill="rgb(55,43,198)" d="M 3897.84 113.429 C 3901.39 112.721 3904.76 112.323 3908.23 113.349 L 3908.89 114.597 C 3905.59 115.258 3901.14 115.537 3897.9 114.519 L 3897.84 113.429 z"/>
<path transform="translate(0,0)" fill="rgb(55,43,198)" d="M 3881.18 144.451 C 3885.55 144.042 3888.24 143.231 3891.2 146.629 C 3887.82 147.081 3884.86 147.806 3881.76 146.384 L 3881.18 144.451 z"/>
<path transform="translate(0,0)" fill="rgb(55,43,198)" d="M 3782.09 144.457 C 3786.49 144.041 3789.23 143.215 3792.21 146.633 C 3788.82 147.084 3785.86 147.807 3782.75 146.374 L 3782.09 144.457 z"/>
<path transform="translate(0,0)" fill="rgb(55,43,198)" d="M 3810.82 113.443 C 3814.26 112.885 3817.62 111.999 3820.86 113.233 L 3821.38 115.141 C 3817.25 115.266 3814.94 115.462 3810.92 114.512 L 3810.82 113.443 z"/>
<path transform="translate(0,0)" fill="rgb(55,43,198)" d="M 3761.66 113.493 C 3765.9 112.568 3768.9 111.607 3772.28 114.663 C 3769.26 115.066 3763.52 116.271 3761.66 113.493 z"/>
<path transform="translate(0,0)" fill="rgb(251,251,252)" d="M 322.911 117.049 C 326.261 114.869 325.373 115.34 327.111 111.261 L 328.315 111.744 C 329.459 118.323 319.852 142.685 317.7 151.91 L 316.42 152.857 C 314.858 150.871 315.211 143.614 315.167 140.808 C 313.887 146.016 312.572 153.382 305.817 152.58 C 299.712 148.037 297.754 135.386 295.964 127.849 C 295.75 134.91 295.79 138.923 293.418 145.685 L 292.626 145.935 C 290.985 144.746 291.188 137.829 291.123 135.614 C 289.318 142.122 288.616 148.301 282.943 151.883 C 280.848 152.04 279.938 152.434 278.148 150.742 C 273.063 145.932 266.35 119.911 265.77 113.701 C 267.555 111.508 266.83 112.147 269.665 111.036 L 272.043 112.208 C 275.097 115.768 275.802 118.961 277.136 123.382 C 277.223 120.975 277.349 117.18 277.482 114.684 C 277.522 113.941 279.236 114.04 278.208 112.456 C 279.63 115.452 280.624 117.44 282.379 120.259 L 283.655 120.61 C 283.546 116.46 283.228 117.896 285.806 114.355 L 285.109 115.752 C 285.825 116.733 285.802 122.677 285.87 124.374 C 287.344 119.023 288.715 110.37 295.908 111.957 C 301.843 116.936 303.171 127.76 305.061 135.372 C 305.585 131.005 304.428 119.507 308.279 116.72 C 310.043 119.483 309.791 124.046 309.882 127.443 C 310.543 125.107 311.224 122.776 311.924 120.452 C 313.386 115.633 313.573 113.886 317.913 111.565 C 321.19 111.955 320.354 111.456 322.703 113.207 L 322.911 117.049 z"/>
<path transform="translate(0,0)" fill="rgb(3,6,18)" d="M 322.911 117.049 C 326.261 114.869 325.373 115.34 327.111 111.261 L 328.315 111.744 C 329.459 118.323 319.852 142.685 317.7 151.91 L 316.42 152.857 C 314.858 150.871 315.211 143.614 315.167 140.808 C 316.876 135.607 320.34 120.488 322.911 117.049 z"/>
<path transform="translate(0,0)" fill="rgb(3,6,18)" d="M 277.136 123.382 C 277.223 120.975 277.349 117.18 277.482 114.684 C 277.522 113.941 279.236 114.04 278.208 112.456 C 279.63 115.452 280.624 117.44 282.379 120.259 L 283.655 120.61 C 283.546 116.46 283.228 117.896 285.806 114.355 L 285.109 115.752 C 285.825 116.733 285.802 122.677 285.87 124.374 C 284.728 129.942 283.194 135.08 281.622 140.527 C 280.035 135.051 278.578 128.948 277.136 123.382 z"/>
<path transform="translate(0,0)" fill="rgb(3,6,18)" d="M 305.061 135.372 C 305.585 131.005 304.428 119.507 308.279 116.72 C 310.043 119.483 309.791 124.046 309.882 127.443 C 309.455 130.465 309.438 132.824 307.128 134.868 L 305.061 135.372 z"/>
<path transform="translate(0,0)" fill="rgb(3,6,18)" d="M 291.123 135.614 C 291.615 132.731 291.784 129.678 293.938 127.724 L 295.964 127.849 C 295.75 134.91 295.79 138.923 293.418 145.685 L 292.626 145.935 C 290.985 144.746 291.188 137.829 291.123 135.614 z"/>
<path transform="translate(0,0)" fill="rgb(129,142,163)" d="M 1410.18 106.375 C 1415.03 106.103 1421.2 106.319 1426.15 106.355 L 1433.22 111.303 C 1435.17 114.858 1436.38 119.268 1437.59 123.177 C 1439.88 122.734 1440.52 118.275 1444.1 114.458 C 1456.3 108.307 1468.17 125.456 1454.01 138.579 C 1440.95 141.918 1441.64 133.899 1438.08 126.919 C 1436.92 127.327 1431.7 135.255 1426.5 139.03 C 1421.2 139.189 1414.92 139.008 1409.55 138.975 C 1409.38 131.666 1408.72 112.748 1410.18 106.375 z"/>
<path transform="translate(0,0)" fill="rgb(15,20,36)" d="M 1413.92 134.489 C 1414.8 126.45 1410.87 112.49 1419.63 110.123 C 1423.96 110.989 1425.14 111.196 1428.57 113.935 C 1432.24 120.61 1432.1 124.315 1428.6 131.224 C 1428.45 131.371 1428.3 131.516 1428.14 131.659 C 1423.82 135.59 1419.6 134.732 1413.92 134.489 z"/>
<path transform="translate(0,0)" fill="rgb(3,6,18)" d="M 1428.57 113.935 C 1432.24 120.61 1432.1 124.315 1428.6 131.224 C 1427.67 130.762 1426.67 129.827 1425.85 129.135 C 1425.2 123.348 1425.03 121.604 1425.9 115.877 L 1428.57 113.935 z"/>
<path transform="translate(0,0)" fill="rgb(251,251,252)" d="M 220.172 134.203 C 219.487 127.899 221.877 121.65 226.594 117.412 C 231.312 113.173 237.78 111.463 243.975 112.816 C 246.767 113.426 249.393 114.635 251.672 116.36 C 258.842 121.791 261.427 131.386 257.955 139.684 C 254.483 147.981 245.835 152.877 236.934 151.583 C 228.037 150.29 221.142 143.141 220.172 134.203 z"/>
<path transform="translate(0,0)" fill="rgb(3,6,18)" d="M 236.414 121.794 C 242.081 119.946 248.168 123.065 249.978 128.744 C 251.787 134.423 248.627 140.489 242.936 142.26 C 237.299 144.014 231.303 140.89 229.511 135.266 C 227.718 129.641 230.802 123.624 236.414 121.794 z"/>
<path transform="translate(0,0)" fill="rgb(251,251,252)" d="M 174.037 141.844 C 174.214 148.184 176.404 166.234 171.519 169.783 C 168.561 169.659 169.538 170.044 167.285 167.892 C 165.254 160.752 164.429 117.126 169.59 111.986 C 173.168 111.955 172.223 111.964 175.321 114.594 C 175.885 114.43 177.889 113.368 178.537 113.041 C 190.4 110.124 194.206 113.582 200.355 123.193 L 200.359 132.805 C 194.822 142.238 189.589 146.016 178.537 142.912 C 177.1 141.668 176.289 142.014 174.037 141.844 z"/>
<path transform="translate(0,0)" fill="rgb(3,6,18)" d="M 184.431 120.764 C 188.438 120.451 191.935 123.456 192.229 127.465 C 192.523 131.473 189.501 134.956 185.492 135.231 C 181.509 135.503 178.054 132.506 177.762 128.525 C 177.471 124.544 180.451 121.075 184.431 120.764 z"/>
<path transform="translate(0,0)" fill="rgb(129,142,163)" d="M 594.192 105.504 L 597.355 106.789 C 600.852 115.115 599.838 110.253 603.887 112.806 C 601.571 114.219 600.637 114.188 600.204 116.829 C 599.122 123.417 599.633 132.682 602.541 138.642 L 599.061 137.186 C 595.027 140.294 595.423 139.892 590.845 138.786 C 588.356 138.611 584.899 139.192 583.145 138.858 C 575.725 137.445 576.628 131.059 574.292 129.66 C 569.401 135.343 562.762 141.757 555.048 138.079 C 548.198 130.239 550.086 111.708 562.737 113.254 C 571.802 114.361 568.758 117.261 573.992 123.276 C 574.7 122.862 575.218 122.789 575.339 121.996 C 577.757 106.055 590.42 121.34 591.107 107.78 C 591.116 107.591 593.833 105.756 594.192 105.504 z"/>
<path transform="translate(0,0)" fill="rgb(15,20,36)" d="M 594.192 105.504 L 597.355 106.789 C 600.852 115.115 599.838 110.253 603.887 112.806 C 601.571 114.219 600.637 114.188 600.204 116.829 C 599.122 123.417 599.633 132.682 602.541 138.642 L 599.061 137.186 C 595.027 140.294 595.423 139.892 590.845 138.786 C 591.642 138.674 594.301 137.69 594.465 137.018 C 596.154 130.108 596.387 111.806 594.192 105.504 z"/>
<path transform="translate(0,0)" fill="rgb(3,6,18)" d="M 558.398 118.384 C 560.403 118.351 561.939 118.596 563.922 118.869 C 569.671 123.36 566.887 129.642 564.694 135.259 C 553.813 133.398 555.686 126.714 558.398 118.384 z"/>
<path transform="translate(0,0)" fill="rgb(3,6,18)" d="M 582.248 117.561 C 584.335 117.677 585.291 117.943 587.311 118.471 C 592.66 123.325 590.46 129.761 587.724 135.445 L 583.456 134.208 C 578.1 129.642 580.311 123.28 582.248 117.561 z"/>
<path transform="translate(0,0)" fill="rgb(251,251,252)" d="M 127.048 94.2447 C 135.16 95.1856 153.951 91.5647 156.943 98.6407 C 156.87 99.135 156.619 101.291 156.428 101.472 C 152.961 104.763 138.702 103.555 133.448 103.449 L 133.225 118.697 C 138.207 118.672 143.549 118.539 148.492 118.879 C 151.164 121.417 150.427 120.221 151.175 124.206 C 148.571 131.816 142.73 124.324 134.543 129.356 C 132.44 132.83 133.204 133.637 133.284 138.249 L 133.493 140.838 C 138.601 145.231 150.992 141.018 158.059 146.753 L 157.397 149.602 C 153.301 153.1 130.358 153.429 126.301 151.359 C 125.944 150.651 125.665 149.907 125.469 149.139 C 123.819 142.571 125.016 106.447 125.064 97.5346 C 125.847 96.2361 126.508 95.1394 127.048 94.2447 z"/>
<path transform="translate(0,0)" fill="rgb(129,142,163)" d="M 1486.16 122.095 C 1490.45 110.413 1500.16 109.56 1505.93 120.428 C 1502.64 122.73 1503 121.747 1502.12 125.215 C 1503.99 127.011 1504.31 127.755 1505.47 130.093 C 1504.59 147.612 1485.01 135.003 1485.56 134.894 C 1481.6 135.68 1477.8 143.401 1469.57 136.972 C 1454.52 125.2 1481.85 99.274 1485.43 121.373 L 1486.16 122.095 z"/>
<path transform="translate(0,0)" fill="rgb(3,6,18)" d="M 1486.16 122.095 C 1491.94 128.79 1497.28 126.98 1500.13 132.824 L 1498.65 134.155 C 1491.19 134.797 1492.98 131.99 1486.84 131.287 C 1483.59 130.914 1478.3 135.046 1474.02 133.797 C 1469.9 130.66 1470.66 123.939 1472.66 119.761 C 1479.26 115.117 1478.05 121.371 1485.19 121.374 L 1485.43 121.373 L 1486.16 122.095 z"/>
<path transform="translate(0,0)" fill="rgb(3,6,18)" d="M 1502.12 125.215 C 1496.35 123.689 1494.69 124.085 1491.81 119.541 C 1496.26 116.058 1500.29 121.302 1505.7 120.465 L 1505.93 120.428 C 1502.64 122.73 1503 121.747 1502.12 125.215 z"/>
<path transform="translate(0,0)" fill="rgb(3,6,18)" d="M 3693.06 59.48 C 3693.3 59.4581 3693.54 59.4387 3693.78 59.4217 C 3703.61 58.7127 3723.54 59.3039 3734.06 59.3024 L 3815.37 59.3028 L 3913.08 59.2894 C 3930.66 59.2819 3948.39 59.082 3965.97 59.5414 C 3968.45 59.6062 3968.16 59.91 3970.01 61.5107 C 3967.99 61.6446 3965.98 61.7438 3963.96 61.8085 C 3920.63 63.0568 3750.65 61.6051 3694.79 61.1153 C 3694.79 61.1153 3693.31 59.7168 3693.06 59.48 z"/>
<path transform="translate(0,0)" fill="rgb(129,142,163)" d="M 644.577 129.966 C 645.068 132.541 645.187 133.123 644.21 135.54 C 631.11 147.069 621.883 128.698 628.317 117.907 C 633.892 108.556 640.935 116.638 644.731 115.779 C 647.05 113.454 648.26 110.663 649.744 107.743 L 651.342 107.469 C 652.578 108.94 652.538 110.208 652.73 112.118 L 656.176 114.534 C 656.619 118.286 653.04 117.437 652.52 119.742 C 651.553 124.028 656.592 135.831 654.366 139.579 C 646.691 139.136 647.855 126.256 647.568 120.376 C 646.818 124.097 646.571 126.124 646.337 129.915 C 645.898 129.958 644.935 130.11 644.577 129.966 z"/>
<path transform="translate(0,0)" fill="rgb(3,6,18)" d="M 644.577 129.966 C 639.77 133.549 636.498 136.365 631.638 131.267 C 630.259 126.341 631.953 120.619 636.611 118.106 C 641.568 118.718 638.879 120.261 643.037 121.554 L 646.186 118.302 L 647.301 118.392 L 647.568 120.376 C 646.818 124.097 646.571 126.124 646.337 129.915 C 645.898 129.958 644.935 130.11 644.577 129.966 z"/>
<path transform="translate(0,0)" fill="rgb(129,142,163)" d="M 1227.1 112.945 C 1232.05 113.933 1236.79 113.575 1239.93 116.238 C 1240.51 118.52 1240.86 120.858 1240.96 123.213 C 1241.52 135.563 1238.84 162.232 1221.06 144.815 C 1225.64 138.587 1227.8 149.745 1234.67 142.959 C 1235.35 139.551 1235.69 140.307 1234.58 137.383 C 1232.41 137.903 1230.26 138.456 1228.11 139.043 C 1215.9 135.571 1218.39 119.723 1227.1 112.945 z"/>
<path transform="translate(0,0)" fill="rgb(3,6,18)" d="M 1227.38 117.504 C 1238.28 118.009 1236.7 127.944 1232.6 134.801 C 1231.27 134.723 1229.43 134.251 1228.08 133.955 C 1223.18 129.283 1225.31 123.08 1227.38 117.504 z"/>
<path transform="translate(0,0)" fill="rgb(129,142,163)" d="M 847.926 133.538 C 847.799 136.599 848.272 136.552 846.671 138.78 C 844.386 135.229 844.529 111.811 845.741 107.137 L 847.128 106.417 C 849.047 108.833 846.705 116.623 848.339 121.903 L 849.973 122.496 L 852.181 121.334 L 850.035 119.917 C 849.943 118.683 849.745 117.413 850.892 116.678 C 871.49 103.476 867.026 130.658 869.263 134.896 C 869.993 135.217 870.413 136.226 870.825 136.967 L 870.086 138.533 C 864.228 139.195 866.381 136.341 861.871 136.256 C 859.442 136.21 857.526 139.049 853.713 139.142 C 850.561 137.982 849.753 136.301 847.926 133.538 z"/>
<path transform="translate(0,0)" fill="rgb(3,6,18)" d="M 847.926 133.538 C 847.799 136.599 848.272 136.552 846.671 138.78 C 844.386 135.229 844.529 111.811 845.741 107.137 L 847.128 106.417 C 849.047 108.833 846.705 116.623 848.339 121.903 L 849.973 122.496 L 852.181 121.334 C 854.617 119.349 855.84 118.08 859.022 117.708 C 862.064 119.012 861.278 118.209 862.693 120.923 C 858.386 126.087 848.144 123.02 847.926 133.538 z"/>
<path transform="translate(0,0)" fill="rgb(129,142,163)" d="M 872.225 116.719 L 871.079 115.006 C 874.591 111.301 873.463 108.792 875.729 107.088 C 878.871 108.942 876.801 111.622 880.868 113.773 C 887.693 111.102 883.854 104.749 892.091 106.667 L 893.012 107.931 C 892.861 108.36 892.345 109.523 892.017 109.739 C 885.364 114.127 893.122 111.88 892.815 116.808 C 881.986 122.508 893.952 131.394 886.119 138.411 C 880.534 140.342 873.891 138.84 873.343 131.843 L 869.263 134.896 C 869.848 128.369 867.283 121.257 872.225 116.719 z"/>
<path transform="translate(0,0)" fill="rgb(3,6,18)" d="M 872.225 116.719 C 873.846 120.981 873.398 127.155 873.343 131.843 L 869.263 134.896 C 869.848 128.369 867.283 121.257 872.225 116.719 z"/>
<path transform="translate(0,0)" fill="rgb(3,6,18)" d="M 878.336 117.267 C 881.936 117.765 880.977 117.162 883.313 119.347 C 884.789 123.875 883.878 130.834 883.541 135.761 C 880.108 134.785 881.08 135.475 878.775 133.091 C 877.194 128.65 878.034 122.119 878.336 117.267 z"/>
<path transform="translate(0,0)" fill="rgb(129,142,163)" d="M 1110.03 106.382 C 1115.44 106.153 1121.72 106.323 1127.21 106.344 C 1128.4 107.364 1129.55 108.425 1130.66 109.526 C 1140.72 119.636 1126.32 125.2 1116.79 125.048 L 1115.32 125.287 C 1112.37 129.32 1115.11 132.601 1112.45 138.531 L 1110.86 138.684 L 1109.27 137.006 C 1108.93 132.233 1108.5 110.208 1110.03 106.382 z"/>
<path transform="translate(0,0)" fill="rgb(3,6,18)" d="M 1113.76 110.853 C 1118.27 110.665 1123.76 109.856 1127.2 112.776 C 1128.66 116.493 1128.23 115.575 1127.47 119.83 C 1124.24 120.316 1118.02 121.24 1115.37 119.436 C 1113.25 115.983 1113.91 115.339 1113.76 110.853 z"/>
<path transform="translate(0,0)" fill="rgb(129,142,163)" d="M 509.221 106.41 C 514.69 106.12 521.037 106.325 526.575 106.37 C 527.333 107.056 528.078 107.756 528.81 108.47 C 540.687 120.097 525.804 125.21 515.048 124.958 C 509.565 128.298 516.802 134.353 511.006 138.782 C 510.08 138.391 508.681 138.01 508.627 137.132 C 508.217 130.477 507.424 111.573 509.221 106.41 z"/>
<path transform="translate(0,0)" fill="rgb(3,6,18)" d="M 512.99 110.883 C 517.498 110.687 522.791 109.877 526.3 112.654 C 527.817 116.514 527.374 115.548 526.602 119.963 C 523.091 120.276 517.702 121.215 514.785 119.618 C 512.4 115.947 513.156 115.851 512.99 110.883 z"/>
<path transform="translate(0,0)" fill="rgb(129,142,163)" d="M 809.403 106.423 C 814.871 106.128 821.358 106.339 826.906 106.381 C 827.806 107.171 828.685 107.987 829.54 108.826 C 840.399 119.584 826.863 125.136 816.758 125.045 L 815.305 125.136 C 811.742 128.588 815.631 130.639 810.479 138.339 L 809.344 138.369 C 808.516 136.085 808.545 110.172 809.403 106.423 z"/>
<path transform="translate(0,0)" fill="rgb(3,6,18)" d="M 813.322 110.89 C 817.661 110.682 823.269 109.879 826.67 112.576 C 828.318 116.405 827.954 115.161 827.297 119.452 C 826.151 119.789 824.982 120.039 823.799 120.201 C 820.741 120.619 817.379 121.308 814.917 119.439 C 812.78 115.981 813.455 115.407 813.322 110.89 z"/>
<path transform="translate(0,0)" fill="rgb(129,142,163)" d="M 902.631 113.324 C 919.871 112.457 922.291 129.453 910.522 138.989 C 893.393 140.218 891.566 123.277 902.631 113.324 z"/>
<path transform="translate(0,0)" fill="rgb(3,6,18)" d="M 903.391 117.637 C 904.954 117.761 906.883 118.062 908.473 118.266 C 914.695 122.754 911.935 129.256 909.512 135.128 L 904.501 133.992 C 898.88 129.194 900.923 123.611 903.391 117.637 z"/>
<path transform="translate(0,0)" fill="rgb(129,142,163)" d="M 1181.9 131.411 C 1178.93 142.977 1164.74 141.245 1161.84 130.048 C 1158.41 116.754 1178.31 104.418 1181.44 121.286 C 1182.98 123.234 1183.12 129.577 1181.9 131.411 z"/>
<path transform="translate(0,0)" fill="rgb(3,6,18)" d="M 1181.9 131.411 C 1176.3 131.008 1177.35 133.903 1170.61 134.088 C 1166.29 131.336 1166.77 123.428 1168.66 119.297 C 1174.38 115.89 1175.79 121.907 1181.24 121.309 L 1181.44 121.286 C 1182.98 123.234 1183.12 129.577 1181.9 131.411 z"/>
<path transform="translate(0,0)" fill="rgb(251,251,252)" d="M 206.456 111.37 L 211.042 112.11 C 216.657 118.846 213.92 141.564 213.084 150.498 C 213.084 150.499 210.862 153.452 210.633 153.757 C 209.125 152.874 206.705 151.823 206.342 150.347 C 204.615 143.324 204.687 116.245 206.456 111.37 z"/>
<path transform="translate(0,0)" fill="rgb(3,6,18)" d="M 231.886 157.329 C 225.016 151.986 225.841 150.014 218.138 153.652 L 217.137 152.978 C 216.866 152.022 216.648 151.051 216.484 150.071 C 215.651 144.916 215.799 117.241 218.691 113.234 C 220.026 121.828 219.136 127.237 220.172 134.203 C 221.142 143.141 228.037 150.29 236.934 151.583 C 238.717 154.747 244.065 151.779 248.111 153.683 L 248.32 155.461 C 245.651 158.238 235.916 157.444 231.886 157.329 z"/>
<path transform="translate(0,0)" fill="rgb(129,142,163)" d="M 958.327 118.92 L 958.169 119.121 C 954.308 124.09 957.678 132.339 954.553 138.468 L 952.966 138.255 C 947.76 129.652 957.986 125.447 945.682 115.955 C 946.377 113.783 945.921 114.429 948.007 113.218 C 954.231 114.362 953.28 117.358 956.753 115.196 C 959.979 113.682 961.005 113.076 964.554 113.772 C 970.815 117.804 971.488 133.702 968.912 137.956 L 967.047 138.819 C 963.114 133.945 968.1 121.25 961.697 117.349 C 960.542 117.691 958.936 117.963 958.327 118.92 z"/>
<path transform="translate(0,0)" fill="rgb(129,142,163)" d="M 1203.55 113.154 C 1204.13 113.153 1204.72 113.18 1205.31 113.234 C 1214.72 114.189 1217.25 133.285 1210.75 138.362 L 1208.7 137.994 C 1205.59 129.191 1214.71 120.348 1201.39 116.952 C 1196.41 127.213 1200.59 129.682 1196.6 138.318 L 1195.33 138.525 C 1193.92 134.457 1192.66 117.228 1195.38 114.198 C 1197.18 114.818 1199 115.4 1200.83 115.943 L 1203.55 113.154 z"/>
<path transform="translate(0,0)" fill="rgb(129,142,163)" d="M 602.541 138.642 C 599.633 132.682 599.122 123.417 600.204 116.829 C 600.637 114.188 601.571 114.219 603.887 112.806 C 605.571 120.726 603.412 127.602 605.78 134.501 C 610.778 134.318 609.96 135.097 613.378 132.378 C 615.275 125.882 612.907 119.354 615.494 114.049 L 617.876 113.818 C 619.19 118.119 621.647 136.483 615.081 138.159 C 612.778 138.746 605.01 138.979 602.541 138.642 z"/>
<path transform="translate(0,0)" fill="rgb(3,6,18)" d="M 3993.21 84.7567 C 3993.59 85.3717 3994.06 86.1169 3994.62 86.9922 C 3994.45 110.042 3995.97 153.518 3994.52 174.634 C 3993.76 174.216 3993.06 173.17 3992.5 172.456 C 3991.79 163.72 3991.39 89.903 3993.21 84.7567 z"/>
<path transform="translate(0,0)" fill="rgb(3,6,18)" d="M 3668.39 84.6805 C 3668.74 84.8124 3669.13 84.9811 3669.39 85.2621 C 3672.58 88.7221 3670.82 164.803 3670.56 174.554 L 3668.74 173.494 C 3666.46 164.333 3667.85 97.375 3668.39 84.6805 z"/>
<path transform="translate(0,0)" fill="rgb(3,6,18)" d="M 160.793 111.56 C 163.427 112.991 163.088 118.41 163.056 121.163 C 162.872 136.686 163.641 152.389 162.485 167.86 C 162.485 167.861 160.685 169.704 160.506 169.887 C 159.305 164.903 159.309 117.023 160.793 111.56 z"/>
<path transform="translate(0,0)" fill="rgb(3,6,18)" d="M 119.301 94.4458 L 120.605 95.0374 C 122.707 97.8256 121.601 145.458 121.548 152.521 L 119.834 151.67 C 117.726 147.888 118.511 101.136 119.301 94.4458 z"/>
<path transform="translate(0,0)" fill="rgb(129,142,163)" d="M 839.473 106.214 L 842.162 107.259 C 844.619 110.432 843.492 133.096 843.474 138.517 C 841.957 138.771 841.484 138.507 840.097 137.959 C 837.762 133.841 838.923 111.594 839.473 106.214 z"/>
<path transform="translate(0,0)" fill="rgb(3,6,18)" d="M 605.78 134.501 C 606.297 130.298 606.217 119.204 606.476 114.056 L 607.596 113.08 C 609.186 114.892 609.538 115.298 611.853 115.923 C 613.18 118.182 612.701 127.506 613.378 132.378 C 609.96 135.097 610.778 134.318 605.78 134.501 z"/>
<path transform="translate(0,0)" fill="rgb(129,142,163)" d="M 921.158 113.353 C 926.205 115.271 928.136 113.723 930.619 115.581 C 924.604 124.101 925.1 123.512 925.411 133.751 C 925.076 137.505 925.681 136.412 923.241 138.779 L 921.892 138.19 C 920.505 134.477 921.121 118.013 921.158 113.353 z"/>
<path transform="translate(0,0)" fill="rgb(129,142,163)" d="M 538.89 113.376 C 544.09 115.461 545.594 113.765 548.206 115.786 C 542.25 124.113 542.76 123.211 543.082 133.25 C 543.407 136.288 542.976 137.283 540.558 138.885 C 537.501 134.833 538.758 119.355 538.89 113.376 z"/>
<path transform="translate(0,0)" fill="rgb(129,142,163)" d="M 1139.7 113.301 C 1144.4 115.24 1144.76 114.115 1148.81 115.527 C 1143.05 123.985 1143.52 123.903 1143.84 134.25 C 1144.09 135.346 1143.58 136.575 1143.24 137.677 L 1141.22 138.7 C 1138.24 135.498 1139.56 118.704 1139.7 113.301 z"/>
<path transform="translate(0,0)" fill="rgb(3,6,18)" d="M 200.355 123.193 C 199.937 119.227 199.374 116.638 200.948 112.962 C 206.069 116.851 203.672 143.631 202.183 149.8 L 201.11 150.861 C 199.562 146.446 199.68 137.436 200.359 132.805 L 200.355 123.193 z"/>
<path transform="translate(0,0)" fill="rgb(3,6,18)" d="M 174.037 141.844 C 176.289 142.014 177.1 141.668 178.537 142.912 C 181.347 148.747 183.201 144.945 189.955 149.104 C 188.725 150.507 183.776 150.267 181.084 150.538 C 179.203 154.455 180.832 163.24 179.55 169.407 C 176.189 167.338 179.419 151.402 174.037 141.844 z"/>
<path transform="translate(0,0)" fill="rgb(129,142,163)" d="M 938.469 113.242 L 941.644 114.426 C 944.538 118.274 942.452 130.406 942.622 137.905 C 941.97 138.2 940.473 138.286 939.686 138.366 C 936.628 134.015 938.209 119.428 938.469 113.242 z"/>
<path transform="translate(0,0)" fill="rgb(129,142,163)" d="M 1153.87 113.339 L 1156.62 114.72 C 1158.28 118.256 1157.56 134.139 1157.48 138.691 L 1154.67 138.438 L 1153.37 136.492 C 1152.48 130.376 1152.45 119.321 1153.87 113.339 z"/>
<path transform="translate(0,0)" fill="rgb(129,142,163)" d="M 1184.62 113.281 C 1187.08 114.453 1186.34 113.835 1187.89 116.097 C 1188.57 121.891 1189.23 134.236 1187.01 139.456 C 1185.59 138.877 1185.18 138.139 1184.29 136.929 C 1183.48 130.33 1183.47 119.824 1184.62 113.281 z"/>
<path transform="translate(0,0)" fill="rgb(3,6,18)" d="M 124.942 88.429 C 131.646 87.6482 147.335 87.6807 154.438 88.5909 C 155.757 88.7599 156.038 89.8908 156.885 91.2662 C 150.744 91.3144 130.412 91.8785 125.748 90.37 L 124.942 88.429 z"/>
<path transform="translate(0,0)" fill="rgb(3,6,18)" d="M 243.975 112.816 L 243.17 110.185 C 239.919 109.297 235.776 109.062 233.663 106.983 C 241.528 103.234 249.428 108.021 254.59 113.849 L 254.318 115.071 L 251.672 116.36 C 249.393 114.635 246.767 113.426 243.975 112.816 z"/>
<path transform="translate(0,0)" fill="rgb(3,6,18)" d="M 537.803 109.467 C 540.905 108.867 546.775 108.759 549.94 109.475 L 550.59 110.716 C 548.597 112.464 540.846 112.465 537.657 112.852 C 536.35 114.984 536.755 122.88 536.755 125.75 C 536.765 128.08 536.962 133.732 536.358 135.652 C 535.41 129.493 533.836 118.615 534.723 112.266 C 534.972 110.487 536.23 110.252 537.803 109.467 z"/>
<path transform="translate(0,0)" fill="rgb(3,6,18)" d="M 805.094 105.701 C 808.39 108.84 806.956 134.328 806.496 139.808 C 802.559 137.439 803.906 110.506 805.094 105.701 z"/>
<path transform="translate(0,0)" fill="rgb(3,6,18)" d="M 134.558 105.118 C 142.558 107.516 151.292 105.319 157.056 107.002 L 157.072 108.713 C 156.657 108.933 156.228 109.125 155.789 109.29 C 153.974 109.969 139.284 110.011 136.69 109.193 C 135.378 108.779 135.093 106.733 134.558 105.118 z"/>
<path transform="translate(0,0)" fill="rgb(15,20,36)" d="M 124.597 85.4933 C 129.365 84.227 153.149 83.3088 156.684 86.5113 C 151.363 87.3529 129.208 87.9216 124.597 85.4933 z"/>
<path transform="translate(0,0)" fill="rgb(3,6,18)" d="M 135.178 136.912 C 142.909 138.03 153.562 136.2 159.21 139.485 C 155.53 141.102 139.635 141.399 135.636 139.897 L 135.178 136.912 z"/>
<path transform="translate(0,0)" fill="rgb(3,6,18)" d="M 175.321 114.594 L 175.489 110.555 C 179.222 105.506 184.64 104.566 190.31 106.72 L 190.639 107.875 C 183.599 111.734 183.741 104.509 178.537 113.041 C 177.889 113.368 175.885 114.43 175.321 114.594 z"/>
<path transform="translate(0,0)" fill="rgb(3,6,18)" d="M 134.233 130.404 C 139.896 130.286 145.697 130.026 151.319 130.653 L 152.529 132.558 C 148.202 133.166 140.908 133.859 136.621 133.353 C 136.23 133.307 134.611 130.916 134.233 130.404 z"/>
<path transform="translate(0,0)" fill="rgb(3,6,18)" d="M 958.327 118.92 L 961.017 120.125 C 960.531 125.763 959.943 132.504 960.108 138.093 L 958.54 138.255 C 956.737 134.737 957.929 123.228 958.327 118.92 z"/>
<path transform="translate(0,0)" fill="rgb(3,6,18)" d="M 134.393 113.279 C 138.285 112.043 148.432 112.294 151.313 115.596 C 147.125 115.891 138.519 116.477 134.808 115.262 L 134.393 113.279 z"/>
<path transform="translate(0,0)" fill="rgb(3,6,18)" d="M 578.156 141.485 C 582.819 140.591 592.031 140.036 596.392 142.035 C 592.311 143.931 582.072 144.427 578.156 141.485 z"/>
<path transform="translate(0,0)" fill="rgb(3,6,18)" d="M 601.532 141.49 C 605.24 140.822 615.227 139.646 617.772 142.462 C 614.727 144.284 604.961 143.746 601.532 141.49 z"/>
<path transform="translate(0,0)" fill="rgb(3,6,18)" d="M 262.349 118.604 L 264.346 120.453 C 265.407 124.467 264.408 127.56 263.521 131.616 C 259.404 129.737 261.337 122.063 262.349 118.604 z"/>
<path transform="translate(0,0)" fill="rgb(3,6,18)" d="M 514.31 126.493 C 519.398 126.275 525.799 125.366 529.696 128.472 C 524.313 129.537 518.083 130.768 514.31 126.493 z"/>
<path transform="translate(0,0)" fill="rgb(3,6,18)" d="M 814.318 126.502 C 820.406 126.214 824.845 125.364 829.662 128.511 C 823.546 129.302 818.912 131.054 814.318 126.502 z"/>
<path transform="translate(0,0)" fill="rgb(3,6,18)" d="M 1115.3 126.496 C 1119.59 126.266 1126.47 125.923 1130.27 127.743 C 1125.45 129.949 1119 130.809 1115.3 126.496 z"/>
<path transform="translate(0,0)" fill="rgb(3,6,18)" d="M 1200.39 122.647 L 1201.76 123.849 C 1203.13 127.139 1202.6 133.913 1202.53 137.749 L 1200.85 138.116 C 1199.65 134.832 1200.28 126.527 1200.39 122.647 z"/>
<path transform="translate(0,0)" fill="rgb(3,6,18)" d="M 852.254 109.413 C 856.497 108.974 863.222 107.233 865.082 111.538 C 861.088 111.837 857.309 112.321 853.403 111.357 L 852.254 109.413 z"/>
<path transform="translate(0,0)" fill="rgb(3,6,18)" d="M 1488.37 141.501 C 1493.41 140.424 1498.48 140.231 1503.37 142.021 C 1499.18 144.023 1492.3 144.229 1488.37 141.501 z"/>
<path transform="translate(0,0)" fill="rgb(3,6,18)" d="M 288.814 106.392 C 293.822 105.669 297.25 104.124 300.2 108.584 C 295.946 108.928 291.048 110.306 288.814 106.392 z"/>
<path transform="translate(0,0)" fill="rgb(3,6,18)" d="M 630.119 109.502 C 634.648 108.836 639.288 107.89 643.19 110.678 C 638.766 112.439 633.703 112.825 630.119 109.502 z"/>
<path transform="translate(0,0)" fill="rgb(3,6,18)" d="M 263.092 106.413 C 268.157 105.592 271.43 104.083 274.484 108.58 C 270.187 108.938 265.613 110.124 263.092 106.413 z"/>
<path transform="translate(0,0)" fill="rgb(3,6,18)" d="M 313.506 106.395 C 318.408 105.64 321.95 104.059 324.615 108.63 C 320.772 108.938 318.482 109.295 314.72 108.388 L 313.506 106.395 z"/>
<path transform="translate(0,0)" fill="rgb(3,6,18)" d="M 216.903 93.4411 L 219.121 95.5748 C 220.185 99.0264 219.486 100.674 218.522 104.13 L 216.854 103.255 C 215.798 100.439 216.564 96.5198 216.903 93.4411 z"/>
<path transform="translate(0,0)" fill="rgb(3,6,18)" d="M 165.006 172.474 C 169.245 172.077 173.085 170.946 175.521 174.698 C 170.173 175.997 168.844 176.722 165.006 172.474 z"/>
<path transform="translate(0,0)" fill="rgb(3,6,18)" d="M 159.923 93.6132 C 163.282 96.6661 161.88 101.496 160.714 105.208 L 159.474 103.87 C 158.715 99.5321 159.114 97.9627 159.923 93.6132 z"/>
<path transform="translate(0,0)" fill="rgb(3,6,18)" d="M 900.104 141.489 C 904.814 140.471 908.871 140.232 913.374 142.045 C 908.654 144.002 904.474 144.232 900.104 141.489 z"/>
<path transform="translate(0,0)" fill="rgb(3,6,18)" d="M 555.378 141.493 C 559.979 140.443 563.999 140.238 568.384 142.051 C 563.947 143.963 559.486 144.219 555.378 141.493 z"/>
<path transform="translate(0,0)" fill="rgb(3,6,18)" d="M 630.37 141.49 C 634.968 140.506 638.72 140.003 642.82 142.512 C 642.217 142.649 641.613 142.777 641.006 142.897 C 636.701 143.746 634.065 143.972 630.37 141.49 z"/>
</svg>