<!-- RECRAFT VECTORIZE from logo/options-w/mock/W2-optical-navbar-dark.png -->
<svg version="1.1" xmlns="http://www.w3.org/2000/svg" style="display: block;" viewBox="0 0 4096 256" width="4096" height="256" preserveAspectRatio="none">
<path transform="translate(0,0)" fill="rgb(11,16,32)" d="M 0 0 L 4096 0 L 4096 256 L 0 256 L 0 0 z"/>
<path transform="translate(0,0)" fill="rgb(66,55,202)" d="M 3694.08 64.331 C 3772.55 62.5607 3851.82 65.1366 3930.37 64.1112 C 3942.73 63.9499 3956.58 63.7016 3968.9 64.307 C 3971.19 67.4871 3979.97 71.3999 3984.48 77.0807 C 3989.56 83.4808 3984.86 82.1856 3989.55 86.0709 C 3990.32 94.1066 3990.78 170.215 3989.13 173.07 C 3985.65 176.68 3987.6 178.827 3985.18 181.251 C 3981.4 185.04 3975.81 191.805 3970.49 192.871 L 3969.05 194.804 C 3963.89 195.886 3935.97 195.463 3928.91 195.459 L 3839.54 195.436 L 3739.45 195.465 C 3731.37 195.464 3700.12 195.928 3693.9 194.877 C 3691.33 191.273 3691.23 193.201 3687.16 190.281 C 3682.84 187.461 3672.33 175.449 3672.76 170.801 C 3674.28 154.068 3668.7 89.42 3677.24 78.8626 L 3685.75 70.1501 C 3690.05 65.1107 3689.92 70.2108 3694.08 64.331 z"/>
<path transform="translate(0,0)" fill="rgb(226,224,247)" d="M 3932.99 109.507 C 3935.99 110.782 3935.19 110.045 3937 112.474 C 3937.1 118.95 3938.62 137.134 3934.84 141.418 C 3932.29 141.67 3927.08 142.875 3924.71 142.732 C 3916.48 142.235 3919.2 133.773 3915.34 130.565 C 3910.62 130.665 3902.3 130.837 3898.65 134.01 L 3898.67 135.902 L 3900.88 137.791 C 3905.01 138.479 3906.32 137.087 3910.88 135.932 L 3913.39 137.739 C 3909.61 141.672 3904.9 144.411 3899.49 141.547 C 3896.29 139.823 3893.91 136.904 3892.87 133.428 C 3890.57 125.931 3895.29 118.407 3902.53 116.203 C 3912.07 117.367 3910.08 124.733 3915.98 127.061 C 3917.94 123.063 3918.73 121.452 3921.5 117.994 C 3924.48 116.194 3927.06 117.091 3930.47 117.759 C 3932.41 115.992 3932.25 112.869 3932.99 109.507 z"/>
<path transform="translate(0,0)" fill="rgb(55,43,198)" d="M 3926.79 120.358 C 3934.75 123.644 3933.37 134.237 3927.68 139.479 C 3919.13 135.8 3919.97 125.75 3926.79 120.358 z"/>
<path transform="translate(0,0)" fill="rgb(226,224,247)" d="M 3751.57 137.557 C 3743.6 142.863 3735.4 146.264 3727.53 138.218 C 3724.22 134.774 3722.39 130.175 3722.42 125.401 C 3722.6 111.211 3734.22 109.269 3745.48 109.474 C 3747.82 111.605 3749.29 112.806 3751.03 115.506 L 3750.35 117.099 L 3746.56 118.459 L 3749.43 119.71 C 3746.06 119.876 3743.48 120.09 3740.14 120.541 L 3739.23 121.792 L 3748.88 122.321 L 3741.7 123.092 L 3751.31 124.447 L 3756.33 125.161 L 3756.56 134.388 L 3754.47 133.907 C 3752.81 135.196 3752.57 135.708 3751.57 137.557 z"/>
<path transform="translate(0,0)" fill="rgb(55,43,198)" d="M 3741.7 123.092 C 3740.3 123.715 3739.54 124.583 3738.45 125.637 C 3739.46 128.8 3742.41 127.165 3747.34 130.173 L 3747.83 132.265 C 3735.83 153.058 3714.29 118.389 3738.05 114.091 C 3741.08 113.543 3744.57 116.292 3746.56 118.459 L 3749.43 119.71 C 3746.06 119.876 3743.48 120.09 3740.14 120.541 L 3739.23 121.792 L 3748.88 122.321 L 3741.7 123.092 z"/>
<path transform="translate(0,0)" fill="rgb(55,43,198)" d="M 3751.31 124.447 L 3756.33 125.161 L 3756.56 134.388 L 3754.47 133.907 C 3752.81 135.196 3752.57 135.708 3751.57 137.557 C 3751.91 132.082 3751.98 129.868 3751.31 124.447 z"/>
<path transform="translate(0,0)" fill="rgb(226,224,247)" d="M 3756.33 125.161 C 3764.23 109.315 3774.64 117.062 3778.77 130.516 L 3778.81 130.647 C 3780.96 133.738 3780.42 138.669 3778.54 141.814 L 3777.75 141.85 L 3777.09 135.478 C 3775.79 138.578 3774.45 140.752 3771.13 142.114 C 3768.59 143.147 3765.74 143.106 3763.23 142 C 3759.79 140.478 3757.85 137.779 3756.56 134.388 L 3756.33 125.161 z"/>
<path transform="translate(0,0)" fill="rgb(55,43,198)" d="M 3778.81 130.647 C 3780.96 133.738 3780.42 138.669 3778.54 141.814 L 3777.75 141.85 L 3777.09 135.478 C 3770.84 135.32 3766.8 141.361 3762.01 134.882 L 3762.53 133.433 C 3765.64 131.602 3774.13 131.982 3778.81 130.647 z"/>
<path transform="translate(0,0)" fill="rgb(252,252,253)" d="M 3873.18 121.928 C 3868.54 129.366 3874.18 136.68 3869.17 142.411 L 3867.96 141.805 C 3865.6 138.041 3866.43 124.049 3867.35 119.558 C 3870.92 115.209 3878.01 124.005 3881.42 111.859 L 3882.98 111.079 C 3885.13 112.122 3888.07 117.928 3888.27 120.264 L 3885.64 122.516 L 3890.12 122.451 C 3893.49 126.057 3892.32 133.539 3890.69 137.701 L 3887.8 139.45 C 3888.17 139.727 3888.65 140.559 3888.93 140.993 C 3887.02 142.62 3887.64 142.157 3884.61 142.184 C 3876.51 137.685 3883.15 127.885 3879.67 120.563 L 3873.18 121.928 z"/>
<path transform="translate(0,0)" fill="rgb(55,43,198)" d="M 3885.64 122.516 L 3890.12 122.451 C 3893.49 126.057 3892.32 133.539 3890.69 137.701 L 3887.8 139.45 L 3885.67 136.91 C 3884.75 133.344 3884.54 125.99 3885.64 122.516 z"/>
<path transform="translate(0,0)" fill="rgb(226,224,247)" d="M 3848.25 116.994 C 3864.27 116.043 3860.26 124.841 3861.63 136.183 C 3861.54 135.467 3864.13 140.142 3864.34 140.63 L 3863.48 142.136 C 3859.23 143.617 3856.95 139.157 3855.93 139.67 C 3851.45 141.912 3850.81 143.356 3844.87 142.331 C 3833.15 123.543 3856.34 134.517 3857.32 122.458 C 3852.85 120.959 3846.65 124.617 3842.85 122.962 C 3843.55 120.591 3846.3 118.659 3848.25 116.994 z"/>
<path transform="translate(0,0)" fill="rgb(226,224,247)" d="M 3813.33 124.856 L 3813.77 122.576 C 3817.09 120.745 3818.51 119.658 3822.18 120.331 C 3826.85 125.016 3823.85 124.961 3823.84 129.673 C 3826.76 132.414 3827.17 134.255 3825.95 138.054 C 3821.07 144.439 3810.58 145.18 3807.48 136.351 C 3811.45 134.468 3816.21 140.027 3821.14 137.189 L 3821.31 134.556 C 3816.68 129.817 3810.83 134.025 3810.78 127.319 L 3813.33 124.856 z"/>
<path transform="translate(0,0)" fill="rgb(55,43,198)" d="M 3813.33 124.856 L 3813.77 122.576 C 3817.09 120.745 3818.51 119.658 3822.18 120.331 C 3826.85 125.016 3823.85 124.961 3823.84 129.673 C 3820.97 128.016 3816.13 127.983 3813.33 124.856 z"/>
<path transform="translate(0,0)" fill="rgb(252,252,253)" d="M 3831.06 110.514 L 3832.27 111.067 C 3841.8 124.559 3826.21 126.693 3838.91 141.904 C 3825.93 144.327 3829.9 131.44 3829.59 122.385 L 3827.4 120.559 C 3826.72 118.104 3829.67 115.984 3831.06 110.514 z"/>
<path transform="translate(0,0)" fill="rgb(252,252,253)" d="M 3782.85 110.244 C 3790.09 112.601 3787.01 124.176 3786.16 129.365 C 3785.15 135.517 3787.48 137.401 3791.11 141.95 L 3786.4 142.331 C 3777.48 138.014 3780.79 118.161 3782.85 110.244 z"/>
<path transform="translate(0,0)" fill="rgb(55,43,198)" d="M 3873.18 121.928 L 3879.67 120.563 C 3879.19 124.881 3878.98 138.274 3878.24 140.357 C 3877.19 139.922 3877.01 139.757 3876.16 138.995 L 3874.26 141.1 C 3871.68 137.447 3873.8 126.896 3873.18 121.928 z"/>
<path transform="translate(0,0)" fill="rgb(55,43,198)" d="M 3729.96 144.475 C 3734.04 144.189 3745.19 142.91 3747.15 146.466 C 3742.61 147.095 3735.02 147.85 3730.75 146.354 L 3729.96 144.475 z"/>
<path transform="translate(0,0)" fill="rgb(55,43,198)" d="M 3809.66 144.429 C 3812.97 144.261 3820.81 143.512 3823.18 145.18 L 3823.27 146.824 C 3819.17 147.042 3813.48 147.729 3809.79 146.309 L 3809.66 144.429 z"/>
<path transform="translate(0,0)" fill="rgb(55,43,198)" d="M 3897.84 113.429 C 3901.39 112.721 3904.76 112.323 3908.23 113.349 L 3908.89 114.597 C 3905.59 115.258 3901.14 115.537 3897.9 114.519 L 3897.84 113.429 z"/>
<path transform="translate(0,0)" fill="rgb(55,43,198)" d="M 3881.18 144.451 C 3885.55 144.042 3888.24 143.231 3891.2 146.629 C 3887.82 147.081 3884.86 147.806 3881.76 146.384 L 3881.18 144.451 z"/>
<path transform="translate(0,0)" fill="rgb(55,43,198)" d="M 3782.09 144.457 C 3786.49 144.041 3789.23 143.215 3792.21 146.633 C 3788.82 147.084 3785.86 147.807 3782.75 146.374 L 3782.09 144.457 z"/>
<path transform="translate(0,0)" fill="rgb(55,43,198)" d="M 3810.82 113.443 C 3814.26 112.885 3817.62 111.999 3820.86 113.233 L 3821.38 115.141 C 3817.25 115.266 3814.94 115.462 3810.92 114.512 L 3810.82 113.443 z"/>
<path transform="translate(0,0)" fill="rgb(55,43,198)" d="M 3761.66 113.493 C 3765.9 112.568 3768.9 111.607 3772.28 114.663 C 3769.26 115.066 3763.52 116.271 3761.66 113.493 z"/>
<path transform="translate(0,0)" fill="rgb(252,252,253)" d="M 326.053 116.163 L 328.374 115.418 L 330.228 111.133 L 331.554 111.326 C 332.637 115.357 323.223 145.478 320.853 150.306 L 319.364 151.14 C 317.766 148.463 318.134 144.855 318.145 141.679 C 316.619 146.997 315.293 153.848 308.334 153.114 C 301.5 148.187 301.636 129.962 297.976 127.184 C 292.416 131.877 293.308 149.566 286.192 153.678 C 280.545 153.143 278.617 147.302 276.762 142.616 C 276.601 140.023 274.011 132.564 273.1 129.708 C 272.486 123.336 266.034 116.827 270.888 111.557 C 277.846 109.641 279.666 120.901 281.188 126.175 C 281.297 122.702 281.402 119.494 281.287 116.017 L 284.428 120.753 L 287.138 120.624 C 288.059 123.158 287.834 126.387 287.816 129.125 C 289.806 122.57 290.745 115.039 296.878 111.675 C 304.439 112.199 306.664 128.577 308.087 134.99 C 308.268 127.845 308.189 124.93 310.38 118.069 L 311.853 118.093 L 311.51 116.639 C 313.051 118.855 312.797 125.395 312.875 128.32 C 314.369 122.718 316.641 110.453 323.845 111.132 C 325.44 112.747 325.551 113.939 326.053 116.163 z"/>
<path transform="translate(0,0)" fill="rgb(3,6,18)" d="M 326.053 116.163 L 328.374 115.418 L 330.228 111.133 L 331.554 111.326 C 332.637 115.357 323.223 145.478 320.853 150.306 L 319.364 151.14 C 317.766 148.463 318.134 144.855 318.145 141.679 C 318.493 138.775 324.546 118.958 326.053 116.163 z"/>
<path transform="translate(0,0)" fill="rgb(3,6,18)" d="M 281.188 126.175 C 281.297 122.702 281.402 119.494 281.287 116.017 L 284.428 120.753 L 287.138 120.624 C 288.059 123.158 287.834 126.387 287.816 129.125 C 287.665 131.688 287.235 134.369 285.068 135.687 C 282.498 133.335 282.017 129.608 281.188 126.175 z"/>
<path transform="translate(0,0)" fill="rgb(3,6,18)" d="M 308.087 134.99 C 308.268 127.845 308.189 124.93 310.38 118.069 L 311.853 118.093 L 311.51 116.639 C 313.051 118.855 312.797 125.395 312.875 128.32 C 311.826 132.349 312.367 132.933 309.669 135.401 L 308.087 134.99 z"/>
<path transform="translate(0,0)" fill="rgb(252,252,253)" d="M 235.237 113.66 L 230.541 113.027 L 229.821 111.487 C 236.156 102.097 253.009 108.201 260.71 112.809 C 261.48 114.615 262.008 115.442 261.431 117.319 C 262.182 115.621 261.38 114.849 262.968 110.876 C 267.041 113.38 269.373 122.756 268.912 127.364 L 267.656 128.509 C 267.074 126.828 267.004 126.213 266.802 124.467 L 265.594 124.53 C 264.738 128.475 264.997 132.487 265.095 136.52 L 264.224 137.051 L 264.66 137.19 C 263.308 133.789 265.508 130.758 263.666 127.571 L 261.15 126.791 C 263.946 136.888 258.33 147.403 248.384 150.694 C 238.437 153.986 227.658 148.897 223.878 139.125 C 222.109 134.55 222.114 129.478 223.894 124.907 C 225.912 119.721 230.034 115.634 235.237 113.66 z"/>
<path transform="translate(0,0)" fill="rgb(3,6,18)" d="M 235.237 113.66 L 230.541 113.027 L 229.821 111.487 C 236.156 102.097 253.009 108.201 260.71 112.809 C 261.48 114.615 262.008 115.442 261.431 117.319 C 262.182 115.621 261.38 114.849 262.968 110.876 C 267.041 113.38 269.373 122.756 268.912 127.364 L 267.656 128.509 C 267.074 126.828 267.004 126.213 266.802 124.467 L 265.594 124.53 C 264.738 128.475 264.997 132.487 265.095 136.52 L 264.224 137.051 L 264.66 137.19 C 263.308 133.789 265.508 130.758 263.666 127.571 L 261.15 126.791 C 259.675 121.463 256.024 117.003 251.092 114.504 C 246.161 112.005 240.405 111.699 235.237 113.66 z"/>
<path transform="translate(0,0)" fill="rgb(3,6,18)" d="M 238.957 121.809 C 244.612 119.978 250.677 123.101 252.472 128.767 C 254.267 134.434 251.107 140.479 245.43 142.239 C 239.802 143.983 233.822 140.857 232.042 135.24 C 230.263 129.623 233.351 123.624 238.957 121.809 z"/>
<path transform="translate(0,0)" fill="rgb(252,252,253)" d="M 175.576 114.621 C 179.269 95.3861 198.322 113.095 202.068 112.869 L 203.632 111.641 C 204.074 118.429 205.714 145.054 202.499 150.06 C 200.566 148.111 199.633 140.32 198.836 136.817 L 192.699 142.693 C 184.858 145.161 182.964 143.84 175.271 141.296 C 173.628 149.495 177.49 163.235 173.194 169.216 C 170.02 169.945 171.116 170.101 168.317 168.73 C 166.215 164.744 165.461 120.4 168.755 113.337 C 168.758 113.329 170.097 112.04 170.267 111.875 C 173.706 112.151 172.715 112.014 175.576 114.621 z"/>
<path transform="translate(0,0)" fill="rgb(3,6,18)" d="M 175.576 114.621 C 179.269 95.3861 198.322 113.095 202.068 112.869 L 203.632 111.641 C 204.074 118.429 205.714 145.054 202.499 150.06 C 200.566 148.111 199.633 140.32 198.836 136.817 C 198.889 136.717 198.941 136.616 198.992 136.515 C 202.887 128.772 201.527 117.947 192.901 114.124 C 185.555 110.869 182.686 112.181 175.576 114.621 z"/>
<path transform="translate(0,0)" fill="rgb(3,6,18)" d="M 182.154 121.612 C 185.667 119.712 190.055 121.005 191.975 124.507 C 193.896 128.009 192.627 132.405 189.136 134.345 C 185.617 136.301 181.178 135.02 179.242 131.49 C 177.306 127.959 178.612 123.528 182.154 121.612 z"/>
<path transform="translate(0,0)" fill="rgb(129,143,163)" d="M 1415.27 106.25 C 1419.83 106.156 1424.95 106.325 1429.56 106.369 C 1438.75 112.559 1438.33 113.548 1441.38 124.019 C 1443.31 123.186 1443.74 117.128 1445.8 115.875 C 1460.31 107.019 1471.03 125.523 1457.82 138.426 C 1445.23 142.201 1445 134.397 1441.54 127.09 C 1438.37 128.522 1437.18 134.078 1429.63 139.071 C 1424.36 139.196 1418.23 139.002 1412.88 138.955 C 1412.77 132.241 1410.92 110.342 1415.27 106.25 z"/>
<path transform="translate(0,0)" fill="rgb(15,20,36)" d="M 1417.18 134.422 C 1418.33 126.162 1416.19 120.684 1418.95 112.196 C 1423.37 107.832 1427.53 110.257 1431.66 113.957 C 1436.24 120.375 1435.08 124.066 1432.35 130.997 C 1427.08 135.633 1424.09 134.774 1417.18 134.422 z"/>
<path transform="translate(0,0)" fill="rgb(3,6,18)" d="M 1431.66 113.957 C 1436.24 120.375 1435.08 124.066 1432.35 130.997 C 1431.41 130.652 1430.3 129.815 1429.45 129.235 C 1428.59 124.358 1427.58 117.181 1431.66 113.957 z"/>
<path transform="translate(0,0)" fill="rgb(3,6,18)" d="M 1449.42 117.71 L 1454.49 118.188 C 1460.72 123.583 1458.52 128.269 1455.64 135.216 C 1454.04 134.896 1452.14 134.366 1450.52 133.964 C 1445.1 129.138 1447.12 123.653 1449.42 117.71 z"/>
<path transform="translate(0,0)" fill="rgb(129,143,163)" d="M 594.905 105.604 C 598.637 105.6 598.436 105.026 601.17 106.919 C 601.66 110.836 600.97 110.11 603.573 112.408 L 607.006 112.09 L 608.139 113.558 C 606.918 113.801 604.853 113.851 604.424 114.984 C 601.885 121.685 603.062 133.121 606.867 138.946 C 598.614 135.999 601.959 141.465 593.837 138.147 C 584.16 140.023 582.876 138.408 577.443 130.387 C 574.679 130.874 573.979 134.385 571.869 136.436 C 564.272 143.821 554.081 136.521 554.686 126.909 C 556.063 105.028 566.733 111.932 577.328 122.505 C 580.619 121.595 579.531 113.096 585.529 114.117 C 588.808 114.675 590.637 114.121 593.361 112.448 C 594.138 110.29 594.498 107.872 594.905 105.604 z"/>
<path transform="translate(0,0)" fill="rgb(15,20,36)" d="M 594.905 105.604 C 598.637 105.6 598.436 105.026 601.17 106.919 C 601.66 110.836 600.97 110.11 603.573 112.408 L 607.006 112.09 L 608.139 113.558 C 606.918 113.801 604.853 113.851 604.424 114.984 C 601.885 121.685 603.062 133.121 606.867 138.946 C 598.614 135.999 601.959 141.465 593.837 138.147 C 594.996 138.162 596.418 137.738 597.569 137.455 C 600.196 133.085 599.106 115.481 598.376 110.122 C 597.957 107.043 597.413 107.366 594.905 105.604 z"/>
<path transform="translate(0,0)" fill="rgb(3,6,18)" d="M 562.43 117.505 C 564.822 117.663 565.445 117.826 567.721 118.589 C 572.902 123.849 570.535 129.564 567.841 135.469 C 566.093 135.033 564.353 134.334 562.659 133.699 C 557.788 128.529 559.44 123.182 562.43 117.505 z"/>
<path transform="translate(0,0)" fill="rgb(3,6,18)" d="M 585.453 117.617 C 587.831 117.727 588.501 117.891 590.785 118.576 C 595.962 123.154 593.803 129.168 591.707 134.789 C 587.187 134.124 587.904 134.881 584.811 132.127 C 582.426 127.316 584.011 122.616 585.453 117.617 z"/>
<path transform="translate(0,0)" fill="rgb(252,252,253)" d="M 127.055 94.2223 C 134.9 95.2095 153.446 92.0706 157.345 97.688 C 157.41 101.021 157.819 99.9633 155.693 102.373 C 150.048 104.624 139.78 103.592 133.318 103.415 L 133.122 118.748 C 139.748 118.731 145.455 117.275 150.149 122.675 C 149.688 129.569 138.322 127.951 133.435 127.745 C 133.101 130.942 133.214 137.397 133.169 140.841 C 136.75 147.636 159.631 136.519 157.739 148.812 C 153.31 153.909 131.694 153.511 126.254 151.414 C 124.346 147.841 124.131 131.63 124.512 126.744 C 125.154 118.51 122.591 100.16 127.055 94.2223 z"/>
<path transform="translate(0,0)" fill="rgb(129,143,163)" d="M 1489.9 123.022 C 1492.91 108.596 1505.9 112.008 1508.8 119.314 C 1506.49 120.539 1499.81 118.761 1497.02 118.225 L 1495.7 119.301 C 1498 124.753 1510.91 125.309 1508.83 134.341 C 1502.99 140.488 1496.44 141.963 1490.65 134.926 C 1487.67 131.308 1480.23 148.114 1470.54 133.52 C 1460.91 119.012 1487.12 103.259 1488.68 121.824 L 1489.9 123.022 z"/>
<path transform="translate(0,0)" fill="rgb(3,6,18)" d="M 1489.9 123.022 C 1494.82 127.379 1502.35 128.625 1503.97 132.781 C 1499.27 136.809 1490.97 130.965 1486.47 131.179 C 1483.64 131.314 1483.71 134.514 1477.53 134.06 C 1473.13 130.906 1473.41 121.574 1478 118.133 C 1483.32 118.021 1482.51 120.376 1488.68 121.824 L 1489.9 123.022 z"/>
<path transform="translate(0,0)" fill="rgb(3,6,18)" d="M 3693.17 59.4813 C 3693.53 59.4517 3693.89 59.426 3694.25 59.4041 C 3705.13 58.745 3724.6 59.3509 3736.06 59.3493 L 3821.32 59.3469 L 3915.16 59.3274 C 3932.05 59.321 3949.08 59.125 3965.97 59.5813 C 3968.43 59.6478 3968.1 59.9031 3969.91 61.5098 C 3967.56 61.6608 3965.05 61.8223 3962.69 61.8149 C 3873.51 61.5328 3784.25 62.4809 3695.11 61.3873 C 3695.11 61.3873 3693.34 59.6486 3693.17 59.4813 z"/>
<path transform="translate(0,0)" fill="rgb(129,143,163)" d="M 1186.64 123.543 C 1187.48 120.042 1186.32 119.693 1188.18 114.272 L 1189.38 113.986 C 1192.52 117.952 1193.88 134.563 1189.98 138.712 C 1188.88 138.382 1187.71 138.021 1186.63 137.665 C 1186.2 137.525 1183.36 136.526 1183.36 136.526 C 1179.92 137.303 1176.45 139.253 1172.96 139.448 C 1171.35 139.539 1169.49 138.163 1168.51 136.954 C 1166.22 133.353 1163.81 127.306 1164.37 122.951 C 1165.5 114.109 1178.86 110.718 1184.3 117.921 L 1184.02 119.965 L 1181.8 121.445 L 1186.64 123.543 z"/>
<path transform="translate(0,0)" fill="rgb(3,6,18)" d="M 1186.64 123.543 L 1186.46 129.567 C 1186.19 129.943 1185.83 130.44 1185.38 131.057 C 1185.04 131.093 1181 131.528 1181 131.529 C 1179.07 133.077 1178.57 133.893 1176.05 134.548 C 1169.13 131.817 1168.31 121.183 1175.39 118.018 C 1178.48 118.096 1179.56 119.403 1181.8 121.445 L 1186.64 123.543 z"/>
<path transform="translate(0,0)" fill="rgb(129,143,163)" d="M 1230.97 112.718 C 1234.78 113.801 1238.92 114.502 1242.86 115.429 C 1248.65 125.129 1241.78 167.016 1224.39 143.954 C 1230.08 140.581 1227.78 145.6 1236.33 144.674 C 1238.24 142.829 1238.84 142.341 1239.33 139.756 C 1236.12 136.992 1233.45 139.127 1230.25 137.997 C 1217.88 133.623 1223.22 118.46 1230.97 112.718 z"/>
<path transform="translate(0,0)" fill="rgb(129,143,163)" d="M 812.976 106.362 C 818.387 106.162 824.761 106.315 830.254 106.326 C 831.379 107.306 832.472 108.322 833.531 109.373 C 843.743 119.636 829.55 125.222 819.797 125.045 C 814.516 125.843 819.251 133.465 814.408 139.007 C 813.428 138.399 812.012 137.363 812.11 136.17 C 812.759 128.277 811.019 113.579 812.976 106.362 z"/>
<path transform="translate(0,0)" fill="rgb(3,6,18)" d="M 816.784 110.856 C 822.467 110.606 826.247 109.778 830.496 113.267 C 831.477 116.846 831.34 115.633 830.068 119.385 C 827.277 120.499 821.436 121.32 818.728 119.663 C 816.187 115.898 816.977 116.023 816.784 110.856 z"/>
<path transform="translate(0,0)" fill="rgb(129,143,163)" d="M 1113.66 106.339 C 1119.23 106.169 1125.2 106.343 1130.8 106.404 C 1131.67 107.202 1132.53 108.021 1133.37 108.859 C 1145.09 120.671 1128.96 125.183 1119.07 124.939 C 1115.22 128.924 1119.28 135.328 1114.86 138.904 L 1113.04 137.402 C 1111.87 132.968 1111.83 110.188 1113.66 106.339 z"/>
<path transform="translate(0,0)" fill="rgb(3,6,18)" d="M 1117.16 110.893 C 1121.54 110.68 1127.2 109.867 1130.59 112.706 C 1132.1 116.38 1131.76 115.209 1131.14 119.279 C 1130.06 119.666 1128.93 119.952 1127.79 120.134 C 1124.76 120.618 1121.38 121.326 1118.87 119.517 C 1116.56 115.933 1117.3 115.735 1117.16 110.893 z"/>
<path transform="translate(0,0)" fill="rgb(129,143,163)" d="M 513.399 106.348 C 518.738 106.165 524.598 106.339 529.979 106.388 C 530.997 107.316 531.991 108.269 532.96 109.248 C 538.082 114.476 537.012 120.129 530.61 123.311 C 526.171 125.517 522.08 125.029 517.249 124.912 C 514.51 128.202 519.484 136.993 513.477 138.695 C 510.838 135.644 510.734 109.626 513.399 106.348 z"/>
<path transform="translate(0,0)" fill="rgb(3,6,18)" d="M 516.379 110.907 C 520.724 110.684 526.257 109.874 529.679 112.57 C 531.352 116.41 530.983 115.157 530.314 119.477 C 530.005 119.572 529.694 119.657 529.381 119.732 C 526.361 120.472 520.951 121.329 518.198 119.638 C 515.718 115.937 516.506 116.007 516.379 110.907 z"/>
<path transform="translate(0,0)" fill="rgb(129,143,163)" d="M 875.844 117.168 L 874.562 115.984 C 875.821 112.424 876.794 109.544 879.785 107.491 C 882.919 110.221 879.673 111.666 883.463 113.478 C 888.398 110.753 891.421 104.851 896.128 107.452 L 893.781 111.86 C 894.685 114.498 895.096 114.207 897.537 116.084 C 888.779 121.057 892.239 125.185 891.948 134.337 C 891.86 137.082 892.079 137.564 889.491 138.646 C 880.917 136.033 882.674 142.358 877.416 135.711 C 876.274 129.489 877.731 121.458 875.844 117.168 z"/>
<path transform="translate(0,0)" fill="rgb(3,6,18)" d="M 881.631 117.294 C 885.509 117.835 884.48 117.156 886.764 119.672 C 888.228 124.59 887.67 132.13 885.954 136.914 C 879.317 131.943 881.267 124.985 881.631 117.294 z"/>
<path transform="translate(0,0)" fill="rgb(129,143,163)" d="M 906.286 113.185 C 923.814 112.888 925.733 129.888 913.51 139.323 C 912.219 139.363 910.926 139.344 909.637 139.265 C 906.623 139.056 904.105 137.593 902.16 135.322 C 899.895 132.669 898.796 129.213 899.113 125.738 C 899.633 119.421 901.714 117.03 906.286 113.185 z"/>
<path transform="translate(0,0)" fill="rgb(3,6,18)" d="M 906.216 117.925 C 910.777 118.014 910.835 117.582 913.699 120.112 C 915.997 124.605 914.419 130.659 913.179 135.407 C 901.884 132.909 904.62 127.279 906.216 117.925 z"/>
<path transform="translate(0,0)" fill="rgb(129,143,163)" d="M 652.991 106.372 C 657.614 108.577 660.24 116.599 656.067 120.059 C 653.714 122.01 658.3 134.871 659.536 138.218 C 658.74 139.225 657.224 139.416 655.934 139.741 C 648.774 136.238 653.522 123.078 651.023 117.787 C 647.717 117.287 648.67 120.14 646.224 120.58 L 646.082 120.605 C 642.772 121.202 640.967 117.631 636.527 118.607 C 634.63 121.646 634.692 125.59 634.448 129.21 C 635.096 130.914 635.945 131.943 637.013 133.4 C 641.442 134.647 642.3 132.851 647.664 132.107 L 648.266 133.493 C 647.233 137.306 648.039 136.068 644.926 138.553 C 641.905 139.293 639.858 139.379 636.93 138.119 C 633.926 136.821 631.573 134.364 630.406 131.306 C 628.986 127.626 629.529 121.93 631.114 118.412 C 631.815 116.831 633.107 115.587 634.714 114.946 C 638.361 113.511 644.1 115.766 649.435 114.207 C 652.051 112.481 652.314 109.437 652.991 106.372 z"/>
<path transform="translate(0,0)" fill="rgb(129,143,163)" d="M 874.433 135.31 L 873.382 138.262 C 869.201 140.085 869.615 136.504 866.367 136.533 C 860.284 136.586 857.849 140.271 851.719 136.684 C 846.744 124.494 864.666 124.541 866.729 122.082 L 866.329 119.943 C 860.635 115.162 858.961 120.317 853.569 119.816 L 853.538 118.114 C 856.848 113.493 860.088 112.663 865.292 113.736 C 874.877 115.711 868.851 129.506 872.588 134.277 L 874.433 135.31 z"/>
<path transform="translate(0,0)" fill="rgb(252,252,253)" d="M 208.576 111.325 C 210.825 111.377 211.26 111.442 213.282 112.423 C 216.691 116.935 216.469 148.5 213.239 153.339 C 211.736 153.052 208.835 152.137 208.424 150.641 C 206.251 142.74 205.845 118.267 208.576 111.325 z"/>
<path transform="translate(0,0)" fill="rgb(129,143,163)" d="M 961.19 118.856 C 957.643 125.673 961.658 134.168 957.433 138.553 L 956.006 138.213 C 954.09 132.882 955.99 126.98 954.98 121.641 C 954.604 119.653 950.192 118.089 949.161 115.1 L 950.699 113.533 C 958.697 112.586 954.271 120.407 964.396 113.512 C 976.424 113.667 975.085 132.541 970.896 137.79 C 966.422 135.386 971.385 124.46 966.484 117.253 C 965.223 117.538 961.986 118.096 961.19 118.856 z"/>
<path transform="translate(0,0)" fill="rgb(129,143,163)" d="M 1202.72 121.346 C 1201.2 125.712 1202.93 135.909 1200.14 138.958 C 1196.6 134.868 1195.87 119.951 1198.41 114.752 C 1207.28 115.183 1207.44 111.846 1212.92 113.685 C 1217.86 118.47 1218.91 135.991 1213.37 138.222 C 1210.07 133.89 1213.57 124.845 1210.44 117.874 C 1206.44 117.924 1204.83 117.239 1202.72 121.346 z"/>
<path transform="translate(0,0)" fill="rgb(129,143,163)" d="M 606.867 138.946 C 603.062 133.121 601.885 121.685 604.424 114.984 C 604.853 113.851 606.918 113.801 608.139 113.558 C 608.008 119.265 607.379 128.93 608.988 134.166 C 613.263 134.47 612.812 135.034 616.379 133.315 C 619.523 126.048 615.511 117.174 620.446 114.005 L 622.24 115.385 C 622.635 119.819 623.056 131.63 621.621 135.52 C 618.087 139.022 613.21 139.02 607.991 138.978 C 607.616 138.974 607.241 138.964 606.867 138.946 z"/>
<path transform="translate(0,0)" fill="rgb(3,6,18)" d="M 3993.31 84.8066 C 3996.57 89.6845 3995.15 163.617 3994.52 174.623 C 3993.77 174.207 3993.07 173.166 3992.52 172.458 C 3991.83 164.018 3991.4 89.3502 3993.31 84.8066 z"/>
<path transform="translate(0,0)" fill="rgb(3,6,18)" d="M 3668.39 84.7057 C 3668.73 84.8436 3669.1 85.0166 3669.36 85.2918 C 3672.58 88.794 3670.81 164.642 3670.56 174.453 L 3669.49 174.106 C 3667.2 170.577 3668.07 94.5543 3668.39 84.7057 z"/>
<path transform="translate(0,0)" fill="rgb(3,6,18)" d="M 175.271 141.296 C 182.964 143.84 184.858 145.161 192.699 142.693 C 194.799 143.047 195.264 143.127 196.921 144.456 L 195.937 146.301 C 192.08 149.42 187.575 149.577 182.575 150.379 C 178.676 155.093 185.243 167.495 179.325 169.732 C 177.519 167.625 178.991 152.975 177.937 149.029 C 177.161 146.12 176.368 144.056 175.271 141.296 z"/>
<path transform="translate(0,0)" fill="rgb(3,6,18)" d="M 119.368 93.7181 C 119.74 93.9014 120.013 94.1204 120.306 94.4156 C 123.383 97.5185 121.577 145.277 121.521 152.796 L 120.07 152.565 C 117.773 149.211 118.286 99.9919 119.368 93.7181 z"/>
<path transform="translate(0,0)" fill="rgb(129,143,163)" d="M 842.839 106.22 L 845.818 107.31 C 848.286 111.519 847.941 135.491 844.524 139.829 C 840.982 133.96 842.149 113.564 842.839 106.22 z"/>
<path transform="translate(0,0)" fill="rgb(129,143,163)" d="M 542.39 113.27 C 547.647 115.609 548.051 113.773 551.692 115.659 C 545.875 123.32 546.231 123.604 546.527 133.25 C 546.971 136.089 546.245 137.678 543.785 139.016 C 540.921 136.255 542.266 117.898 542.39 113.27 z"/>
<path transform="translate(0,0)" fill="rgb(129,143,163)" d="M 1143.03 113.354 C 1148.07 115.314 1149.71 113.782 1152.27 115.795 C 1146.43 124.271 1146.91 123.181 1147.24 133.25 C 1147.61 136.211 1147.06 137.442 1144.57 138.863 C 1141.7 136.217 1142.93 118.049 1143.03 113.354 z"/>
<path transform="translate(0,0)" fill="rgb(3,6,18)" d="M 223.878 139.125 C 224.004 141.47 224.401 143.873 223.043 145.789 L 221.442 145.365 C 216.992 138.715 215.945 122.815 222.636 117.972 C 224.498 119.968 223.851 121.556 223.894 124.907 C 222.114 129.478 222.109 134.55 223.878 139.125 z"/>
<path transform="translate(0,0)" fill="rgb(129,143,163)" d="M 924.672 113.317 C 929.546 115.474 932.061 114.116 934.049 115.761 C 927.979 123.984 928.536 123.084 928.808 133.25 C 928.7 137.187 929.218 135.868 926.909 138.8 L 925.532 138.318 C 923.674 134.325 924.578 118.391 924.672 113.317 z"/>
<path transform="translate(0,0)" fill="rgb(3,6,18)" d="M 1202.72 121.346 C 1204.83 117.239 1206.44 117.924 1210.44 117.874 C 1209.52 127.167 1210.54 129.42 1207.69 138.471 L 1207.87 137.074 L 1206.06 137.705 L 1207.58 138.008 L 1205.81 138.052 C 1202 130.029 1204.33 127.943 1202.72 121.346 z"/>
<path transform="translate(0,0)" fill="rgb(3,6,18)" d="M 608.988 134.166 C 609.535 130.196 609.643 118.702 609.831 114.114 L 610.7 113.802 C 612.366 117.772 612.335 119.128 612.443 123.449 L 613.362 123.419 C 613.605 120.536 613.712 117.834 613.815 114.949 L 615.012 113.908 C 615.777 115.021 616.182 130.576 616.379 133.315 C 612.812 135.034 613.263 134.47 608.988 134.166 z"/>
<path transform="translate(0,0)" fill="rgb(129,143,163)" d="M 941.79 113.251 L 945.204 114.556 C 947.86 118.626 945.936 132.374 945.763 138.856 C 944.208 138.892 943.715 138.479 942.423 137.682 C 940.452 132.926 941.557 118.875 941.79 113.251 z"/>
<path transform="translate(0,0)" fill="rgb(129,143,163)" d="M 1157.56 113.362 C 1159.92 114.543 1159.25 113.918 1160.65 116.089 C 1161.22 122.772 1162.48 134.873 1158.51 139.808 C 1155.12 136.435 1155.84 117.604 1157.56 113.362 z"/>
<path transform="translate(0,0)" fill="rgb(3,6,18)" d="M 276.762 142.616 C 276.693 146.241 277.289 148.366 275.584 151.006 L 273.913 149.997 C 271.414 145.253 269.103 134.84 270.219 129.841 L 273.1 129.708 C 274.011 132.564 276.601 140.023 276.762 142.616 z"/>
<path transform="translate(0,0)" fill="rgb(3,6,18)" d="M 124.935 88.4415 C 132.291 87.6662 148.231 87.8469 155.921 88.6525 C 156.341 88.6965 157.265 90.2986 157.614 90.8175 C 151.595 91.2991 131.151 91.8655 125.727 90.435 L 124.935 88.4415 z"/>
<path transform="translate(0,0)" fill="rgb(3,6,18)" d="M 1108.41 105.716 L 1109.58 106.459 C 1111.94 109.376 1110.68 134.189 1110.56 139.491 C 1106.09 138.411 1108.22 110.738 1108.41 105.716 z"/>
<path transform="translate(0,0)" fill="rgb(3,6,18)" d="M 508.262 105.792 C 511.294 110.3 510.081 133.475 509.523 139.734 C 505.713 136.786 506.893 110.664 508.262 105.792 z"/>
<path transform="translate(0,0)" fill="rgb(3,6,18)" d="M 852.515 141.484 C 853.297 141.3 854.085 141.145 854.879 141.021 C 858.296 140.494 889.985 140.598 891.577 141.765 L 890.918 143.134 C 883.486 143.097 857.117 144.326 852.515 141.484 z"/>
<path transform="translate(0,0)" fill="rgb(3,6,18)" d="M 1153.77 108.788 L 1154.65 109.161 L 1154.34 110.823 C 1151.37 112.022 1144.49 111.641 1140.98 111.621 C 1140.95 119.951 1141.08 129.009 1140.51 137.258 L 1139.71 136.669 C 1139.5 131.018 1138.34 115.776 1139.27 111.247 C 1142.68 108.91 1149.31 109.12 1153.77 108.788 z"/>
<path transform="translate(0,0)" fill="rgb(15,20,36)" d="M 124.193 85.4844 C 124.751 85.3322 125.314 85.1988 125.881 85.0845 C 130.906 84.0685 152.993 83.2789 157.857 86.506 C 151.686 87.3277 129.5 88.0921 124.193 85.4844 z"/>
<path transform="translate(0,0)" fill="rgb(3,6,18)" d="M 961.19 118.856 C 961.986 118.096 965.223 117.538 966.484 117.253 C 962.61 127.442 964.878 128.24 962.096 137.18 L 961.994 137.033 L 962.589 134.973 C 960.378 132.719 961.138 122.451 961.19 118.856 z"/>
<path transform="translate(0,0)" fill="rgb(3,6,18)" d="M 232.712 154.352 C 236.946 154.297 246.842 153.831 250.351 154.935 L 250.61 157.13 C 244.491 157.932 236.895 159.26 232.712 154.352 z"/>
<path transform="translate(0,0)" fill="rgb(3,6,18)" d="M 875.844 117.168 C 875.745 120.521 875.962 133.36 874.433 135.31 L 872.588 134.277 C 874.136 127.909 871 120.784 875.844 117.168 z"/>
<path transform="translate(0,0)" fill="rgb(3,6,18)" d="M 1118.32 126.504 C 1123.36 126.285 1129.88 125.357 1133.68 128.494 C 1127.59 129.267 1122.88 131.023 1118.32 126.504 z"/>
<path transform="translate(0,0)" fill="rgb(3,6,18)" d="M 923.402 109.436 C 925.15 109.267 926.901 109.134 928.654 109.037 C 933.651 108.81 934.245 108.766 937.292 111.559 C 932.472 111.834 926.725 112.995 923.402 109.436 z"/>
<path transform="translate(0,0)" fill="rgb(3,6,18)" d="M 855.409 109.522 C 860.639 108.808 864.918 107.403 868.647 111.495 C 863.853 111.909 858.898 113.045 855.409 109.522 z"/>
<path transform="translate(0,0)" fill="rgb(3,6,18)" d="M 292.075 106.384 C 296.687 105.731 300.949 104.088 303.355 108.562 C 299.566 108.884 296.979 109.29 293.26 108.427 L 292.075 106.384 z"/>
<path transform="translate(0,0)" fill="rgb(3,6,18)" d="M 205.98 105.47 C 208.752 105.278 213.083 104.506 215.361 106.112 L 215.73 108.573 C 211.016 108.941 208.018 110.092 205.98 105.47 z"/>
<path transform="translate(0,0)" fill="rgb(3,6,18)" d="M 1473.4 109.507 C 1478.69 108.772 1481.96 107.472 1485.78 111.503 C 1481.01 111.922 1476.88 113.012 1473.4 109.507 z"/>
<path transform="translate(0,0)" fill="rgb(3,6,18)" d="M 266.418 106.517 C 272.012 105.371 273.985 104.452 278.223 108.537 C 273.652 108.947 269.734 109.9 266.418 106.517 z"/>
<path transform="translate(0,0)" fill="rgb(3,6,18)" d="M 316.883 106.386 C 321.646 105.646 325.056 104.144 327.624 108.609 C 323.854 108.91 321.946 109.173 318.216 108.443 L 316.883 106.386 z"/>
<path transform="translate(0,0)" fill="rgb(3,6,18)" d="M 1169.39 141.509 C 1173.96 140.457 1178.01 140.284 1182.37 142.044 C 1177.95 143.931 1173.5 144.204 1169.39 141.509 z"/>
<path transform="translate(0,0)" fill="rgb(3,6,18)" d="M 558.981 141.487 C 563.274 140.546 567.046 140.614 571.285 141.6 C 566.93 144.325 563.185 143.888 558.981 141.487 z"/>
<path transform="translate(0,0)" fill="rgb(3,6,18)" d="M 633.877 141.488 C 638.806 140.551 641.611 140.091 646.026 142.508 C 641.006 143.67 638.346 144.046 633.877 141.488 z"/>
</svg>