<!-- RECRAFT VECTORIZE from logo/options-w/mock/W2-optical-navbar-light.png -->
<svg version="1.1" xmlns="http://www.w3.org/2000/svg" style="display: block;" viewBox="0 0 4096 256" width="4096" height="256" preserveAspectRatio="none">
<path transform="translate(0,0)" fill="rgb(255,255,255)" d="M 0 0 L 4096 0 L 4096 256 L 0 256 L 0 0 z"/>
<path transform="translate(0,0)" fill="rgb(66,55,201)" d="M 3694.07 64.3973 C 3745.45 62.5205 3807.85 64.1585 3860.25 64.1309 L 3931.12 64.0958 C 3941.24 64.0937 3959.22 63.5898 3968.89 64.4092 C 3972.02 68.3983 3971.85 65.8894 3974.94 68.527 C 3978.92 71.9145 3983.49 75.7672 3986.69 79.8934 C 3987.24 84.4034 3986.45 83.2499 3989.57 86.0479 C 3990.27 94.1469 3990.8 170.106 3989.14 173.084 C 3985.82 176.487 3986.77 179.391 3986.28 179.99 C 3982.75 184.281 3975.97 191.685 3970.51 192.906 L 3969.09 194.798 C 3965.04 195.94 3702.46 196.424 3693.9 194.807 C 3690.15 190.065 3691.08 194.861 3684.31 188.489 C 3677.05 181.66 3677.32 177.7 3673.84 173.099 C 3672.15 170.188 3672.62 94.1226 3673.39 86.0216 C 3676.3 83.5772 3675.53 84.1394 3676.3 79.9203 C 3679.5 75.7263 3684.02 71.8665 3688.06 68.481 C 3691.2 65.8571 3691.01 68.3913 3694.07 64.3973 z"/>
<path transform="translate(0,0)" fill="rgb(51,39,197)" d="M 3694.07 64.3973 C 3745.45 62.5205 3807.85 64.1585 3860.25 64.1309 L 3931.12 64.0958 C 3941.24 64.0937 3959.22 63.5898 3968.89 64.4092 L 3968.14 68.0113 C 3966.31 69.3615 3953.19 68.8759 3950.12 68.8713 L 3910.29 68.8557 L 3743.87 68.77 C 3737.57 68.8085 3697.72 69.6764 3694.89 68.0272 L 3694.07 64.3973 z"/>
<path transform="translate(0,0)" fill="rgb(51,39,197)" d="M 3693.9 194.807 C 3694.23 193.904 3694.92 191.087 3695.93 191.131 C 3724.21 192.357 3963.94 188.64 3968.07 191.519 L 3969.09 194.798 C 3965.04 195.94 3702.46 196.424 3693.9 194.807 z"/>
<path transform="translate(0,0)" fill="rgb(51,39,197)" d="M 3673.39 86.0216 L 3676.75 87.4044 C 3678.95 95.7416 3677.18 158.467 3677.17 171.307 C 3675.56 172.899 3676.07 172.465 3673.84 173.099 C 3672.15 170.188 3672.62 94.1226 3673.39 86.0216 z"/>
<path transform="translate(0,0)" fill="rgb(51,39,197)" d="M 3989.14 173.084 C 3986.72 172.622 3987.41 173.072 3985.8 171.298 C 3985.8 144.209 3985.75 117.109 3985.84 90.0194 C 3985.85 86.7877 3986.97 86.9939 3989.57 86.0479 C 3990.27 94.1469 3990.8 170.106 3989.14 173.084 z"/>
<path transform="translate(0,0)" fill="rgb(226,224,247)" d="M 3932.99 109.509 L 3935.63 110.626 C 3937.96 113.81 3938.04 138.735 3935.1 141.634 C 3930.38 141.213 3928.45 142.895 3924.77 142.652 C 3916.7 142.121 3918.38 133.404 3915.37 130.492 C 3910.64 130.622 3902.29 130.845 3898.64 134.009 L 3898.67 135.901 L 3900.88 137.792 C 3905.01 138.48 3906.32 137.088 3910.88 135.933 L 3913.39 137.74 C 3909.61 141.672 3904.9 144.409 3899.49 141.546 C 3896.3 139.822 3893.91 136.903 3892.87 133.427 C 3890.58 125.934 3895.3 118.406 3902.53 116.204 C 3912.06 117.369 3910.08 124.733 3915.98 127.061 C 3917.94 123.041 3918.7 121.458 3921.5 117.998 C 3924.5 116.248 3927.07 117.111 3930.47 117.749 C 3932.41 115.994 3932.26 112.868 3932.99 109.509 z"/>
<path transform="translate(0,0)" fill="rgb(51,39,197)" d="M 3926.79 120.358 C 3934.75 123.644 3933.37 134.237 3927.68 139.479 C 3919.13 135.8 3919.97 125.75 3926.79 120.358 z"/>
<path transform="translate(0,0)" fill="rgb(226,224,247)" d="M 3751.57 137.557 C 3743.6 142.861 3735.41 146.263 3727.53 138.217 C 3724.22 134.773 3722.39 130.175 3722.42 125.401 C 3722.6 111.212 3734.22 109.27 3745.48 109.474 C 3747.82 111.605 3749.29 112.806 3751.03 115.506 L 3750.35 117.1 L 3746.56 118.459 L 3749.43 119.709 C 3746.06 119.876 3743.48 120.09 3740.14 120.54 L 3739.23 121.791 L 3748.89 122.327 L 3741.74 123.054 L 3751.3 124.671 L 3756.36 125.067 L 3756.56 134.39 L 3754.47 133.902 C 3752.81 135.196 3752.57 135.706 3751.57 137.557 z"/>
<path transform="translate(0,0)" fill="rgb(51,39,197)" d="M 3741.74 123.054 C 3740.32 123.701 3739.57 124.559 3738.46 125.637 C 3739.45 128.791 3742.42 127.191 3747.35 130.163 L 3747.83 132.262 C 3735.78 153.056 3714.32 118.372 3738.05 114.091 C 3741.08 113.544 3744.57 116.291 3746.56 118.459 L 3749.43 119.709 C 3746.06 119.876 3743.48 120.09 3740.14 120.54 L 3739.23 121.791 L 3748.89 122.327 L 3741.74 123.054 z"/>
<path transform="translate(0,0)" fill="rgb(51,39,197)" d="M 3751.3 124.671 L 3756.36 125.067 L 3756.56 134.39 L 3754.47 133.902 C 3752.81 135.196 3752.57 135.706 3751.57 137.557 C 3751.91 132.165 3752.01 130 3751.3 124.671 z"/>
<path transform="translate(0,0)" fill="rgb(226,224,247)" d="M 3756.36 125.067 C 3764.14 109.582 3774.39 116.841 3778.63 130.093 C 3778.69 130.277 3778.75 130.462 3778.81 130.647 C 3780.97 133.738 3780.42 138.671 3778.54 141.816 L 3777.74 141.856 L 3777.09 135.478 C 3775.79 138.577 3774.45 140.752 3771.13 142.114 C 3768.59 143.146 3765.74 143.104 3763.23 141.998 C 3759.79 140.477 3757.85 137.779 3756.56 134.39 L 3756.36 125.067 z"/>
<path transform="translate(0,0)" fill="rgb(51,39,197)" d="M 3778.81 130.647 C 3780.97 133.738 3780.42 138.671 3778.54 141.816 L 3777.74 141.856 L 3777.09 135.478 C 3770.83 135.32 3766.8 141.361 3762.01 134.882 L 3762.53 133.433 C 3765.64 131.602 3774.13 131.982 3778.81 130.647 z"/>
<path transform="translate(0,0)" fill="rgb(255,255,255)" d="M 3873.18 121.927 C 3868.53 129.361 3874.18 136.677 3869.17 142.41 L 3867.96 141.804 C 3865.6 138.041 3866.43 124.05 3867.35 119.56 C 3870.92 115.211 3878.01 124.005 3881.42 111.861 L 3882.98 111.081 C 3885.13 112.12 3888.07 117.928 3888.27 120.262 L 3885.64 122.52 L 3890.12 122.444 C 3893.49 126.064 3892.32 133.532 3890.7 137.704 L 3887.8 139.45 C 3888.71 140.109 3888.46 140.049 3888.84 141.376 C 3885.84 142.635 3887 142.415 3883.54 141.846 C 3877.23 135.517 3883.01 127.028 3879.67 120.562 L 3873.18 121.927 z"/>
<path transform="translate(0,0)" fill="rgb(51,39,197)" d="M 3885.64 122.52 L 3890.12 122.444 C 3893.49 126.064 3892.32 133.532 3890.7 137.704 L 3887.8 139.45 L 3885.67 136.91 C 3884.75 133.346 3884.54 125.992 3885.64 122.52 z"/>
<path transform="translate(0,0)" fill="rgb(226,224,247)" d="M 3848.25 116.992 C 3864.27 116.041 3860.26 124.837 3861.63 136.173 C 3861.54 135.451 3864.14 140.128 3864.35 140.625 L 3863.48 142.137 C 3859.23 143.614 3856.96 139.161 3855.93 139.672 C 3851.45 141.902 3850.81 143.339 3844.87 142.34 C 3833.2 123.615 3856.05 134.508 3857.37 122.486 C 3852.63 120.836 3845.86 124.94 3842.82 122.812 C 3843.63 120.602 3846.4 118.591 3848.25 116.992 z"/>
<path transform="translate(0,0)" fill="rgb(255,255,255)" d="M 3831.06 110.515 L 3832.27 111.068 C 3838.82 120.385 3834.51 117.896 3833.88 129.382 C 3833.51 136.01 3835.06 137.298 3838.9 141.904 C 3825.93 144.326 3829.91 131.434 3829.59 122.384 L 3827.4 120.557 C 3826.72 118.104 3829.67 115.985 3831.06 110.515 z"/>
<path transform="translate(0,0)" fill="rgb(255,255,255)" d="M 3782.85 110.244 C 3790.09 112.615 3787.01 124.17 3786.15 129.365 C 3785.14 135.516 3787.48 137.402 3791.11 141.95 L 3786.4 142.329 C 3777.48 138.014 3780.79 118.16 3782.85 110.244 z"/>
<path transform="translate(0,0)" fill="rgb(226,224,247)" d="M 3808.33 126.814 C 3815.5 126.05 3824.13 127.417 3826.29 135.375 C 3824.4 143.676 3818.2 142.68 3811.26 142.376 C 3809.13 140.066 3808.66 139.509 3807.63 136.492 L 3808.79 135.737 C 3813.5 137.115 3817.36 139.188 3821.6 136.482 C 3821.18 131.962 3816.64 132.952 3814 131.503 C 3812.98 130.949 3809.38 127.751 3808.33 126.814 z"/>
<path transform="translate(0,0)" fill="rgb(51,39,197)" d="M 3873.18 121.927 L 3879.67 120.562 C 3879.15 125.213 3879.04 138.343 3878.28 140.684 L 3876.17 138.957 L 3876.98 139.498 L 3876.2 139.019 L 3874.28 141.129 C 3871.66 137.424 3873.81 126.927 3873.18 121.927 z"/>
<path transform="translate(0,0)" fill="rgb(51,39,197)" d="M 3729.94 144.474 C 3734.02 144.188 3745.21 142.903 3747.16 146.469 C 3742.61 147.102 3735.02 147.858 3730.75 146.356 L 3729.94 144.474 z"/>
<path transform="translate(0,0)" fill="rgb(51,39,197)" d="M 3809.64 144.428 C 3812.96 144.26 3820.81 143.514 3823.18 145.168 L 3823.28 146.833 C 3819.18 147.05 3813.48 147.737 3809.79 146.311 L 3809.64 144.428 z"/>
<path transform="translate(0,0)" fill="rgb(51,39,197)" d="M 3897.83 113.428 C 3901.39 112.716 3904.76 112.315 3908.23 113.347 L 3908.89 114.598 C 3905.59 115.263 3901.14 115.542 3897.9 114.52 L 3897.83 113.428 z"/>
<path transform="translate(0,0)" fill="rgb(51,39,197)" d="M 3881.16 144.45 C 3885.55 144.04 3888.24 143.222 3891.21 146.628 C 3887.83 147.084 3884.86 147.816 3881.76 146.387 L 3881.16 144.45 z"/>
<path transform="translate(0,0)" fill="rgb(51,39,197)" d="M 3782.07 144.457 C 3786.32 144.026 3789.47 143.106 3792.22 146.633 C 3788.83 147.087 3785.86 147.817 3782.75 146.378 L 3782.07 144.457 z"/>
<path transform="translate(0,0)" fill="rgb(51,39,197)" d="M 3810.81 113.438 C 3814.25 112.878 3817.62 111.992 3820.87 113.221 L 3821.4 115.145 C 3817.28 115.271 3814.94 115.47 3810.92 114.516 L 3810.81 113.438 z"/>
<path transform="translate(0,0)" fill="rgb(51,39,197)" d="M 3761.65 113.492 C 3765.91 112.561 3768.89 111.593 3772.29 114.672 C 3769.24 115.075 3763.54 116.276 3761.65 113.492 z"/>
<path transform="translate(0,0)" fill="rgb(161,175,193)" d="M 1413.79 106.308 C 1418.85 106.129 1424.5 106.311 1429.6 106.364 L 1437.32 112.054 C 1438.29 114.938 1440.13 121.431 1441.97 123.421 C 1451.62 100.882 1471.24 118.125 1459.57 137.213 C 1459.15 137.434 1458.72 137.645 1458.29 137.846 C 1455.54 139.118 1451.86 139.778 1449.06 138.528 C 1443.12 135.869 1443.86 132.676 1441.44 127.292 C 1439.59 127.754 1435.81 134.96 1429.68 139.079 C 1424.26 139.172 1418.34 139.014 1412.88 138.977 C 1412.76 132.227 1411.94 111.514 1413.79 106.308 z"/>
<path transform="translate(0,0)" fill="rgb(255,255,255)" d="M 1417.31 110.811 C 1433.5 109.895 1440.01 118.529 1431.07 132.892 C 1426.75 135.139 1421.98 134.602 1417.21 134.431 C 1418.03 126.86 1417.66 118.39 1417.31 110.811 z"/>
<path transform="translate(0,0)" fill="rgb(255,255,255)" d="M 1449.35 117.579 L 1454.49 118.088 C 1460.82 123.551 1458.7 128.071 1455.74 135.156 C 1454.01 134.943 1452.24 134.479 1450.53 134.078 C 1444.93 129.259 1447.05 123.625 1449.35 117.579 z"/>
<path transform="translate(0,0)" fill="rgb(1,1,8)" d="M 238.356 112.89 C 244.184 111.714 250.231 113.25 254.791 117.066 C 259.35 120.882 261.928 126.563 261.798 132.508 C 261.599 141.561 255.215 149.297 246.363 151.209 C 240.566 152.462 234.514 151.019 229.906 147.285 C 225.298 143.551 222.631 137.929 222.655 131.999 C 222.692 122.71 229.252 114.728 238.356 112.89 z"/>
<path transform="translate(0,0)" fill="rgb(255,255,255)" d="M 238.554 121.805 C 244.097 119.788 250.236 122.571 252.371 128.07 C 254.507 133.568 251.855 139.765 246.403 142.018 C 242.772 143.519 238.612 142.937 235.531 140.498 C 232.45 138.059 230.93 134.144 231.557 130.264 C 232.184 126.385 234.861 123.149 238.554 121.805 z"/>
<path transform="translate(0,0)" fill="rgb(1,1,8)" d="M 268.947 111.479 C 271.573 111.357 272.524 111.214 274.881 112.334 C 280.286 117.176 282.921 133.192 284.938 141.06 C 287.432 133.843 289.698 113.951 297.315 111.324 C 306.481 114.48 304.62 127.724 308.9 135.416 L 310.356 135.759 C 315.021 129.333 313.221 116.173 320.128 112.028 C 323.494 111.728 322.329 111.496 325.32 113.006 C 326.37 115.868 323.042 124.53 322.024 127.793 C 318.6 133.31 318.525 150.334 311.159 153.615 C 302.543 151.477 302.458 135.105 297.511 126.994 C 293.82 130.367 292.926 150.317 285.119 153.831 C 279.277 152.876 277.585 144.422 276.379 139.326 C 274.67 132.106 268.233 118.585 268.947 111.479 z"/>
<path transform="translate(0,0)" fill="rgb(1,1,8)" d="M 169.969 110.774 C 171.402 111.586 175.336 113.996 176.633 113.509 C 195.176 106.549 211.512 128.421 194.16 140.757 C 187.931 145.186 182.394 143.364 174.649 141.299 C 174.867 149.162 177.305 164.948 171.698 169.89 L 169.415 169.605 C 168.615 168.845 167.532 167.304 167.47 165.7 C 166.82 148.914 166.525 130.6 167.688 113.861 C 168.647 112.564 169.407 111.535 169.969 110.774 z"/>
<path transform="translate(0,0)" fill="rgb(255,255,255)" d="M 184.175 120.737 C 186.796 120.217 189.494 121.151 191.233 123.18 C 192.972 125.208 193.483 128.017 192.57 130.528 C 191.657 133.039 189.461 134.863 186.825 135.3 C 182.836 135.962 179.055 133.3 178.331 129.323 C 177.607 125.345 180.209 121.523 184.175 120.737 z"/>
<path transform="translate(0,0)" fill="rgb(1,1,8)" d="M 127.236 94.2866 C 134.699 95.2109 153.005 92.5805 157.109 97.2662 C 157.543 100.667 157.884 99.5615 155.975 102.077 C 150.395 104.537 139.682 103.522 133.221 103.373 L 132.968 118.621 C 138.105 119.038 142.893 117.964 147.95 119.328 C 150.258 121.523 151.585 123.049 150.03 125.947 C 146.667 127.962 138.718 128.013 134.147 128.552 C 132.438 130.872 133.079 137.036 133.154 140.063 L 133.348 141.175 C 139.711 147.154 152.85 138.312 157.358 145.947 C 157.276 149.885 157.765 148.707 155.825 151.718 C 153.171 152.594 129.847 152.281 124.634 152.46 C 124.917 134.406 124.047 115.15 125.035 97.0487 C 125.035 97.0484 127.043 94.5277 127.236 94.2866 z"/>
<path transform="translate(0,0)" fill="rgb(161,175,193)" d="M 594.375 106.211 C 597.622 107.299 596.837 106.592 598.767 108.948 C 598.431 117.749 599.684 126.516 598.792 135.27 C 598.376 139.363 588.174 138.777 585.186 138.751 C 582.697 138.73 578.962 132.276 577.447 130.101 C 570.308 132.319 575.414 142.424 559.889 138.17 C 548.637 127.898 556.672 106.347 571.854 115.391 C 573.936 116.631 574.612 121.084 577.508 123.147 C 583.001 114.049 581.888 112.618 592.403 113.981 C 594.354 111.783 593.978 109.602 594.375 106.211 z"/>
<path transform="translate(0,0)" fill="rgb(255,255,255)" d="M 561.693 117.876 C 566.013 117.74 566.51 117.759 569.439 120.075 C 572.031 125.086 570.253 129.352 568.669 134.633 C 566.353 134.774 565.321 134.495 563.05 134.009 C 557.454 130.002 559.765 123.304 561.693 117.876 z"/>
<path transform="translate(0,0)" fill="rgb(255,255,255)" d="M 585.333 117.485 C 587.816 117.584 588.493 117.756 590.876 118.476 C 596.064 123.186 594.025 129.071 591.766 134.773 C 587.258 134.364 588.232 135.055 584.866 132.486 C 582.199 127.728 583.965 122.579 585.333 117.485 z"/>
<path transform="translate(0,0)" fill="rgb(161,175,193)" d="M 1230.92 112.741 C 1234.83 113.72 1238.88 114.478 1242.86 115.428 C 1248.68 125.974 1241.62 166.738 1224.37 143.944 L 1227.07 142.503 C 1228.93 143.325 1230.23 144.064 1231.99 145.081 C 1236.08 145.126 1237.65 143.799 1239.25 140.313 C 1237 134.103 1232.13 141.475 1225.19 135.703 C 1220.98 126.897 1223.35 118.52 1230.92 112.741 z"/>
<path transform="translate(0,0)" fill="rgb(255,255,255)" d="M 1230.49 117.398 C 1241.64 118.107 1240.41 127.245 1236.31 134.656 C 1232.52 134.833 1232.06 134.516 1229.59 132.165 C 1227.4 127.056 1228.95 122.581 1230.49 117.398 z"/>
<path transform="translate(0,0)" fill="rgb(161,175,193)" d="M 1476.37 113.139 C 1479.55 113.139 1480.36 113.213 1483.48 113.897 C 1485.41 115.425 1488.69 117.487 1489.07 119.738 C 1486.43 120.507 1480.2 118.74 1477.2 118.073 C 1474.1 120.195 1473.15 128.815 1475.07 132.477 C 1478.99 134.704 1483.53 131.27 1487.39 131.69 C 1492.96 132.296 1498.93 137.165 1504.01 132.365 C 1501.4 127.15 1492.95 128.753 1490.37 120.401 C 1491.11 117.042 1491.72 116.446 1494.13 114.126 C 1497.47 112.791 1500.08 113.328 1503.65 113.689 C 1506.77 116.645 1506.72 115.81 1507.94 119.607 L 1506.85 120.305 C 1505.85 119.946 1504.85 119.605 1503.84 119.284 C 1500.78 118.319 1497.78 117.643 1494.8 119.187 C 1497.03 122.997 1508.08 123.303 1508.41 133.264 C 1504.43 142.996 1495.48 140.181 1489.85 134.693 C 1489.59 134.442 1481.14 140.027 1478.14 139.079 C 1465.08 134.963 1466.97 120.851 1476.37 113.139 z"/>
<path transform="translate(0,0)" fill="rgb(161,175,193)" d="M 813.022 106.348 C 818.422 106.153 824.79 106.313 830.272 106.329 C 831.391 107.302 832.479 108.312 833.532 109.357 C 843.769 119.636 829.53 125.227 819.78 125.054 L 818.931 124.883 C 814.802 129.449 819.738 130.619 813.916 138.566 L 812.6 138.321 C 811.755 135.863 811.959 109.282 813.022 106.348 z"/>
<path transform="translate(0,0)" fill="rgb(255,255,255)" d="M 816.574 110.897 C 820.349 110.662 826.498 109.937 829.481 111.956 C 831.894 115.469 831.228 114.592 831.491 119.178 C 829.729 119.629 827.952 120.023 826.165 120.36 C 823.176 120.894 820.941 121.232 818.383 119.453 C 816.127 115.967 816.804 115.499 816.574 110.897 z"/>
<path transform="translate(0,0)" fill="rgb(161,175,193)" d="M 512.883 106.364 C 518.4 106.171 524.43 106.344 529.988 106.392 C 530.865 107.178 531.724 107.985 532.563 108.812 C 544.706 120.857 527.972 125.152 518.088 124.946 C 515.272 127.184 517.757 132.018 514.859 138.553 L 513.329 138.958 L 511.873 136.524 C 511.831 130.224 510.833 110.835 512.883 106.364 z"/>
<path transform="translate(0,0)" fill="rgb(255,255,255)" d="M 516.279 110.821 C 520.899 110.582 526.192 109.738 529.861 112.528 C 531.513 116.477 531.108 115.296 530.398 119.76 C 530 119.849 529.6 119.928 529.198 119.997 C 525.958 120.551 520.557 121.427 517.887 119.553 C 515.692 115.97 516.391 115.486 516.279 110.821 z"/>
<path transform="translate(0,0)" fill="rgb(161,175,193)" d="M 1113.23 106.399 C 1118.78 106.127 1125.17 106.339 1130.78 106.392 C 1131.61 107.147 1132.42 107.92 1133.22 108.71 C 1145.15 120.615 1129.15 125.187 1119.07 124.951 C 1114.02 128.04 1121.03 136.61 1114.7 138.61 L 1113.02 137.443 C 1111.82 132.998 1112.17 110.759 1113.23 106.399 z"/>
<path transform="translate(0,0)" fill="rgb(255,255,255)" d="M 1117.02 110.783 C 1121.48 110.576 1127.18 109.751 1130.65 112.58 C 1132.24 116.4 1131.89 115.154 1131.23 119.382 C 1130.38 119.695 1129.5 119.934 1128.61 120.096 C 1125.47 120.658 1121.44 121.468 1118.83 119.638 C 1116.41 115.908 1117.18 115.83 1117.02 110.783 z"/>
<path transform="translate(0,0)" fill="rgb(161,175,193)" d="M 890.784 105.885 C 892.891 106.122 894.002 106.425 896.044 106.997 L 896.562 108.563 C 894.954 109.798 893.992 110.562 892.568 112.005 C 893.787 113.68 894.814 114.109 896.628 115.104 L 896.577 116.436 L 892.302 119.131 C 890.778 123.292 892.51 131.232 891.719 136.981 C 890.488 137.863 882.766 138.807 879.655 139.64 C 876.2 134.715 873.854 112.342 878.131 107.643 C 882.376 107.11 878.712 110.217 883.778 113.579 L 886.346 113.027 C 887.995 110.594 889.303 108.409 890.784 105.885 z"/>
<path transform="translate(0,0)" fill="rgb(255,255,255)" d="M 881.439 117.28 C 882.888 117.484 885.395 117.549 886.169 118.472 C 888.943 121.78 887.337 132.785 887.002 137.128 C 878.817 132.973 881.087 125.453 881.439 117.28 z"/>
<path transform="translate(0,0)" fill="rgb(161,175,193)" d="M 906.262 113.171 C 923.801 112.913 925.788 129.925 913.462 139.322 C 912.302 139.353 911.14 139.339 909.98 139.28 C 906.771 139.094 904.348 137.886 902.215 135.471 C 899.99 132.939 898.871 129.623 899.104 126.26 C 899.564 119.605 901.494 117.331 906.262 113.171 z"/>
<path transform="translate(0,0)" fill="rgb(255,255,255)" d="M 906.505 117.83 C 908.467 117.783 910.002 118.027 911.941 118.287 C 917.963 122.884 915.54 128.839 913.067 134.82 C 910.823 134.811 909.739 134.436 907.582 133.826 C 902.36 129.702 904.551 123.12 906.505 117.83 z"/>
<path transform="translate(0,0)" fill="rgb(161,175,193)" d="M 652.973 106.362 C 663.199 110.388 653.691 125.429 656.175 131.997 C 656.93 133.995 659.306 134.087 660.422 136.854 L 659.657 138.259 C 656.353 139.816 657.373 139.907 654.464 139.176 C 649.278 132.956 653.483 123.047 650.986 117.791 L 649.434 117.551 L 647.297 120.062 C 644.021 121.197 641.726 119.59 638.152 118.013 L 636.501 118.889 C 634.516 121.808 634.592 124.525 634.311 128.032 C 637.053 138.379 642.31 130.997 647.89 133.324 C 646.661 136.556 646.287 137.17 643.458 139.249 C 630.664 142.629 624.884 119.608 634.889 114.318 C 637.498 112.938 644.696 116.016 649.46 114.223 C 652.01 112.447 652.293 109.4 652.973 106.362 z"/>
<path transform="translate(0,0)" fill="rgb(161,175,193)" d="M 858.515 113.29 C 861.733 113.141 863.612 113.045 866.601 114.434 C 871.069 116.51 874.749 135.409 872.613 138.762 C 868.802 139.324 866.755 135.558 865.5 136.147 C 858.619 139.376 861.594 139.243 854.306 138.526 C 843.839 120.977 865.713 128.757 866.783 120.669 C 861.823 115.167 857.462 120.634 853.314 119.03 C 853.36 118.744 853.401 118.564 853.486 118.285 L 853.529 118.147 C 854.037 116.488 857.042 114.429 858.515 113.29 z"/>
<path transform="translate(0,0)" fill="rgb(1,1,8)" d="M 208.649 111.241 L 212.055 111.753 C 217.23 116.024 216.342 148.852 213.164 153.281 C 211.788 153.03 208.894 152.048 208.534 150.74 C 206.336 142.759 205.953 118.292 208.649 111.241 z"/>
<path transform="translate(0,0)" fill="rgb(161,175,193)" d="M 949.98 112.684 C 952.999 112.952 959.014 116.994 959.903 116.131 C 971.304 105.059 978.135 126.874 970.838 138.008 L 969.623 137.784 C 968.059 133.58 968.621 126.902 968.734 122.239 L 967.683 119.292 C 964.874 117.586 966.017 117.963 962.566 117.974 C 956.226 124.332 961.969 132.499 958.31 138.365 L 956.235 138.362 C 953.84 135.389 955.465 125.37 955.053 121.432 C 954.772 118.74 950.465 118.408 948.871 116.108 L 949.98 112.684 z"/>
<path transform="translate(0,0)" fill="rgb(161,175,193)" d="M 1207.75 113.519 C 1210.07 113.186 1210.78 113.544 1212.99 114.378 C 1218.27 119.192 1218.06 131.95 1215.05 137.93 L 1213.33 138.243 C 1210.78 134.972 1213.43 123.601 1210.5 119.537 C 1209.03 117.497 1207.15 117.714 1204.86 117.228 C 1199.49 127.247 1204.6 133.63 1199.11 138.666 L 1197.73 137.773 C 1196.98 133.261 1197.42 121.258 1197.69 116.436 C 1200.25 113.601 1201.88 117.326 1207.75 113.519 z"/>
<path transform="translate(0,0)" fill="rgb(161,175,193)" d="M 603.846 113.219 L 606.595 113.99 C 610.188 118.82 606.252 128.191 609.06 133.448 C 611.427 135.238 610.428 134.908 613.524 134.725 C 622.752 127.945 613.927 119.77 619.473 113.971 L 621.146 114.165 C 622.615 116.442 622.361 115.522 622.235 118.249 C 622.48 123.727 623.995 134.577 620.821 138.246 C 599.025 138.521 602.523 132.32 603.846 113.219 z"/>
<path transform="translate(0,0)" fill="rgb(161,175,193)" d="M 1172.45 113.151 C 1177.32 113.082 1181.57 113.777 1184.37 118.026 L 1183.77 120.325 C 1179.29 121.814 1180.12 117.655 1173.66 118.252 C 1168.73 121.979 1169.22 130.722 1174.5 134.147 C 1178.49 134.468 1177.42 134.368 1181.25 132.464 L 1182.17 131.45 L 1183.69 132.054 C 1183.76 135.09 1183.78 134.145 1182.11 137.209 C 1170.38 146.148 1156.58 126.489 1172.45 113.151 z"/>
<path transform="translate(0,0)" fill="rgb(161,175,193)" d="M 842.813 106.222 L 845.829 107.321 C 846.083 107.753 846.297 108.208 846.469 108.679 C 847.708 112.181 847.618 135.529 845.654 139.664 C 840.066 136.668 842.278 112.596 842.813 106.222 z"/>
<path transform="translate(0,0)" fill="rgb(161,175,193)" d="M 542.369 113.27 C 547.51 115.475 548.497 113.816 551.675 115.639 C 545.901 123.386 546.242 123.551 546.521 133.25 C 546.438 137.215 546.931 135.819 544.47 138.963 L 543.25 138.584 C 541.113 134.06 542.179 118.709 542.369 113.27 z"/>
<path transform="translate(0,0)" fill="rgb(161,175,193)" d="M 1142.97 113.355 C 1147.89 115.21 1149.5 113.582 1152.26 115.779 C 1146.45 124.31 1146.92 123.163 1147.22 133.25 C 1147.25 136.612 1147.57 135.471 1145.85 138.34 L 1144.25 138.703 C 1141.85 134.843 1142.86 118.534 1142.97 113.355 z"/>
<path transform="translate(0,0)" fill="rgb(161,175,193)" d="M 924.639 113.305 C 929.295 115.293 932.274 114.2 934.055 115.767 C 927.971 123.966 928.531 123.094 928.784 133.25 C 929.018 136.467 928.613 136.857 926.625 138.868 L 925.221 137.889 C 923.921 133.914 924.574 118.184 924.639 113.305 z"/>
<path transform="translate(0,0)" fill="rgb(161,175,193)" d="M 941.744 113.206 L 945.216 114.561 C 947.835 118.655 945.929 132.418 945.759 138.891 C 944.205 138.894 943.72 138.489 942.434 137.692 C 940.477 132.954 941.534 118.821 941.744 113.206 z"/>
<path transform="translate(0,0)" fill="rgb(161,175,193)" d="M 1187.68 113.232 C 1188.85 113.685 1190.72 114.134 1191.07 115.224 C 1192.74 120.414 1192.01 134.708 1190.93 139.523 L 1188.78 138.657 C 1185.81 134.306 1187.3 119.079 1187.68 113.232 z"/>
<path transform="translate(0,0)" fill="rgb(161,175,193)" d="M 1157.51 113.357 C 1159.92 114.523 1159.25 113.892 1160.65 116.089 C 1161.21 122.844 1162.52 134.863 1158.5 139.792 C 1155.06 136.349 1155.94 117.875 1157.51 113.357 z"/>
</svg>