<!-- RECRAFT VECTORIZE from logo/options-w/mock/W5-soft-navbar-dark.png -->
<svg version="1.1" xmlns="http://www.w3.org/2000/svg" style="display: block;" viewBox="0 0 4096 256" width="4096" height="256" preserveAspectRatio="none">
<path transform="translate(0,0)" fill="rgb(11,16,32)" d="M 0 0 L 4096 0 L 4096 256 L 0 256 L 0 0 z"/>
<path transform="translate(0,0)" fill="rgb(66,55,202)" d="M 3694.08 64.331 C 3772.55 62.5607 3851.82 65.1366 3930.37 64.1112 C 3942.73 63.9499 3956.58 63.7016 3968.9 64.307 C 3971.19 67.4871 3979.97 71.3999 3984.48 77.0807 C 3989.56 83.4808 3984.86 82.1856 3989.55 86.0709 C 3990.32 94.1066 3990.78 170.215 3989.13 173.07 C 3985.65 176.68 3987.6 178.827 3985.18 181.251 C 3981.4 185.04 3975.81 191.805 3970.49 192.871 L 3969.05 194.804 C 3963.89 195.886 3935.97 195.463 3928.91 195.459 L 3839.54 195.436 L 3739.45 195.465 C 3731.37 195.464 3700.12 195.928 3693.9 194.877 C 3691.33 191.273 3691.23 193.201 3687.16 190.281 C 3682.84 187.461 3672.33 175.449 3672.76 170.801 C 3674.28 154.068 3668.7 89.4201 3677.24 78.8625 L 3685.75 70.15 C 3690.05 65.1107 3689.92 70.2108 3694.08 64.331 z"/>
<path transform="translate(0,0)" fill="rgb(226,224,247)" d="M 3932.99 109.507 C 3935.99 110.782 3935.19 110.045 3937 112.474 C 3937.1 118.95 3938.62 137.134 3934.84 141.418 C 3932.29 141.67 3927.08 142.875 3924.71 142.732 C 3916.48 142.235 3919.2 133.773 3915.34 130.565 C 3910.62 130.665 3902.3 130.837 3898.65 134.01 L 3898.67 135.902 L 3900.88 137.791 C 3905.01 138.479 3906.32 137.087 3910.88 135.932 L 3913.39 137.739 C 3909.61 141.672 3904.9 144.411 3899.49 141.547 C 3896.29 139.823 3893.91 136.904 3892.87 133.428 C 3890.57 125.931 3895.29 118.407 3902.53 116.203 C 3912.07 117.367 3910.08 124.733 3915.98 127.061 C 3917.94 123.063 3918.73 121.452 3921.5 117.994 C 3924.48 116.194 3927.06 117.091 3930.47 117.759 C 3932.41 115.992 3932.25 112.869 3932.99 109.507 z"/>
<path transform="translate(0,0)" fill="rgb(55,43,198)" d="M 3926.79 120.358 C 3934.75 123.644 3933.37 134.237 3927.68 139.479 C 3919.13 135.8 3919.97 125.75 3926.79 120.358 z"/>
<path transform="translate(0,0)" fill="rgb(226,224,247)" d="M 3751.57 137.557 C 3743.6 142.863 3735.4 146.264 3727.53 138.218 C 3724.22 134.774 3722.39 130.175 3722.42 125.401 C 3722.6 111.211 3734.22 109.269 3745.48 109.474 C 3747.82 111.605 3749.29 112.806 3751.03 115.506 L 3750.35 117.099 L 3746.56 118.459 L 3749.43 119.71 C 3746.06 119.876 3743.48 120.09 3740.14 120.541 L 3739.23 121.792 L 3748.88 122.321 L 3741.7 123.092 L 3751.31 124.447 L 3756.33 125.161 L 3756.56 134.388 L 3754.47 133.907 C 3752.81 135.196 3752.57 135.708 3751.57 137.557 z"/>
<path transform="translate(0,0)" fill="rgb(55,43,198)" d="M 3741.7 123.092 C 3740.3 123.715 3739.54 124.583 3738.45 125.637 C 3739.46 128.8 3742.41 127.165 3747.34 130.173 L 3747.83 132.265 C 3735.83 153.058 3714.29 118.389 3738.05 114.091 C 3741.08 113.543 3744.57 116.292 3746.56 118.459 L 3749.43 119.71 C 3746.06 119.876 3743.48 120.09 3740.14 120.541 L 3739.23 121.792 L 3748.88 122.321 L 3741.7 123.092 z"/>
<path transform="translate(0,0)" fill="rgb(55,43,198)" d="M 3751.31 124.447 L 3756.33 125.161 L 3756.56 134.388 L 3754.47 133.907 C 3752.81 135.196 3752.57 135.708 3751.57 137.557 C 3751.91 132.082 3751.98 129.868 3751.31 124.447 z"/>
<path transform="translate(0,0)" fill="rgb(226,224,247)" d="M 3756.33 125.161 C 3764.23 109.315 3774.64 117.062 3778.77 130.516 L 3778.81 130.647 C 3780.96 133.738 3780.42 138.669 3778.54 141.814 L 3777.75 141.85 L 3777.09 135.478 C 3775.79 138.578 3774.45 140.752 3771.13 142.114 C 3768.59 143.147 3765.74 143.106 3763.23 142 C 3759.79 140.478 3757.85 137.779 3756.56 134.388 L 3756.33 125.161 z"/>
<path transform="translate(0,0)" fill="rgb(55,43,198)" d="M 3778.81 130.647 C 3780.96 133.738 3780.42 138.669 3778.54 141.814 L 3777.75 141.85 L 3777.09 135.478 C 3770.84 135.32 3766.8 141.361 3762.01 134.882 L 3762.53 133.433 C 3765.64 131.602 3774.13 131.982 3778.81 130.647 z"/>
<path transform="translate(0,0)" fill="rgb(252,252,253)" d="M 3873.18 121.928 C 3868.54 129.366 3874.18 136.68 3869.17 142.411 L 3867.96 141.805 C 3865.6 138.041 3866.43 124.049 3867.35 119.558 C 3870.92 115.209 3878.01 124.005 3881.42 111.859 L 3882.98 111.079 C 3885.13 112.122 3888.07 117.928 3888.27 120.264 L 3885.64 122.516 L 3890.12 122.451 C 3893.49 126.057 3892.32 133.539 3890.69 137.701 L 3887.8 139.45 C 3888.17 139.727 3888.65 140.559 3888.93 140.993 C 3887.02 142.62 3887.64 142.157 3884.61 142.184 C 3876.51 137.685 3883.15 127.885 3879.67 120.563 L 3873.18 121.928 z"/>
<path transform="translate(0,0)" fill="rgb(55,43,198)" d="M 3885.64 122.516 L 3890.12 122.451 C 3893.49 126.057 3892.32 133.539 3890.69 137.701 L 3887.8 139.45 L 3885.67 136.91 C 3884.75 133.344 3884.54 125.99 3885.64 122.516 z"/>
<path transform="translate(0,0)" fill="rgb(226,224,247)" d="M 3848.25 116.994 C 3864.27 116.043 3860.26 124.841 3861.63 136.183 C 3861.54 135.467 3864.13 140.142 3864.34 140.63 L 3863.48 142.136 C 3859.23 143.617 3856.95 139.157 3855.93 139.67 C 3851.45 141.912 3850.81 143.356 3844.87 142.331 C 3833.15 123.543 3856.34 134.517 3857.32 122.458 C 3852.85 120.959 3846.65 124.617 3842.85 122.962 C 3843.55 120.591 3846.3 118.659 3848.25 116.994 z"/>
<path transform="translate(0,0)" fill="rgb(226,224,247)" d="M 3813.33 124.856 L 3813.77 122.576 C 3817.09 120.745 3818.51 119.658 3822.18 120.331 C 3826.85 125.016 3823.85 124.961 3823.84 129.673 C 3826.76 132.414 3827.17 134.255 3825.95 138.054 C 3821.07 144.439 3810.58 145.18 3807.48 136.351 C 3811.45 134.468 3816.21 140.027 3821.14 137.189 L 3821.31 134.556 C 3816.68 129.817 3810.83 134.025 3810.78 127.319 L 3813.33 124.856 z"/>
<path transform="translate(0,0)" fill="rgb(55,43,198)" d="M 3813.33 124.856 L 3813.77 122.576 C 3817.09 120.745 3818.51 119.658 3822.18 120.331 C 3826.85 125.016 3823.85 124.961 3823.84 129.673 C 3820.97 128.016 3816.13 127.983 3813.33 124.856 z"/>
<path transform="translate(0,0)" fill="rgb(252,252,253)" d="M 3831.06 110.514 L 3832.27 111.067 C 3841.8 124.559 3826.21 126.693 3838.91 141.904 C 3825.93 144.327 3829.9 131.44 3829.59 122.385 L 3827.4 120.559 C 3826.72 118.104 3829.67 115.984 3831.06 110.514 z"/>
<path transform="translate(0,0)" fill="rgb(252,252,253)" d="M 3782.85 110.244 C 3790.09 112.601 3787.01 124.176 3786.16 129.365 C 3785.15 135.517 3787.48 137.401 3791.11 141.95 L 3786.4 142.331 C 3777.48 138.014 3780.79 118.161 3782.85 110.244 z"/>
<path transform="translate(0,0)" fill="rgb(55,43,198)" d="M 3873.18 121.928 L 3879.67 120.563 C 3879.19 124.881 3878.98 138.274 3878.24 140.357 C 3877.19 139.922 3877.01 139.757 3876.16 138.995 L 3874.26 141.1 C 3871.68 137.447 3873.8 126.896 3873.18 121.928 z"/>
<path transform="translate(0,0)" fill="rgb(55,43,198)" d="M 3729.96 144.475 C 3734.04 144.189 3745.19 142.91 3747.15 146.466 C 3742.61 147.095 3735.02 147.85 3730.75 146.354 L 3729.96 144.475 z"/>
<path transform="translate(0,0)" fill="rgb(55,43,198)" d="M 3809.66 144.429 C 3812.97 144.261 3820.81 143.512 3823.18 145.18 L 3823.27 146.824 C 3819.17 147.042 3813.48 147.729 3809.79 146.309 L 3809.66 144.429 z"/>
<path transform="translate(0,0)" fill="rgb(55,43,198)" d="M 3897.84 113.429 C 3901.39 112.721 3904.76 112.323 3908.23 113.349 L 3908.89 114.597 C 3905.59 115.258 3901.14 115.537 3897.9 114.519 L 3897.84 113.429 z"/>
<path transform="translate(0,0)" fill="rgb(55,43,198)" d="M 3881.18 144.451 C 3885.55 144.042 3888.24 143.231 3891.2 146.629 C 3887.82 147.081 3884.86 147.806 3881.76 146.384 L 3881.18 144.451 z"/>
<path transform="translate(0,0)" fill="rgb(55,43,198)" d="M 3782.09 144.457 C 3786.49 144.041 3789.23 143.215 3792.21 146.633 C 3788.82 147.084 3785.86 147.807 3782.75 146.374 L 3782.09 144.457 z"/>
<path transform="translate(0,0)" fill="rgb(55,43,198)" d="M 3810.82 113.443 C 3814.26 112.885 3817.62 111.999 3820.86 113.233 L 3821.38 115.141 C 3817.25 115.266 3814.94 115.462 3810.92 114.512 L 3810.82 113.443 z"/>
<path transform="translate(0,0)" fill="rgb(55,43,198)" d="M 3761.66 113.493 C 3765.9 112.568 3768.9 111.607 3772.28 114.663 C 3769.26 115.066 3763.52 116.271 3761.66 113.493 z"/>
<path transform="translate(0,0)" fill="rgb(252,252,253)" d="M 332.91 117.052 L 335.181 116.407 L 337.25 111.492 L 338.439 111.668 C 339.062 116.267 328.279 151.399 326.615 152.631 C 324.972 149.98 325.459 145.316 325.14 141.586 C 323.72 146.703 322.037 154.645 314.953 152.894 C 308.183 147.422 309.051 129.763 304.512 127.157 C 300.486 131.986 299.985 148.079 293.348 153.334 C 286.352 154.083 284.825 145.143 282.815 139.526 C 282.893 143.015 283.216 145.555 281.651 148.692 L 280.196 148.339 C 277.689 144.259 276.549 137.246 276.064 132.358 C 275.868 130.377 278.053 129.067 279.47 127.948 C 278.285 123.501 275.437 117.324 276.188 113.58 C 278.093 111.44 277.238 112.022 280.534 111.553 C 286.812 114.05 289.755 134.128 292.162 140.621 C 294.134 132.585 296.842 117.811 302.247 112.187 C 311.032 109.182 313.833 129.391 315.102 135.207 C 315.278 127.834 315.032 123.951 317.571 116.929 L 318.824 117.334 C 319.958 121.296 319.833 124.26 319.888 128.372 C 321.221 123.6 322.637 116.259 325.774 112.767 C 329.113 111.236 327.742 111.425 331.437 112.096 C 333.428 114.146 332.866 113.366 332.91 117.052 z"/>
<path transform="translate(0,0)" fill="rgb(4,7,20)" d="M 332.91 117.052 L 335.181 116.407 L 337.25 111.492 L 338.439 111.668 C 339.062 116.267 328.279 151.399 326.615 152.631 C 324.972 149.98 325.459 145.316 325.14 141.586 C 326.467 136.839 330.672 120.254 332.91 117.052 z"/>
<path transform="translate(0,0)" fill="rgb(4,7,20)" d="M 279.47 127.948 C 280.17 130.119 282.823 137.744 282.815 139.526 C 282.893 143.015 283.216 145.555 281.651 148.692 L 280.196 148.339 C 277.689 144.259 276.549 137.246 276.064 132.358 C 275.868 130.377 278.053 129.067 279.47 127.948 z"/>
<path transform="translate(0,0)" fill="rgb(4,7,20)" d="M 315.102 135.207 C 315.278 127.834 315.032 123.951 317.571 116.929 L 318.824 117.334 C 319.958 121.296 319.833 124.26 319.888 128.372 C 318.902 132.374 319.506 132.666 316.835 135.103 L 315.102 135.207 z"/>
<path transform="translate(0,0)" fill="rgb(129,143,163)" d="M 1420.82 106.3 C 1425.77 106.153 1431.34 106.32 1436.34 106.353 C 1438.91 108.109 1441.72 110.318 1444.24 112.213 C 1445.57 116.305 1446.72 119.786 1448.37 123.757 L 1449.39 123.552 C 1454.2 103.593 1478.97 115.125 1466.74 136.935 C 1465.83 137.444 1464.9 137.901 1463.95 138.306 C 1453.68 142.567 1451.02 134.151 1448.37 127.178 C 1446.15 128.015 1442.96 134.627 1436.52 139.056 C 1431.13 139.251 1425.12 138.986 1419.68 138.864 C 1419.55 132.027 1418.66 111.03 1420.82 106.3 z"/>
<path transform="translate(0,0)" fill="rgb(4,7,20)" d="M 1424.22 110.803 C 1440.26 110.087 1444.91 116.359 1439.02 131.681 C 1433.88 135.368 1430.39 134.674 1424.24 134.447 C 1424.61 126.269 1424.44 118.995 1424.22 110.803 z"/>
<path transform="translate(0,0)" fill="rgb(4,7,20)" d="M 1456.14 117.595 C 1457.9 117.675 1459.71 118.001 1461.46 118.275 C 1467.64 122.633 1465.01 128.86 1462.85 134.719 C 1460.42 134.677 1459.42 134.387 1457.07 133.774 C 1452.32 129.443 1454.27 122.977 1456.14 117.595 z"/>
<path transform="translate(0,0)" fill="rgb(252,252,253)" d="M 247.217 111.306 C 263.248 115.287 266.489 121.533 266.629 137.333 C 261.181 148.085 260.898 146.145 252.248 152.485 C 241.629 152.322 232.217 148.841 228.958 137.598 C 227.496 132.581 228.095 127.187 230.621 122.612 C 234.724 115.181 239.735 113.432 247.217 111.306 z"/>
<path transform="translate(0,0)" fill="rgb(4,7,20)" d="M 244.093 121.864 C 247.745 120.648 251.768 121.49 254.626 124.068 C 257.483 126.647 258.733 130.563 257.898 134.32 C 257.062 138.077 254.271 141.095 250.59 142.219 C 244.996 143.928 239.068 140.822 237.289 135.25 C 235.511 129.678 238.543 123.711 244.093 121.864 z"/>
<path transform="translate(0,0)" fill="rgb(252,252,253)" d="M 177.207 144.427 C 176.575 152.105 180.297 167.741 171.705 169.964 C 166.718 164.928 168.852 124.984 168.939 115.847 C 168.958 113.895 169.948 113.135 171.147 111.662 C 175.563 111.214 175.625 113.712 179.496 113.857 C 184.497 114.043 189.309 112.064 194.41 113.182 C 199.325 115.779 201.578 121.438 203.236 126.443 L 203.175 129.543 C 201.004 136.343 200.024 137.972 194.626 142.633 C 184.52 146.087 180.551 140.341 177.37 143.321 L 177.207 144.427 z"/>
<path transform="translate(0,0)" fill="rgb(4,7,20)" d="M 186.462 120.799 C 190.449 120.228 194.141 123.007 194.695 126.997 C 195.249 130.987 192.454 134.667 188.461 135.203 C 184.494 135.737 180.841 132.962 180.291 128.997 C 179.74 125.031 182.499 121.366 186.462 120.799 z"/>
<path transform="translate(0,0)" fill="rgb(129,143,163)" d="M 601.868 105.553 C 605.8 105.688 606.066 104.991 608.315 107.209 C 608.616 110.905 608.015 110.095 610.114 112.248 L 614.002 112.078 L 615.09 113.631 L 612.015 114.072 C 608.345 119.093 609.565 133.067 613.318 138.222 C 605.853 136.608 608.645 141.284 600.837 138.177 C 584.217 140.824 590.58 135.487 584.499 129.846 C 579.437 132.089 580.739 138.006 574.814 139.286 C 558.717 142.763 556.876 116.045 570.607 112.775 C 578.833 110.817 579.812 120.833 584.499 122.856 C 593.604 106.448 593.959 116.482 600.318 113.652 C 600.581 110.186 600.943 108.859 601.868 105.553 z"/>
<path transform="translate(0,0)" fill="rgb(4,7,20)" d="M 601.868 105.553 C 605.8 105.688 606.066 104.991 608.315 107.209 C 608.616 110.905 608.015 110.095 610.114 112.248 L 614.002 112.078 L 615.09 113.631 L 612.015 114.072 C 608.345 119.093 609.565 133.067 613.318 138.222 C 605.853 136.608 608.645 141.284 600.837 138.177 L 604.307 137.556 C 606.989 133.213 606.031 116.158 605.392 110.79 C 604.966 107.207 604.457 107.491 601.868 105.553 z"/>
<path transform="translate(0,0)" fill="rgb(4,7,20)" d="M 568.656 117.928 C 570.543 117.855 572.089 118.081 573.956 118.303 C 579.919 122.529 577.43 128.839 575.34 134.655 C 573.414 134.682 571.909 134.325 570.028 133.96 C 564.684 128.844 566.168 124.367 568.656 117.928 z"/>
<path transform="translate(0,0)" fill="rgb(4,7,20)" d="M 592.3 117.485 C 594.003 117.626 595.688 118.026 597.363 118.375 C 602.818 123.141 600.883 128.724 598.55 134.633 C 594.021 134.197 594.878 134.915 591.652 132.293 C 589.208 127.234 590.78 122.762 592.3 117.485 z"/>
<path transform="translate(0,0)" fill="rgb(252,252,253)" d="M 124.498 94.5916 C 131.279 94.6162 152.307 92.7341 157.029 96.5416 C 157.774 99.9324 157.911 98.7742 156.945 101.866 C 151.142 105.699 139.051 101.964 133.771 104.199 C 132.921 109.363 133.179 113.592 133.326 118.77 C 138.302 118.635 144.721 117.614 148.159 120.898 C 148.626 121.35 149.068 121.826 149.483 122.325 C 149.404 127.956 144.4 128.035 140.016 127.962 C 137.783 127.92 135.551 127.85 133.32 127.754 C 133.295 131.516 133.008 139.677 133.344 143.095 C 139.317 142.906 150.337 141.819 155.386 144.043 C 157.694 146.533 157.158 145.411 157.474 148.918 C 156.659 150.482 156.407 151.703 154.572 151.986 C 145.627 153.365 137.026 151.725 127.762 152.658 C 125.836 151.016 124.735 150.407 124.663 147.319 C 124.257 129.889 125.012 111.966 124.498 94.5916 z"/>
<path transform="translate(0,0)" fill="rgb(129,143,163)" d="M 1496.77 121.328 C 1501.62 107.762 1515.03 114.058 1514.76 119.958 C 1511.33 121.96 1508.67 116.719 1503.5 118.044 L 1502.5 120.29 C 1505.39 124.277 1510.17 123.537 1514.98 128.343 C 1516.46 131.905 1516.29 130.482 1515.77 134.225 C 1508.5 143.063 1505.91 139.774 1497.62 135.261 C 1493.83 134.393 1490.91 139.07 1487.69 139.31 C 1467.91 140.784 1476.1 101.135 1493.68 116.542 C 1495.6 118.232 1495.32 119.064 1495.57 121.49 L 1496.77 121.328 z"/>
<path transform="translate(0,0)" fill="rgb(4,7,20)" d="M 1496.77 121.328 C 1499.06 127.575 1507.21 126.721 1510.54 132.873 C 1507 137.061 1502.66 130.876 1497.53 132.183 C 1492.78 133.392 1486.17 134.385 1482.3 130.859 C 1478.24 124.269 1483.94 112.696 1491.89 120.835 C 1492.52 121.481 1494.56 121.411 1495.57 121.49 L 1496.77 121.328 z"/>
<path transform="translate(0,0)" fill="rgb(4,7,20)" d="M 3693.18 59.4813 C 3693.53 59.4517 3693.89 59.426 3694.25 59.4041 C 3705.13 58.7451 3724.6 59.3509 3736.06 59.3493 L 3821.32 59.347 L 3915.16 59.3275 C 3932.05 59.321 3949.08 59.125 3965.97 59.5813 C 3968.43 59.6479 3968.1 59.9031 3969.91 61.5098 C 3967.56 61.6608 3965.05 61.8223 3962.69 61.8148 C 3873.51 61.5328 3784.25 62.4809 3695.11 61.3873 C 3695.11 61.3873 3693.34 59.6486 3693.18 59.4813 z"/>
<path transform="translate(0,0)" fill="rgb(129,143,163)" d="M 651.009 132.04 C 652.997 131.443 652.203 131.458 654.261 132.081 L 654.485 134.183 C 647.952 146.857 633.203 134.847 636.262 122.374 C 639.073 110.91 646.264 115.782 655.197 114.987 C 654.709 115.031 659.844 108.366 660.912 107.496 C 669.852 110.857 660.473 124.562 663.023 131.843 C 664.016 134.677 665.197 133.621 667.198 136.98 L 666.293 138.575 C 663.239 139.387 664.387 139.36 661.124 138.069 C 657.428 133.6 658.155 127.013 657.896 120.667 C 657.159 123.986 657.009 127.297 654.98 129.517 C 651.871 130.099 652.771 129.504 651.009 132.04 z"/>
<path transform="translate(0,0)" fill="rgb(4,7,20)" d="M 651.009 132.04 C 650.923 132.172 650.83 132.299 650.729 132.42 C 649.039 134.465 647.669 134.295 645.521 134.453 C 643.855 133.417 643.465 133.102 642.704 131.279 C 641.513 128.428 640.355 124.375 641.622 121.403 C 644.008 115.807 652.091 122.07 654.084 120.71 C 655.568 119.697 655.472 118.719 657.512 117.916 L 658.363 118.866 L 657.896 120.667 C 657.159 123.986 657.009 127.297 654.98 129.517 C 651.871 130.099 652.771 129.504 651.009 132.04 z"/>
<path transform="translate(0,0)" fill="rgb(129,143,163)" d="M 1237.78 112.798 C 1243.06 114.282 1247.82 113.085 1250.25 115.374 C 1254.85 126.185 1248.86 166.754 1231.21 143.933 C 1234.53 141.582 1236.71 144.282 1240.92 145.206 C 1244.07 144.41 1243.03 144.975 1245.26 142.098 C 1245.71 138.897 1246.09 139.656 1244.65 137.457 C 1243.23 137.673 1238.16 139.085 1237.26 138.683 C 1225.23 133.322 1229.55 118.818 1237.78 112.798 z"/>
<path transform="translate(0,0)" fill="rgb(4,7,20)" d="M 1237.45 117.388 C 1239.08 117.571 1240.72 118.037 1242.32 118.44 C 1247.89 123.183 1246.04 128.661 1243.54 134.559 C 1241.94 134.619 1240.14 134.273 1238.55 134.033 C 1233.22 129.969 1235.81 122.804 1237.45 117.388 z"/>
<path transform="translate(0,0)" fill="rgb(129,143,163)" d="M 819.936 106.372 C 825.395 106.155 831.742 106.334 837.282 106.364 C 838.215 107.212 839.126 108.083 840.016 108.977 C 851.737 120.861 834.871 125.183 825.162 124.933 C 821.4 127.848 826.278 132.354 822.242 138.243 L 820.701 138.132 C 818.168 133.44 817.986 111.424 819.936 106.372 z"/>
<path transform="translate(0,0)" fill="rgb(4,7,20)" d="M 823.887 111.15 C 829.954 110.616 832.882 109.618 837.386 113.172 C 838.326 117.015 837.998 116.1 836.631 120.21 C 832.211 120.451 827.43 121.325 824.106 118.47 C 823.147 115.606 823.501 114.069 823.887 111.15 z"/>
<path transform="translate(0,0)" fill="rgb(129,143,163)" d="M 1120.19 106.385 C 1125.66 106.123 1132.06 106.323 1137.59 106.359 C 1138.03 106.749 1138.46 107.145 1138.89 107.546 C 1151.5 119.398 1138.55 125.164 1126.84 125.025 L 1125.69 125.231 C 1122.57 128.781 1126.03 134.683 1120.68 139.003 C 1118.55 136.004 1118.9 110.133 1120.19 106.385 z"/>
<path transform="translate(0,0)" fill="rgb(4,7,20)" d="M 1123.97 110.873 C 1128.47 110.69 1133.8 109.885 1137.3 112.652 C 1138.82 116.515 1138.37 115.551 1137.6 119.968 C 1134.35 120.32 1128.1 121.227 1125.49 119.397 C 1123.48 116.003 1124.11 115.224 1123.97 110.873 z"/>
<path transform="translate(0,0)" fill="rgb(129,143,163)" d="M 519.705 106.336 C 525.242 106.174 531.26 106.343 536.836 106.391 C 537.706 107.197 538.561 108.021 539.4 108.861 C 550.607 120.142 536.002 125.19 525.887 124.99 L 524.524 125.296 C 521.452 129.413 525.314 134.473 522.263 138.373 L 520.215 138.572 L 518.609 136.55 C 518.57 130.719 517.8 110.507 519.705 106.336 z"/>
<path transform="translate(0,0)" fill="rgb(4,7,20)" d="M 523.191 110.876 C 527.587 110.671 533.169 109.886 536.637 112.63 C 538.191 116.376 537.878 115.082 537.149 119.239 C 533.849 120.338 527.846 121.732 524.891 119.493 C 522.642 115.963 523.343 115.539 523.191 110.876 z"/>
<path transform="translate(0,0)" fill="rgb(129,143,163)" d="M 882.257 117.369 L 881.326 114.997 C 885.349 110.132 883.689 107.937 885.72 107.499 C 887.256 109.386 889.818 113.204 891.976 113.57 C 896.378 111.108 896.925 101.973 903.671 107.955 C 902.458 109.827 901.499 110.327 899.631 111.552 C 900.611 115.584 904.084 113.082 903.066 117.079 L 899.06 118.889 C 896.93 125.4 901.875 135.648 896.442 138.499 C 888.563 136.644 888.367 141.14 884.857 136.588 C 882.455 133.472 884.358 122.294 883.189 119.323 L 882.257 117.369 z"/>
<path transform="translate(0,0)" fill="rgb(4,7,20)" d="M 888.506 117.279 C 892.283 117.837 891.465 117.145 893.651 119.65 C 895.039 124.324 894.116 130.786 893.712 135.772 C 890.281 134.73 891.212 135.438 888.963 133.032 C 887.412 128.637 888.224 122.085 888.506 117.279 z"/>
<path transform="translate(0,0)" fill="rgb(129,143,163)" d="M 913.206 113.196 C 930.408 112.765 932.475 129.699 920.428 139.265 C 903.782 139.784 901.344 122.886 913.206 113.196 z"/>
<path transform="translate(0,0)" fill="rgb(4,7,20)" d="M 913.508 117.836 L 918.509 118.219 C 924.728 122.627 922.251 128.647 920.053 134.799 C 917.899 134.678 916.649 134.327 914.56 133.799 C 909.256 129.325 911.306 123.455 913.508 117.836 z"/>
<path transform="translate(0,0)" fill="rgb(129,143,163)" d="M 1191.52 130.198 C 1192.11 134.588 1189.8 137.516 1186.33 139.697 C 1183.3 140.015 1181.55 139.71 1179.07 137.824 C 1174.97 134.652 1172.28 130.009 1171.55 124.88 C 1169.89 112.704 1189.77 108.251 1190.86 120.922 C 1192.37 123.027 1193.94 128.531 1191.52 130.198 z"/>
<path transform="translate(0,0)" fill="rgb(4,7,20)" d="M 1191.52 130.198 C 1185.32 130.71 1187.92 134.258 1181.05 134.012 C 1176.5 129.936 1176.77 124.953 1179.07 119.592 C 1184.33 115.568 1184.2 120.624 1190.63 120.912 L 1190.86 120.922 C 1192.37 123.027 1193.94 128.531 1191.52 130.198 z"/>
<path transform="translate(0,0)" fill="rgb(129,143,163)" d="M 881.684 135.71 L 880.246 138.312 C 875.825 139.566 874.242 134.962 872.654 136.246 C 867.846 140.132 858.486 141.839 858.055 130.035 C 860.748 124.423 865.862 125.744 872.54 123.385 L 873.462 121.376 L 872.401 118.965 C 869.831 117.735 863.92 119.511 860.093 119.864 L 860.117 118.481 C 864.067 113.806 868.209 111.149 874.364 114.454 C 879.428 119.469 877.724 126.154 878.846 133.882 L 881.684 135.71 z"/>
<path transform="translate(0,0)" fill="rgb(252,252,253)" d="M 211.748 111.212 C 214.503 111.287 215.242 111.262 217.276 113.073 C 220.082 118.765 219.271 146.12 217.915 152.484 C 214.087 152.576 215.157 153.038 212.329 151.234 C 209.215 145.191 210.148 117.862 211.748 111.212 z"/>
<path transform="translate(0,0)" fill="rgb(129,143,163)" d="M 955.671 114.837 C 963.014 109.498 961.35 120.505 970.128 113.703 C 973.354 113.364 974.239 113.243 977.021 115.109 C 981.344 119.883 981.741 133.039 977.726 137.652 L 976.647 137.097 C 974.403 128.797 977.245 123.147 973.44 117.343 C 972.151 117.582 968.964 117.995 968.125 118.747 C 964.797 124.201 967.571 131.965 965.219 138.271 L 963.249 138.71 C 960.144 134.606 965.17 121.8 958.779 118.293 C 956.331 116.95 956.963 117.364 955.671 114.837 z"/>
<path transform="translate(0,0)" fill="rgb(129,143,163)" d="M 1209.93 119.973 C 1207.46 125.657 1211.25 135.827 1205.97 138.725 C 1203.15 135.057 1202.91 117.897 1206.23 113.858 C 1224.96 114.778 1224 115.722 1223.36 136.555 C 1223.32 137.685 1221.88 138.081 1220.91 138.559 C 1216.63 134.05 1219.9 125.509 1217.4 117.629 C 1212.58 118.055 1213.56 117.324 1209.93 119.973 z"/>
<path transform="translate(0,0)" fill="rgb(129,143,163)" d="M 613.318 138.222 C 609.565 133.067 608.345 119.093 612.015 114.072 L 615.09 113.631 C 614.891 119.19 614.135 129.282 615.924 134.327 C 619.031 134.608 620.565 134.95 623.313 133.34 C 626.212 125.935 622.278 118.35 626.989 114.039 L 628.955 114.919 C 630.017 118.432 629.537 133.066 627.603 136.683 C 624.83 139.331 616.749 139.471 613.318 138.222 z"/>
<path transform="translate(0,0)" fill="rgb(4,7,20)" d="M 3993.31 84.8066 C 3996.57 89.685 3995.15 163.616 3994.52 174.623 C 3993.77 174.207 3993.07 173.166 3992.52 172.458 C 3991.83 164.018 3991.4 89.35 3993.31 84.8066 z"/>
<path transform="translate(0,0)" fill="rgb(4,7,20)" d="M 3668.39 84.7058 C 3668.73 84.8436 3669.1 85.0166 3669.36 85.2918 C 3672.58 88.7941 3670.81 164.641 3670.56 174.453 L 3669.49 174.106 C 3667.2 170.578 3668.07 94.553 3668.39 84.7058 z"/>
<path transform="translate(0,0)" fill="rgb(4,7,20)" d="M 266.629 137.333 C 270.577 132.06 266.919 126.095 268.659 124.455 C 270.972 127.841 270.041 128.83 270.632 132.217 C 273.452 148.394 256.036 160.189 240.91 157.461 L 239.053 155.909 L 239.429 154.511 C 243.173 154.328 250.329 155.677 252.248 152.485 C 260.898 146.145 261.181 148.085 266.629 137.333 z"/>
<path transform="translate(0,0)" fill="rgb(4,7,20)" d="M 133.771 104.199 C 140.842 107.347 149.752 106.788 157.545 106.672 L 158.058 108.08 C 153.484 111.025 147.393 109.897 142.225 109.625 C 140.824 109.552 140.854 109.222 140.641 109.975 L 142.292 109.617 C 147.105 109.955 148.822 110.466 153.463 111.874 L 154.358 113.05 C 149.269 115.966 140.276 116.292 134.49 116.073 C 134.442 112.62 134.551 107.401 133.771 104.199 z"/>
<path transform="translate(0,0)" fill="rgb(4,7,20)" d="M 177.207 144.427 L 177.37 143.321 C 180.551 140.341 184.52 146.087 194.626 142.633 L 198.127 143.8 L 198.45 145.399 C 193.752 150.808 189.476 150.248 182.915 150.149 C 180.584 152.826 183.445 166.867 181.285 170.327 L 180.172 170.08 C 178.326 161.982 181.277 149.068 177.207 144.427 z"/>
<path transform="translate(0,0)" fill="rgb(4,7,20)" d="M 164.237 110.772 L 165.477 112.546 C 166.151 119.847 166.599 166.718 164.537 171.083 C 164.225 170.522 163.95 169.941 163.715 169.343 C 161.845 164.595 162.159 115.79 164.237 110.772 z"/>
<path transform="translate(0,0)" fill="rgb(4,7,20)" d="M 119.361 93.7209 C 119.736 93.9 120.01 94.1158 120.304 94.4098 C 123.381 97.4884 121.579 145.16 121.519 152.661 L 119.906 152.437 C 117.892 149.021 118.333 99.8542 119.361 93.7209 z"/>
<path transform="translate(0,0)" fill="rgb(129,143,163)" d="M 849.587 106.223 C 850.403 106.469 852.409 106.898 852.666 107.419 C 855.093 112.348 854.032 134.832 853.041 139.556 L 850.571 138.488 C 847.819 134.692 849.138 111.723 849.587 106.223 z"/>
<path transform="translate(0,0)" fill="rgb(4,7,20)" d="M 203.236 126.443 C 203.268 123.347 203.059 119.014 204.183 116.282 L 205.398 115.75 L 205.405 114.656 C 208.495 120.421 207.841 143.326 207.348 150.428 L 206.431 151.659 L 204.661 150.709 C 203.44 145.69 206.157 142.441 203.301 137.549 C 203.03 137.084 203.295 130.901 203.175 129.543 L 203.236 126.443 z"/>
<path transform="translate(0,0)" fill="rgb(129,143,163)" d="M 549.278 113.268 C 553.692 115.168 553.885 114.572 558.462 115.369 C 557.049 121.793 552.876 117.649 553.304 132.25 C 553.665 135.381 553.268 137.212 550.649 138.978 C 547.742 136.207 549.109 118.08 549.278 113.268 z"/>
<path transform="translate(0,0)" fill="rgb(129,143,163)" d="M 931.483 113.292 C 936.753 115.591 937.95 113.937 940.683 115.696 C 934.814 124.243 935.339 123.91 935.66 134.25 C 935.272 137.849 935.893 136.808 933.339 138.899 L 931.935 138.003 C 930.841 132.95 931.483 119.426 931.483 113.292 z"/>
<path transform="translate(0,0)" fill="rgb(129,143,163)" d="M 1150.08 113.263 C 1153.91 114.916 1155.44 114.572 1159.48 115.562 C 1153.39 122.634 1153.83 123.321 1154.04 132.249 L 1154.28 136.282 L 1152.64 137.637 L 1153.24 138.604 C 1148.15 138.025 1149.85 117.487 1150.08 113.263 z"/>
<path transform="translate(0,0)" fill="rgb(4,7,20)" d="M 1209.93 119.973 C 1213.56 117.324 1212.58 118.055 1217.4 117.629 C 1216.38 123.773 1217.15 135.607 1216.18 138.581 C 1213.81 138.609 1213.82 137.787 1211.22 137.696 C 1209.25 133.579 1210.75 125.293 1209.93 119.973 z"/>
<path transform="translate(0,0)" fill="rgb(4,7,20)" d="M 615.924 134.327 C 616.464 130.288 615.469 115.433 617.832 113.375 C 618.344 114.999 618.461 115.555 619.688 116.806 L 621.115 114.079 L 622.502 114.223 C 622.548 120.603 622.818 126.979 623.313 133.34 C 620.565 134.95 619.031 134.608 615.924 134.327 z"/>
<path transform="translate(0,0)" fill="rgb(4,7,20)" d="M 953.075 114.939 L 952.591 112.588 C 950.847 112.08 949.644 111.008 948.207 109.907 L 949.589 109.369 L 948.728 110.302 L 950.434 109.291 C 955.425 109.283 974.381 108.452 977.384 109.613 L 977.184 111.254 C 975.053 111.715 972.913 111.858 970.744 112.048 L 970.128 113.703 C 961.35 120.505 963.014 109.498 955.671 114.837 L 954.501 116.148 L 953.075 114.939 z"/>
<path transform="translate(0,0)" fill="rgb(129,143,163)" d="M 954.501 116.148 C 952.786 125.534 952.563 128.249 952.053 137.982 L 951.136 138.594 C 947.974 133.823 945.813 117.68 950.427 114.1 L 953.075 114.939 L 954.501 116.148 z"/>
<path transform="translate(0,0)" fill="rgb(129,143,163)" d="M 1168.09 127.407 C 1167.89 130.987 1168.1 136.071 1166.19 138.713 C 1162.2 135.582 1161.91 119.238 1164.28 114.428 L 1165.67 114.01 L 1167.42 115.329 C 1168.24 118.075 1168.09 121.723 1168.13 124.643 L 1168.09 127.407 z"/>
<path transform="translate(0,0)" fill="rgb(129,143,163)" d="M 1194.64 113.251 C 1196.02 113.657 1196.72 114.283 1197.85 115.124 C 1199.3 119.525 1198.62 133.568 1198.5 138.719 C 1198.12 138.687 1195.77 138.483 1195.77 138.483 C 1192.21 135.441 1194.34 116.295 1194.64 113.251 z"/>
<path transform="translate(0,0)" fill="rgb(4,7,20)" d="M 124.875 88.4328 C 132.275 87.6547 147.208 87.9501 154.962 88.5017 C 156.469 88.6089 156.582 89.3976 157.61 90.8493 C 150.334 91.1156 131.777 92.0148 125.723 90.4406 L 124.875 88.4328 z"/>
<path transform="translate(0,0)" fill="rgb(4,7,20)" d="M 224.876 120.233 L 226.782 121.833 L 226.936 142.318 L 225.06 143.524 C 224.717 142.782 224.382 142.037 224.054 141.288 C 219.95 131.873 221.187 129.628 224.876 120.233 z"/>
<path transform="translate(0,0)" fill="rgb(4,7,20)" d="M 514.427 105.682 L 515.637 106.438 C 517.992 109.429 516.717 134.149 516.586 139.518 C 515.835 139.246 515.161 138.521 514.555 137.96 C 513.443 130.571 514.193 113.642 514.427 105.682 z"/>
<path transform="translate(0,0)" fill="rgb(4,7,20)" d="M 1416.24 105.776 C 1419.1 110.162 1418.24 133.78 1417.23 139.42 C 1413.78 136.708 1414.72 110.347 1416.24 105.776 z"/>
<path transform="translate(0,0)" fill="rgb(4,7,20)" d="M 1160.22 108.869 L 1161.32 109.014 L 1161.39 110.415 C 1154.53 115.019 1146 107.583 1147.59 124.058 C 1147.9 127.213 1147.65 133.22 1147.52 136.497 C 1146.38 134.726 1145.65 113.789 1146.61 110.926 C 1149.15 108.911 1156.54 109.113 1160.22 108.869 z"/>
<path transform="translate(0,0)" fill="rgb(4,7,20)" d="M 859.421 141.491 C 862.963 140.573 896.836 140.508 898.594 142.274 L 897.078 142.956 C 889.793 143.496 864.779 144.54 859.421 141.491 z"/>
<path transform="translate(0,0)" fill="rgb(4,7,20)" d="M 124.242 85.4804 C 129.671 84.1798 153.957 83.0636 158.013 86.5094 C 152.384 87.4278 129.28 87.9905 124.242 85.4804 z"/>
<path transform="translate(0,0)" fill="rgb(4,7,20)" d="M 135.101 136.898 C 142.857 138.668 153.57 135.255 158.478 140.146 C 153.91 140.716 139.672 141.392 135.625 139.9 L 135.101 136.898 z"/>
<path transform="translate(0,0)" fill="rgb(4,7,20)" d="M 968.125 118.747 C 968.964 117.995 972.151 117.582 973.44 117.343 C 969.826 127.482 971.69 128.973 969.001 137.106 L 969.666 134.366 L 968.301 133.514 C 967.834 128.355 967.999 123.89 968.125 118.747 z"/>
<path transform="translate(0,0)" fill="rgb(4,7,20)" d="M 882.257 117.369 L 883.189 119.323 C 882.497 123.139 882.745 133.546 881.684 135.71 L 878.846 133.882 C 880.33 127.277 877.037 122.036 882.257 117.369 z"/>
<path transform="translate(0,0)" fill="rgb(4,7,20)" d="M 954.448 121.491 C 958.832 123.129 956.926 135.365 956.554 139.225 L 954.779 138.394 C 953.802 134.246 954.328 126.044 954.448 121.491 z"/>
<path transform="translate(0,0)" fill="rgb(4,7,20)" d="M 1168.13 124.643 C 1169.12 120.725 1169.47 119.306 1169.55 115.277 C 1172.02 126.189 1171.06 126.458 1169.88 138.036 C 1168.52 135.453 1169.89 131.626 1168.09 127.407 L 1168.13 124.643 z"/>
<path transform="translate(0,0)" fill="rgb(4,7,20)" d="M 240.157 106.529 C 245.669 105.705 249.881 104.101 253.735 108.548 C 247.832 109.056 244.541 109.954 240.157 106.529 z"/>
<path transform="translate(0,0)" fill="rgb(4,7,20)" d="M 1125.31 126.492 C 1129.63 126.292 1136.53 125.841 1140.28 127.708 C 1135.5 129.931 1129.04 130.706 1125.31 126.492 z"/>
<path transform="translate(0,0)" fill="rgb(4,7,20)" d="M 825.248 126.486 C 830.281 126.264 835.91 125.34 839.685 128.516 C 834.081 129.188 829.115 130.986 825.248 126.486 z"/>
<path transform="translate(0,0)" fill="rgb(4,7,20)" d="M 932.507 109.556 C 935.568 107.803 941.424 108.979 944.062 111.551 C 940.064 111.789 936.32 112.19 932.389 111.333 L 932.507 109.556 z"/>
<path transform="translate(0,0)" fill="rgb(4,7,20)" d="M 862.293 109.517 C 867.341 108.841 871.542 107.559 875.424 111.134 C 870.483 111.899 866.043 113.153 862.293 109.517 z"/>
<path transform="translate(0,0)" fill="rgb(4,7,20)" d="M 640.294 109.512 C 643.926 108.994 650.106 107.698 653.068 110.528 C 649.135 112.6 643.572 112.721 640.294 109.512 z"/>
<path transform="translate(0,0)" fill="rgb(4,7,20)" d="M 153.384 116.887 L 154.586 118.488 C 155.553 122.997 155.107 125.011 154.452 129.597 C 150.872 126.677 152.149 120.805 153.384 116.887 z"/>
<path transform="translate(0,0)" fill="rgb(4,7,20)" d="M 299.155 106.378 C 304.094 105.647 307.348 104.214 310.347 108.568 C 306.649 108.881 303.967 109.307 300.348 108.405 L 299.155 106.378 z"/>
<path transform="translate(0,0)" fill="rgb(4,7,20)" d="M 209.648 105.451 C 212.716 105.192 216.187 104.503 218.768 106.042 L 219.353 108.637 C 214.589 108.952 211.744 110.078 209.648 105.451 z"/>
<path transform="translate(0,0)" fill="rgb(4,7,20)" d="M 273.207 106.524 C 278.9 105.492 280.852 104.265 285.008 108.53 C 280.332 108.964 276.747 109.821 273.207 106.524 z"/>
<path transform="translate(0,0)" fill="rgb(4,7,20)" d="M 323.644 106.391 C 328.476 105.658 332.033 104.092 334.625 108.603 C 330.418 108.953 325.955 110.195 323.644 106.391 z"/>
<path transform="translate(0,0)" fill="rgb(4,7,20)" d="M 167.498 172.444 C 170.587 172.223 174.582 171.523 177.15 173.029 L 177.421 175.159 C 173.001 175.693 169.892 176.674 167.498 172.444 z"/>
<path transform="translate(0,0)" fill="rgb(4,7,20)" d="M 1453.35 141.485 C 1457.74 140.591 1461.73 140.01 1465.61 142.493 C 1465.04 142.623 1464.46 142.744 1463.88 142.857 C 1459.6 143.7 1457.01 143.941 1453.35 141.485 z"/>
<path transform="translate(0,0)" fill="rgb(4,7,20)" d="M 1480.36 141.484 C 1484.22 140.443 1488.58 140.466 1492.36 141.866 C 1488.07 143.969 1484.44 144.147 1480.36 141.484 z"/>
</svg>