<!-- RECRAFT VECTORIZE from logo/options-w/mock/W5-soft-navbar-light.png -->
<svg version="1.1" xmlns="http://www.w3.org/2000/svg" style="display: block;" viewBox="0 0 4096 256" width="4096" height="256" preserveAspectRatio="none">
<path transform="translate(0,0)" fill="rgb(255,255,255)" d="M 0 0 L 4096 0 L 4096 256 L 0 256 L 0 0 z"/>
<path transform="translate(0,0)" fill="rgb(66,55,201)" d="M 3694.07 64.3973 C 3745.45 62.5205 3807.85 64.1585 3860.25 64.1309 L 3931.12 64.0958 C 3941.24 64.0937 3959.22 63.5898 3968.89 64.4092 C 3972.02 68.3983 3971.85 65.8894 3974.94 68.527 C 3978.92 71.9145 3983.49 75.7672 3986.69 79.8934 C 3987.24 84.4034 3986.45 83.2499 3989.57 86.0479 C 3990.27 94.1469 3990.8 170.106 3989.14 173.084 C 3985.82 176.487 3986.77 179.391 3986.28 179.99 C 3982.75 184.281 3975.97 191.685 3970.51 192.906 L 3969.09 194.798 C 3965.04 195.94 3702.46 196.424 3693.9 194.807 C 3690.15 190.065 3691.08 194.861 3684.31 188.489 C 3677.05 181.66 3677.32 177.7 3673.84 173.099 C 3672.15 170.188 3672.62 94.1226 3673.39 86.0216 C 3676.3 83.5772 3675.53 84.1394 3676.3 79.9203 C 3679.5 75.7263 3684.02 71.8665 3688.06 68.481 C 3691.2 65.8571 3691.01 68.3913 3694.07 64.3973 z"/>
<path transform="translate(0,0)" fill="rgb(51,39,197)" d="M 3694.07 64.3973 C 3745.45 62.5205 3807.85 64.1585 3860.25 64.1309 L 3931.12 64.0958 C 3941.24 64.0937 3959.22 63.5898 3968.89 64.4092 L 3968.14 68.0113 C 3966.31 69.3615 3953.19 68.8759 3950.12 68.8713 L 3910.29 68.8557 L 3743.87 68.77 C 3737.57 68.8085 3697.72 69.6764 3694.89 68.0272 L 3694.07 64.3973 z"/>
<path transform="translate(0,0)" fill="rgb(51,39,197)" d="M 3693.9 194.807 C 3694.23 193.904 3694.92 191.087 3695.93 191.131 C 3724.21 192.357 3963.94 188.64 3968.07 191.519 L 3969.09 194.798 C 3965.04 195.94 3702.46 196.424 3693.9 194.807 z"/>
<path transform="translate(0,0)" fill="rgb(51,39,197)" d="M 3673.39 86.0216 L 3676.75 87.4044 C 3678.95 95.7416 3677.18 158.467 3677.17 171.307 C 3675.56 172.899 3676.07 172.465 3673.84 173.099 C 3672.15 170.188 3672.62 94.1226 3673.39 86.0216 z"/>
<path transform="translate(0,0)" fill="rgb(51,39,197)" d="M 3989.14 173.084 C 3986.72 172.622 3987.41 173.072 3985.8 171.298 C 3985.8 144.209 3985.75 117.109 3985.84 90.0194 C 3985.85 86.7877 3986.97 86.9939 3989.57 86.0479 C 3990.27 94.1469 3990.8 170.106 3989.14 173.084 z"/>
<path transform="translate(0,0)" fill="rgb(226,224,247)" d="M 3932.99 109.509 L 3935.63 110.626 C 3937.96 113.81 3938.04 138.735 3935.1 141.634 C 3930.38 141.213 3928.45 142.895 3924.77 142.652 C 3916.7 142.121 3918.38 133.404 3915.37 130.492 C 3910.64 130.622 3902.29 130.845 3898.64 134.009 L 3898.67 135.901 L 3900.88 137.792 C 3905.01 138.48 3906.32 137.088 3910.88 135.933 L 3913.39 137.74 C 3909.61 141.672 3904.9 144.409 3899.49 141.546 C 3896.3 139.822 3893.91 136.903 3892.87 133.427 C 3890.58 125.934 3895.3 118.406 3902.53 116.204 C 3912.06 117.369 3910.08 124.733 3915.98 127.061 C 3917.94 123.041 3918.7 121.458 3921.5 117.998 C 3924.5 116.248 3927.07 117.111 3930.47 117.749 C 3932.41 115.994 3932.26 112.868 3932.99 109.509 z"/>
<path transform="translate(0,0)" fill="rgb(51,39,197)" d="M 3926.79 120.358 C 3934.75 123.644 3933.37 134.237 3927.68 139.479 C 3919.13 135.8 3919.97 125.75 3926.79 120.358 z"/>
<path transform="translate(0,0)" fill="rgb(226,224,247)" d="M 3751.57 137.557 C 3743.6 142.861 3735.41 146.263 3727.53 138.217 C 3724.22 134.773 3722.39 130.175 3722.42 125.401 C 3722.6 111.212 3734.22 109.27 3745.48 109.474 C 3747.82 111.605 3749.29 112.806 3751.03 115.506 L 3750.35 117.1 L 3746.56 118.459 L 3749.43 119.709 C 3746.06 119.876 3743.48 120.09 3740.14 120.54 L 3739.23 121.791 L 3748.89 122.327 L 3741.74 123.054 L 3751.3 124.671 L 3756.36 125.067 L 3756.56 134.39 L 3754.47 133.902 C 3752.81 135.196 3752.57 135.706 3751.57 137.557 z"/>
<path transform="translate(0,0)" fill="rgb(51,39,197)" d="M 3741.74 123.054 C 3740.32 123.701 3739.57 124.559 3738.46 125.637 C 3739.45 128.791 3742.42 127.191 3747.35 130.163 L 3747.83 132.262 C 3735.78 153.056 3714.32 118.372 3738.05 114.091 C 3741.08 113.544 3744.57 116.291 3746.56 118.459 L 3749.43 119.709 C 3746.06 119.876 3743.48 120.09 3740.14 120.54 L 3739.23 121.791 L 3748.89 122.327 L 3741.74 123.054 z"/>
<path transform="translate(0,0)" fill="rgb(51,39,197)" d="M 3751.3 124.671 L 3756.36 125.067 L 3756.56 134.39 L 3754.47 133.902 C 3752.81 135.196 3752.57 135.706 3751.57 137.557 C 3751.91 132.165 3752.01 130 3751.3 124.671 z"/>
<path transform="translate(0,0)" fill="rgb(226,224,247)" d="M 3756.36 125.067 C 3764.14 109.582 3774.39 116.841 3778.63 130.093 C 3778.69 130.277 3778.75 130.462 3778.81 130.647 C 3780.97 133.738 3780.42 138.671 3778.54 141.816 L 3777.74 141.856 L 3777.09 135.478 C 3775.79 138.577 3774.45 140.752 3771.13 142.114 C 3768.59 143.146 3765.74 143.104 3763.23 141.998 C 3759.79 140.477 3757.85 137.779 3756.56 134.39 L 3756.36 125.067 z"/>
<path transform="translate(0,0)" fill="rgb(51,39,197)" d="M 3778.81 130.647 C 3780.97 133.738 3780.42 138.671 3778.54 141.816 L 3777.74 141.856 L 3777.09 135.478 C 3770.83 135.32 3766.8 141.361 3762.01 134.882 L 3762.53 133.433 C 3765.64 131.602 3774.13 131.982 3778.81 130.647 z"/>
<path transform="translate(0,0)" fill="rgb(255,255,255)" d="M 3873.18 121.927 C 3868.53 129.361 3874.18 136.677 3869.17 142.41 L 3867.96 141.804 C 3865.6 138.041 3866.43 124.05 3867.35 119.56 C 3870.92 115.211 3878.01 124.005 3881.42 111.861 L 3882.98 111.081 C 3885.13 112.12 3888.07 117.928 3888.27 120.262 L 3885.64 122.52 L 3890.12 122.444 C 3893.49 126.064 3892.32 133.532 3890.7 137.704 L 3887.8 139.45 C 3888.71 140.109 3888.46 140.049 3888.84 141.376 C 3885.84 142.635 3887 142.415 3883.54 141.846 C 3877.23 135.517 3883.01 127.028 3879.67 120.562 L 3873.18 121.927 z"/>
<path transform="translate(0,0)" fill="rgb(51,39,197)" d="M 3885.64 122.52 L 3890.12 122.444 C 3893.49 126.064 3892.32 133.532 3890.7 137.704 L 3887.8 139.45 L 3885.67 136.91 C 3884.75 133.346 3884.54 125.992 3885.64 122.52 z"/>
<path transform="translate(0,0)" fill="rgb(226,224,247)" d="M 3848.25 116.992 C 3864.27 116.041 3860.26 124.837 3861.63 136.173 C 3861.54 135.451 3864.14 140.128 3864.35 140.625 L 3863.48 142.137 C 3859.23 143.614 3856.96 139.161 3855.93 139.672 C 3851.45 141.902 3850.81 143.339 3844.87 142.34 C 3833.2 123.615 3856.05 134.508 3857.37 122.486 C 3852.63 120.836 3845.86 124.94 3842.82 122.812 C 3843.63 120.602 3846.4 118.591 3848.25 116.992 z"/>
<path transform="translate(0,0)" fill="rgb(255,255,255)" d="M 3831.06 110.515 L 3832.27 111.068 C 3838.82 120.385 3834.51 117.896 3833.88 129.382 C 3833.51 136.01 3835.06 137.298 3838.9 141.904 C 3825.93 144.326 3829.91 131.434 3829.59 122.384 L 3827.4 120.557 C 3826.72 118.104 3829.67 115.985 3831.06 110.515 z"/>
<path transform="translate(0,0)" fill="rgb(255,255,255)" d="M 3782.85 110.244 C 3790.09 112.615 3787.01 124.17 3786.15 129.365 C 3785.14 135.516 3787.48 137.402 3791.11 141.95 L 3786.4 142.329 C 3777.48 138.014 3780.79 118.16 3782.85 110.244 z"/>
<path transform="translate(0,0)" fill="rgb(226,224,247)" d="M 3808.33 126.814 C 3815.5 126.05 3824.13 127.417 3826.29 135.375 C 3824.4 143.676 3818.2 142.68 3811.26 142.376 C 3809.13 140.066 3808.66 139.509 3807.63 136.492 L 3808.79 135.737 C 3813.5 137.115 3817.36 139.188 3821.6 136.482 C 3821.18 131.962 3816.64 132.952 3814 131.503 C 3812.98 130.949 3809.38 127.751 3808.33 126.814 z"/>
<path transform="translate(0,0)" fill="rgb(51,39,197)" d="M 3873.18 121.927 L 3879.67 120.562 C 3879.15 125.213 3879.04 138.343 3878.28 140.684 L 3876.17 138.957 L 3876.98 139.498 L 3876.2 139.019 L 3874.28 141.129 C 3871.66 137.424 3873.81 126.927 3873.18 121.927 z"/>
<path transform="translate(0,0)" fill="rgb(51,39,197)" d="M 3729.94 144.474 C 3734.02 144.188 3745.21 142.903 3747.16 146.469 C 3742.61 147.102 3735.02 147.858 3730.75 146.356 L 3729.94 144.474 z"/>
<path transform="translate(0,0)" fill="rgb(51,39,197)" d="M 3809.64 144.428 C 3812.96 144.26 3820.81 143.514 3823.18 145.168 L 3823.28 146.833 C 3819.18 147.05 3813.48 147.737 3809.79 146.311 L 3809.64 144.428 z"/>
<path transform="translate(0,0)" fill="rgb(51,39,197)" d="M 3897.83 113.428 C 3901.39 112.716 3904.76 112.315 3908.23 113.347 L 3908.89 114.598 C 3905.59 115.263 3901.14 115.542 3897.9 114.52 L 3897.83 113.428 z"/>
<path transform="translate(0,0)" fill="rgb(51,39,197)" d="M 3881.16 144.45 C 3885.55 144.04 3888.24 143.222 3891.21 146.628 C 3887.83 147.084 3884.86 147.816 3881.76 146.387 L 3881.16 144.45 z"/>
<path transform="translate(0,0)" fill="rgb(51,39,197)" d="M 3782.07 144.457 C 3786.32 144.026 3789.47 143.106 3792.22 146.633 C 3788.83 147.087 3785.86 147.817 3782.75 146.378 L 3782.07 144.457 z"/>
<path transform="translate(0,0)" fill="rgb(51,39,197)" d="M 3810.81 113.438 C 3814.25 112.878 3817.62 111.992 3820.87 113.221 L 3821.4 115.145 C 3817.28 115.271 3814.94 115.47 3810.92 114.516 L 3810.81 113.438 z"/>
<path transform="translate(0,0)" fill="rgb(51,39,197)" d="M 3761.65 113.492 C 3765.91 112.561 3768.89 111.593 3772.29 114.672 C 3769.24 115.075 3763.54 116.276 3761.65 113.492 z"/>
<path transform="translate(0,0)" fill="rgb(161,174,192)" d="M 1420.69 106.301 C 1425.7 106.195 1431.26 106.318 1436.31 106.333 L 1444.32 112.162 C 1445.33 115.357 1446.57 120.016 1448.42 122.646 C 1456.55 113.15 1463.48 104.937 1470.33 122.984 C 1472 127.37 1468.83 133.08 1466.77 136.884 C 1464.46 138.309 1460.4 139.858 1457.76 139.067 C 1449.73 136.655 1451.46 132.867 1448.13 127.947 C 1446.23 128.436 1441.82 135.288 1436.45 139.074 C 1431.09 139.228 1425.08 138.976 1419.67 138.867 C 1419.57 132.178 1418.78 111.392 1420.69 106.301 z"/>
<path transform="translate(0,0)" fill="rgb(255,255,255)" d="M 1424.18 110.773 C 1439.84 110.361 1447.27 118.148 1438.06 132.711 C 1433.79 135.218 1428.94 134.637 1424.15 134.422 C 1424.62 125.998 1424.46 119.227 1424.18 110.773 z"/>
<path transform="translate(0,0)" fill="rgb(255,255,255)" d="M 1456.32 117.542 C 1457.87 117.614 1459.89 117.922 1461.47 118.121 C 1467.89 122.716 1465.17 129.068 1462.59 135.094 C 1451.14 134.236 1452.95 125.349 1456.32 117.542 z"/>
<path transform="translate(0,0)" fill="rgb(0,1,8)" d="M 243.638 112.861 C 250.606 111.475 257.779 113.971 262.382 119.383 C 266.986 124.795 268.298 132.275 265.813 138.931 C 263.327 145.587 257.433 150.376 250.409 151.446 C 239.882 153.049 230.002 145.951 228.161 135.463 C 226.321 124.975 233.194 114.937 243.638 112.861 z"/>
<path transform="translate(0,0)" fill="rgb(255,255,255)" d="M 243.783 121.82 C 249.443 119.772 255.686 122.734 257.679 128.414 C 259.671 134.094 256.646 140.307 250.946 142.242 C 245.327 144.151 239.22 141.177 237.256 135.577 C 235.291 129.977 238.204 123.84 243.783 121.82 z"/>
<path transform="translate(0,0)" fill="rgb(0,1,8)" d="M 275.939 111.439 C 278.593 111.344 279.528 111.214 281.885 112.395 C 287.23 117.151 289.806 133.198 291.928 141.01 C 294.267 133.757 297.098 113.129 303.76 110.898 C 313.459 114.136 312.085 133.119 317.199 135.796 C 321.165 132.11 320.583 116.979 327.187 111.43 C 330.405 111.015 329.242 110.87 332.414 113.052 C 333.03 116.192 330.823 121.918 329.797 125.221 C 327.124 133.459 325.145 151.746 316.393 152.818 C 306.773 149.219 310.83 131.688 304.467 127.035 C 300.97 129.318 299.916 150.772 292.042 153.808 C 286.899 152.891 284.854 146.38 283.99 141.827 C 282.374 133.32 275.177 119.739 275.939 111.439 z"/>
<path transform="translate(0,0)" fill="rgb(0,1,8)" d="M 169.617 111.4 C 172.939 111.309 174.856 113.188 176.561 113.115 C 179.824 112.87 192.849 112.53 195.451 114.334 C 211.791 125.66 198.963 152.225 177.619 140.476 C 174.959 148.572 181.029 168.01 172.452 169.809 C 166.851 166.493 167.717 117.825 169.617 111.4 z"/>
<path transform="translate(0,0)" fill="rgb(255,255,255)" d="M 186.051 120.73 C 190.076 119.922 193.991 122.539 194.783 126.567 C 195.575 130.595 192.943 134.5 188.912 135.276 C 184.903 136.048 181.025 133.433 180.237 129.427 C 179.45 125.422 182.049 121.534 186.051 120.73 z"/>
<path transform="translate(0,0)" fill="rgb(0,1,8)" d="M 127.206 94.2731 C 134.776 95.2315 152.959 92.5585 157.181 97.2704 C 157.594 100.668 157.938 99.5625 156.022 102.077 C 150.431 104.545 139.737 103.527 133.254 103.382 L 132.996 118.63 L 141.273 118.766 C 145.008 118.798 150.117 120.094 150.062 124.528 C 149.916 124.671 149.768 124.812 149.618 124.952 C 145.132 129.102 139.552 127.961 133.407 127.738 C 133.047 130.828 133.169 137.497 133.135 140.86 C 138.739 147.296 151.825 138.305 158.058 146.054 C 156.43 155.562 133.657 152.366 124.673 152.468 C 124.922 137.619 124.109 112.813 125.082 97.0585 C 125.911 95.9711 126.619 95.0426 127.206 94.2731 z"/>
<path transform="translate(0,0)" fill="rgb(161,174,192)" d="M 601.137 106.133 L 604.412 107.31 C 605.997 109.97 606.039 131.587 605.658 136.083 C 603.368 138.256 595.375 139.07 592.075 139.135 C 588.345 137.807 587.133 133.786 584.418 130.026 C 577.459 131.83 582.419 142.158 566.897 138.276 C 566.391 137.828 565.898 137.365 565.418 136.888 C 557.96 129.47 559.911 96.5804 584.259 122.535 C 586.741 122.003 584.79 120.14 587.263 117.089 C 591.632 111.7 593.132 114.549 599.173 113.748 C 601.5 110.908 600.823 110.387 601.137 106.133 z"/>
<path transform="translate(0,0)" fill="rgb(255,255,255)" d="M 568.554 117.789 C 571.185 117.706 571.801 117.747 574.345 118.413 C 579.878 123.077 577.561 129.142 575.191 134.915 C 572.874 134.861 571.837 134.501 569.61 133.849 C 564.383 129.622 566.56 123.158 568.554 117.789 z"/>
<path transform="translate(0,0)" fill="rgb(255,255,255)" d="M 591.908 117.934 C 594.334 117.796 595.019 117.867 597.41 118.313 C 603.003 122.529 600.706 129.036 598.798 134.685 C 594.289 134.405 595.235 135.065 591.796 132.63 C 589.109 127.577 590.629 123.49 591.908 117.934 z"/>
<path transform="translate(0,0)" fill="rgb(161,174,192)" d="M 1237.95 112.679 C 1243.86 114.823 1246.6 113.25 1249.63 115.458 C 1255.49 126.025 1248.54 166.59 1231.22 143.927 C 1234.91 141.721 1236.29 143.756 1240.42 145.2 C 1243.65 144.651 1242.56 145.131 1245.05 142.544 C 1245.85 139.253 1246.1 140.208 1244.89 137.644 C 1225.71 142.167 1226.4 121.001 1237.95 112.679 z"/>
<path transform="translate(0,0)" fill="rgb(255,255,255)" d="M 1237.4 117.44 C 1239.85 117.56 1240.4 117.716 1242.71 118.552 C 1248.01 123.66 1246.3 128.818 1243.16 134.615 C 1242.9 134.64 1242.63 134.655 1242.37 134.659 C 1238.48 134.696 1238.55 134.28 1236.33 132.083 C 1234.24 126.978 1235.79 122.539 1237.4 117.44 z"/>
<path transform="translate(0,0)" fill="rgb(161,174,192)" d="M 1482.79 113.252 C 1487.93 113.039 1493.93 113.738 1495.26 119.492 L 1494.31 120.86 C 1488.61 119.828 1488.5 117.56 1483.57 118.313 C 1480.52 121.187 1480.89 129.324 1482.51 132.791 C 1484.25 136.524 1490.63 131.009 1493.7 131.382 C 1499.01 132.026 1505.28 136.252 1510.54 133.244 C 1508.69 129.358 1500.06 127.235 1497.69 120.167 C 1498.18 116.54 1497.89 117.673 1500.25 114.645 C 1503.38 112.713 1506.61 113.285 1510.3 113.498 C 1513.68 116.797 1513.59 115.807 1514.72 119.962 C 1511.49 121.344 1507.26 115.885 1502.02 119.372 C 1506.03 124.111 1514.57 123.925 1515.36 133.24 C 1511.04 145.153 1502.51 137.925 1496.09 135.275 C 1496.08 135.271 1485.92 139.462 1484.18 138.965 C 1472.37 135.607 1474.38 121.058 1482.79 113.252 z"/>
<path transform="translate(0,0)" fill="rgb(161,174,192)" d="M 819.96 106.371 C 825.581 106.138 831.751 106.331 837.415 106.39 L 837.878 106.823 C 851.915 120.048 837.854 125.251 825.159 124.946 C 821.729 129.136 825.418 134.948 822.181 138.704 L 820.156 138.421 L 818.957 136.446 C 818.917 130.626 818.245 110.422 819.96 106.371 z"/>
<path transform="translate(0,0)" fill="rgb(255,255,255)" d="M 823.44 110.864 C 829.362 110.508 832.907 109.635 837.458 113.022 C 838.477 117.03 838.171 115.987 836.729 120.264 C 833.198 120.478 828.169 121.185 825.157 119.655 C 822.877 116.341 823.599 115.448 823.44 110.864 z"/>
<path transform="translate(0,0)" fill="rgb(161,174,192)" d="M 1120.23 106.405 C 1125.61 106.173 1132.08 106.343 1137.55 106.359 C 1138.56 107.274 1139.55 108.216 1140.52 109.185 C 1150.9 119.731 1136.91 125.238 1126.83 125.007 L 1125.42 125.302 C 1122.76 129.088 1125.09 132.225 1122.74 138.351 L 1121.24 138.728 L 1119.46 137.051 C 1119.16 131.347 1118.64 110.931 1120.23 106.405 z"/>
<path transform="translate(0,0)" fill="rgb(255,255,255)" d="M 1123.84 110.764 C 1128.34 110.556 1134.15 109.703 1137.6 112.651 C 1139.1 116.392 1138.77 115.14 1138.17 119.257 C 1133.79 120.776 1129.58 121.475 1125.43 119.411 C 1123.32 115.955 1123.99 115.246 1123.84 110.764 z"/>
<path transform="translate(0,0)" fill="rgb(161,174,192)" d="M 519.261 106.419 C 524.83 106.159 531.16 106.359 536.788 106.407 C 537.569 107.103 538.335 107.815 539.086 108.544 C 550.182 119.369 537.303 125.117 526.758 125.042 L 525.491 125.075 C 521.509 127.701 524.706 132.27 521.105 138.673 L 519.781 138.361 C 518.036 136.025 518.287 110.734 519.261 106.419 z"/>
<path transform="translate(0,0)" fill="rgb(255,255,255)" d="M 523.063 110.768 C 527.543 110.551 533.192 109.716 536.676 112.568 C 538.346 116.449 537.95 115.252 537.289 119.639 C 536.854 119.758 536.415 119.862 535.973 119.952 C 532.806 120.582 527.522 121.46 524.823 119.645 C 522.441 115.912 523.204 115.791 523.063 110.768 z"/>
<path transform="translate(0,0)" fill="rgb(161,174,192)" d="M 897.636 105.579 C 900.305 106.111 901.012 106.397 903.473 107.569 L 903.505 108.442 L 899.652 111.609 C 900.19 114.259 900.737 112.514 903.427 115.369 L 903.017 117.089 L 899.711 118.45 C 897.839 121.672 899.168 130.861 898.62 136.682 C 897.233 137.987 890.148 138.685 886.726 139.609 C 883.156 134.891 880.071 111.256 885.983 107.37 C 889.501 109.778 887.361 111.628 891.817 112.872 C 895.629 110.543 895.151 109.899 897.636 105.579 z"/>
<path transform="translate(0,0)" fill="rgb(255,255,255)" d="M 888.322 117.27 C 890.689 117.309 891.17 117.347 893.162 118.611 C 895.466 122.891 894.348 132.08 894.055 137.178 C 885.509 133.154 887.902 125.642 888.322 117.27 z"/>
<path transform="translate(0,0)" fill="rgb(161,174,192)" d="M 913.169 113.177 C 930.44 112.784 932.484 129.718 920.39 139.271 C 919.073 139.321 917.754 139.308 916.438 139.232 C 913.425 139.031 910.917 137.605 908.967 135.343 C 906.775 132.789 905.686 129.47 905.94 126.114 C 906.446 119.459 908.357 117.303 913.169 113.177 z"/>
<path transform="translate(0,0)" fill="rgb(255,255,255)" d="M 913.434 117.703 L 918.506 118.115 C 924.886 123.556 922.781 128.109 919.699 135.149 C 918.201 134.917 916.081 134.336 914.551 133.963 C 909.092 129.176 911.197 123.622 913.434 117.703 z"/>
<path transform="translate(0,0)" fill="rgb(161,174,192)" d="M 659.856 106.313 C 666.018 109.739 666.305 117.213 662.746 120.494 C 660.658 122.419 665.037 134.542 666.435 138.168 C 663.265 140.062 664.417 139.98 661.337 139.29 C 656.331 133.231 660.111 123.493 657.934 117.875 C 654.726 117.152 655.526 120.372 653.022 120.631 C 649.234 121.022 647.749 117.735 643.601 118.706 C 641.547 121.062 641.49 124.785 641.101 127.965 C 643.988 138.691 649.382 131.051 654.633 133.39 C 653.811 136.422 653.4 136.903 650.978 138.932 C 645.198 140.763 640.512 137.285 638.092 132.203 C 636.21 128.191 636.01 123.593 637.536 119.432 C 641.181 109.221 650.101 117.096 656.386 114.14 C 658.901 112.089 659.148 109.463 659.856 106.313 z"/>
<path transform="translate(0,0)" fill="rgb(161,174,192)" d="M 865.408 113.277 C 868.775 113.213 873.22 112.894 875.302 116.013 C 878.828 121.296 880.362 132.317 879.812 138.497 C 875.54 139.701 873.681 135.458 872.468 136.131 C 867.97 138.626 867.64 139.654 861.685 138.929 C 859.481 135.769 859.193 134.966 858.33 131.209 C 860.736 121.451 872.615 128.302 873.654 120.639 C 868.882 115.326 864.766 120.465 860.164 119.036 C 861.404 115.79 862.419 115.734 865.408 113.277 z"/>
<path transform="translate(0,0)" fill="rgb(0,1,8)" d="M 211.83 111.312 C 214.344 111.38 215.192 111.299 217.078 112.92 C 219.992 118.367 218.603 143.544 218.531 151.436 C 215.894 152.84 214.736 152.588 212.463 151.189 C 209.332 145.438 210.245 117.629 211.83 111.312 z"/>
<path transform="translate(0,0)" fill="rgb(161,174,192)" d="M 956.832 112.611 C 959.914 112.953 965.878 117.102 966.932 116.129 C 978.318 105.618 985.205 126.462 977.407 137.941 L 976.238 137.544 C 975.322 133.931 975.522 128.144 975.506 124.251 C 975.464 120.257 974.547 118.776 971.063 117.18 C 962.839 121.14 968.944 132.795 964.705 138.433 L 962.959 138.266 C 960.637 133.187 962.923 126.104 961.649 121.149 C 960.453 116.495 954.216 120.267 956.832 112.611 z"/>
<path transform="translate(0,0)" fill="rgb(161,174,192)" d="M 1214.73 113.518 C 1218.8 113.64 1217.36 113.196 1220.79 115.231 C 1224.21 120.023 1225.71 134.835 1221.21 138.398 C 1215.66 133.77 1222.53 123.825 1214.57 116.313 C 1203.54 120.773 1213.29 133.935 1206.43 138.897 L 1204.98 138.405 C 1203.92 136.108 1204.1 134.631 1204.08 132.109 C 1203.87 106.972 1203.52 120.263 1214.73 113.518 z"/>
<path transform="translate(0,0)" fill="rgb(161,174,192)" d="M 610.656 113.217 C 619.178 115.77 610.874 130.394 619.696 135.773 C 626.38 134.187 622.626 118.072 626.322 113.97 L 627.993 114.11 L 629.218 115.943 C 629.326 120.513 630.385 134.823 628.209 137.967 C 625.276 138.945 621.797 137.952 618.625 138.075 C 606.562 138.539 610.065 120.879 610.656 113.217 z"/>
<path transform="translate(0,0)" fill="rgb(161,174,192)" d="M 1179.36 113.148 C 1183.63 113.082 1191.14 114.597 1191.5 119.603 C 1189.82 120.114 1182.03 118.847 1179.77 118.55 C 1179.48 118.752 1179.22 118.993 1178.99 119.267 C 1176.17 122.714 1177 131.144 1180.98 134.287 C 1185.75 134.284 1184.38 134.338 1188.75 131.901 L 1189.81 131.504 L 1190.99 132.51 C 1187.76 150.561 1158.41 130.774 1179.36 113.148 z"/>
<path transform="translate(0,0)" fill="rgb(161,174,192)" d="M 849.581 106.223 C 850.398 106.469 852.425 106.901 852.674 107.422 C 855.062 112.423 854.03 134.774 853.048 139.558 L 850.565 138.49 C 847.833 134.703 849.143 111.721 849.581 106.223 z"/>
<path transform="translate(0,0)" fill="rgb(161,174,192)" d="M 549.074 113.338 C 553.624 115.104 556.045 113.694 558.57 115.557 C 552.625 123.794 553.021 123.352 553.305 133.25 C 553.851 135.912 552.693 137.355 550.892 138.88 L 549.588 137.549 C 548.364 131.851 548.957 119.667 549.074 113.338 z"/>
<path transform="translate(0,0)" fill="rgb(161,174,192)" d="M 931.462 113.287 C 936.217 115.343 938.391 113.992 940.681 115.688 C 934.825 124.253 935.348 123.901 935.66 134.25 L 935.632 136.514 C 934.109 138.68 934.846 138.258 932.472 138.753 C 930.461 135.636 931.379 117.633 931.462 113.287 z"/>
<path transform="translate(0,0)" fill="rgb(161,174,192)" d="M 1149.77 113.401 C 1152.94 114.433 1154.87 114.51 1158.16 114.793 C 1158.57 115.405 1159.14 115.84 1158.76 116.329 C 1153.56 122.943 1153.82 124.183 1154.04 132.249 C 1153.86 136.694 1154.52 135.666 1151.95 138.813 L 1150.63 138.173 C 1149.17 133.791 1149.71 118.488 1149.77 113.401 z"/>
<path transform="translate(0,0)" fill="rgb(161,174,192)" d="M 948.581 113.26 C 952.239 114.487 951.318 113.67 953.399 116.419 C 953.811 121.776 953.029 134.378 951.942 139.506 C 945.796 136.884 948.343 119.976 948.581 113.26 z"/>
<path transform="translate(0,0)" fill="rgb(161,174,192)" d="M 1164.02 113.346 C 1165.08 113.746 1166.87 114.197 1167.16 115.21 C 1168.62 120.23 1168.14 135.025 1166.97 139.518 C 1164.6 138.583 1165.33 139.007 1163.63 136.931 C 1162.73 130.555 1162.73 119.638 1164.02 113.346 z"/>
<path transform="translate(0,0)" fill="rgb(161,174,192)" d="M 1194.59 113.219 C 1195.99 113.634 1196.7 114.266 1197.85 115.128 C 1199.29 119.589 1198.63 133.541 1198.51 138.733 C 1195.71 138.463 1194.53 138.694 1194.16 135.213 C 1193.4 128.056 1193.97 120.394 1194.59 113.219 z"/>
</svg>