<!-- RECRAFT VECTORIZE from logo/options-w/mock/W6-lockup-navbar-light.png -->
<svg version="1.1" xmlns="http://www.w3.org/2000/svg" style="display: block;" viewBox="0 0 4096 256" width="4096" height="256" preserveAspectRatio="none">
<path transform="translate(0,0)" fill="rgb(255,255,255)" d="M 0 0 L 4096 0 L 4096 256 L 0 256 L 0 0 z"/>
<path transform="translate(0,0)" fill="rgb(66,55,201)" d="M 3694.07 64.3974 C 3745.49 62.519 3807.95 64.1585 3860.38 64.1309 L 3931.12 64.0958 C 3941.24 64.0938 3959.22 63.5898 3968.89 64.4092 C 3972.02 68.3983 3971.85 65.8895 3974.94 68.527 C 3978.92 71.9145 3983.49 75.7672 3986.69 79.8934 C 3987.24 84.4034 3986.45 83.2499 3989.57 86.0479 C 3990.27 94.1469 3990.8 170.106 3989.14 173.084 C 3985.82 176.487 3986.77 179.391 3986.28 179.99 C 3982.75 184.281 3975.97 191.685 3970.51 192.905 L 3969.09 194.798 C 3965.04 195.94 3702.46 196.424 3693.9 194.807 C 3690.15 190.065 3691.08 194.861 3684.31 188.489 C 3677.05 181.66 3677.32 177.7 3673.84 173.099 C 3672.15 170.188 3672.62 94.1226 3673.39 86.0216 C 3676.3 83.5772 3675.53 84.1394 3676.3 79.9203 C 3679.5 75.7263 3684.02 71.8665 3688.06 68.481 C 3691.2 65.8571 3691.01 68.3913 3694.07 64.3974 z"/>
<path transform="translate(0,0)" fill="rgb(51,39,197)" d="M 3694.07 64.3974 C 3745.49 62.519 3807.95 64.1585 3860.38 64.1309 L 3931.12 64.0958 C 3941.24 64.0938 3959.22 63.5898 3968.89 64.4092 L 3968.14 68.0113 C 3966.31 69.3615 3953.19 68.8759 3950.12 68.8713 L 3910.29 68.8557 L 3743.87 68.77 C 3737.57 68.8085 3697.72 69.6764 3694.89 68.0272 L 3694.07 64.3974 z"/>
<path transform="translate(0,0)" fill="rgb(51,39,197)" d="M 3693.9 194.807 C 3694.23 193.904 3694.92 191.087 3695.93 191.131 C 3724.21 192.357 3963.94 188.64 3968.07 191.519 L 3969.09 194.798 C 3965.04 195.94 3702.46 196.424 3693.9 194.807 z"/>
<path transform="translate(0,0)" fill="rgb(51,39,197)" d="M 3673.39 86.0216 L 3676.75 87.4044 C 3678.95 95.7416 3677.18 158.467 3677.17 171.307 C 3675.56 172.899 3676.07 172.465 3673.84 173.099 C 3672.15 170.188 3672.62 94.1226 3673.39 86.0216 z"/>
<path transform="translate(0,0)" fill="rgb(51,39,197)" d="M 3989.14 173.084 C 3986.72 172.622 3987.41 173.072 3985.8 171.298 C 3985.8 144.209 3985.75 117.109 3985.84 90.0194 C 3985.85 86.7878 3986.97 86.9939 3989.57 86.0479 C 3990.27 94.1469 3990.8 170.106 3989.14 173.084 z"/>
<path transform="translate(0,0)" fill="rgb(219,219,240)" d="M 3932.99 109.509 L 3935.63 110.626 C 3937.96 113.81 3938.04 138.735 3935.1 141.634 C 3930.38 141.213 3928.45 142.895 3924.77 142.652 C 3916.7 142.121 3918.38 133.404 3915.37 130.492 C 3910.64 130.622 3902.29 130.845 3898.64 134.009 L 3898.67 135.901 L 3900.88 137.792 C 3905.01 138.48 3906.32 137.088 3910.88 135.933 L 3913.39 137.74 C 3909.61 141.672 3904.9 144.409 3899.49 141.546 C 3896.3 139.822 3893.91 136.903 3892.87 133.427 C 3890.58 125.934 3895.3 118.406 3902.53 116.204 C 3912.06 117.369 3910.08 124.733 3915.98 127.061 C 3917.94 123.041 3918.7 121.458 3921.5 117.998 C 3924.5 116.248 3927.07 117.111 3930.47 117.749 C 3932.41 115.994 3932.26 112.868 3932.99 109.509 z"/>
<path transform="translate(0,0)" fill="rgb(51,39,197)" d="M 3926.79 120.358 C 3934.75 123.644 3933.37 134.237 3927.68 139.479 C 3919.13 135.8 3919.97 125.75 3926.79 120.358 z"/>
<path transform="translate(0,0)" fill="rgb(219,219,240)" d="M 3751.57 137.557 C 3743.6 142.861 3735.41 146.263 3727.53 138.217 C 3724.22 134.773 3722.39 130.175 3722.42 125.401 C 3722.6 111.212 3734.22 109.27 3745.48 109.474 C 3747.82 111.605 3749.29 112.806 3751.03 115.506 L 3750.35 117.1 L 3746.56 118.459 L 3749.43 119.709 C 3746.06 119.876 3743.48 120.09 3740.14 120.54 L 3739.23 121.791 L 3748.89 122.327 L 3741.74 123.054 L 3751.3 124.671 L 3756.36 125.067 L 3756.56 134.39 L 3754.47 133.902 C 3752.81 135.196 3752.57 135.706 3751.57 137.557 z"/>
<path transform="translate(0,0)" fill="rgb(51,39,197)" d="M 3741.74 123.054 C 3740.32 123.701 3739.57 124.559 3738.46 125.637 C 3739.45 128.791 3742.42 127.191 3747.35 130.163 L 3747.83 132.262 C 3735.78 153.056 3714.32 118.372 3738.05 114.091 C 3741.08 113.544 3744.57 116.291 3746.56 118.459 L 3749.43 119.709 C 3746.06 119.876 3743.48 120.09 3740.14 120.54 L 3739.23 121.791 L 3748.89 122.327 L 3741.74 123.054 z"/>
<path transform="translate(0,0)" fill="rgb(51,39,197)" d="M 3751.3 124.671 L 3756.36 125.067 L 3756.56 134.39 L 3754.47 133.902 C 3752.81 135.196 3752.57 135.706 3751.57 137.557 C 3751.91 132.165 3752.01 130 3751.3 124.671 z"/>
<path transform="translate(0,0)" fill="rgb(219,219,240)" d="M 3756.36 125.067 C 3764.14 109.582 3774.39 116.841 3778.63 130.093 C 3778.69 130.277 3778.75 130.462 3778.81 130.647 C 3780.97 133.738 3780.42 138.671 3778.54 141.816 L 3777.74 141.856 L 3777.09 135.478 C 3775.79 138.577 3774.45 140.752 3771.13 142.114 C 3768.59 143.146 3765.74 143.104 3763.23 141.998 C 3759.79 140.477 3757.85 137.779 3756.56 134.39 L 3756.36 125.067 z"/>
<path transform="translate(0,0)" fill="rgb(51,39,197)" d="M 3778.81 130.647 C 3780.97 133.738 3780.42 138.671 3778.54 141.816 L 3777.74 141.856 L 3777.09 135.478 C 3770.83 135.32 3766.8 141.361 3762.01 134.882 L 3762.53 133.433 C 3765.64 131.602 3774.13 131.982 3778.81 130.647 z"/>
<path transform="translate(0,0)" fill="rgb(255,255,255)" d="M 3873.18 121.927 C 3868.53 129.361 3874.18 136.677 3869.17 142.41 L 3867.96 141.804 C 3865.6 138.041 3866.43 124.05 3867.35 119.56 C 3870.92 115.211 3878.01 124.005 3881.42 111.861 L 3882.98 111.081 C 3885.13 112.12 3888.07 117.928 3888.27 120.262 L 3885.64 122.52 L 3890.12 122.444 C 3893.49 126.064 3892.32 133.532 3890.7 137.704 L 3887.8 139.45 C 3888.71 140.109 3888.46 140.049 3888.84 141.376 C 3885.84 142.635 3887 142.415 3883.54 141.846 C 3877.23 135.517 3883.01 127.028 3879.67 120.562 L 3873.18 121.927 z"/>
<path transform="translate(0,0)" fill="rgb(51,39,197)" d="M 3885.64 122.52 L 3890.12 122.444 C 3893.49 126.064 3892.32 133.532 3890.7 137.704 L 3887.8 139.45 L 3885.67 136.91 C 3884.75 133.346 3884.54 125.992 3885.64 122.52 z"/>
<path transform="translate(0,0)" fill="rgb(219,219,240)" d="M 3848.25 116.992 C 3864.27 116.041 3860.26 124.837 3861.63 136.173 C 3861.54 135.451 3864.14 140.128 3864.35 140.625 L 3863.48 142.137 C 3859.23 143.614 3856.96 139.161 3855.93 139.672 C 3851.45 141.902 3850.81 143.339 3844.87 142.34 C 3833.2 123.615 3856.05 134.508 3857.37 122.486 C 3852.63 120.836 3845.86 124.94 3842.82 122.812 C 3843.63 120.602 3846.4 118.591 3848.25 116.992 z"/>
<path transform="translate(0,0)" fill="rgb(255,255,255)" d="M 3831.06 110.515 L 3832.27 111.068 C 3838.82 120.385 3834.51 117.896 3833.88 129.382 C 3833.51 136.01 3835.06 137.298 3838.9 141.904 C 3825.93 144.326 3829.91 131.434 3829.59 122.384 L 3827.4 120.557 C 3826.72 118.104 3829.67 115.985 3831.06 110.515 z"/>
<path transform="translate(0,0)" fill="rgb(255,255,255)" d="M 3782.85 110.244 C 3790.09 112.615 3787.01 124.17 3786.15 129.365 C 3785.14 135.516 3787.48 137.402 3791.11 141.95 L 3786.4 142.329 C 3777.48 138.014 3780.79 118.16 3782.85 110.244 z"/>
<path transform="translate(0,0)" fill="rgb(219,219,240)" d="M 3808.33 126.814 C 3815.5 126.05 3824.13 127.417 3826.29 135.375 C 3824.4 143.676 3818.2 142.68 3811.26 142.376 C 3809.13 140.066 3808.66 139.509 3807.63 136.492 L 3808.79 135.737 C 3813.5 137.115 3817.36 139.188 3821.6 136.482 C 3821.18 131.962 3816.64 132.952 3814 131.503 C 3812.98 130.949 3809.38 127.751 3808.33 126.814 z"/>
<path transform="translate(0,0)" fill="rgb(51,39,197)" d="M 3873.18 121.927 L 3879.67 120.562 C 3879.15 125.213 3879.04 138.343 3878.28 140.684 L 3876.17 138.957 L 3876.98 139.498 L 3876.2 139.019 L 3874.28 141.129 C 3871.66 137.424 3873.81 126.927 3873.18 121.927 z"/>
<path transform="translate(0,0)" fill="rgb(51,39,197)" d="M 3729.94 144.474 C 3734.02 144.188 3745.21 142.903 3747.16 146.469 C 3742.61 147.102 3735.02 147.858 3730.75 146.356 L 3729.94 144.474 z"/>
<path transform="translate(0,0)" fill="rgb(51,39,197)" d="M 3809.64 144.428 C 3812.96 144.26 3820.81 143.514 3823.18 145.168 L 3823.28 146.833 C 3819.18 147.05 3813.48 147.737 3809.79 146.311 L 3809.64 144.428 z"/>
<path transform="translate(0,0)" fill="rgb(51,39,197)" d="M 3897.83 113.428 C 3901.39 112.716 3904.76 112.315 3908.23 113.347 L 3908.89 114.598 C 3905.59 115.263 3901.14 115.542 3897.9 114.52 L 3897.83 113.428 z"/>
<path transform="translate(0,0)" fill="rgb(51,39,197)" d="M 3881.16 144.45 C 3885.55 144.04 3888.24 143.222 3891.21 146.628 C 3887.83 147.084 3884.86 147.816 3881.76 146.387 L 3881.16 144.45 z"/>
<path transform="translate(0,0)" fill="rgb(51,39,197)" d="M 3782.07 144.457 C 3786.32 144.026 3789.47 143.106 3792.22 146.633 C 3788.83 147.087 3785.86 147.817 3782.75 146.378 L 3782.07 144.457 z"/>
<path transform="translate(0,0)" fill="rgb(51,39,197)" d="M 3810.81 113.438 C 3814.25 112.878 3817.62 111.992 3820.87 113.221 L 3821.4 115.145 C 3817.28 115.271 3814.94 115.47 3810.92 114.516 L 3810.81 113.438 z"/>
<path transform="translate(0,0)" fill="rgb(51,39,197)" d="M 3761.65 113.492 C 3765.91 112.561 3768.89 111.593 3772.29 114.672 C 3769.24 115.075 3763.54 116.276 3761.65 113.492 z"/>
<path transform="translate(0,0)" fill="rgb(39,35,122)" d="M 168.839 99.0697 C 175.839 100.162 179.872 107.416 180.117 113.807 C 180.522 124.39 184.48 154.476 170.033 156.55 C 166.691 154.41 168.635 150.553 166.329 148.649 C 163.705 146.482 148.698 147.671 144.8 147.783 C 142.657 144.335 143.404 136.678 143.521 132.428 C 144.797 132.455 146.072 132.476 147.348 132.489 C 151.85 132.534 159.641 133.315 159.641 126.971 C 159.32 126.606 158.984 126.254 158.636 125.915 C 155.062 122.477 148.656 123.465 143.521 123.572 L 143.453 108.354 C 153.427 107.877 167.208 112.487 168.126 101.537 C 168.177 100.932 168.644 99.7251 168.839 99.0697 z"/>
<path transform="translate(0,0)" fill="rgb(161,175,192)" d="M 1488.76 106.243 L 1504.5 106.234 C 1522.92 117.47 1507 119.079 1527.71 113.062 C 1537.17 110.315 1543.98 127.481 1532.94 138.403 L 1532.34 138.536 C 1518.84 141.468 1522.56 133.861 1516.08 130.63 C 1512.77 131.682 1509.04 136.069 1504.55 139.177 L 1487.9 139.016 C 1487.8 132.408 1487.07 111.521 1488.76 106.243 z"/>
<path transform="translate(0,0)" fill="rgb(255,255,255)" d="M 1492.3 110.912 C 1508.51 109.805 1515.06 118.744 1506.01 132.929 C 1503.06 134.409 1498.74 135.205 1495.46 134.291 C 1490.92 129.594 1492.98 119.662 1492.3 110.912 z"/>
<path transform="translate(0,0)" fill="rgb(255,255,255)" d="M 1524.45 117.703 C 1526.76 117.722 1527.65 117.87 1529.92 118.338 C 1536.02 122.772 1533.11 129.534 1530.76 135.246 L 1525.97 134.193 C 1519.99 130.011 1522.34 123.381 1524.45 117.703 z"/>
<path transform="translate(0,0)" fill="rgb(1,1,9)" d="M 306.241 117.899 C 316.66 114.75 327.651 120.684 330.734 131.123 C 333.817 141.563 327.813 152.516 317.354 155.532 C 306.989 158.522 296.155 152.583 293.1 142.237 C 290.045 131.892 295.915 121.02 306.241 117.899 z"/>
<path transform="translate(0,0)" fill="rgb(255,255,255)" d="M 310.316 125.916 C 316.144 125.076 321.575 129.046 322.544 134.854 C 323.513 140.662 319.664 146.18 313.879 147.277 C 310.772 147.866 307.563 147.068 305.093 145.092 C 302.624 143.116 301.142 140.16 301.036 136.999 C 300.85 131.479 304.849 126.703 310.316 125.916 z"/>
<path transform="translate(0,0)" fill="rgb(1,1,9)" d="M 337.992 116.613 C 339.58 116.56 345.615 116.591 346.102 117.281 C 349.815 122.544 350.355 136.534 355.715 140.293 C 358.584 138.178 359.31 123.739 363.334 117.526 C 366.611 115.785 365.35 115.951 368.795 116.362 C 376.345 121.262 375.41 134.491 380.326 140.031 C 384.288 136.677 383.531 119.57 390.95 116.329 C 394.306 116.68 393.412 116.149 395.642 118.089 C 396.459 121.228 394.056 126.663 392.901 129.962 C 391.047 137.31 387.714 154.838 380.475 157.519 C 373.657 155.665 369.245 133.75 367.244 127.002 C 364.583 135.519 363.601 156.017 354.492 157.041 C 347.861 154.304 338.359 123.19 337.992 116.613 z"/>
<path transform="translate(0,0)" fill="rgb(1,1,9)" d="M 236.304 116.368 C 240.019 116.29 241.321 117.8 243.524 117.816 C 248.22 118.051 258.009 116.565 262.335 118.689 C 270.34 122.621 272.226 132.346 268.503 139.64 C 266.487 143.541 263.015 146.49 258.839 147.85 C 253.134 149.68 250.074 147.855 244.969 145.258 C 241.458 153.183 249.229 169.202 240.428 175.16 C 233.579 173.884 235.839 123.96 236.304 116.368 z"/>
<path transform="translate(0,0)" fill="rgb(255,255,255)" d="M 252.243 125.669 C 256.051 124.162 260.359 126.036 261.853 129.849 C 263.346 133.662 261.458 137.964 257.64 139.444 C 253.84 140.918 249.563 139.041 248.077 135.246 C 246.59 131.451 248.453 127.168 252.243 125.669 z"/>
<path transform="translate(0,0)" fill="rgb(1,1,9)" d="M 194.21 99.0416 C 203.814 99.702 213.134 98.6236 222.588 99.6277 C 225.082 99.8925 225.318 101 226.528 102.882 C 224.924 110.933 209.211 108.229 201.88 108.292 L 201.894 123.484 C 206.68 123.858 212.239 123.135 216.875 124.26 C 218.59 126.146 219.187 126.688 219.639 129.174 C 216.521 131.971 209.443 131.034 203.555 133.638 C 201.041 136.81 201.757 136.82 201.375 141.387 L 202.131 145.489 C 208.65 151.602 216.145 145.407 224.338 148.368 C 226.906 150.9 226.416 149.744 226.637 153.171 C 223.323 157.907 222.912 156.774 217.443 156.569 C 209.56 156.273 201.509 156.706 193.614 156.989 C 193.853 145.219 192.789 107.624 194.21 99.0416 z"/>
<path transform="translate(0,0)" fill="rgb(161,175,192)" d="M 669.466 106.212 C 671.754 106.707 672.149 106.884 673.735 108.6 C 674.223 116.202 674.313 125.499 673.923 132.828 C 673.461 141.519 660.179 140.951 656.188 135.054 C 654.92 133.181 654.274 131.314 653.197 129.736 C 653.033 129.493 652.865 129.253 652.694 129.015 C 646.176 132.079 650.182 142.483 634.904 138.098 C 625.637 129.422 629.606 108.25 644.529 114.019 C 649.72 116.025 649.033 122.397 653.563 124.037 C 654.453 120.754 654.798 119.409 656.364 116.333 C 660.446 112.973 661.75 113.199 667.161 113.686 C 669.591 111.423 668.966 110.262 669.466 106.212 z"/>
<path transform="translate(0,0)" fill="rgb(255,255,255)" d="M 636.736 117.882 C 638.231 117.835 640.447 118.018 642.002 118.103 C 648.314 123.027 646.244 127.913 643.702 134.679 C 642.055 134.748 640.116 134.424 638.452 134.202 C 632.685 129.213 634.418 124.494 636.736 117.882 z"/>
<path transform="translate(0,0)" fill="rgb(255,255,255)" d="M 660.395 117.531 C 662.786 117.612 663.553 117.775 665.871 118.381 C 671.239 123.133 669.157 128.99 666.826 134.803 C 662.296 134.382 663.347 135.076 659.937 132.46 C 657.276 127.727 659.029 122.591 660.395 117.531 z"/>
<path transform="translate(0,0)" fill="rgb(219,219,240)" d="M 1003.08 137.916 C 1002.26 138.3 1000.36 138.478 999.381 138.613 C 997.012 135.339 999.711 135.07 998.083 131.155 C 993.844 131.252 992.504 138.101 987.326 139.176 C 968.17 143.152 970.907 106.45 989.788 113.708 C 993.767 115.238 993.146 119.68 996.626 121.853 L 997.738 121.421 C 997.998 118.32 998.028 116.75 999.219 113.798 C 1002.24 113.123 1001.51 113.386 1004.78 114.622 C 1009.32 115.227 1007.15 112.215 1010.45 114.776 C 1009.56 119.009 1005.46 117.41 1004.17 122.228 C 1003.03 126.472 1004.89 134.31 1003.08 137.916 z"/>
<path transform="translate(0,0)" fill="rgb(161,175,192)" d="M 1004.78 114.622 C 1009.32 115.227 1007.15 112.215 1010.45 114.776 C 1009.56 119.009 1005.46 117.41 1004.17 122.228 C 1003.03 126.472 1004.89 134.31 1003.08 137.916 C 1001.2 137.614 1001.8 137.979 1000.67 136.457 C 1000.25 131.813 998.921 118.501 1001.62 114.748 L 1004.78 114.622 z"/>
<path transform="translate(0,0)" fill="rgb(255,255,255)" d="M 981.77 118.03 L 986.537 118.197 C 992.786 122.944 990.527 127.923 988.482 134.629 C 986.312 134.697 985.139 134.365 983.025 133.885 C 977.811 128.856 979.28 124.293 981.77 118.03 z"/>
<path transform="translate(0,0)" fill="rgb(161,175,192)" d="M 1305.95 112.753 C 1309.93 113.729 1314.02 114.511 1318.05 115.47 C 1323.75 127.63 1316.26 166.242 1299.47 143.967 C 1305.67 140.545 1302.28 145.703 1311.26 144.706 C 1313.32 142.879 1313.63 142.472 1314.29 139.806 C 1311.86 137.464 1309.99 138.793 1306.72 138.169 C 1292.93 135.534 1297.68 118.985 1305.95 112.753 z"/>
<path transform="translate(0,0)" fill="rgb(255,255,255)" d="M 1305.57 117.45 C 1316.85 118.078 1315.43 127.358 1311.35 134.758 C 1306.76 134.296 1307.84 135.05 1304.71 132.162 C 1302.48 127.121 1304.05 122.594 1305.57 117.45 z"/>
<path transform="translate(0,0)" fill="rgb(161,175,192)" d="M 1551.43 113.151 C 1556.29 113.07 1561.96 114.338 1563.89 119.471 C 1557.61 119.31 1554.61 116.899 1549.88 121.838 C 1548.79 125.303 1549.22 126.258 1550 129.967 C 1552 139.418 1565.46 128.439 1570.81 133.161 C 1572.64 134.774 1576.3 134.089 1578.58 133.389 C 1577.35 129.181 1567.88 127.555 1565.93 119.723 C 1567.24 112.16 1572.4 113.164 1578.61 113.488 C 1580.84 115.439 1581.73 116.124 1583.17 118.816 L 1582.66 119.902 C 1578.21 118.887 1576.16 118.467 1571.62 118.247 L 1570.66 119.297 C 1572.51 122.307 1580.2 126.043 1584.06 129.698 C 1584.39 132.818 1584.77 134.414 1583.15 137.175 C 1577.07 141.921 1569.98 136.502 1564.57 135.187 C 1561.04 135.569 1558.84 139.593 1554.98 139.255 C 1540.14 137.957 1542.26 120.837 1551.43 113.151 z"/>
<path transform="translate(0,0)" fill="rgb(161,175,192)" d="M 888.109 106.369 C 893.445 106.163 899.879 106.319 905.299 106.321 C 906.416 107.282 907.5 108.282 908.548 109.318 C 919.005 119.792 904.407 125.195 894.805 125.041 C 894.348 125.109 893.82 125.28 893.366 125.407 C 890.85 128.621 893.36 136.714 887.982 138.788 C 886.936 136.492 886.845 109.875 888.109 106.369 z"/>
<path transform="translate(0,0)" fill="rgb(255,255,255)" d="M 891.677 110.92 C 895.622 110.638 901.242 109.942 904.533 111.885 C 906.985 115.379 906.355 114.249 906.556 118.727 C 906.099 118.941 905.629 119.129 905.15 119.288 C 900.482 120.837 897.675 121.548 893.422 119.419 C 891.211 115.974 891.882 115.464 891.677 110.92 z"/>
<path transform="translate(0,0)" fill="rgb(161,175,192)" d="M 1188.25 106.411 C 1193.75 106.113 1200.24 106.337 1205.82 106.389 C 1206.64 107.123 1207.45 107.876 1208.24 108.646 C 1219.28 119.471 1206.08 125.089 1195.76 125.08 C 1189.59 125.472 1195.39 132.537 1188.86 138.719 C 1187.2 135.875 1187.27 110.828 1188.25 106.411 z"/>
<path transform="translate(0,0)" fill="rgb(255,255,255)" d="M 1192.1 110.814 C 1196.58 110.583 1202.15 109.756 1205.68 112.566 C 1207.34 116.436 1206.96 115.207 1206.27 119.578 C 1205.73 119.736 1205.18 119.868 1204.62 119.975 C 1201.45 120.571 1196.5 121.444 1193.85 119.61 C 1191.51 115.92 1192.25 115.758 1192.1 110.814 z"/>
<path transform="translate(0,0)" fill="rgb(161,175,192)" d="M 587.944 106.366 C 593.344 106.181 599.682 106.333 605.153 106.34 C 606.253 107.308 607.318 108.315 608.347 109.359 C 611.406 112.507 612.897 117.242 609.33 120.758 C 604.473 125.545 599.422 125.093 593.092 124.934 C 589.107 128.388 594.474 135.27 589.452 138.659 L 587.708 137.926 C 586.247 135.07 586.305 110.007 587.944 106.366 z"/>
<path transform="translate(0,0)" fill="rgb(255,255,255)" d="M 591.351 110.841 C 595.888 110.585 601.403 109.744 604.954 112.5 C 606.62 116.489 606.21 115.301 605.44 119.828 C 605.087 119.902 604.732 119.968 604.375 120.026 C 601.118 120.565 595.566 121.428 592.909 119.516 C 590.774 115.976 591.457 115.423 591.351 110.841 z"/>
<path transform="translate(0,0)" fill="rgb(161,175,192)" d="M 965.849 105.868 C 968.534 106.214 969.211 106.342 971.699 107.398 C 971.407 109.842 968.819 109.608 967.785 112.435 C 969.362 113.428 970.263 114.03 971.69 115.228 C 970.845 118.906 967.643 117.336 967.259 119.445 C 966.28 124.817 967.695 130.321 966.762 136.347 C 964.774 139.163 961.534 137.756 955.315 139.718 C 950.969 134.969 949.064 112.428 953.165 107.626 C 957.04 107.894 955.302 110.805 959.925 113.379 C 960.192 113.296 960.359 113.232 960.614 113.112 L 960.741 113.052 C 962.298 112.321 964.827 107.598 965.849 105.868 z"/>
<path transform="translate(0,0)" fill="rgb(255,255,255)" d="M 956.542 117.283 C 960.236 117.697 959.421 117.078 961.798 119.257 C 963.637 124.935 962.548 130.774 961.799 136.714 C 953.946 133.375 956.213 124.63 956.542 117.283 z"/>
<path transform="translate(0,0)" fill="rgb(39,35,122)" d="M 131.758 99.6235 L 133.795 101.593 C 134.747 107.584 135.69 151.907 132.396 155.11 L 130.024 154.518 C 121.938 144.753 124.975 123.164 125.598 110.833 C 125.847 105.905 128.37 103.06 131.758 99.6235 z"/>
<path transform="translate(0,0)" fill="rgb(161,175,192)" d="M 727.992 106.343 C 728.071 106.377 728.15 106.413 728.227 106.45 C 732.771 108.651 735.439 116.932 731.139 119.992 C 728.749 121.692 733.324 134.992 734.542 138.406 C 733.082 139.277 731.724 138.906 730.05 138.68 C 723.993 133.019 728.749 126.404 725.872 118.101 C 722.788 117.219 725.187 119.713 721.026 120.978 C 719.113 120.244 717.862 119.228 716.208 118.029 C 712.741 117.918 713.618 117.462 711.303 119.182 C 709.622 122.313 709.822 126.357 709.725 129.964 C 714.75 138.329 716.792 131.164 723.13 133.148 C 721.984 136.39 721.464 136.921 718.897 139.083 C 712.994 140.619 709.548 138.14 706.875 132.859 C 704.743 128.549 704.414 123.567 705.962 119.015 C 709.461 108.447 717.854 117.588 724.849 114.037 C 727.24 111.804 727.38 109.525 727.992 106.343 z"/>
<path transform="translate(0,0)" fill="rgb(161,175,192)" d="M 933.577 113.303 C 936.529 113.212 939.802 112.878 942.157 114.76 L 942.319 114.89 C 946.761 118.434 948.703 132.832 948.096 138.368 C 944.01 139.939 941.992 135.627 940.934 136.103 C 934.387 139.047 936.578 139.228 929.384 138.494 C 929.021 137.901 928.682 137.294 928.368 136.674 C 927.042 134.024 926.338 131.34 927.3 128.473 C 932.645 123.399 940.089 127.045 942.335 119.681 C 939.287 117.815 932.092 121.006 928.277 119.185 C 928.818 116.509 931.385 114.992 933.577 113.303 z"/>
<path transform="translate(0,0)" fill="rgb(1,1,9)" d="M 277.127 116.271 C 280.649 116.582 280.302 116.083 283.088 117.936 C 286.22 124.145 284.428 146.652 284.715 155.717 C 282.186 156.737 280.685 156.864 278.368 155.72 C 274.968 150.585 276.438 122.926 277.127 116.271 z"/>
<path transform="translate(0,0)" fill="rgb(161,175,192)" d="M 1025.02 112.706 C 1028.9 112.958 1030.82 115.678 1034.4 116.134 C 1035.76 116.307 1038.4 113.536 1039.61 113.445 C 1051.56 112.543 1049.83 130.843 1045.91 137.744 L 1044.76 137.904 C 1043.43 133.194 1043.76 127.209 1043.81 122.238 C 1043.28 119.669 1041.98 118.449 1040.1 117.192 C 1032.87 119.902 1035.68 134.648 1031.71 138.725 C 1029.18 134.537 1031.14 125.136 1029.78 120.807 C 1028.9 117.991 1026.27 119.342 1024.03 115.621 L 1025.02 112.706 z"/>
<path transform="translate(0,0)" fill="rgb(161,175,192)" d="M 1282.75 113.534 C 1284.86 113.63 1287.04 113.382 1288.63 114.885 C 1293.24 119.265 1293.1 133.75 1289.73 138.262 L 1288.38 137.723 C 1285.71 128.996 1289.67 122.178 1282.46 116.239 C 1281.73 116.67 1281.06 117.179 1280.44 117.757 C 1274.14 123.657 1279.75 134.331 1274.99 138.73 L 1273.48 138.408 C 1272 135.485 1272.51 132.817 1272.4 129.673 C 1271.66 108.125 1273.69 119.14 1282.75 113.534 z"/>
<path transform="translate(0,0)" fill="rgb(161,175,192)" d="M 678.919 113.142 C 687.01 114.759 680.855 126.383 684.053 132.964 C 686.816 135.05 685.726 134.49 689.53 134.856 C 694.012 130.776 691.607 119.079 694.337 114.42 L 696.284 114.182 L 697.561 116.219 C 697.355 122.468 699.257 134.259 695.841 138.065 C 692.091 137.496 691.522 137.448 687.927 138.422 C 675.18 141.875 678.591 119.29 678.919 113.142 z"/>
<path transform="translate(0,0)" fill="rgb(161,175,192)" d="M 1247.52 113.171 C 1252.83 112.998 1257.87 114.276 1259.92 119.621 L 1259.94 118.658 L 1259.36 120.234 C 1255.69 121.092 1255.56 119.816 1251.05 117.837 C 1244.1 118.972 1243.82 129.871 1249.51 134.218 C 1253.55 134.373 1252.49 134.31 1256.3 132.424 L 1257.17 131.442 L 1258.84 131.995 C 1259.06 135.262 1259.09 134.221 1257.2 137.412 C 1244.57 145.726 1232.21 126.206 1247.52 113.171 z"/>
<path transform="translate(0,0)" fill="rgb(161,175,192)" d="M 917.897 106.227 L 920.873 107.304 C 922.982 110.821 922.808 135.835 920.646 139.713 C 915.181 136.57 917.421 112.628 917.897 106.227 z"/>
<path transform="translate(0,0)" fill="rgb(161,175,192)" d="M 617.428 113.27 C 622.542 115.467 623.523 113.838 626.739 115.647 C 620.987 123.401 621.33 123.552 621.61 133.25 C 621.955 135.542 621.6 136.159 620.661 138.294 L 619.057 138.9 C 615.841 135.333 617.302 118.922 617.428 113.27 z"/>
<path transform="translate(0,0)" fill="rgb(161,175,192)" d="M 1218.07 113.341 C 1221.22 114.52 1222.85 114.51 1226.15 114.713 L 1227.18 115.714 C 1227.37 115.894 1227.13 116.056 1226.87 116.444 C 1225.6 118.35 1224.37 120.285 1223.18 122.247 C 1221.79 124.596 1222.24 130.317 1222.32 133.25 C 1222.91 135.892 1221.7 137.37 1219.9 138.863 L 1218.58 137.559 C 1217.4 131.822 1217.96 119.693 1218.07 113.341 z"/>
<path transform="translate(0,0)" fill="rgb(161,175,192)" d="M 1016.85 113.261 L 1020.27 114.547 C 1022.88 118.527 1020.96 131.538 1020.98 138.508 C 1019.79 138.789 1018.89 138.35 1017.74 137.946 C 1015.46 133.832 1016.64 118.42 1016.85 113.261 z"/>
<path transform="translate(0,0)" fill="rgb(161,175,192)" d="M 1262.75 113.269 L 1265.32 114.228 C 1268.43 117.391 1267.65 135.752 1264.48 139.772 C 1260.81 135.06 1262.38 119.921 1262.75 113.269 z"/>
<path transform="translate(0,0)" fill="rgb(161,175,192)" d="M 1232.61 113.248 C 1234.98 114.486 1234.3 113.846 1235.72 116.08 C 1236.26 121.604 1236.82 134.451 1234.95 139.412 C 1229.33 136.535 1231.05 118.528 1232.61 113.248 z"/>
</svg>