<!-- RECRAFT VECTORIZE from logo/options-w/mock/W6-lockup-navbar-dark.png -->
<svg version="1.1" xmlns="http://www.w3.org/2000/svg" style="display: block;" viewBox="0 0 4096 256" width="4096" height="256" preserveAspectRatio="none">
<path transform="translate(0,0)" fill="rgb(11,16,32)" d="M 0 0 L 4096 0 L 4096 256 L 0 256 L 0 0 z"/>
<path transform="translate(0,0)" fill="rgb(66,55,201)" d="M 3694.08 64.331 C 3772.55 62.5606 3851.82 65.1366 3930.37 64.1112 C 3942.73 63.9498 3956.58 63.7016 3968.9 64.307 C 3971.19 67.487 3979.97 71.4 3984.48 77.0807 C 3989.56 83.4808 3984.86 82.1857 3989.55 86.0709 C 3990.32 94.1066 3990.78 170.215 3989.13 173.07 C 3985.65 176.68 3987.6 178.827 3985.18 181.251 C 3981.4 185.04 3975.81 191.805 3970.49 192.871 L 3969.05 194.804 C 3963.89 195.886 3935.97 195.463 3928.91 195.459 L 3839.54 195.436 L 3739.45 195.466 C 3731.37 195.464 3700.12 195.928 3693.9 194.877 C 3691.33 191.273 3691.23 193.201 3687.16 190.281 C 3682.84 187.461 3672.33 175.449 3672.76 170.801 C 3674.28 154.068 3668.7 89.4206 3677.24 78.8625 L 3685.75 70.15 C 3690.05 65.1107 3689.92 70.2107 3694.08 64.331 z"/>
<path transform="translate(0,0)" fill="rgb(67,54,211)" d="M 3694.08 64.331 C 3772.55 62.5606 3851.82 65.1366 3930.37 64.1112 C 3942.73 63.9498 3956.58 63.7016 3968.9 64.307 L 3968.21 67.4895 C 3965.13 69.9395 3918.04 68.7642 3910.05 68.7665 L 3740.51 68.8035 C 3725.85 68.8137 3709.62 69.3944 3695.12 68.2056 C 3694.81 68.1801 3694.18 64.8127 3694.08 64.331 z"/>
<path transform="translate(0,0)" fill="rgb(67,54,211)" d="M 3693.9 194.877 L 3695.42 191.397 C 3701.61 190.088 3743.99 190.927 3753.06 190.974 L 3870.48 190.911 L 3936.06 190.933 C 3944.67 190.936 3959.16 190.167 3966.85 191.223 C 3968.81 192.764 3968.26 192.164 3969.05 194.804 C 3963.89 195.886 3935.97 195.463 3928.91 195.459 L 3839.54 195.436 L 3739.45 195.466 C 3731.37 195.464 3700.12 195.928 3693.9 194.877 z"/>
<path transform="translate(0,0)" fill="rgb(67,54,211)" d="M 3989.13 173.07 L 3986.88 172.485 C 3985.14 169.422 3984.99 91.9512 3986.77 87.2395 L 3989.55 86.0709 C 3990.32 94.1066 3990.78 170.215 3989.13 173.07 z"/>
<path transform="translate(0,0)" fill="rgb(67,54,211)" d="M 3685.75 70.15 L 3688.23 71.4592 C 3687.59 74.8534 3682.07 81.6447 3679.17 83.9057 C 3677.35 82.1451 3677.74 81.6473 3677.24 78.8625 L 3685.75 70.15 z"/>
<path transform="translate(0,0)" fill="rgb(226,224,247)" d="M 3932.99 109.507 C 3935.99 110.782 3935.19 110.045 3937 112.474 C 3937.1 118.95 3938.62 137.134 3934.84 141.418 C 3932.29 141.67 3927.08 142.875 3924.71 142.732 C 3916.48 142.235 3919.2 133.773 3915.34 130.565 C 3910.62 130.665 3902.3 130.837 3898.65 134.01 L 3898.67 135.902 L 3900.88 137.791 C 3905.01 138.479 3906.32 137.087 3910.88 135.932 L 3913.39 137.739 C 3909.61 141.672 3904.9 144.411 3899.49 141.547 C 3896.29 139.823 3893.91 136.904 3892.87 133.428 C 3890.57 125.931 3895.29 118.407 3902.53 116.203 C 3912.07 117.367 3910.08 124.733 3915.98 127.061 C 3917.94 123.063 3918.73 121.452 3921.5 117.994 C 3924.48 116.194 3927.06 117.091 3930.47 117.759 C 3932.41 115.992 3932.25 112.869 3932.99 109.507 z"/>
<path transform="translate(0,0)" fill="rgb(67,54,211)" d="M 3926.79 120.358 C 3934.75 123.644 3933.37 134.237 3927.68 139.479 C 3919.13 135.8 3919.97 125.75 3926.79 120.358 z"/>
<path transform="translate(0,0)" fill="rgb(226,224,247)" d="M 3751.57 137.557 C 3743.6 142.863 3735.4 146.264 3727.53 138.218 C 3724.22 134.774 3722.39 130.175 3722.42 125.401 C 3722.6 111.211 3734.22 109.269 3745.48 109.474 C 3747.82 111.605 3749.29 112.806 3751.03 115.506 L 3750.35 117.099 L 3746.56 118.459 L 3749.43 119.71 C 3746.06 119.876 3743.48 120.09 3740.14 120.541 L 3739.23 121.792 L 3748.88 122.321 L 3741.7 123.092 L 3751.31 124.447 L 3756.33 125.161 L 3756.56 134.388 L 3754.47 133.907 C 3752.81 135.196 3752.57 135.708 3751.57 137.557 z"/>
<path transform="translate(0,0)" fill="rgb(67,54,211)" d="M 3741.7 123.092 C 3740.3 123.715 3739.54 124.583 3738.45 125.637 C 3739.46 128.8 3742.41 127.165 3747.34 130.173 L 3747.83 132.265 C 3735.83 153.058 3714.29 118.389 3738.05 114.091 C 3741.08 113.543 3744.57 116.292 3746.56 118.459 L 3749.43 119.71 C 3746.06 119.876 3743.48 120.09 3740.14 120.541 L 3739.23 121.792 L 3748.88 122.321 L 3741.7 123.092 z"/>
<path transform="translate(0,0)" fill="rgb(67,54,211)" d="M 3751.31 124.447 L 3756.33 125.161 L 3756.56 134.388 L 3754.47 133.907 C 3752.81 135.196 3752.57 135.708 3751.57 137.557 C 3751.91 132.082 3751.98 129.868 3751.31 124.447 z"/>
<path transform="translate(0,0)" fill="rgb(226,224,247)" d="M 3756.33 125.161 C 3764.23 109.315 3774.64 117.062 3778.77 130.516 L 3778.81 130.647 C 3780.96 133.738 3780.42 138.669 3778.54 141.814 L 3777.75 141.85 L 3777.09 135.478 C 3775.79 138.578 3774.45 140.752 3771.13 142.114 C 3768.59 143.147 3765.74 143.106 3763.23 142 C 3759.79 140.478 3757.85 137.779 3756.56 134.388 L 3756.33 125.161 z"/>
<path transform="translate(0,0)" fill="rgb(67,54,211)" d="M 3778.81 130.647 C 3780.96 133.738 3780.42 138.669 3778.54 141.814 L 3777.75 141.85 L 3777.09 135.478 C 3770.84 135.32 3766.8 141.361 3762.01 134.882 L 3762.53 133.433 C 3765.64 131.602 3774.13 131.982 3778.81 130.647 z"/>
<path transform="translate(0,0)" fill="rgb(252,252,253)" d="M 3873.18 121.928 C 3868.54 129.366 3874.18 136.68 3869.17 142.411 L 3867.96 141.805 C 3865.6 138.041 3866.43 124.049 3867.35 119.558 C 3870.92 115.209 3878.01 124.005 3881.42 111.859 L 3882.98 111.079 C 3885.13 112.122 3888.07 117.928 3888.27 120.264 L 3885.64 122.516 L 3890.12 122.451 C 3893.49 126.057 3892.32 133.539 3890.69 137.701 L 3887.8 139.45 C 3888.17 139.727 3888.65 140.559 3888.93 140.993 C 3887.02 142.62 3887.64 142.157 3884.61 142.184 C 3876.51 137.685 3883.15 127.885 3879.67 120.563 L 3873.18 121.928 z"/>
<path transform="translate(0,0)" fill="rgb(67,54,211)" d="M 3885.64 122.516 L 3890.12 122.451 C 3893.49 126.057 3892.32 133.539 3890.69 137.701 L 3887.8 139.45 L 3885.67 136.91 C 3884.75 133.344 3884.54 125.99 3885.64 122.516 z"/>
<path transform="translate(0,0)" fill="rgb(226,224,247)" d="M 3848.25 116.994 C 3864.27 116.043 3860.26 124.841 3861.63 136.183 C 3861.54 135.467 3864.13 140.142 3864.34 140.63 L 3863.48 142.136 C 3859.23 143.617 3856.95 139.157 3855.93 139.67 C 3851.45 141.912 3850.81 143.356 3844.87 142.331 C 3833.15 123.543 3856.34 134.517 3857.32 122.458 C 3852.85 120.959 3846.65 124.617 3842.85 122.962 C 3843.55 120.591 3846.3 118.659 3848.25 116.994 z"/>
<path transform="translate(0,0)" fill="rgb(226,224,247)" d="M 3813.33 124.856 L 3813.77 122.576 C 3817.09 120.745 3818.51 119.658 3822.18 120.331 C 3826.85 125.016 3823.85 124.961 3823.84 129.673 C 3826.76 132.414 3827.17 134.255 3825.95 138.054 C 3821.07 144.439 3810.58 145.18 3807.48 136.351 C 3811.45 134.468 3816.21 140.027 3821.14 137.189 L 3821.31 134.556 C 3816.68 129.817 3810.83 134.025 3810.78 127.319 L 3813.33 124.856 z"/>
<path transform="translate(0,0)" fill="rgb(67,54,211)" d="M 3813.33 124.856 L 3813.77 122.576 C 3817.09 120.745 3818.51 119.658 3822.18 120.331 C 3826.85 125.016 3823.85 124.961 3823.84 129.673 C 3820.97 128.016 3816.13 127.983 3813.33 124.856 z"/>
<path transform="translate(0,0)" fill="rgb(252,252,253)" d="M 3831.06 110.514 L 3832.27 111.067 C 3841.8 124.559 3826.21 126.693 3838.91 141.904 C 3825.93 144.327 3829.9 131.44 3829.59 122.385 L 3827.4 120.559 C 3826.72 118.104 3829.67 115.984 3831.06 110.514 z"/>
<path transform="translate(0,0)" fill="rgb(252,252,253)" d="M 3782.85 110.244 C 3790.09 112.601 3787.01 124.176 3786.16 129.365 C 3785.15 135.517 3787.48 137.401 3791.11 141.95 L 3786.4 142.331 C 3777.48 138.014 3780.79 118.161 3782.85 110.244 z"/>
<path transform="translate(0,0)" fill="rgb(67,54,211)" d="M 3873.18 121.928 L 3879.67 120.563 C 3879.19 124.881 3878.98 138.274 3878.24 140.357 C 3877.19 139.922 3877.01 139.757 3876.16 138.995 L 3874.26 141.1 C 3871.68 137.447 3873.8 126.896 3873.18 121.928 z"/>
<path transform="translate(0,0)" fill="rgb(67,54,211)" d="M 3729.96 144.475 C 3734.04 144.189 3745.19 142.91 3747.15 146.466 C 3742.61 147.095 3735.02 147.85 3730.75 146.354 L 3729.96 144.475 z"/>
<path transform="translate(0,0)" fill="rgb(67,54,211)" d="M 3809.66 144.429 C 3812.97 144.261 3820.81 143.512 3823.18 145.18 L 3823.27 146.824 C 3819.17 147.042 3813.48 147.729 3809.79 146.309 L 3809.66 144.429 z"/>
<path transform="translate(0,0)" fill="rgb(67,54,211)" d="M 3897.84 113.429 C 3901.39 112.721 3904.76 112.323 3908.23 113.349 L 3908.89 114.597 C 3905.59 115.258 3901.14 115.537 3897.9 114.519 L 3897.84 113.429 z"/>
<path transform="translate(0,0)" fill="rgb(67,54,211)" d="M 3881.18 144.451 C 3885.55 144.042 3888.24 143.231 3891.2 146.629 C 3887.82 147.081 3884.86 147.806 3881.76 146.384 L 3881.18 144.451 z"/>
<path transform="translate(0,0)" fill="rgb(67,54,211)" d="M 3782.09 144.457 C 3786.49 144.041 3789.23 143.215 3792.21 146.633 C 3788.82 147.084 3785.86 147.807 3782.75 146.374 L 3782.09 144.457 z"/>
<path transform="translate(0,0)" fill="rgb(67,54,211)" d="M 3810.82 113.443 C 3814.26 112.885 3817.62 111.999 3820.86 113.233 L 3821.38 115.141 C 3817.25 115.266 3814.94 115.462 3810.92 114.512 L 3810.82 113.443 z"/>
<path transform="translate(0,0)" fill="rgb(67,54,211)" d="M 3761.66 113.493 C 3765.9 112.568 3768.9 111.607 3772.28 114.663 C 3769.26 115.066 3763.52 116.271 3761.66 113.493 z"/>
<path transform="translate(0,0)" fill="rgb(5,9,22)" d="M 193.468 99.1244 C 202.61 99.4512 211.66 98.4342 220.758 99.2991 C 225.87 99.785 225.854 101.009 228.057 104.983 C 229.923 102.321 229.401 103.281 229.717 99.6417 L 230.938 99.5706 C 233.537 102.703 233.055 101.764 233.283 106.363 C 233.297 106.642 233.249 108.407 233.254 108.409 C 237.123 109.739 243.542 110.909 247.037 112.356 C 260.701 107.548 259.807 109.144 270.788 119.542 L 272.56 116.707 L 273.809 117.326 C 274.66 123.109 275.187 153.319 272.399 157.183 C 269.614 153.19 272.913 149.527 269.837 146.457 C 268.631 145.253 267.861 144.448 267.157 142.833 C 258.823 149.853 256.106 148.8 245.845 146.853 C 240.028 152.975 250.217 169.532 240.262 175.274 L 238.254 174.552 C 232.912 166.023 238.41 131.273 234.995 117.951 C 234.635 118.905 233.774 121.331 233.326 122.093 C 233.155 120.017 233.158 116.557 231.973 115.018 L 230.963 115.95 L 231.185 139.198 C 230.177 137.513 229.933 126.518 228.868 123.375 C 225.672 128.034 230.641 141.953 226.337 144.594 C 220.951 144.654 206.262 144.464 201.557 145.036 C 206.535 152.221 218.591 143.791 225.892 149.594 C 226.871 153.251 226.948 151.853 225.655 155.349 C 222.065 157.523 199.448 156.83 193.468 156.876 C 194.055 138.61 193.734 117.37 193.468 99.1244 z"/>
<path transform="translate(0,0)" fill="rgb(252,252,253)" d="M 234.995 117.951 C 240.421 116.267 245.84 118.498 246.008 118.426 C 263.438 110.919 276.723 128.053 267.157 142.833 C 258.823 149.853 256.106 148.8 245.845 146.853 C 240.028 152.975 250.217 169.532 240.262 175.274 L 238.254 174.552 C 232.912 166.023 238.41 131.273 234.995 117.951 z"/>
<path transform="translate(0,0)" fill="rgb(5,9,22)" d="M 252.505 125.717 C 256.263 124.375 260.399 126.319 261.765 130.069 C 263.13 133.819 261.212 137.967 257.472 139.357 C 253.697 140.759 249.502 138.82 248.124 135.036 C 246.747 131.252 248.712 127.07 252.505 125.717 z"/>
<path transform="translate(0,0)" fill="rgb(252,252,253)" d="M 193.468 99.1244 C 202.61 99.4512 211.66 98.4342 220.758 99.2991 C 225.87 99.785 225.854 101.009 228.057 104.983 C 221.948 110.631 211.529 107.77 201.941 108.457 L 202.042 123.493 C 208.333 123.467 212.34 122.551 217.374 125.932 L 218.461 128.004 C 215.11 133.969 208.278 132.515 202.037 132.507 C 201.99 135.387 202.036 142.544 201.557 145.036 C 206.535 152.221 218.591 143.791 225.892 149.594 C 226.871 153.251 226.948 151.853 225.655 155.349 C 222.065 157.523 199.448 156.83 193.468 156.876 C 194.055 138.61 193.734 117.37 193.468 99.1244 z"/>
<path transform="translate(0,0)" fill="rgb(66,55,201)" d="M 136.626 97.7033 L 130.793 97.669 L 129.93 96.5545 C 134.093 89.6286 168.489 92.4541 174.661 95.7553 L 174.721 96.626 C 171.056 97.9466 169.378 97.8574 165.504 97.9238 C 170.315 99.3133 175.048 100.56 177.445 105.471 C 182.634 116.108 181.185 135.202 179.255 146.434 C 176.42 162.934 148.972 157.195 135.538 157.925 L 132.612 156.396 C 131.531 155.325 127.275 151.296 126.839 150.017 C 123.215 139.381 123.087 118.796 126.06 107.885 C 127.587 102.283 132.297 99.9376 136.626 97.7033 z"/>
<path transform="translate(0,0)" fill="rgb(5,9,22)" d="M 136.626 97.7033 L 130.793 97.669 L 129.93 96.5545 C 134.093 89.6286 168.489 92.4541 174.661 95.7553 L 174.721 96.626 C 171.056 97.9466 169.378 97.8574 165.504 97.9238 C 160.219 98.5958 141.935 98.1469 136.626 97.7033 z"/>
<path transform="translate(0,0)" fill="rgb(252,252,253)" d="M 134.333 99.9908 C 141.221 99.0331 165.057 97.8403 168.909 104.492 C 166.638 109.376 147.935 108.357 143.558 108.244 C 143.332 112.519 143.52 119.145 143.52 123.591 C 148.043 123.481 154.107 123.086 158.396 124.06 C 160.614 126.617 160.075 125.496 160.415 129.061 C 156.822 136.384 150.571 129.677 144.615 133.227 C 142.794 135.889 143.338 139.805 143.426 143.126 C 143.711 146.095 143.271 145.157 145.318 147.277 C 154.018 149.533 161.714 144.346 168.297 150.563 C 168.383 159.704 141.766 156.399 134.303 156.369 C 134.998 139.282 134.677 117.121 134.333 99.9908 z"/>
<path transform="translate(0,0)" fill="rgb(252,252,253)" d="M 309.897 156.286 C 313.692 158.999 318.032 155.809 321.338 158.738 L 320.515 160.055 C 313.937 161.314 304.801 163.05 299.223 158.382 C 297.119 156.621 297.028 155.253 294.142 154.034 L 292.626 156.532 L 291.347 156.187 L 292.208 149.998 L 291.082 148.972 C 289.591 150.159 290.672 153.982 288.373 156.346 C 286.386 154.323 286.241 120.098 288.993 117.011 C 291.369 118.715 288.802 120.099 291.435 123.009 C 294.481 120.564 290.425 121.723 291.624 116.845 L 294.047 119.59 C 298.902 117.053 303.205 111.302 309.405 111.506 C 313.058 111.625 319.363 112.586 322.483 114.368 L 322.501 115.83 C 320.026 117.125 312.957 116.262 308.901 117.2 C 316.445 116.055 323.972 119.369 328.222 125.705 C 332.472 132.042 332.681 140.263 328.759 146.808 C 324.837 153.354 317.489 157.046 309.897 156.286 z"/>
<path transform="translate(0,0)" fill="rgb(5,9,22)" d="M 309.897 156.286 C 313.692 158.999 318.032 155.809 321.338 158.738 L 320.515 160.055 C 313.937 161.314 304.801 163.05 299.223 158.382 C 297.119 156.621 297.028 155.253 294.142 154.034 L 292.626 156.532 L 291.347 156.187 L 292.208 149.998 L 291.082 148.972 C 289.591 150.159 290.672 153.982 288.373 156.346 C 286.386 154.323 286.241 120.098 288.993 117.011 C 291.369 118.715 288.802 120.099 291.435 123.009 C 294.481 120.564 290.425 121.723 291.624 116.845 L 294.047 119.59 C 298.902 117.053 303.205 111.302 309.405 111.506 C 313.058 111.625 319.363 112.586 322.483 114.368 L 322.501 115.83 C 320.026 117.125 312.957 116.262 308.901 117.2 C 299.083 118.69 291.908 127.254 292.16 137.182 C 292.413 147.11 300.015 155.298 309.897 156.286 z"/>
<path transform="translate(0,0)" fill="rgb(5,9,22)" d="M 308.291 126.537 C 312.017 125.215 316.169 126.053 319.091 128.715 C 322.013 131.378 323.232 135.434 322.261 139.266 C 321.29 143.099 318.288 146.085 314.451 147.036 C 308.905 148.41 303.257 145.191 301.613 139.719 C 299.968 134.247 302.907 128.448 308.291 126.537 z"/>
<path transform="translate(0,0)" fill="rgb(252,252,253)" d="M 340.891 127.921 C 339.873 123.256 338.206 121.317 338.931 117.387 C 341.881 116.099 340.769 116.352 344.34 117.051 C 350.902 121.503 350.541 131.5 353.158 139.105 L 354.999 140.011 L 356.914 139.25 C 359.612 130.926 358.239 120.554 366.975 116.559 C 379.21 117.992 373.232 135.555 379.962 140.484 C 384.021 138.709 384.448 125.634 387.178 119.08 C 390.064 116.526 388.765 117.163 392.537 116.43 C 396.024 117.72 394.942 116.837 396.877 120.176 L 398.437 120.188 L 401.068 117.167 L 402.297 117.644 C 402.11 120.656 391.82 153.639 389.851 155.574 L 388.561 155.02 C 388.265 152.324 388.199 150.199 388.141 147.518 C 386.445 152.079 386.245 154.406 382.158 156.92 C 374.043 157.642 372.633 146.955 370.875 140.645 C 370.829 143.566 371.215 149.389 369.413 151.53 L 367.697 151.181 L 364.37 156.587 L 363.487 156.096 C 363.479 151.883 363.408 148.103 363.168 143.897 C 361.653 149.981 360.826 157.389 352.881 156.853 C 348.414 154.071 348.17 151.685 346.841 146.666 C 346.837 149.594 347.331 153.536 345.558 155.808 C 343.792 154.578 343.181 153.978 342.277 151.376 C 340.664 146.734 336.173 134.162 337.492 129.89 C 337.783 128.947 339.76 128.407 340.891 127.921 z"/>
<path transform="translate(0,0)" fill="rgb(5,9,22)" d="M 396.877 120.176 L 398.437 120.188 L 401.068 117.167 L 402.297 117.644 C 402.11 120.656 391.82 153.639 389.851 155.574 L 388.561 155.02 C 388.265 152.324 388.199 150.199 388.141 147.518 C 389.959 140.228 393.541 126.456 396.877 120.176 z"/>
<path transform="translate(0,0)" fill="rgb(5,9,22)" d="M 346.841 146.666 C 346.837 149.594 347.331 153.536 345.558 155.808 C 343.792 154.578 343.181 153.978 342.277 151.376 C 340.664 146.734 336.173 134.162 337.492 129.89 C 337.783 128.947 339.76 128.407 340.891 127.921 C 342.917 134.155 344.9 140.404 346.841 146.666 z"/>
<path transform="translate(0,0)" fill="rgb(5,9,22)" d="M 366.878 127.472 C 369.098 132.847 369.639 135.033 370.875 140.645 C 370.829 143.566 371.215 149.389 369.413 151.53 L 367.697 151.181 L 364.37 156.587 L 363.487 156.096 C 363.479 151.883 363.408 148.103 363.168 143.897 C 364.298 140.31 366.008 131.447 366.878 127.472 z"/>
<path transform="translate(0,0)" fill="rgb(129,143,164)" d="M 1493.26 106.137 C 1503.36 106.005 1504.15 105.592 1512.25 111.878 C 1513.69 115.133 1515.19 120.204 1516.34 123.711 L 1517.37 124.127 C 1524.3 98.8044 1552.23 122.513 1531.36 139.208 C 1519.13 139.607 1518.5 134.236 1516.36 124.004 C 1512.79 132.16 1512.31 133.614 1505.13 138.801 C 1499.35 139.402 1493.9 139.429 1488.11 139.522 C 1487.86 131.891 1486.64 115.414 1488.78 108.105 C 1489.19 106.715 1491.61 106.523 1493.26 106.137 z"/>
<path transform="translate(0,0)" fill="rgb(11,16,32)" d="M 1507.4 131.028 C 1503.62 134.503 1499.58 136.163 1495.02 133.154 C 1489 123.196 1492.64 101.877 1506.74 113.854 C 1511.13 120.165 1510.17 124.213 1507.4 131.028 z"/>
<path transform="translate(0,0)" fill="rgb(5,9,22)" d="M 1506.74 113.854 C 1511.13 120.165 1510.17 124.213 1507.4 131.028 C 1506.45 130.681 1505.35 129.839 1504.5 129.247 C 1503.62 124.133 1502.77 117.466 1506.74 113.854 z"/>
<path transform="translate(0,0)" fill="rgb(5,9,22)" d="M 1524.45 117.771 L 1529.51 118.181 C 1535.77 122.138 1533.09 129.186 1531.09 134.834 C 1528.89 134.727 1527.71 134.375 1525.59 133.81 C 1520.27 129.562 1522.41 123.188 1524.45 117.771 z"/>
<path transform="translate(0,0)" fill="rgb(129,143,164)" d="M 669.938 105.663 C 680.637 105.664 672.551 109.951 682.152 113.95 C 675.162 116.287 680.413 126.624 678.158 133.06 L 676.69 132.823 C 675.815 136.951 676.448 136.744 673.701 139.367 C 671.358 139.475 669.582 139.682 667.315 138.945 C 666.89 138.985 666.464 139.021 666.039 139.055 C 659.167 139.597 658.357 137.437 652.676 132.575 C 648.033 133.142 648.642 138.891 641.547 139.478 C 626.895 140.692 626.209 117.368 637.58 113.203 C 644.737 110.582 647.163 117.305 651.41 121.455 C 653.914 121.066 656.624 116.69 660.225 114.988 C 663.948 113.228 664.528 114.139 668.276 112.881 C 669.232 110.243 669.486 108.388 669.938 105.663 z"/>
<path transform="translate(0,0)" fill="rgb(5,9,22)" d="M 669.938 105.663 C 680.637 105.664 672.551 109.951 682.152 113.95 C 675.162 116.287 680.413 126.624 678.158 133.06 L 676.69 132.823 C 675.815 136.951 676.448 136.744 673.701 139.367 C 671.358 139.475 669.582 139.682 667.315 138.945 C 668.424 137.705 670.648 137.847 672.625 137.615 C 675.562 133.809 673.896 112.804 672.817 107.765 C 672.76 107.496 670.399 105.979 669.938 105.663 z"/>
<path transform="translate(0,0)" fill="rgb(5,9,22)" d="M 660.492 117.636 C 661.973 117.729 663.94 118.064 665.454 118.281 C 671.121 122.558 669.064 129.031 666.944 134.79 L 662.027 134.09 C 656.524 130.053 658.899 123.22 660.492 117.636 z"/>
<path transform="translate(0,0)" fill="rgb(5,9,22)" d="M 1565.35 131.977 C 1564.42 133.257 1563.43 134.505 1562.41 135.719 C 1545.12 155.964 1533.68 102.185 1561.01 115.426 C 1563.32 116.541 1563.66 119.694 1563.71 121.834 L 1564.98 123.058 C 1566.44 117.141 1568.77 112.074 1575.96 112.745 C 1579.59 114.252 1580.45 115.256 1583.2 118.064 L 1583.35 119.696 L 1582.03 120.64 C 1577.56 119.577 1574.56 117.153 1571.07 118.246 C 1571.08 121.424 1578.48 125.646 1581.22 127.556 C 1591.07 134.428 1574.19 144.663 1566.84 136.088 C 1566.51 134.922 1565.95 133.216 1565.85 132.054 L 1565.35 131.977 z"/>
<path transform="translate(0,0)" fill="rgb(129,143,164)" d="M 1564.98 123.058 C 1566.44 117.141 1568.77 112.074 1575.96 112.745 C 1579.59 114.252 1580.45 115.256 1583.2 118.064 L 1583.35 119.696 L 1582.03 120.64 C 1577.56 119.577 1574.56 117.153 1571.07 118.246 C 1571.08 121.424 1578.48 125.646 1581.22 127.556 C 1591.07 134.428 1574.19 144.663 1566.84 136.088 C 1566.51 134.922 1565.95 133.216 1565.85 132.054 C 1570.11 132.224 1570.64 135.157 1577.68 133.173 L 1578.07 131.939 C 1574.83 128.471 1569.9 126.731 1564.98 123.058 z"/>
<path transform="translate(0,0)" fill="rgb(129,143,164)" d="M 1565.35 131.977 C 1564.42 133.257 1563.43 134.505 1562.41 135.719 C 1545.12 155.964 1533.68 102.185 1561.01 115.426 C 1563.32 116.541 1563.66 119.694 1563.71 121.834 C 1557.72 120.356 1558.13 118.033 1553 118.222 C 1548.43 121.316 1548.65 130.738 1552.57 133.89 C 1560.46 134.952 1559.1 127.711 1565.35 131.977 z"/>
<path transform="translate(0,0)" fill="rgb(5,9,22)" d="M 3693.18 59.4813 C 3693.54 59.4518 3693.9 59.426 3694.26 59.4042 C 3705.18 58.7426 3724.73 59.351 3736.23 59.3494 L 3821.51 59.3471 L 3915.16 59.3276 C 3932.05 59.3212 3949.08 59.1252 3965.97 59.5815 C 3968.43 59.648 3968.1 59.9031 3969.91 61.5098 C 3967.56 61.6608 3965.05 61.8222 3962.69 61.8148 C 3873.51 61.5327 3784.25 62.4809 3695.11 61.3872 C 3695.11 61.3872 3693.34 59.6486 3693.18 59.4813 z"/>
<path transform="translate(0,0)" fill="rgb(129,143,164)" d="M 1305.98 112.737 C 1309.86 113.772 1313.93 114.509 1317.88 115.417 C 1323.58 123.904 1317.54 167.214 1299.5 143.966 L 1302.03 142.563 C 1304.16 143.474 1306.29 144.356 1308.43 145.209 C 1311.79 144.653 1310.65 145.091 1313.38 142.396 C 1314.31 139.187 1314.54 140.137 1313.25 137.744 C 1311.95 137.82 1306.17 138.856 1305.66 138.649 C 1293.19 133.596 1298.14 118.643 1305.98 112.737 z"/>
<path transform="translate(0,0)" fill="rgb(129,143,164)" d="M 888.124 106.378 C 893.781 106.12 899.844 106.333 905.534 106.426 C 906.101 106.95 906.661 107.481 907.215 108.019 C 920.255 120.696 905.6 125.14 894.138 124.951 C 889.08 128.367 896.388 133.973 890.421 139.069 C 887.88 138.361 888.686 138.822 887.096 136.073 C 887.21 129.693 886.572 111.354 888.124 106.378 z"/>
<path transform="translate(0,0)" fill="rgb(5,9,22)" d="M 891.861 110.873 C 896.391 110.676 901.765 109.86 905.268 112.7 C 906.778 116.503 906.341 115.539 905.567 119.901 C 902.335 120.316 896.067 121.238 893.447 119.42 C 891.374 115.991 892.019 115.297 891.861 110.873 z"/>
<path transform="translate(0,0)" fill="rgb(129,143,164)" d="M 1188.38 106.411 C 1193.92 106.121 1200.23 106.338 1205.84 106.402 C 1206.66 107.128 1207.46 107.872 1208.24 108.635 C 1219.26 119.447 1206.12 125.12 1195.76 125.074 L 1194.31 125.124 C 1190.92 128.203 1193.38 137.21 1188.34 138.48 C 1187.39 136.148 1187.41 109.902 1188.38 106.411 z"/>
<path transform="translate(0,0)" fill="rgb(5,9,22)" d="M 1192.21 110.888 C 1196.59 110.681 1202.17 109.898 1205.64 112.619 C 1207.2 116.376 1206.88 115.076 1206.15 119.245 C 1201.82 120.679 1197.98 121.3 1193.9 119.475 C 1191.67 115.968 1192.37 115.509 1192.21 110.888 z"/>
<path transform="translate(0,0)" fill="rgb(129,143,164)" d="M 588.408 106.341 L 605.147 106.329 C 606.142 107.266 607.119 108.224 608.075 109.201 C 613.412 114.691 612.422 119.68 605.803 123.214 C 601.413 125.558 597.102 125.04 592.253 124.908 C 589.605 128.316 594.694 137.201 588.599 138.64 L 587.17 137.38 C 586.712 132.228 585.68 109.712 588.408 106.341 z"/>
<path transform="translate(0,0)" fill="rgb(5,9,22)" d="M 591.434 110.897 C 592.971 110.81 594.51 110.747 596.049 110.707 C 599.543 110.625 602.416 110.444 605.037 112.95 C 606.238 116.996 605.946 115.832 604.585 120.197 C 601.225 120.383 595.653 121.181 592.872 119.4 C 590.907 115.991 591.539 115.228 591.434 110.897 z"/>
<path transform="translate(0,0)" fill="rgb(129,143,164)" d="M 951.123 116.97 L 949.881 115.417 C 950.891 112.643 951.769 109.629 953.689 107.406 L 955.112 107.655 C 956.511 110.756 956.445 112.048 958.966 113.603 C 963.065 112.289 965.816 104.604 971.106 106.398 L 971.571 108.616 C 970.067 109.758 969.019 110.506 967.735 111.907 C 972.224 119.1 969.107 116.18 967.212 123.365 C 966.02 127.889 968.263 133.965 965.957 138.386 C 964.624 138.93 952.476 138.13 952.17 134.487 C 951.757 129.576 951.773 124.382 951.573 119.373 L 951.123 116.97 z"/>
<path transform="translate(0,0)" fill="rgb(5,9,22)" d="M 956.72 117.302 L 960.48 117.914 C 964.083 122.409 962.392 130.821 961.862 136.765 C 954.214 132.984 956.366 124.843 956.72 117.302 z"/>
<path transform="translate(0,0)" fill="rgb(129,143,164)" d="M 995.675 131.058 C 991.583 138.778 984.665 144.917 977.722 135.394 C 966.926 120.588 983.531 102.939 995.371 120.055 C 995.554 123.476 995.89 127.715 995.675 131.058 z"/>
<path transform="translate(0,0)" fill="rgb(5,9,22)" d="M 981.768 117.858 L 986.479 118.276 C 992.522 122.141 989.828 129.198 988.215 134.844 C 986.62 134.711 984.635 134.247 983.032 133.917 C 977.478 129.549 979.548 123.519 981.768 117.858 z"/>
<path transform="translate(0,0)" fill="rgb(129,143,164)" d="M 728.033 106.368 C 737.212 109.716 730.301 124.213 730.737 130.412 C 730.979 133.848 734.122 133.705 735.477 136.842 L 734.665 138.249 C 731.37 139.773 732.345 139.9 729.516 139.133 C 725.934 135.408 726.662 123.767 726.591 118.425 C 725.459 117.661 724.831 116.802 723.939 118.446 C 720.842 124.15 714.39 116.262 711.76 119.038 L 711.646 119.159 C 710.273 120.608 709.673 125.651 709.307 127.848 C 712.925 139.954 718.252 130.525 722.783 132.166 L 723.342 134.943 C 720.941 139.85 716.273 139.999 711.723 137.874 C 708.849 136.562 706.618 134.157 705.525 131.193 C 704.089 127.218 704.67 121.698 706.523 117.924 C 710.339 110.157 717.854 116.667 724.431 114.346 C 727.117 112.444 727.34 109.578 728.033 106.368 z"/>
<path transform="translate(0,0)" fill="rgb(129,143,164)" d="M 949.465 135.307 L 948.313 138.404 L 946.454 139.103 C 936.787 132.298 936.229 142.129 927.366 136.959 C 922.753 127.317 935.644 125.583 941.528 120.495 L 941.528 119.018 C 935.766 115.899 933.36 121.022 929.335 120.456 L 929.112 118.566 C 932.698 112.537 938.357 110.605 943.948 115.852 C 949.444 121.009 944.133 128.983 947.589 134.22 L 949.465 135.307 z"/>
<path transform="translate(0,0)" fill="rgb(129,143,164)" d="M 1247.56 113.265 C 1253.24 113.101 1257.58 113.654 1259.49 119.659 C 1254.64 122.262 1251.52 114.22 1245.98 120.795 C 1244.32 126.166 1245.74 131.875 1250.65 134.982 C 1253.9 134.875 1253.61 134.196 1256.39 131.252 L 1260.74 131.726 C 1264.88 126.22 1256.95 119.695 1264.59 112.823 C 1268.72 116.484 1266.35 130.016 1266.8 135.658 C 1266.98 137.819 1266.08 138.092 1264.52 139.391 C 1262.02 138.703 1262.38 138.198 1260.79 135.505 C 1255.64 134.704 1241.25 149.293 1240.71 124.216 C 1240.6 119.213 1244.13 116.291 1247.56 113.265 z"/>
<path transform="translate(0,0)" fill="rgb(252,252,253)" d="M 277.149 116.252 C 280.904 116.319 282.221 116.378 284.368 119.338 C 284.963 125.852 285.398 152.093 283.624 157.357 C 283.453 157.334 283.282 157.311 283.111 157.285 C 279.243 156.711 278.863 157.003 276.968 154.439 C 276.165 147.497 276.051 122.924 277.149 116.252 z"/>
<path transform="translate(0,0)" fill="rgb(129,143,164)" d="M 1035.68 119.635 C 1033.42 125.273 1036.73 135.733 1032.04 138.701 C 1028.4 135.719 1031.26 126.138 1030.1 121.729 C 1029.4 119.064 1025.08 118.216 1024.12 115.102 L 1025.73 113.439 C 1034.14 112.85 1028.02 120.147 1039.89 113.447 C 1051.99 114.357 1049.84 135.496 1046.51 139.422 C 1041.14 135.53 1045.83 123.056 1041.43 117.173 C 1039.34 117.674 1037.04 117.975 1035.68 119.635 z"/>
<path transform="translate(0,0)" fill="rgb(129,143,164)" d="M 1278.93 119.717 C 1275.23 125.302 1278.85 132.691 1275.45 138.447 L 1273.96 138.418 C 1273.9 138.306 1273.85 138.194 1273.8 138.081 C 1271.7 133.314 1271.79 119.094 1273.7 114.171 C 1277.02 113.607 1275.06 114.494 1279 116.437 L 1281.37 113.476 C 1282.33 113.392 1283.32 113.337 1284.28 113.376 C 1286.16 113.459 1287.93 114.293 1289.19 115.689 C 1292.68 119.598 1293.43 135.234 1289.86 138.437 L 1288.02 138.067 C 1285.07 133.172 1288.95 125.887 1285.46 117.829 C 1282.46 117.908 1280.68 117.16 1278.93 119.717 z"/>
<path transform="translate(0,0)" fill="rgb(129,143,164)" d="M 678.158 133.06 C 680.413 126.624 675.162 116.287 682.152 113.95 C 684.453 119.681 681.859 127.249 684.018 134.094 C 688.564 134.533 687.882 135.153 691.382 133.211 C 694.52 126.852 691.802 117.679 694.082 114.548 C 699.519 117.512 701.772 137.464 691.714 138.521 C 683.268 139.409 682.88 139.813 678.158 133.06 z"/>
<path transform="translate(0,0)" fill="rgb(5,9,22)" d="M 3993.31 84.8068 C 3996.57 89.6864 3995.15 163.615 3994.52 174.623 C 3993.77 174.207 3993.07 173.166 3992.52 172.458 C 3991.83 164.018 3991.4 89.3494 3993.31 84.8068 z"/>
<path transform="translate(0,0)" fill="rgb(5,9,22)" d="M 3668.39 84.7059 C 3668.73 84.8437 3669.1 85.0168 3669.36 85.2919 C 3672.58 88.7943 3670.8 164.641 3670.56 174.453 L 3669.43 174.12 C 3669.09 173.696 3668.67 173.179 3668.17 172.568 C 3668.53 147.616 3667.61 108.299 3668.39 84.7059 z"/>
<path transform="translate(0,0)" fill="rgb(129,143,164)" d="M 995.371 120.055 L 996.666 120.396 C 1000.01 118.404 995.852 117.178 1000.08 112.877 L 1004.68 115.309 L 1009.38 113.539 L 1010.42 114.257 C 1010 114.887 1003.93 123.204 1004.08 122.559 C 1002.93 127.402 1004.93 133.531 1003.16 138.224 L 1000.38 139.35 L 998.585 138.568 C 998.382 135.809 998.335 134.405 997.468 131.706 L 995.675 131.058 C 995.89 127.715 995.554 123.476 995.371 120.055 z"/>
<path transform="translate(0,0)" fill="rgb(5,9,22)" d="M 995.371 120.055 L 996.666 120.396 C 1000.01 118.404 995.852 117.178 1000.08 112.877 C 999.784 119.298 999.374 130.256 1000.06 136.379 C 1001.63 138.102 1000.9 137.706 1003.16 138.224 L 1000.38 139.35 L 998.585 138.568 C 998.382 135.809 998.335 134.405 997.468 131.706 L 995.675 131.058 C 995.89 127.715 995.554 123.476 995.371 120.055 z"/>
<path transform="translate(0,0)" fill="rgb(5,9,22)" d="M 132.612 156.396 L 135.538 157.925 L 135.99 159.204 C 140.58 161.568 162.437 158.048 167.971 160.499 L 168.082 161.987 C 163.965 166.2 135.963 164.191 129.963 159.155 L 129.828 157.323 L 132.612 156.396 z"/>
<path transform="translate(0,0)" fill="rgb(129,143,164)" d="M 917.945 106.225 C 918.856 106.559 920.885 107.081 921.116 107.723 C 922.997 112.953 922.493 134.869 920.997 139.44 L 918.875 138.281 C 916.292 134.679 917.488 111.536 917.945 106.225 z"/>
<path transform="translate(0,0)" fill="rgb(129,143,164)" d="M 617.441 113.273 C 622.86 115.633 623.722 113.914 626.746 115.656 C 620.992 123.378 621.341 123.581 621.633 133.25 C 621.959 135.544 621.598 136.165 620.652 138.297 L 619.063 138.906 C 615.828 135.358 617.317 119.049 617.441 113.273 z"/>
<path transform="translate(0,0)" fill="rgb(129,143,164)" d="M 1218.28 113.268 C 1220.44 114.267 1228.28 114.927 1226.97 116.418 C 1221.76 122.32 1222.11 125.041 1222.32 132.25 C 1222.69 135.381 1222.3 137.254 1219.62 138.949 C 1216.79 136.143 1218.13 118.042 1218.28 113.268 z"/>
<path transform="translate(0,0)" fill="rgb(5,9,22)" d="M 684.018 134.094 C 685.034 127.547 682.953 118.916 685.434 115.089 L 688.127 116.08 L 689.266 113.813 L 690.521 113.732 C 690.881 120.221 691.168 126.715 691.382 133.211 C 687.882 135.153 688.564 134.533 684.018 134.094 z"/>
<path transform="translate(0,0)" fill="rgb(5,9,22)" d="M 1278.93 119.717 C 1280.68 117.16 1282.46 117.908 1285.46 117.829 C 1284.65 123.803 1285.4 135.187 1284.21 138.512 C 1282.62 138.127 1282.7 137.612 1281.55 136.007 L 1280.32 138.366 L 1279.32 138.299 C 1278.12 133.483 1278.76 124.936 1278.93 119.717 z"/>
<path transform="translate(0,0)" fill="rgb(5,9,22)" d="M 120.1 106.69 C 123.101 108.768 121.618 143.3 121.542 148.626 C 120.662 147.972 119.464 147.238 119.319 146.107 C 118.455 139.334 117.843 111.761 120.1 106.69 z"/>
<path transform="translate(0,0)" fill="rgb(129,143,164)" d="M 1016.94 113.324 L 1020.26 114.542 C 1022.91 118.5 1020.98 131.567 1020.98 138.493 L 1018.39 138.42 C 1015.19 133.987 1016.69 119.653 1016.94 113.324 z"/>
<path transform="translate(0,0)" fill="rgb(5,9,22)" d="M 225.411 159.631 L 226.247 159.527 L 226.807 160.77 C 223.596 164.682 205.097 162.805 196.484 164.033 L 194.534 161.602 C 198.082 158.488 219.727 159.639 225.411 159.631 z"/>
<path transform="translate(0,0)" fill="rgb(5,9,22)" d="M 195.537 91.7014 C 201.695 92.9435 222.193 92.0367 224.788 94.193 L 223.962 96.2545 C 217.378 96.2702 198.505 97.6081 193.951 94.455 L 195.537 91.7014 z"/>
<path transform="translate(0,0)" fill="rgb(129,143,164)" d="M 1232.61 113.262 C 1234.97 114.508 1234.29 113.872 1235.72 116.085 C 1236.27 121.619 1236.83 134.449 1234.95 139.423 C 1229.34 136.483 1231.04 118.582 1232.61 113.262 z"/>
<path transform="translate(0,0)" fill="rgb(5,9,22)" d="M 1228.66 108.75 L 1229.72 109.137 L 1229.55 110.867 C 1226.39 112.049 1219.73 111.657 1216.08 111.621 C 1216.11 117.418 1217.1 134.8 1214.16 138.381 C 1214.41 121.536 1204.61 109.751 1228.66 108.75 z"/>
<path transform="translate(0,0)" fill="rgb(5,9,22)" d="M 1184.35 105.846 C 1187.12 109.785 1185.82 133.657 1185.5 139.742 C 1181.47 137.438 1182.64 110.131 1184.35 105.846 z"/>
<path transform="translate(0,0)" fill="rgb(5,9,22)" d="M 927.671 141.496 C 932.1 140.311 961.881 140.561 966.334 141.66 L 966.665 142.799 L 964.232 142.933 C 959.108 143.478 931.641 144.006 927.671 141.496 z"/>
<path transform="translate(0,0)" fill="rgb(5,9,22)" d="M 247.03 149.597 C 254.032 151.679 256.409 150.797 259.266 151.646 C 251.949 149.581 249.996 154.697 250.033 160.75 C 250.254 166.337 250.034 168.286 249.108 173.82 L 248.689 173.709 C 246.91 164.478 247.105 158.949 247.03 149.597 z"/>
<path transform="translate(0,0)" fill="rgb(5,9,22)" d="M 1035.68 119.635 C 1037.04 117.975 1039.34 117.674 1041.43 117.173 C 1038.32 127.705 1039.82 126.274 1038.26 135.009 L 1037.02 135.663 L 1038.03 136.488 L 1037.19 137.201 L 1037.76 137.957 L 1037.28 138.16 L 1036.97 136.411 L 1037.91 136.462 L 1037.96 135.967 C 1035.29 132.821 1036.31 124.406 1035.68 119.635 z"/>
<path transform="translate(0,0)" fill="rgb(5,9,22)" d="M 353.158 139.105 C 353.234 134.339 352.88 128.03 354.934 123.909 C 357.681 126.76 356.385 135.095 356.914 139.25 L 354.999 140.011 L 353.158 139.105 z"/>
<path transform="translate(0,0)" fill="rgb(5,9,22)" d="M 951.123 116.97 L 951.573 119.373 C 950.558 123.175 950.713 133.677 949.465 135.307 L 947.589 134.22 C 949.45 127.39 945.728 121.116 951.123 116.97 z"/>
<path transform="translate(0,0)" fill="rgb(5,9,22)" d="M 1193.32 126.498 C 1198.48 126.272 1204.83 125.259 1208.67 128.499 C 1202.58 129.259 1197.89 130.998 1193.32 126.498 z"/>
<path transform="translate(0,0)" fill="rgb(5,9,22)" d="M 1006.34 122.82 C 1009.31 127.146 1008.06 133.498 1007.56 138.91 C 1004.21 135.972 1005.91 127.163 1006.34 122.82 z"/>
<path transform="translate(0,0)" fill="rgb(5,9,22)" d="M 930.405 109.508 C 935.869 108.785 939.821 107.428 943.829 111.499 C 938.935 111.91 933.994 113.068 930.405 109.508 z"/>
<path transform="translate(0,0)" fill="rgb(5,9,22)" d="M 998.393 109.425 C 1000.07 109.252 1001.75 109.115 1003.44 109.013 C 1008.37 108.759 1009.23 108.788 1012.3 111.559 C 1007.42 111.839 1001.83 112.98 998.393 109.425 z"/>
<path transform="translate(0,0)" fill="rgb(5,9,22)" d="M 272.31 97.766 L 274.289 99.1546 C 274.793 103.018 274.821 105.866 274.859 109.764 C 274.382 109.544 272.961 108.367 272.465 107.975 C 270.998 104.62 271.804 101.402 272.31 97.766 z"/>
<path transform="translate(0,0)" fill="rgb(5,9,22)" d="M 634.013 141.489 C 638.517 140.633 642.613 139.966 646.596 142.497 C 641.447 143.637 638.602 144.169 634.013 141.489 z"/>
<path transform="translate(0,0)" fill="rgb(5,9,22)" d="M 1548.41 141.501 C 1552.96 140.547 1556.74 140.027 1560.8 142.497 C 1555.68 143.665 1552.95 144.162 1548.41 141.501 z"/>
</svg>