<!-- RECRAFT VECTORIZE via fal-ai/recraft/vectorize from icon-512.png -->
<svg version="1.1" xmlns="http://www.w3.org/2000/svg" style="display: block;" viewBox="0 0 2048 2048" width="512" height="512" preserveAspectRatio="none">
<defs>
	<linearGradient id="Gradient1" gradientUnits="userSpaceOnUse" x1="157.316" y1="125.555" x2="1890.4" y2="1921.37">
		<stop class="stop0" offset="0" stop-opacity="1" stop-color="rgb(62,79,200)"/>
		<stop class="stop1" offset="1" stop-opacity="1" stop-color="rgb(124,76,237)"/>
	</linearGradient>
</defs>
<path transform="translate(0,0)" fill="url(#Gradient1)" d="M 443.425 0 L 1599.62 0 C 1607.8 3.65632 1635.3 4.87624 1646.14 7.0935 C 1806.46 39.8846 1943.02 162.503 2009.76 311.317 C 2023.71 341.901 2034.12 373.978 2040.79 406.924 C 2042.61 416.125 2046.1 444.096 2048 450.142 L 2048 1605.85 C 2045.53 1615.46 2045.31 1626.55 2043.94 1636.5 C 2041.27 1654.94 2037.57 1673.22 2032.85 1691.24 C 2002.07 1808.27 1928.09 1909.29 1825.8 1973.94 C 1773.91 2006.23 1726.1 2025.16 1666.43 2038.61 C 1655.56 2041.06 1618.7 2045.58 1612.52 2048 L 440.495 2048 C 435.327 2046 399.893 2040.51 390.251 2038.3 C 349.989 2028.84 311.18 2014.02 274.865 1994.23 C 159.027 1931.95 62.9306 1815.99 21.0476 1691.45 C 14.5809 1672.55 9.51175 1653.2 5.88102 1633.57 C 4.0072 1623.04 3.19395 1608.2 0 1598.48 L 0 443.295 C 2.22561 437.357 2.13381 430.379 2.79136 424.066 C 8.49954 369.265 26.214 311.437 51.0795 262.599 C 111.06 144.306 217.304 56.0961 344.61 18.8942 C 362.476 13.6396 379.71 10.1184 397.92 6.56676 C 410.336 4.14515 432.789 4.00781 443.425 0 z"/>
<path transform="translate(0,0)" fill="rgb(254,254,254)" d="M 521.019 544.246 C 524.405 543.99 529.444 543.897 532.865 543.887 C 569.72 543.777 606.612 543.856 643.466 543.869 L 852.693 543.863 L 957.607 543.831 C 985.325 543.822 1020.9 538.51 1041.1 558.886 C 1051.58 569.455 1057.28 587.075 1056.21 601.984 C 1054.19 630.227 1063.56 667.689 1041.92 689.954 C 1024.49 707.362 997.525 704.146 974.635 704.133 L 900.785 704.082 L 640.092 704.151 L 640.124 943.92 L 782.264 943.872 C 806.107 943.834 833.667 942.42 856.877 945.368 C 879.817 948.282 897.1 975.755 896.106 997.925 C 895.044 1021.64 898.76 1046 893.724 1069.5 C 890.703 1083.6 875.793 1098.53 861.261 1101.89 C 836.182 1105.54 807.207 1104.15 781.602 1104.14 L 640.101 1104.16 L 640.159 1288.93 L 640.136 1343.92 L 882.726 1343.87 L 959.183 1343.82 C 976.785 1343.78 1013.36 1341.5 1028.29 1349.47 C 1040.77 1356.09 1050 1367.53 1053.81 1381.14 C 1057.21 1393.17 1057.1 1450.9 1055.06 1463.63 C 1054.01 1469.86 1051.81 1475.84 1048.55 1481.26 C 1039.61 1495.9 1025.34 1502.94 1008.56 1503.63 C 986.916 1504.51 965.069 1504.13 943.385 1504.13 L 805.323 1504.06 L 618.485 1504.08 C 586.953 1504.09 555.422 1504.43 523.901 1503.83 C 506.299 1503.49 482.439 1482.7 480.956 1465.46 C 478.679 1438.97 479.865 1410.28 479.868 1383.5 L 479.88 1191.21 L 479.893 790.018 L 479.88 659.351 C 479.857 636.738 479.512 614.028 479.936 591.429 C 480.42 565.709 496.307 548.72 521.019 544.246 z"/>
<path transform="translate(0,0)" fill="rgb(254,254,254)" d="M 1212.53 504.403 C 1237.18 501.915 1281.71 506.93 1306.44 510.612 C 1432.31 529.015 1549.28 586.303 1640.98 674.461 C 1845.49 871.465 1853.66 1155.97 1654.62 1359.72 C 1537.82 1479.3 1386.93 1541.09 1220.36 1543.97 C 1201.23 1543.77 1186.05 1540.13 1170.84 1527.85 C 1155.92 1515.89 1146.4 1498.45 1144.41 1479.43 C 1142.42 1460.35 1148.2 1441.27 1160.44 1426.49 C 1188.44 1392.17 1226.74 1401.6 1267.08 1397.21 C 1388.05 1384.03 1501.9 1324.35 1578.03 1228.99 C 1631.64 1161.83 1664.71 1076.36 1653.62 989.672 C 1638.83 873.96 1555.78 773.225 1458.38 714.753 C 1416.7 689.977 1371.48 671.717 1324.29 660.607 C 1305.31 656.023 1286.03 652.768 1266.6 650.867 C 1233.14 647.598 1197.08 653.099 1170.72 631.978 C 1155.84 619.949 1146.4 602.462 1144.5 583.422 C 1140.12 540.377 1170.6 508.309 1212.53 504.403 z"/>
<path transform="translate(0,0)" fill="rgb(254,254,254)" d="M 1212.56 680.353 C 1213.7 680.207 1215.18 680.155 1216.36 680.147 C 1325.82 679.46 1437.04 722.945 1516.55 797.797 C 1576.86 854.225 1622.26 933.523 1623.75 1017.65 C 1626.49 1173.18 1495.4 1299.45 1355.81 1345.2 C 1310.14 1360.17 1268.34 1366.65 1220.73 1367.99 C 1207.5 1368.17 1196.16 1365.87 1184.95 1358.44 C 1172.28 1349.92 1163.62 1336.63 1160.95 1321.6 C 1158.28 1306.55 1161.62 1292 1170.32 1279.54 C 1187.97 1254.18 1215.28 1256.28 1242.57 1254.42 C 1332.17 1247.83 1418.77 1203.44 1472.64 1131.62 C 1593.5 970.5 1407.38 806.417 1249.89 793.914 C 1227.1 792.105 1201.95 795.037 1182.71 780.97 C 1170.59 771.959 1162.61 758.444 1160.57 743.476 C 1158.51 728.585 1162.57 713.496 1171.82 701.649 C 1182.6 687.934 1195.55 682.308 1212.56 680.353 z"/>
</svg>