<svg width="215.40821917808222" height="64" viewBox="0 0 215.40821917808222 64" xmlns="http://www.w3.org/2000/svg" role="img" aria-label="Epiow"><g transform="scale(1)"><path d="M64 32 L63.99 40.76 L63.96 43.56 L63.91 45.59 L63.84 47.24 L63.75 48.64 L63.64 49.88 L63.51 50.99 L63.36 52.01 L63.19 52.93 L63 53.79 L62.79 54.59 L62.56 55.33 L62.3 56.03 L62.02 56.68 L61.72 57.3 L61.4 57.87 L61.05 58.42 L60.68 58.93 L60.28 59.41 L59.86 59.86 L59.41 60.28 L58.93 60.68 L58.42 61.05 L57.87 61.4 L57.3 61.72 L56.68 62.02 L56.03 62.3 L55.33 62.56 L54.59 62.79 L53.79 63 L52.93 63.19 L52.01 63.36 L50.99 63.51 L49.88 63.64 L48.64 63.75 L47.24 63.84 L45.59 63.91 L43.56 63.96 L40.76 63.99 L32 64 L23.24 63.99 L20.44 63.96 L18.41 63.91 L16.76 63.84 L15.36 63.75 L14.12 63.64 L13.01 63.51 L11.99 63.36 L11.07 63.19 L10.21 63 L9.41 62.79 L8.67 62.56 L7.97 62.3 L7.32 62.02 L6.7 61.72 L6.13 61.4 L5.58 61.05 L5.07 60.68 L4.59 60.28 L4.14 59.86 L3.72 59.41 L3.32 58.93 L2.95 58.42 L2.6 57.87 L2.28 57.3 L1.98 56.68 L1.7 56.03 L1.44 55.33 L1.21 54.59 L1 53.79 L0.81 52.93 L0.64 52.01 L0.49 50.99 L0.36 49.88 L0.25 48.64 L0.16 47.24 L0.09 45.59 L0.04 43.56 L0.01 40.76 L0 32 L0.01 23.24 L0.04 20.44 L0.09 18.41 L0.16 16.76 L0.25 15.36 L0.36 14.12 L0.49 13.01 L0.64 11.99 L0.81 11.07 L1 10.21 L1.21 9.41 L1.44 8.67 L1.7 7.97 L1.98 7.32 L2.28 6.7 L2.6 6.13 L2.95 5.58 L3.32 5.07 L3.72 4.59 L4.14 4.14 L4.59 3.72 L5.07 3.32 L5.58 2.95 L6.13 2.6 L6.7 2.28 L7.32 1.98 L7.97 1.7 L8.67 1.44 L9.41 1.21 L10.21 1 L11.07 0.81 L11.99 0.64 L13.01 0.49 L14.12 0.36 L15.36 0.25 L16.76 0.16 L18.41 0.09 L20.44 0.04 L23.24 0.01 L32 0 L40.76 0.01 L43.56 0.04 L45.59 0.09 L47.24 0.16 L48.64 0.25 L49.88 0.36 L50.99 0.49 L52.01 0.64 L52.93 0.81 L53.79 1 L54.59 1.21 L55.33 1.44 L56.03 1.7 L56.68 1.98 L57.3 2.28 L57.87 2.6 L58.42 2.95 L58.93 3.32 L59.41 3.72 L59.86 4.14 L60.28 4.59 L60.68 5.07 L61.05 5.58 L61.4 6.13 L61.72 6.7 L62.02 7.32 L62.3 7.97 L62.56 8.67 L62.79 9.41 L63 10.21 L63.19 11.07 L63.36 11.99 L63.51 13.01 L63.64 14.12 L63.75 15.36 L63.84 16.76 L63.91 18.41 L63.96 20.44 L63.99 23.24 Z" fill="#25205B"></path><path d="M44 16H30A14 14 0 0 0 16 30V34A14 14 0 0 0 30 48H44A4 4 0 0 0 44 40H30A6 6 0 0 1 24 34V30A6 6 0 0 1 30 24H44A4 4 0 0 0 44 16Z" fill="#FCFBFA"></path><circle cx="36" cy="32" r="6" fill="#F98C10"></circle></g><g transform="translate(83.2 14.728767123287671) scale(0.043835616438356165)"><path d="M0 759V29H139V759ZM119 759V639H450V759ZM119 448V328H424V448ZM119 149V29H442V149ZM573 959V216H683V450.5L666 449.5Q670 366 700.5 310.2Q731 254.5 782 226.8Q833 199 896 199Q953.5 199 1000.2 220.2Q1047 241.5 1080.5 279.2Q1114 317 1131.8 367.5Q1149.5 418 1149.5 476.5V497.5Q1149.5 556 1132 606.8Q1114.5 657.5 1081.2 695.8Q1048 734 1001 755.5Q954 777 895.5 777Q835 777 784.5 751.8Q734 726.5 702.8 672.8Q671.5 619 668 534.5L712 601.5V959ZM860.5 660Q905.5 660 939.2 638Q973 616 991.8 576.8Q1010.5 537.5 1010.5 487Q1010.5 435.5 991.8 397.2Q973 359 939.5 337.5Q906 316 860.5 316Q820 316 785.2 334.2Q750.5 352.5 729.2 387.2Q708 422 708 471V511Q708 558 730 591.2Q752 624.5 787 642.2Q822 660 860.5 660ZM1286 759V216H1425V759ZM1210 320V216H1425V320ZM1833.5 778Q1762 778 1707 755Q1652 732 1614 692.8Q1576 653.5 1556.5 603.5Q1537 553.5 1537 499V478Q1537 422.5 1557.2 371.8Q1577.5 321 1616 281.8Q1654.5 242.5 1709.5 219.8Q1764.5 197 1833.5 197Q1903 197 1957.8 219.8Q2012.5 242.5 2051 281.8Q2089.5 321 2109.8 371.8Q2130 422.5 2130 478V499Q2130 553.5 2110.5 603.5Q2091 653.5 2053 692.8Q2015 732 1960 755Q1905 778 1833.5 778ZM1833.5 659Q1884.5 659 1919.5 636.8Q1954.5 614.5 1972.8 575.8Q1991 537 1991 488.5Q1991 438.5 1972.2 399.8Q1953.5 361 1918.2 338.5Q1883 316 1833.5 316Q1784.5 316 1749 338.5Q1713.5 361 1694.8 399.8Q1676 438.5 1676 488.5Q1676 537 1694.2 575.8Q1712.5 614.5 1747.8 636.8Q1783 659 1833.5 659ZM2414 759 2517 234H2677L2796 759H2686L2565 237H2623L2515.5 759ZM2372.5 759 2372 645H2482.5L2483 759ZM2317 759 2169 216H2304L2444.5 759ZM2720.5 759 2721 645H2831.5L2831 759ZM2765 759 2889.5 216H3016L2884.5 759Z" fill="#25205B"></path><circle cx="1336.5" cy="75.5" r="78" fill="#F98C10"></circle></g></svg>
