<!-- RECRAFT VECTORIZE from logo/current/wordmark.png -->
<svg version="1.1" xmlns="http://www.w3.org/2000/svg" style="display: block;" viewBox="0 0 2048 490" width="1069" height="256" preserveAspectRatio="none">
<defs>
	<linearGradient id="Gradient1" gradientUnits="userSpaceOnUse" x1="33.192" y1="61.7447" x2="386.31" y2="427.666">
		<stop class="stop0" offset="0" stop-opacity="1" stop-color="rgb(63,79,200)"/>
		<stop class="stop1" offset="1" stop-opacity="1" stop-color="rgb(123,76,238)"/>
	</linearGradient>
</defs>
<path transform="translate(0,0)" fill="url(#Gradient1)" d="M 0 115.361 L 0.202734 115.051 C 4.57197 108.296 6.643 96.3553 10.6131 88.2703 C 22.5749 63.9104 49.3557 42.702 76.0661 37.4886 C 95.2574 33.7428 120.845 34.9099 140.552 34.9677 L 223.029 34.9908 L 291.521 34.961 C 322.556 34.9631 344.404 32.3425 371.529 50.423 C 392.512 64.4093 410.22 86.5734 417.301 111.376 C 420.946 126.76 419.96 157.218 419.975 174.245 L 419.999 260.618 L 420.022 331.274 C 420.003 361.914 422.51 383.037 404.708 409.945 C 389.716 432.604 368.777 447.401 341.876 453.322 C 329.423 455.793 304.719 455.194 290.959 455.208 L 214.538 455.245 L 134.352 455.229 C 101.361 455.206 77.565 458.583 48.5977 439.512 C 30.4024 427.478 16.0819 410.431 7.36674 390.432 C 4.65213 384.108 4.20649 378.199 0.532759 372.543 L 0.346222 372.25 C 0.230815 372.087 0.115407 371.924 0 371.761 L 0 115.361 z"/>
<path transform="translate(0,0)" fill="rgb(254,254,254)" d="M 105.936 146.12 C 115.513 145.111 132.105 146.887 142.631 146.909 C 163.078 147.155 183.521 146.608 203.965 147.118 C 211.655 147.31 215.134 147.766 216.261 156.347 C 217.164 163.225 217.379 171.553 213.093 177.404 C 208.869 180.502 142.41 179.105 131.915 179.064 L 131.917 228.938 C 138.825 229.07 203.594 218.573 180.809 257.321 C 176.98 263.832 143.062 261.037 131.98 260.937 L 131.898 304.25 L 132.058 309.028 C 137.265 314.746 203.072 306.964 212.82 312.681 C 218.479 318.927 220.253 342.637 206.884 342.943 C 179.269 343.576 151.785 341.867 124.18 343.98 C 114.799 344.698 105.754 344.855 98.431 338.205 C 94.199 324.362 99.2194 264.886 97.2601 244.333 C 95.0491 221.141 100.217 185.337 97.1745 160.388 C 96.1393 151.902 98.8107 149.99 105.936 146.12 z"/>
<path transform="translate(0,0)" fill="rgb(254,254,254)" d="M 245.8 138.16 C 331.577 133.325 407.877 228.715 347.589 304.314 C 322.777 335.427 293.385 347.315 254.839 351.979 C 233.962 351.579 226.566 334.695 244.818 322.453 C 250.895 321.99 256.965 321.693 263.014 320.914 C 299.413 316.229 336.298 287.136 338.999 248.698 C 341.456 213.747 311.525 183.786 280.358 173.216 C 268.191 169.089 257.738 168.487 245.09 167.675 C 229.839 158.837 231.594 146.852 245.8 138.16 z"/>
<path transform="translate(0,0)" fill="rgb(254,254,254)" d="M 247.804 174.205 C 356.026 177.952 364.395 306.349 249.768 315.58 C 242.459 314.404 235.586 308.06 238.482 300.012 C 241.767 290.882 255.807 292.089 263.971 290.494 C 269.083 289.445 274.055 287.801 278.785 285.594 C 326.647 263.121 315.356 214.031 268.693 200.778 C 261.203 198.651 242.003 197.552 238.678 190.563 C 235.061 182.959 241.29 177.179 247.804 174.205 z"/>
<path transform="translate(0,0)" fill="rgb(12,17,32)" d="M 891.918 0 L 1123.49 0 C 1125.58 3.71279 1129.01 9.6051 1130.81 13.3773 C 1152.64 61.7638 1153.13 122.121 1138.24 172.659 C 1121.19 230.574 1066.74 256.437 1010.1 238.971 C 985.334 231.331 972.932 215.598 961.581 193.171 C 961.615 206.91 963.679 221.698 963.727 235.663 C 963.85 271.774 964.093 308.019 963.868 344.12 C 952.362 345.995 903.5 345.904 891.671 343.771 C 892.076 301.523 892.181 259.274 891.986 217.025 L 891.918 0 z M 1027.41 193.824 C 1075.76 183.131 1074.87 124.155 1073.4 84.9135 C 1073.13 77.6869 1071.99 70.9707 1070.4 63.9942 C 1062.14 27.8146 1047.28 10.9514 1008.99 14.1322 C 957.203 27.8904 957.871 105.765 967.331 147.122 C 974.412 178.077 995.05 196.156 1027.41 193.824 z"/>
<path transform="translate(0,0)" fill="rgb(12,17,32)" d="M 1384.9 0 L 1588.13 0 C 1590.59 3.61893 1594.41 7.54248 1597.25 11.6762 C 1607.45 26.5661 1615.28 45.2463 1618.08 63.1661 C 1624.91 106.922 1623.13 155.065 1596.85 192.461 C 1577.11 220.548 1549.87 235.619 1516.64 241.365 C 1478.33 248.004 1434.71 243.541 1402.04 220.875 C 1342.66 179.676 1336.92 86.1578 1367.16 25.7557 C 1371.79 16.5182 1379.02 8.47548 1384.9 0 z M 1498.6 193.26 C 1514.72 187.757 1529.55 180.012 1536.78 163.565 C 1550.84 131.575 1550.27 84.1483 1540.16 51.2488 C 1530.24 18.9542 1504.84 12.4033 1475.03 14.2553 C 1420.43 24.0595 1420.81 93.8292 1426.94 136.432 C 1432.94 178.122 1457.02 197.796 1498.6 193.26 z"/>
<path transform="translate(0,0)" fill="rgb(12,17,32)" d="M 1657.56 0 L 1722.64 0 C 1732.9 44.8873 1742.09 90.2299 1752.05 135.207 C 1754.88 147.969 1756.39 161.78 1759.3 174.092 C 1765.97 153.065 1773.34 118.491 1779.15 95.6063 L 1795.65 29.6516 C 1797.92 20.5113 1801.35 8.94016 1803.11 0 L 1895.3 0 C 1904.72 38.896 1914.38 77.7325 1924.29 116.507 C 1927.94 131.144 1933.79 161.112 1939.13 173.589 C 1948.03 117.383 1964.62 56.4881 1975.91 0 L 2040.54 0 C 2037.49 15.1479 2031.69 35.6098 2027.7 50.74 L 2004.31 139.312 L 1988.88 198.794 C 1985.83 210.63 1981.83 228.061 1977.35 239.036 C 1953.74 239.44 1926.26 239.357 1902.74 238.91 C 1894.01 205.589 1885.78 168.824 1877.44 135.302 C 1868.85 100.772 1854.87 54.6352 1851.79 20.0967 C 1844.62 34.0867 1839.44 61.7113 1835.01 78.6567 L 1807.29 185.593 C 1802.7 203.528 1798.98 221.323 1793.74 239.112 C 1769.56 239.04 1742.5 239.822 1718.65 238.873 C 1715.23 229.263 1710.86 208.079 1708.05 197.267 L 1683.98 104.209 L 1667.35 40.8749 C 1663.86 27.6856 1659.64 13.3748 1657.56 0 z"/>
<path transform="translate(0,0)" fill="rgb(12,17,32)" d="M 541.04 0 L 615.759 0 C 615.826 10.5466 615.644 21.0933 615.215 31.6314 C 622.733 30.7078 653.399 31.9349 662.75 31.6617 C 707.388 30.3578 757.65 33.6715 801.983 30.973 C 803.137 43.3713 802.768 77.8979 802.32 90.9857 C 753.584 89.6494 703.891 91.8744 655.063 90.9422 C 641.572 90.6846 628.781 90.9713 615.271 89.7705 C 616.455 119.1 616.008 151.349 615.27 180.724 C 660.18 182.279 706.233 180.242 751.26 181.025 C 776.214 181.459 802.519 181.406 827.348 179.871 C 828.149 191.406 828.217 228.752 827.094 239.837 C 819.312 238.475 798.238 238.943 789.375 238.948 L 720.948 238.995 L 605.929 238.948 C 587.249 238.943 559.284 238.187 541.149 239.609 C 539.932 216.864 540.961 182.382 540.966 158.666 L 541.04 0 z"/>
<path transform="translate(0,0)" fill="rgb(12,17,32)" d="M 1213.93 0 L 1284.23 0 L 1284.23 239.065 C 1261.79 239.785 1236.63 238.968 1213.53 239.382 C 1213.09 213.538 1213.77 184.847 1213.77 158.725 L 1213.93 0 z"/>
</svg>