<!-- RECRAFT VECTORIZE from logo/options-v3/ai-refs/AI8-feishu-adjacent-gemini.png -->
<svg version="1.1" xmlns="http://www.w3.org/2000/svg" style="display: block;" viewBox="0 0 2048 2048" width="1024" height="1024" preserveAspectRatio="none">
<path transform="translate(0,0)" fill="rgb(71,73,184)" d="M 0 0 L 331.214 0 L 1715.63 0 L 2048 0 L 2048 330.19 L 2048 1720.61 L 2048 2048 L 1722.92 2048 L 323.393 2048 L 0 2048 L 0 1718.93 L 0 332.264 L 0 0 z"/>
<path transform="translate(0,0)" fill="rgb(254,254,254)" d="M 0 0 L 331.214 0 C 325.479 1.07822 319.641 2.02497 313.843 2.70539 C 212.403 14.6093 119.257 73.3689 61.7458 157.311 C 34.4286 197.158 15.5744 242.184 6.34889 289.606 C 3.68471 303.403 2.82193 319.599 0 332.264 L 0 0 z"/>
<path transform="translate(0,0)" fill="rgb(254,254,254)" d="M 1715.63 0 L 2048 0 L 2048 330.19 C 2045.1 316.241 2044.07 301.039 2040.95 286.01 C 2030.93 238.409 2011.45 193.307 1983.66 153.381 C 1935.27 84.3284 1864.26 34.365 1782.92 12.1359 C 1757.69 5.40002 1740.18 4.36163 1715.63 0 z"/>
<path transform="translate(0,0)" fill="rgb(254,254,254)" d="M 0 1718.93 C 4.08556 1742.07 5.43056 1762.68 11.604 1785.8 C 47.7065 1920.95 168.256 2028.41 307.579 2045.45 C 312.422 2046.04 318.712 2046.79 323.393 2048 L 0 2048 L 0 1718.93 z"/>
<path transform="translate(0,0)" fill="rgb(254,254,254)" d="M 1722.92 2048 C 1727.16 2047.02 1733.73 2046.19 1738.15 2045.69 C 1877.54 2029.84 1999.09 1923.22 2035.94 1788.29 C 2042.25 1765.18 2044.1 1744.02 2048 1720.61 L 2048 2048 L 1722.92 2048 z"/>
<path transform="translate(0,0)" fill="rgb(254,254,254)" d="M 1206.69 657.256 C 1334.61 647.001 1445.98 725.952 1510.9 831.16 C 1529.67 861.581 1543.71 895.378 1558.66 927.85 L 1623.93 1071.23 L 1669.23 1170.54 C 1683.75 1202.02 1701.27 1236.07 1709.31 1269.45 C 1720.27 1314.28 1720.2 1361.1 1709.1 1405.89 C 1703.14 1429.05 1694.15 1451.32 1682.35 1472.12 C 1666.94 1499.32 1640.85 1531.92 1621.63 1557.28 C 1600.61 1585.02 1575.7 1621.5 1551.72 1645.44 C 1535.93 1661.18 1518.16 1674.82 1498.87 1686.01 C 1459.29 1709.81 1414.18 1722.87 1368.01 1723.88 C 1329.91 1724.51 1300.2 1716.01 1263.78 1707.59 L 1175.29 1686.66 C 1119.05 1673.39 1057.83 1660.19 1002.26 1645.93 C 1007.66 1644.86 1013.07 1643.39 1018.39 1641.92 C 1162.64 1601.99 1280.83 1498.19 1327.44 1354.66 C 1334.37 1332.64 1339.87 1310.2 1343.88 1287.47 C 1345.5 1278.21 1346.61 1262.18 1349.18 1254.09 C 1351.94 1245.35 1361.87 1229.06 1366.72 1220.52 C 1374.33 1207.41 1383.24 1193.59 1388.4 1179.13 C 1401.69 1141.88 1392.07 1101.01 1363.79 1073.38 C 1354.25 1064.06 1338.42 1055.93 1335.63 1043.32 C 1334.12 1039.39 1333.67 1018.54 1336.32 1015.86 C 1355.22 996.713 1369.5 987.74 1384.27 964.184 C 1392.2 979.816 1464.07 1134.97 1464.1 1142.34 C 1464.2 1149.52 1463.87 1156.69 1463.11 1163.83 C 1453.02 1259.38 1372.38 1323.68 1338.02 1409.58 C 1314.36 1468.73 1284.8 1532.95 1234.28 1574.15 C 1288.27 1585.83 1347.27 1609.11 1401.01 1594.35 C 1422.15 1588.66 1441.87 1578.6 1458.89 1564.82 C 1463.73 1560.83 1475.05 1550.39 1478.85 1545.53 C 1494.5 1525.52 1510.69 1504.16 1525.74 1483.72 C 1541.78 1461.92 1561.6 1437.76 1575.35 1415 C 1596.39 1380.17 1600.83 1330.4 1589.94 1291.54 C 1584.09 1270.66 1571.52 1245.89 1562.03 1225.59 L 1525.38 1145.63 L 1457.09 994.67 C 1436.45 949.239 1418.69 903.278 1386.39 864.856 C 1380.77 858.173 1370.42 847.941 1366.07 841.218 C 1349.19 815.132 1338.43 784.984 1308.93 769.808 C 1262.22 744.726 1239.77 761.219 1196.87 773.63 C 1166.23 763.956 1160.25 752.61 1155.88 722.149 C 1150.81 686.899 1173.41 663.088 1206.69 657.256 z"/>
<path transform="translate(0,0)" fill="rgb(254,254,254)" d="M 536.706 738.972 C 535.887 744.114 534.025 749.558 532.386 754.549 C 506.517 833.315 500.675 919.422 518.792 1000.83 C 536.513 1077.57 577.928 1146.79 637.172 1198.68 C 646.383 1206.78 656.044 1214.36 666.108 1221.37 C 670.125 1224.18 687.278 1235.41 689.564 1238.41 C 706.208 1260.22 710.843 1277.01 735.839 1292.1 C 760.028 1306.71 787.188 1311.87 814.858 1303.59 C 827.196 1299.9 838.514 1293.88 850.971 1291.1 L 852.496 1290.76 C 854.188 1291.21 855.369 1291.5 856.961 1292.12 C 902.588 1309.79 881.168 1326.97 898.621 1362.32 C 913.716 1392.89 933.023 1406.81 963.216 1418.12 C 902.028 1434.07 838.996 1433.77 776.209 1429.5 C 754.217 1411.29 734.862 1389.91 720.799 1365.11 C 700.524 1329.34 686.91 1295.36 660.137 1262.96 C 636.406 1234.24 615.44 1223.45 586.638 1202.73 C 549.642 1176.12 526.421 1138.43 505.153 1099.21 C 495.292 1137.63 481.551 1177.81 471.093 1216.36 C 465.961 1235.28 458.896 1254.57 455.673 1273.94 C 453.398 1287.29 452.755 1300.87 453.758 1314.38 C 457.406 1363.25 480.659 1408.56 518.229 1440.03 C 540.631 1458.85 567.189 1472.06 595.709 1478.58 C 626.973 1485.59 678.711 1482.79 712.855 1483.26 C 746.648 1483.88 780.445 1484.24 814.243 1484.33 C 839.829 1484.54 865.733 1485.18 891.233 1483.17 C 937.085 1481.77 993.153 1467.05 1033.42 1445.72 C 1040.36 1443.73 1069.56 1420.36 1074.02 1419.85 C 1112.33 1415.46 1148.09 1382.72 1155.27 1344.62 C 1160.81 1315.26 1161.49 1299.51 1195.87 1291.06 C 1203.6 1292.69 1209.24 1295.37 1215.99 1299.17 C 1277.04 1333.49 1258.28 1385.51 1226.76 1433.33 C 1156.43 1540.04 1032.76 1598.55 907.658 1607.79 C 883.962 1609.55 860.844 1608.98 837.203 1609 C 806.755 1609.26 776.305 1609.27 745.857 1609.03 L 664.664 1608.43 C 641.192 1608.31 618.564 1608.83 595.208 1605.71 C 515.197 1594.53 442.869 1552.11 394.044 1487.75 C 345.483 1423.95 322.306 1343.93 333.358 1264.02 C 336.544 1240.98 343.146 1220.33 349.415 1198.06 L 379.456 1094.08 L 419.518 951.847 C 445.482 859.272 454.582 801.145 536.706 738.972 z"/>
<path transform="translate(0,0)" fill="rgb(254,254,254)" d="M 907.54 325.427 C 919.854 324.339 942.13 324.932 954.832 324.933 L 1042.17 324.975 L 1135.42 324.94 C 1158.76 324.933 1182.42 324.314 1205.62 326.758 C 1278.02 334.106 1344.44 370.226 1389.95 427.007 C 1409.61 451.563 1439.05 507.403 1455.77 537.093 L 1492.4 602.071 C 1506.97 627.96 1519.96 649.502 1529.27 677.976 C 1539.81 710.249 1543.43 744.383 1539.89 778.149 C 1493.91 714.471 1438.12 662.647 1365.76 630.076 C 1288.54 595.367 1201.02 591.32 1120.93 618.754 C 1110.36 622.267 1100.09 626.299 1089.95 630.709 C 1081.06 634.572 1069.54 642.448 1060.42 643.723 C 1026.83 648.417 983.519 639.145 951.756 651.232 C 922.511 662.707 900.132 686.584 892.924 717.44 C 890.564 727.543 889.193 740.182 885.27 749.492 C 879.491 763.201 863.675 769.106 850.644 773.797 C 813.89 764.697 817.841 754.461 771.569 758.268 C 783.6 727.9 793.745 695.778 805.953 665.606 C 857.864 630.242 943.368 613.011 1004.05 604.98 C 1033.79 601.045 1062.18 598.584 1092.28 593.254 C 1141.92 584.465 1189.31 572.229 1238.99 563.679 C 1272.56 558.526 1302.51 560.502 1335.6 566.782 C 1314.62 532.41 1306.05 506.652 1272.75 479.574 C 1226.08 441.621 1186.58 443.758 1130.24 443.573 L 1027.15 443.722 L 953.819 443.852 C 934.512 443.898 917.165 443.258 897.927 446.152 C 814.744 458.665 800.298 529.21 775.637 595.959 C 757.196 645.201 739.004 694.536 721.062 743.962 C 709.358 776.522 697.948 819.813 678.972 847.741 C 639.611 905.668 644.234 965.072 703.695 1006.61 C 713.235 1008.27 715.861 1039.41 711.937 1045.51 C 703.655 1058.4 678.589 1079.21 667.387 1092.4 C 666.033 1092.54 664.678 1092.66 663.321 1092.77 C 630.696 1095.42 611.003 1083.68 595.483 1054.66 C 555.701 980.29 554.668 890.502 572.897 809.801 C 581.287 772.654 595.185 735.478 608.271 699.709 L 645.182 598.554 L 674.74 518.341 C 681.863 498.693 688.565 477.758 697.504 458.993 C 707.009 439.036 719.26 420.506 733.9 403.944 C 782.078 349.619 836.869 329.678 907.54 325.427 z"/>
<path transform="translate(0,0)" fill="rgb(254,254,254)" d="M 1171.58 1006.15 C 1212.19 1022.21 1239.83 1054.59 1267.41 1086.59 C 1284.02 1105.85 1337.28 1125.8 1320.39 1158.3 C 1308.8 1180.6 1296.24 1203.34 1282.72 1224.53 C 1272.11 1240.9 1254.66 1236.5 1239.76 1230.51 C 1227.81 1225.45 1215.66 1220.17 1203.48 1215.58 C 1179.57 1206.55 1172.15 1220.15 1153.25 1231.74 C 1142.52 1238.32 1133.16 1243.12 1121.86 1248.7 C 1131 1211.75 1133.43 1178.78 1125.38 1141.33 C 1165.67 1101.21 1178.23 1062.1 1171.58 1006.15 z"/>
<path transform="translate(0,0)" fill="rgb(254,254,254)" d="M 1254.04 828.125 C 1285.42 826.022 1288.65 854.938 1303.58 875.912 C 1309.62 885.949 1315.41 896.086 1320.19 906.754 C 1339.47 949.708 1258.25 959.578 1262.57 998.275 C 1264.52 1015.76 1264.89 1030.77 1264.12 1048.56 C 1240.87 1023.11 1224.06 1008.61 1193.63 991.99 C 1184.32 986.879 1173.87 982.873 1164.01 978.808 L 1162.74 975.997 C 1141.33 928.687 1115.81 906.595 1067.72 888.503 C 1092.61 866.128 1132.81 850.281 1166.58 848.735 C 1173.8 848.404 1188.09 852.346 1195.08 850.429 C 1215.6 844.796 1233.07 834.388 1254.04 828.125 z"/>
<path transform="translate(0,0)" fill="rgb(254,254,254)" d="M 981.32 715.213 C 988.773 714.705 1003.34 714.374 1010.67 714.878 C 1027.47 716.034 1061.37 710.944 1075.07 718.934 C 1079.44 721.446 1082.95 725.225 1085.13 729.771 C 1090.99 741.707 1092.74 777.801 1097.26 793.162 C 1101.98 809.217 1114.77 811.088 1128.92 818.126 C 1137.19 822.238 1142.13 824.44 1150.14 829.185 C 1105.86 834.984 1072.15 852.333 1040 883.006 C 987.281 881.802 957.398 890.912 917.899 926.427 C 912.9 894.302 913.447 867.019 924.754 836.169 C 926.793 830.605 930.68 820.581 934.106 815.718 C 940.199 807.524 948.424 803.897 950.982 793.193 C 955.782 773.112 954.83 750.295 962.164 731.008 C 965.453 722.359 973.106 718.165 981.32 715.213 z"/>
<path transform="translate(0,0)" fill="rgb(254,254,254)" d="M 783.492 1020.44 C 790.549 1027.01 798.888 1036.31 806.497 1043.47 C 833.207 1068.58 852.976 1077.52 885.896 1090.2 C 907.023 1130.29 928.17 1152.91 970.258 1171.11 C 945.908 1191.65 908.979 1202.97 878.24 1208.71 C 868.5 1210.05 857.612 1211.37 848.665 1214.29 C 815.236 1225.19 779.779 1258.62 757.437 1211.4 C 747.998 1193.87 736.15 1175.37 727.732 1157.57 C 708.268 1116.41 788.833 1102.6 786.518 1067.74 C 785.421 1051.24 782.521 1038.3 783.492 1020.44 z"/>
<path transform="translate(0,0)" fill="rgb(254,254,254)" d="M 904.351 826.089 C 904.576 830.346 897.475 849.926 896.339 856.222 C 890.03 891.21 892.431 915.22 899.836 948.873 C 875.497 984.801 869.557 1020.38 877.531 1062.54 C 839.699 1047.87 809.969 1021.01 786.59 988.161 C 773.485 965.206 714.923 937.958 725.266 911.883 C 733.65 890.747 753.443 860.096 765.308 839.591 C 781.808 811.075 827.221 844.363 847.949 849.84 C 869.077 855.583 886.185 836.439 904.351 826.089 z"/>
<path transform="translate(0,0)" fill="rgb(254,254,254)" d="M 1105.03 1157.14 C 1108.73 1160.99 1107.62 1197.45 1107.03 1204.21 C 1105.49 1221.79 1100.69 1239.18 1097.3 1256.54 C 1092.05 1283.39 1092.95 1313.67 1082.41 1338.92 C 1081.21 1341.69 1071.11 1348.19 1067.43 1348.48 C 1040.79 1350.59 1010.04 1350.13 983.246 1348.96 C 979.459 1348.37 975.582 1346.61 972.451 1344.43 C 957.787 1334.25 957.65 1305.68 955.295 1288.82 C 950.435 1255.43 942.487 1255.89 913.877 1242.75 C 907.092 1239.63 898.108 1233.71 891.692 1229.48 C 931.245 1220.57 965.74 1205.91 996.788 1179.08 C 1038.9 1184.96 1069.14 1179.47 1105.03 1157.14 z"/>
</svg>