<!-- RECRAFT VECTORIZE from logo/options/A-portal-E.png -->
<svg version="1.1" xmlns="http://www.w3.org/2000/svg" style="display: block;" viewBox="0 0 2048 2048" width="512" height="512" preserveAspectRatio="none">
<defs>
	<linearGradient id="Gradient1" gradientUnits="userSpaceOnUse" x1="453.22" y1="1654.36" x2="1593.43" y2="392.03">
		<stop class="stop0" offset="0" stop-opacity="1" stop-color="rgb(90,73,134)"/>
		<stop class="stop1" offset="1" stop-opacity="1" stop-color="rgb(95,90,184)"/>
	</linearGradient>
	<linearGradient id="Gradient2" gradientUnits="userSpaceOnUse" x1="400.438" y1="1644.33" x2="2045.83" y2="4.8363">
		<stop class="stop0" offset="0" stop-opacity="1" stop-color="rgb(18,19,65)"/>
		<stop class="stop1" offset="1" stop-opacity="1" stop-color="rgb(102,81,152)"/>
	</linearGradient>
</defs>
<path transform="translate(0,0)" fill="url(#Gradient2)" d="M 0 0 L 2048 0 L 2048 2048 L 598.837 2048 L 0 2048 L 0 1385.23 L 0 0 z"/>
<path transform="translate(0,0)" fill="rgb(11,13,57)" d="M 0 1385.23 C 4.88528 1395.47 -2.95291 1440.98 2.42754 1451.3 L 3.29539 1451.35 C 4.13289 1446.5 3.06148 1410.25 3.10601 1403.12 C 3.45777 1363.82 3.55966 1324.51 3.41167 1285.2 C 3.42749 1268.51 2.56979 1242.69 3.55644 1227.1 L 3.82355 1228.34 C 4.52154 1231.43 6.37832 1236.4 7.44935 1239.52 C 10.1632 1239.07 11.1519 1238.32 13.4516 1240.47 C 19.263 1245.91 25.0388 1252.27 30.9685 1257.52 L 85.0355 1305.45 C 101.441 1320.08 121.557 1332.39 135.043 1349.95 C 145.546 1363.64 153.215 1379.5 164.618 1392.41 C 182.035 1412.13 202.6 1428.46 222.093 1446 C 233.698 1456.44 244.43 1467.78 255.891 1478.36 C 273.513 1494.64 290.807 1509.6 307.727 1526.65 C 315.674 1534.66 320.142 1558.11 333.529 1571 C 344.021 1581.1 360.302 1588.84 373.175 1595.58 C 376.847 1595.35 376.937 1595.21 380.27 1594.09 L 382.658 1594.75 L 382.747 1598.67 C 386.682 1600.3 392.921 1603.55 396.674 1603.01 C 401.033 1605.58 404.809 1623.08 410.683 1630.81 L 409.493 1634.5 C 410.506 1635.98 413.546 1639.53 413.622 1639.64 C 421.92 1653.71 418.661 1662.21 430.889 1675.53 C 438.019 1683.3 451.531 1688.34 456.319 1693.47 C 468.704 1706.74 460.72 1706.91 478.397 1716.15 C 491.145 1722.81 507.452 1741.11 519.896 1749.59 C 538.209 1766.73 555.893 1787.53 572.505 1806.29 C 577.718 1812.18 583.389 1817.67 588.451 1823.55 C 597.15 1833.66 608.637 1850.79 618.479 1859.64 C 635.506 1874.95 659.79 1887.81 675.692 1904.07 C 687.001 1915.63 697.806 1931.21 708.077 1943.81 C 709.624 1945.71 714.932 1948.69 716.709 1950.66 C 722.26 1956.81 727.867 1962.65 734.021 1968.24 C 747.058 1980.08 759.984 1992.47 772.518 2004.67 C 783.436 2015.3 789.717 2031.63 797.62 2037.7 L 797.536 2039.03 L 795.725 2040.46 L 796.442 2041.44 L 799.842 2041.51 L 800.73 2042.93 L 800.212 2044.9 C 737.275 2046.04 673.909 2043.92 610.938 2045.2 C 607.618 2045.27 601.728 2046.36 598.837 2048 L 0 2048 L 0 1385.23 z"/>
<path transform="translate(0,0)" fill="url(#Gradient1)" d="M 643.8 324.444 C 664.868 323.318 687.451 323.986 708.677 323.979 L 817.132 323.982 L 1135.68 323.976 L 1318.92 323.957 C 1360.73 323.929 1415.82 321.82 1456.01 329.711 C 1515.33 341.255 1570.38 368.795 1615.19 409.354 C 1678.68 467.702 1717.89 551.318 1719.51 637.185 C 1720.62 696.296 1719.98 756.612 1719.92 815.797 L 1720.01 1129.71 L 1720.04 1318.11 C 1720.04 1361.53 1722.32 1420.34 1714.1 1461.61 C 1702.74 1520.28 1675.27 1574.62 1634.78 1618.55 C 1575.66 1682.79 1493.18 1720.53 1405.92 1723.25 C 1386.87 1724.62 1365.77 1723.97 1346.57 1723.98 L 1251.51 1724 L 956.787 1724 L 745.596 1724.01 C 700.785 1724.04 634.324 1726.39 591.473 1718.14 C 533.968 1706.95 480.502 1680.59 436.616 1641.78 C 371.738 1584.71 332.698 1503.82 328.377 1417.52 C 327.304 1397.74 327.82 1375.06 327.836 1355.13 L 327.765 1259.79 L 327.844 944.021 L 327.885 738.01 C 327.9 692.221 325.315 626.854 333.991 583.547 C 345.884 526.196 372.895 473.066 412.223 429.662 C 472.645 362.965 554.595 328.505 643.8 324.444 z"/>
<path transform="translate(0,0)" fill="rgb(254,254,254)" d="M 1204.4 733.412 C 1204.71 733.366 1205.01 733.319 1205.31 733.272 C 1258.94 727.837 1312.62 742.96 1355.52 775.585 C 1533.35 908.321 1497.21 1282.89 1250.04 1316.75 C 1024.61 1336.56 940.578 1071.41 1008.1 895.817 C 1041.16 809.85 1109.84 742.151 1204.4 733.412 z"/>
<path transform="translate(0,0)" fill="rgb(93,83,162)" d="M 1212.58 814.383 C 1269.62 805.503 1327.37 845.862 1353.18 894.667 C 1316.39 853.311 1278.33 844.455 1224.41 847.421 C 1291.38 858.753 1328.74 901.101 1343.62 967.018 C 1360.15 1040.25 1347.04 1137.52 1281.2 1183.45 C 1263.94 1195.48 1246.34 1199.17 1226.12 1203.56 C 1244.57 1204.78 1264.8 1203.97 1282.85 1199.83 C 1317.85 1190.25 1331.44 1178.77 1355.29 1153.26 C 1333.01 1194.72 1292.98 1228.37 1245.48 1234.51 C 1138.88 1247.41 1081.77 1155.98 1070.06 1062 C 1057.66 962.552 1096.06 827.176 1212.58 814.383 z"/>
<path transform="translate(0,0)" fill="rgb(254,254,254)" d="M 638.033 734.019 C 780.994 733.842 926.059 735.423 1068.79 733.746 C 1038.46 755.679 1003.59 794.629 986.655 828.03 L 756.991 828.069 L 757.004 969.983 L 938.966 970.002 C 938.284 1000.72 938.73 1033.22 938.64 1064.09 L 756.911 1064.01 L 757.032 1131.5 L 757.082 1220 L 986.261 1220.04 C 1002.39 1253.39 1038.2 1293.79 1068.95 1314.03 L 638.061 1313.96 L 638.033 734.019 z"/>
</svg>