<!-- RECRAFT VECTORIZE from logo/options/B-gateway-e.png -->
<svg version="1.1" xmlns="http://www.w3.org/2000/svg" style="display: block;" viewBox="0 0 2048 2048" width="512" height="512" preserveAspectRatio="none">
<defs>
	<linearGradient id="Gradient1" gradientUnits="userSpaceOnUse" x1="332.02" y1="689.933" x2="889.515" y2="1366.11">
		<stop class="stop0" offset="0" stop-opacity="1" stop-color="rgb(14,36,69)"/>
		<stop class="stop1" offset="1" stop-opacity="1" stop-color="rgb(47,50,135)"/>
	</linearGradient>
	<linearGradient id="Gradient2" gradientUnits="userSpaceOnUse" x1="910.585" y1="809.481" x2="1509.13" y2="1435.27">
		<stop class="stop0" offset="0" stop-opacity="1" stop-color="rgb(33,44,105)"/>
		<stop class="stop1" offset="1" stop-opacity="1" stop-color="rgb(64,58,177)"/>
	</linearGradient>
	<linearGradient id="Gradient3" gradientUnits="userSpaceOnUse" x1="1082.32" y1="1113.44" x2="1879.62" y2="1948.29">
		<stop class="stop0" offset="0" stop-opacity="1" stop-color="rgb(45,51,132)"/>
		<stop class="stop1" offset="1" stop-opacity="1" stop-color="rgb(87,65,233)"/>
	</linearGradient>
	<linearGradient id="Gradient4" gradientUnits="userSpaceOnUse" x1="155.472" y1="110.946" x2="1261.67" y2="1274.53">
		<stop class="stop0" offset="0" stop-opacity="1" stop-color="rgb(5,33,50)"/>
		<stop class="stop1" offset="1" stop-opacity="1" stop-color="rgb(50,51,143)"/>
	</linearGradient>
</defs>
<path transform="translate(0,0)" fill="url(#Gradient4)" d="M 0 0 L 405.123 0 L 1640.04 0 L 2048 0 L 2048 414.254 L 2048 1640.73 L 2048 2048 L 1640.55 2048 L 405.318 2048 L 0 2048 L 0 1636.56 L 0 414.386 L 0 0 z"/>
<path transform="translate(0,0)" fill="url(#Gradient3)" d="M 2044.03 391.579 C 2045.06 397.107 2046.42 410.636 2048 414.254 L 2048 1640.73 L 2048 2048 L 1640.55 2048 L 405.318 2048 C 400.362 2045.61 390.261 2045.18 383.7 2043.85 C 392.025 2040.43 422.779 2046.99 433.587 2044.37 C 440.91 2037.6 446.922 2018.64 452.583 2014.84 C 461.577 2008.81 462.103 2006.7 470.075 1998.34 C 478.193 1989.93 486.54 1981.74 495.106 1973.79 C 503.034 1966.48 519.747 1953.79 525.987 1946.28 C 550.017 1917.36 571.12 1884.03 597.414 1857.35 C 605.981 1849.81 616.145 1843.81 625.224 1836.92 C 635.04 1829.77 644.061 1821.54 653.285 1813.68 C 675.484 1794.88 693.543 1772.19 712.895 1750.65 C 727.685 1734.18 744.287 1718.68 760.109 1703.2 C 761.841 1701.51 772.05 1698.39 774.982 1696.95 C 810.437 1679.44 854.649 1663.61 866.101 1621.18 C 867.926 1615.33 869.401 1608.07 872.775 1602.9 C 887.875 1579.76 912.076 1564.29 932.155 1545.84 C 935.106 1543.13 941.008 1541.45 944.851 1540.41 L 945.678 1540.19 C 948.797 1536.72 962.26 1523.23 962.868 1520.24 L 963.336 1520.63 L 961.383 1519.35 L 961.724 1517.76 L 964.009 1517.28 L 964.683 1515.39 C 959.746 1512.59 958.275 1511.42 953.913 1507.74 L 953.8 1505.75 C 956.769 1507.24 969.974 1516.19 973.853 1518.59 C 987.017 1526.84 1000.68 1534.26 1014.77 1540.82 C 1103.69 1582.36 1204.9 1589.83 1301.58 1578.93 C 1378.31 1570.28 1451.81 1545.1 1518.32 1505.69 C 1530.37 1498.55 1540.02 1488.89 1536.38 1473.76 C 1524.47 1424.16 1512.57 1373.78 1497.46 1325.08 C 1495.45 1316.97 1479.62 1308.36 1472.02 1310.64 C 1454.6 1315.85 1436.89 1326.87 1420.23 1334.5 C 1383.89 1351.44 1345.41 1363.36 1305.85 1369.91 C 1238.22 1380.48 1158.52 1376.38 1102.61 1334 C 1046.14 1291.2 1028.03 1236.67 1018.03 1170.15 C 1026.95 1171.06 1043.23 1170.73 1052.64 1170.74 L 1114.32 1170.68 L 1304.82 1170.6 L 1466.7 1170.47 C 1485.08 1170.47 1528.21 1171.89 1544.56 1169.93 C 1551.66 1169.08 1558.09 1165.32 1562.32 1159.55 C 1569.22 1149.97 1570.19 1128.18 1571.34 1116.22 C 1576.5 1062.4 1576.86 1009.29 1569.85 955.656 C 1571.82 954.217 1572.26 953.95 1574.44 952.864 C 1577.13 956.523 1572.84 960.963 1576.8 966.577 L 1581.37 967.255 C 1582.18 969.23 1581.84 968.112 1582.36 970.658 C 1585.11 958.763 1587.74 963.177 1591.79 952.898 C 1598.27 936.427 1613.22 912.41 1624.51 899.129 C 1637.97 883.299 1655.91 877.028 1670.64 864.516 C 1680.31 855.996 1686.73 844.632 1694.9 835.029 C 1706.61 822.656 1719.63 808.749 1733.01 798.089 C 1741.6 791.25 1745.27 788.664 1752.85 780.167 C 1757.9 774.505 1771.09 767.785 1777.24 761.788 C 1791.18 748.192 1803.03 733.382 1816.23 719.16 C 1827.32 707.496 1841.3 698.817 1852.65 687.675 C 1864.02 676.51 1871.29 658.675 1879.86 646.803 C 1884.95 639.745 1899.97 624.103 1906.25 618.843 C 1915.09 611.439 1919.18 610.605 1928.42 600.966 C 1945.33 583.338 1960.32 561.41 1978.57 545.193 C 1987.93 536.868 2016.58 516.582 2028.59 511.353 C 2032.55 509.631 2033.84 514.128 2038.99 514.464 L 2041.61 510.387 L 2043.19 510.744 L 2044.39 513.668 C 2045.99 485.263 2043.62 451.08 2044.53 422.042 C 2044.82 412.648 2043.42 401.622 2043.97 392.524 L 2044.03 391.579 z"/>
<path transform="translate(0,0)" fill="rgb(254,254,254)" d="M 2048 1640.73 L 2048 2048 L 1640.55 2048 C 1645.04 2046.02 1652.22 2045.58 1657.3 2045 C 1709.42 2039.05 1762.38 2021.54 1808.48 1996.95 C 1914.22 1940.4 1993.46 1844.52 2029.1 1730.03 C 2036.4 1706.29 2041.14 1682.07 2044.66 1657.51 C 2045.47 1651.85 2046.18 1646.18 2048 1640.73 z"/>
<path transform="translate(0,0)" fill="rgb(254,254,254)" d="M 826.184 1350.09 C 828.272 1383.08 826.439 1418.52 827.133 1451.76 C 827.36 1462.6 828.56 1493.25 822.031 1500.92 C 818.604 1504.88 814.208 1507.89 809.272 1509.65 C 795.819 1514.45 764.627 1521.7 749.424 1525.63 L 639.753 1554.37 L 550.676 1577.84 C 534.567 1582.09 517.687 1587.05 501.255 1589.68 C 493.988 1590.84 487.612 1587.77 482.124 1583.29 C 474.417 1576.99 473.731 1568.07 473.131 1558.73 C 472.852 1537.42 473.006 1515.74 473.022 1494.37 L 473.117 1371.2 L 473.084 1000.83 L 473.147 661.691 L 473.063 551.768 C 473.043 531.317 472.833 510.627 473.305 490.203 C 473.456 483.625 474.822 476.462 479.761 471.853 C 488.79 463.429 494.063 462.904 505.458 462.888 C 554.993 462.819 604.529 462.894 654.045 462.88 L 963.524 462.846 L 1120.8 462.784 C 1146.21 462.777 1171.8 462.408 1197.1 463.32 C 1206.65 463.664 1219.64 474.809 1220.59 484.045 C 1222.14 499.089 1221.42 516.015 1221.4 531.219 L 1221.69 623.552 C 1294.28 626.275 1371.36 653.273 1429.18 697.339 C 1512.36 760.726 1555.97 853.552 1569.85 955.656 C 1576.86 1009.29 1576.5 1062.4 1571.34 1116.22 C 1570.19 1128.18 1569.22 1149.97 1562.32 1159.55 C 1558.09 1165.32 1551.66 1169.08 1544.56 1169.93 C 1528.21 1171.89 1485.08 1170.47 1466.7 1170.47 L 1304.82 1170.6 L 1114.32 1170.68 L 1052.64 1170.74 C 1043.23 1170.73 1026.95 1171.06 1018.03 1170.15 C 1028.03 1236.67 1046.14 1291.2 1102.61 1334 C 1158.52 1376.38 1238.22 1380.48 1305.85 1369.91 C 1345.41 1363.36 1383.89 1351.44 1420.23 1334.5 C 1436.89 1326.87 1454.6 1315.85 1472.02 1310.64 C 1479.62 1308.36 1495.45 1316.97 1497.46 1325.08 C 1512.57 1373.78 1524.47 1424.16 1536.38 1473.76 C 1540.02 1488.89 1530.37 1498.55 1518.32 1505.69 C 1451.81 1545.1 1378.31 1570.28 1301.58 1578.93 C 1204.9 1589.83 1103.69 1582.36 1014.77 1540.82 C 1000.68 1534.26 987.017 1526.84 973.853 1518.59 C 969.974 1516.19 956.769 1507.24 953.8 1505.75 C 939.904 1494.94 924.815 1483.38 912.085 1471.24 C 877.969 1438.71 845.283 1393.23 826.184 1350.09 z"/>
<path transform="translate(0,0)" fill="url(#Gradient2)" d="M 1170.15 675.572 C 1189.23 673.609 1220.55 675.201 1239.62 677.397 C 1323.17 687.018 1397.55 723.575 1450.16 790.512 C 1521.23 880.923 1531.93 1007.54 1518.9 1118 L 1132.91 1117.92 L 1041.93 1117.87 C 1028.81 1117.87 993.233 1116.84 982.895 1119.78 C 947.565 1129.86 975.23 1226.36 982.717 1249.01 C 1044.44 1435.76 1234.54 1454.99 1396.25 1400.42 C 1417.93 1392.31 1437.5 1384.42 1457.8 1373.3 C 1465.06 1402.13 1473.55 1439.04 1482.13 1466.92 C 1470.84 1471.5 1452.27 1482.59 1438.2 1488.73 C 1386.62 1511.18 1331.64 1524.84 1275.55 1529.15 C 1162.8 1537.84 1048.25 1520.01 959.721 1444.07 C 873.738 1370.32 837.978 1260.6 829.455 1150.46 C 819.713 1024.57 843.82 890.526 928.585 792.514 C 990.539 720.879 1076.29 682.153 1170.15 675.572 z"/>
<path transform="translate(0,0)" fill="rgb(254,254,254)" d="M 1179.93 775.421 C 1182.3 775.127 1184.39 775.091 1186.79 775.064 C 1240.63 774.447 1291.08 790.76 1330.42 828.465 C 1379.07 875.052 1396.04 945.812 1398.12 1011.07 C 1398.68 1028.62 1390.8 1043.87 1371.69 1044.76 C 1352.02 1045.68 1332.27 1045.21 1312.57 1045.21 L 1188.5 1045.19 L 1059.97 1045.25 C 1038.46 1045.28 1016.33 1046.03 994.954 1044.76 C 963.39 1042.04 968.785 1012.28 971.783 990.79 C 988.054 874.135 1057.03 785.458 1179.93 775.421 z"/>
<path transform="translate(0,0)" fill="rgb(33,44,107)" d="M 1184.73 827.441 C 1217.94 824.663 1258.47 836.634 1284.48 857.531 C 1327.41 892.035 1339.23 941.154 1345.34 992.952 L 1185.5 993.032 L 1023.23 993.093 C 1039.62 903.003 1086.81 833.143 1184.73 827.441 z"/>
<path transform="translate(0,0)" fill="url(#Gradient1)" d="M 524.079 526.607 C 539.075 531.901 553.905 538.136 568.849 543.616 C 638.016 568.98 706.704 597.16 775.967 622.102 C 774.122 653.854 775.449 702.228 775.47 734.608 L 775.645 942.597 L 775.73 1265 C 775.31 1331.69 775.362 1398.39 775.888 1465.08 C 761.036 1467.95 740.269 1474.18 725.219 1478.23 C 658.021 1495.3 590.937 1512.81 523.972 1530.77 C 525.557 1451.99 524.473 1368.84 524.427 1289.87 L 524.384 879.728 L 524.397 647.076 L 524.609 570.375 C 524.629 557.949 525.16 538.566 524.079 526.607 z"/>
<path transform="translate(0,0)" fill="rgb(33,44,107)" d="M 643.885 514.281 L 1170.08 514.774 L 1170 623.478 C 1107.77 626.599 1047.08 643.982 992.638 674.286 C 909.899 722.206 869.678 772.977 825.943 856.01 C 827.454 845.247 827.007 828.674 827 817.336 L 826.98 758.032 L 826.99 660.418 C 826.988 640.773 828.65 609.638 824.202 591.631 C 821.585 581.04 776.16 566.548 764.74 562.221 L 674.513 527.989 C 668.75 525.827 645.979 518.453 643.885 514.281 z"/>
<path transform="translate(0,0)" fill="rgb(254,254,254)" d="M 1640.04 0 L 2048 0 L 2048 414.254 C 2046.42 410.636 2045.06 397.107 2044.03 391.579 C 2043.78 374.805 2032.46 332.252 2027.3 315.748 C 1983.84 176.761 1876.09 67.2169 1737.84 21.4642 C 1717.63 14.8465 1697.92 9.61666 1676.94 6.02473 C 1669.47 4.74687 1645.03 3.12964 1640.04 0 z"/>
<path transform="translate(0,0)" fill="rgb(254,254,254)" d="M 0 0 L 405.123 0 C 401.319 2.19119 392.487 3.04944 387.933 3.65495 C 220.004 25.9852 78.7921 144.741 24.0313 305.301 C 17.2165 325.194 11.7792 345.533 7.75804 366.173 C 6.06823 374.996 2.03039 409.96 0 414.386 L 0 0 z"/>
<path transform="translate(0,0)" fill="rgb(254,254,254)" d="M 0 1636.56 C 2.7431 1646.77 3.67001 1659.37 5.25658 1669.98 C 7.65041 1685.69 11.0255 1701.24 15.3621 1716.52 C 46.0028 1828.8 118.81 1924.91 218.594 1984.8 C 260.902 2010.37 307.161 2028.73 355.484 2039.15 C 360.918 2040.34 378.68 2043.89 383.7 2043.85 C 390.261 2045.18 400.362 2045.61 405.318 2048 L 0 2048 L 0 1636.56 z"/>
</svg>