<!-- RECRAFT VECTORIZE from logo/options/C-bars-node.png -->
<svg version="1.1" xmlns="http://www.w3.org/2000/svg" style="display: block;" viewBox="0 0 2048 2048" width="512" height="512" preserveAspectRatio="none">
<defs>
	<linearGradient id="Gradient1" gradientUnits="userSpaceOnUse" x1="141.515" y1="129.329" x2="1906.91" y2="1919.13">
		<stop class="stop0" offset="0" stop-opacity="1" stop-color="rgb(41,58,138)"/>
		<stop class="stop1" offset="1" stop-opacity="1" stop-color="rgb(144,69,149)"/>
	</linearGradient>
</defs>
<path transform="translate(0,0)" fill="url(#Gradient1)" d="M 0 0 L 415.949 0 L 1633.8 0 L 2048 0 L 2048 405.293 L 2048 1643.83 L 2048 2048 L 1641.71 2048 L 407.209 2048 L 0 2048 L 0 1630.82 L 0 418.179 L 0 0 z"/>
<path transform="translate(0,0)" fill="rgb(254,254,254)" d="M 0 0 L 415.949 0 C 408.118 4.13597 374.805 6.21453 363.519 9.12423 C 346.679 13.4658 330.824 17.4185 314.136 22.953 C 181.945 66.9908 76.8983 168.667 28.5747 299.353 C 19.3933 324.209 12.3369 349.799 7.48148 375.849 C 6.35716 382.025 1.95234 415.027 0 418.179 L 0 0 z"/>
<path transform="translate(0,0)" fill="rgb(254,254,254)" d="M 0 1630.82 C 2.86247 1641.41 3.97447 1654.04 5.75332 1665 C 8.5932 1682.17 12.4133 1699.17 17.195 1715.91 C 49.7338 1829.28 124.364 1925.93 225.817 1986.09 C 276.417 2016.43 332.325 2035.83 390.41 2044.29 C 394.957 2044.95 403.475 2046 407.209 2048 L 0 2048 L 0 1630.82 z"/>
<path transform="translate(0,0)" fill="rgb(254,254,254)" d="M 1633.8 0 L 2048 0 L 2048 405.293 C 2045.87 401.807 2042.92 380.634 2041.81 374.84 C 2037.65 353.571 2032.14 332.588 2025.33 312.016 C 1978.91 174.771 1870.62 67.366 1732.99 22.0782 C 1705.87 13.129 1678.85 7.1541 1650.53 3.58466 C 1645.97 3.01089 1637.53 2.20382 1633.8 0 z"/>
<path transform="translate(0,0)" fill="rgb(254,254,254)" d="M 2048 1643.83 L 2048 2048 L 1641.71 2048 C 1644.44 2046.29 1686.27 2039.98 1694.74 2038.01 C 1732.13 2029.39 1768.28 2016.07 1802.31 1998.36 C 1908.27 1942.55 1988.65 1848.06 2026.76 1734.53 C 2032.5 1717.15 2037.13 1699.42 2040.62 1681.46 C 2042.66 1670.61 2044.64 1653.63 2048 1643.83 z"/>
<path transform="translate(0,0)" fill="rgb(141,117,175)" d="M 1126.99 915.913 C 1159.87 863.927 1205.07 827.079 1265.85 812.928 C 1322.23 800.155 1381.36 809.966 1430.6 840.258 C 1439.18 845.61 1461.18 858.935 1463.4 868.643 C 1471.35 873.562 1477.49 879.227 1481.54 887.795 C 1487.5 891.81 1486.99 890.236 1491.85 896.994 C 1506.75 917.732 1517.71 941.228 1524.53 965.779 C 1540.15 1022 1532.54 1082.14 1503.43 1132.71 C 1475.23 1182 1428.63 1218.09 1373.85 1233.06 C 1317.45 1248.46 1257.23 1240.73 1206.54 1211.58 C 1168.79 1189.45 1150.82 1168.13 1127.17 1133.02 L 731.339 1133.13 L 632.227 1133.23 C 622.618 1133.25 590.549 1133.91 582.441 1132.15 C 526.164 1128.31 483.236 1087.76 479.68 1030.86 C 477.9 1002.3 487.565 974.217 506.537 952.802 C 542.058 912.975 579.934 916.03 628.724 916.084 L 710.42 916.193 L 987.504 916.05 L 1074.17 916.11 C 1090.96 916.169 1110.46 916.771 1126.99 915.913 z"/>
<path transform="translate(0,0)" fill="rgb(254,254,254)" d="M 582.441 1132.15 C 526.164 1128.31 483.236 1087.76 479.68 1030.86 C 477.9 1002.3 487.565 974.217 506.537 952.802 C 542.058 912.975 579.934 916.03 628.724 916.084 L 710.42 916.193 L 987.504 916.05 L 1074.17 916.11 C 1090.96 916.169 1110.46 916.771 1126.99 915.913 C 1097.56 974.355 1088.78 1029.91 1109.95 1093.54 C 1114.39 1106.91 1120.17 1119.79 1127.19 1132 L 582.441 1132.15 z"/>
<path transform="translate(0,0)" fill="rgb(100,64,144)" d="M 1459.54 923.587 C 1460.35 926.76 1467.25 938.899 1469.3 942.847 C 1475.12 954.057 1479.24 963.084 1482.82 975.345 C 1495.87 1020.32 1490.25 1068.66 1467.23 1109.44 C 1444.42 1149.55 1406.71 1179.03 1362.28 1191.49 C 1317.49 1204.06 1269.53 1198.09 1229.19 1174.92 C 1189.29 1152.36 1160.04 1114.8 1147.94 1070.59 C 1135.5 1025.22 1141.92 976.744 1165.73 936.167 C 1188.64 897.285 1228.01 866.945 1271.88 855.947 C 1317.55 844.718 1365.79 851.827 1406.28 875.751 C 1410.07 878.023 1423.51 886.09 1424.41 889.715 C 1422.17 912.681 1436.77 926.438 1459.54 923.587 z"/>
<path transform="translate(0,0)" fill="rgb(254,254,254)" d="M 1303.81 887.426 C 1379.4 880.818 1446.01 936.765 1452.56 1012.35 C 1459.11 1087.94 1403.12 1154.51 1327.52 1161 C 1252.01 1167.49 1185.53 1111.57 1178.98 1036.06 C 1172.44 960.554 1228.31 894.026 1303.81 887.426 z"/>
<path transform="translate(0,0)" fill="rgb(254,254,254)" d="M 1424.41 889.715 C 1430.37 869.481 1444.72 865.591 1463.4 868.643 C 1471.35 873.562 1477.49 879.227 1481.54 887.795 C 1480.99 906.549 1478.21 916.509 1459.54 923.587 C 1436.77 926.438 1422.17 912.681 1424.41 889.715 z"/>
<path transform="translate(0,0)" fill="rgb(254,254,254)" d="M 578.896 1316.39 C 588.328 1315.22 610.536 1315.71 620.6 1315.75 L 694.457 1315.9 L 950.263 1315.82 L 1299.46 1315.77 L 1409.74 1315.75 C 1452.51 1315.75 1490.74 1310.71 1527.24 1337.97 C 1549.94 1355.06 1564.95 1380.46 1568.97 1408.6 C 1578.13 1472.05 1534.82 1523.75 1472.25 1531.87 C 1447.51 1533.32 1420.65 1532.78 1395.67 1532.75 L 1285.8 1532.74 L 935.778 1532.81 L 698.598 1532.81 L 624.897 1532.91 C 609.554 1532.92 593.21 1533.48 577.979 1532.08 C 524.898 1527.21 485.821 1487.07 480.032 1434.69 C 477.144 1406.73 485.376 1378.75 502.951 1356.81 C 522.576 1332.41 548.144 1319.86 578.896 1316.39 z"/>
<path transform="translate(0,0)" fill="rgb(254,254,254)" d="M 785.742 515.44 C 832.39 513.85 887.393 515.269 934.802 515.256 L 1230.52 515.28 L 1387.5 515.25 C 1410.79 515.23 1455.67 513.923 1477.36 516.918 C 1496.96 519.776 1515.39 527.957 1530.66 540.57 C 1552.79 558.913 1566.75 585.271 1569.5 613.881 C 1572.05 642.372 1563.33 670.727 1545.2 692.856 C 1523.53 719.012 1498.76 728.696 1466.02 731.94 C 1406.31 732.914 1344.58 732.174 1284.79 732.177 L 978.824 732.17 L 842.37 732.209 C 824.978 732.239 786.036 733.348 770.255 731.123 C 749.68 728.157 730.384 719.364 714.647 705.781 C 692.658 686.445 679.444 659.022 678.024 629.775 C 676.26 600.835 686.233 572.406 705.688 550.91 C 727.249 527.198 754.372 516.996 785.742 515.44 z"/>
</svg>