<!-- RECRAFT VECTORIZE from logo/options/D-hex-E.png -->
<svg version="1.1" xmlns="http://www.w3.org/2000/svg" style="display: block;" viewBox="0 0 2048 2048" width="512" height="512" preserveAspectRatio="none">
<defs>
	<linearGradient id="Gradient1" gradientUnits="userSpaceOnUse" x1="633.884" y1="642.274" x2="1413.13" y2="1406.69">
		<stop class="stop0" offset="0" stop-opacity="1" stop-color="rgb(80,34,105)"/>
		<stop class="stop1" offset="1" stop-opacity="1" stop-color="rgb(146,29,94)"/>
	</linearGradient>
	<linearGradient id="Gradient2" gradientUnits="userSpaceOnUse" x1="1869.41" y1="1971.18" x2="1409.29" y2="1478.56">
		<stop class="stop0" offset="0" stop-opacity="1" stop-color="rgb(138,2,51)"/>
		<stop class="stop1" offset="1" stop-opacity="1" stop-color="rgb(122,14,72)"/>
	</linearGradient>
	<linearGradient id="Gradient3" gradientUnits="userSpaceOnUse" x1="1852.6" y1="1879.32" x2="1471.76" y2="1485.85">
		<stop class="stop0" offset="0" stop-opacity="1" stop-color="rgb(203,13,80)"/>
		<stop class="stop1" offset="1" stop-opacity="1" stop-color="rgb(165,25,96)"/>
	</linearGradient>
	<linearGradient id="Gradient4" gradientUnits="userSpaceOnUse" x1="1506.03" y1="1551.74" x2="167.289" y2="87.3103">
		<stop class="stop0" offset="0" stop-opacity="1" stop-color="rgb(154,24,89)"/>
		<stop class="stop1" offset="1" stop-opacity="1" stop-color="rgb(69,49,137)"/>
	</linearGradient>
</defs>
<path transform="translate(0,0)" fill="url(#Gradient4)" d="M 0 0 L 392.852 0 L 1654.99 0 L 2048 0 L 2048 383.336 L 2048 489.654 L 2048 1669.71 L 2048 2048 L 1661.06 2048 L 905.662 2048 L 389.138 2048 L 0 2048 L 0 1660.42 L 0 389.453 L 0 0 z"/>
<path transform="translate(0,0)" fill="url(#Gradient3)" d="M 1971.87 1042.74 C 1972.18 1082.03 1972.19 1121.32 1971.9 1160.62 L 1972.04 1424.28 L 1971.97 1555.15 C 1971.91 1605.28 1974.05 1650.78 1962.47 1699.99 C 1948.09 1761.19 1917.44 1817.38 1873.75 1862.59 C 1800.97 1937.47 1712.09 1969.25 1609.54 1970.31 C 1505.86 1971.12 1402.18 1971.1 1298.5 1970.24 L 949.764 1970.46 L 736.69 1970.55 C 708.364 1970.75 680.037 1970.76 651.711 1970.58 C 641.418 1970.47 626.03 1970.76 616.046 1970.06 C 618.727 1968.23 909.023 1968.99 937.92 1969 L 994.184 1969.03 C 1006.54 1969.03 1020.43 1969.62 1032.52 1967.49 C 1036.51 1966.78 1038.7 1966.69 1042.81 1966.42 C 1045.02 1964.57 1045.72 1962.17 1046.46 1959.44 L 1044.98 1957.77 C 1041.63 1957.41 1039.88 1957.64 1037.49 1955.34 C 1036.92 1952.55 1036.7 1952.54 1037.38 1949.85 L 1040.44 1948.33 L 1041.43 1950.05 L 1042.36 1948.51 C 1042.34 1948.15 1042.32 1944.45 1042.22 1943.98 C 1041.74 1939.02 1051.18 1922.16 1054.27 1919.4 C 1068.43 1906.72 1080.5 1896.55 1092.81 1881.86 C 1103.67 1868.88 1120.27 1858.62 1128.39 1842.84 C 1137.19 1825.74 1155.2 1821.98 1169.08 1810.54 C 1181.72 1800.31 1190.57 1784.14 1202.27 1772.86 C 1209.6 1765.79 1217.97 1759.4 1225.25 1752.2 C 1228.68 1749.8 1232.07 1749.09 1234.92 1745.86 C 1246.99 1732.18 1260.6 1719.99 1274.06 1707.72 C 1289.75 1693.82 1305.36 1674.72 1323.14 1663.56 C 1348.45 1647.68 1371.49 1635.32 1394.12 1615.25 C 1407.04 1603.8 1426.34 1593.52 1440.08 1582.02 C 1456.29 1568.44 1470.56 1553.2 1487.67 1540.7 C 1499.79 1532.13 1513.25 1527.89 1524.32 1519.72 C 1524.27 1519.35 1523.95 1516.16 1524.47 1515.76 C 1528.16 1512.96 1536.82 1507.91 1540.33 1505.55 C 1547.15 1500.94 1602.92 1466.51 1603.88 1463.15 L 1599.32 1462.37 C 1601.8 1459.16 1619.55 1445 1623.84 1441.37 C 1645.64 1422.89 1663.75 1402.84 1675.47 1376.52 C 1676.79 1373.57 1680.14 1366.37 1680.68 1363.71 C 1683.44 1350.14 1685.83 1336.51 1687.83 1322.81 C 1690.19 1320.51 1688.83 1321.27 1692.13 1320.54 L 1693.09 1322.46 C 1695.73 1317.54 1699.51 1312.12 1701.81 1307.39 C 1703.99 1302.91 1698.74 1286 1704.25 1282.86 L 1707.92 1286.51 C 1708 1286.51 1720.12 1267.26 1722.26 1264.77 C 1736.07 1248.77 1760.66 1226.01 1777.4 1213.13 C 1785.48 1206.91 1797.62 1201.82 1804.32 1194.44 C 1809.69 1188.53 1851.61 1138.16 1852.91 1134.92 C 1854.55 1130.82 1853.09 1126.33 1853.15 1122.05 C 1853.34 1110.21 1873.02 1103.03 1880.29 1095.34 C 1881.85 1093.69 1880.84 1094.2 1882.94 1093.77 C 1882.98 1098.48 1882.96 1100.84 1885.61 1104.49 C 1891.73 1107.45 1896.38 1103.29 1901.54 1099.9 C 1907.71 1095.22 1912.09 1094.24 1910.34 1085.3 C 1906.06 1063.52 1945.81 1049 1961.61 1057.66 C 1965.26 1059.65 1963.45 1065.8 1966.39 1068.5 C 1968.86 1070.77 1969.4 1077.55 1970.4 1081.38 C 1973.13 1071.04 1969.36 1054.45 1971.87 1042.74 z"/>
<path transform="translate(0,0)" fill="url(#Gradient2)" d="M 1971.87 1042.74 C 1972.76 1036.08 1972.13 1002.59 1972.13 994.461 L 1972.16 888.757 C 1972.35 757.742 1970.67 623.998 1972.55 493.293 C 1974.32 498.74 1973.12 573.476 1973.07 585.951 L 1973.01 922.191 L 1973 1006.96 C 1973 1019.76 1972.6 1054.99 1975.22 1066.39 C 1979.07 1064.25 1976.32 1049.83 1978.91 1044.93 C 1979.96 1046.81 1980.86 1048.49 1981.47 1050.56 L 1983.41 1050.81 C 1991.33 1039.8 2012.51 1033.95 2025.55 1036.29 L 2027 1036.56 C 2033.75 1031.51 2035.68 1038.03 2040.45 1034.82 C 2042.05 1028.99 2040.92 1021.13 2042.13 1013.96 L 2042.86 1014.04 C 2043.69 1018.78 2043.57 1021.19 2043.55 1025.98 C 2046.18 1010.87 2044.51 997.243 2044.53 981.963 L 2044.95 915.668 C 2044.4 812.325 2044.38 708.979 2044.87 605.635 C 2045.2 573.846 2042.26 519.643 2048 489.654 L 2048 1669.71 L 2048 2048 L 1661.06 2048 L 905.662 2048 C 904.063 2046.55 879.425 2046.39 871.659 2044.59 C 869.653 2043.59 870.327 2043.96 868.724 2042.21 C 869.598 2030.26 861.97 2038.25 871.552 2026.6 C 875.187 2022.18 876.776 2003.73 880.261 1996.17 C 887.458 1992.4 908.175 1998.03 916.694 1987.7 C 909.84 1981.71 899.841 1990.01 894.588 1980.01 C 890.429 1972.1 885.589 1978.11 880.231 1975.15 L 880.449 1972.49 C 876.348 1971.83 859.608 1972.39 854.234 1972.32 C 825.759 1971.99 797.282 1971.94 768.807 1972.18 L 593.013 1972.01 L 492.332 1972.09 C 432.457 1972.21 375.221 1974.36 317.887 1953.41 C 324.091 1954.27 330.298 1956.73 336.474 1958.33 C 415.569 1978.82 499.494 1968.3 580.377 1970.76 C 591.118 1971.08 604.572 1971.06 615.003 1970.16 L 616.046 1970.06 C 626.03 1970.76 641.418 1970.47 651.711 1970.58 C 680.037 1970.76 708.364 1970.75 736.69 1970.55 L 949.764 1970.46 L 1298.5 1970.24 C 1402.18 1971.1 1505.86 1971.12 1609.54 1970.31 C 1712.09 1969.25 1800.97 1937.47 1873.75 1862.59 C 1917.44 1817.38 1948.09 1761.19 1962.47 1699.99 C 1974.05 1650.78 1971.91 1605.28 1971.97 1555.15 L 1972.04 1424.28 L 1971.9 1160.62 C 1972.19 1121.32 1972.18 1082.03 1971.87 1042.74 z"/>
<path transform="translate(0,0)" fill="rgb(250,249,249)" d="M 1661.06 2048 C 1664.25 2045.49 1672.16 2045.72 1676.25 2045.15 C 1710.88 2040.32 1745.93 2031.56 1778.46 2018.9 C 1895.32 1972.78 1986.17 1877.87 2027.14 1759.11 C 2037.33 1729.91 2041.24 1701.05 2047.3 1671.1 C 2047.53 1670.64 2047.77 1670.18 2048 1669.71 L 2048 2048 L 1661.06 2048 z"/>
<path transform="translate(0,0)" fill="rgb(250,249,249)" d="M 0 0 L 392.852 0 C 387.71 3.29716 355.789 5.82178 347.354 7.67475 C 331.115 11.2416 316.026 14.8807 300.036 19.7988 C 176.898 57.7966 77.5594 149.459 29.8024 269.151 C 20.0534 293.445 13.2465 317.641 7.87548 343.207 C 5.96556 352.298 2.73757 383.3 0 389.453 L 0 0 z"/>
<path transform="translate(0,0)" fill="rgb(250,249,249)" d="M 1654.99 0 L 2048 0 L 2048 383.336 C 2046.13 379.511 2041.81 348.991 2040.56 342.443 C 2037.66 327.411 2033.87 312.562 2029.23 297.974 C 1986.8 165.847 1883.05 62.4225 1750.8 20.4043 C 1727.72 13.2604 1705.12 8.2169 1681.29 4.42239 C 1675.18 3.449 1659.01 2.54573 1654.99 0 z"/>
<path transform="translate(0,0)" fill="rgb(250,249,249)" d="M 0 1660.42 C 2.97902 1670.94 4.04641 1684.07 5.93181 1695.03 C 8.87479 1711.6 12.7062 1728 17.4095 1744.15 C 48.3164 1847.76 117.42 1935.75 210.74 1990.34 C 247.268 2011.71 297.26 2031.71 338.936 2039 C 347.396 2041.26 385.795 2045.89 389.138 2048 L 0 2048 L 0 1660.42 z"/>
<path transform="translate(0,0)" fill="rgb(119,13,70)" d="M 338.936 2039 L 339.419 2037.79 C 345.842 2037.8 351.685 2039.5 358.042 2040.56 C 388.163 2045.61 416.548 2044.74 447.025 2044.64 L 508.437 2044.94 L 740.338 2044.77 C 757.704 2044.84 775.337 2044.9 792.696 2044.84 C 803.103 2044.8 804.06 2042.38 816.784 2043.43 L 818.524 2041.59 L 819.818 2043.76 C 821.453 2041.66 821.311 2041.79 821.45 2039.11 L 820.243 2039.94 C 815.718 2037.94 814.219 2041.14 809.924 2038.51 L 809.127 2036.48 C 815.543 2030.64 821.108 2037.4 824.165 2030.58 C 827.417 2032.25 831.202 2037.05 833.134 2040.26 L 833.13 2041.69 L 829.448 2042.81 L 828.55 2044.52 L 829.629 2042.73 L 828.239 2043.93 C 830.248 2045.11 866.927 2044.59 871.659 2044.59 C 879.425 2046.39 904.063 2046.55 905.662 2048 L 389.138 2048 C 385.795 2045.89 347.396 2041.26 338.936 2039 z"/>
<path transform="translate(0,0)" fill="rgb(250,249,249)" d="M 1035.88 1688.59 C 1021.14 1690.96 1014.24 1690.59 1000.86 1683.41 C 985.402 1675.11 970.324 1666.26 955.1 1657.55 L 876.282 1612.47 L 633.865 1473.27 L 519.109 1407.55 C 499.083 1396.13 474.863 1383.67 456.72 1370.02 C 436.425 1354.75 441.127 1313.34 441.196 1290.09 L 441.264 1214.25 L 441.227 972.452 L 441.29 800.332 L 441.249 745.729 C 441.219 678.211 444.756 683.909 502.095 651.228 L 569.328 613.018 L 775.576 495.098 C 829.785 463.592 884.195 432.432 938.802 401.62 C 959.349 389.961 979.421 377.49 1000.18 366.193 C 1017.39 356.822 1032.88 358.397 1049.64 367.528 C 1062.59 374.585 1075.22 382.041 1088 389.413 L 1149.99 424.868 L 1370.13 550.949 L 1516.79 634.596 C 1541.45 648.574 1568.96 662.846 1591.89 679.161 C 1611.12 692.836 1607.08 729.107 1607.08 750.048 L 1607.08 824.924 L 1607.22 1110.57 C 1609.12 1101.84 1608.21 1041.55 1608.18 1028.38 L 1608.21 816.487 L 1608.23 753.204 C 1608.24 743.094 1607.75 726.048 1609.13 716.537 C 1610.47 733.627 1609 754.699 1609.54 772.244 C 1610.81 813.081 1610.1 854.189 1609.7 895.035 L 1609.5 1126.14 C 1609.37 1150.77 1609.35 1175.17 1610.48 1199.78 C 1610.89 1208.82 1609.45 1219.86 1609.73 1228.47 C 1610.36 1248.11 1610.36 1267.13 1609.91 1286.8 C 1609.51 1304.15 1611.44 1320.52 1609.79 1337.94 C 1608.15 1355.17 1604.1 1357.1 1594.77 1370.7 C 1593.98 1371.85 1592.95 1373.1 1591.76 1373.83 C 1576.53 1383.14 1560.35 1392.04 1544.86 1400.78 L 1464.13 1447.15 L 1152.96 1625.52 L 1082.05 1666.2 C 1072.2 1671.88 1048.67 1686.27 1038.96 1689.26 L 1035.88 1688.59 z"/>
<path transform="translate(0,0)" fill="rgb(119,13,70)" d="M 1607.22 1110.57 C 1609.12 1101.84 1608.21 1041.55 1608.18 1028.38 L 1608.21 816.487 L 1608.23 753.204 C 1608.24 743.094 1607.75 726.048 1609.13 716.537 C 1610.47 733.627 1609 754.699 1609.54 772.244 C 1610.81 813.081 1610.1 854.189 1609.7 895.035 L 1609.5 1126.14 C 1609.37 1150.77 1609.35 1175.17 1610.48 1199.78 C 1610.89 1208.82 1609.45 1219.86 1609.73 1228.47 C 1610.36 1248.11 1610.36 1267.13 1609.91 1286.8 C 1609.51 1304.15 1611.44 1320.52 1609.79 1337.94 C 1608.15 1355.17 1604.1 1357.1 1594.77 1370.7 C 1593.98 1371.85 1592.95 1373.1 1591.76 1373.83 C 1576.53 1383.14 1560.35 1392.04 1544.86 1400.78 L 1464.13 1447.15 L 1152.96 1625.52 L 1082.05 1666.2 C 1072.2 1671.88 1048.67 1686.27 1038.96 1689.26 L 1035.88 1688.59 C 1052.74 1682.24 1102.51 1652 1120.37 1641.71 L 1280.93 1549.68 L 1505.82 1420.61 L 1555.46 1392.2 C 1574.43 1381.41 1603.08 1369.72 1605.78 1343.73 C 1606.49 1336.95 1607.03 1332.48 1607.11 1325.35 C 1607.89 1253.82 1606.17 1182.07 1607.22 1110.57 z"/>
<path transform="translate(0,0)" fill="url(#Gradient1)" d="M 1018.51 462.221 C 1025.59 461.655 1033.58 462.253 1039.81 465.719 C 1059.56 476.7 1079.74 488.308 1099.31 499.534 L 1226.67 572.736 L 1425.63 686.651 C 1450.48 700.915 1486.73 719.689 1509.97 736.83 C 1519.78 744.066 1517.61 781.025 1517.53 794.67 L 1517.11 859.213 C 1517 879.758 1517.92 900.608 1516.83 921.091 C 1516.02 936.294 1502.28 943.977 1488.12 944.217 C 1472.26 944.852 1441.95 946.974 1438.35 925.857 C 1436.66 915.934 1437.52 897.388 1437.55 886.715 L 1437.84 808.628 C 1450.27 802.776 1457.14 789.67 1448.97 777.299 C 1445.71 772.28 1440.44 768.915 1434.52 768.068 C 1426.55 766.869 1422.2 769.67 1415.98 774.121 C 1373.92 747.947 1323.97 720.921 1280.34 695.966 L 1045.02 561.331 C 1045.08 552.637 1044.7 546.095 1037.88 539.428 C 1034.07 535.657 1028.89 533.603 1023.53 533.741 C 1018.22 533.884 1013.21 536.218 1009.69 540.189 C 1003.69 546.825 1003.73 552.241 1004.04 560.318 C 976.375 577.321 944.737 594.51 916.383 610.811 L 734.059 715.219 C 701.566 733.78 664.304 754.032 632.976 774.038 C 626.494 769.337 620.843 766.857 612.611 768.657 C 606.781 769.924 601.761 773.599 598.79 778.773 C 591.265 791.87 599.188 802.456 610.668 808.942 C 609.72 826.197 610.165 846.642 610.163 864.115 L 610.169 954.631 L 610.29 1237.62 C 603.674 1241.76 598.862 1245.25 596.978 1253.36 C 595.639 1259.18 596.888 1265.3 600.401 1270.14 C 608.103 1280.9 620.699 1281.07 630.805 1273.56 C 648.372 1284.85 668.222 1295.67 686.452 1306.04 L 765.191 1351.1 L 1003.54 1487.94 C 1002.74 1506.5 1014.32 1521.57 1034.84 1512.4 C 1044.89 1507.91 1043.1 1489.36 1045.92 1487.69 C 1114.08 1447.47 1182.94 1407.9 1251.69 1368.63 L 1306.61 1337.39 C 1325.39 1326.7 1340.31 1322.94 1346.41 1300.98 C 1344.31 1293.7 1338.83 1281.84 1331.39 1280.77 C 1306.14 1277.14 1266.51 1279.08 1240.62 1279.04 L 963.617 1278.9 L 879.178 1279.04 C 809.117 1279.22 810.796 1285.31 810.933 1214.49 L 810.991 1140.95 L 811.028 889.624 L 810.87 825.397 C 810.835 813.028 810.363 800.216 811.569 787.937 C 812.761 775.801 823.668 766.932 835.641 766.827 C 862.378 766.592 889.139 766.754 915.883 766.785 L 1072.99 766.832 L 1168.91 766.736 C 1184.35 766.712 1205.69 764.561 1220.47 768.048 C 1226.09 769.375 1231.37 775.142 1234.04 780.027 C 1239.23 789.538 1238.44 849.947 1234.99 860.557 C 1233.05 866.511 1229.95 871.593 1223.96 873.986 C 1209.29 879.84 1179.95 877.081 1163.44 877.076 L 1031.2 876.951 C 1009.2 876.914 986.579 876.414 964.94 877.115 C 930.892 879.967 941.351 904.662 939.008 924.462 C 932.494 979.525 969.4 969.189 1011.48 969.038 L 1109.78 968.838 C 1130.56 968.782 1164.11 963.787 1167.96 988.712 C 1170.38 1004.45 1168.47 1026.94 1169.24 1043.2 C 1171.17 1084.33 1141.33 1077.5 1112.51 1077.39 L 1016.81 1077.29 C 966.743 1077.14 933.001 1065.3 938.455 1125.87 C 939.604 1138.63 936.507 1165.75 956.293 1168.62 C 971.487 1170.83 989.912 1169.74 1005.01 1169.75 L 1093 1169.76 L 1405.7 1169.72 C 1424 1169.69 1488.15 1167.37 1500.57 1170.76 C 1505.84 1172.2 1512.87 1178.98 1515.04 1183.89 C 1519.11 1193.07 1518.16 1277.44 1516.96 1290.98 C 1516.47 1296.53 1515.48 1303.1 1513.07 1308.11 C 1510.22 1314.03 1500.02 1320.06 1494.46 1323.4 C 1459.25 1344.52 1422.84 1364.07 1387.2 1384.49 L 1160.51 1514.3 L 1082.32 1559.05 C 1067.57 1567.52 1049.01 1579.49 1033.41 1585.02 C 1023.2 1588.64 1012.2 1585.17 1003.01 1579.97 C 898.361 1520.69 793.652 1461.09 689.453 1401.05 L 594.286 1346.79 C 522.463 1305.94 530.978 1320.46 530.976 1238.09 L 530.968 1118.38 L 530.999 878.756 C 530.995 838.029 530.743 797.27 531.129 756.566 C 531.232 745.765 538.211 734.809 547.353 729.526 C 580.436 710.407 613.967 691.431 647.1 672.44 L 850.827 555.698 L 955.179 495.695 C 969.392 487.545 1005.32 465.491 1018.51 462.221 z"/>
<path transform="translate(0,0)" fill="rgb(250,249,249)" d="M 1426.05 1238.59 C 1436.73 1235.17 1448.16 1241.07 1451.57 1251.75 C 1454.98 1262.43 1449.08 1273.86 1438.39 1277.26 C 1427.72 1280.66 1416.31 1274.77 1412.9 1264.09 C 1409.49 1253.42 1415.38 1242 1426.05 1238.59 z"/>
</svg>