<!-- RECRAFT VECTORIZE from logo/options/E-orbit-dot.png -->
<svg version="1.1" xmlns="http://www.w3.org/2000/svg" style="display: block;" viewBox="0 0 2048 2048" width="512" height="512" preserveAspectRatio="none">
<defs>
	<linearGradient id="Gradient1" gradientUnits="userSpaceOnUse" x1="1918.63" y1="1923.39" x2="127.876" y2="124.09">
		<stop class="stop0" offset="0" stop-opacity="1" stop-color="rgb(49,29,94)"/>
		<stop class="stop1" offset="1" stop-opacity="1" stop-color="rgb(14,85,144)"/>
	</linearGradient>
</defs>
<path transform="translate(0,0)" fill="url(#Gradient1)" d="M 0 0 L 387.024 0 L 1659.12 0 L 2048 0 L 2048 391.359 L 2048 1658.75 L 2048 2048 L 1659.82 2048 L 389.324 2048 L 0 2048 L 0 1658.39 L 0 389.302 L 0 0 z"/>
<path transform="translate(0,0)" fill="rgb(251,250,250)" d="M 1659.12 0 L 2048 0 L 2048 391.359 C 2045.81 387.055 2040.5 346.82 2038.51 337.711 C 2033.36 314.162 2026.3 291.074 2017.38 268.678 C 1970.12 150.608 1872.8 59.6704 1751.8 20.5131 C 1735.12 15.1442 1719.14 11.2358 1702.14 7.39994 C 1694.53 5.68336 1663.71 2.91758 1659.12 0 z"/>
<path transform="translate(0,0)" fill="rgb(251,250,250)" d="M 0 0 L 387.024 0 C 378.505 4.33836 348.458 6.12823 336.935 9.2019 C 322.596 13.0268 308.545 16.1536 294.199 20.8872 C 173.321 60.6107 76.3938 152.071 29.7269 270.441 C 21.7363 291.07 15.226 312.241 10.2455 333.796 C 7.84224 344.417 2.57964 384.242 0 389.302 L 0 0 z"/>
<path transform="translate(0,0)" fill="rgb(251,250,250)" d="M 2048 1658.75 L 2048 2048 L 1659.82 2048 C 1664.11 2045.85 1703.25 2040.83 1713.79 2038.45 C 1739.85 2032.5 1765.29 2024.11 1789.77 2013.37 C 1903.77 1963.94 1990.93 1867.75 2028.9 1749.44 C 2036.58 1725.74 2040.97 1700.64 2044.9 1676.11 C 2045.82 1670.42 2045.64 1663.9 2048 1658.75 z"/>
<path transform="translate(0,0)" fill="rgb(251,250,250)" d="M 0 1658.39 C 3.40049 1668.82 3.60026 1683.2 5.68976 1694.27 C 8.80678 1710.79 12.609 1726.87 17.4604 1742.97 C 50.0033 1851.32 123.967 1942.45 223.295 1996.6 C 267.99 2020.95 319.08 2037.49 369.626 2044.37 C 375.363 2045.15 384.09 2045.82 389.324 2048 L 0 2048 L 0 1658.39 z"/>
<path transform="translate(0,0)" fill="rgb(251,250,250)" d="M 1416.32 433.429 C 1479.02 429.042 1548.57 438.042 1604.64 467.214 C 1653.63 492.704 1688.73 534.081 1705.1 586.885 C 1737.09 690.063 1693.83 812.338 1645.9 903.734 C 1492.16 1196.87 1133.03 1480.2 817.315 1578.52 C 705.827 1613.24 549.973 1640.31 441.65 1582.82 C 393.213 1557.12 359.643 1515.38 343.614 1463.06 C 317.723 1378.55 339.221 1283.51 373.736 1204.7 C 385.695 1177.39 400.166 1151.36 414.174 1125.08 L 413.863 1173.25 C 413.87 1187.92 415.439 1204.7 413.086 1219.13 C 410.632 1234.19 401.857 1249.3 397.081 1263.92 C 379.773 1316.9 369.585 1376.9 381.005 1432.13 C 390.025 1475.75 411.116 1511.33 448.772 1535.86 C 525.575 1585.9 643.96 1574.35 729.767 1556.11 C 1034.94 1491.27 1393.6 1219.75 1562.65 958.654 C 1622.22 866.658 1692 728.085 1667.21 614.861 C 1657.95 572.565 1633.78 536.802 1597.07 513.596 C 1518.53 463.953 1403.68 472.011 1316.85 491.992 C 1296.33 481.46 1273.38 470.362 1251.74 462.364 C 1307.77 447.141 1358.15 436.374 1416.32 433.429 z"/>
<path transform="translate(0,0)" fill="rgb(251,250,250)" d="M 1005.69 460.442 C 1093.45 456.362 1190.03 477.882 1269.03 515.618 C 1384.15 570.166 1477.81 661.517 1535.22 775.237 C 1550.34 805.208 1560.62 832.598 1571.76 864.088 C 1555.98 891.442 1540.33 919.555 1521.58 944.962 C 1519.01 932.509 1516.24 920.099 1513.26 907.738 C 1480.06 778.201 1397.14 666.969 1282.48 598.154 C 1181.96 538.291 1063.81 515.103 948.132 532.539 C 847.662 547.572 754.178 592.926 680.185 662.534 C 667.298 674.602 647.117 694.939 636.65 709.079 C 608.914 709.051 579.59 708.576 551.982 709.289 C 567.496 687.047 584.429 665.83 602.677 645.77 C 706.612 532.295 851.888 465.488 1005.69 460.442 z"/>
<path transform="translate(0,0)" fill="rgb(251,250,250)" d="M 460.958 785.083 L 529.209 785.057 L 529.231 876.073 C 592.223 874.946 658.31 875.943 721.492 876.054 C 721.636 892.781 721.273 909.199 721.749 925.989 L 529.136 925.976 C 529.637 949.635 529.143 975.08 529.108 998.874 C 569.605 997.752 614.281 998.591 655.002 998.616 C 654.813 1015.46 654.964 1032.58 654.959 1049.45 C 616.115 1048.19 569.015 1049.36 529.173 1049.07 L 529.29 1121.68 C 562.555 1119.75 610.911 1121.26 645.25 1121.25 L 721.772 1121.36 C 721.112 1137.05 721.568 1155.95 721.597 1171.79 C 702.849 1170.71 674.091 1171.64 654.712 1171.66 L 529.056 1171.72 L 529.075 1230.97 L 460.53 1230.88 C 461.697 1171.24 460.852 1109.07 460.956 1049.2 L 332.919 1049.32 L 333.001 998.461 C 373.14 999.331 420.614 999.08 460.847 998.438 L 460.958 785.083 z"/>
<path transform="translate(0,0)" fill="rgb(251,250,250)" d="M 1590.6 1067.79 C 1592.06 1070.62 1589.39 1089.76 1588.81 1094.12 C 1569.18 1243.71 1490.35 1379.17 1370 1470.15 C 1246.08 1564.79 1096.07 1601.97 942.229 1581.26 C 939.549 1581.13 937.72 1581.34 935.47 1579.93 L 936.38 1578.79 C 944.156 1575.88 951.166 1571.83 958.682 1568.92 C 994.428 1555.06 1027.89 1534.6 1062.9 1519.66 C 1068.56 1517.24 1094.23 1514.87 1101.99 1513.77 C 1249.96 1491.74 1380.18 1404.36 1456.66 1275.79 C 1468.49 1256.3 1478.83 1235.93 1487.58 1214.86 C 1490.88 1206.92 1501.79 1175.86 1505.4 1171.16 C 1511.92 1162.64 1527.98 1144.74 1535.54 1135.89 C 1554.53 1113.71 1572.89 1091 1590.6 1067.79 z"/>
<path transform="translate(0,0)" fill="rgb(251,250,250)" d="M 1015.44 928.456 C 1067.97 923.818 1114.39 962.453 1119.37 1014.95 C 1124.34 1067.45 1086.01 1114.12 1033.54 1119.43 C 980.601 1124.79 933.411 1086.03 928.389 1033.05 C 923.368 980.076 962.433 933.137 1015.44 928.456 z"/>
<path transform="translate(0,0)" fill="rgb(251,250,250)" d="M 532.203 1307.04 C 557.517 1307.76 586.095 1307.05 611.653 1306.97 C 616.013 1315.66 634.702 1337.88 641.623 1345.75 C 694.013 1406.3 759.977 1453.61 834.132 1483.82 C 827.664 1485.52 819.276 1488.52 812.763 1490.66 C 788.689 1498.89 764.393 1504.64 741.154 1512.51 C 650.422 1457.89 587.676 1398.13 532.203 1307.04 z"/>
<path transform="translate(0,0)" fill="rgb(251,250,250)" d="M 1014.5 567.44 C 1036.97 566.677 1070.26 570.397 1092.82 572.672 C 976.32 623.919 840.988 712.095 746.58 796.836 L 740.487 802.181 C 720.27 801.754 694.581 801.579 674.561 802.416 C 756.953 722.758 853.169 652.819 952.292 595.398 C 970.729 584.717 992.769 568.226 1014.5 567.44 z"/>
</svg>