<!-- RECRAFT VECTORIZE from logo/options-v2/F1-e-ring.png -->
<svg version="1.1" xmlns="http://www.w3.org/2000/svg" style="display: block;" viewBox="0 0 2048 2048" width="512" height="512" preserveAspectRatio="none">
<path transform="translate(0,0)" fill="rgb(65,57,203)" d="M 412.581 0 L 1630.74 0 C 1638.98 3.66586 1661.69 4.31963 1672.11 6.40536 C 1850.41 42.1063 2001.42 200.634 2040.6 376.381 C 2043.38 388.859 2044.51 407.623 2048 418.543 L 2048 1636.77 L 2047.73 1637.99 C 2045.61 1647.95 2044.65 1659.28 2043.15 1669.5 C 2040.83 1685.07 2037.69 1700.51 2033.75 1715.76 C 2005.37 1821.78 1939.15 1913.74 1847.61 1974.28 C 1801.1 2004.86 1749.36 2026.64 1694.98 2038.53 C 1685.88 2040.55 1648.08 2045.9 1643.52 2048 L 409.555 2048 C 401.754 2045.23 374.064 2041.08 363.046 2038.58 C 326.952 2030.24 292.137 2017.12 259.527 1999.54 C 150.952 1941.07 59.763 1834.57 20.2436 1717.71 C 13.9766 1698.86 8.99131 1679.61 5.32201 1660.09 C 3.58045 1650.82 2.8305 1638.2 0 1629.66 L 0 412.456 C 2.89311 404.483 2.379 393.034 3.6673 384.469 C 11.1961 334.412 26.5766 285.047 50.12 240.268 C 106.89 131.3 206.023 50.5145 324.206 16.9075 C 343.524 11.4468 363.167 7.21336 383.019 4.23254 C 392.353 2.84023 403.885 3.21628 412.581 0 z"/>
<path transform="translate(0,0)" fill="rgb(254,254,254)" d="M 1244.56 560.412 C 1258.86 559.24 1283.74 560.782 1298.25 561.751 C 1395.98 568.28 1491.17 595.652 1577.44 642.027 C 1780.4 752.309 1915.9 976.259 1793.36 1198.5 C 1720.49 1330.66 1586.53 1419.16 1443.92 1460.5 C 1390.5 1475.82 1335.46 1484.8 1279.94 1487.23 C 1266.21 1487.86 1249.97 1488.79 1236.52 1486.86 C 1226.72 1485.53 1217.25 1482.37 1208.61 1477.55 C 1193.85 1469.3 1178.94 1453.85 1174.21 1437.37 C 1153.07 1441.05 1125.5 1440.12 1103.5 1440.08 L 727.121 1440.09 L 605.67 1440.12 C 579.235 1440.13 535.319 1443.42 511.416 1433.18 C 481.815 1420.51 464.224 1390.62 464.074 1358.53 C 463.887 1318.5 463.919 1277.72 463.922 1237.3 L 463.916 998.214 L 463.899 773.698 C 463.883 734.975 463.544 695.869 464.14 657.15 C 464.318 645.562 466.224 633.736 471.011 623.094 C 479.701 603.897 495.613 588.903 515.291 581.366 C 539.236 572.39 620.853 575.905 650.761 575.907 L 859.354 575.902 L 1052.07 575.874 C 1086.48 575.849 1121.58 575.401 1155.97 576.322 C 1168.08 576.646 1178.78 580.215 1189.73 585.168 C 1206.08 568.539 1221.87 562.359 1244.56 560.412 z"/>
<path transform="translate(0,0)" fill="rgb(65,57,203)" d="M 1210.04 710.725 C 1235.07 723.606 1273.8 720.054 1303.38 722.802 C 1457.49 737.117 1644.21 832.19 1677.58 996.7 C 1688.31 1049.6 1663.15 1113.31 1631.33 1155.36 C 1560.61 1248.79 1446.02 1304.35 1331.73 1321.56 C 1295.9 1327.17 1261.19 1325.34 1226.56 1330.55 C 1204.29 1279.2 1165.38 1279.78 1117.2 1279.82 L 1046.77 1279.9 L 791.5 1279.88 L 704.119 1279.93 L 704.093 1088.15 L 955.56 1088.11 L 1020.07 1088.11 C 1055.14 1088.1 1084.75 1091.63 1111.84 1065.18 C 1127.2 1050.24 1135.89 1029.74 1135.95 1008.32 C 1136.05 987.077 1127.7 966.67 1112.75 951.584 C 1085.76 924.281 1055.04 927.871 1019.7 927.852 L 952.017 927.851 L 704.119 927.931 L 704.093 736.148 L 1014.75 736.073 C 1059.75 736.081 1105.04 736.414 1150.03 735.892 C 1173.69 735.617 1193.66 728.344 1210.04 710.725 z"/>
</svg>