<!-- RECRAFT VECTORIZE from logo/options-v2/F2-bars.png -->
<svg version="1.1" xmlns="http://www.w3.org/2000/svg" style="display: block;" viewBox="0 0 2048 2048" width="512" height="512" preserveAspectRatio="none">
<path transform="translate(0,0)" fill="rgb(48,47,130)" d="M 411.543 0 L 1631.53 0 C 1640.43 3.60255 1660.26 4.34903 1670.79 6.37882 C 1816.92 34.5517 1943.89 147.142 2007.04 279.486 C 2021.67 310.02 2032.77 342.123 2040.12 375.173 C 2042.22 384.989 2045.85 411.848 2048 418.587 L 2048 1636.76 L 2047.73 1637.98 C 2041.76 1665.54 2041.36 1686.66 2033.16 1716.94 C 2004.35 1823.27 1937.42 1915.29 1845.14 1975.46 C 1799.08 2005.62 1747.83 2026.98 1694 2038.48 C 1684.49 2040.6 1646.29 2046 1641.65 2048 L 412.207 2048 C 400.316 2043.9 378.702 2041.98 365.221 2038.89 C 188.215 1998.27 41.5456 1838.4 5.56726 1661.97 C 3.54866 1652.07 3.21843 1639.58 0 1630.33 L 0 412.148 C 1.27191 408.602 5.49764 374.415 7.06764 366.171 C 14.6552 324.898 28.0215 284.901 46.7722 247.358 C 102.566 135.722 202.441 52.454 322.292 17.6505 C 338.678 12.7385 354.324 9.43944 371.103 6.31785 C 382.081 4.27546 402.008 3.64555 411.543 0 z"/>
<path transform="translate(0,0)" fill="rgb(254,254,254)" d="M 586.561 1280.41 C 602.408 1278.38 626.966 1279.78 643.609 1279.82 L 741.381 1279.87 L 1061.31 1279.84 L 1333.36 1279.82 L 1416.35 1279.82 C 1461.3 1279.83 1487.14 1276.33 1523.85 1306.46 C 1605.46 1373.45 1566 1495.4 1461.32 1503.58 C 1447.23 1505.53 1423.34 1504.16 1408.31 1504.14 L 1311.87 1504.08 L 997.826 1504.11 L 716.853 1504.14 L 632.077 1504.14 C 588.653 1504.13 561.622 1507.64 525.607 1478.77 C 442.737 1412.36 480.478 1288.95 586.561 1280.41 z"/>
<path transform="translate(0,0)" fill="rgb(254,254,254)" d="M 586.571 544.414 C 602.334 542.379 626.858 543.784 643.361 543.817 L 741.344 543.874 L 1062.68 543.837 L 1333.94 543.817 L 1416.22 543.823 C 1461.2 543.833 1487.11 540.304 1523.85 570.46 C 1605.46 637.448 1566 759.397 1461.32 767.58 C 1446.93 769.569 1422.55 768.162 1407.17 768.135 L 1311.36 768.082 L 996.027 768.107 L 715.984 768.139 L 632.169 768.136 C 588.466 768.128 561.371 771.644 525.243 742.476 C 442.796 675.913 480.711 552.913 586.571 544.414 z"/>
<path transform="translate(0,0)" fill="rgb(254,254,254)" d="M 586.561 912.414 C 598.614 910.865 617.57 911.793 630.125 911.822 L 700.434 911.872 L 929.618 911.869 L 1113.83 911.82 C 1141.26 911.789 1168.72 911.593 1196.15 911.983 C 1224.41 912.384 1245.74 920.264 1267.54 938.095 C 1348.99 1004.7 1310.8 1127.28 1205.32 1135.58 C 1195.01 1136.97 1177.28 1136.15 1166.63 1136.15 L 1095.2 1136.12 L 871.71 1136.08 L 680.982 1136.13 L 623.594 1136.19 C 609.639 1136.19 593.582 1136.93 580.122 1134.85 C 495.842 1121.86 447.526 1019.84 506.338 951.855 C 528.849 925.834 553.544 915.105 586.561 912.414 z"/>
</svg>