<!-- RECRAFT VECTORIZE from logo/options-v2/F3-window.png -->
<svg version="1.1" xmlns="http://www.w3.org/2000/svg" style="display: block;" viewBox="0 0 2048 2048" width="512" height="512" preserveAspectRatio="none">
<path transform="translate(0,0)" fill="rgb(91,34,182)" d="M 412.247 0 L 1630.78 0 C 1640.15 3.78277 1659.99 4.07799 1670.86 6.21858 C 1849.92 41.4773 2001.3 200.339 2040.65 376.474 C 2043.62 389.756 2044.48 407.102 2048 419.115 L 2048 1636.63 L 2047.73 1637.79 C 2045.56 1647.49 2044.59 1659.44 2043.11 1669.49 C 2040.78 1685.14 2037.63 1700.65 2033.68 1715.97 C 2004.88 1823.25 1937.37 1916.07 1844.18 1976.51 C 1799.12 2005.55 1749.29 2026.4 1696.97 2038.1 C 1685.87 2040.59 1649.16 2045.6 1642.78 2048 L 410.221 2048 C 402.538 2045.44 376.076 2041.46 366.144 2039.27 C 330.709 2031.36 296.464 2018.84 264.281 2002.03 C 153.708 1943.93 61.2731 1837.41 20.716 1719.27 C 14.4708 1700.8 9.47937 1681.94 5.77568 1662.8 C 3.92166 1653.04 3.07375 1639.33 0 1630.34 L 0 412.166 C 1.5414 407.804 4.7289 377.13 6.46769 368.012 C 13.8263 327.343 26.7447 287.88 44.8596 250.731 C 100.444 137.021 201.587 52.1707 323.231 17.2036 C 344.379 10.9385 366.458 6.41881 388.365 3.91169 C 395.142 3.13614 406.261 2.32391 412.247 0 z"/>
<path transform="translate(0,0)" fill="rgb(254,254,254)" d="M 664.07 432.431 C 682.287 431.082 703.219 431.83 721.567 431.843 L 813.451 431.862 L 1100.97 431.862 L 1293.38 431.86 C 1329.8 431.86 1386.03 429.844 1420.18 436.345 C 1468.75 445.854 1513.77 468.524 1550.34 501.879 C 1604.44 550.249 1645.08 622.472 1647.36 695.363 C 1648.82 741.922 1648.13 790.212 1648.12 836.958 L 1648.11 1090.01 L 1648.14 1265.09 C 1648.15 1304.3 1649.93 1358.59 1642.84 1395.87 C 1633.45 1444.32 1611.01 1489.28 1577.93 1525.9 C 1525.96 1583.61 1460.09 1611.62 1383.47 1615.57 C 1365.59 1616.93 1344.61 1616.1 1326.58 1616.09 L 1234.1 1616.08 L 944.563 1616.07 L 755.567 1616.07 C 715.353 1616.07 666.22 1618.47 627.403 1611.53 C 509.215 1590.4 404.927 1473.22 400.595 1352.58 C 398.966 1307.23 399.958 1259.42 399.957 1213.73 L 399.942 953.191 L 399.904 781.868 C 399.888 743.207 398.056 687.882 405.303 651.368 C 414.878 602.91 437.468 557.974 470.648 521.384 C 521.95 464.581 588.476 436.31 664.07 432.431 z"/>
<path transform="translate(0,0)" fill="rgb(91,34,182)" d="M 704.064 592.132 L 1181.91 592.085 L 1315.97 592.031 C 1367.12 592.019 1409.26 584.877 1448.01 625.149 C 1476.13 654.38 1487.57 676.222 1487.92 717.008 L 1487.96 1156.98 L 1487.94 1287.54 C 1487.94 1338.29 1494.43 1383.69 1455.48 1422.68 C 1419.15 1459.06 1382.99 1455.95 1335.92 1455.92 L 1257.29 1455.84 L 961.5 1455.86 L 704.095 1455.9 L 704.108 1139.32 L 704.071 1049.43 C 704.071 1036.86 703.43 1011.45 705.148 1000.2 L 705.503 1001.34 C 712.804 1024.25 729.241 1039.26 753.922 1039.76 C 774.222 1040.17 794.385 1040.11 814.686 1040.12 L 926.806 1040.13 L 1042.07 1040.11 C 1060.46 1040.1 1106.11 1042.06 1121.25 1036.5 C 1133.15 1032.14 1142.67 1023 1147.53 1011.3 C 1154.51 994.631 1154.37 926.173 1147.52 910.335 C 1142.03 897.779 1131.64 888.015 1118.77 883.307 C 1102.96 877.606 1055.94 879.839 1037.21 879.878 L 923.616 879.871 L 813.366 879.835 C 793.786 879.829 774.142 879.438 754.578 880.154 C 725.7 881.211 712.507 893.539 704.555 920.338 C 703.443 881.261 704.118 839.397 704.113 800.085 L 704.064 592.132 z"/>
</svg>