<!-- RECRAFT VECTORIZE from logo/options-v2/F4-solid-e.png -->
<svg version="1.1" xmlns="http://www.w3.org/2000/svg" style="display: block;" viewBox="0 0 2048 2048" width="512" height="512" preserveAspectRatio="none">
<path transform="translate(0,0)" fill="rgb(29,28,76)" d="M 411.257 0 L 1631.66 0 C 1637.84 2.46204 1646.1 2.98019 1652.8 3.8882 C 1807.39 24.8191 1942.39 143.577 2007.83 281.522 C 2022.06 311.334 2032.84 342.674 2039.96 374.933 C 2042.27 385.738 2045.47 410.016 2048 418.528 L 2048 1636.92 C 2041.76 1666.28 2041.08 1687.25 2032.6 1718.25 C 2003.68 1823.86 1937.11 1915.24 1845.46 1975.15 C 1798.83 2005.65 1746.97 2027.27 1692.48 2038.91 C 1683.76 2040.84 1646.82 2045.63 1641.65 2048 L 413.173 2048 C 406.715 2045.66 376.45 2041.45 367.15 2039.36 C 333.398 2031.88 299.415 2019.66 268.716 2003.92 C 139.056 1937.39 36.8818 1809.19 6.38776 1666.1 C 4.09223 1655.33 3.59324 1640.27 0 1630.36 L 0 411.398 C 1.47862 407.337 5.73634 373.591 7.35828 365.101 C 14.9066 324.522 28.0713 285.192 46.4728 248.246 C 101.808 136.969 200.888 53.6837 320.022 18.3052 C 337.138 13.1702 353.428 9.68099 370.947 6.34923 C 381.881 4.2698 401.673 3.59547 411.257 0 z"/>
<path transform="translate(0,0)" fill="rgb(254,254,254)" d="M 687.66 416.43 C 688.678 416.341 689.697 416.265 690.718 416.204 C 721.034 414.632 760.656 415.844 791.841 415.843 L 985.3 415.857 L 1100.62 415.799 C 1143.08 415.784 1182.41 410.042 1216.36 440.713 C 1235.62 458.111 1246.98 482.583 1247.85 508.521 C 1248.89 534.135 1239.55 559.085 1221.95 577.72 C 1189.35 612.227 1154.12 608.138 1110.58 608.15 L 1043.77 608.158 L 843.447 608.135 C 807.669 608.126 771.853 608.029 736.086 608.316 C 642.315 609.067 573.047 683.34 576.716 776.668 C 579.811 841.133 621.638 897.302 682.513 918.741 C 695.232 923.186 708.486 925.922 721.925 926.877 C 743 928.574 769.192 927.898 790.735 927.892 L 898.346 927.86 L 1236.54 927.884 L 1306.54 927.775 C 1323.62 927.744 1347.55 927.01 1363.8 930.189 C 1381.07 933.649 1397.01 941.921 1409.79 954.049 C 1428.62 971.728 1439.47 996.285 1439.87 1022.11 C 1440.51 1047.94 1430.61 1072.92 1412.45 1091.3 C 1381.44 1122.81 1349.17 1120.18 1308.41 1120.17 L 1236.07 1120.13 L 959.95 1120.2 C 960.794 1134.64 961.768 1144.43 964.67 1158.57 C 986.869 1234.78 1046.83 1280.65 1125.99 1279.84 C 1143.74 1279.66 1161.83 1279.85 1179.6 1279.85 L 1301.83 1279.85 C 1343.09 1279.85 1377.14 1275.38 1409.66 1305.96 C 1428.62 1323.66 1439.54 1348.32 1439.9 1374.25 C 1440.47 1399.91 1430.65 1424.72 1412.66 1443.04 C 1376.86 1479.36 1331.5 1472.21 1284.66 1472.16 L 1196.39 1472.06 C 1185.78 1472.05 1165.82 1471.6 1155.8 1472.71 C 1144.4 1473.99 1125.26 1482.27 1113.03 1485.82 C 1081.06 1495.04 1047.94 1499.66 1014.67 1499.56 C 921.21 1499.48 831.621 1462.21 765.687 1395.97 C 746.106 1376.29 715.103 1338.19 705.161 1312.2 C 702.937 1306.38 703.764 1257.1 703.78 1247.34 L 703.951 1120.13 C 618.498 1119.98 535.996 1088.86 471.723 1032.54 C 401.172 970.715 358.31 883.216 352.703 789.574 C 346.89 696.634 378.196 605.186 439.748 535.307 C 504.921 461.711 590.11 422.376 687.66 416.43 z"/>
</svg>