<!-- RECRAFT VECTORIZE from logo/options-v2/F5-core-E.png -->
<svg version="1.1" xmlns="http://www.w3.org/2000/svg" style="display: block;" viewBox="0 0 2048 2048" width="512" height="512" preserveAspectRatio="none">
<path transform="translate(0,0)" fill="rgb(77,30,149)" d="M 412.251 0 L 1631.64 0 C 1639.79 3.67753 1661.85 4.47408 1671.75 6.45515 C 1821.39 36.3865 1951.1 152.394 2012.64 291.511 C 2025.18 319.351 2034.66 348.467 2040.93 378.349 C 2043.04 388.784 2045.72 411.373 2048 419.15 L 2048 1636.64 L 2047.73 1637.8 C 2045.52 1647.62 2044.46 1659.81 2042.94 1669.98 C 2040.58 1685.69 2037.39 1701.26 2033.37 1716.62 C 2004.34 1824.02 1936.47 1916.83 1842.93 1977.05 C 1797.97 2006 1748.21 2026.71 1695.99 2038.22 C 1685.69 2040.52 1647.77 2045.8 1642.57 2048 L 411.326 2048 C 403.325 2045.14 376.961 2041.87 365.937 2039.34 C 326.269 2030.17 288.096 2015.45 252.55 1995.6 C 148.021 1937.56 59.2674 1831.92 20.5906 1718.75 C 14.3533 1700.21 9.38456 1681.26 5.7188 1662.04 C 3.85056 1651.93 2.98982 1639.37 0 1629.79 L 0 411.604 C 1.52419 407.356 4.97659 376.398 6.7141 367.304 C 13.9811 327.422 26.6136 288.707 44.2675 252.213 C 99.4343 138.434 200.132 53.2793 321.495 17.7785 C 341.129 12.0632 361.124 7.66946 381.345 4.62681 C 390.342 3.20248 404.364 3.10928 412.251 0 z"/>
<path transform="translate(0,0)" fill="rgb(254,254,254)" d="M 584.197 544.192 C 630.884 542.401 687.601 543.844 734.975 543.846 L 1021.4 543.85 L 1204.1 543.821 C 1235.15 543.801 1267.47 543.365 1298.51 544.418 C 1308.26 545.113 1319.69 550.136 1327.03 556.949 C 1354.82 582.755 1340.69 630.577 1344.18 664.757 C 1345.25 675.215 1343.91 690.213 1341.92 700.343 C 1338.21 719.292 1320.17 733.281 1301.42 735.394 C 1282.42 736.73 1260.71 736.125 1241.31 736.12 L 1124.87 736.1 L 736.129 736.151 L 736.114 927.897 L 973.451 927.84 L 1038.09 927.784 C 1062.48 927.769 1086.62 924.26 1105.15 943.18 C 1111.07 949.114 1115.39 956.461 1117.68 964.525 C 1122.65 982.151 1119.1 1027.99 1120.2 1048.41 C 1120.44 1068.84 1121.52 1090.97 1105.49 1106.19 C 1086.92 1123.81 1060.76 1120.2 1036.65 1120.16 L 970.783 1120.06 L 736.129 1120.15 L 736.133 1158.5 L 736.114 1311.9 L 1109.56 1311.85 L 1229.94 1311.82 C 1255.47 1311.82 1294.53 1308.06 1317.88 1318.42 C 1325.86 1321.95 1340.45 1338.49 1341.59 1347.68 C 1345.61 1384.71 1345.38 1427.74 1342.75 1464.91 C 1339.18 1515.59 1257.64 1504.15 1223.96 1504.11 L 1074.57 1504.08 L 756.007 1504.06 L 650.961 1504.16 C 632.028 1504.17 612.851 1504.37 593.956 1504.01 C 585.17 1503.54 576.959 1503.18 569.394 1498.09 C 559.323 1491.71 545.341 1476.44 544.653 1463.97 C 543.267 1438.85 543.87 1410.61 543.889 1385.41 L 543.914 1201.05 L 543.911 795.808 L 543.893 664.877 C 543.872 641.053 543.907 617.214 543.987 593.393 C 544.076 567.058 558.209 549.686 584.197 544.192 z"/>
<path transform="translate(0,0)" fill="rgb(254,254,254)" d="M 1311.99 895.884 C 1365.59 936.482 1418.52 982.536 1472.28 1023.69 C 1421.5 1066.44 1364.59 1109.51 1312.54 1151.67 C 1309.48 1151.15 1168.9 1036.41 1151.89 1024.09 L 1311.99 895.884 z"/>
</svg>