<!-- RECRAFT VECTORIZE from logo/options-w/_sheet-icons.png -->
<svg version="1.1" xmlns="http://www.w3.org/2000/svg" style="display: block;" viewBox="0 0 2048 546" width="961" height="256" preserveAspectRatio="none">
<defs>
	<linearGradient id="Gradient1" gradientUnits="userSpaceOnUse" x1="110.897" y1="55.7006" x2="121.222" y2="56.6968">
		<stop class="stop0" offset="0" stop-opacity="1" stop-color="rgb(209,214,219)"/>
		<stop class="stop1" offset="1" stop-opacity="1" stop-color="rgb(255,254,255)"/>
	</linearGradient>
</defs>
<path transform="translate(0,0)" fill="rgb(12,17,32)" d="M 0 0 L 2048 0 L 2048 546 L 0 546 L 0 0 z"/>
<path transform="translate(0,0)" fill="rgb(254,254,254)" d="M 1225.17 406.693 C 1224 394.661 1224.52 374.882 1224.51 362.256 L 1224.5 286.045 L 1224.51 174.889 C 1224.51 158.827 1222.48 117.318 1227.61 100.512 C 1228.67 97.0513 1241.08 86.4671 1246.22 86.1889 C 1259.2 85.4865 1273.19 85.7002 1286.55 85.7005 L 1370.95 85.7118 L 1496.26 85.7353 C 1518 85.7208 1539.76 85.568 1561.49 85.9749 C 1569.88 86.132 1583.45 97.7771 1584.36 105.504 C 1586.41 122.832 1585.6 141.424 1585.59 158.97 L 1585.56 249.952 L 1585.52 349.876 C 1585.52 365.545 1585.84 381.217 1585.5 396.866 C 1585.25 408.918 1575.88 423.423 1563.36 425.177 C 1556.87 426.315 1549.17 425.876 1542.5 425.744 C 1542.58 430 1543.57 443.626 1541.46 446.336 C 1534.07 449.593 1525.55 442.427 1529.04 434.411 C 1531.65 428.428 1537.61 433.895 1540.33 430.309 L 1539.48 426.438 C 1536.03 425.466 1469.7 425.478 1466.01 426.522 C 1465.05 428.792 1465.47 429.952 1465.92 432.418 C 1468.54 432.295 1470.55 428.928 1474.22 432.621 C 1477.79 436.208 1477.11 441.142 1474.76 444.906 C 1469.88 448.097 1469.56 445.973 1463.37 446.609 C 1462.19 441.757 1462.48 431.228 1462.46 425.806 L 1391.9 425.919 L 1391.68 427.043 C 1386.52 425.174 1374.17 425.429 1368.6 425.969 C 1359.04 428.681 1322.33 425.766 1318.15 429.505 L 1320.7 430.4 C 1321.93 434.449 1323.61 437.609 1322.3 441.331 L 1321.31 436.785 C 1322.22 440.005 1321 443.451 1318.26 445.374 C 1315.52 447.297 1311.86 447.278 1309.14 445.325 C 1306.43 443.373 1305.24 439.915 1306.19 436.704 C 1300.34 436.711 1295.29 435.499 1291.18 440.006 C 1287.21 444.1 1291.09 443.527 1287.27 446.327 L 1286.61 446.039 L 1286.46 442.566 C 1284.79 440.16 1282.25 441.437 1277.61 440.587 L 1277.26 439.077 C 1274.14 438.06 1273.37 437.851 1271.38 435.271 C 1270.66 438.437 1269.71 445.098 1267.43 446.846 L 1265.82 446.993 C 1261.33 443.171 1263.22 432.439 1260.37 430.33 C 1259.29 433.647 1258.71 439.561 1257.34 440.931 L 1257.33 440.907 L 1257.78 441.007 L 1258.21 439.637 L 1256.58 438.492 L 1256.51 436.408 L 1254.56 440.698 C 1255.82 444.708 1255.9 443.217 1254.66 446.86 L 1253.36 447.049 C 1251.97 445.223 1247.87 429.041 1247.05 425.964 C 1237 422.386 1230.73 415.427 1225.17 406.693 z"/>
<path transform="translate(0,0)" fill="rgb(148,164,188)" d="M 1391.9 425.919 C 1398.47 423.608 1547.97 424.595 1563.36 425.177 C 1556.87 426.315 1549.17 425.876 1542.5 425.744 C 1542.58 430 1543.57 443.626 1541.46 446.336 C 1534.07 449.593 1525.55 442.427 1529.04 434.411 C 1531.65 428.428 1537.61 433.895 1540.33 430.309 L 1539.48 426.438 C 1536.03 425.466 1469.7 425.478 1466.01 426.522 C 1465.05 428.792 1465.47 429.952 1465.92 432.418 C 1468.54 432.295 1470.55 428.928 1474.22 432.621 C 1477.79 436.208 1477.11 441.142 1474.76 444.906 C 1469.88 448.097 1469.56 445.973 1463.37 446.609 C 1462.19 441.757 1462.48 431.228 1462.46 425.806 L 1391.9 425.919 z"/>
<path transform="translate(0,0)" fill="rgb(4,5,12)" d="M 1532.56 433.19 C 1535.14 433.54 1536.88 433.796 1538.9 435.631 C 1540.41 438.425 1539.4 441.577 1538.86 444.542 C 1536.13 444.308 1534.56 444.047 1532.48 442.191 C 1531 439.167 1531.91 436.322 1532.56 433.19 z"/>
<path transform="translate(0,0)" fill="rgb(4,5,12)" d="M 1467.01 434.866 C 1468.49 433.959 1470.34 433.93 1471.84 434.792 C 1473.35 435.654 1474.26 437.269 1474.22 439.001 C 1474.18 440.734 1473.2 442.307 1471.66 443.103 C 1469.4 444.273 1466.62 443.444 1465.37 441.227 C 1464.11 439.01 1464.84 436.199 1467.01 434.866 z"/>
<path transform="translate(0,0)" fill="rgb(4,5,12)" d="M 1288.5 425.585 C 1313.78 425.577 1343.72 424.886 1368.6 425.969 C 1359.04 428.681 1322.33 425.766 1318.15 429.505 L 1320.7 430.4 C 1321.93 434.449 1323.61 437.609 1322.3 441.331 L 1321.31 436.785 C 1322.22 440.005 1321 443.451 1318.26 445.374 C 1315.52 447.297 1311.86 447.278 1309.14 445.325 C 1306.43 443.373 1305.24 439.915 1306.19 436.704 C 1300.34 436.711 1295.29 435.499 1291.18 440.006 L 1289.35 438.645 C 1288.06 435.316 1288.47 429.373 1288.5 425.585 z"/>
<path transform="translate(0,0)" fill="rgb(131,147,172)" d="M 1306.19 436.704 C 1307.18 433.342 1310.27 431.04 1313.78 431.059 C 1317.28 431.077 1320.35 433.412 1321.31 436.785 C 1322.22 440.005 1321 443.451 1318.26 445.374 C 1315.52 447.297 1311.86 447.278 1309.14 445.325 C 1306.43 443.373 1305.24 439.915 1306.19 436.704 z"/>
<path transform="translate(0,0)" fill="rgb(4,5,12)" d="M 1310.64 433.255 C 1313.16 433.619 1314.88 433.902 1316.85 435.645 C 1318.32 438.339 1317.61 440.881 1317.11 443.743 C 1314.27 443.695 1313.22 443.792 1310.74 442.258 C 1309.26 439.534 1310.2 436.182 1310.64 433.255 z"/>
<path transform="translate(0,0)" fill="rgb(148,164,188)" d="M 1247.05 425.964 C 1252.1 424.634 1268.53 424.541 1273.53 425.756 L 1271.38 435.271 C 1270.66 438.437 1269.71 445.098 1267.43 446.846 L 1265.82 446.993 C 1261.33 443.171 1263.22 432.439 1260.37 430.33 C 1259.29 433.647 1258.71 439.561 1257.34 440.931 L 1257.33 440.907 L 1257.78 441.007 L 1258.21 439.637 L 1256.58 438.492 L 1256.51 436.408 L 1254.56 440.698 C 1255.82 444.708 1255.9 443.217 1254.66 446.86 L 1253.36 447.049 C 1251.97 445.223 1247.87 429.041 1247.05 425.964 z"/>
<path transform="translate(0,0)" fill="rgb(4,5,12)" d="M 1254.56 440.698 C 1252.74 435.694 1251.75 432.003 1250.46 426.906 L 1251.42 426.171 C 1253.94 426.025 1256.4 425.556 1258.42 426.994 C 1256.97 431.081 1256.8 432.075 1256.51 436.408 L 1254.56 440.698 z"/>
<path transform="translate(0,0)" fill="rgb(4,5,12)" d="M 1261.7 426.098 C 1265.68 426.002 1266.67 425.331 1269.74 427.048 C 1270.61 431.276 1268.57 435.076 1267.11 439.682 L 1266.28 440.887 C 1263.52 438.71 1265.96 432.44 1261.7 426.098 z"/>
<path transform="translate(0,0)" fill="rgb(4,5,12)" d="M 1273.53 425.756 C 1276.96 425.601 1281.32 424.918 1283.96 426.774 C 1283.9 430.155 1279.59 435.196 1277.26 439.077 C 1274.14 438.06 1273.37 437.851 1271.38 435.271 L 1273.53 425.756 z"/>
<path transform="translate(0,0)" fill="rgb(48,47,130)" d="M 1305.71 107.361 C 1311.97 107.033 1318.31 107.047 1324.6 107.094 C 1376.69 107.479 1428.93 106.196 1480.97 107.702 C 1489.28 107.942 1500.88 112.379 1507.62 117.048 C 1541.31 140.364 1540.01 164.624 1540.03 201.68 L 1540 260.378 C 1539.98 288.379 1541.09 317.703 1538.95 345.438 C 1536.63 375.472 1512.32 395.651 1484.09 400.891 C 1450.83 402.966 1414.6 400.965 1381.04 401.51 C 1355.13 401.931 1323.81 402.566 1298.52 399.773 C 1274.24 397.092 1246.81 365.232 1246.55 341.011 C 1245.42 313.124 1245.82 285.243 1245.82 257.5 L 1245.84 200.961 C 1245.85 187.338 1245.36 173.953 1247.37 160.428 C 1251.84 130.296 1275.77 110.455 1305.71 107.361 z"/>
<path transform="translate(0,0)" fill="rgb(254,254,254)" d="M 1325.36 139.254 L 1404.42 139.051 C 1417.18 139.035 1430.25 138.716 1442.82 139.473 C 1454.68 140.494 1452.77 152.779 1452.78 161.019 C 1452.78 167.678 1451.95 175.259 1443.7 175.936 C 1434.79 176.666 1424.72 176.243 1415.67 176.223 L 1356.12 176.08 L 1356.13 235.756 C 1367.6 235.883 1420.28 232.743 1426.64 238.815 C 1429.94 241.976 1429.88 246.78 1429.91 251.009 C 1429.96 257.338 1430.98 265.525 1426.18 270.338 C 1421.36 275.165 1366.17 272.871 1356.14 272.839 L 1356.14 301.5 L 1356.12 332.254 L 1414.69 332.196 C 1440.92 332.183 1455.83 326.108 1452.86 356.128 C 1452.28 361.897 1453.14 363.482 1448.66 367.838 C 1437.21 371.152 1348.59 369.199 1330.68 368.699 C 1328.9 368.649 1321.31 366.788 1320.45 364.688 C 1319.62 361.963 1319.33 358.207 1319.35 355.342 C 1319.75 285.981 1318.61 216.402 1319.93 147.123 C 1320 143.288 1322.48 141.284 1325.36 139.254 z"/>
<path transform="translate(0,0)" fill="rgb(254,254,254)" d="M 423.09 406.915 C 422.064 392.081 422.529 374.423 422.524 359.27 L 422.536 280.23 C 422.556 226.317 422.422 172.187 422.597 118.27 C 422.91 114.866 423.161 103.871 424.823 101.504 C 436.188 85.3215 442.906 85.6766 460.658 85.7146 C 493.994 85.7858 527.215 85.7049 560.485 85.7076 L 690.157 85.7321 C 713.42 85.7367 737.481 85.4621 760.721 86.0278 C 766.133 84.7879 782.313 99.9967 782.412 104.976 C 784.355 202.071 782.811 299.498 783.196 396.69 C 783.251 410.564 777.663 415.429 766.834 423.705 C 767.205 430.618 769.486 444.713 761.991 448.103 C 754.333 447.291 749.895 438.271 755.708 432.052 C 762.52 429.879 761.859 434.221 764.899 430.183 C 762.381 423.05 700.905 425.78 690.858 426.174 L 689.256 428.691 L 689.985 430.282 C 694.929 431.334 697.57 431.341 700.839 434.871 C 701.61 438.509 701.7 439.238 700.602 442.881 C 697.748 446.171 691.533 449.205 687.838 446.021 C 686.312 439.329 687.745 429.834 686.171 425.91 C 686.028 427.179 685.615 432.875 685.193 433.452 C 677.237 444.343 672.6 425.692 663.837 430.838 L 661.885 432.379 L 657.507 430.48 L 656.425 436.762 C 655.768 432.382 656.991 430.825 654.429 428.436 L 651.384 428.934 C 650.171 428.226 650.595 428.72 650.096 427.385 C 642.41 427.382 634.644 427.37 626.964 427.521 C 623.736 427.585 622.417 428.62 618.677 428.282 L 618.033 426.094 C 616.898 426.853 616.328 427.443 615.001 427.325 L 615.096 430.778 L 614.908 431.569 C 614.326 433.035 613.777 433.697 612.887 434.963 C 606.524 436.848 602.408 437.352 598.707 431.317 C 599.03 435.864 599.646 440.418 598.287 444.772 L 597.262 444.885 C 595.396 440.914 595.925 434.548 595.97 429.982 L 595.001 435.873 C 594.947 432.15 594.452 430.403 592.047 427.721 C 588.318 425.997 563.039 426.614 558.373 427.627 C 557.001 429.455 557.599 432.911 557.738 435.36 L 555.991 430.795 C 556.11 434.992 556.649 442.239 555.562 446.01 L 554.301 446.433 L 552.856 444.772 L 551.7 445.284 C 548.309 447.261 549.756 446.846 545.806 446.934 C 540.938 442.626 541.179 431.088 544.076 425.555 C 524.319 426.02 504.618 425.239 484.572 425.947 L 479.476 425.997 L 471.644 425.51 L 468.816 425.324 C 460.816 424.864 451.736 425.145 443.731 425.696 C 433.856 420.878 429.179 415.694 423.09 406.915 z"/>
<path transform="translate(0,0)" fill="rgb(131,147,172)" d="M 618.033 426.094 C 626.42 421.034 755.174 429.505 766.834 423.705 C 767.205 430.618 769.486 444.713 761.991 448.103 C 754.333 447.291 749.895 438.271 755.708 432.052 C 762.52 429.879 761.859 434.221 764.899 430.183 C 762.381 423.05 700.905 425.78 690.858 426.174 L 689.256 428.691 L 689.985 430.282 C 694.929 431.334 697.57 431.341 700.839 434.871 C 701.61 438.509 701.7 439.238 700.602 442.881 C 697.748 446.171 691.533 449.205 687.838 446.021 C 686.312 439.329 687.745 429.834 686.171 425.91 C 686.028 427.179 685.615 432.875 685.193 433.452 C 677.237 444.343 672.6 425.692 663.837 430.838 L 661.885 432.379 L 657.507 430.48 L 656.425 436.762 C 655.768 432.382 656.991 430.825 654.429 428.436 L 651.384 428.934 C 650.171 428.226 650.595 428.72 650.096 427.385 C 642.41 427.382 634.644 427.37 626.964 427.521 C 623.736 427.585 622.417 428.62 618.677 428.282 L 618.033 426.094 z"/>
<path transform="translate(0,0)" fill="rgb(4,5,12)" d="M 618.033 426.094 L 686.171 425.91 C 686.028 427.179 685.615 432.875 685.193 433.452 C 677.237 444.343 672.6 425.692 663.837 430.838 L 661.885 432.379 L 657.507 430.48 L 656.425 436.762 C 655.768 432.382 656.991 430.825 654.429 428.436 L 651.384 428.934 C 650.171 428.226 650.595 428.72 650.096 427.385 C 642.41 427.382 634.644 427.37 626.964 427.521 C 623.736 427.585 622.417 428.62 618.677 428.282 L 618.033 426.094 z"/>
<path transform="translate(0,0)" fill="rgb(4,5,12)" d="M 757.952 434.792 C 759.465 433.932 761.329 433.973 762.802 434.899 C 764.276 435.824 765.122 437.485 765.004 439.221 C 764.886 440.958 763.824 442.489 762.239 443.207 C 759.938 444.251 757.222 443.299 756.075 441.047 C 754.928 438.796 755.755 436.04 757.952 434.792 z"/>
<path transform="translate(0,0)" fill="rgb(4,5,12)" d="M 692.047 434.728 C 694.361 433.584 697.164 434.539 698.297 436.859 C 699.429 439.178 698.46 441.976 696.135 443.097 C 693.826 444.211 691.052 443.249 689.927 440.946 C 688.802 438.643 689.75 435.864 692.047 434.728 z"/>
<path transform="translate(0,0)" fill="rgb(4,5,12)" d="M 544.076 425.555 L 545.131 425.663 C 549.386 425.478 550.252 425.495 554.161 427.175 C 554.497 426.765 554.854 426.447 554.977 425.972 C 562.392 425.886 589.748 425.177 595.186 426.634 C 596.259 428.599 596.046 427.722 595.97 429.982 L 595.001 435.873 C 594.947 432.15 594.452 430.403 592.047 427.721 C 588.318 425.997 563.039 426.614 558.373 427.627 C 557.001 429.455 557.599 432.911 557.738 435.36 L 555.991 430.795 C 556.11 434.992 556.649 442.239 555.562 446.01 L 554.301 446.433 L 552.856 444.772 L 551.7 445.284 C 548.309 447.261 549.756 446.846 545.806 446.934 C 540.938 442.626 541.179 431.088 544.076 425.555 z"/>
<path transform="translate(0,0)" fill="rgb(148,164,188)" d="M 544.076 425.555 L 545.131 425.663 L 545.424 429.549 C 547.334 430.824 547.641 430.927 549.881 431.45 L 549.767 432.483 C 547.347 434.415 545.55 435.487 544.645 438.481 C 545.241 442.053 544.733 440.754 547.24 443.769 L 551.7 445.284 C 548.309 447.261 549.756 446.846 545.806 446.934 C 540.938 442.626 541.179 431.088 544.076 425.555 z"/>
<path transform="translate(0,0)" fill="rgb(148,164,188)" d="M 552.856 444.772 C 553.453 439.737 551.342 433.359 555.991 430.795 C 556.11 434.992 556.649 442.239 555.562 446.01 L 554.301 446.433 L 552.856 444.772 z"/>
<path transform="translate(0,0)" fill="rgb(4,5,12)" d="M 598.707 431.317 C 598.767 429.242 598.936 428.837 599.608 426.88 C 603.614 424.893 610.015 425.807 614.883 425.946 L 615.001 427.325 L 615.096 430.778 L 614.908 431.569 C 614.326 433.035 613.777 433.697 612.887 434.963 C 606.524 436.848 602.408 437.352 598.707 431.317 z"/>
<path transform="translate(0,0)" fill="rgb(148,164,188)" d="M 554.977 425.972 C 560.171 424.323 611.273 423.986 614.883 425.946 C 610.015 425.807 603.614 424.893 599.608 426.88 C 598.936 428.837 598.767 429.242 598.707 431.317 C 599.03 435.864 599.646 440.418 598.287 444.772 L 597.262 444.885 C 595.396 440.914 595.925 434.548 595.97 429.982 C 596.046 427.722 596.259 428.599 595.186 426.634 C 589.748 425.177 562.392 425.886 554.977 425.972 z"/>
<path transform="translate(0,0)" fill="rgb(48,47,130)" d="M 503.676 107.358 C 509.723 107.026 515.877 107.047 521.954 107.096 C 574.422 107.523 627.074 106.1 679.484 107.769 C 688.346 108.051 698.846 112.391 706.099 117.482 C 739.049 140.609 738.011 164.53 738.045 201.197 L 738.054 256.048 C 738.042 283.5 738.533 311.174 737.6 338.592 C 736.455 372.26 714.307 394.928 681.916 400.895 C 648.76 402.932 612.357 400.961 578.89 401.52 C 552.602 401.959 521.965 402.539 496.43 399.776 C 472.412 397.177 444.831 365.43 444.524 341.387 C 443.464 313.442 443.85 285.367 443.852 257.521 L 443.879 199.909 C 443.89 186.438 443.298 173.014 445.396 159.672 C 450.082 129.878 474.093 110.426 503.676 107.358 z"/>
<path transform="translate(0,0)" fill="rgb(254,254,254)" d="M 521.009 139.321 C 535.946 138.786 645.956 137.123 651.685 140.711 C 653.37 141.766 654.361 143.087 654.758 145.071 C 656.077 151.663 656.568 168.095 652.939 173.738 C 646.134 177.845 568.002 176.13 554.016 176.098 L 554.049 235.739 C 560.611 235.854 568.059 235.1 576.135 235.65 C 608.698 237.869 632.477 223.523 620.913 270.287 C 619.909 274.347 562.409 272.896 554.023 272.891 L 554.06 304.5 L 554.036 332.22 C 565.786 332.291 645.452 330.934 650.957 333.762 C 659.736 342.167 657.169 371.057 646.115 369.673 C 629.426 367.583 526.013 372.646 518.973 366.671 C 517.965 363.39 517.283 358.579 517.282 355.093 C 517.261 286.232 516.949 217.322 517.293 148.47 C 517.314 144.246 517.989 142.236 521.009 139.321 z"/>
<path transform="translate(0,0)" fill="rgb(254,254,254)" d="M 1626.15 406.639 C 1624.81 390.189 1625.45 366.423 1625.44 349.444 L 1625.41 252.151 L 1625.41 161.281 C 1625.41 145.27 1625.09 128.509 1625.84 112.572 C 1626.13 106.492 1626.82 102.062 1630.87 97.6893 C 1635.81 92.3482 1641.6 86.1956 1649.4 85.9898 C 1669.62 85.4571 1690.32 85.6772 1710.53 85.6799 L 1828.22 85.7353 L 1918.13 85.7078 C 1933.14 85.7038 1949 85.4378 1964 86.111 C 1968.11 86.2956 1972.81 89.4819 1975.8 92.1544 C 1984.21 99.6933 1986.24 103.423 1986.52 114.644 C 1986.98 133.7 1986.74 153.097 1986.73 172.139 L 1986.69 282.197 L 1986.67 360.703 C 1986.68 373.005 1987 385.245 1986.56 397.534 C 1986.14 409.071 1976.38 423.961 1964.24 425.165 C 1955.92 426.653 1934.74 425.994 1925.09 425.828 C 1925.14 430.664 1925.68 441.957 1924.2 445.95 C 1917.25 449.732 1907.95 443.792 1911 435.316 C 1913.49 428.414 1919.11 434.099 1922.02 430.199 L 1922.03 427.194 C 1919 425.232 1850.68 425.168 1847.85 426.94 L 1847.73 430.136 C 1850.5 432.92 1854.2 430.008 1856.88 432.751 C 1865.67 441.759 1851.13 451.272 1845.18 445.781 C 1844.75 439.96 1844.92 432.812 1844.44 427.646 C 1843.59 433.036 1844.5 433.016 1841.3 436.178 C 1830.79 439.042 1831.44 426.676 1819.76 430.626 L 1819.45 432.623 L 1818.06 430.976 C 1809.93 427.071 1784.07 423.506 1777.81 430.213 C 1777.36 433.236 1777.06 435.436 1776.9 438.524 L 1775.39 432.951 L 1774.14 429.706 L 1774.81 426.854 C 1770.6 424.674 1757.52 425.631 1752.35 425.784 L 1752.45 426.072 C 1753.77 429.653 1754.61 430.127 1757.85 432.108 L 1758.27 433.431 L 1754.47 433.969 C 1752.46 438.557 1755.52 442.622 1757.82 446.547 C 1754.32 446.867 1755.65 447.084 1752.42 445.578 C 1748.43 440.852 1754.98 436.111 1747.58 432.297 C 1740.81 433.434 1746.06 444.072 1741.76 446.489 L 1740.63 446.042 L 1738.76 445.102 L 1737.93 442.098 C 1738.91 439.867 1738.8 437.305 1737.62 435.171 L 1739.95 433.334 C 1739.46 433.114 1738.9 432.515 1738.47 432.114 C 1740.15 429.986 1741.08 429.503 1741.44 427.037 C 1737.61 424.676 1701.02 426.085 1692.96 425.854 C 1688.51 427.057 1687.58 427.156 1682.98 426.818 C 1682.67 426.593 1680.72 425.956 1680.22 425.779 L 1674.38 425.898 L 1672.01 425.482 L 1662.86 425.764 C 1656.19 424.82 1653.53 425.061 1646.96 425.533 C 1637.6 421.413 1631.39 415.468 1626.15 406.639 z"/>
<path transform="translate(0,0)" fill="rgb(131,147,172)" d="M 1775.86 426.017 C 1778.74 424.427 1943.59 424.69 1964.24 425.165 C 1955.92 426.653 1934.74 425.994 1925.09 425.828 C 1925.14 430.664 1925.68 441.957 1924.2 445.95 C 1917.25 449.732 1907.95 443.792 1911 435.316 C 1913.49 428.414 1919.11 434.099 1922.02 430.199 L 1922.03 427.194 C 1919 425.232 1850.68 425.168 1847.85 426.94 L 1847.73 430.136 C 1850.5 432.92 1854.2 430.008 1856.88 432.751 C 1865.67 441.759 1851.13 451.272 1845.18 445.781 C 1844.75 439.96 1844.92 432.812 1844.44 427.646 C 1843.59 433.036 1844.5 433.016 1841.3 436.178 C 1830.79 439.042 1831.44 426.676 1819.76 430.626 L 1819.45 432.623 L 1818.06 430.976 C 1809.93 427.071 1784.07 423.506 1777.81 430.213 C 1777.36 433.236 1777.06 435.436 1776.9 438.524 L 1775.39 432.951 L 1774.14 429.706 L 1774.81 426.854 L 1775.86 426.017 z"/>
<path transform="translate(0,0)" fill="rgb(4,5,12)" d="M 1775.86 426.017 C 1798.13 425.992 1821.35 425.667 1843.55 425.997 C 1844 426.636 1844.48 427.032 1844.44 427.646 C 1843.59 433.036 1844.5 433.016 1841.3 436.178 C 1830.79 439.042 1831.44 426.676 1819.76 430.626 L 1819.45 432.623 L 1818.06 430.976 C 1809.93 427.071 1784.07 423.506 1777.81 430.213 C 1777.36 433.236 1777.06 435.436 1776.9 438.524 L 1775.39 432.951 L 1774.14 429.706 L 1774.81 426.854 L 1775.86 426.017 z"/>
<path transform="translate(0,0)" fill="rgb(4,5,12)" d="M 1915.76 434.827 C 1917.24 434.017 1919.05 434.071 1920.48 434.969 C 1921.9 435.868 1922.74 437.469 1922.65 439.155 C 1922.56 440.841 1921.57 442.347 1920.05 443.093 C 1917.78 444.212 1915.03 443.309 1913.86 441.06 C 1912.7 438.812 1913.54 436.043 1915.76 434.827 z"/>
<path transform="translate(0,0)" fill="rgb(4,5,12)" d="M 1849.81 434.789 C 1852.09 433.689 1854.84 434.641 1855.95 436.921 C 1857.07 439.2 1856.14 441.952 1853.86 443.083 C 1851.57 444.224 1848.79 443.279 1847.66 440.978 C 1846.53 438.677 1847.5 435.899 1849.81 434.789 z"/>
<path transform="translate(0,0)" fill="rgb(148,164,188)" d="M 1692.96 425.854 C 1700.61 424.667 1746.35 423.807 1752.35 425.784 L 1752.45 426.072 C 1753.77 429.653 1754.61 430.127 1757.85 432.108 L 1758.27 433.431 L 1754.47 433.969 C 1752.46 438.557 1755.52 442.622 1757.82 446.547 C 1754.32 446.867 1755.65 447.084 1752.42 445.578 C 1748.43 440.852 1754.98 436.111 1747.58 432.297 C 1740.81 433.434 1746.06 444.072 1741.76 446.489 L 1740.63 446.042 L 1738.76 445.102 L 1737.93 442.098 C 1738.91 439.867 1738.8 437.305 1737.62 435.171 L 1739.95 433.334 C 1739.46 433.114 1738.9 432.515 1738.47 432.114 C 1740.15 429.986 1741.08 429.503 1741.44 427.037 C 1737.61 424.676 1701.02 426.085 1692.96 425.854 z"/>
<path transform="translate(0,0)" fill="rgb(4,5,12)" d="M 1739.95 433.334 C 1741.41 437.316 1740.86 441.795 1740.63 446.042 L 1738.76 445.102 L 1737.93 442.098 C 1738.91 439.867 1738.8 437.305 1737.62 435.171 L 1739.95 433.334 z"/>
<path transform="translate(0,0)" fill="rgb(48,47,130)" d="M 1706.77 107.392 C 1713 107.026 1719.33 107.044 1725.6 107.095 C 1777.85 107.522 1830.3 106.107 1882.49 107.763 C 1891.59 108.051 1903.35 113.037 1910.59 118.358 C 1942.19 141.575 1940.98 164.547 1941.01 200.302 L 1941.04 255.905 L 1941 309.595 C 1940.98 322.183 1941.48 334.566 1939.77 347.071 C 1935.68 377.04 1913.21 396.126 1884.25 400.957 C 1849.74 402.746 1813.02 401.016 1778.27 401.517 C 1753.28 401.878 1724.02 402.561 1699.62 399.777 C 1675.41 397.014 1648.26 365.746 1647.62 341.543 C 1646.4 313.341 1646.87 284.866 1646.87 256.734 L 1646.9 200.547 C 1646.91 186.968 1646.39 173.658 1648.43 160.187 C 1652.97 130.23 1676.99 110.404 1706.77 107.392 z"/>
<path transform="translate(0,0)" fill="rgb(254,254,254)" d="M 1724.13 139.336 C 1741.65 138.633 1845.2 137.401 1854.58 140.463 C 1856.63 142.327 1858.17 143.554 1858.14 146.82 C 1858.07 154.366 1860.48 168.658 1855.55 174.514 C 1848.81 177.446 1770.22 176.111 1757.08 176.081 L 1757.08 235.749 C 1765.78 235.835 1815.59 233.398 1824.14 238.635 C 1827.17 240.498 1827.55 264.875 1823.62 270.509 C 1819.08 274.569 1766.67 272.875 1757.1 272.841 L 1757.1 304.5 L 1757.08 332.265 L 1823.52 332.221 C 1831.67 332.2 1841.85 331.691 1849.62 331.973 C 1860.25 332.36 1859.93 352.805 1858.53 359.77 C 1857.34 365.704 1855.5 369.702 1848.39 369.456 C 1819.28 368.986 1790.18 369.576 1761.08 369.423 C 1750.67 369.368 1733.64 370.453 1724.08 368.302 C 1718.7 362.959 1720.46 327.959 1720.49 318.37 L 1720.59 247.633 L 1720.41 182.51 C 1720.37 170.897 1720.13 158.889 1720.71 147.286 C 1720.94 142.8 1721.57 142.353 1724.13 139.336 z"/>
<path transform="translate(0,0)" fill="rgb(254,254,254)" d="M 843.511 85.9792 C 890.337 84.2723 939.183 86.1584 986.193 85.7521 C 1044.25 85.2502 1102.58 85.7385 1160.62 86.0759 C 1169.89 86.1297 1181.08 97.8527 1183.73 106.097 C 1184.82 115.913 1184.33 129.552 1184.33 139.533 L 1184.26 204.203 C 1184.27 270.004 1185.6 340.409 1184 405.856 C 1179.46 414.157 1172.4 422.002 1163.27 425.182 C 1157.13 426.188 1153.22 426.002 1147.08 425.881 C 1147.13 430.696 1147.66 441.955 1146.18 445.932 C 1139.29 449.827 1129.95 443.664 1133.03 435.311 C 1135.61 428.315 1140.94 433.968 1144.39 429.621 L 1143.92 428.057 C 1138.52 425.211 1076.24 425.032 1069.79 426.482 C 1069.75 429.902 1069.19 429.643 1070.96 431.86 C 1075.21 432.076 1077.32 431.424 1080.2 433.679 C 1082.45 439.605 1081.44 443.603 1076.01 446.784 L 1067.58 446.596 C 1065.92 440.743 1067.43 429.639 1066.13 425.896 C 1065.79 430.624 1066.36 435.382 1060.79 436.822 C 1050.97 435.185 1051.86 427.135 1041.72 430.611 L 1041.43 432.678 L 1040.05 430.981 C 1036.02 429.258 1035.85 427.515 1031.18 429.053 C 1025.47 425.539 1013.07 427.594 1006.26 426.978 C 1002.26 426.616 1003.97 428.765 998.489 428.569 L 998.143 426.33 L 997.005 426.179 L 994.437 427.263 L 994.315 425.621 C 990.627 424.511 896.84 424.349 892.144 425.594 L 886.263 426.323 C 883.818 427.439 880.47 426.322 877.71 425.738 C 877.405 425.783 874.617 426.165 874.505 426.219 C 867.924 429.37 871.905 443.366 865.826 446.99 L 864.253 445.852 C 864.117 443.548 863.852 444.156 864.824 442.246 C 864.566 437.749 864.289 430.511 861.019 427.308 C 859.121 430.054 858.396 431.072 857.087 434.236 L 856.055 433.837 C 854.862 436.471 854.331 437.981 853.489 440.731 C 854.694 444.611 854.839 443.297 853.758 446.603 L 852.438 447.01 C 851.12 444.777 847.236 429.954 845.6 425.382 C 837.82 424.876 828.227 412.952 824.128 406.771 C 822.731 385.617 823.581 358.04 823.583 336.244 L 823.537 212.827 L 823.531 142.911 C 823.534 116.082 817.518 100.974 843.511 85.9792 z"/>
<path transform="translate(0,0)" fill="rgb(131,147,172)" d="M 997.005 426.179 C 1001.22 424.213 1146.96 424.681 1163.27 425.182 C 1157.13 426.188 1153.22 426.002 1147.08 425.881 C 1147.13 430.696 1147.66 441.955 1146.18 445.932 C 1139.29 449.827 1129.95 443.664 1133.03 435.311 C 1135.61 428.315 1140.94 433.968 1144.39 429.621 L 1143.92 428.057 C 1138.52 425.211 1076.24 425.032 1069.79 426.482 C 1069.75 429.902 1069.19 429.643 1070.96 431.86 C 1075.21 432.076 1077.32 431.424 1080.2 433.679 C 1082.45 439.605 1081.44 443.603 1076.01 446.784 L 1067.58 446.596 C 1065.92 440.743 1067.43 429.639 1066.13 425.896 C 1065.79 430.624 1066.36 435.382 1060.79 436.822 C 1050.97 435.185 1051.86 427.135 1041.72 430.611 L 1041.43 432.678 L 1040.05 430.981 C 1036.02 429.258 1035.85 427.515 1031.18 429.053 C 1025.47 425.539 1013.07 427.594 1006.26 426.978 C 1002.26 426.616 1003.97 428.765 998.489 428.569 L 998.143 426.33 L 997.005 426.179 z"/>
<path transform="translate(0,0)" fill="rgb(4,5,12)" d="M 998.143 426.33 C 1017.29 425.03 1046.21 425.95 1066.13 425.896 C 1065.79 430.624 1066.36 435.382 1060.79 436.822 C 1050.97 435.185 1051.86 427.135 1041.72 430.611 L 1041.43 432.678 L 1040.05 430.981 C 1036.02 429.258 1035.85 427.515 1031.18 429.053 C 1025.47 425.539 1013.07 427.594 1006.26 426.978 C 1002.26 426.616 1003.97 428.765 998.489 428.569 L 998.143 426.33 z"/>
<path transform="translate(0,0)" fill="rgb(4,5,12)" d="M 1137.67 434.835 C 1139.91 433.574 1142.75 434.358 1144.02 436.59 C 1145.3 438.822 1144.53 441.665 1142.31 442.955 C 1140.07 444.257 1137.19 443.483 1135.9 441.231 C 1134.62 438.978 1135.41 436.108 1137.67 434.835 z"/>
<path transform="translate(0,0)" fill="rgb(4,5,12)" d="M 1071.4 433.506 C 1074.43 434.067 1075.19 434.017 1077.33 436.386 C 1078.08 439.35 1077.15 441.957 1076.37 444.815 C 1073.17 444.32 1071.96 443.588 1070.09 441.097 C 1069.55 438.188 1070.39 436.165 1071.4 433.506 z"/>
<path transform="translate(0,0)" fill="rgb(148,164,188)" d="M 861.014 425.358 C 863.676 424.983 875.973 424.46 877.71 425.738 C 877.405 425.783 874.617 426.165 874.505 426.219 C 867.924 429.37 871.905 443.366 865.826 446.99 L 864.253 445.852 C 864.117 443.548 863.852 444.156 864.824 442.246 C 864.566 437.749 864.289 430.511 861.019 427.308 L 861.014 425.358 z"/>
<path transform="translate(0,0)" fill="rgb(4,5,12)" d="M 861.014 425.358 C 865.632 425.971 866.286 425.211 868.865 427.997 C 869.808 431.606 866.366 438.411 864.824 442.246 C 864.566 437.749 864.289 430.511 861.019 427.308 L 861.014 425.358 z"/>
<path transform="translate(0,0)" fill="rgb(4,5,12)" d="M 845.6 425.382 L 848.913 425.654 C 852.659 425.76 855.056 425.086 857.397 427.069 C 856.995 429.333 856.548 431.59 856.055 433.837 C 854.862 436.471 854.331 437.981 853.489 440.731 C 854.694 444.611 854.839 443.297 853.758 446.603 L 852.438 447.01 C 851.12 444.777 847.236 429.954 845.6 425.382 z"/>
<path transform="translate(0,0)" fill="rgb(148,164,188)" d="M 845.6 425.382 L 848.913 425.654 C 849.974 429.31 852.129 437.552 853.489 440.731 C 854.694 444.611 854.839 443.297 853.758 446.603 L 852.438 447.01 C 851.12 444.777 847.236 429.954 845.6 425.382 z"/>
<path transform="translate(0,0)" fill="rgb(48,47,130)" d="M 904.686 107.363 C 909.845 107.076 915.036 107.054 920.219 107.102 C 973.666 107.599 1027.33 106.017 1080.71 107.787 C 1089.34 108.074 1100.13 112.576 1107.12 117.465 C 1140.32 140.659 1139.02 165.052 1139.05 201.725 L 1139.05 258.771 C 1139.03 276.731 1138.97 295.09 1139.04 312.978 C 1139.13 337.964 1140.19 362.787 1120.92 381.701 C 1109.07 393.32 1098.55 398.01 1082.88 400.917 C 1075.16 401.452 1066.47 401.605 1058.64 401.45 C 1005.57 400.403 950.439 403.789 897.737 399.82 C 873.976 398.03 846.458 365.524 845.601 341.88 C 844.578 313.667 844.85 283.975 844.849 255.156 L 844.873 199.667 C 844.885 186.359 844.349 173.168 846.372 159.983 C 850.961 130.068 875.094 110.426 904.686 107.363 z"/>
<path transform="translate(0,0)" fill="rgb(254,254,254)" d="M 918.297 139.223 C 966.218 138.342 1017.33 139.056 1065.45 139.25 L 1065.35 180.686 L 959.863 180.702 L 959.882 233.387 C 987.494 233.222 1015.11 233.288 1042.72 233.586 L 1042.63 274.978 L 959.889 275.03 L 959.892 286.428 L 959.888 327.913 L 1065.5 327.93 L 1065.3 369.293 L 918.254 369.272 L 918.297 139.223 z"/>
<path transform="translate(0,0)" fill="rgb(254,254,254)" d="M 42.6997 425.631 C 28.4461 418.635 20.7255 411.664 21.0737 390.163 C 22.6017 295.81 19.0424 198.607 22.5967 104.498 C 22.8452 97.918 40.9502 83.591 46.731 85.9354 C 70.8973 85.2584 95.0295 85.7073 119.161 85.7661 L 230.081 85.7682 L 315.849 85.7195 C 329.245 85.7165 349.55 85.1618 362.529 86.0512 C 371.397 91.3846 376.961 95.9518 381.947 105.465 C 383.876 192.757 381.206 280.82 382.26 368.187 C 382.409 380.585 382.476 393.748 381.862 406.087 C 376.857 414.505 371.373 420.821 362.389 425.127 C 347.085 427.759 324.692 424.465 311.01 425.893 C 309.825 428.136 310.393 428.9 310.697 431.72 C 313.498 432.617 318.511 428.664 320.813 434.465 C 323.803 441.998 319.549 447.333 312.094 447.478 C 304.913 443.922 307.547 433.1 307.489 425.825 L 288.669 426.141 C 273.576 425.591 253.881 425.638 238.785 426.206 L 237.804 426.068 L 236.812 427.283 L 236.098 425.892 C 220.72 425.999 205.342 425.991 189.964 425.869 C 190.115 431.746 190.759 439.922 188.682 445.234 C 186.011 441.909 186.945 430.528 187.047 425.894 L 163.114 425.859 C 163.257 430.198 165.061 445.587 159.67 446.962 C 149.576 449.536 147.103 440.061 150.945 432.638 C 154.268 430.875 154.207 431.677 158.732 432.629 C 160.747 430.446 160.229 431.437 160.668 428.412 L 159.249 426.748 C 155.557 425.041 93.2803 426.248 83.0234 425.716 C 80.5359 426.117 77.5246 426.23 74.9735 426.396 L 70.2789 425.802 L 67.2639 425.815 L 65.833 425.621 C 60.6007 424.755 48.6149 425.453 42.6997 425.631 z"/>
<path transform="translate(0,0)" fill="rgb(131,147,172)" d="M 83.0234 425.716 C 89.9798 424.347 229.089 424.15 236.098 425.892 C 220.72 425.999 205.342 425.991 189.964 425.869 C 190.115 431.746 190.759 439.922 188.682 445.234 C 186.011 441.909 186.945 430.528 187.047 425.894 L 163.114 425.859 C 163.257 430.198 165.061 445.587 159.67 446.962 C 149.576 449.536 147.103 440.061 150.945 432.638 C 154.268 430.875 154.207 431.677 158.732 432.629 C 160.747 430.446 160.229 431.437 160.668 428.412 L 159.249 426.748 C 155.557 425.041 93.2803 426.248 83.0234 425.716 z"/>
<path transform="translate(0,0)" fill="rgb(4,5,12)" d="M 152.904 433.233 C 155.472 433.548 157.032 433.934 159.091 435.534 C 160.699 438.378 159.688 441.573 159.145 444.614 C 156.81 444.379 155.341 443.987 153.37 442.698 C 151.48 440.027 152.525 436.285 152.904 433.233 z"/>
<path transform="translate(0,0)" fill="rgb(148,164,188)" d="M 237.804 426.068 C 242.585 423.856 349.638 424.984 362.389 425.127 C 347.085 427.759 324.692 424.465 311.01 425.893 C 309.825 428.136 310.393 428.9 310.697 431.72 C 313.498 432.617 318.511 428.664 320.813 434.465 C 323.803 441.998 319.549 447.333 312.094 447.478 C 304.913 443.922 307.547 433.1 307.489 425.825 L 288.669 426.141 C 273.576 425.591 253.881 425.638 238.785 426.206 L 237.804 426.068 z"/>
<path transform="translate(0,0)" fill="rgb(4,5,12)" d="M 312.07 434.855 C 313.586 433.955 315.479 433.976 316.974 434.912 C 318.469 435.847 319.317 437.539 319.171 439.297 C 319.025 441.054 317.909 442.583 316.28 443.258 C 313.997 444.205 311.37 443.226 310.263 441.016 C 309.156 438.807 309.945 436.117 312.07 434.855 z"/>
<path transform="translate(0,0)" fill="rgb(48,47,130)" d="M 102.669 107.355 C 108.802 107.024 115.054 107.048 121.215 107.096 C 173.417 107.504 225.833 106.151 277.976 107.719 C 287.785 108.914 296.785 111.657 304.792 117.221 C 337.75 140.126 336.901 164.407 336.929 200.367 L 336.904 257.05 L 336.915 310.134 C 336.905 322.253 337.28 333.895 335.764 345.963 C 331.956 376.284 310.285 395.463 280.843 400.891 C 246.143 403.109 209.499 400.466 174.616 401.496 C 154.837 401.391 134.79 401.652 115.033 401.45 C 96.533 401.261 84.3943 399.205 69.6413 387.393 C 39.8375 363.529 42.9239 338.379 42.8984 304.299 L 42.8935 239.189 L 42.9284 190.998 C 42.9403 176.593 41.8186 163.539 46.7821 149.741 C 55.882 124.446 76.537 110.063 102.669 107.355 z"/>
<path transform="translate(0,0)" fill="rgb(254,254,254)" d="M 122.339 139.247 L 200.576 139.048 C 213.827 139.027 227.376 138.675 240.491 139.525 C 251.363 140.952 249.696 152.63 249.696 160.461 C 249.697 167.265 249.177 175.276 240.348 175.94 C 231.212 176.628 221.448 176.247 212.188 176.227 L 152.961 176.079 L 152.932 235.736 C 164.154 235.938 217.101 232.841 223.189 238.555 C 225.576 240.796 226.554 243.758 226.716 246.95 C 227.029 253.087 228.249 265.035 223.704 269.71 C 218.164 275.409 164.592 272.882 152.968 272.879 L 152.974 301.5 L 152.938 332.243 C 166.697 332.201 238.196 329.711 245.304 334.278 C 247.33 335.58 248.688 338.244 249.231 340.518 C 250.524 345.938 250.794 360.318 247.697 365.075 C 246.359 367.132 244.217 368.273 241.863 368.783 C 230.486 371.248 209.491 369.329 197.02 369.366 C 175.235 369.43 151.811 371.195 130.225 369.212 C 125.975 368.822 122.185 368.064 118.561 365.732 C 114.486 360.049 116.07 232.684 116.075 216.866 L 116.098 169.159 C 116.104 161.609 115.894 153.366 116.452 145.866 C 116.664 143.022 120.017 140.911 122.339 139.247 z"/>
<path transform="translate(0,0)" fill="rgb(131,147,172)" d="M 892.144 425.594 C 896.84 424.349 990.627 424.511 994.315 425.621 L 994.437 427.263 L 994.994 430.819 L 994.513 431.627 C 994.167 433.24 994.018 434.066 993.352 435.629 C 992.301 432.607 993.02 433.516 990.573 431.63 C 987.389 431.718 984.753 432.572 981.691 433.393 L 980.341 431.31 C 979.413 433.805 975.837 436.221 973.522 438.191 C 976.174 440.642 978.944 442.88 980.724 445.999 L 979.614 446.912 C 975.88 446.173 975.456 442.546 971.608 440.675 L 969.716 445.515 L 969.817 445.153 L 967.928 444.002 C 967.989 438.195 968.263 431.627 967.426 425.937 C 966.937 432.117 968.183 441.739 965.03 445.355 C 953.669 453.087 944.982 436.956 956.868 430.755 C 960.209 430.648 961.128 430.563 964.016 432.472 L 965.546 429.287 C 965.059 428.326 964.981 427.517 963.93 427.282 C 958.641 426.098 952.333 428.456 947.006 428.603 C 941.994 428.742 934.705 424.929 930.07 427.61 L 929.928 431.994 L 928.178 432.841 C 928.257 438.239 928.444 440.488 926.869 445.608 L 926.003 445.034 C 924.36 438.055 924.879 432.975 925.179 425.861 C 921.104 425.934 911.834 424.997 909.461 426.833 C 908.735 438.02 912.942 428.199 920.084 433.774 C 923.428 442.825 916.469 449.292 907.291 446.224 C 905.829 444.362 906.413 437.11 906.46 434.299 C 905.912 434.76 905.219 435.253 904.545 435.411 C 890.632 438.672 894.224 430.454 886.557 426.473 L 886.263 426.323 L 892.144 425.594 z"/>
<path transform="translate(0,0)" fill="rgb(4,5,12)" d="M 928.178 432.841 C 927.846 429.945 927.606 429.034 928.665 426.366 C 933.361 425.513 960.986 425.922 967.426 425.937 C 966.937 432.117 968.183 441.739 965.03 445.355 C 953.669 453.087 944.982 436.956 956.868 430.755 C 960.209 430.648 961.128 430.563 964.016 432.472 L 965.546 429.287 C 965.059 428.326 964.981 427.517 963.93 427.282 C 958.641 426.098 952.333 428.456 947.006 428.603 C 941.994 428.742 934.705 424.929 930.07 427.61 L 929.928 431.994 L 928.178 432.841 z"/>
<path transform="translate(0,0)" fill="rgb(131,147,172)" d="M 965.03 445.355 C 953.669 453.087 944.982 436.956 956.868 430.755 C 960.209 430.648 961.128 430.563 964.016 432.472 C 960.244 433.242 957.111 433.452 954.701 436.442 C 952.024 443.383 960.158 444.425 965.03 445.355 z"/>
<path transform="translate(0,0)" fill="rgb(4,5,12)" d="M 980.341 431.31 C 976.559 430.781 974.731 433.96 971.955 436.219 L 970.918 435.223 C 970.41 432.013 970.433 431.407 971.577 428.369 C 976.607 423.67 985.141 426.373 994.315 425.621 L 994.437 427.263 L 994.994 430.819 L 994.513 431.627 C 994.167 433.24 994.018 434.066 993.352 435.629 C 992.301 432.607 993.02 433.516 990.573 431.63 C 987.389 431.718 984.753 432.572 981.691 433.393 L 980.341 431.31 z"/>
<path transform="translate(0,0)" fill="rgb(4,5,12)" d="M 892.144 425.594 C 897.704 426.174 901.956 425.087 905.596 427.157 C 906.641 430.127 906.519 431.225 906.46 434.299 C 905.912 434.76 905.219 435.253 904.545 435.411 C 890.632 438.672 894.224 430.454 886.557 426.473 L 886.263 426.323 L 892.144 425.594 z"/>
<path transform="translate(0,0)" fill="rgb(4,5,12)" d="M 910.898 434.876 C 912.402 433.956 914.292 433.949 915.802 434.858 C 917.312 435.766 918.192 437.44 918.083 439.199 C 917.975 440.958 916.897 442.511 915.286 443.227 C 913.011 444.239 910.34 443.312 909.181 441.107 C 908.023 438.902 908.774 436.176 910.898 434.876 z"/>
<path transform="translate(0,0)" fill="rgb(254,254,254)" d="M 415.039 40.0477 C 429.663 39.8262 451.392 44.1142 436.84 63.3909 C 428.889 67.7388 423.958 66.9783 414.962 66.8968 L 415.039 40.0477 z"/>
<path transform="translate(0,0)" fill="rgb(4,5,12)" d="M 422.501 42.4711 C 424.209 42.6782 426.934 43.0098 428.441 43.7457 C 430.7 44.8764 432.4 46.8788 433.149 49.2907 C 434.503 53.5457 432.864 58.686 430.957 62.5236 C 427.782 63.8898 426.103 64.2857 423.281 62.6032 C 420.994 57.5974 422.234 48.4426 422.501 42.4711 z"/>
<path transform="translate(0,0)" fill="rgb(4,5,12)" d="M 560.193 434.661 C 560.372 431.729 559.937 432.741 561.861 430.597 C 567.52 428.226 588.329 426.552 591.932 431.906 C 591.988 433.609 592.267 435.407 591.321 436.778 C 591.05 440.366 591.729 443.669 588.773 445.845 C 582.495 450.466 577.57 446.452 575.801 439.964 C 574.45 441.417 572.716 443.05 571.998 444.85 C 572.325 445.615 572.168 445.677 572.067 446.608 C 562.298 449.011 560.221 442.525 560.193 434.661 z"/>
<path transform="translate(0,0)" fill="rgb(131,147,172)" d="M 575.801 439.964 C 578.38 437.657 582.478 436.244 585.751 434.91 L 586.095 433.852 C 583.708 433.569 579.564 433.497 578.101 431.896 C 582.551 427.487 588.888 432.167 591.321 436.778 C 591.05 440.366 591.729 443.669 588.773 445.845 C 582.495 450.466 577.57 446.452 575.801 439.964 z"/>
<path transform="translate(0,0)" fill="rgb(131,147,172)" d="M 560.193 434.661 C 563.266 432.394 567.865 429.324 571.864 430.672 L 572.613 431.81 C 570.207 435.615 562.881 434.076 562.623 440.515 C 565.846 443.454 567.693 444.083 571.998 444.85 C 572.325 445.615 572.168 445.677 572.067 446.608 C 562.298 449.011 560.221 442.525 560.193 434.661 z"/>
<path transform="translate(0,0)" fill="url(#Gradient1)" d="M 109.607 45.7632 C 117.108 45.6447 124.182 46.9408 124.069 56.4801 C 124.043 59.5299 122.718 62.4238 120.425 64.4353 C 116.939 67.542 113.086 66.991 108.906 66.0212 C 108.966 69.5535 109.159 71.4517 107.999 74.8527 L 105.379 76.0544 C 100.868 72.2402 100.751 52.7288 102.264 46.9899 C 104.327 45.2945 106.378 45.862 109.607 45.7632 z"/>
<path transform="translate(0,0)" fill="rgb(254,254,254)" d="M 108.906 66.0212 C 108.966 69.5535 109.159 71.4517 107.999 74.8527 L 105.379 76.0544 C 100.868 72.2402 100.751 52.7288 102.264 46.9899 C 104.327 45.2945 106.378 45.862 109.607 45.7632 L 109.935 47.7141 C 109.109 54.0957 108.696 57.4059 109.687 63.9677 L 108.906 66.0212 z"/>
<path transform="translate(0,0)" fill="rgb(4,5,12)" d="M 109.935 47.7141 C 119.243 49.8843 120.548 58.9155 113.454 63.8235 L 109.687 63.9677 C 108.696 57.4059 109.109 54.0957 109.935 47.7141 z"/>
<path transform="translate(0,0)" fill="rgb(254,254,254)" d="M 464.962 59.2271 C 464.887 54.3466 464.037 43.9823 466.715 40.4097 C 468.811 39.8222 469.091 39.9406 471.119 40.7791 C 471.96 44.2518 471.749 62.2013 471.834 66.9016 C 460.281 67.5894 459.645 58.8549 454.287 49.4339 C 454.31 54.1599 454.968 62.7203 452.79 66.3869 C 449.977 67.5676 451.12 67.4577 447.872 66.2761 C 446.022 62.3212 446.934 45.4222 447.063 39.9342 L 452.584 40.1189 C 458.739 42.7941 462.176 53.0413 464.962 59.2271 z"/>
<path transform="translate(0,0)" fill="rgb(254,254,254)" d="M 75.1907 45.7297 L 87.8917 45.9459 C 101.582 47.1632 101.409 68.7078 82.5009 66.3486 C 81.8756 71.5322 82.4963 71.8724 79.3705 75.1222 L 77.6968 74.9682 C 74.06 70.0552 75.0556 52.4821 75.1907 45.7297 z"/>
<path transform="translate(0,0)" fill="rgb(254,254,254)" d="M 75.1907 45.7297 L 87.8917 45.9459 L 86.9592 47.2162 C 79.992 51.3978 81.5561 58.2935 84.0203 65.043 L 82.5009 66.3486 C 81.8756 71.5322 82.4963 71.8724 79.3705 75.1222 L 77.6968 74.9682 C 74.06 70.0552 75.0556 52.4821 75.1907 45.7297 z"/>
<path transform="translate(0,0)" fill="rgb(4,5,12)" d="M 86.9592 47.2162 C 91.2035 52.2986 92.32 57.1035 88.4462 62.8987 C 86.6754 63.9961 86.0234 64.4672 84.0203 65.043 C 81.5561 58.2935 79.992 51.3978 86.9592 47.2162 z"/>
<path transform="translate(0,0)" fill="rgb(254,254,254)" d="M 53.1512 40.0424 C 56.0616 39.8908 57.0017 39.7519 59.774 40.5624 C 64.9336 45.1571 71.2632 60.5876 68.5605 66.9278 L 66.8859 67.0301 C 63.338 63.7917 64.2942 64.1758 62.8255 58.851 C 59.5142 58.8563 56.203 58.8997 52.8926 58.9813 C 50.0356 60.8847 51.7498 61.9769 49.7916 66.454 C 47.2852 67.2831 46.8048 67.4728 44.3235 66.7112 C 43.6745 63.1107 51.2681 45.0574 53.1512 40.0424 z"/>
<path transform="translate(0,0)" fill="rgb(254,254,254)" d="M 485.014 58.9353 C 484.18 62.9442 483.612 67.8824 478.589 67.1905 C 476.974 60.6238 482.486 37.8836 493.732 40.6434 C 497.444 46.2435 503.308 59.1634 502.517 65.8105 L 501.03 67.0648 C 494.626 66.0241 498.491 62.6043 495.537 58.8359 L 485.014 58.9353 z"/>
<path transform="translate(0,0)" fill="rgb(228,229,240)" d="M 485.014 58.9353 C 486.238 54.7959 486.615 52.544 491.897 52.3575 C 494.871 54.243 495.57 55.0424 495.537 58.8359 L 485.014 58.9353 z"/>
<path transform="translate(0,0)" fill="rgb(254,254,254)" d="M 181.476 46.4366 C 184.998 44.5681 189.253 44.741 192.612 46.889 C 195.971 49.0371 197.913 52.8274 197.693 56.8083 C 197.474 60.7891 195.128 64.3435 191.554 66.11 C 186.137 68.7874 179.574 66.6184 176.819 61.2404 C 174.064 55.8623 176.139 49.2687 181.476 46.4366 z"/>
<path transform="translate(0,0)" fill="rgb(4,5,12)" d="M 185.044 47.3117 L 188.15 48.5672 C 193.097 53.3703 191.06 59.5015 188.599 64.9433 L 184.93 63.456 C 180.007 58.0714 181.845 53.0188 185.044 47.3117 z"/>
<path transform="translate(0,0)" fill="rgb(254,254,254)" d="M 319.308 61.6013 C 316.887 65.9217 311.888 68.1046 307.073 66.9437 C 302.258 65.7828 298.803 61.5616 298.616 56.6123 C 298.429 51.6631 301.557 47.1936 306.271 45.6735 C 310.984 44.1534 316.134 45.9535 318.874 50.0793 C 321.169 53.5344 321.336 57.9832 319.308 61.6013 z"/>
<path transform="translate(0,0)" fill="rgb(4,5,12)" d="M 308.084 47.2253 C 308.376 47.3101 308.665 47.4034 308.952 47.505 C 316.83 50.3161 313.893 59.4086 311.579 64.9586 L 307.966 63.441 C 302.922 58.0667 304.919 52.9745 308.084 47.2253 z"/>
<path transform="translate(0,0)" fill="rgb(254,254,254)" d="M 323.448 45.5602 C 328.702 45.7462 340.336 45.9043 344.86 46.9063 L 345.459 47.7777 L 345.341 48.099 C 343.034 54.5748 344.323 59.7376 343.329 66.3878 C 340.759 67.4746 341.811 67.4225 339.003 66.303 C 335.374 61.0532 337.939 51.0864 334.844 47.8873 C 324.668 52.3235 336.496 61.9979 328.117 66.895 L 323.812 66.8157 C 322.264 64.0048 321.863 63.5433 319.308 61.6013 C 321.336 57.9832 321.169 53.5344 318.874 50.0793 L 323.448 45.5602 z"/>
<path transform="translate(0,0)" fill="rgb(4,5,12)" d="M 318.874 50.0793 L 323.448 45.5602 C 323.98 53.1362 323.936 59.2094 323.812 66.8157 C 322.264 64.0048 321.863 63.5433 319.308 61.6013 C 321.336 57.9832 321.169 53.5344 318.874 50.0793 z"/>
<path transform="translate(0,0)" fill="rgb(131,147,172)" d="M 443.731 425.696 C 451.736 425.145 460.816 424.864 468.816 425.324 L 471.644 425.51 C 470.932 429.029 468.192 447.261 463.365 446.494 C 462.653 443.199 462.636 444.496 464.08 440.977 L 462.827 439.734 L 461.646 441.37 C 459.808 438.83 459.439 429.264 458.96 425.187 C 457.89 430.69 456.868 436.013 455.538 441.469 L 454.996 441.398 L 453.985 440.043 C 453.621 436.222 455.262 430.907 456.232 427.039 L 455.074 426.157 C 452.304 426.135 450.723 425.618 448.754 427.002 C 450.226 433.045 451.5 439.134 452.576 445.26 L 451.962 445.67 C 448.057 438.975 446.79 430.129 443.731 425.696 z"/>
<path transform="translate(0,0)" fill="rgb(148,164,188)" d="M 468.816 425.324 L 471.644 425.51 C 470.932 429.029 468.192 447.261 463.365 446.494 C 462.653 443.199 462.636 444.496 464.08 440.977 C 465.885 437.317 467.693 429.551 468.816 425.324 z"/>
<path transform="translate(0,0)" fill="rgb(4,5,12)" d="M 468.816 425.324 C 467.693 429.551 465.885 437.317 464.08 440.977 L 462.827 439.734 C 462.732 433.5 461.316 432.47 461.138 427.726 C 463.59 425.215 464.582 425.872 468.816 425.324 z"/>
<path transform="translate(0,0)" fill="rgb(131,147,172)" d="M 42.6997 425.631 C 48.6149 425.453 60.6007 424.755 65.833 425.621 L 67.2639 425.815 L 70.2789 425.802 C 69.3688 430.073 66.9353 445.189 63.7629 447.144 L 62.5484 446.279 C 62.1689 443.945 62.0511 443.556 63.0819 441.459 L 61.5316 439.189 L 60.5189 441.325 C 58.604 439.413 58.4724 429.585 58.2065 426.149 C 57.0665 430.768 55.5517 435.733 54.246 440.343 C 54.395 436.213 54.8209 429.444 52.2748 426.159 C 49.3773 425.362 50.4985 425.262 47.7764 426.693 C 47.6448 430.487 51.6648 440.854 53.0215 445.02 L 51.8972 447.059 L 50.4372 446.916 C 47.2877 443.673 46.544 432.518 42.8475 425.891 L 42.6997 425.631 z"/>
<path transform="translate(0,0)" fill="rgb(4,5,12)" d="M 67.2639 425.815 L 70.2789 425.802 C 69.3688 430.073 66.9353 445.189 63.7629 447.144 L 62.5484 446.279 C 62.1689 443.945 62.0511 443.556 63.0819 441.459 L 61.5316 439.189 C 61.8518 432.553 59.1416 429.849 60.899 426.336 L 65.833 425.621 L 67.2639 425.815 z"/>
<path transform="translate(0,0)" fill="rgb(148,164,188)" d="M 67.2639 425.815 L 70.2789 425.802 C 69.3688 430.073 66.9353 445.189 63.7629 447.144 L 62.5484 446.279 C 62.1689 443.945 62.0511 443.556 63.0819 441.459 C 65.43 436.685 66.3676 431.019 67.2639 425.815 z"/>
<path transform="translate(0,0)" fill="rgb(254,254,254)" d="M 200.923 45.744 C 205.68 45.9255 211.76 45.2988 216.328 46.1031 C 225.713 47.7556 223.457 63.1592 217.575 67.5384 L 215.948 67.1205 C 214.479 63.6612 214.881 57.7178 214.898 53.7501 C 214.887 52.1812 214.347 50.6619 213.902 49.1515 C 211.44 47.7401 212.436 47.876 209.865 48.289 C 206.959 52.3544 209.456 58.6975 206.81 65.2403 C 204.227 67.3327 205.394 66.9492 202.145 66.8509 C 200.295 64.0782 200.949 50.2373 200.923 45.744 z"/>
<path transform="translate(0,0)" fill="rgb(254,254,254)" d="M 377.793 40.1004 C 384.766 39.9742 389.344 40.0629 396.293 40.6585 C 395.617 41.7113 387.488 43.8675 384.847 44.9717 L 384.847 48.9838 C 387.878 52.8071 391.509 49.0451 395.316 52.1067 L 395.802 51.7422 C 391.526 54.2283 386.997 52.9672 384.647 55.1192 L 385.019 62.6242 C 386.605 64.5815 393.103 64.3208 397.16 65.0273 L 397.22 66.0877 C 394.123 67.3883 381.79 66.8854 377.658 66.8513 L 377.793 40.1004 z"/>
<path transform="translate(0,0)" fill="rgb(254,254,254)" d="M 272.924 36.9648 C 275.354 37.1727 274.525 36.9598 276.573 38.5221 L 277.84 37.879 L 277.676 37.6169 L 278.159 38.4607 C 275.521 39.7476 274.58 40.1093 272.519 42.2342 L 272.723 44.3029 C 274.743 45.2232 275.511 45.4666 277.664 46.0179 L 277.476 47.6841 L 273.241 48.6869 C 271.89 51.7075 272.48 60.9939 272.536 64.8047 C 272.266 65.9448 271.832 66.0986 270.939 67.031 L 268.127 66.6323 C 267.917 66.4089 267.073 65.4216 267.014 65.1226 C 264.96 54.7203 260.273 41.6033 272.924 36.9648 z"/>
<path transform="translate(0,0)" fill="rgb(148,164,188)" d="M 385.379 422.541 L 386.467 423.374 C 388.278 426.788 389.395 443.858 385.96 446.629 C 382.557 446.299 380.901 446.779 377.618 447.474 C 374.113 444.235 371.6 439.43 373.718 434.864 C 376.462 432.546 380.149 432.175 383.726 431.44 C 385.241 429.827 385.186 425.025 385.379 422.541 z"/>
<path transform="translate(0,0)" fill="rgb(4,5,12)" d="M 377.499 433.206 C 380.098 433.521 381.87 433.712 383.843 435.621 C 385.293 438.431 384.381 441.46 383.863 444.422 C 380.863 443.941 379.735 443.89 377.303 441.93 C 376.029 439.097 376.947 436.126 377.499 433.206 z"/>
<path transform="translate(0,0)" fill="rgb(131,147,172)" d="M 1326.19 430.226 L 1329.57 431.867 C 1329.94 431.778 1330.31 431.698 1330.69 431.65 C 1333.51 431.294 1336.71 432.275 1338.87 434.14 C 1339.91 435.033 1340.56 436.15 1340.68 437.502 C 1341.04 441.499 1338.47 444.815 1336.07 447.697 C 1334.14 447.271 1332.2 446.518 1330.31 445.918 C 1329.2 447.896 1328.12 449.873 1326.71 451.658 C 1326.05 444.521 1326.16 437.384 1326.19 430.226 z"/>
<path transform="translate(0,0)" fill="rgb(4,5,12)" d="M 1330.92 434.758 C 1332.41 433.944 1334.22 434.002 1335.65 434.911 C 1337.09 435.819 1337.92 437.434 1337.82 439.129 C 1337.71 440.823 1336.7 442.329 1335.17 443.061 C 1332.89 444.152 1330.16 443.229 1329 440.979 C 1327.85 438.729 1328.7 435.971 1330.92 434.758 z"/>
<path transform="translate(0,0)" fill="rgb(148,164,188)" d="M 524.122 430.342 L 527.148 431.896 C 530.42 431.461 533.251 431.588 536.073 433.601 C 537.354 434.514 538.343 435.697 538.555 437.271 C 539.048 440.94 536.387 444.847 534.248 447.573 C 531.568 447.281 529.847 445.5 527.201 446.254 L 526.515 451.474 L 524.935 452.278 C 522.498 448.763 524.062 435.206 524.122 430.342 z"/>
<path transform="translate(0,0)" fill="rgb(4,5,12)" d="M 528.45 433.385 C 528.921 433.404 529.391 433.441 529.859 433.494 C 532.542 433.82 533.268 434.44 534.87 436.447 C 535.482 439.389 534.473 441.816 533.545 444.563 C 530.687 443.966 529.737 443.842 527.534 441.787 C 526.607 438.661 527.501 436.365 528.45 433.385 z"/>
<path transform="translate(0,0)" fill="rgb(4,5,12)" d="M 238.785 426.206 C 253.881 425.638 273.576 425.591 288.669 426.141 C 285.92 428.233 280.221 427.517 276.144 427.514 C 279.001 429.636 282.737 428.518 287.34 429.345 L 283.837 430.904 L 282.319 432.27 L 279.111 430.997 C 278.042 432.371 277.778 432.631 277.517 434.441 C 277.118 437.397 276.757 440.456 276.186 443.376 C 275.344 441.009 274.715 438.833 273.216 436.802 C 272.499 434.238 270.524 432.217 267.977 431.442 L 267.6 430.921 C 260.928 429.921 258.738 429.833 252.061 429.981 C 248.253 431.072 246.143 431.762 242.517 433.344 C 245.229 424.075 263.926 431.962 270.862 427.526 C 262.697 426.991 254.502 427.115 246.357 427.895 C 243.686 428.171 240.695 429.236 238.69 429.355 L 238.785 426.206 z"/>
<path transform="translate(0,0)" fill="rgb(131,147,172)" d="M 1886.91 430.315 L 1887.42 430.306 C 1888.95 430.288 1889.56 430.207 1890.92 431.015 L 1893.01 429.951 L 1892.75 435.407 C 1891.85 439.709 1891.62 441.918 1891.35 446.314 L 1890.48 446.575 C 1885.16 446.798 1878.28 448.215 1876.36 442.091 C 1879.16 435.314 1885.97 435.008 1892.41 433.484 C 1888.28 433.476 1881.65 433.858 1877.98 432.298 C 1880.07 430.421 1883.95 430.551 1886.91 430.315 z"/>
<path transform="translate(0,0)" fill="rgb(4,5,12)" d="M 1886.91 430.315 L 1887.42 430.306 C 1888.95 430.288 1889.56 430.207 1890.92 431.015 L 1893.01 429.951 L 1892.75 435.407 C 1891.85 439.709 1891.62 441.918 1891.35 446.314 L 1890.48 446.575 C 1889.71 439.598 1890.42 436.281 1886.91 430.315 z"/>
<path transform="translate(0,0)" fill="rgb(4,5,12)" d="M 1791.83 444.792 L 1792.19 445.097 L 1791.96 446.353 C 1773.23 452.428 1777.55 422.841 1793.29 432.564 L 1795.28 431.1 L 1796.56 431.641 L 1796.21 435.083 C 1795.74 435.914 1795.43 436.824 1795.28 437.768 C 1794.31 440.963 1794.05 442.144 1791.83 444.792 z"/>
<path transform="translate(0,0)" fill="rgb(131,147,172)" d="M 1791.83 444.792 L 1792.19 445.097 L 1791.96 446.353 C 1773.23 452.428 1777.55 422.841 1793.29 432.564 C 1787.83 433.425 1784.89 433.23 1782.7 438.858 C 1784.29 444.238 1786.6 443.97 1791.83 444.792 z"/>
<path transform="translate(0,0)" fill="rgb(4,5,12)" d="M 1015.25 432.516 L 1017.91 430.665 C 1019.12 432.626 1018.69 432.227 1018.23 435.116 C 1017.76 435.938 1017.45 436.837 1017.31 437.77 C 1016.28 441.402 1016.06 442.315 1013.33 445.028 L 1013.63 446.343 C 1008.14 448.691 1004.12 445.289 1001.02 441.102 C 999.459 432.756 1008.18 428.263 1015.25 432.516 z"/>
<path transform="translate(0,0)" fill="rgb(131,147,172)" d="M 1013.33 445.028 L 1013.63 446.343 C 1008.14 448.691 1004.12 445.289 1001.02 441.102 C 999.459 432.756 1008.18 428.263 1015.25 432.516 C 1010.24 433.319 1006.83 433.229 1004.77 438.44 C 1005.91 443.877 1008.27 443.84 1013.33 445.028 z"/>
<path transform="translate(0,0)" fill="rgb(148,164,188)" d="M 1646.96 425.533 C 1653.53 425.061 1656.19 424.82 1662.86 425.764 C 1665.54 431.68 1666.07 432.701 1665.9 439.373 L 1664.8 440.471 C 1662.93 438.663 1662.44 429.107 1662.05 425.92 C 1660.93 430.275 1660.55 434.801 1658.82 438.907 L 1658.12 438.75 L 1657.06 433.65 C 1656.77 435.568 1656.41 439.128 1655.57 440.697 C 1656.9 444.701 1656.98 443.219 1655.71 446.819 L 1654.37 446.98 C 1651.13 441.307 1650.11 428.178 1646.96 425.533 z"/>
<path transform="translate(0,0)" fill="rgb(4,5,12)" d="M 1655.57 440.697 C 1653.5 435.141 1649.74 429.067 1655.39 424.965 C 1658.17 426.532 1657.67 425.761 1658.93 428.236 L 1657.06 433.65 C 1656.77 435.568 1656.41 439.128 1655.57 440.697 z"/>
<path transform="translate(0,0)" fill="rgb(254,254,254)" d="M 232.141 48.5025 L 232.632 51.4125 C 236.768 54.0845 243.807 54.3954 245.628 59.7729 C 244.688 63.3952 244.945 62.3906 242.195 65.2806 C 237.784 67.2302 230.567 67.2228 227.136 63.5395 L 228.035 62.0796 C 231.492 63.2143 234.83 64.7866 238.026 62.8962 C 235.717 57.5908 226.646 58.4803 226.319 50.4753 C 228.2 47.6016 228.847 47.2793 231.969 45.9118 L 232.141 48.5025 z"/>
<path transform="translate(0,0)" fill="rgb(131,147,172)" d="M 1737.93 442.098 C 1736.47 445.427 1732.91 447.309 1729.33 446.642 C 1725.76 445.975 1723.11 442.935 1722.95 439.303 C 1722.79 435.671 1725.15 432.405 1728.65 431.42 C 1732.14 430.434 1735.86 431.988 1737.62 435.171 C 1738.8 437.305 1738.91 439.867 1737.93 442.098 z"/>
<path transform="translate(0,0)" fill="rgb(4,5,12)" d="M 1727.75 433.241 C 1730.38 433.549 1731.98 433.88 1734.06 435.587 C 1735.48 438.316 1734.66 441.182 1734.16 444.063 C 1731.56 444.103 1730.06 443.997 1727.91 442.478 C 1726.26 439.621 1727.25 436.324 1727.75 433.241 z"/>
<path transform="translate(0,0)" fill="rgb(131,147,172)" d="M 1796.21 435.083 C 1798.2 431.567 1802.54 430.146 1806.22 431.806 C 1809.91 433.466 1811.72 437.659 1810.4 441.478 C 1809.08 445.297 1805.07 447.483 1801.15 446.52 C 1797.23 445.557 1794.68 441.763 1795.28 437.768 C 1795.43 436.824 1795.74 435.914 1796.21 435.083 z"/>
<path transform="translate(0,0)" fill="rgb(4,5,12)" d="M 1800.71 434.791 C 1802.22 433.927 1804.09 433.979 1805.55 434.925 C 1807.02 435.871 1807.83 437.554 1807.66 439.289 C 1807.49 441.023 1806.37 442.519 1804.76 443.168 C 1802.48 444.081 1799.89 443.076 1798.82 440.869 C 1797.76 438.662 1798.58 436.006 1800.71 434.791 z"/>
<path transform="translate(0,0)" fill="rgb(131,147,172)" d="M 508.747 431.717 C 511.353 430.658 514.329 431.083 516.533 432.832 C 518.738 434.581 519.83 437.381 519.391 440.16 C 518.953 442.94 517.051 445.268 514.415 446.252 C 510.42 447.745 505.967 445.752 504.417 441.779 C 502.867 437.805 504.796 433.324 508.747 431.717 z"/>
<path transform="translate(0,0)" fill="rgb(4,5,12)" d="M 508.636 433.215 C 511.228 433.562 512.88 433.829 514.904 435.628 C 516.314 438.313 515.566 440.887 515.045 443.713 C 512.283 443.763 511.176 443.909 508.698 442.53 C 507.13 439.61 508.113 436.321 508.636 433.215 z"/>
<path transform="translate(0,0)" fill="rgb(131,147,172)" d="M 267.977 431.442 C 270.524 432.217 272.499 434.238 273.216 436.802 C 274.174 440.231 272.687 443.874 269.603 445.654 C 266.519 447.433 262.621 446.897 260.132 444.35 C 257.643 441.804 257.196 437.895 259.045 434.852 C 260.894 431.809 264.57 430.406 267.977 431.442 z"/>
<path transform="translate(0,0)" fill="rgb(4,5,12)" d="M 263.286 434.799 C 265.455 433.512 268.252 434.166 269.625 436.28 C 270.998 438.395 270.458 441.216 268.401 442.674 C 266.994 443.671 265.154 443.817 263.608 443.055 C 262.061 442.293 261.056 440.745 260.989 439.023 C 260.922 437.3 261.804 435.679 263.286 434.799 z"/>
<path transform="translate(0,0)" fill="rgb(148,164,188)" d="M 1018.23 435.116 C 1020.19 431.615 1024.51 430.193 1028.17 431.836 C 1031.84 433.479 1033.64 437.644 1032.34 441.443 C 1031.04 445.241 1027.05 447.419 1023.15 446.465 C 1019.25 445.512 1016.72 441.741 1017.31 437.77 C 1017.45 436.837 1017.76 435.938 1018.23 435.116 z"/>
<path transform="translate(0,0)" fill="rgb(4,5,12)" d="M 1022.62 434.771 C 1024.86 433.465 1027.73 434.216 1029.05 436.452 C 1030.36 438.687 1029.62 441.562 1027.38 442.881 C 1025.14 444.205 1022.25 443.458 1020.94 441.214 C 1019.62 438.97 1020.37 436.082 1022.62 434.771 z"/>
<path transform="translate(0,0)" fill="rgb(148,164,188)" d="M 136.742 430.73 C 148.609 431.102 150.609 439.005 142.851 447.101 C 131.3 446.908 129.986 438.533 136.742 430.73 z"/>
<path transform="translate(0,0)" fill="rgb(4,5,12)" d="M 137.661 434.751 C 139.183 433.835 141.089 433.846 142.6 434.781 C 144.111 435.715 144.973 437.415 144.834 439.186 C 144.695 440.957 143.578 442.502 141.94 443.189 C 139.647 444.15 137 443.178 135.876 440.96 C 134.751 438.742 135.53 436.032 137.661 434.751 z"/>
<path transform="translate(0,0)" fill="rgb(148,164,188)" d="M 642.229 431.806 C 644.831 430.676 647.842 431.058 650.078 432.803 C 652.314 434.548 653.418 437.375 652.956 440.174 C 652.493 442.972 650.537 445.293 647.859 446.225 C 643.925 447.593 639.614 445.606 638.099 441.727 C 636.585 437.847 638.409 433.465 642.229 431.806 z"/>
<path transform="translate(0,0)" fill="rgb(4,5,12)" d="M 642.942 434.739 C 644.446 433.854 646.315 433.866 647.808 434.77 C 649.301 435.674 650.178 437.325 650.091 439.068 C 650.003 440.811 648.967 442.366 647.391 443.117 C 645.097 444.21 642.348 443.303 641.156 441.058 C 639.964 438.813 640.751 436.028 642.942 434.739 z"/>
<path transform="translate(0,0)" fill="rgb(148,164,188)" d="M 936.349 431.786 C 938.952 430.691 941.945 431.104 944.154 432.863 C 946.362 434.623 947.434 437.448 946.947 440.23 C 946.461 443.011 944.494 445.305 941.82 446.211 C 937.884 447.544 933.6 445.522 932.127 441.637 C 930.653 437.752 932.52 433.398 936.349 431.786 z"/>
<path transform="translate(0,0)" fill="rgb(4,5,12)" d="M 937.049 434.711 C 938.575 433.825 940.466 433.854 941.965 434.786 C 943.464 435.718 944.327 437.401 944.208 439.162 C 944.089 440.923 943.008 442.475 941.398 443.197 C 939.08 444.235 936.355 443.278 935.197 441.018 C 934.038 438.758 934.852 435.986 937.049 434.711 z"/>
<path transform="translate(0,0)" fill="rgb(148,164,188)" d="M 1419.93 430.82 C 1422.35 430.799 1425.29 430.563 1427.32 432.105 C 1429.05 433.424 1430.24 435.3 1430.43 437.489 C 1430.76 441.461 1428.93 444.298 1426.49 447.189 C 1424.04 447.082 1421.18 447.118 1419.13 445.593 C 1417.34 444.256 1416.41 442.3 1416.19 440.148 C 1415.81 436.316 1417.68 433.645 1419.93 430.82 z"/>
<path transform="translate(0,0)" fill="rgb(4,5,12)" d="M 1420.98 434.754 C 1422.48 433.86 1424.36 433.865 1425.85 434.767 C 1427.35 435.669 1428.24 437.321 1428.16 439.069 C 1428.07 440.817 1427.04 442.378 1425.46 443.134 C 1423.16 444.231 1420.41 443.329 1419.21 441.085 C 1418.01 438.842 1418.79 436.052 1420.98 434.754 z"/>
<path transform="translate(0,0)" fill="rgb(131,147,172)" d="M 194.239 431.474 C 208.788 429.123 208.285 433.882 208.269 446.331 C 205.245 446.299 199.848 446.979 196.655 447.29 C 195.126 444.697 194.2 443.596 194.679 440.58 C 196.178 437.765 200.422 435.87 203.358 434.227 C 200.634 431.86 199.133 435.741 194.239 431.474 z"/>
<path transform="translate(0,0)" fill="rgb(254,254,254)" d="M 280.989 45.7591 C 285.761 45.8541 290.668 45.863 295.402 46.4007 C 289.15 49.9214 288.985 48.9938 287.882 55.8055 C 287.968 60.2681 288.792 62.974 286.695 66.3312 C 283.493 66.9553 284.403 67.1857 281.617 66.2749 C 280.251 62.4543 280.895 50.512 280.989 45.7591 z"/>
<path transform="translate(0,0)" fill="rgb(254,254,254)" d="M 160.946 45.9298 C 165.056 45.434 169.616 44.7592 171.484 49.1003 C 159.628 48.9764 156.533 51.9694 162.996 62.5982 C 166.551 64.5602 166.001 63.9537 170.45 63.8631 L 171.297 62.8654 C 170.521 65.3673 170.654 64.6744 168.13 66.5165 C 152.702 68.3428 149.348 53.3998 160.946 45.9298 z"/>
<path transform="translate(0,0)" fill="rgb(148,164,188)" d="M 104.082 430.992 C 111.535 432.593 127.189 427.964 128.039 438.077 C 128.27 440.836 128.992 444.906 126.578 446.596 C 124.818 445.131 125.723 440.468 124.388 435.842 C 121.882 433.223 122.383 433.959 118.173 433.381 C 117.957 435.904 117.573 444.903 116.283 446.308 C 115.408 442.592 114.357 436.762 112.4 433.729 L 110.687 433.794 C 107.93 436.363 106.278 442.421 104.941 446.209 C 104.076 441.471 104.161 435.866 104.082 430.992 z"/>
<path transform="translate(0,0)" fill="rgb(131,147,172)" d="M 1496.19 431.493 C 1497.36 430.998 1498.35 430.748 1499.63 430.769 C 1501.92 430.806 1503.46 430.829 1505.11 432.666 C 1507.04 434.811 1508.45 439.131 1508.08 441.978 C 1507.76 444.443 1507.36 444.997 1505.5 446.459 C 1502.72 446.414 1500.11 447.097 1497.42 447.716 C 1496.86 447.244 1496.29 446.751 1495.82 446.187 C 1494.23 444.301 1493.61 442.468 1493.75 440.072 C 1495.62 437.089 1500.82 436.222 1503.99 434.838 L 1503.49 433.378 C 1501.07 433.489 1498.76 433.516 1496.35 433.296 L 1496.19 431.493 z"/>
<path transform="translate(0,0)" fill="rgb(131,147,172)" d="M 1348.35 430.849 C 1352.97 430.594 1354.49 430.961 1357.97 433.91 C 1358.44 434.308 1358.36 435.483 1358.41 436.122 C 1355.07 439.035 1351.37 439.455 1347.27 440.759 L 1348.2 442.965 L 1351.2 443.355 C 1353.31 443.555 1355.11 443.72 1357.01 444.706 L 1356.85 445.998 C 1356.36 446.191 1355.87 446.364 1355.36 446.483 C 1352.1 447.239 1348.11 445.771 1345.34 444.146 C 1344.18 442.469 1343.31 441.63 1343.35 439.496 C 1343.41 435.867 1345.94 433.226 1348.35 430.849 z"/>
<path transform="translate(0,0)" fill="rgb(131,147,172)" d="M 727.573 434.436 L 729.409 435.147 C 729.775 438.266 729.933 441.109 729.664 444.246 C 727.491 447.267 722.942 447.006 719.291 447.64 C 718.438 446.867 717.433 446.001 716.81 445.032 C 715.453 442.923 715.556 441.686 716.157 439.437 C 719.107 436.541 723.713 435.681 727.573 434.436 z"/>
<path transform="translate(0,0)" fill="rgb(254,254,254)" d="M 141.943 45.5187 C 145.626 45.8147 145.844 45.2139 148.25 47.3668 C 149.987 52.4046 149.017 61.01 148.959 67.0079 C 144.968 66.8583 145.143 67.5277 142.593 65.2001 C 140.906 59.8618 141.85 51.6378 141.943 45.5187 z"/>
<path transform="translate(0,0)" fill="rgb(131,147,172)" d="M 347.825 434.531 L 348.854 434.438 L 349.906 435.384 C 350.172 439.194 350.801 443.11 348.443 446.3 C 345.445 446.678 342.452 447.087 339.463 447.527 C 338.917 447.043 338.362 446.54 337.905 445.97 C 336.261 443.918 336.01 442.336 336.252 439.87 C 339.13 436.538 343.748 435.734 347.825 434.531 z"/>
<path transform="translate(0,0)" fill="rgb(131,147,172)" d="M 1107.47 434.67 L 1107.99 434.516 L 1108.96 435.426 C 1109.3 439.216 1109.6 442.531 1108.62 446.251 C 1105.2 446.485 1101.83 447.04 1098.44 447.555 C 1097.7 446.752 1096.84 445.843 1096.35 444.866 C 1095.17 442.553 1095.28 441.314 1096.11 439.035 C 1099.11 436.217 1103.59 435.588 1107.47 434.67 z"/>
<path transform="translate(0,0)" fill="rgb(254,254,254)" d="M 344.86 46.9063 C 348.105 45.7693 348.769 45.6158 352.215 46.0892 C 358.148 49.4115 358.333 60.2626 355.926 65.9572 C 355.653 66.6039 353.799 66.8509 352.999 67.0594 C 348.244 64.0877 351.889 54.8975 349.2 49.1297 C 347.606 48.1792 347.352 47.9932 345.459 47.7777 L 344.86 46.9063 z"/>
<path transform="translate(0,0)" fill="rgb(4,5,12)" d="M 1672.01 425.482 L 1674.38 425.898 C 1673.2 431.619 1671.58 443.046 1667.19 446.574 L 1666.34 445.129 L 1667.47 441.73 L 1665.9 439.373 C 1666.07 432.701 1665.54 431.68 1662.86 425.764 L 1672.01 425.482 z"/>
<path transform="translate(0,0)" fill="rgb(148,164,188)" d="M 1672.01 425.482 L 1674.38 425.898 C 1673.2 431.619 1671.58 443.046 1667.19 446.574 L 1666.34 445.129 L 1667.47 441.73 C 1669.3 437.486 1670.86 430.172 1672.01 425.482 z"/>
<path transform="translate(0,0)" fill="rgb(131,147,172)" d="M 479.476 425.997 L 484.572 425.947 C 493.781 432.119 486.259 437.674 480.55 442.538 C 481.719 445.47 485.869 442.458 489.216 445.325 L 488.535 446.535 C 485.277 447.609 477.36 446.929 473.565 446.778 C 476.901 442.228 487.627 434.59 485.106 429.468 C 482.163 428.339 479.021 429.306 475.856 429.903 C 476.214 428.157 477.837 427.355 479.476 425.997 z"/>
<path transform="translate(0,0)" fill="rgb(131,147,172)" d="M 277.517 434.441 C 277.778 432.631 278.042 432.371 279.111 430.997 L 282.319 432.27 L 283.837 430.904 C 288.032 431.16 286.76 430.564 289.742 432.749 C 292.006 437.07 293.359 439.941 291.829 444.885 L 290.156 446.638 C 287.606 442.517 289.027 434.742 285.592 432.689 C 282.559 433.937 283.499 433.472 281.377 436.659 C 281.227 439.249 281.276 444.925 279.828 446.683 L 278.441 446.409 C 277.739 442.74 277.68 438.237 277.517 434.441 z"/>
<path transform="translate(0,0)" fill="rgb(131,147,172)" d="M 1433.11 430.231 C 1437.54 432.685 1440.2 430.741 1444.62 432.314 C 1445.74 433.502 1446.44 434.571 1446.74 436.208 C 1447.32 439.353 1446.82 443.739 1444.98 446.385 C 1443.31 444.423 1443.65 440.628 1443.54 438.135 L 1443.2 435.49 C 1441.66 433.888 1441.42 433.746 1439.2 433.633 C 1436.29 435.573 1434.87 442.892 1433.79 446.264 C 1432.99 440.933 1433.09 435.607 1433.11 430.231 z"/>
<path transform="translate(0,0)" fill="rgb(148,164,188)" d="M 168.27 430.333 L 169.991 431.035 C 172.227 434.023 170.284 437.232 171.431 442.315 C 174.156 444.611 173.016 443.931 177.053 444.549 C 178.197 442.788 179.325 434.243 179.91 431.319 L 181.323 431.011 L 181.964 432.893 C 182.024 436.554 182.597 443.94 181.154 446.905 C 180.231 447.088 170.125 445.154 168.835 443.866 C 167.383 440.738 168.11 434.087 168.27 430.333 z"/>
<path transform="translate(0,0)" fill="rgb(148,164,188)" d="M 1680.22 425.779 C 1680.72 425.956 1682.67 426.593 1682.98 426.818 L 1681.87 430.614 C 1685.08 435.251 1688.65 433.189 1692.28 437.676 C 1692.89 440.441 1692.68 440.902 1691.45 443.508 C 1687.8 446.75 1682.93 448.788 1678.56 445.733 C 1680.62 442.765 1686.13 445.487 1689.78 441.075 C 1687.06 433.189 1683 438.119 1679.3 434.228 C 1678.31 431.044 1679.26 428.971 1680.22 425.779 z"/>
<path transform="translate(0,0)" fill="rgb(131,147,172)" d="M 1893.01 429.951 C 1901.75 434.917 1900.46 428.102 1905.64 434.322 C 1906.75 438.837 1906.55 440.853 1906.38 445.523 L 1905.48 446.805 L 1904.17 445.952 C 1903.72 442.548 1903.75 435.859 1901.92 434 C 1896.4 433.887 1895.26 441.58 1893.96 446.268 C 1892.55 441.965 1892.72 439.96 1892.75 435.407 L 1893.01 429.951 z"/>
<path transform="translate(0,0)" fill="rgb(148,164,188)" d="M 1819.76 430.626 C 1829.11 430.905 1832.52 438.876 1827.63 446.074 C 1825.62 440.109 1826.83 435.493 1820.51 433.23 C 1818.07 435.705 1818.93 442.893 1816.39 446.688 C 1814.48 444.435 1814.88 434.612 1815.69 431.768 L 1818.06 430.976 L 1819.45 432.623 L 1819.76 430.626 z"/>
<path transform="translate(0,0)" fill="rgb(148,164,188)" d="M 735.259 430.345 C 739.863 432.644 742.736 430.084 746.329 432.209 C 747.504 433.466 748.409 434.669 748.782 436.382 C 749.47 439.544 748.983 443.362 747.224 446.079 C 745.524 443.956 745.878 440.479 745.658 437.77 C 745.774 436.175 745.52 435.734 744.828 434.352 L 741.192 433.516 C 737.816 436.414 738.394 442.673 735.783 446.477 C 734.937 441.084 735.124 435.777 735.259 430.345 z"/>
<path transform="translate(0,0)" fill="rgb(148,164,188)" d="M 1041.72 430.611 C 1048.71 431.049 1051.08 432.546 1050.98 439.962 C 1050.95 442.516 1051.31 444.108 1049.93 446.441 L 1048.68 446.686 C 1046.64 442.871 1049.55 438.598 1047.22 434.416 C 1044.7 433.705 1044.37 433.656 1041.81 434.141 C 1039.54 436.811 1039.82 442.076 1039.42 445.921 L 1038.39 445.162 C 1036.25 440.053 1036.33 437.201 1037.78 431.822 L 1040.05 430.981 L 1041.43 432.678 L 1041.72 430.611 z"/>
<path transform="translate(0,0)" fill="rgb(131,147,172)" d="M 1709.02 431.078 C 1712.12 430.834 1714.96 430.761 1718.06 431.116 L 1718.99 432.544 C 1716.88 434.153 1714.24 433.877 1711.63 434.111 C 1711.54 436.343 1717.29 439.178 1718.98 441.482 C 1719.32 443.788 1718.55 445.012 1717.37 446.948 C 1714.49 447.068 1709.7 447.367 1707.17 445.905 C 1710.2 444.909 1712.98 443.947 1715.73 442.312 C 1714.5 440.22 1710.33 439.142 1708.18 437.596 C 1707.36 435.179 1708.19 433.344 1709.02 431.078 z"/>
<path transform="translate(0,0)" fill="rgb(148,164,188)" d="M 355.62 430.246 C 359.003 432.454 360.766 431.907 364.528 431.419 C 365.206 431.728 366.658 432.166 367.112 432.7 C 368.997 434.922 369.474 437.582 369.241 440.423 C 369.075 442.445 368.855 444.835 367.223 446.216 C 365.629 443.969 365.98 440.435 365.895 437.766 L 365.9 435.476 C 364.284 433.742 363.681 433.943 361.32 433.706 C 358.667 435.591 357.492 442.776 356.579 445.971 L 355.946 445.496 C 355.481 440.441 355.62 435.319 355.62 430.246 z"/>
<path transform="translate(0,0)" fill="rgb(148,164,188)" d="M 657.507 430.48 L 661.885 432.379 L 663.837 430.838 C 668.106 431.392 666.764 430.694 669.719 433.253 C 671.619 437.632 672.145 441.224 670.489 445.834 L 669.158 446.626 C 666.13 441.954 671.969 437.297 664.61 433.619 L 662.687 433.728 C 661.245 437.887 659.911 442.083 658.685 446.311 C 657.64 445.162 657.598 432.97 657.507 430.48 z"/>
<path transform="translate(0,0)" fill="rgb(148,164,188)" d="M 1363.57 430.152 C 1367.98 432.834 1371.21 430.569 1375.28 432.938 C 1377.71 436.583 1377.08 442.165 1376.29 446.272 L 1375.53 446.445 C 1373.62 443.341 1373.96 440.266 1374.08 436.768 L 1373.28 434.469 L 1369.73 433.496 C 1366.79 435.611 1365.37 442.645 1364.03 446.177 C 1363.52 440.845 1363.58 435.503 1363.57 430.152 z"/>
<path transform="translate(0,0)" fill="rgb(148,164,188)" d="M 1510.7 430.258 C 1513.94 432.605 1514.93 431.82 1518.65 431.722 C 1519.59 431.697 1521.49 432.13 1522.14 432.824 C 1523.86 434.657 1524.04 438.39 1523.98 440.798 C 1523.94 442.696 1524.05 445.149 1522.67 446.481 C 1520.66 443.78 1520.95 440.969 1520.97 437.763 C 1520.91 435.772 1520.77 435.359 1519.55 433.787 C 1517.44 433.45 1517.05 433.537 1515.18 434.581 C 1512.57 438.499 1513.1 441.905 1512.14 446.306 C 1510.43 441.176 1510.73 435.604 1510.7 430.258 z"/>
<path transform="translate(0,0)" fill="rgb(131,147,172)" d="M 625.835 431.064 C 628.471 430.843 631.159 430.365 633.619 431.567 C 631.26 433.086 627.282 435.133 625.659 437.379 C 624.651 438.772 624.922 439.353 625.157 440.943 C 627.288 443.547 629.393 444.1 632.502 444.942 L 633.542 444.845 L 634.062 445.863 C 633.421 446.232 632.741 446.529 631.997 446.608 C 629.524 446.869 624.673 445.705 622.682 444.114 C 621.61 443.258 620.935 442.123 620.885 440.741 C 620.765 437.388 623.601 433.355 625.835 431.064 z"/>
<path transform="translate(0,0)" fill="rgb(131,147,172)" d="M 252.061 429.981 L 254.537 431.563 L 254.045 432.797 C 248.411 434.144 248.865 433.155 245.323 436.754 C 244.623 439.36 244.597 438.351 245.985 441.078 C 249.483 443.663 250.909 444.259 254.918 445.987 C 244.902 451.156 241.691 441.904 242.517 433.344 C 246.143 431.762 248.253 431.072 252.061 429.981 z"/>
<path transform="translate(0,0)" fill="rgb(131,147,172)" d="M 1404.64 430.808 C 1407.13 430.789 1408.84 430.495 1411.07 431.699 C 1408.58 433.576 1403.91 436.327 1402.79 439.232 C 1402.55 439.872 1403.24 441.039 1403.51 441.698 C 1406.16 443.949 1409.06 444.209 1412.38 444.725 C 1412.55 445.303 1412.13 445.935 1411.91 446.493 C 1410.84 446.79 1409.69 447.079 1408.57 447.086 C 1406.15 447.102 1402.93 445.604 1401.24 443.836 C 1399.88 442.415 1399.34 440.89 1399.41 438.96 C 1399.55 435.501 1402.31 433.031 1404.64 430.808 z"/>
<path transform="translate(0,0)" fill="rgb(148,164,188)" d="M 74.9735 426.396 C 77.5246 426.23 80.5359 426.117 83.0234 425.716 C 83.1032 430.463 82.5196 435.419 83.1084 440.111 C 83.5362 443.52 87.0578 443.353 87.8866 446.135 C 85.6222 447.391 78.7897 447.045 76.3464 446.382 C 82.2134 442.048 81.6171 435.9 79.7031 429.505 C 79.0428 427.299 77.0404 427.153 74.9735 426.396 z"/>
<path transform="translate(0,0)" fill="rgb(131,147,172)" d="M 880.783 433.036 L 885.47 433.231 C 886.829 434.06 888.324 434.916 889.129 436.334 C 890.191 438.204 890.654 440.216 889.919 442.334 C 889.329 444.036 887.945 445.452 886.334 446.218 C 883.143 447.735 880.063 446.743 876.957 445.66 C 876.946 445.199 876.998 444.843 877.105 444.393 C 877.786 441.505 883.222 444.733 886.357 442.79 C 887.314 440.53 887.686 440.224 886.861 437.912 C 884.731 436.981 882.58 436.102 880.408 435.275 L 880.783 433.036 z"/>
<path transform="translate(0,0)" fill="rgb(148,164,188)" d="M 1121.48 431.72 L 1123.48 430.993 C 1124.33 431.258 1125.95 431.513 1126.51 432.176 C 1129.53 435.777 1128.3 443.028 1127.95 447.43 C 1124.02 445.381 1126.65 438.481 1124.82 434.935 C 1124.47 434.254 1122.08 433.794 1121.27 433.538 L 1121.48 431.72 z"/>
<path transform="translate(0,0)" fill="rgb(131,147,172)" d="M 214.121 430.215 C 215.082 430.538 216.286 431.448 217.163 432.043 C 218.073 434.223 216.793 442.952 216.697 446.575 C 215.29 446.751 215.777 446.738 214.317 445.963 C 213.188 441.868 213.897 434.695 214.121 430.215 z"/>
<path transform="translate(0,0)" fill="rgb(148,164,188)" d="M 326.2 430.291 C 327.475 430.655 328.425 431.483 329.47 432.267 C 330.001 434.38 329.006 443.406 328.917 446.581 C 327.468 446.701 327.963 446.703 326.485 445.778 C 325.445 441.847 326.038 434.604 326.2 430.291 z"/>
<path transform="translate(0,0)" fill="rgb(148,164,188)" d="M 1863.7 430.061 C 1864.83 430.535 1865.81 431.373 1866.79 432.096 C 1867.93 436.036 1866.24 442.391 1866.03 446.617 C 1865.21 446.666 1864.61 446.322 1863.87 446.023 C 1862.43 441.131 1863.41 435.112 1863.7 430.061 z"/>
<path transform="translate(0,0)" fill="rgb(148,164,188)" d="M 1481.22 430.292 C 1482.48 430.646 1483.42 431.453 1484.46 432.224 C 1485.45 436.201 1483.99 442.333 1483.87 446.565 C 1482.66 446.682 1482.49 446.419 1481.48 445.79 C 1480.24 440.99 1481.03 435.229 1481.22 430.292 z"/>
<path transform="translate(0,0)" fill="rgb(148,164,188)" d="M 1115.13 430.28 L 1117.82 431.693 C 1119.59 434.7 1117.86 442.948 1117.71 446.571 C 1116.73 446.667 1116.24 446.337 1115.35 445.957 C 1113.97 441.147 1114.88 435.247 1115.13 430.28 z"/>
<path transform="translate(0,0)" fill="rgb(148,164,188)" d="M 1085.86 430.164 L 1087.79 431.129 C 1090.18 435.013 1088.27 442.823 1087.69 447.447 L 1085.89 445.902 C 1084.55 440.952 1085.5 435.231 1085.86 430.164 z"/>
<path transform="translate(0,0)" fill="rgb(148,164,188)" d="M 706.152 430.294 L 708.681 431.716 C 710.394 435.298 708.799 442.498 708.593 446.494 C 707.68 446.636 707.226 446.28 706.394 445.909 C 705.084 441.086 705.928 435.263 706.152 430.294 z"/>
<path transform="translate(0,0)" fill="rgb(131,147,172)" d="M 235.29 430.379 C 236.117 430.653 236.943 431.469 237.637 432.06 C 238.8 436.876 238.012 442.455 237.588 447.441 C 237.073 447.161 236.014 446.221 235.504 445.794 C 234.531 441.421 235.09 435.007 235.29 430.379 z"/>
<path transform="translate(0,0)" fill="rgb(148,164,188)" d="M 615.096 430.778 C 619.506 434.124 618.738 440.86 616.427 445.461 L 615.525 445.78 C 614.836 440.21 614.828 437.136 614.908 431.569 L 615.096 430.778 z"/>
<path transform="translate(0,0)" fill="rgb(148,164,188)" d="M 994.994 430.819 C 998.94 434.667 997.236 440.576 996.535 445.788 L 995.892 445.994 C 994.299 440.11 994.444 437.578 994.513 431.627 L 994.994 430.819 z"/>
<path transform="translate(0,0)" fill="rgb(148,164,188)" d="M 1774.14 429.706 L 1775.39 432.951 C 1775.48 437.726 1775.74 440.558 1774.38 445.126 L 1773.41 445.22 C 1771.95 440.075 1772.1 434.675 1774.14 429.706 z"/>
<path transform="translate(0,0)" fill="rgb(228,229,240)" d="M 231.969 45.9118 C 237.334 45.2402 238.822 45.1309 242.963 49.0214 L 242.345 49.8174 C 238.534 49.0803 235.894 48.0445 232.141 48.5025 L 231.969 45.9118 z"/>
<path transform="translate(0,0)" fill="rgb(148,164,188)" d="M 1097.36 431.488 C 1097.71 431.362 1098.04 431.243 1098.4 431.144 C 1101.65 430.231 1104.93 430.972 1107.82 432.566 C 1104.49 433.135 1101.59 433.449 1098.22 433.128 L 1097.36 431.488 z"/>
<path transform="translate(0,0)" fill="rgb(148,164,188)" d="M 715.638 431.445 C 717.46 431.177 719.311 430.885 721.151 430.777 C 724.081 430.605 725.35 431.173 727.458 433.061 L 725.949 433.129 C 722.091 433.292 718.559 434.128 715.638 431.445 z"/>
<path transform="translate(0,0)" fill="rgb(148,164,188)" d="M 335.914 431.436 C 337.985 431.125 340.285 430.647 342.376 430.728 C 345.019 430.83 345.822 431.304 347.552 433.143 C 345.826 433.231 344.094 433.325 342.366 433.34 C 339.53 433.364 337.975 433.483 335.914 431.436 z"/>
</svg>