<!-- RECRAFT VECTORIZE from logo/options-w/_sheet-navbar-light.png -->
<svg version="1.1" xmlns="http://www.w3.org/2000/svg" style="display: block;" viewBox="0 0 2048 924" width="922" height="416" preserveAspectRatio="none">
<path transform="translate(0,0)" fill="rgb(8,14,30)" d="M 0 0 L 2048 0 L 2048 924 L 0 924 L 0 0 z"/>
<path transform="translate(0,0)" fill="rgb(254,254,254)" d="M 34.4752 71.0799 L 1298.28 70.9779 L 1751.86 70.9824 L 1902.28 70.9853 C 1926.92 70.9873 1955.91 70.2226 1979.99 71.1377 C 1987.94 75.7813 1992.28 79.3562 1996.84 87.8993 C 1997.36 123.882 1998.32 172.485 1996.77 207.835 C 1991.41 216.172 1989.27 218.61 1980.8 223.905 C 1965.16 225.046 1944.51 224.446 1928.29 224.438 L 1838.48 224.382 L 1561.8 224.371 L 697.883 224.384 L 436.564 224.38 L 367.313 224.303 C 361.241 224.297 339.014 223.992 334.429 224.918 L 333.355 224.301 C 330.013 223.79 321.369 223.644 317.856 223.583 C 312.704 224.62 295.838 226.123 291.342 223.351 L 288.975 223.754 L 287.388 224.112 L 287.341 224.789 C 287.539 227.582 287.957 229.444 286.333 231.759 C 281.581 232.33 280.357 227.139 274.845 228.98 L 271.011 229.555 C 269.68 229.531 265.222 228.859 263.672 228.66 L 258.035 229.021 L 250.594 229.673 C 251.812 234.949 252.097 240.772 246.1 243.32 C 238.104 241.876 239.873 230.443 240.017 224.475 C 215.438 225.289 182.647 225.298 157.854 224.707 C 157.954 229.524 158.46 235.267 156.914 239.716 C 154.618 237.36 155.601 228.076 155.786 224.592 C 149.206 224.626 142.204 224.79 135.666 224.673 C 135.614 228.58 135.892 238.264 134.456 241.382 C 127.397 245.748 124.334 237.899 123.788 232.088 L 122.154 232.869 C 121.68 231.809 120.925 230.898 119.971 230.235 C 120.964 229.47 120.883 229.168 121.303 227.936 C 116.122 225.276 96.8364 228.503 93.5319 225.042 C 86.2939 224.519 76.601 224.893 69.1722 224.975 C 69.0743 229.228 68.6744 234.859 69.6291 238.879 L 72.3944 240.311 L 72.7693 241.714 C 69.3867 242.499 68.6431 242.304 65.257 241.85 C 62.6092 237.219 73.8252 231.801 62.9628 224.796 L 58.5062 224.432 L 56.6611 223.877 C 49.3566 224.309 47.2881 226.098 45.6417 233.374 L 45.4462 234.264 L 44.391 234.183 C 45.0648 231.212 45.5888 228.788 46.0281 225.771 C 43.3145 223.924 42.7051 224.587 38.7676 224.543 L 36.1503 224.184 C 29.2193 222.735 23.4756 216.406 19.7603 210.716 C 19.0991 209.714 18.4663 208.694 17.8626 207.657 L 17.6847 131.9 C 17.6805 118.257 17.214 100.82 18.0659 87.4434 C 23.3378 78.8786 25.8897 76.4197 34.4752 71.0799 z"/>
<path transform="translate(0,0)" fill="rgb(152,163,185)" d="M 62.9628 224.796 C 64.5814 225.075 72.6436 224.223 75.5655 224.163 L 121.957 223.491 C 128.175 223.433 134.402 223.653 140.622 223.812 C 189.267 225.057 238.848 222.254 287.388 224.112 L 287.341 224.789 C 287.539 227.582 287.957 229.444 286.333 231.759 C 281.581 232.33 280.357 227.139 274.845 228.98 L 271.011 229.555 C 269.68 229.531 265.222 228.859 263.672 228.66 L 258.035 229.021 L 250.594 229.673 C 251.812 234.949 252.097 240.772 246.1 243.32 C 238.104 241.876 239.873 230.443 240.017 224.475 C 215.438 225.289 182.647 225.298 157.854 224.707 C 157.954 229.524 158.46 235.267 156.914 239.716 C 154.618 237.36 155.601 228.076 155.786 224.592 C 149.206 224.626 142.204 224.79 135.666 224.673 C 135.614 228.58 135.892 238.264 134.456 241.382 C 127.397 245.748 124.334 237.899 123.788 232.088 L 122.154 232.869 C 121.68 231.809 120.925 230.898 119.971 230.235 C 120.964 229.47 120.883 229.168 121.303 227.936 C 116.122 225.276 96.8364 228.503 93.5319 225.042 C 86.2939 224.519 76.601 224.893 69.1722 224.975 C 69.0743 229.228 68.6744 234.859 69.6291 238.879 L 72.3944 240.311 L 72.7693 241.714 C 69.3867 242.499 68.6431 242.304 65.257 241.85 C 62.6092 237.219 73.8252 231.801 62.9628 224.796 z"/>
<path transform="translate(0,0)" fill="rgb(3,3,9)" d="M 250.594 229.673 C 247.7 229.087 245.393 230.213 242.828 228.287 L 242.762 226.678 C 248.775 223.816 278.735 224.742 287.341 224.789 C 287.539 227.582 287.957 229.444 286.333 231.759 C 281.581 232.33 280.357 227.139 274.845 228.98 L 271.011 229.555 C 269.68 229.531 265.222 228.859 263.672 228.66 L 258.035 229.021 L 250.594 229.673 z"/>
<path transform="translate(0,0)" fill="rgb(3,3,9)" d="M 93.5319 225.042 C 101.58 224.871 126.803 223.444 132.641 226.452 L 133.299 228.01 C 130.677 230.592 129.394 227.377 123.788 232.088 L 122.154 232.869 C 121.68 231.809 120.925 230.898 119.971 230.235 C 120.964 229.47 120.883 229.168 121.303 227.936 C 116.122 225.276 96.8364 228.503 93.5319 225.042 z"/>
<path transform="translate(0,0)" fill="rgb(64,56,204)" d="M 1770.16 118.101 C 1785.73 117.342 1804.52 117.819 1820.28 117.816 C 1846.82 117.716 1873.36 117.782 1899.89 118.015 C 1907.31 122.972 1909.53 127.19 1909.72 136.213 C 1909.94 146.678 1909.48 157.5 1909.25 167.966 C 1905.42 172.368 1904.31 173.772 1899.27 176.983 L 1770.11 176.947 C 1765.64 173.765 1764.05 171.846 1760.49 167.843 C 1759.83 155.911 1760.28 140.076 1760.28 127.856 C 1763.71 122.662 1764.97 121.58 1770.16 118.101 z"/>
<path transform="translate(0,0)" fill="rgb(211,202,245)" d="M 1798.87 145.431 C 1796.83 150.173 1797.76 149.835 1794.12 152.647 C 1777.47 154.942 1782.08 138.197 1793.43 138.119 C 1796.3 139.934 1795.47 138.937 1796.84 141.787 L 1800.2 143.608 L 1799.45 145.086 L 1798.87 145.431 z"/>
<path transform="translate(0,0)" fill="rgb(44,39,165)" d="M 1798.87 145.431 C 1795.8 144.344 1795.39 144.208 1792.1 144.55 L 1791.25 145.889 C 1793.77 147.137 1793.34 146.482 1794.6 148.562 L 1793.55 150.521 L 1791.06 150.778 C 1787.49 149.059 1788.47 150.073 1786.38 146.832 C 1786.33 142.969 1785.8 144.226 1787.93 141.771 C 1791.59 140.403 1792.96 140.945 1796.84 141.787 L 1800.2 143.608 L 1799.45 145.086 L 1798.87 145.431 z"/>
<path transform="translate(0,0)" fill="rgb(211,202,245)" d="M 1859.7 139.436 L 1860.96 141.018 C 1861.23 143.718 1861.92 150.869 1861 153.15 L 1859.47 153.583 C 1856.95 150.237 1859.27 147.308 1856.67 143.881 C 1853.21 145.654 1853.72 150.859 1850.52 152.806 C 1847.45 154.668 1841.03 152.985 1838.25 150.898 C 1841.01 146.628 1842.16 147.983 1845.14 144.527 C 1843.7 143.982 1843.1 144.262 1841.6 144.576 L 1841.05 144.696 L 1840.85 142.682 L 1842.5 141.287 C 1850.27 142.448 1847.21 147.566 1850.06 150.383 C 1856.02 143.04 1846.25 146.406 1859.7 139.436 z"/>
<path transform="translate(0,0)" fill="rgb(211,202,245)" d="M 1835.17 139.989 L 1835.95 139.847 L 1837.2 141.433 C 1837.33 144.259 1837.72 151.331 1836.05 153.175 C 1833.21 150.63 1834.91 148.171 1831.88 143.599 C 1829.09 143.192 1830.22 143.011 1827.6 144.433 L 1827.71 145.571 L 1834.48 149.835 C 1830.6 152.774 1828.72 154.199 1823.9 152.104 L 1824.97 152.931 L 1823.87 151.528 C 1823.94 151.062 1824.66 150.502 1825.1 150.032 L 1828.6 150.925 L 1829.56 150.112 C 1827.3 148.581 1825.16 147.389 1823.73 145.047 C 1825.92 138.617 1829.39 144.651 1835.17 139.989 z"/>
<path transform="translate(0,0)" fill="rgb(211,202,245)" d="M 1883.4 140.01 L 1884.76 139.878 C 1884.87 143.926 1884.96 147.021 1884.65 151.088 C 1882.23 153.657 1881.87 152.984 1877.64 153.815 C 1875.55 151.527 1874.11 148.895 1874.63 145.743 C 1877.43 141.874 1878.89 142.461 1883.4 140.01 z"/>
<path transform="translate(0,0)" fill="rgb(211,202,245)" d="M 1800.2 143.608 C 1803.59 141.53 1802.1 141.952 1805.88 141.754 C 1808.63 143.469 1808.66 142.883 1809.72 145.4 C 1806.56 149.971 1805.03 147.285 1803.21 150.442 C 1805.08 150.855 1805.85 150.662 1807.77 150.478 C 1807.27 153.156 1807.73 152.138 1805.58 154.327 C 1800.81 153.353 1799.81 149.351 1799.45 145.086 L 1800.2 143.608 z"/>
<path transform="translate(0,0)" fill="rgb(211,202,245)" d="M 1865.68 141.449 C 1869.21 141.575 1871.44 141.769 1873.36 144.704 C 1872.39 146.937 1869.93 148.694 1868.01 150.368 L 1870.99 151.301 L 1871.12 151.401 L 1871.15 152.52 L 1868.52 152.893 C 1865.25 151.582 1866.25 152.054 1863.9 149.109 C 1863.5 144.601 1863.6 145.939 1865.68 141.449 z"/>
<path transform="translate(0,0)" fill="rgb(211,202,245)" d="M 1811.84 138.635 C 1817.59 142.119 1811.55 145.968 1815.69 153.597 C 1813.86 153.369 1813.61 153.018 1812.05 151.906 C 1810.16 147.693 1810.83 143.026 1811.84 138.635 z"/>
<path transform="translate(0,0)" fill="rgb(3,3,9)" d="M 146.416 139.551 C 151.158 138.625 155.782 141.617 156.88 146.322 C 157.979 151.027 155.157 155.758 150.495 157.027 C 147.324 157.89 143.935 156.952 141.66 154.581 C 139.384 152.211 138.585 148.787 139.576 145.654 C 140.567 142.522 143.191 140.18 146.416 139.551 z"/>
<path transform="translate(0,0)" fill="rgb(254,254,254)" d="M 146.699 143.539 C 148.532 143.008 150.508 143.554 151.809 144.951 C 153.11 146.348 153.514 148.358 152.854 150.149 C 152.194 151.939 150.583 153.207 148.687 153.426 C 146.073 153.728 143.664 151.976 143.146 149.397 C 142.627 146.818 144.172 144.271 146.699 143.539 z"/>
<path transform="translate(0,0)" fill="rgb(3,3,9)" d="M 167.866 152.187 C 168.998 148.002 169.784 142.825 173.012 140.211 L 174.909 140.506 C 177.847 143.591 178.517 148.683 179.525 152.959 C 179.924 151.128 180.366 149.307 180.85 147.497 C 181.727 144.309 183.035 141.034 185.914 139.409 C 187.003 142.271 186.503 141.88 185.632 145.431 C 184.484 149.472 183.664 154.461 180.248 156.714 L 178.282 156.11 C 175.491 152.84 174.823 148.167 173.806 143.912 C 172.596 148.979 172.478 153.973 167.575 156.335 L 165.333 155.218 C 162.442 151.433 160.908 143.321 160.43 138.631 L 163.192 139.759 C 165.767 142.947 166.754 148.113 167.866 152.187 z"/>
<path transform="translate(0,0)" fill="rgb(3,3,9)" d="M 113.938 138.376 C 118.779 141.603 128.102 137.763 130.593 146.32 C 129.368 152.211 124.331 154.334 118.834 153.399 L 118.586 153.238 L 117.46 153.553 C 117.398 157.579 117.345 160.41 116.825 164.391 L 115.473 165.354 L 114.411 164.438 C 113.23 157.503 113.807 145.765 113.938 138.376 z"/>
<path transform="translate(0,0)" fill="rgb(3,3,9)" d="M 94.2014 131.659 C 98.1417 131.659 106.12 131.107 109.164 132.882 L 109.053 134.437 C 103.657 137.76 100.343 132.303 96.7797 138.745 C 98.143 141.504 103.461 143.292 106.649 144.875 C 104.169 146.349 100.417 146.419 97.4222 146.723 C 98.0671 154.366 101.605 152.963 108.945 156.35 C 103.978 157.253 99.1584 157.198 94.1187 157.305 L 94.2014 131.659 z"/>
<path transform="translate(0,0)" fill="rgb(152,163,185)" d="M 697.985 136.963 C 703.61 136.586 706.114 136.408 709.426 141.164 C 710.237 145.083 709.539 146.233 708.017 150.029 C 704.41 151.416 702.189 152.453 698.768 150.427 C 696.998 147.01 697.798 141.039 697.985 136.963 z"/>
<path transform="translate(0,0)" fill="rgb(254,254,254)" d="M 699.281 138.378 C 703.694 138.742 704.576 138.801 707.358 141.66 C 708.15 144.956 707.12 146.663 705.847 149.828 C 703.365 149.967 702.909 150.055 700.637 149.096 C 698.641 146.576 699.233 141.817 699.281 138.378 z"/>
<path transform="translate(0,0)" fill="rgb(184,192,203)" d="M 726.495 139.469 C 730.754 140.833 739.751 143.651 742.048 147.483 C 742.817 148.767 742.094 149.938 741.618 151.663 C 735.132 150.739 728.086 152.931 724.271 147.713 C 724.034 143.873 724.71 142.933 726.495 139.469 z"/>
<path transform="translate(0,0)" fill="rgb(254,254,254)" d="M 726.645 141.76 C 730.628 142.647 737.988 145.673 740.488 149.057 C 736.257 148.856 731.277 149.906 727.742 148.201 C 725.84 145.2 726.436 145.931 726.645 141.76 z"/>
<path transform="translate(0,0)" fill="rgb(152,163,185)" d="M 274.138 136.911 C 279.579 136.755 282.368 135.939 285.467 140.882 L 284.718 142.954 C 282.106 145.383 280.128 145.349 276.579 145.864 C 275.638 147.953 277.366 147.147 275.476 150.188 C 273.672 148.261 274.222 140.403 274.138 136.911 z"/>
<path transform="translate(0,0)" fill="rgb(152,163,185)" d="M 556.463 137.007 C 561.84 136.816 564.545 136.06 567.488 140.915 L 566.694 142.991 C 564.128 145.352 562.01 145.321 558.537 145.812 C 558.495 145.914 558.276 148.455 557.778 149.964 L 556.69 149.058 L 556.463 137.007 z"/>
<path transform="translate(0,0)" fill="rgb(152,163,185)" d="M 415.659 137.004 C 421.367 136.688 422.712 135.836 426.256 140.412 L 425.756 142.748 C 423.548 145.253 421.925 145.307 418.641 146.001 L 417.926 146.223 C 417.503 148.239 417.233 149.004 416.509 150.938 C 415.421 148.373 415.692 140.253 415.659 137.004 z"/>
<path transform="translate(0,0)" fill="rgb(152,163,185)" d="M 297.921 140.758 C 300.628 139.94 303.5 141.392 304.445 144.057 C 305.391 146.721 304.076 149.659 301.459 150.729 C 299.652 151.469 297.586 151.154 296.081 149.911 C 294.576 148.668 293.876 146.697 294.261 144.783 C 294.646 142.87 296.053 141.323 297.921 140.758 z"/>
<path transform="translate(0,0)" fill="rgb(152,163,185)" d="M 459.688 140.851 C 462.337 140.007 465.183 141.385 466.165 143.986 C 467.147 146.586 465.921 149.501 463.376 150.619 C 461.605 151.396 459.55 151.133 458.033 149.934 C 456.516 148.736 455.784 146.797 456.131 144.895 C 456.477 142.993 457.845 141.437 459.688 140.851 z"/>
<path transform="translate(0,0)" fill="rgb(3,3,9)" d="M 132.953 138.487 C 134.136 139.009 134.685 139.742 135.58 140.672 C 136.714 146.601 135.999 152.143 135.566 158.167 C 133.971 157.552 133.808 157.319 132.582 156.227 C 131.318 150.215 131.717 144.477 132.953 138.487 z"/>
<path transform="translate(0,0)" fill="rgb(152,163,185)" d="M 312.918 137.416 C 313.95 138.172 314.098 138.536 314.884 139.542 C 315.572 143.154 316.154 144.73 314.729 148.109 C 311.981 150.826 313.102 150.429 309.607 151.258 L 307.375 149.763 C 305.714 146.476 306.18 144.958 306.655 141.242 C 307.941 140.724 308.179 140.798 309.541 140.632 C 308.474 144.37 307.483 146.62 309.13 149.603 L 311.455 150.171 C 313.49 147.861 312.869 141.183 312.918 137.416 z"/>
<path transform="translate(0,0)" fill="rgb(152,163,185)" d="M 448.65 151.076 C 448.991 145.414 448.557 141.113 452.816 137.289 L 454.541 137.74 C 453.849 141.102 453.256 148.895 451.947 150.753 C 450.038 151.278 450.294 151.517 448.65 151.076 z"/>
<path transform="translate(0,0)" fill="rgb(152,163,185)" d="M 318.213 139.747 C 319.349 141.215 320.08 146.901 320.913 149.756 L 322.104 150.121 C 325.764 145.038 322.181 145.444 325.974 140.56 C 326.305 145.832 327.245 147.326 323.333 150.933 C 320.531 151.19 321.662 151.482 319.1 149.519 C 317.191 146.708 317.926 143.221 318.213 139.747 z"/>
<path transform="translate(0,0)" fill="rgb(132,145,169)" d="M 615.242 140.232 C 619.787 142.303 618.977 148.791 617.456 152.864 C 616.299 155.961 614.411 155.935 611.532 156.87 L 610.427 154.476 C 612.07 153.975 613.073 153.952 614.788 153.795 C 616.855 150.352 615.84 144.255 615.242 140.232 z"/>
<path transform="translate(0,0)" fill="rgb(152,163,185)" d="M 584.599 139.362 C 586.503 140.086 586.715 140.243 588.192 141.649 C 584.22 144.25 584.246 143.296 583.209 146.904 C 584.227 148.766 584.717 148.918 586.517 150.171 L 588.165 150.242 L 587.567 150.876 C 583.883 150.837 582.745 149.541 581.499 146.442 C 581.982 142.739 582.292 142.33 584.599 139.362 z"/>
<path transform="translate(0,0)" fill="rgb(152,163,185)" d="M 340.38 137.599 C 343.711 139.614 342.139 146.129 342.57 150.514 C 341.505 150.744 342.026 150.669 340.645 149.875 C 339.52 146.31 340.146 141.442 340.38 137.599 z"/>
<path transform="translate(0,0)" fill="rgb(184,192,203)" d="M 429.866 136.515 L 431.409 137.973 C 432.452 141.268 431.7 146.859 431.44 150.499 L 429.889 150.289 C 428.939 147.364 429.683 139.937 429.866 136.515 z"/>
<path transform="translate(0,0)" fill="rgb(152,163,185)" d="M 577.516 136.765 L 578.439 137.659 C 579.559 141.74 579.148 147.192 579.059 151.53 L 577.258 149.842 C 576.327 145.814 577.109 140.957 577.516 136.765 z"/>
<path transform="translate(0,0)" fill="rgb(152,163,185)" d="M 446.271 137.458 C 449.357 140.157 447.9 145.294 448.65 151.076 L 446.717 150.21 C 445.38 146.029 445.978 141.842 446.271 137.458 z"/>
<path transform="translate(0,0)" fill="rgb(152,163,185)" d="M 601.341 139.545 L 603.989 141.302 C 605.853 143.96 605.308 148.117 605.237 151.505 C 601.685 148.22 604.112 146.368 601.341 139.545 z"/>
<path transform="translate(0,0)" fill="rgb(152,163,185)" d="M 486.56 139.505 L 489.691 141.362 C 491.664 144.318 491.015 147.737 490.776 151.331 C 487.571 148.119 490.368 146.478 486.56 139.505 z"/>
<path transform="translate(0,0)" fill="rgb(254,254,254)" d="M 34.2636 271.079 C 169.762 269.314 309.228 270.912 444.99 270.921 L 1235.36 270.928 L 1732.06 270.925 L 1895.69 270.925 C 1921.85 270.926 1954.5 270 1980.25 271.11 C 1988.04 275.85 1992.39 279.384 1996.85 287.87 C 1997.33 323.79 1998.34 372.505 1996.75 407.755 C 1991.18 416.51 1989.35 418.276 1980.67 423.88 C 1963.51 424.771 1943.48 424.313 1926.03 424.308 L 1834.62 424.264 L 1557.28 424.25 L 703.169 424.262 L 425.359 424.257 L 351.28 424.181 C 344.754 424.176 320.879 423.855 315.937 424.85 C 313.537 423.415 303.808 423.549 300.201 423.396 C 293.355 424.836 284.139 424.233 276.932 424.635 L 274.254 424.012 L 271.647 423.458 L 266.512 424.143 C 257.375 425.096 229.309 423.346 224.498 426.383 L 224.946 428.287 C 229.334 429.992 236.243 431.808 235.091 437.506 C 231.072 442.163 228.237 443.35 222.752 440.601 C 221.828 438.36 221.924 438.081 221.913 435.601 C 219.555 433.077 221.052 432.571 218.501 429.614 C 216.931 431.399 215.507 435.759 214.574 438.183 C 210.517 437.167 213.693 433.841 207.518 429.458 L 206.877 429.877 L 202.204 427.935 L 193.687 429.859 C 191.9 429.576 188.973 428.715 187.121 428.237 C 184.201 428.755 181.291 429.328 178.392 429.957 C 177.558 431.81 177.513 431.932 177.284 433.94 L 176.323 436.176 C 172.87 433.142 168.492 432.353 164.561 435.064 C 164.53 437.037 164.567 439.907 163.186 441.178 C 161.365 436.215 162.118 428.72 162.625 423.449 C 158.035 424.467 150.39 424.302 145.42 424.366 C 149.036 425.018 151.797 425.458 155.451 425.797 C 147.898 425.99 136.391 425.623 129.745 427.938 L 129.053 428.961 L 126.304 429.793 C 125.975 433.044 125.974 438.85 124.453 441.216 C 121.609 442.453 121.008 441.959 118.82 440.527 C 116.665 436.194 116.787 429.275 117.978 424.642 C 112.09 423.524 77.0686 424.301 70.4543 424.869 L 64.608 425.106 L 63.9238 424.947 L 60.8805 424.776 C 55.8287 427.482 56.7866 435.041 54.185 441.391 L 52.5591 441.891 L 51.2652 440.651 C 52.5413 434.034 57.6051 431.618 54.4114 425.05 L 49.99 424.254 C 47.9138 426.933 46.54 430.289 45.1148 433.386 C 44.9132 430.542 45.9674 427.24 46.6657 424.416 C 42.2896 423.387 40.3605 423.974 35.8733 424.759 C 27.7962 420.325 22.3547 416.074 17.868 407.572 L 17.6877 332.084 C 17.685 318.466 17.1959 300.777 18.0549 287.427 C 23.5655 278.337 25.499 276.832 34.2636 271.079 z"/>
<path transform="translate(0,0)" fill="rgb(3,3,9)" d="M 162.625 423.449 L 164.492 423.838 C 172.83 424.334 215.923 425.141 222.19 423.383 L 221.913 435.601 C 219.555 433.077 221.052 432.571 218.501 429.614 C 216.931 431.399 215.507 435.759 214.574 438.183 C 210.517 437.167 213.693 433.841 207.518 429.458 L 206.877 429.877 L 202.204 427.935 L 193.687 429.859 C 191.9 429.576 188.973 428.715 187.121 428.237 C 184.201 428.755 181.291 429.328 178.392 429.957 C 177.558 431.81 177.513 431.932 177.284 433.94 L 176.323 436.176 C 172.87 433.142 168.492 432.353 164.561 435.064 C 164.53 437.037 164.567 439.907 163.186 441.178 C 161.365 436.215 162.118 428.72 162.625 423.449 z"/>
<path transform="translate(0,0)" fill="rgb(132,145,169)" d="M 162.625 423.449 L 164.492 423.838 L 164.561 435.064 C 164.53 437.037 164.567 439.907 163.186 441.178 C 161.365 436.215 162.118 428.72 162.625 423.449 z"/>
<path transform="translate(0,0)" fill="rgb(3,3,9)" d="M 119.267 424.922 C 124.838 424.053 138.939 424.384 145.42 424.366 C 149.036 425.018 151.797 425.458 155.451 425.797 C 147.898 425.99 136.391 425.623 129.745 427.938 L 129.053 428.961 L 126.304 429.793 C 125.975 433.044 125.974 438.85 124.453 441.216 C 121.609 442.453 121.008 441.959 118.82 440.527 C 116.665 436.194 116.787 429.275 117.978 424.642 L 119.267 424.922 z"/>
<path transform="translate(0,0)" fill="rgb(152,163,185)" d="M 117.978 424.642 L 119.267 424.922 C 120.207 427.641 120.912 428.17 123.144 429.783 C 120.126 433.502 119.508 433.486 119.875 437.315 C 121.402 439.789 121.809 439.948 124.453 441.216 C 121.609 442.453 121.008 441.959 118.82 440.527 C 116.665 436.194 116.787 429.275 117.978 424.642 z"/>
<path transform="translate(0,0)" fill="rgb(132,145,169)" d="M 222.19 423.383 C 236.648 424.656 252.698 423.011 266.512 424.143 C 257.375 425.096 229.309 423.346 224.498 426.383 L 224.946 428.287 C 229.334 429.992 236.243 431.808 235.091 437.506 C 231.072 442.163 228.237 443.35 222.752 440.601 C 221.828 438.36 221.924 438.081 221.913 435.601 L 222.19 423.383 z"/>
<path transform="translate(0,0)" fill="rgb(152,163,185)" d="M 49.99 424.254 C 53.2474 423.669 61.0404 423.322 63.9238 424.947 L 60.8805 424.776 C 55.8287 427.482 56.7866 435.041 54.185 441.391 L 52.5591 441.891 L 51.2652 440.651 C 52.5413 434.034 57.6051 431.618 54.4114 425.05 L 49.99 424.254 z"/>
<path transform="translate(0,0)" fill="rgb(64,56,204)" d="M 1770.09 318.045 C 1772.06 317.909 1774.02 317.823 1775.98 317.788 L 1856.75 317.642 C 1913.84 317.601 1910.28 311.348 1909.23 367.91 C 1905.32 372.428 1904.34 373.596 1899.19 376.929 L 1770.23 376.892 C 1765.71 373.743 1764.1 371.807 1760.5 367.81 C 1759.84 355.809 1760.28 340.087 1760.29 327.811 C 1763.62 322.624 1764.97 321.487 1770.09 318.045 z"/>
<path transform="translate(0,0)" fill="rgb(211,202,245)" d="M 1859.3 339.721 L 1860 339.72 C 1861.6 341.783 1861.27 349.059 1861.53 352.708 L 1859.46 353.121 C 1856.84 349.896 1858.97 347.677 1856.51 343.624 L 1854.85 344.809 C 1854.35 348.017 1854.29 348.599 1852.83 351.588 C 1850 353.961 1843.55 353.034 1839.54 352.783 L 1839.49 349.39 C 1841.27 347.078 1842.55 346.321 1844.86 344.665 L 1844.8 343.854 C 1842.2 344.687 1842.86 344.888 1840.58 344.318 L 1841.32 342.533 C 1844.65 341.089 1843.21 341.254 1846.75 341.876 C 1849.19 344.567 1848.66 345.353 1849.51 349.492 L 1850.54 349.224 L 1851.5 342.945 C 1854.08 341.839 1856.69 340.764 1859.3 339.721 z"/>
<path transform="translate(0,0)" fill="rgb(211,202,245)" d="M 1798.79 345.319 C 1798.22 347.09 1797.47 348.641 1796.71 350.334 C 1793.91 352.628 1793.35 352.686 1789.79 353.318 C 1784.28 351.689 1783.04 347.854 1784.1 342.42 C 1787.3 338.297 1791.41 336.603 1796.09 339.919 L 1795.86 341.363 C 1797.78 342.289 1798.48 342.778 1800.57 343.04 L 1799.37 345.119 L 1798.79 345.319 z"/>
<path transform="translate(0,0)" fill="rgb(44,39,165)" d="M 1798.79 345.319 C 1796.49 344.245 1793.42 343.728 1791.28 345.21 L 1794.7 348.426 L 1793.68 350.257 L 1791.52 350.713 C 1787.52 349.462 1788.83 350.394 1786.34 346.977 C 1785.93 343.575 1785.58 344.801 1787.49 342.317 C 1792.17 340.329 1790.42 340.78 1795.86 341.363 C 1797.78 342.289 1798.48 342.778 1800.57 343.04 L 1799.37 345.119 L 1798.79 345.319 z"/>
<path transform="translate(0,0)" fill="rgb(211,202,245)" d="M 1835.17 339.995 L 1835.99 339.816 L 1837.21 341.43 C 1837.36 346.082 1837.57 348.48 1836.54 353.112 C 1832.78 351.382 1835.1 345.97 1830.79 343.023 C 1829.49 343.07 1828.72 343.72 1827.59 344.408 L 1827.47 345.343 L 1833.57 349.086 L 1831.41 351.961 C 1828.9 353.031 1827.87 353.723 1825.16 353.07 L 1824.19 351.402 L 1824.66 349.892 L 1829.01 350.77 C 1828.98 347.152 1826.28 349.64 1823.69 345.012 C 1825.8 338.512 1829.33 344.569 1835.17 339.995 z"/>
<path transform="translate(0,0)" fill="rgb(211,202,245)" d="M 1883.98 338.676 C 1885.71 340.391 1885.77 348.441 1884.21 350.745 C 1882.14 353.779 1880.18 353.068 1876.98 353.365 C 1870.19 343.298 1878.31 343.801 1883.43 339.175 L 1883.98 338.676 z"/>
<path transform="translate(0,0)" fill="rgb(211,202,245)" d="M 1800.57 343.04 C 1803.21 341.821 1804.13 341.143 1807.02 341.894 C 1809.23 344.31 1808.65 343.092 1808.97 346.662 C 1806.55 349.292 1807.08 348.56 1803.32 349.753 L 1804.18 350.93 L 1807.41 350.117 L 1807.3 352.009 C 1804.66 353.685 1805.93 353.363 1802.2 352.737 C 1799.72 349.983 1799.91 349.34 1799.37 345.119 L 1800.57 343.04 z"/>
<path transform="translate(0,0)" fill="rgb(211,202,245)" d="M 1811.75 338.564 C 1817.75 342.341 1811.48 345.742 1815.72 353.596 C 1813.88 353.301 1813.67 353.002 1812.09 351.901 C 1810.16 347.718 1810.86 342.983 1811.75 338.564 z"/>
<path transform="translate(0,0)" fill="rgb(3,3,9)" d="M 147.28 339.544 C 151.892 338.444 156.563 341.124 157.941 345.661 C 159.318 350.198 156.926 355.023 152.482 356.673 C 149.356 357.834 145.845 357.165 143.366 354.936 C 140.886 352.708 139.848 349.288 140.669 346.057 C 141.491 342.826 144.037 340.317 147.28 339.544 z"/>
<path transform="translate(0,0)" fill="rgb(254,254,254)" d="M 147.676 343.535 C 149.418 342.96 151.335 343.38 152.675 344.632 C 154.016 345.883 154.568 347.767 154.114 349.544 C 153.66 351.321 152.273 352.709 150.496 353.164 C 147.875 353.836 145.193 352.309 144.433 349.712 C 143.672 347.116 145.107 344.383 147.676 343.535 z"/>
<path transform="translate(0,0)" fill="rgb(3,3,9)" d="M 169.23 352.288 C 170.495 347.964 171.4 340.485 176.33 340.207 C 179.202 342.773 179.965 347.782 180.983 351.667 C 182.041 347.583 183.3 341.087 187.418 339.363 C 188.348 342.364 187.892 341.998 187.042 345.468 C 185.936 349.603 185.219 354.477 181.612 356.75 L 179.588 355.899 C 176.951 352.592 176.322 347.462 175.414 343.208 C 174.201 347.894 173.621 355.922 168.214 356.036 C 164.125 352.348 162.957 343.904 161.718 338.405 L 164.79 339.668 C 167.389 342.995 168.202 348.08 169.23 352.288 z"/>
<path transform="translate(0,0)" fill="rgb(3,3,9)" d="M 114.334 338.304 C 121.505 342.032 126.353 335.988 130.332 345.676 C 129.253 352.144 125.551 353.921 119.364 353.887 L 118.324 354.006 C 116.403 359.212 119.463 361.195 116.519 365.348 L 115.211 365.383 C 113.013 361.387 114.154 343.649 114.334 338.304 z"/>
<path transform="translate(0,0)" fill="rgb(3,3,9)" d="M 94.5841 331.476 C 98.7602 331.51 105.612 331.202 109.314 332.529 L 109.862 333.985 C 106.993 336.234 104.053 335.491 99.9211 335.41 C 97.3069 337.678 97.4523 336.825 97.1482 339.563 C 98.8803 341.824 102.861 342.987 105.682 344.108 C 103.827 347.281 101.546 343.748 96.6309 349.433 C 99.3571 355.581 105.085 351.472 109.392 356.143 C 104.831 357.32 98.8989 357.135 94.0886 357.204 C 94.0652 349.469 93.7294 338.94 94.5841 331.476 z"/>
<path transform="translate(0,0)" fill="rgb(152,163,185)" d="M 699.33 336.711 C 710.456 336.641 713.188 339.203 709.917 350.289 L 709.183 350.478 C 705.024 351.533 703.45 351.992 699.991 349.939 C 698.069 346.548 699.043 340.827 699.33 336.711 z"/>
<path transform="translate(0,0)" fill="rgb(254,254,254)" d="M 701.227 338.267 C 704.509 338.606 706.207 338.469 708.478 340.82 C 709.82 343.982 708.94 346.054 708.106 349.419 C 705.527 349.776 704.805 349.995 702.316 349.074 C 700.344 345.496 701.137 342.773 701.227 338.267 z"/>
<path transform="translate(0,0)" fill="rgb(152,163,185)" d="M 316.253 349.912 C 314.423 350.53 312.715 350.721 310.811 351.023 C 309.082 349.168 308.802 348.88 306.575 347.683 C 303.372 350.269 301.782 351.428 298.02 351.577 C 294.695 347.538 295.046 340.946 301.352 340.092 C 304.088 341.771 304.611 342.127 307.779 342.995 C 309.071 342.015 309.707 341.337 310.57 339.969 L 311.909 340.733 L 309.62 344.964 C 309.67 347.96 309.556 346.992 311.768 349.716 L 313.233 349.617 C 315.108 345.851 312.698 343.712 314.507 338.048 L 315.946 337.618 C 316.039 341.581 316.039 345.999 316.253 349.912 z"/>
<path transform="translate(0,0)" fill="rgb(152,163,185)" d="M 727.618 339.396 C 731.674 340.338 740.756 343.527 743.126 346.921 C 744.313 348.62 743.81 348.991 743.556 351.386 C 737.103 350.727 730.604 352.72 726.24 348.161 C 725.524 344.396 726.28 343.045 727.618 339.396 z"/>
<path transform="translate(0,0)" fill="rgb(254,254,254)" d="M 728.148 341.389 C 731.999 342.391 739.681 345.537 742.191 348.652 C 738.527 348.936 732.979 349.773 729.733 348.54 C 727.378 345.724 728.16 346.028 728.148 341.389 z"/>
<path transform="translate(0,0)" fill="rgb(184,192,203)" d="M 469.163 349.767 C 463.156 351.735 455.75 350.764 457.869 342.929 C 460.059 340.782 460.387 340.441 463.546 340.067 C 466.033 341.103 467.372 341.829 470.163 341.296 L 472.633 340.477 C 473.763 343.45 472.263 347.303 471.249 350.175 L 469.163 349.767 z"/>
<path transform="translate(0,0)" fill="rgb(152,163,185)" d="M 470.163 341.296 L 472.633 340.477 C 473.763 343.45 472.263 347.303 471.249 350.175 L 469.163 349.767 C 470.481 347.357 470.166 344.114 470.163 341.296 z"/>
<path transform="translate(0,0)" fill="rgb(152,163,185)" d="M 612.308 339.758 C 615.111 340.214 617.095 340.156 618.898 342.188 C 621.073 347.489 622.159 352.313 616.465 355.909 C 613.383 356.51 612.637 355.934 609.912 354.581 C 612.637 354.293 614.229 354.337 616.556 352.793 C 613.596 350.741 613.061 350.267 610.706 347.543 C 609.91 344.45 611.026 342.716 612.308 339.758 z"/>
<path transform="translate(0,0)" fill="rgb(152,163,185)" d="M 557.948 336.875 C 562.399 336.693 569.213 335.992 568.72 342.299 C 566.887 344.821 564.69 345.112 561.669 346.005 L 560.706 346.088 C 560.275 348.034 560.311 348.344 559.163 349.914 C 557.325 347.396 557.992 340.713 557.948 336.875 z"/>
<path transform="translate(0,0)" fill="rgb(152,163,185)" d="M 417.107 336.826 C 421.985 336.686 424.476 336.064 427.869 340.048 L 427.685 342.241 C 425.859 344.747 423.652 345.047 420.649 345.94 L 419.699 346.065 C 419.219 348.291 419.138 348.57 417.731 350.353 C 416.456 347.657 417.03 340.197 417.107 336.826 z"/>
<path transform="translate(0,0)" fill="rgb(152,163,185)" d="M 275.938 336.856 C 280.398 336.715 286.344 336.159 286.785 341.888 C 284.903 344.764 282.96 344.993 279.637 346.004 L 278.622 346.049 C 278.092 347.901 278.03 348.061 277.128 349.762 C 275.288 347.518 275.974 340.541 275.938 336.856 z"/>
<path transform="translate(0,0)" fill="rgb(184,192,203)" d="M 315.946 337.618 C 324.907 344.203 319.957 346.63 324.356 349.781 C 325.667 346.504 325.881 341.858 327.351 340.69 C 328.895 342.959 328.595 348.619 326.863 350.756 C 323.585 352.399 320.333 349.777 316.253 349.912 C 316.039 345.999 316.039 341.581 315.946 337.618 z"/>
<path transform="translate(0,0)" fill="rgb(235,236,242)" d="M 436.987 339.259 C 445.82 339.322 444.836 345.247 444.784 352.044 C 441.905 351.805 439.215 351.945 437.192 349.911 C 435.522 347.152 436.574 342.661 436.987 339.259 z"/>
<path transform="translate(0,0)" fill="rgb(152,163,185)" d="M 716.108 340.786 C 718.74 339.827 721.663 341.078 722.787 343.643 C 723.911 346.209 722.847 349.206 720.357 350.489 C 718.601 351.394 716.487 351.249 714.872 350.111 C 713.256 348.974 712.406 347.033 712.666 345.074 C 712.925 343.115 714.252 341.463 716.108 340.786 z"/>
<path transform="translate(0,0)" fill="rgb(152,163,185)" d="M 342.974 339.078 L 343.296 339.052 C 344.46 339.845 344.86 349.915 344.621 350.993 C 340.099 349.174 342.868 341.168 335.925 341.301 C 333.953 343.119 333.545 345.62 332.827 348.21 C 338.917 350.885 335.603 347.309 339.59 348.949 L 338.878 350.675 C 335.748 351.422 337.067 351.432 333.804 350.396 C 331.422 347.469 332.056 348.869 331.509 345.023 C 335.193 336.099 335.69 343.925 342.974 339.078 z"/>
<path transform="translate(0,0)" fill="rgb(3,3,9)" d="M 133.712 338.298 C 134.46 338.791 135.485 339.766 136.193 340.388 C 137.378 346.125 136.724 351.894 136.383 357.759 C 134.489 357.255 134.567 357.329 133.282 355.869 C 131.977 349.728 132.588 344.443 133.712 338.298 z"/>
<path transform="translate(0,0)" fill="rgb(152,163,185)" d="M 454.899 338.062 L 455.773 338.184 C 455.706 339.295 455.629 340.405 455.542 341.514 C 455.338 344.075 455.093 349.13 453.295 350.664 C 453.104 347.619 453.195 344.081 451.724 341.524 C 449.013 342.331 450.005 341.807 447.882 344.576 C 449.067 346.953 449.847 348.08 450.08 350.749 L 448.788 349.777 C 447.085 346.09 446.407 345.009 446.41 341.009 C 449.605 335.454 447.133 342.23 454.899 338.062 z"/>
<path transform="translate(0,0)" fill="rgb(152,163,185)" d="M 431.795 336.465 C 434.355 339.879 433.011 347.883 432.51 352.156 C 429.952 347.912 431.155 341.289 431.795 336.465 z"/>
<path transform="translate(0,0)" fill="rgb(152,163,185)" d="M 601.743 339.516 C 603.737 339.879 603.96 340.162 605.689 341.315 C 607.664 344.307 606.984 347.699 606.709 351.314 C 603.633 348.596 606.492 346.367 601.743 339.516 z"/>
<path transform="translate(0,0)" fill="rgb(152,163,185)" d="M 482.125 339.55 L 485.315 341.423 C 486.858 343.976 486.048 348.165 485.774 351.306 C 482.76 348.204 485.299 346.194 482.125 339.55 z"/>
<path transform="translate(0,0)" fill="rgb(152,163,185)" d="M 291.739 341.398 L 293.271 341.251 C 292.351 345.345 292.135 347.163 291.863 351.366 L 290.732 350.346 C 289.532 347.298 289.424 343.936 291.739 341.398 z"/>
<path transform="translate(0,0)" fill="rgb(152,163,185)" d="M 599.357 339.809 C 601.416 342.168 599.94 348.053 599.544 351.198 C 596.555 348.51 598.19 343.059 599.357 339.809 z"/>
<path transform="translate(0,0)" fill="rgb(254,254,254)" d="M 34.2154 471.024 C 82.5454 470.279 131.944 470.829 180.373 470.832 L 446.875 470.85 L 1244.07 470.862 L 1735.79 470.861 L 1895.78 470.846 C 1921.07 470.842 1956.07 469.834 1980.61 471.147 C 1988.69 476.26 1991.83 478.969 1996.83 487.635 C 1997.43 523.995 1998.17 571.521 1996.83 607.454 C 1991.72 615.686 1988.86 618.646 1980.63 623.833 C 1959.29 624.755 1934.67 624.207 1913.15 624.205 L 1796.34 624.173 L 1443.78 624.154 L 279.813 624.192 L 277.942 624.454 C 268.683 623.366 245.438 623.976 236.097 624.627 C 235.466 626.308 234.602 636.796 234.372 639.159 C 233.99 637.535 234.153 626.427 234.158 624.033 C 219.718 624.242 202.6 624.544 188.379 623.853 L 187.036 623.458 L 186.45 629.246 C 185.443 631.668 184.954 633.716 185.488 636.318 L 181.441 635.802 L 181.089 630.086 L 180.452 629.611 C 178.02 635.386 178.767 638.587 175.234 641.75 C 171.41 638.44 173.76 622.945 161.188 628.2 L 154.768 629.219 C 149.867 629.318 147.817 627.717 143.206 629.177 L 141.767 628.757 L 139.494 627.774 L 138.903 628.315 L 138.501 628.674 C 134.567 632.478 130.89 634.215 126.677 629.948 C 123.302 631.529 123.121 633.926 123.751 637.522 C 125.207 639.428 125.792 639.664 127.879 640.882 L 126.931 641.851 L 124.884 641.767 C 120.656 635.58 124.709 625.461 118.001 622.905 C 115.687 624.576 114.978 636.442 114.615 639.822 C 114.449 636.589 114.499 633.061 113.254 630.12 L 113.5 628.644 C 114.227 626.517 114.112 627.383 113.549 625.05 C 108.383 622.917 78.2313 623.838 72.3267 625.172 C 68.8594 625.104 65.5229 624.573 62.0922 624.102 C 61.1434 623.91 57.334 623.993 56.1334 623.993 L 51.4251 624.126 C 44.4553 627.179 47.9301 631.233 45.2753 634.26 L 44.3789 633.657 C 44.1879 630.789 47.7948 628.48 44.4355 624.255 L 38.9555 623.926 L 35.981 624.513 C 27.9172 620.589 22.3332 615.72 17.9545 607.738 C 17.6307 583.774 17.541 559.808 17.6852 535.842 C 17.6862 521.186 17.1288 501.743 18.0374 487.383 C 23.3002 478.629 25.5917 476.508 34.2154 471.024 z"/>
<path transform="translate(0,0)" fill="rgb(3,3,9)" d="M 187.036 623.458 L 186.45 629.246 C 185.443 631.668 184.954 633.716 185.488 636.318 L 181.441 635.802 L 181.089 630.086 L 180.452 629.611 C 178.02 635.386 178.767 638.587 175.234 641.75 C 171.41 638.44 173.76 622.945 161.188 628.2 L 154.768 629.219 C 149.867 629.318 147.817 627.717 143.206 629.177 L 141.767 628.757 L 139.494 627.774 L 138.903 628.315 L 138.501 628.674 C 134.567 632.478 130.89 634.215 126.677 629.948 C 124.271 628.159 124.896 629.113 124.146 626.426 C 129.006 621.812 174.781 625.206 187.036 623.458 z"/>
<path transform="translate(0,0)" fill="rgb(64,56,204)" d="M 1769.98 518.006 C 1773.7 517.643 1778.16 517.712 1781.97 517.674 L 1858.85 517.516 C 1914.38 517.495 1910.19 512.329 1909.3 567.676 C 1905.38 572.259 1904.35 573.537 1899.12 576.864 L 1821.07 576.979 C 1805.9 577.031 1790.62 577.251 1775.46 576.835 C 1767.4 576.614 1765.74 573.574 1760.52 567.773 C 1760.22 556.112 1759.07 541.217 1760.71 529.988 C 1761.62 523.777 1765.02 521.275 1769.98 518.006 z"/>
<path transform="translate(0,0)" fill="rgb(211,202,245)" d="M 1798.85 545.314 C 1796.96 551.176 1792.3 555.318 1786.2 551.893 C 1783.7 549.125 1782.7 544.022 1785.11 540.99 C 1786.46 539.314 1788.45 538.276 1790.59 538.126 C 1792.99 537.948 1794.33 538.463 1796.14 539.931 L 1795.83 541.264 L 1799.55 542.926 C 1799.39 543.826 1799.37 544.678 1798.85 545.314 z"/>
<path transform="translate(0,0)" fill="rgb(44,39,165)" d="M 1798.85 545.314 C 1795.18 544.255 1795.01 543.557 1791.88 544.45 C 1793.39 547.266 1794.19 547.604 1793.94 550.356 C 1791.22 550.865 1790.88 550.74 1788.33 549.635 C 1785.61 546.414 1785.04 545.431 1787.46 542.269 C 1792.15 540.212 1790.36 540.663 1795.83 541.264 L 1799.55 542.926 C 1799.39 543.826 1799.37 544.678 1798.85 545.314 z"/>
<path transform="translate(0,0)" fill="rgb(211,202,245)" d="M 1835.16 539.99 L 1835.87 539.788 C 1838.08 541.904 1837.74 551.348 1836.05 553.061 C 1833.08 550.418 1834.99 547.615 1831.88 543.373 C 1829.07 543.068 1830.21 542.857 1827.58 544.371 L 1827.47 545.309 L 1833.53 548.978 L 1831.95 551.445 C 1828.71 553.431 1827.26 554.546 1824.31 551.678 L 1824.39 550.242 C 1825.97 550.248 1828.17 550.51 1829.36 549.669 C 1826.89 548.095 1824.73 547.178 1823.67 544.585 C 1826.75 538.359 1829.14 544.573 1835.16 539.99 z"/>
<path transform="translate(0,0)" fill="rgb(211,202,245)" d="M 1884.08 538.614 C 1885.87 540.972 1885.98 549.311 1883.56 551.573 C 1881.49 553.51 1879.75 553.059 1877.03 553.336 C 1870.14 543.151 1878.37 543.706 1883.56 539.088 L 1884.08 538.614 z"/>
<path transform="translate(0,0)" fill="rgb(211,202,245)" d="M 1811.65 538.485 C 1817.22 541.828 1812.12 544.8 1815.47 553.888 C 1814.34 553.475 1813.16 552.577 1812.14 551.89 C 1810.19 547.455 1810.92 543.213 1811.65 538.485 z"/>
<path transform="translate(0,0)" fill="rgb(44,39,165)" d="M 1862.54 541.934 L 1863.39 543.106 C 1863.63 547.251 1863.8 548.46 1862.73 552.421 C 1859.2 548.204 1859.75 546.042 1862.54 541.934 z"/>
<path transform="translate(0,0)" fill="rgb(3,3,9)" d="M 149.476 539.518 C 154.059 538.292 158.805 540.845 160.308 545.344 C 161.812 549.844 159.554 554.736 155.155 556.512 C 152.06 557.762 148.527 557.19 145.983 555.029 C 143.439 552.868 142.305 549.473 143.038 546.217 C 143.772 542.961 146.251 540.38 149.476 539.518 z"/>
<path transform="translate(0,0)" fill="rgb(254,254,254)" d="M 149.858 543.551 C 152.286 542.551 155.075 543.588 156.26 545.932 C 157.444 548.276 156.626 551.136 154.381 552.499 C 152.765 553.479 150.737 553.47 149.13 552.478 C 147.523 551.485 146.608 549.674 146.761 547.791 C 146.915 545.908 148.111 544.27 149.858 543.551 z"/>
<path transform="translate(0,0)" fill="rgb(152,163,185)" d="M 702.204 536.537 C 713.743 536.65 709.853 536.92 715.778 544.197 C 718.711 541.779 720.101 539.984 723.877 540.753 C 726.25 544.673 725.544 545.527 725.702 550.414 C 722.793 551.176 722.352 551.289 719.241 550.895 C 717.671 548.475 717.415 548.209 715.053 546.553 C 711.335 549.24 708.112 552.583 703.464 551.243 C 701.374 548.056 702.169 540.874 702.204 536.537 z"/>
<path transform="translate(0,0)" fill="rgb(254,254,254)" d="M 705.508 538.072 C 709.243 538.791 709.847 538.985 712.152 541.467 C 712.977 544.857 712.151 546.093 710.754 549.307 C 705.975 549.946 705.895 549.804 703.945 545.908 C 704.083 542.556 703.95 541.057 705.508 538.072 z"/>
<path transform="translate(0,0)" fill="rgb(3,3,9)" d="M 172.707 552.64 C 173.7 548.154 174.333 542.619 178.09 540.02 L 180.128 540.579 C 182.754 543.636 183.22 548.154 184.045 552.192 C 184.475 550.726 184.927 549.268 185.401 547.816 C 186.573 544.279 187.741 540.762 190.919 539.156 L 191.574 540.041 L 191.185 542.221 C 189.675 547.939 189.251 553.156 184.488 556.151 L 182.538 555.185 C 179.983 551.867 179.456 546.909 178.625 542.695 C 177.502 548.423 177.521 552.629 172.973 555.999 L 170.91 555.327 C 167.235 550.889 166.274 544.151 165.004 538.421 L 168.049 539.607 C 170.713 542.955 171.627 548.362 172.707 552.64 z"/>
<path transform="translate(0,0)" fill="rgb(3,3,9)" d="M 114.955 538.575 C 120.114 541.449 120.686 537.983 126.925 540.246 C 129.573 542.426 130.218 542.773 130.945 546.163 C 130.033 552.705 125.52 553.819 119.888 553.237 L 119.641 553.165 C 116.868 555.515 120.73 561.585 116.973 565.31 L 115.593 564.728 C 114.255 560.827 114.901 543.726 114.955 538.575 z"/>
<path transform="translate(0,0)" fill="rgb(3,3,9)" d="M 94.2082 531.321 C 98.5578 531.345 101.979 531.419 106.35 531.806 L 106.564 533.454 L 107.421 531.982 L 107.656 533.324 L 109.268 533.063 C 105.849 533.92 101.743 534.738 98.7369 536.437 C 95.2838 544.758 102.341 540.3 105.849 544.074 C 102.654 547.619 101.502 543.608 96.6505 549.475 C 99.2958 555.517 107.405 551.48 109.203 556.363 C 104.251 557.061 99.1068 557.031 94.0954 557.138 L 94.2082 531.321 z"/>
<path transform="translate(0,0)" fill="rgb(152,163,185)" d="M 730.474 539.513 C 735.969 540.137 744.974 543.425 746.997 548.936 L 745.449 551.889 C 738.678 549.866 733.268 552.583 729.282 547.735 C 728.696 544.396 729.464 542.746 730.474 539.513 z"/>
<path transform="translate(0,0)" fill="rgb(254,254,254)" d="M 731.401 541.34 C 736.363 542.543 740.051 544.464 744.259 547.242 L 744.494 549.236 C 739.904 548.75 736.228 549.503 732.382 548 C 730.558 545.216 731.215 545.383 731.401 541.34 z"/>
<path transform="translate(0,0)" fill="rgb(152,163,185)" d="M 597.393 535.705 C 598.14 539.129 598.123 546.841 598.226 550.643 C 595.601 550.485 590.26 551.081 587.438 551.313 C 586.846 547.596 586.73 546.774 587.074 543.046 C 590.099 539.705 590.49 542.231 595.956 540.486 L 597.393 535.705 z"/>
<path transform="translate(0,0)" fill="rgb(152,163,185)" d="M 279.107 536.718 C 283.462 536.619 289.042 536.189 290.326 541.231 C 287.615 544.885 288.053 543.923 283.439 546.027 L 281.79 545.821 C 281.216 548.106 281.158 548.468 279.571 550.186 C 281.305 547.387 279.091 548.351 279.089 547.29 C 279.082 544.409 279.102 539.533 279.107 536.718 z"/>
<path transform="translate(0,0)" fill="rgb(152,163,185)" d="M 561.237 536.784 C 562.304 536.759 563.371 536.753 564.438 536.766 C 568.238 536.826 569.392 537.058 572.128 539.872 L 572.06 542.052 C 569.8 544.744 568.024 544.935 564.623 545.88 L 563.705 546.066 C 563.318 548.289 563.262 548.583 561.868 550.345 C 560.985 547.188 561.302 540.381 561.237 536.784 z"/>
<path transform="translate(0,0)" fill="rgb(152,163,185)" d="M 420.193 536.876 C 425.479 536.604 427.196 536.039 430.909 539.973 L 430.845 541.919 C 428.87 544.789 427.044 544.972 423.666 545.945 L 422.696 546.052 C 422.23 547.661 422.141 548.003 421.41 549.49 C 419.59 547.569 420.241 540.355 420.193 536.876 z"/>
<path transform="translate(0,0)" fill="rgb(152,163,185)" d="M 463.961 540.772 C 466.629 539.627 469.722 540.831 470.915 543.478 C 472.107 546.124 470.96 549.238 468.336 550.479 C 466.595 551.302 464.546 551.121 462.976 550.005 C 461.407 548.89 460.561 547.015 460.766 545.1 C 460.97 543.186 462.192 541.53 463.961 540.772 z"/>
<path transform="translate(0,0)" fill="rgb(152,163,185)" d="M 302.204 540.805 C 304.864 539.719 307.903 540.964 309.037 543.603 C 310.172 546.243 308.983 549.305 306.365 550.487 C 304.628 551.272 302.602 551.058 301.068 549.927 C 299.534 548.796 298.73 546.925 298.965 545.033 C 299.201 543.142 300.439 541.525 302.204 540.805 z"/>
<path transform="translate(0,0)" fill="rgb(152,163,185)" d="M 318.402 537.046 L 319.3 538.322 L 322.554 541.611 L 321.929 548.549 L 319.147 550.516 C 316.738 550.832 315.504 551.183 313.199 550.261 C 310.559 547.479 311.065 548.739 310.47 545.111 C 311.369 542.337 311.48 541.943 313.749 540.148 L 313.972 540.88 C 313.172 543.534 313.166 544.306 313.019 547.002 C 314.633 549.688 313.78 549.187 316.193 549.902 C 318.178 547.096 317.212 542.581 318.233 537.815 L 318.402 537.046 z"/>
<path transform="translate(0,0)" fill="rgb(235,236,242)" d="M 319.3 538.322 L 322.554 541.611 L 321.929 548.549 L 319.147 550.516 C 319.591 547.06 319.353 541.928 319.3 538.322 z"/>
<path transform="translate(0,0)" fill="rgb(3,3,9)" d="M 135.262 538.423 C 135.898 538.743 136.997 539.645 137.616 540.114 C 139.047 545.733 138.164 552.554 137.536 558.343 C 132.265 554.835 134.597 544.033 135.262 538.423 z"/>
<path transform="translate(0,0)" fill="rgb(152,163,185)" d="M 481.281 540.181 C 485.684 540.322 485.105 539.686 488.454 541.72 C 490.037 544.968 490.474 546.763 488.191 549.547 C 486.362 547.094 486.99 545.937 486.855 542.22 L 485.644 541.432 C 483.054 542.868 483.065 545.528 482.009 549.101 C 481.89 550.191 481.203 541.897 481.281 540.181 z"/>
<path transform="translate(0,0)" fill="rgb(152,163,185)" d="M 322.554 541.611 L 323.698 541.001 C 324.075 544.532 324.251 545.787 325.248 549.181 L 326.66 550.15 C 328.64 548.918 329.427 544.008 330.236 541.204 L 330.034 541.652 C 331.478 543.807 330.945 546.462 330.948 549.474 C 328.334 552.169 324.238 551.336 321.929 548.549 L 322.554 541.611 z"/>
<path transform="translate(0,0)" fill="rgb(152,163,185)" d="M 619.888 540.149 L 622.355 541.477 C 623.653 546.823 624.622 552.462 619.51 555.845 L 616.838 555.259 L 615.788 553.918 C 617.138 553.596 618.163 553.713 619.539 553.757 C 621.389 550.621 620.663 543.7 619.888 540.149 z"/>
<path transform="translate(0,0)" fill="rgb(152,163,185)" d="M 336.408 539.503 C 338.892 539.9 339.619 540.229 341.955 541.192 C 340.417 542.189 338.863 543.162 337.295 544.113 C 336.74 547.441 337.136 546.874 338.591 550.482 C 339.765 549.967 340.075 550.038 341.338 549.96 L 339.876 550.478 C 336.226 549.587 337.388 550.33 335.012 547.938 C 334.35 544.464 335.218 542.838 336.408 539.503 z"/>
<path transform="translate(0,0)" fill="rgb(184,192,203)" d="M 582.448 535.841 C 584.743 538.509 583.948 547.609 583.838 551.444 L 582.176 549.851 C 581.253 545.356 582.012 540.451 582.448 535.841 z"/>
<path transform="translate(0,0)" fill="rgb(152,163,185)" d="M 450.958 537.576 C 454.169 540.035 453.076 547.272 453.292 551.532 L 451.692 550.113 C 450.355 546.368 450.838 541.635 450.958 537.576 z"/>
<path transform="translate(0,0)" fill="rgb(152,163,185)" d="M 490.836 539.444 C 492.778 539.855 492.992 540.148 494.644 541.338 C 496.52 544.374 495.858 547.427 495.576 551.035 C 491.882 548.057 495.805 546.531 490.836 539.444 z"/>
<path transform="translate(0,0)" fill="rgb(152,163,185)" d="M 607.115 539.416 C 611.205 542.117 610.098 546.963 609.83 551.305 C 607.423 548.852 607.613 543.535 607.115 539.416 z"/>
<path transform="translate(0,0)" fill="rgb(254,254,254)" d="M 34.2418 670.962 C 80.2903 669.994 128.821 670.734 174.997 670.738 L 435.305 670.768 L 1213.68 670.775 L 1725.61 670.774 L 1892.44 670.755 C 1918.42 670.749 1955.43 669.668 1980.6 671.087 C 1988.37 675.907 1992.12 679.137 1996.83 687.471 C 1997.4 723.843 1998.2 771.39 1996.82 807.304 C 1992.06 815.077 1988.78 819.084 1980.44 823.782 C 1933.3 825.656 1875.97 824.116 1828.27 824.099 L 1543 824.076 L 671.174 824.068 L 433.653 824.071 C 396.602 824.072 349.429 822.728 312.74 824.249 L 311.211 824.044 L 297.188 823.934 L 295.84 823.376 C 290.925 824.371 273.74 825.345 269.077 823.482 L 267.088 823.401 L 266.784 828.374 C 266.276 830.077 265.785 831.786 265.31 833.499 C 260.303 834.382 260.466 828.612 254.492 828.719 C 253.808 828.7 252.356 828.952 251.609 829.054 C 249.08 829.784 247.755 829.412 245.158 829.092 C 241.613 828.271 239.332 828.196 235.983 829.425 L 229.207 828.38 C 226.931 828.288 225.733 828.731 223.556 829.289 L 222.227 828.273 L 222.037 823.815 L 220.594 823.303 C 206.136 826.806 128.995 820.8 123.33 826.075 C 125.117 830.301 126.649 836.927 122.699 840.523 C 122.669 835.017 122.685 829.512 122.75 824.007 C 113.856 824.071 97.0641 824.595 88.8204 823.498 L 87.1481 823.364 C 83.5575 823.715 73.4625 824.43 70.674 825.175 L 64.3859 824.071 L 58.6391 824.086 L 56.2131 823.756 L 51.4 824.025 C 48.8128 825.277 46.7779 829.555 45.2287 832.207 C 45.228 827.332 46.9789 827.291 44.6579 824.29 L 38.9301 823.713 L 36.1623 824.569 C 27.9995 820.528 22.3904 815.684 17.9155 807.587 C 17.6605 782.839 17.5846 758.09 17.6878 733.342 C 17.6881 719.261 17.1862 701.132 18.0259 687.311 C 23.1966 678.648 25.5797 676.354 34.2418 670.962 z"/>
<path transform="translate(0,0)" fill="rgb(3,3,9)" d="M 267.088 823.401 L 266.784 828.374 C 266.276 830.077 265.785 831.786 265.31 833.499 C 260.303 834.382 260.466 828.612 254.492 828.719 C 253.808 828.7 252.356 828.952 251.609 829.054 C 249.08 829.784 247.755 829.412 245.158 829.092 C 241.613 828.271 239.332 828.196 235.983 829.425 L 229.207 828.38 C 226.931 828.288 225.733 828.731 223.556 829.289 L 222.227 828.273 L 222.037 823.815 C 230.321 824.095 259.976 824.806 267.088 823.401 z"/>
<path transform="translate(0,0)" fill="rgb(64,56,204)" d="M 1775.06 717.484 L 1855.51 717.403 C 1868.94 717.374 1883.28 716.908 1896.44 717.808 C 1913.02 719.764 1908.97 737.432 1909.63 748.988 C 1910.28 760.521 1910.09 776.187 1895.25 776.848 L 1817.55 776.922 C 1803.4 776.952 1789.11 777.136 1774.96 776.714 C 1767.4 776.488 1765.51 773.278 1760.55 767.75 C 1760.03 751.616 1753.63 719.752 1775.06 717.484 z"/>
<path transform="translate(0,0)" fill="rgb(211,202,245)" d="M 1859.25 739.761 L 1860.1 739.635 C 1861.3 741.2 1861.69 751.84 1861.33 752.82 L 1859.2 752.763 C 1855.82 748.533 1859.74 748.249 1856.62 743.475 C 1854.63 744.588 1853.14 749.206 1852.12 751.604 C 1848.87 754.03 1844.5 752.848 1839.49 752.691 L 1839.81 748.478 C 1841.9 745.894 1841.2 746.661 1844.95 745.717 L 1845.39 744.207 C 1843.71 744.283 1842.2 744.295 1840.51 744.283 L 1840.68 742.404 C 1843.85 740.888 1842.8 741.292 1846.51 741.505 C 1849.2 743.798 1848.7 745.129 1849.6 749.276 L 1850.48 749.155 C 1851.24 740.165 1851.04 742.489 1859.25 739.761 z"/>
<path transform="translate(0,0)" fill="rgb(211,202,245)" d="M 1835.16 739.973 L 1835.89 739.756 L 1837.12 740.973 C 1837.29 743.718 1837.96 751.244 1835.97 752.922 L 1834.35 751.965 C 1834.31 748.866 1834.41 747.951 1833.3 745.017 C 1830.19 743.438 1831.27 743.848 1827.58 744.05 L 1827.91 746.119 C 1830.94 747.156 1831.53 747.716 1833.94 749.762 L 1834.63 750.353 C 1831.54 752.168 1831.07 752.44 1827.52 753.081 C 1824.39 752.014 1825.27 752.798 1823.86 750.356 C 1825.86 749.489 1827.32 749.732 1829.51 749.79 C 1827.25 748.299 1824.67 747.012 1823.7 744.54 C 1827.21 738.08 1829.02 744.606 1835.16 739.973 z"/>
<path transform="translate(0,0)" fill="rgb(211,202,245)" d="M 1883.98 738.776 C 1885.94 740.235 1885.51 748.182 1884.25 750.385 C 1882.4 753.601 1880.29 752.966 1877.12 753.35 C 1870.16 743.699 1877.91 743.165 1883.4 739.198 L 1883.98 738.776 z"/>
<path transform="translate(0,0)" fill="rgb(211,202,245)" d="M 1787.78 737.877 L 1791.2 737.699 L 1792.7 739.381 L 1795.42 738.761 L 1795.49 739.404 C 1790.78 740.641 1788.33 740.984 1786.14 745.458 C 1786.93 748.6 1786.32 747.425 1788.68 749.878 C 1792.25 750.704 1790.83 750.838 1794.08 749.537 L 1794.6 747.684 L 1793 745.525 L 1792.13 744.518 L 1794.86 744.339 C 1797.99 746.509 1797.87 745.696 1798.79 748.694 C 1796.35 752.676 1790.89 753.822 1786.72 751.804 C 1782.02 746.806 1783.45 742.336 1787.78 737.877 z"/>
<path transform="translate(0,0)" fill="rgb(211,202,245)" d="M 1811.56 738.402 C 1817.29 741.703 1812.1 744.743 1815.49 753.896 C 1814.38 753.457 1813.22 752.579 1812.2 751.892 C 1810.21 747.479 1810.94 743.166 1811.56 738.402 z"/>
<path transform="translate(0,0)" fill="rgb(44,39,165)" d="M 115.775 733.45 C 122.525 738.277 122.915 757.793 114.935 758.855 L 114.002 755.968 C 111.606 754.534 106.264 755.057 103.17 755.1 C 103 753.829 103.072 751.687 103.07 750.341 C 105.442 747.927 106.149 748.428 110.015 747.481 L 110.762 746.01 C 109.61 744.634 105.556 743.934 102.955 742.857 L 102.244 741.072 C 104.58 732.886 109.615 742.18 115.775 733.45 z"/>
<path transform="translate(0,0)" fill="rgb(3,3,9)" d="M 179.765 741.482 C 184.522 740.251 189.386 743.073 190.678 747.814 C 191.971 752.555 189.212 757.455 184.488 758.808 C 181.377 759.7 178.028 758.849 175.72 756.58 C 173.412 754.312 172.503 750.978 173.34 747.852 C 174.178 744.726 176.632 742.293 179.765 741.482 z"/>
<path transform="translate(0,0)" fill="rgb(254,254,254)" d="M 180.113 745.511 C 182.574 744.519 185.382 745.603 186.539 747.991 C 187.695 750.379 186.804 753.255 184.499 754.57 C 182.863 755.504 180.843 755.448 179.261 754.426 C 177.679 753.404 176.798 751.585 176.978 749.71 C 177.157 747.835 178.366 746.215 180.113 745.511 z"/>
<path transform="translate(0,0)" fill="rgb(3,3,9)" d="M 213.901 753.878 C 214.095 753.13 214.295 752.383 214.5 751.638 C 215.496 748.008 216.731 743.036 220.142 741.1 L 221.121 742.231 L 220.397 746.259 C 219.205 750.432 218.301 755.809 214.738 758.197 L 212.73 757.764 C 209.82 754.683 209.161 749.309 208.195 745.016 C 207.163 749.727 206.687 755.34 202.749 757.911 L 200.589 757.368 C 196.811 753.101 195.807 746.041 194.481 740.356 L 197.725 741.689 C 200.362 745.087 201.075 750.099 202.059 754.388 C 203.377 749.933 204.189 744.784 207.707 742.047 L 209.578 742.37 C 212.296 745.181 212.957 749.957 213.901 753.878 z"/>
<path transform="translate(0,0)" fill="rgb(3,3,9)" d="M 146.595 740.813 C 153.271 743.261 160.634 738.265 162.611 748.425 C 160.642 755.546 156.717 755.934 150.461 754.616 C 149.874 757.218 150.835 761.274 149.481 766.277 L 147.988 767.092 L 146.68 766.033 C 146.067 759.52 146.526 747.715 146.595 740.813 z"/>
<path transform="translate(0,0)" fill="rgb(3,3,9)" d="M 126.255 733.395 C 130.593 733.407 138.078 732.998 141.831 734.506 L 141.965 736.055 C 139.126 738.055 135.985 737.325 131.915 737.403 C 129.736 739.546 129.607 738.962 129.306 741.586 C 130.438 743.211 135.074 744.115 138.103 745.99 C 136.697 749.889 133.695 745.494 128.821 751.488 C 129.594 752.969 130.062 753.304 131.226 754.438 C 134.872 754.812 139.273 755.199 141.724 758.028 C 136.827 759.346 131.308 759.087 126.191 759.12 L 126.255 733.395 z"/>
<path transform="translate(0,0)" fill="rgb(152,163,185)" d="M 351.022 737.792 L 351.722 737.97 C 350.872 743.228 353.407 750.079 348.234 751.575 C 343.467 750.115 344.972 750.955 341.594 746.474 C 339.618 750.299 339.24 750.644 335.385 752.569 C 332.412 749.667 331.269 748.28 331.647 743.884 C 333.653 740.462 332.495 741.517 335.956 739.809 C 341.281 740.444 337.277 740.061 341.614 744.058 C 346.007 740.366 346.263 740.576 351.022 737.792 z"/>
<path transform="translate(0,0)" fill="rgb(152,163,185)" d="M 762.417 739.422 C 766.622 739.627 776.718 743.378 778.665 747.476 C 779.294 748.8 778.101 750.549 777.496 751.959 C 769.408 749.279 766.867 752.594 761.66 748.499 C 760.506 744.967 761.393 743.056 762.417 739.422 z"/>
<path transform="translate(0,0)" fill="rgb(254,254,254)" d="M 763.087 741.432 C 767.832 742.317 772.251 744.367 776.152 747.171 L 776.367 749.125 C 771.296 748.316 769.49 749.347 764.781 748.09 C 762.518 745.237 763.224 745.812 763.087 741.432 z"/>
<path transform="translate(0,0)" fill="rgb(235,236,242)" d="M 647.234 739.505 C 650.424 739.58 650.806 739.725 653.669 740.992 C 657.544 746.375 656.043 752.45 652.26 757.441 C 646.116 755.044 644.448 744.913 647.234 739.505 z"/>
<path transform="translate(0,0)" fill="rgb(44,39,165)" d="M 96.4328 733.405 C 98.2734 734.219 97.477 733.616 98.6782 735.515 C 99.121 741.023 99.6308 754.877 97.8252 759.597 C 92.2135 754.481 93.041 739.437 96.4328 733.405 z"/>
<path transform="translate(0,0)" fill="rgb(152,163,185)" d="M 489.979 738.048 L 490.816 738.175 C 490.485 746.871 491.816 750.047 483.139 751.067 C 482.587 747.59 481.888 744.239 482.209 740.732 C 486.115 737.435 483.596 741.658 489.979 738.048 z"/>
<path transform="translate(0,0)" fill="rgb(152,163,185)" d="M 311.295 736.746 C 316.62 736.474 318.346 735.954 322.033 739.98 L 321.857 741.955 C 319.851 744.729 317.961 744.923 314.639 745.865 L 313.701 746.031 C 313.209 747.97 313.06 748.291 312.157 750.084 L 312.586 749.006 L 311.333 747.883 L 311.295 736.746 z"/>
<path transform="translate(0,0)" fill="rgb(184,192,203)" d="M 378.113 739.06 C 379.148 738.641 378.594 738.779 380.089 739.353 C 380.001 742.254 379.453 747.266 378.66 749.979 C 379.701 744.456 374.756 741.174 369.697 743.286 L 368.121 748.005 C 370.066 748.542 372.423 748.627 374.439 748.573 L 375.3 748.543 L 374.378 750.298 C 370.808 751.607 372.272 751.598 368.849 750.513 C 366.756 748.101 366.795 747.521 366.617 744.48 C 369.728 736.584 370.886 743.103 378.113 739.06 z"/>
<path transform="translate(0,0)" fill="rgb(152,163,185)" d="M 749.404 739.824 C 753.627 739.814 754.72 739.956 757.514 742.542 C 758.499 746.067 757.892 747.351 756.867 750.921 C 752.831 751.287 752.446 751.333 749.569 749.343 C 748.064 746.061 748.849 743.421 749.404 739.824 z"/>
<path transform="translate(0,0)" fill="rgb(152,163,185)" d="M 494.555 739.88 C 498.963 740.045 498.082 739.419 501.473 741.519 C 503.157 744.336 502.42 747.768 502.103 751.118 C 497.874 751.395 496.945 751.531 494.157 748.621 C 493.208 745.496 493.95 743.099 494.555 739.88 z"/>
<path transform="translate(0,0)" fill="rgb(3,3,9)" d="M 166.126 740.382 C 167.271 740.917 167.654 741.331 168.643 742.106 C 170.096 748.23 169.302 753.999 168.57 760.176 C 163.086 756.792 165.521 746.083 166.126 740.382 z"/>
<path transform="translate(0,0)" fill="rgb(152,163,185)" d="M 734.257 741.35 L 736.146 742.035 C 736.962 744.323 736.866 744.929 736.738 747.268 L 736.695 747.951 L 738.584 749.34 C 742.241 748.944 741.252 748.978 744.544 746.531 L 745.829 747.125 C 744.934 749.387 743.553 750.055 741.562 751.512 C 733.678 752.249 734.336 747.086 734.257 741.35 z"/>
<path transform="translate(0,0)" fill="rgb(152,163,185)" d="M 619.552 739.794 C 622.106 739.855 623.368 740.26 625.781 740.883 L 626.074 741.909 C 622.802 742.7 622.744 742.195 620.607 744.254 L 621.145 747.439 L 623.039 748.062 C 625.222 748.418 624.29 747.978 625.953 749.382 L 624.251 750.631 C 620.906 750.413 622.187 750.885 619.445 748.699 C 618.143 745.624 618.953 743.108 619.552 739.794 z"/>
<path transform="translate(0,0)" fill="rgb(184,192,203)" d="M 614.396 735.769 L 615.456 736.855 C 616.407 741.247 615.864 746.783 615.649 751.362 L 614.103 749.857 C 613.225 745.722 614.023 740.105 614.396 735.769 z"/>
<path transform="translate(0,0)" fill="rgb(152,163,185)" d="M 354.443 739.336 C 356.799 742.012 355.994 745.988 358.853 751.39 C 352.705 749.834 353.945 744.449 354.443 739.336 z"/>
<path transform="translate(0,0)" fill="rgb(152,163,185)" d="M 522.819 739.374 C 525.02 739.885 525.266 740.136 526.983 741.626 C 528.573 744.414 527.862 747.892 527.568 751.179 C 523.74 747.71 527.961 745.033 522.819 739.374 z"/>
<path transform="translate(0,0)" fill="rgb(152,163,185)" d="M 505.946 739.158 C 506.697 739.495 507.541 740.108 508.251 740.573 C 507.26 744.344 506.978 745.618 506.891 749.53 L 506.875 750.429 C 505.764 750.544 506.325 750.552 505.026 749.56 C 504.623 744.945 504.956 743.739 505.946 739.158 z"/>
<path transform="translate(0,0)" fill="rgb(152,163,185)" d="M 637.809 739.196 C 638.702 739.592 640.1 740.517 640.987 741.057 C 642.76 743.936 641.996 747.767 641.708 751.235 C 638.587 747.625 641.671 745.955 637.809 739.196 z"/>
<path transform="translate(0,0)" fill="rgb(152,163,185)" d="M 362.408 739.688 C 363.225 743.054 364.124 747.304 361.644 749.898 L 360.688 749.397 C 360.886 745.119 360.802 743.601 362.408 739.688 z"/>
<path transform="translate(0,0)" fill="rgb(152,163,185)" d="M 513.881 741.441 L 515.032 741.201 C 515.812 742.694 514.825 749.064 514.598 751.18 C 514.22 750.849 513.392 749.502 513.059 749 C 512.881 745.655 512.652 744.584 513.881 741.441 z"/>
<path transform="translate(0,0)" fill="rgb(235,236,242)" d="M 38.4191 32.784 L 43.4534 33.4486 C 47.9979 36.6993 50.3109 42.8183 52.8956 47.9745 C 52.9678 42.0755 52.3676 38.6556 54.8778 33.2346 L 56.078 32.8621 C 60.0303 38.4034 58.9369 49.0611 58.676 55.9189 C 57.0315 55.7862 55.2835 55.5519 53.634 55.3634 C 49.104 52.0669 46.845 46.1637 44.215 41.0191 C 44.2785 47.136 44.5749 49.9892 42.3274 55.7882 L 40.6538 56.0228 C 37.2802 49.7233 38.1533 39.9343 38.4191 32.784 z"/>
<path transform="translate(0,0)" fill="rgb(235,236,242)" d="M 104.874 30.3207 C 108.344 31.029 107.534 30.3904 109.966 32.5869 L 110.112 36.8875 C 115.441 40.7236 119.27 37.8359 122.608 42.6382 C 123.378 46.6222 122.759 48.5025 121.94 52.5102 C 116.659 56.2843 111.258 55.2364 104.83 55.3906 L 104.874 30.3207 z"/>
<path transform="translate(0,0)" fill="rgb(3,3,9)" d="M 112.787 39.398 C 119.636 42.0034 117.833 49.6172 114.505 54.4144 C 108.516 49.8024 109.201 45.5395 112.787 39.398 z"/>
<path transform="translate(0,0)" fill="rgb(3,3,9)" d="M 144.236 429.838 L 144.447 428.456 L 145.957 429.125 C 152.635 428.513 156.342 427.999 157.747 435.688 C 156.855 438.596 156.753 439.457 154.307 441.444 C 150.255 442.527 151.829 442.479 147.822 441.214 C 145.982 439.323 145.813 439.056 145.068 436.527 C 143.285 438.18 139.071 438.975 136.679 439.214 C 139.236 439.476 140.081 439.431 142.27 440.863 L 141.292 441.855 C 136.071 442.213 132.814 440.327 132.001 435.089 C 133.15 431.798 133.761 431.502 136.557 429.506 C 140.01 428.496 140.742 428.856 144.236 429.838 z"/>
<path transform="translate(0,0)" fill="rgb(152,163,185)" d="M 145.957 429.125 C 152.635 428.513 156.342 427.999 157.747 435.688 C 156.855 438.596 156.753 439.457 154.307 441.444 C 150.255 442.527 151.829 442.479 147.822 441.214 C 145.982 439.323 145.813 439.056 145.068 436.527 C 146.975 434.737 150.516 433.094 152.929 431.846 C 150.118 431.109 148.498 430.559 145.957 429.125 z"/>
<path transform="translate(0,0)" fill="rgb(132,145,169)" d="M 136.679 439.214 C 139.236 439.476 140.081 439.431 142.27 440.863 L 141.292 441.855 C 136.071 442.213 132.814 440.327 132.001 435.089 C 133.15 431.798 133.761 431.502 136.557 429.506 C 140.01 428.496 140.742 428.856 144.236 429.838 C 140.906 430.585 137.493 430.982 135.104 433.352 C 134.63 435.454 134.85 437.721 136.679 439.214 z"/>
<path transform="translate(0,0)" fill="rgb(235,236,242)" d="M 197.623 38.3862 C 200.596 36.9168 204.129 37.1609 206.872 39.0251 C 209.615 40.8892 211.142 44.085 210.87 47.3902 C 210.598 50.6953 208.569 53.5984 205.558 54.989 C 200.987 57.1003 195.569 55.1461 193.397 50.6035 C 191.226 46.061 193.109 40.6169 197.623 38.3862 z"/>
<path transform="translate(0,0)" fill="rgb(3,3,9)" d="M 199.961 39.2604 C 207.601 41.7369 205.586 47.8081 203.63 53.7061 C 195.506 51.5405 197.787 45.1552 199.961 39.2604 z"/>
<path transform="translate(0,0)" fill="rgb(235,236,242)" d="M 126.193 38.4571 C 137.831 36.0799 147.258 41.6848 142.711 53.8637 C 139.695 56.4247 138.736 54.2909 132.79 54.8182 L 132.051 54.8879 L 129.504 54.8973 C 126.217 52.7854 127.22 53.9454 125.542 50.5897 C 127.119 42.4542 134.47 46.4375 137.504 42.2174 C 134.289 39.7335 130.425 40.509 126.193 38.4571 z"/>
<path transform="translate(0,0)" fill="rgb(235,236,242)" d="M 74.1633 44.1206 L 74.4908 41.6694 C 72.0929 39.6664 68.7758 39.8345 65.543 39.5703 C 66.6904 37.2645 66.252 38.0104 68.9623 36.5678 C 77.0089 36.1569 84.5534 46.0525 80.3883 54.0426 C 77.4504 56.131 78.4681 55.5495 74.288 55.4076 C 73.0956 55.4254 71.903 55.4141 70.7112 55.3738 C 66.8614 55.2059 66.3523 54.2771 64.1226 51.7974 C 63.7235 48.421 63.4681 49.7915 65.3247 46.6345 C 68.3811 44.3035 70.2734 44.4487 74.1633 44.1206 z"/>
<path transform="translate(0,0)" fill="rgb(235,236,242)" d="M 74.288 55.4076 C 73.0956 55.4254 71.903 55.4141 70.7112 55.3738 C 66.8614 55.2059 66.3523 54.2771 64.1226 51.7974 C 63.7235 48.421 63.4681 49.7915 65.3247 46.6345 C 68.3811 44.3035 70.2734 44.4487 74.1633 44.1206 C 74.67 40.8689 74.3317 54.8287 74.288 55.4076 z"/>
<path transform="translate(0,0)" fill="rgb(235,236,242)" d="M 213.711 37.7156 C 221.685 38.7319 225.303 35.9493 230.711 41.2104 C 232.399 45.8627 231.548 52.7976 227.428 55.833 L 226.005 55.1842 C 224.83 52.2792 225.12 47.9984 225.124 44.7505 C 224.692 40.9499 225.327 42.2167 223.024 39.6742 L 222.553 39.7642 C 220.642 41.3217 217.947 51.6666 216.208 55.8071 L 214.322 55.1177 L 214.352 55.2069 C 213.436 49.3066 213.666 43.6802 213.711 37.7156 z"/>
<path transform="translate(0,0)" fill="rgb(235,236,242)" d="M 255.64 37.8529 C 260.855 37.9765 267.899 38.1424 268.234 45.0983 C 264.708 47.8544 258.939 45.6255 255.819 48.5916 L 256.467 50.5171 C 260.052 53.8426 258.759 52.8769 264.701 53.2898 C 265.763 52.2614 265.126 52.6089 266.765 52.4347 L 266.092 53.7609 C 256.111 59.7894 242.057 48.8242 255.64 37.8529 z"/>
<path transform="translate(0,0)" fill="rgb(235,236,242)" d="M 271.689 37.5116 C 279.598 38.2252 274.617 38.1883 281.339 41.4644 C 284.301 38.1106 284.257 37.8088 288.43 38.1021 L 288.981 39.3962 L 284.116 46.2966 C 286.267 49.2828 288.098 52.2272 290.051 55.3324 C 282.105 55.3623 286.237 53.5118 280.633 51.302 C 277.32 55.342 277.712 55.3695 273.001 55.2193 L 272.488 53.9552 L 277.989 46.558 L 271.689 37.5116 z"/>
<path transform="translate(0,0)" fill="rgb(235,236,242)" d="M 92.2554 50.0968 L 92.4823 49.4368 C 93.8585 45.4992 95.0665 38.4257 100.167 38.1735 C 101.165 41.4616 100.47 41.381 99.2126 45.3289 C 96.9663 50.512 97.4941 54.9389 91.1232 55.1144 C 86.2183 51.543 84.8406 43.7502 83.0414 37.7736 C 84.4593 37.7718 85.9517 38.0802 87.3631 38.3083 C 90.2619 41.1276 91.1289 46.0693 92.2554 50.0968 z"/>
<path transform="translate(0,0)" fill="rgb(132,145,169)" d="M 281.44 828.458 C 284.436 828.669 286.529 828.627 289.276 829.868 C 294.676 836.737 292.281 846.05 282.555 845.897 L 282.35 844.207 L 287.462 843.183 L 287.756 841.613 C 282.814 840.951 280.989 841.189 278.942 836.44 C 278.941 832.819 279.745 831.706 281.44 828.458 z"/>
<path transform="translate(0,0)" fill="rgb(132,145,169)" d="M 108.762 640.644 C 106.096 642.396 102.548 641.929 100.427 639.547 C 98.3057 637.164 98.2519 633.587 100.301 631.141 C 102.349 628.696 105.881 628.123 108.598 629.794 L 113.5 628.644 L 113.254 630.12 C 112.913 633.855 112.544 637.088 111.985 640.796 L 110.785 641.71 C 109.476 641.227 109.329 641.46 108.762 640.644 z"/>
<path transform="translate(0,0)" fill="rgb(3,3,9)" d="M 108.598 629.794 L 113.5 628.644 L 113.254 630.12 C 112.913 633.855 112.544 637.088 111.985 640.796 L 110.785 641.71 C 109.476 641.227 109.329 641.46 108.762 640.644 C 110.599 639.436 111.692 637.373 111.659 635.174 C 111.626 632.976 110.471 630.946 108.598 629.794 z"/>
<path transform="translate(0,0)" fill="rgb(152,163,185)" d="M 303.77 228.634 C 307.262 229.063 310.299 228.847 312.815 230.739 C 315.494 236.271 314.193 241.703 309.452 245.69 C 306.028 246.874 305.349 246.571 301.811 245.675 C 302.68 244.794 307.907 243.592 310.533 242.356 C 300.567 241.356 298.852 237.591 303.77 228.634 z"/>
<path transform="translate(0,0)" fill="rgb(152,163,185)" d="M 248.418 628.418 L 256.874 629.653 C 260.445 636.062 259.083 639.156 254.818 644.807 C 250.885 646.778 251.717 646.132 246.761 645.795 C 249.803 642.349 251.659 645.397 254.723 641.944 C 252.75 641.698 250.773 641.487 248.792 641.311 C 244.447 637.321 245.487 633.032 248.418 628.418 z"/>
<path transform="translate(0,0)" fill="rgb(152,163,185)" d="M 286.393 428.42 L 293.872 429.604 C 299.071 434.571 296.306 440.937 291.92 445.43 C 289.126 446.897 287.034 446.166 283.895 445.6 C 286.097 444.356 288.399 444.453 291.389 442.761 L 291.202 441.666 C 281.839 439.889 281.059 436.314 286.393 428.42 z"/>
<path transform="translate(0,0)" fill="rgb(152,163,185)" d="M 300.201 423.396 C 303.808 423.549 313.537 423.415 315.937 424.85 L 317.296 427.321 C 319.031 427.989 319.597 428.279 321.207 429.212 L 321.26 430.609 L 317.479 431.554 L 316.934 433.706 C 317.421 437.522 318.715 438.48 321.401 441.334 L 320.109 443.166 L 319.258 442.882 L 320.862 442.792 C 314.028 441.381 314.427 430.691 315.23 425.217 C 309.038 429.639 308.63 426.35 302.819 429.014 C 302.503 433.22 302.271 435.803 301.44 439.921 L 300.698 440.211 C 299.38 434.581 299.938 429.171 300.201 423.396 z"/>
<path transform="translate(0,0)" fill="rgb(3,3,9)" d="M 302.819 429.014 C 301.867 426.474 301.851 427.504 302.742 425.128 C 306.18 423.813 311.4 424.808 315.23 425.217 C 309.038 429.639 308.63 426.35 302.819 429.014 z"/>
<path transform="translate(0,0)" fill="rgb(132,145,169)" d="M 102.089 428.732 C 107.231 430.336 111.99 427.506 114.388 434.595 C 113.607 438.675 113.138 439.176 110.561 442.485 L 106.607 441.493 L 102.772 444.878 C 101.652 443.327 102.076 431.518 102.089 428.732 z"/>
<path transform="translate(0,0)" fill="rgb(132,145,169)" d="M 150.948 828.489 C 155.998 830.248 160.906 827.424 163.251 834.623 C 162.476 838.66 161.833 839.299 159.137 842.488 L 155.086 841.412 L 151.827 844.652 C 150.588 843.041 150.973 831.48 150.948 828.489 z"/>
<path transform="translate(0,0)" fill="rgb(235,236,242)" d="M 295.667 32.3532 C 309.197 39.0823 297.943 41.9136 298.768 48.5688 C 300.883 53.0346 299.658 51.6414 303.583 54.4357 L 303.093 55.3172 C 299.698 55.3706 298.029 55.6635 295.147 53.8819 C 291.573 48.0232 297.964 44.1966 291.384 39.299 C 292.781 35.5478 293.026 38.0626 295.667 32.3532 z"/>
<path transform="translate(0,0)" fill="rgb(152,163,185)" d="M 187.036 623.458 L 188.379 623.853 L 189.009 628.241 C 194.165 631.573 193.927 627.057 197.709 631.456 C 199.133 638.526 195.724 643.105 188.158 641.637 C 186.037 638.735 186.614 633.497 186.45 629.246 L 187.036 623.458 z"/>
<path transform="translate(0,0)" fill="rgb(235,236,242)" d="M 237.635 32.5232 C 238.5 32.6819 238.957 32.7396 239.745 33.1795 C 253.787 41.0185 230.628 46.4818 247.361 54.6108 C 243.533 55.9416 241.269 55.9191 238.026 53.6001 C 234.456 46.897 233.896 39.2444 237.635 32.5232 z"/>
<path transform="translate(0,0)" fill="rgb(152,163,185)" d="M 317.856 223.583 C 321.369 223.644 330.013 223.79 333.355 224.301 L 332.68 226.2 C 326.658 228.682 326.164 227.418 321.317 228.453 C 328.278 229.374 332.509 236.07 328.361 241.167 L 327.055 241.143 C 326.563 236.765 326.833 233.686 324.177 230.802 L 321.546 230.96 C 320.563 234.949 319.898 237.801 318.355 241.665 C 317.383 238.592 317.814 227.44 317.856 223.583 z"/>
<path transform="translate(0,0)" fill="rgb(3,3,9)" d="M 321.317 228.453 L 320.728 229.085 L 320.057 228.588 L 320.111 226.013 C 322.462 224.289 329.691 224.601 333.355 224.301 L 332.68 226.2 C 326.658 228.682 326.164 227.418 321.317 228.453 z"/>
<path transform="translate(0,0)" fill="rgb(152,163,185)" d="M 64.3859 824.071 L 70.674 825.175 C 68.2254 825.711 66.7496 826.904 64.6893 828.28 L 67.9573 826.289 C 67.252 826.997 65.0582 829.049 64.723 829.771 C 69.159 831.532 72.7931 832.15 74.1486 836.896 C 73.1229 839.648 72.4572 839.984 70.1898 841.669 C 61.0609 842.823 59.7873 832.351 64.5103 826.001 L 64.944 825.428 L 64.3859 824.071 z"/>
<path transform="translate(0,0)" fill="rgb(152,163,185)" d="M 122.154 232.869 C 123.46 235.786 122.411 239.219 119.697 240.907 C 116.983 242.595 113.44 242.019 111.401 239.558 C 109.362 237.097 109.454 233.508 111.617 231.156 C 113.78 228.803 117.348 228.41 119.971 230.235 C 120.925 230.898 121.68 231.809 122.154 232.869 z"/>
<path transform="translate(0,0)" fill="rgb(152,163,185)" d="M 89.1224 429.669 C 91.2008 428.682 93.6501 428.891 95.5308 430.217 C 97.4116 431.543 98.4318 433.779 98.2001 436.068 C 97.9684 438.358 96.5208 440.345 94.4126 441.267 C 91.2229 442.662 87.5037 441.24 86.0588 438.072 C 84.6139 434.904 85.9779 431.164 89.1224 429.669 z"/>
<path transform="translate(0,0)" fill="rgb(152,163,185)" d="M 95.3222 829.715 C 97.3256 828.56 99.7978 828.584 101.779 829.776 C 103.76 830.969 104.938 833.142 104.856 835.453 C 104.773 837.764 103.444 839.848 101.383 840.896 C 98.3088 842.46 94.549 841.29 92.9057 838.258 C 91.2625 835.226 92.3343 831.437 95.3222 829.715 z"/>
<path transform="translate(0,0)" fill="rgb(235,236,242)" d="M 179.73 37.9824 C 183.176 37.8229 184.459 37.5932 187.666 38.9147 C 184.1 43.4987 178.798 42.4601 180.104 49.6114 C 182.705 52.6763 183.343 52.8163 187.212 54.0594 C 187.669 53.6023 188.22 53.382 188.824 53.0476 C 185.004 56.6759 180.253 55.9017 176.457 52.6117 C 172.93 46.5616 174.869 42.2409 179.73 37.9824 z"/>
<path transform="translate(0,0)" fill="rgb(235,236,242)" d="M 149.182 37.7317 L 159.827 38.5553 C 154.07 44.5145 154.843 43.3422 154.557 51.2356 C 154.739 54.4174 155.053 53.2713 153.666 55.8158 C 151.471 55.7932 152.328 56.0718 150.475 54.4383 C 148.335 49.1191 148.999 43.5087 149.182 37.7317 z"/>
<path transform="translate(0,0)" fill="rgb(132,145,169)" d="M 210.293 229.47 C 217.46 227.911 225.807 231.079 220.959 240 C 219.898 241.952 215.489 241.801 213.104 242.058 C 210.328 239.551 211.007 240.788 210.205 237.456 C 211.999 233.772 214.294 233.373 218.317 231.641 C 214.982 231.245 213.275 231.047 210.293 229.47 z"/>
<path transform="translate(0,0)" fill="rgb(152,163,185)" d="M 196.443 827.592 C 206.734 831.514 202.682 847.863 189.47 839.387 C 190.652 834.224 193.271 834.67 197.796 830.671 C 195.162 831.057 194.673 830.915 192.049 830.381 L 192.435 828.944 L 196.443 827.592 z"/>
<path transform="translate(0,0)" fill="rgb(132,145,169)" d="M 161.188 628.2 L 163.143 628.871 C 167.278 632.719 167.629 636.93 164.257 641.315 C 160.123 642.647 161.621 642.391 157.243 641.56 C 154.775 639.297 155.464 640.479 154.805 636.974 C 156.606 633.223 158.429 633.466 162.994 631.509 C 159.227 631.079 158.031 631.087 154.768 629.219 L 161.188 628.2 z"/>
<path transform="translate(0,0)" fill="rgb(132,145,169)" d="M 235.983 829.425 C 239.332 828.196 241.613 828.271 245.158 829.092 C 245.873 833.092 246.07 834.978 246.196 839.046 L 244.383 840.884 C 240.908 841.94 240.449 842.046 236.927 841.233 C 234.629 839.027 235.153 840.162 234.964 836.986 C 236.44 834.187 239.652 832.726 242.452 831.085 C 239.885 830.955 237.889 831.165 235.983 829.425 z"/>
<path transform="translate(0,0)" fill="rgb(132,145,169)" d="M 164 229.534 C 170.989 227.264 175.979 234.09 172.068 239.988 C 170.756 241.966 166.636 241.775 164.129 242.047 C 163.13 241.386 162.266 240.175 161.45 239.213 C 160.8 232.774 167.613 234.593 169.758 231.404 C 166.165 230.945 166.311 231.537 164 229.534 z"/>
<path transform="translate(0,0)" fill="rgb(132,145,169)" d="M 236.968 429.473 C 238.814 429.183 241.161 429.028 243.063 428.845 C 246.387 429.968 246.69 430.408 248.872 433.153 C 250.693 441.306 245.106 441.365 239.361 442.11 C 237.015 439.113 237.525 440.482 237.137 436.943 C 238.289 434.444 242.046 432.856 244.597 431.474 C 241.439 431.105 240.525 431.025 237.594 429.75 L 236.968 429.473 z"/>
<path transform="translate(0,0)" fill="rgb(152,163,185)" d="M 86.705 229.052 C 93.1939 231.034 100.976 226.223 105.858 232.535 C 106.203 235.838 106.736 238.289 105.588 241.399 L 104.165 240.899 C 104.122 238.269 103.94 236.124 103.704 233.517 C 101.475 230.584 102.542 231.426 98.1854 230.75 C 97.7657 234.335 97.2723 237.91 96.7054 241.474 C 95.6695 238.102 94.5611 231.545 90.8131 231.068 C 89.6879 234.891 88.6855 238.057 87.3038 241.792 C 86.511 238.184 86.7115 232.872 86.705 229.052 z"/>
<path transform="translate(0,0)" fill="rgb(152,163,185)" d="M 258.035 229.021 L 263.672 228.66 C 268.875 234.964 266.665 243.721 256.678 241.52 C 254.577 238.853 255.131 240.139 254.896 236.372 C 257.27 233.339 258.319 233.795 262.554 232.441 L 262.858 231.135 L 258.744 230.722 L 258.035 229.021 z"/>
<path transform="translate(0,0)" fill="rgb(132,145,169)" d="M 193.687 429.859 L 202.204 427.935 C 203.202 431.683 205.063 436.35 203.543 439.693 C 200.722 442.297 201.848 441.543 197.993 442.434 C 194.73 441.74 192.462 440.987 192.317 437.279 C 193.863 434.436 197.521 432.973 200.48 431.414 C 197.373 431.196 196.51 431.262 193.687 429.859 z"/>
<path transform="translate(0,0)" fill="rgb(152,163,185)" d="M 199.187 629.447 C 201.589 628.901 203.154 628.931 205.58 628.845 C 211.148 631.109 211.979 634.319 210.209 639.586 C 207.288 642.248 207.214 641.389 202.234 641.69 L 200.451 640.597 L 199.798 637.325 C 201.445 633.993 203.693 633.3 207.1 631.036 C 203.623 630.998 202.312 631.035 199.187 629.447 z"/>
<path transform="translate(0,0)" fill="rgb(152,163,185)" d="M 220.594 823.303 L 222.037 823.815 L 222.227 828.273 L 223.556 829.289 C 225.733 828.731 226.931 828.288 229.207 828.38 C 231.667 832.864 232.512 834.707 230.332 839.45 C 228.172 840.965 228.042 841.66 225.926 841.403 L 228.961 831.502 L 226.134 829.747 C 219.022 833.521 225.053 835.923 222.414 841.51 L 220.88 841.514 C 219.041 837.576 220.016 827.728 220.594 823.303 z"/>
<path transform="translate(0,0)" fill="rgb(132,145,169)" d="M 295.84 823.376 L 297.188 823.934 C 297.406 825.676 297.875 827.052 298.37 828.731 C 300.859 829.177 303.172 829.572 305.629 830.215 C 307.248 832.973 307.414 838.996 305.77 841.704 C 303.787 840.515 305.012 835.451 302.702 830.952 L 300.869 830.364 C 296.55 832.882 299.632 836.082 296.42 841.532 C 294.27 838.804 295.477 827.437 295.84 823.376 z"/>
<path transform="translate(0,0)" fill="rgb(152,163,185)" d="M 62.0922 624.102 C 65.5229 624.573 68.8594 625.104 72.3267 625.172 C 68.8036 625.609 67.0389 625.536 64.3858 627.874 C 65.6205 631.92 73.3426 631.894 74.3984 637.811 C 72.2042 641.698 66.5045 642.096 62.6029 641.147 C 63.4593 638.726 67.8253 640.715 70.6518 637.508 C 65.2725 629.545 62.4089 636.077 62.0922 624.102 z"/>
<path transform="translate(0,0)" fill="rgb(132,145,169)" d="M 175.666 828.519 C 177.355 829.157 181.866 829 184.012 829.033 C 187.369 831.899 188.085 837.91 185.497 841.298 C 183.928 839.109 184.146 835.08 184.048 832.244 C 183.089 831.514 182.125 831.394 180.907 831.039 C 178.06 832.768 177.297 837.195 175.916 840.976 C 175.204 836.041 175.423 833.41 175.666 828.519 z"/>
<path transform="translate(0,0)" fill="rgb(132,145,169)" d="M 195.34 229.21 C 197.467 229.752 201.196 229.375 203.511 229.202 C 207.93 232.178 207.836 236.805 205.498 241.242 C 204.09 239.575 204.262 235.657 204.058 233.055 C 202.737 231.241 203.294 231.824 200.821 230.989 C 198.16 232.828 197.58 236.858 196.351 240.497 C 194.953 238.043 195.356 232.347 195.34 229.21 z"/>
<path transform="translate(0,0)" fill="rgb(152,163,185)" d="M 64.608 425.106 L 70.4543 424.869 C 72.2232 426.908 72.2549 427.293 72.601 429.991 C 71.823 433.447 68.8141 435.752 66.2075 438.238 C 66.9571 441.133 69.8019 438.146 72.9461 440.881 L 72.13 441.762 C 67.6633 442.152 66.7007 442.172 62.3196 441.368 C 62.106 437.517 69.9907 434.246 69.7447 428.649 C 67.9319 425.816 68.2593 426.598 64.608 425.106 z"/>
<path transform="translate(0,0)" fill="rgb(132,145,169)" d="M 86.0802 629.133 C 89.4509 628.834 91.3763 628.512 94.7184 629.172 C 94.3784 632.365 91.0128 629.325 88.1559 632.325 C 89.6248 634.311 90.833 634.437 93.1704 635.038 L 94.001 635.246 C 96.0961 637.857 95.453 637.183 95.4213 641.283 C 91.4767 641.943 90.5892 641.997 86.601 641.732 L 85.7701 640.511 C 88.0861 639.852 90.3809 639.301 92.7173 638.729 L 92.9314 637.604 L 87.4927 635.007 C 85.5584 632.269 86.1365 632.994 86.0802 629.133 z"/>
<path transform="translate(0,0)" fill="rgb(152,163,185)" d="M 177.284 433.94 C 177.513 431.932 177.558 431.81 178.392 429.957 C 181.291 429.328 184.201 428.755 187.121 428.237 C 189.266 434.039 189.277 435.15 188.29 441.209 C 187.317 437.967 186.33 433.34 184.1 431.003 L 182.514 430.726 C 178.179 434.889 180.52 440.368 178.374 441.807 L 177.284 433.94 z"/>
<path transform="translate(0,0)" fill="rgb(152,163,185)" d="M 140.057 228.667 C 144.491 233.789 138.702 236.29 145.015 240.134 L 147.28 239.396 C 150.408 234.043 147.429 234.58 149.529 229.533 L 151.062 230.297 L 151.164 237.737 C 149.149 241.454 150.279 240.271 146.413 242.342 C 138.416 240.943 139.629 235.048 140.057 228.667 z"/>
<path transform="translate(0,0)" fill="rgb(132,145,169)" d="M 277.942 624.454 L 279.813 624.192 L 280.14 626.991 C 281.907 628.134 282.626 628.21 283.546 629.91 C 280.047 632.858 278.701 633.558 280.284 638.711 L 283.913 640.603 L 283.431 641.937 C 279.736 641.626 280.69 642.246 278.33 640.025 C 276.888 635.79 276.248 628.674 277.942 624.454 z"/>
<path transform="translate(0,0)" fill="rgb(132,145,169)" d="M 202.989 828.421 L 204.865 829.13 C 206.878 831.479 208.538 836.939 209.674 840.048 C 210.427 836.966 211.934 830.617 214.377 828.961 L 214.948 830.633 C 213.668 834.723 213.066 841.022 208.211 840.506 C 205.445 837.804 204.209 832.291 202.989 828.421 z"/>
<path transform="translate(0,0)" fill="rgb(152,163,185)" d="M 311.211 824.044 L 312.74 824.249 C 313.295 827.6 313.449 827.123 316.638 829.672 C 313.063 832.919 312.149 833.772 313.401 838.628 L 316.468 839.908 L 317.041 841.524 C 314.06 841.878 315.193 841.889 311.942 840.513 C 309.696 836.657 310.301 828.28 311.211 824.044 z"/>
<path transform="translate(0,0)" fill="rgb(132,145,169)" d="M 116.763 828.058 L 118.226 829.222 C 114.956 832.095 110.578 831.261 110.892 836.864 C 113.242 839.733 115.951 839.859 119.63 840.622 C 115.275 843.446 111.819 841.769 108.744 838.345 C 107.06 830.511 110.058 829.73 116.763 828.058 z"/>
<path transform="translate(0,0)" fill="rgb(152,163,185)" d="M 333.355 224.301 L 334.429 224.918 C 337.192 231.476 339.544 227.665 338.645 230.676 L 335.25 231.61 C 333.739 236.433 336.127 238.354 339.432 241.3 C 337.142 242.301 338.019 242.057 335.239 241.581 C 332.58 238.778 331.737 229.639 332.68 226.2 L 333.355 224.301 z"/>
<path transform="translate(0,0)" fill="rgb(152,163,185)" d="M 35.8733 424.759 C 40.3605 423.974 42.2896 423.387 46.6657 424.416 C 43.5467 424.484 42.6017 424.4 39.6126 425.423 C 38.6387 430.546 44.3714 436.124 43.2368 441.622 L 41.7039 441.692 C 39.0997 438.46 38.7715 429.937 35.8733 424.759 z"/>
<path transform="translate(0,0)" fill="rgb(152,163,185)" d="M 56.1334 623.993 C 57.334 623.993 61.1434 623.91 62.0922 624.102 C 54.4996 626.653 58.0748 634.453 53.9966 641.515 L 52.3224 641.715 C 50.1234 638.479 53.2972 636.907 54.2146 633.058 C 54.9459 629.989 55.5693 627.095 56.1334 623.993 z"/>
<path transform="translate(0,0)" fill="rgb(152,163,185)" d="M 36.1623 824.569 L 38.9301 823.713 C 39.7265 827.724 43.8356 838.173 42.2533 841.584 C 39.1782 836.17 38.1974 830.668 36.1623 824.569 z"/>
<path transform="translate(0,0)" fill="rgb(152,163,185)" d="M 56.2131 823.756 L 58.6391 824.086 C 57.0837 830.86 56.3762 835.499 52.9081 841.666 L 52.0119 841.245 C 51.7867 839.469 55.4459 827.601 56.2131 823.756 z"/>
<path transform="translate(0,0)" fill="rgb(152,163,185)" d="M 35.981 624.513 L 38.9555 623.926 C 40.1457 629.248 40.7677 633.753 43.5952 638.33 C 44.3988 639.631 43.6224 640.529 43.007 641.66 L 41.7011 641.498 C 39.6246 639.077 38.3116 629.835 35.981 624.513 z"/>
<path transform="translate(0,0)" fill="rgb(3,3,9)" d="M 134.56 828.819 C 134.624 833.075 135.477 835.722 133.291 838.598 L 129.201 838.368 L 128.018 834.932 C 129.616 831.29 130.839 831.35 134.56 828.819 z"/>
<path transform="translate(0,0)" fill="rgb(152,163,185)" d="M 36.1503 224.184 L 38.7676 224.543 C 39.969 228.27 43.3055 237.093 42.1828 240.367 C 38.9039 236.099 37.6556 229.551 36.1503 224.184 z"/>
<path transform="translate(0,0)" fill="rgb(152,163,185)" d="M 56.6611 223.877 L 58.5062 224.432 C 57.6202 228.953 56.4107 237.431 53.1765 240.534 C 51.9301 237.279 55.5007 227.665 56.6611 223.877 z"/>
<path transform="translate(0,0)" fill="rgb(152,163,185)" d="M 271.647 423.458 L 274.254 424.012 L 274.068 425.349 C 273.758 426.043 272.698 438.23 272.058 441.067 L 271.5 440.922 C 271.063 433.806 270.86 430.496 271.647 423.458 z"/>
<path transform="translate(0,0)" fill="rgb(152,163,185)" d="M 87.1481 823.364 L 88.8204 823.498 C 89.0492 828.391 89.6179 836.276 87.9396 840.593 L 87.1118 839.163 L 88.4468 839.2 L 86.9636 838.305 C 86.4222 834.093 86.9406 827.761 87.1481 823.364 z"/>
<path transform="translate(0,0)" fill="rgb(152,163,185)" d="M 267.088 823.401 L 269.077 823.482 C 269.073 829.205 269.41 835.002 267.827 840.471 C 266.405 838.165 266.739 831.291 266.784 828.374 L 267.088 823.401 z"/>
<path transform="translate(0,0)" fill="rgb(152,163,185)" d="M 288.975 223.754 L 291.342 223.351 C 291.231 229.501 291.425 235.193 289.718 241.115 C 288.85 235.346 288.999 229.589 288.975 223.754 z"/>
<path transform="translate(0,0)" fill="rgb(152,163,185)" d="M 264.915 629.185 C 268.76 628.639 269.573 628.736 272.28 630.638 C 274.024 633.946 273.126 638.431 272.774 642.278 C 267.371 635.831 276.213 635.115 264.915 629.185 z"/>
<path transform="translate(0,0)" fill="rgb(3,3,9)" d="M 274.254 424.012 L 276.932 424.635 L 277.752 427.48 C 276.41 431.349 277.523 433.596 275.354 437.587 C 274.274 434.698 274.238 428.66 274.068 425.349 L 274.254 424.012 z"/>
<path transform="translate(0,0)" fill="rgb(132,145,169)" d="M 295.24 228.423 L 297.233 229.756 C 298.733 233.559 297.927 237.949 297.553 242.089 L 295.784 241.117 C 294.671 237.781 295.145 232.124 295.24 228.423 z"/>
<path transform="translate(0,0)" fill="rgb(132,145,169)" d="M 274.139 827.608 C 276.767 831.915 275.744 837.664 274.891 842.357 L 273.743 841.265 C 272.217 837.019 272.875 831.853 274.139 827.608 z"/>
<path transform="translate(0,0)" fill="rgb(152,163,185)" d="M 251.609 829.054 C 252.356 828.952 253.808 828.7 254.492 828.719 C 253.963 832.043 253.592 837.998 251.575 840.156 C 250.475 836.118 251.1 833.169 251.609 829.054 z"/>
<path transform="translate(0,0)" fill="rgb(152,163,185)" d="M 178.104 228.44 C 182.198 230.722 180.09 236.841 179.806 241.526 L 178.202 241.321 C 177.193 237.767 177.862 232.287 178.104 228.44 z"/>
<path transform="translate(0,0)" fill="rgb(152,163,185)" d="M 143.206 629.177 C 142.717 632.708 142.307 638.345 140.585 641.231 C 139.918 636.754 138.778 632.349 141.767 628.757 L 143.206 629.177 z"/>
<path transform="translate(0,0)" fill="rgb(152,163,185)" d="M 271.011 229.555 L 274.845 228.98 C 273.594 233.201 273.912 236.378 271.891 240.415 C 270.617 237.847 270.996 232.635 271.011 229.555 z"/>
<path transform="translate(0,0)" fill="rgb(152,163,185)" d="M 277.752 427.48 C 280.588 431.091 280.444 433.701 279.896 438.24 C 279.73 439.581 279.542 440.919 279.33 442.254 C 276.835 438.355 277.611 432.514 277.752 427.48 z"/>
<path transform="translate(0,0)" fill="rgb(152,163,185)" d="M 240.039 628.525 L 241.381 629.598 C 242.757 632.702 242.167 637.988 242.041 641.569 L 240.573 640.423 C 239.35 637.293 239.908 632.059 240.039 628.525 z"/>
<path transform="translate(0,0)" fill="rgb(152,163,185)" d="M 126.304 429.793 L 129.053 428.961 C 129.107 432.849 129.437 436.758 128.152 440.408 C 126.479 438.048 126.542 432.95 126.304 429.793 z"/>
</svg>