<!-- RECRAFT VECTORIZE from logo/options-w/W1-modular-light.png -->
<svg version="1.1" xmlns="http://www.w3.org/2000/svg" style="display: block;" viewBox="0 0 2048 781" width="671" height="256" preserveAspectRatio="none">
<path transform="translate(0,0)" fill="rgb(255,255,255)" d="M 0 0 L 2048 0 L 2048 781 L 0 781 L 0 0 z"/>
<path transform="translate(0,0)" fill="rgb(12,17,32)" d="M 1591.56 253.954 C 1619.14 254.108 1646.71 254.103 1674.28 253.94 C 1696.08 330.999 1722.34 411.881 1742.34 488.921 C 1760.7 429.479 1776.87 369.079 1794.83 309.488 C 1800.34 291.205 1805.83 272.482 1810.72 254.034 L 1893.57 254.166 C 1885.04 283.617 1874.71 314.876 1865.42 344.246 C 1839.6 426.476 1813.69 514.067 1786.33 595.47 C 1758.66 594.89 1730.85 595.751 1703.23 595.057 C 1697.73 574.527 1691.28 554.246 1685.78 533.785 C 1669.47 473.06 1648.6 412.238 1633.41 351.305 C 1625.56 374.297 1618.8 399.345 1612.01 422.835 L 1580.22 532.768 C 1574.61 552.141 1568.14 577.072 1561.44 595.774 C 1538.86 594.122 1502.75 595.276 1479.16 595.401 C 1465.23 556.836 1451.54 511.604 1438.63 472.311 L 1367.05 254.015 L 1449.41 253.954 C 1458.27 279.274 1466.4 307.126 1474.43 332.854 L 1523.15 487.874 C 1525.68 478.051 1528.9 467.103 1532.02 457.393 C 1553.41 390.663 1569.52 320.262 1591.56 253.954 z"/>
<path transform="translate(0,0)" fill="rgb(12,17,32)" d="M 1138.82 254.384 C 1232.74 247.143 1314.78 317.349 1322.14 411.266 C 1329.51 505.182 1259.41 587.313 1165.5 594.796 C 1071.42 602.292 989.107 532.036 981.732 437.948 C 974.357 343.86 1044.72 261.637 1138.82 254.384 z"/>
<path transform="translate(0,0)" fill="rgb(255,255,255)" d="M 1143.15 332.34 C 1193.99 327.471 1239.2 364.637 1244.25 415.463 C 1249.31 466.288 1212.31 511.63 1161.5 516.87 C 1110.43 522.136 1064.8 484.902 1059.72 433.814 C 1054.64 382.726 1092.04 337.235 1143.15 332.34 z"/>
<path transform="translate(0,0)" fill="rgb(12,17,32)" d="M 510.751 254.224 C 523.067 253.725 566.118 251.468 574.023 258.387 C 577.535 265.307 576.13 281.63 575.942 289.958 C 591.888 275.888 609.122 265.641 629.63 259.58 C 664.638 249.332 702.275 253.316 734.362 270.666 C 766.021 287.995 789.508 317.18 799.665 351.813 C 809.861 386.901 805.718 424.6 788.144 456.636 C 770.648 488.297 741.261 511.686 706.481 521.631 C 668.69 532.461 632.997 526.86 599.041 507.956 C 590.433 502.664 583.162 497.556 575.827 490.61 C 576.901 539.46 576.052 591.67 576.053 640.8 L 576.066 701.399 C 576.077 712.274 580.235 744.045 565.002 742.064 C 551.825 740.351 512.485 746.333 504.226 737.113 C 502.268 725.944 502.943 698.639 502.936 685.857 L 502.925 592.948 C 502.939 486.217 502.933 379.424 502.938 272.691 C 502.939 268.648 502.853 262.13 504.207 258.42 C 505.108 255.954 508.278 255.243 510.751 254.224 z"/>
<path transform="translate(0,0)" fill="rgb(255,255,255)" d="M 660.875 327.511 C 695.748 323.166 727.509 347.993 731.713 382.883 C 735.917 417.772 710.961 449.433 676.055 453.495 C 641.348 457.535 609.907 432.753 605.727 398.062 C 601.548 363.372 626.202 331.831 660.875 327.511 z"/>
<path transform="translate(0,0)" fill="rgb(12,17,32)" d="M 152.164 107.191 L 152.878 107.136 C 167.47 106.05 187.242 106.961 202.012 107.259 C 221.169 107.598 240.328 107.722 259.487 107.632 L 348.482 107.597 C 366.68 107.59 385.863 106.868 403.719 108.665 C 422.908 111.61 419.54 132.943 419.84 144.857 C 420.576 174.153 421.249 186.393 387.423 185.666 C 375.296 185.405 356.736 185.46 343.681 185.624 C 300.896 186.159 257.55 184.633 214.781 185.837 C 213.828 227.314 215.223 270.225 214.434 312.125 C 259.032 313.131 314.347 310.232 357.419 313.17 C 360.442 314.984 361.411 316 363.924 317.919 C 369.116 322.359 370.857 329.576 371.105 335.792 C 373.611 398.604 366.622 390.538 305.782 390.446 C 275.455 390.265 245.128 390.306 214.803 390.569 C 214.243 412.78 214.735 437.118 214.726 459.5 L 214.599 517.113 C 255.276 517.422 295.955 517.488 336.633 517.31 C 359.108 517.308 385.234 515.948 407.182 519.148 C 425.122 526.873 418.432 548.632 420.096 563.069 C 424.88 604.567 386.855 595.254 357.258 595.212 L 267.596 595.159 C 250.275 595.161 232.897 594.889 215.582 595.302 C 198.744 595.702 181.855 596.771 165.006 596.388 C 159.803 596.269 153.679 596.326 148.841 594.206 C 143.591 591.906 139.203 587.203 137.269 581.818 C 133.141 570.326 136.771 503.227 136.782 485.274 L 136.834 215.331 C 136.831 189.813 135.842 164.611 135.449 139.115 C 135.209 123.491 135.477 112.672 152.164 107.191 z"/>
<path transform="translate(0,0)" fill="rgb(12,17,32)" d="M 862.056 254.196 C 871.467 254.055 917.634 250.662 919.867 260.854 C 924.292 281.062 922.598 307.501 922.601 328.689 L 922.639 424.468 C 922.656 475.022 922.843 525.711 922.423 576.27 C 922.342 585.995 920.945 591.084 911.42 594.867 C 898.931 595.768 859.506 598.754 851.951 588.622 C 848.44 575.431 849.603 546.708 849.6 531.687 L 849.585 457.685 L 849.587 335.05 C 849.593 313.517 849.452 291.962 849.787 270.435 C 849.948 260.138 852.551 256.962 862.056 254.196 z"/>
<path transform="translate(0,0)" fill="rgb(12,17,32)" d="M 853.685 108.374 C 855.132 108.223 856.581 108.091 858.032 107.979 C 867.044 107.281 910.418 105.814 919.364 110.466 C 921.644 111.954 922.989 120.584 922.669 122.753 C 920.683 136.197 926.934 169.91 918.032 179.656 C 910.958 180.414 855.99 182.525 852.801 177.647 C 846.955 168.706 850.296 135.258 849.648 123.373 C 849.398 118.775 849.891 111.903 853.685 108.374 z"/>
</svg>