<!-- RECRAFT VECTORIZE from logo/options-w/W1-modular-dark.png -->
<svg version="1.1" xmlns="http://www.w3.org/2000/svg" style="display: block;" viewBox="0 0 2048 781" width="671" height="256" preserveAspectRatio="none">
<path transform="translate(0,0)" fill="rgb(12,17,32)" d="M 0 0 L 2048 0 L 2048 781 L 0 781 L 0 0 z"/>
<path transform="translate(0,0)" fill="rgb(247,247,247)" d="M 1591.02 253.974 L 1674.26 253.918 L 1717.39 401.284 C 1724.72 426.331 1737.16 464.714 1742.11 489.291 C 1764.71 411.017 1788.83 332.494 1810.62 254.044 L 1893.6 254.116 C 1884.86 284.523 1874.16 317.078 1864.55 347.239 C 1839.92 429.438 1812.25 513.62 1786.6 595.71 C 1759.28 595.021 1730.76 595.407 1703.35 595.408 C 1688.44 541.67 1671.99 488.169 1656.84 434.54 C 1649.8 409.637 1638.47 375.424 1633.61 350.694 C 1624.05 379.599 1615.6 410.799 1607.09 440.187 L 1561.87 595.865 C 1535.93 594.612 1504.99 595.42 1478.93 595.592 L 1366.97 254.07 C 1393.55 253.376 1422.8 253.962 1449.61 253.933 C 1470.25 315.142 1487.66 378.02 1507.92 439.423 C 1513.1 455.133 1518.78 472.33 1522.8 488.305 C 1523.42 485.795 1524.14 483.372 1524.86 480.891 C 1546.78 405.256 1569.82 329.805 1591.02 253.974 z"/>
<path transform="translate(0,0)" fill="rgb(247,247,247)" d="M 1138.38 254.351 C 1232.22 246.886 1314.41 316.749 1322.16 410.565 C 1329.91 504.382 1260.29 586.782 1166.5 594.811 C 1072.31 602.875 989.478 532.897 981.697 438.682 C 973.917 344.466 1044.14 261.849 1138.38 254.351 z"/>
<path transform="translate(0,0)" fill="rgb(12,17,32)" d="M 1143.16 332.4 C 1193.96 327.538 1239.12 364.669 1244.17 415.446 C 1249.22 466.223 1212.26 511.524 1161.5 516.766 C 1110.48 522.035 1064.88 484.834 1059.81 433.788 C 1054.73 382.742 1092.1 337.288 1143.16 332.4 z"/>
<path transform="translate(0,0)" fill="rgb(247,247,247)" d="M 510.46 254.318 C 520.344 253.778 565.054 251.98 572.838 256.997 C 577.864 260.237 576.154 282.212 575.886 289.358 C 593.766 275.434 606.875 266.282 629.4 259.62 C 664.488 249.169 702.296 253.147 734.439 270.674 C 766.186 288.127 789.732 317.44 799.927 352.204 C 809.971 387.07 805.821 424.494 788.382 456.313 C 770.936 488.165 741.46 511.705 706.538 521.675 C 669.155 532.443 633.366 527.059 599.693 508.456 C 591.211 503.514 583.507 497.653 576.076 491.271 C 577.184 538.604 576.156 590.463 576.147 638.103 L 576.127 698.547 C 576.123 708.243 580.124 742.563 567.026 741.712 C 553.767 740.851 514.073 745.798 504.318 737.876 C 502.026 723.063 502.883 689.222 502.883 672.532 L 502.909 554.185 L 502.862 342.46 C 502.862 331.149 502.083 264.996 504.158 258.016 C 505.724 255.51 507.615 255.238 510.46 254.318 z"/>
<path transform="translate(0,0)" fill="rgb(12,17,32)" d="M 661.659 327.485 C 696.503 323.571 727.902 348.694 731.729 383.547 C 735.556 418.4 710.355 449.737 675.492 453.476 C 640.753 457.202 609.551 432.11 605.737 397.38 C 601.924 362.65 626.939 331.385 661.659 327.485 z"/>
<path transform="translate(0,0)" fill="rgb(247,247,247)" d="M 171.424 106.48 L 309.224 107.391 L 365.295 107.372 C 376.305 107.371 387.047 107.639 398.065 107.802 C 411.197 106.624 421.325 119.052 420.143 131.955 C 418.615 148.649 427.148 183.026 402.152 184.877 C 381.928 186.375 361.481 185.784 341.313 185.769 C 299.139 185.566 256.964 185.608 214.791 185.895 L 214.784 312.141 C 245.92 312.935 277.744 312.01 308.957 312.327 C 325.196 312.492 341.717 311.814 357.889 313.233 C 359.951 314.539 361.903 316.012 363.724 317.637 C 368.704 322.123 370.717 327.889 371.027 334.754 C 373.91 398.728 366.829 390.724 305.038 390.639 C 274.933 390.472 244.827 390.515 214.723 390.768 C 215.091 420.498 214.827 450.731 214.843 480.5 L 214.837 517.061 C 266.825 517.753 318.99 516.736 370.995 517.14 C 383.199 517.235 395.079 516.926 407.237 518.321 C 409.245 519.669 410.315 520.906 412.038 522.21 C 417.584 526.406 420.413 537.876 420.223 545.027 C 419.861 558.625 423.24 580.26 413.113 590.873 C 410.472 593.641 401.625 595.129 397.905 595.217 C 372.522 595.821 346.38 595.456 321.026 595.402 L 183.264 596.446 C 165.839 596.739 135.72 599.626 135.728 575.242 C 135.741 532.286 136.651 488.486 136.663 445.5 L 135.33 145.873 C 134.938 112.383 137.38 106.808 171.424 106.48 z"/>
<path transform="translate(0,0)" fill="rgb(247,247,247)" d="M 860.58 254.329 C 873.644 253.469 910.741 250.929 919.549 259.762 C 924.474 272.689 922.782 326.069 922.789 342.998 L 922.803 466.458 L 922.783 540.678 C 922.777 553.509 923.354 574.139 921.648 586.143 C 918.539 591.143 916.971 592.871 911.545 595.064 C 898.003 595.858 881.585 595.713 867.918 595.491 C 861.84 595.392 855.644 593.08 851.568 588.26 C 850.158 583.16 849.795 577.839 849.617 572.571 C 848.589 542.303 848.115 268.953 851.076 261.845 C 852.833 257.627 856.67 256.022 860.58 254.329 z"/>
<path transform="translate(0,0)" fill="rgb(247,247,247)" d="M 869.786 107.501 C 879.799 107.394 913.229 105.828 918.948 109.942 C 924.348 113.827 924.524 169.839 919.957 177.323 C 917.602 181.181 908.01 180.644 904.25 180.717 C 893.742 180.777 859.086 182.513 852.214 177.484 C 847.546 170.928 848.591 120.313 851.903 110.349 C 852.942 107.22 866.64 107.54 869.786 107.501 z"/>
</svg>