<!-- RECRAFT VECTORIZE from logo/options-w/W2-optical-light.png -->
<svg version="1.1" xmlns="http://www.w3.org/2000/svg" style="display: block;" viewBox="0 0 2048 765" width="685" height="256" preserveAspectRatio="none">
<path transform="translate(0,0)" fill="rgb(255,255,255)" d="M 0 0 L 2048 0 L 2048 765 L 0 765 L 0 0 z"/>
<path transform="translate(0,0)" fill="rgb(12,17,32)" d="M 1596.6 248.876 L 1677.89 248.862 L 1721.64 399.084 C 1729.03 424.39 1738.06 452.968 1743.98 478.393 C 1753.24 453.658 1762.74 416.811 1770.5 390.238 C 1784.41 343.222 1798.01 296.117 1811.32 248.927 C 1837.85 248.49 1865.75 248.978 1892.39 249.02 C 1884.19 278.323 1873.49 310.126 1864.25 339.349 L 1787.85 583.25 C 1760.75 582.741 1733.46 583.4 1706.28 582.921 C 1691.55 529.182 1674.84 475.45 1659.74 421.774 C 1652.59 396.369 1644.31 370.633 1638.05 345.048 C 1632.11 358.089 1622.31 395.033 1617.81 410.547 L 1585.69 521.676 C 1580.18 540.741 1573.89 564.942 1567.41 583.41 C 1542.34 582.315 1512.26 583.11 1486.83 583.222 C 1481.43 568.944 1475.78 550.077 1470.89 535.201 L 1441.06 444.383 C 1420.15 380.778 1396.33 312.514 1377.12 248.816 L 1457.99 248.851 L 1529.77 478.512 C 1535.29 455.117 1545.96 422.464 1552.87 398.738 L 1596.6 248.876 z"/>
<path transform="translate(0,0)" fill="rgb(12,17,32)" d="M 1141.18 249.437 C 1233.08 240.862 1314.54 308.366 1323.19 400.252 C 1331.83 492.139 1264.39 573.654 1172.51 582.373 C 1080.53 591.102 998.907 523.571 990.25 431.583 C 981.594 339.594 1049.19 258.021 1141.18 249.437 z"/>
<path transform="translate(0,0)" fill="rgb(255,255,255)" d="M 1151.17 325.315 C 1201.15 322.211 1244.21 360.164 1247.41 410.142 C 1250.61 460.12 1212.73 503.249 1162.76 506.539 C 1112.66 509.836 1069.39 471.842 1066.19 421.733 C 1062.98 371.624 1101.06 328.427 1151.17 325.315 z"/>
<path transform="translate(0,0)" fill="rgb(12,17,32)" d="M 507.281 249.362 C 517.593 248.344 562.533 247.411 570.711 251.776 C 574.499 257.16 573.785 276.368 573.99 284.056 C 589.653 270.101 604.563 260.848 624.88 254.635 C 659.083 244.229 696.016 247.794 727.598 264.549 C 758.785 281.308 782.069 309.733 792.359 343.61 C 802.625 377.762 798.924 414.592 782.066 446.017 C 765.248 477.106 736.81 500.276 702.964 510.464 C 666.328 521.405 631.322 516.583 598 498.585 C 588.254 493.027 582.103 488.047 573.901 480.793 C 572.64 500.628 573.323 526.906 573.321 547.044 L 573.348 662.217 C 573.357 680.135 573.309 697.941 573.315 716.678 C 573.32 733.771 536.59 724.596 525.594 727.078 C 520.28 728.277 508.094 726.021 503.603 722.331 C 500.296 715.343 501.729 438.733 501.733 409.311 L 501.758 306.92 C 501.764 290.968 501.575 274.366 501.988 258.391 C 502.099 254.112 504.1 251.923 507.281 249.362 z"/>
<path transform="translate(0,0)" fill="rgb(255,255,255)" d="M 659.773 320.514 C 694.146 317.941 724.043 343.84 726.397 378.229 C 728.751 412.617 702.661 442.349 668.258 444.484 C 634.164 446.599 604.757 420.794 602.425 386.714 C 600.092 352.635 625.709 323.064 659.773 320.514 z"/>
<path transform="translate(0,0)" fill="rgb(12,17,32)" d="M 158.173 104.47 C 198.626 103.727 244.345 105.339 285.643 105.332 L 359.308 105.306 C 423.369 105.264 421.892 96.7641 420.693 161.341 C 420.459 173.935 417.596 181.204 403.759 181.453 C 339.618 182.607 274.21 181.235 210.211 181.955 C 209.544 222.651 210.155 264.942 210.041 305.839 C 251.562 306.678 293.346 305.307 334.828 306.217 C 358.395 306.734 353.463 324.517 353.409 341.588 C 353.377 351.738 355.981 370.177 349.43 378.288 C 339.084 384.433 306.334 382.459 293.562 382.443 C 265.782 382.296 238.001 382.327 210.22 382.539 C 209.645 409.843 210.166 439.04 210.156 466.5 L 210.097 506.636 C 274.674 507.776 339.459 505.756 404.079 507.297 C 424.711 506.397 420.76 530.894 420.417 544.517 C 419.833 554.011 424.719 580.588 410.132 581.996 C 390.138 583.924 367.57 583.134 347.467 583.125 L 240.625 582.929 C 211.343 582.817 182.207 584.771 152.956 584.086 C 140.892 583.803 133.152 577.982 132.847 565.306 C 132.178 537.544 133.904 509.948 133.938 482.185 L 133.924 292.052 C 134.323 235.401 133.271 178.509 132.969 121.862 C 132.879 104.99 145.141 104.795 158.173 104.47 z"/>
<path transform="translate(0,0)" fill="rgb(12,17,32)" d="M 861.687 249.199 C 875.175 248.417 893.413 248.301 906.974 249.076 C 914.625 249.514 917.656 252.544 921.852 258.158 C 922.807 269.886 922.287 288.58 922.284 300.628 L 922.25 375.789 C 922.216 437.823 922.249 499.96 922.359 562 C 922.364 565.212 922.003 572.639 920.788 575.58 C 919.229 579.35 914.716 581.304 911.222 582.754 C 906.795 583.068 900.901 583.259 896.477 583.141 C 884.532 582.717 871.074 585.092 859.602 581.183 C 850.686 578.146 850.848 568.021 850.845 560.369 C 850.808 463.857 850.706 367.326 850.807 270.816 C 850.818 259.743 850.854 253.538 861.687 249.199 z"/>
<path transform="translate(0,0)" fill="rgb(12,17,32)" d="M 878.003 106.48 C 890.448 103.363 903.609 107.178 912.457 116.468 C 921.306 125.758 924.477 139.088 920.758 151.367 C 917.039 163.646 907.006 172.978 894.489 175.798 C 875.455 180.086 856.512 168.266 851.998 149.284 C 847.483 130.303 859.076 111.22 878.003 106.48 z"/>
</svg>