<!-- RECRAFT VECTORIZE from logo/options-w/W2-optical-dark.png -->
<svg version="1.1" xmlns="http://www.w3.org/2000/svg" style="display: block;" viewBox="0 0 2048 765" width="685" height="256" preserveAspectRatio="none">
<path transform="translate(0,0)" fill="rgb(12,17,32)" d="M 0 0 L 2048 0 L 2048 765 L 0 765 L 0 0 z"/>
<path transform="translate(0,0)" fill="rgb(247,247,247)" d="M 1596.58 248.796 L 1677.95 248.757 C 1691.78 300.667 1709.45 353.734 1723.64 405.699 C 1729.47 427.024 1740.47 457.775 1743.69 478.684 C 1756.02 444.754 1768.68 395.852 1779.11 360.082 C 1788.54 327.717 1804 280.34 1810.93 248.91 C 1838.09 248.765 1865.26 248.793 1892.43 248.994 C 1884.33 277.879 1874.13 308.384 1865.17 337.235 L 1787.91 583.379 C 1761.16 582.802 1733.12 583.193 1706.27 583.168 L 1661.26 427.233 C 1654.51 403.993 1642.23 366.622 1638.31 344.131 C 1629.16 368.226 1622.5 396.097 1614.94 420.968 C 1598.66 474.558 1584.4 530.235 1567.63 583.532 C 1542.13 582.522 1512.48 583.099 1486.78 583.413 C 1461.58 510.299 1438.85 435.952 1414.11 362.644 C 1401.39 324.973 1388.94 286.78 1376.96 248.863 L 1457.95 248.778 L 1502.03 389.592 C 1510.81 417.643 1522.15 450.635 1529.71 478.516 C 1536.34 450.238 1546.76 419.455 1554.91 391.308 C 1568.64 343.833 1582.22 296.068 1596.58 248.796 z"/>
<path transform="translate(0,0)" fill="rgb(247,247,247)" d="M 1140.79 249.41 C 1232.78 240.607 1314.49 308.071 1323.25 400.072 C 1332.02 492.073 1264.52 573.749 1172.51 582.472 C 1080.56 591.19 998.948 523.741 990.19 431.797 C 981.432 339.853 1048.85 258.208 1140.79 249.41 z"/>
<path transform="translate(0,0)" fill="rgb(12,17,32)" d="M 1151.98 325.329 C 1202.22 322.668 1245.02 361.398 1247.39 411.648 C 1249.75 461.899 1210.77 504.476 1160.5 506.544 C 1110.66 508.594 1068.51 470.007 1066.17 420.173 C 1063.82 370.34 1102.16 327.967 1151.98 325.329 z"/>
<path transform="translate(0,0)" fill="rgb(247,247,247)" d="M 508.212 249.256 C 519.304 248.628 563.254 246.771 570.96 251.994 C 574.794 258.315 573.927 275.672 574.071 283.974 C 588.354 270.471 605.576 260.468 624.381 254.752 C 658.451 244.214 695.306 247.576 726.907 264.106 C 758.5 280.901 782.114 309.574 792.54 343.802 C 802.694 377.896 798.966 414.622 782.167 445.981 C 765.178 477.319 736.442 500.629 702.273 510.79 C 665.205 521.731 630.106 516.243 596.664 497.965 C 587.905 492.759 581.539 487.846 574.129 480.941 C 572.947 501.255 573.565 525.539 573.571 546.138 L 573.611 656.845 C 573.613 664.806 575.661 721.808 570.159 724.478 C 562.963 727.972 509.156 729.806 503.293 722.182 C 502.292 716.664 501.805 710.672 501.79 705.065 C 501.688 667.582 501.716 630.028 501.711 592.547 L 501.727 370.566 L 501.751 289.603 C 501.759 279.295 501.407 265.523 502.409 255.127 C 502.698 252.129 505.977 250.564 508.212 249.256 z"/>
<path transform="translate(0,0)" fill="rgb(12,17,32)" d="M 662.233 320.445 C 696.332 319.245 725.003 345.801 726.414 379.892 C 727.826 413.984 701.448 442.818 667.366 444.441 C 632.984 446.078 603.84 419.417 602.416 385.026 C 600.992 350.634 627.834 321.656 662.233 320.445 z"/>
<path transform="translate(0,0)" fill="rgb(247,247,247)" d="M 152.488 104.483 C 194.051 103.597 241.412 105.224 283.823 105.19 L 359.668 105.135 C 373.309 105.133 386.751 105.07 400.598 105.366 C 415.112 105.676 419.707 109.367 420.731 124.874 C 420.805 133.27 420.458 141.879 420.478 150.252 C 420.517 165.867 424.035 180.799 403.465 181.508 C 381.79 182.255 360.589 181.951 339.097 181.938 L 210.196 182.002 L 210.209 305.867 C 251.56 307.041 293.635 305.006 335.051 306.191 C 338.723 306.296 346.335 307.983 349.122 310.23 C 352.515 312.965 353.688 320.795 353.778 325.064 C 354.224 390.072 359.658 382.742 292.981 382.64 C 265.37 382.499 237.758 382.536 210.148 382.752 C 210.462 408.866 210.255 435.356 210.274 461.5 L 210.254 506.571 C 255.014 507.21 300.206 506.318 344.994 506.697 C 366.42 506.879 389.865 506.082 411.073 507.242 C 415.253 510.284 416.498 511.894 419.801 515.799 C 420.929 531.045 420.755 546.808 420.745 562.109 C 420.738 571.965 418.572 582.427 406.613 582.903 C 391.361 583.509 376.007 583.256 360.71 583.239 L 276.56 583.144 C 255.493 583.055 234.427 583.12 213.361 583.341 C 189.846 583.785 168.047 584.878 144.309 583.761 C 138.477 580.385 136.72 577.927 133.132 572.587 C 131.324 539.283 133.836 496.556 133.878 461.933 L 133.844 209.42 C 133.765 179.883 132.029 150.476 132.91 120.952 C 133.298 107.934 141.316 105.352 152.488 104.483 z"/>
<path transform="translate(0,0)" fill="rgb(247,247,247)" d="M 860.49 249.301 C 861.228 249.233 861.966 249.176 862.705 249.129 C 876.458 248.288 910.025 245.942 919.524 254.332 C 923.679 262.088 922.364 314.71 922.367 328.127 L 922.346 436.226 L 922.334 521.093 C 922.339 537.759 922.819 557.709 921.789 574.113 C 918.709 578.874 917.275 580.256 912.342 582.774 C 899.511 583.825 878.905 583.804 865.967 582.997 C 858.352 582.523 855.306 578.962 851.27 573.333 C 849.878 557.515 850.644 530.97 850.647 514.653 L 850.69 407.466 L 850.602 311.413 C 850.56 295.14 849.68 274.378 851.804 258.317 C 852.332 254.325 857.155 251.167 860.49 249.301 z"/>
<path transform="translate(0,0)" fill="rgb(247,247,247)" d="M 884.047 105.459 C 903.653 104.037 920.719 118.735 922.22 138.336 C 923.721 157.936 909.092 175.062 889.498 176.642 C 869.791 178.232 852.546 163.5 851.036 143.787 C 849.526 124.074 864.328 106.888 884.047 105.459 z"/>
</svg>