<!-- RECRAFT VECTORIZE from logo/options-w/W3-block-dark.png -->
<svg version="1.1" xmlns="http://www.w3.org/2000/svg" style="display: block;" viewBox="0 0 2048 817" width="642" height="256" preserveAspectRatio="none">
<path transform="translate(0,0)" fill="rgb(12,17,32)" d="M 0 0 L 2048 0 L 2048 817 L 0 817 L 0 0 z"/>
<path transform="translate(0,0)" fill="rgb(247,247,247)" d="M 1014.9 266.393 C 1025.29 265.24 1043.98 265.687 1054.71 265.692 L 1122.8 265.754 L 1218.2 265.677 C 1236.29 265.659 1254.55 265.095 1272.6 266.008 C 1277.05 266.233 1281.3 266.766 1285.37 268.717 C 1291.12 271.468 1295.78 276.452 1297.78 282.549 C 1302.41 296.611 1300.06 415.544 1300.07 438.84 L 1300.05 535.797 C 1300.04 553.974 1300.23 572.146 1299.75 590.318 C 1299.32 606.752 1296.59 616.586 1279.51 621.851 C 1270.57 623.333 1252.63 622.912 1242.98 622.918 L 1184.71 622.937 L 1080.98 622.921 C 1057.92 622.916 1028.69 625.046 1006.21 619.141 C 1002.48 617.607 997.021 610.147 996.266 606.523 C 992.273 587.379 993.818 562.764 993.808 543.207 L 993.784 451.665 L 993.797 352.61 C 993.804 333.899 993.679 315.235 994.103 296.523 C 994.481 279.829 998.199 271.781 1014.9 266.393 z"/>
<path transform="translate(0,0)" fill="rgb(12,17,32)" d="M 1090.85 347.479 L 1166.7 347.376 C 1181.31 347.364 1208.75 345.245 1222.66 351.655 C 1226.35 354.364 1228.27 363.605 1228.24 367.572 C 1227.84 418.785 1228.68 470.026 1227.94 521.221 C 1227.69 538.827 1218.74 540.671 1203.48 541.094 L 1126.05 541.182 C 1112.25 541.189 1098.33 541.502 1084.79 540.716 C 1067.08 539.937 1065.16 530.272 1065.24 514.652 C 1065.49 465.063 1064.1 415.117 1065.8 365.577 C 1066.39 348.546 1076.44 347.823 1090.85 347.479 z"/>
<path transform="translate(0,0)" fill="rgb(247,247,247)" d="M 148.984 112.492 L 353.462 112.47 C 390.737 112.462 432.156 111.621 469.015 112.879 L 469.023 204.056 C 392.18 205.454 312.038 204.149 234.827 204.303 L 234.797 321.82 C 295.476 322.538 357.086 321.664 417.922 321.949 L 417.866 413.284 L 234.952 413.336 C 234.718 424.238 234.824 435.561 234.777 446.5 L 234.704 530.957 C 312.104 532.39 391.386 530.165 469.114 531.263 C 468.608 561.397 468.992 592.563 468.97 622.777 C 361.596 624.336 250.357 622.825 142.69 622.794 L 142.72 271.617 L 142.743 165.072 C 142.764 151.916 141.828 126.157 143.137 114.115 C 145.141 112.105 145.311 112.751 148.984 112.492 z"/>
<path transform="translate(0,0)" fill="rgb(247,247,247)" d="M 1335.82 265.746 C 1364.6 265.839 1393.38 265.777 1422.16 265.561 L 1472.68 427.452 C 1478.4 445.77 1495.66 495.613 1496.75 511.664 C 1505.7 490.824 1518.27 443.169 1525.16 419.288 C 1539.75 368.709 1555.88 316.61 1569.45 265.885 C 1597.24 265.258 1629.67 265.413 1657.39 266.035 C 1665.24 300.686 1681.06 349.758 1691.39 384.845 C 1702.8 423.566 1715.75 474.245 1729.03 511.37 C 1732.42 490.447 1747.01 445.075 1753.48 422.868 L 1799.4 265.681 L 1885.58 265.933 C 1876.98 296.697 1865.83 329.563 1856.35 360.345 C 1853.03 368.925 1848.85 383.981 1846 393.077 L 1825.21 459.424 C 1808.42 512.894 1789.63 569.224 1774.29 622.888 L 1686.64 622.923 C 1682.96 604.803 1673.57 575.695 1668.24 557.254 L 1632.71 434.726 C 1627.54 417.054 1617.37 385.527 1614.63 368.224 C 1607.79 382.542 1594.49 432.79 1589.16 451.191 L 1539.44 623.036 L 1452.25 622.826 C 1442.76 588.114 1427.23 546.1 1416.11 511.262 C 1389.99 429.388 1361.61 347.749 1335.82 265.746 z"/>
<path transform="translate(0,0)" fill="rgb(247,247,247)" d="M 520.315 266.328 C 535.652 264.854 555.49 266.087 571.054 265.601 C 575.206 265.472 586.402 266.175 588.618 269.39 C 593.242 276.101 591.204 295.739 590.646 303.154 C 606.069 290.088 623.719 279.25 642.952 272.876 C 678.957 260.987 718.2 263.797 752.143 280.695 C 786.001 297.766 811.705 327.571 823.616 363.57 C 835.374 399.732 832.418 439.069 815.388 473.067 C 798.289 506.875 768.45 532.496 732.445 544.285 C 692.746 557.222 655.383 552.198 618.796 533.515 C 607.92 527.187 600.475 521.724 590.99 513.716 C 592.316 563.725 591.29 618.649 591.282 669.074 L 591.273 732.241 C 591.274 737.822 592.7 771.64 588.349 773.315 C 573.513 779.028 552.058 775.385 535.973 776.365 C 529.386 776.766 520.684 775.297 515.95 770.382 C 514.047 766.461 514.886 694.764 514.886 685.305 L 514.902 387.947 L 514.92 308.448 C 514.931 297.056 514.665 283.984 515.45 272.571 C 515.648 269.682 518.031 267.912 520.315 266.328 z"/>
<path transform="translate(0,0)" fill="rgb(12,17,32)" d="M 681.538 342.553 C 717.989 338.894 750.487 365.521 754.069 401.98 C 757.65 438.439 730.954 470.881 694.488 474.384 C 658.131 477.878 625.808 451.28 622.237 414.93 C 618.666 378.58 645.196 346.201 681.538 342.553 z"/>
<path transform="translate(0,0)" fill="rgb(247,247,247)" d="M 876.577 266.344 C 890.01 265.015 911.211 265.425 925.078 265.726 C 933.502 265.909 936.93 268.732 941.762 274.733 C 943.329 283.453 942.865 303.791 942.867 313.623 L 942.856 379.999 C 942.879 454.005 943.032 528.018 942.754 602.021 C 942.714 612.617 942.373 617.33 932.099 622.264 C 920.612 623.812 895.314 623.374 882.834 622.709 C 875.021 622.293 871.54 618.605 867.325 612.875 C 865.213 596.858 866.142 560.766 866.144 543.514 L 866.195 415.62 L 866.093 326.403 C 866.075 310.824 865.293 291.171 867.565 275.694 C 868.17 271.573 873.215 268.315 876.577 266.344 z"/>
<path transform="translate(0,0)" fill="rgb(247,247,247)" d="M 883.186 112.517 C 895.459 112.342 928.779 110.642 938.464 114.589 C 945.661 122.906 942.556 157.006 942.984 168.732 C 943.572 184.819 942.623 188.176 926.989 188.948 C 915.795 189.008 879.609 190.604 870.985 186.842 C 863.444 178.804 864.394 125.924 869.511 115.177 C 870.787 112.496 880.477 112.576 883.186 112.517 z"/>
</svg>