<!-- RECRAFT VECTORIZE from logo/options-w/W3-block-light.png -->
<svg version="1.1" xmlns="http://www.w3.org/2000/svg" style="display: block;" viewBox="0 0 2048 817" width="642" height="256" preserveAspectRatio="none">
<path transform="translate(0,0)" fill="rgb(255,255,255)" d="M 0 0 L 2048 0 L 2048 817 L 0 817 L 0 0 z"/>
<path transform="translate(0,0)" fill="rgb(12,17,32)" d="M 1015.77 266.28 C 1028.58 265.297 1046.2 265.817 1059.32 265.823 L 1136.26 265.88 L 1223.13 265.809 C 1239.55 265.795 1256.09 265.555 1272.37 266.15 C 1299.43 267.138 1300.29 287.406 1299.99 308.651 C 1299.85 318.613 1300 329.276 1300.01 339.232 L 1300.04 415.136 L 1300.03 528.766 C 1300.02 549.331 1300.22 569.897 1299.73 590.456 C 1299.32 607.597 1295.94 617.285 1278.14 622.001 C 1264.9 623.29 1246.9 622.798 1233.22 622.792 L 1161.17 622.739 L 1075.59 622.791 C 1058.79 622.846 1042.01 622.958 1025.24 622.649 C 1014.91 623.081 998.713 618.458 996.447 606.439 C 992.333 584.62 993.927 556.642 993.938 534.428 L 994.013 429.266 L 993.9 342.63 C 993.877 326.779 993.57 310.899 994.19 295.062 C 994.81 279.231 1000.17 270.415 1015.77 266.28 z"/>
<path transform="translate(0,0)" fill="rgb(255,255,255)" d="M 1086.13 347.452 C 1118.05 346.647 1150.38 347.745 1182.33 347.275 C 1194.08 347.102 1206.32 347.15 1218 348.259 C 1225.28 352.824 1227.73 356.421 1227.94 364.989 C 1228.96 406.612 1228.15 448.34 1228.34 489.988 C 1228.4 503.121 1228.68 516.988 1227.61 530.014 C 1221.65 538.994 1219.76 540.254 1209.01 541.086 C 1175.92 541.716 1142.26 540.999 1109.46 541.282 C 1096.61 540.291 1066.29 546.316 1065.76 525.39 C 1064.43 472.59 1064.83 418.754 1065.56 365.889 C 1065.76 351.322 1073.81 348.394 1086.13 347.452 z"/>
<path transform="translate(0,0)" fill="rgb(12,17,32)" d="M 142.956 112.701 C 250.576 112.158 361.509 111.588 469.005 112.879 C 468.855 143.237 468.864 173.595 469.03 203.953 C 392.115 205.393 311.884 203.968 234.562 204.191 C 234.001 242.686 234.372 283.261 234.678 321.84 C 294.507 322.896 357.683 321.915 417.877 321.934 L 417.823 413.121 C 358.431 414.473 294.455 413.196 234.638 413.298 L 234.547 439.273 L 234.479 530.915 C 312.41 531.985 391.083 530.18 469.083 531.278 C 468.547 561.37 468.93 592.346 468.95 622.502 C 434.837 623.981 389.961 622.661 354.879 622.665 L 142.828 622.604 L 142.956 112.701 z"/>
<path transform="translate(0,0)" fill="rgb(12,17,32)" d="M 1799.64 265.322 C 1807.18 266.199 1822.78 265.865 1830.83 265.875 L 1885.58 265.896 C 1878 292.846 1868.26 321.891 1859.81 348.793 L 1805.41 522.079 C 1795.12 554.882 1783.59 589.593 1774.3 622.486 C 1750.49 623.934 1711.26 622.875 1686.75 622.662 C 1681.1 599.519 1673.28 574.36 1666.6 551.34 L 1633.57 437.452 C 1627.41 416.23 1618.98 389.835 1614.24 368.579 C 1607.76 382.424 1593.48 435.874 1588.64 452.635 L 1539.3 622.97 C 1510.61 622.488 1480.76 623.538 1452.32 622.531 C 1432.98 558.032 1408.59 487.999 1387.43 423.549 C 1371.97 371.57 1351.48 318.29 1336.02 265.805 C 1364.71 266.024 1393.4 265.962 1422.09 265.62 L 1470.27 419.814 C 1479.06 447.965 1490.95 482.724 1497.72 510.912 C 1501.71 499.96 1505.27 488.666 1508.39 477.437 C 1527.95 406.903 1550.8 336.646 1569.53 265.933 C 1596.97 265.094 1629.84 265.782 1657.38 266.042 C 1659.88 278.563 1665.49 296.091 1669.17 308.735 L 1690.04 380.479 L 1712.89 459.045 C 1717.7 475.568 1722.91 495.114 1729.04 510.892 C 1734.49 484.414 1747.02 445.436 1754.78 418.77 L 1799.64 265.322 z"/>
<path transform="translate(0,0)" fill="rgb(12,17,32)" d="M 521.247 266.235 C 532.243 265.315 582.472 263.521 589.158 270.086 C 592.752 278.348 591.143 294.061 590.828 303.522 C 607.894 289.403 621.566 279.972 642.969 272.904 C 679.121 261.047 718.493 263.949 752.516 280.978 C 786.275 298.083 811.853 327.902 823.62 363.871 C 835.262 400.004 832.234 439.266 815.189 473.187 C 798.078 507.105 768.075 532.741 731.902 544.351 C 692.104 557.106 655.122 552.022 618.512 533.253 C 607.994 526.917 600.121 521.585 590.833 513.364 C 590.969 518.368 591.065 523.373 591.121 528.378 L 591.158 685.868 L 591.14 738.56 C 591.135 750.175 595.69 777.585 579.271 775.911 C 567.539 774.714 524.854 779.906 517.217 772.054 C 515.64 766.808 515.234 761.203 515.082 755.751 C 513.937 714.466 514.049 276.336 516.127 270.976 C 517.161 268.31 518.723 267.372 521.247 266.235 z"/>
<path transform="translate(0,0)" fill="rgb(255,255,255)" d="M 680.679 342.575 C 717.206 338.438 750.129 364.803 754.074 401.351 C 758.019 437.899 731.481 470.683 694.912 474.435 C 658.615 478.16 626.128 451.861 622.212 415.584 C 618.296 379.307 644.423 346.682 680.679 342.575 z"/>
<path transform="translate(0,0)" fill="rgb(12,17,32)" d="M 877.66 266.222 C 891.785 265.207 910.389 265.618 924.756 265.867 C 930.664 265.97 937.055 268.678 940.964 273.503 C 943.592 285.851 942.823 308.092 942.828 321.603 L 942.804 391.159 L 942.84 530.025 C 942.847 554.532 942.965 579.05 942.717 603.554 C 942.612 613.936 941.51 617.991 931.563 622.066 C 921.491 623.408 910.216 622.93 900.038 623.032 C 877.461 623.258 866.824 624.205 866.383 598.008 C 866.088 580.502 866.304 562.806 866.32 545.393 L 866.389 444.57 L 866.287 343.718 C 866.24 322.722 864.579 294.819 868.485 273.915 C 869.172 270.239 874.369 267.642 877.66 266.222 z"/>
<path transform="translate(0,0)" fill="rgb(12,17,32)" d="M 870.938 113.337 C 871.545 113.25 872.155 113.176 872.766 113.116 C 883.11 112.059 933.658 110.474 940.533 116.088 C 944.281 127.345 943.431 168.798 941.916 182.349 C 941.546 185.661 939.019 186.582 936.553 188.011 C 925.794 189.162 879.928 191.276 869.766 185.488 C 867.996 184.329 866.435 178.016 866.549 176.395 C 867.593 161.56 862.403 124.212 870.938 113.337 z"/>
</svg>