<!-- RECRAFT VECTORIZE from logo/options-w/W4-open-dark.png -->
<svg version="1.1" xmlns="http://www.w3.org/2000/svg" style="display: block;" viewBox="0 0 2048 732" width="716" height="256" preserveAspectRatio="none">
<path transform="translate(0,0)" fill="rgb(12,17,32)" d="M 0 0 L 2048 0 L 2048 732 L 0 732 L 0 0 z"/>
<path transform="translate(0,0)" fill="rgb(247,247,247)" d="M 1824.07 237.949 L 1901.55 238.123 L 1874.62 323.924 C 1868.59 346.422 1858.32 376.114 1851.13 398.984 L 1801.31 558.152 C 1775.35 558.02 1749.39 558.026 1723.44 558.169 L 1680.54 410.044 C 1673.55 385.898 1664.69 351.724 1655.85 329.119 C 1654.2 344.364 1641.13 383.943 1636.49 400.751 C 1622.08 452.928 1604.88 505.68 1591.27 558.043 L 1512.66 558.07 C 1504.02 526.202 1489.2 485.076 1478.7 453.153 L 1408.23 238.024 C 1434.29 237.84 1460.34 237.924 1486.4 238.276 C 1489.14 253.143 1500.44 283.765 1505.16 300.139 C 1520.1 351.886 1540.02 406.021 1554.09 457.711 L 1618.03 237.998 L 1696.32 238.161 C 1708.19 282.845 1723.08 328.961 1735.6 373.703 C 1740.7 391.938 1754.24 441.373 1761.39 456.966 C 1762.57 444.741 1778.19 394.601 1782.41 380.432 C 1796.45 333.239 1809.62 284.939 1824.07 237.949 z"/>
<path transform="translate(0,0)" fill="rgb(247,247,247)" d="M 1162.42 238.448 C 1250.4 231.621 1327.3 297.302 1334.32 385.267 C 1341.33 473.232 1275.82 550.276 1187.87 557.485 C 1099.65 564.716 1022.32 498.956 1015.28 410.721 C 1008.24 322.486 1074.17 245.296 1162.42 238.448 z"/>
<path transform="translate(0,0)" fill="rgb(12,17,32)" d="M 1169.14 311.379 C 1216.97 308.227 1258.29 344.452 1261.43 392.282 C 1264.57 440.112 1228.33 481.428 1180.5 484.553 C 1132.69 487.677 1091.39 451.457 1088.26 403.646 C 1085.12 355.835 1121.33 314.53 1169.14 311.379 z"/>
<path transform="translate(0,0)" fill="rgb(247,247,247)" d="M 509.189 238.367 C 519.626 237.787 561.947 235.805 568.899 241.405 C 573.384 248.944 571.677 262.763 570.891 271.496 C 584.969 259.617 601.385 249.706 618.953 244.102 C 651.516 233.688 686.881 236.632 717.274 252.285 C 747.291 267.886 769.895 294.756 780.125 327.001 C 790.428 359.823 787.272 395.393 771.353 425.889 C 755.462 456.028 728.162 478.548 695.55 488.415 C 659.877 499.253 626.658 494.264 594.266 476.956 C 586.316 472.408 578.087 466.044 570.995 460.276 C 571.042 460.62 571.085 460.965 571.122 461.31 C 572.147 470.694 571.626 487.34 571.584 497.065 L 571.516 555.602 L 571.531 639.529 C 571.529 654.65 571.589 669.795 571.223 684.905 C 570.925 690.067 569.267 694.653 563.49 695.061 C 551.762 695.889 539.962 695.673 528.22 695.691 C 521.216 695.702 510.162 696.057 504.579 691.447 C 500.715 677.522 502.985 587.888 502.982 569.441 L 502.959 360.209 C 502.959 325.555 502.258 278.621 503.78 242.928 C 503.876 240.668 507.271 239.352 509.189 238.367 z"/>
<path transform="translate(0,0)" fill="rgb(12,17,32)" d="M 647.505 307.579 C 679.657 301.656 710.547 322.843 716.601 354.971 C 722.655 387.099 701.593 418.075 669.49 424.259 C 637.202 430.479 606.008 409.27 599.92 376.957 C 593.831 344.643 615.167 313.536 647.505 307.579 z"/>
<path transform="translate(0,0)" fill="rgb(247,247,247)" d="M 143.002 100.256 C 168.241 98.4925 210.705 100.769 238.245 100.789 L 323.851 100.769 C 341.075 100.755 359.849 100.304 377.156 101.602 C 386.457 100.624 394.196 114.136 393.38 122.935 C 392.137 136.338 399.106 171.153 378.904 173.058 C 360.17 174.825 339.245 174.078 320.299 174.07 L 201.071 174.127 L 201.081 292.697 C 243.581 293.774 286.931 291.614 329.429 293.369 C 353.327 294.356 346.366 324.155 347.547 339.936 C 348.566 353.557 343.739 365.353 328.298 365.653 C 313.397 366.401 298.772 366.134 283.882 366.105 L 201.033 366.117 L 201.122 430.5 L 201.119 484.722 C 226.799 485.337 371.018 482.26 382.317 486.641 C 385.981 488.062 389.466 492.755 391.028 496.229 C 394.894 504.828 394.943 537.93 391.515 546.782 C 389.841 551.105 386.75 554.518 382.441 556.305 C 379.626 557.472 376.583 557.978 373.551 558.092 C 333.786 559.586 291.067 557.97 250.99 557.967 C 233.701 557.966 216.369 557.733 199.085 558.108 C 184.13 558.432 169.238 559.408 154.269 559.096 C 149.566 558.998 144.107 559.161 139.72 557.23 C 134.169 554.787 130.099 550.047 127.967 544.416 C 124.414 535.026 127.949 473.655 127.976 457.697 L 127.994 215.049 C 127.968 185.204 125.399 141.543 128.693 110.867 C 129.144 106.662 138.463 101.835 143.002 100.256 z"/>
<path transform="translate(0,0)" fill="rgb(247,247,247)" d="M 870.605 238.27 C 883.133 238.01 917.344 234.53 925.391 243.863 C 929.615 258.023 927.96 292.044 927.964 308.378 L 927.974 398.216 L 927.959 488.265 C 927.956 501.576 929.368 542.396 925.492 552.442 C 922.063 555.868 921.35 556.393 916.7 557.888 C 903.654 558.131 870.566 562.245 861.342 551.151 C 860.36 549.97 859.494 539.316 859.482 536.721 C 859.063 445.36 859.27 353.973 859.389 262.609 C 859.397 256.921 859.865 249.961 861.296 244.525 C 862.044 241.681 868.066 239.203 870.605 238.27 z"/>
<path transform="translate(0,0)" fill="rgb(247,247,247)" d="M 886.801 101.505 C 905.285 97.7226 923.335 109.642 927.116 128.126 C 930.897 146.61 918.977 164.66 900.493 168.44 C 882.01 172.219 863.962 160.3 860.181 141.817 C 856.401 123.335 868.319 105.286 886.801 101.505 z"/>
</svg>