<!-- RECRAFT VECTORIZE from logo/options-w/W4-open-light.png -->
<svg version="1.1" xmlns="http://www.w3.org/2000/svg" style="display: block;" viewBox="0 0 2048 732" width="716" height="256" preserveAspectRatio="none">
<path transform="translate(0,0)" fill="rgb(255,255,255)" d="M 0 0 L 2048 0 L 2048 732 L 0 732 L 0 0 z"/>
<path transform="translate(0,0)" fill="rgb(12,17,32)" d="M 1824.45 237.94 C 1850.08 238.121 1875.72 238.164 1901.35 238.069 C 1893.59 265.39 1883.7 294.907 1875.25 322.227 C 1849.72 398.43 1825.18 480.96 1801.16 557.98 L 1723.54 558.066 L 1680.48 409.591 C 1674.51 388.897 1663.95 348.031 1655.7 329.656 C 1653.88 344.331 1642.34 380.206 1637.8 395.784 L 1608.56 496.591 C 1602.91 516.102 1595.95 538.311 1591.35 557.874 C 1565.97 558.388 1538.16 558.096 1512.75 557.851 C 1507.06 535.973 1496.17 506.019 1488.85 483.742 L 1436.78 325.343 C 1427.98 298.537 1415.8 264.807 1408.66 238.055 C 1432.1 238.059 1463.36 237.113 1486.14 238.52 C 1490.51 257.15 1501.99 290.17 1508.21 310.098 L 1554.06 457.364 C 1561.39 435.929 1568.46 409.215 1574.92 387.027 L 1618.37 238.038 L 1696.2 238.187 C 1706.58 278.348 1720.92 321.844 1732.19 362.201 C 1739.2 387.338 1751.77 434.061 1761.15 457.055 C 1763.79 443.052 1768.75 427.492 1772.79 413.644 L 1791.21 350.636 L 1811.54 280.74 C 1815.47 267.177 1819.71 251.08 1824.45 237.94 z"/>
<path transform="translate(0,0)" fill="rgb(12,17,32)" d="M 1162.96 238.468 C 1251.08 231.932 1327.8 298.086 1334.3 386.207 C 1340.81 474.327 1274.62 551.026 1186.5 557.495 C 1098.43 563.961 1021.78 497.821 1015.28 409.748 C 1008.78 321.674 1074.89 245 1162.96 238.468 z"/>
<path transform="translate(0,0)" fill="rgb(255,255,255)" d="M 1168.78 311.347 C 1216.52 307.995 1257.98 343.899 1261.49 391.633 C 1264.99 439.367 1229.22 480.939 1181.5 484.596 C 1133.56 488.269 1091.76 452.3 1088.24 404.35 C 1084.72 356.4 1120.82 314.713 1168.78 311.347 z"/>
<path transform="translate(0,0)" fill="rgb(12,17,32)" d="M 509.495 238.293 C 519.702 237.767 562.576 235.867 569.268 241.782 C 572.921 249.598 571.368 263.03 571.041 271.959 C 584.49 259.824 600.252 250.531 617.381 244.638 C 649.93 233.843 685.432 236.4 716.098 251.747 C 746.403 267.116 769.331 293.932 779.803 326.258 C 790.205 358.805 787.384 394.137 771.951 424.621 C 756.479 454.741 729.646 477.458 697.386 487.748 C 662.232 498.987 628.685 494.767 596.395 478.028 C 586.716 472.538 579.333 467.138 571.012 459.863 C 572.414 503.554 571.455 552.44 571.461 596.358 L 571.442 654.735 C 571.434 664.534 571.467 674.336 571.331 684.126 C 571.341 690.429 568.234 695.42 561.21 695.202 C 548.779 694.816 513.523 698.667 504.336 691.053 C 501.474 682.577 503.033 586.444 503.038 568.867 L 503.034 365.047 C 503.021 328.827 502.221 279.661 503.974 242.89 C 504.083 240.604 507.502 239.327 509.495 238.293 z"/>
<path transform="translate(0,0)" fill="rgb(255,255,255)" d="M 647.152 307.579 C 679.38 301.445 710.484 322.58 716.65 354.802 C 722.816 387.024 701.712 418.149 669.497 424.348 C 637.235 430.555 606.055 409.415 599.881 377.147 C 593.706 344.879 614.878 313.721 647.152 307.579 z"/>
<path transform="translate(0,0)" fill="rgb(12,17,32)" d="M 143.014 100.327 C 143.745 100.266 144.477 100.217 145.21 100.179 C 161.39 99.3793 180.099 100.35 196.368 100.666 C 216.13 100.907 235.892 100.988 255.655 100.91 L 330.856 100.871 C 345.294 100.855 359.465 100.685 373.891 101.348 C 392.985 102.225 393.868 117.435 393.171 132.798 C 392.451 148.663 398.305 172.158 374.675 173.44 C 355.534 174.479 336.229 174.017 317.049 174.003 L 201.095 174.051 L 200.94 292.671 C 243.514 293.644 292.674 291.136 334.347 293.363 C 353.497 304.2 345.943 323.083 347.525 341.49 C 349.457 363.968 334.149 366.316 316.042 366.046 C 305.867 365.894 294.314 366.045 283.689 366.022 L 201.09 366.016 L 201.036 430.5 L 200.994 484.808 C 259.169 485.643 322.721 483.067 381.094 486.454 C 395.411 491.368 392.376 508.073 393.094 516.14 C 397.569 566.428 379.896 557.957 333.324 557.919 L 245.169 557.885 C 229.62 557.885 148.184 560.375 140.19 557.232 C 134.929 555.124 130.768 550.941 128.688 545.669 C 126.972 541.426 126.783 537.029 126.898 532.512 C 128.18 482.33 128.143 432.003 128.029 381.823 L 128.036 191.876 C 127.995 169.951 125.095 133.391 129.024 110.583 C 129.796 106.104 138.382 101.805 143.014 100.327 z"/>
<path transform="translate(0,0)" fill="rgb(12,17,32)" d="M 870.758 238.283 C 883.652 237.646 917.789 234.528 925.957 244.949 C 928.8 255.973 927.933 283.547 927.912 296.606 L 927.908 365.757 L 927.937 481 C 927.937 501.499 928.103 522.029 927.714 542.518 C 927.535 551.97 924.499 555.419 915.798 557.814 C 902.343 558.12 888.283 558.588 875.009 557.865 C 866.761 557.031 860.559 553.733 860.36 544.694 C 858.263 449.215 860.258 353.395 859.488 257.824 C 859.402 247.14 860.485 241.969 870.758 238.283 z"/>
<path transform="translate(0,0)" fill="rgb(12,17,32)" d="M 887.755 101.385 C 906.203 98.1199 923.829 110.356 927.219 128.781 C 930.61 147.207 918.494 164.915 900.092 168.431 C 881.512 171.981 863.595 159.722 860.172 141.118 C 856.748 122.514 869.128 104.681 887.755 101.385 z"/>
</svg>