<!-- RECRAFT VECTORIZE from logo/options-w/W5-soft-dark.png -->
<svg version="1.1" xmlns="http://www.w3.org/2000/svg" style="display: block;" viewBox="0 0 2048 745" width="704" height="256" preserveAspectRatio="none">
<path transform="translate(0,0)" fill="rgb(12,17,32)" d="M 0 0 L 2048 0 L 2048 745 L 0 745 L 0 0 z"/>
<path transform="translate(0,0)" fill="rgb(247,247,247)" d="M 1819.95 242.11 L 1898.84 242.337 C 1889.96 271.262 1880.9 300.136 1871.68 328.956 C 1865.24 352.93 1854.47 384.058 1846.79 408.523 L 1796.77 568.074 C 1770.37 567.944 1743.96 567.958 1717.56 568.116 L 1673.52 416.26 C 1666.98 393.627 1657.13 355.67 1648.7 334.914 C 1647.22 350.127 1634.95 386.206 1630.63 402.348 C 1616.07 456.783 1596.51 513.542 1583.09 567.978 L 1503.08 568.036 C 1492.74 532.786 1478.97 493.6 1467.41 458.405 L 1396.47 242.195 L 1475.72 242.264 C 1497.38 315.585 1524.87 392.493 1544.97 465.416 C 1553.08 441.686 1560.96 411.717 1568.08 387.284 L 1610.39 242.156 C 1636.67 242.138 1663.84 241.788 1690.04 242.459 C 1703.49 294.887 1721.19 347.486 1735.61 399.814 C 1741.3 420.484 1748.18 446.328 1756.11 465.864 C 1757.07 453.354 1771.48 408.18 1775.91 392.966 L 1819.95 242.11 z"/>
<path transform="translate(0,0)" fill="rgb(247,247,247)" d="M 1160.07 242.359 C 1249.72 237.856 1326.12 306.715 1330.92 396.345 C 1335.72 485.975 1267.11 562.601 1177.5 567.699 C 1087.46 572.821 1010.4 503.823 1005.58 413.771 C 1000.75 323.72 1070.01 246.884 1160.07 242.359 z"/>
<path transform="translate(0,0)" fill="rgb(12,17,32)" d="M 1156.22 317.531 C 1204.52 310.871 1249.09 344.603 1255.79 392.897 C 1262.49 441.192 1228.8 485.784 1180.51 492.528 C 1132.16 499.281 1087.5 465.537 1080.79 417.183 C 1074.08 368.83 1107.86 324.2 1156.22 317.531 z"/>
<path transform="translate(0,0)" fill="rgb(247,247,247)" d="M 512.554 242.409 C 523.31 242.086 563.439 239.894 570.237 245.831 C 573.872 253.376 572.362 268.152 572.075 276.87 C 585.218 264.426 603.243 254.138 620.393 248.601 C 653.448 237.919 689.386 240.746 720.366 256.464 C 751.132 272.261 774.367 299.627 784.967 332.547 C 795.437 365.774 792.36 401.791 776.407 432.761 C 760.309 463.6 732.55 486.723 699.309 496.982 C 662.558 508.317 628.837 502.904 595.482 485.283 C 587.089 480.429 579.457 474.488 572.154 468.153 C 573.534 513.997 572.421 565.879 572.411 612.115 L 572.381 669.034 C 572.375 675.503 573.88 701.96 569.192 705.096 C 560.938 710.619 542.497 706.828 531.792 708.005 C 525.17 708.734 509.295 708.774 504.112 703.696 C 501.915 689.67 502.653 663.682 502.646 648.725 L 502.628 556.787 L 502.656 361.716 C 502.66 345.884 500.911 255.956 504.39 245.364 C 506.825 242.964 509.187 242.924 512.554 242.409 z"/>
<path transform="translate(0,0)" fill="rgb(12,17,32)" d="M 653.344 312.51 C 686.46 308.314 716.706 331.765 720.891 364.883 C 725.077 398.001 701.616 428.239 668.497 432.414 C 635.392 436.587 605.17 413.14 600.987 380.036 C 596.803 346.933 620.241 316.703 653.344 312.51 z"/>
<path transform="translate(0,0)" fill="rgb(247,247,247)" d="M 140.582 102.331 C 141.073 102.285 141.565 102.243 142.057 102.204 C 168.594 100.125 216.582 102.493 245.684 102.506 L 339.416 102.486 C 359.333 102.482 379.914 101.675 399.682 103.7 C 406.052 104.352 409.973 114.762 409.676 120.608 C 408.96 134.695 410.248 149.757 409.224 163.726 C 408.486 173.796 400.86 176.53 391.899 176.811 C 371.281 177.456 350.418 177.151 329.718 177.137 L 204.838 177.191 L 204.816 297.876 C 233.103 298.585 261.765 297.395 290.038 297.902 C 302.941 298.134 329.929 295.892 340 302.124 C 347.204 311.044 343.397 328.511 344.178 339.673 C 344.339 345.495 345.611 364.526 340.515 368.199 C 331.361 374.796 294.672 372.662 284.891 372.646 C 258.186 372.491 231.48 372.529 204.775 372.76 L 204.871 442.5 L 204.864 493.201 C 227.891 493.618 394.903 490.965 401.84 495.47 C 401.975 495.557 402.107 495.649 402.242 495.738 C 404.175 497.008 405.916 498.376 407.086 500.419 C 410.895 507.069 410.944 547.84 408.962 555.711 C 407.87 560.046 405.715 563.827 401.724 566.076 C 399.082 567.564 396.234 568.132 393.228 568.219 C 376.864 568.694 360.241 567.977 343.846 567.954 L 231.709 567.916 C 201.484 567.961 170.401 570.369 140.494 567.983 C 125.438 566.781 128.834 531.205 129.165 520.606 C 129.892 497.307 130.21 474.365 130.205 451.079 L 130.169 203.292 C 130.114 176.983 127.719 139.452 130.175 112.563 C 130.588 108.033 136.321 104.335 140.582 102.331 z"/>
<path transform="translate(0,0)" fill="rgb(247,247,247)" d="M 869.705 242.394 C 882.441 242.139 908.673 240.084 919.874 244.913 C 922.236 245.931 923.832 247.988 924.306 250.608 C 927.563 268.594 926.475 292.358 926.482 310.702 L 926.48 401.064 L 926.485 498.974 C 926.487 516.844 926.718 534.773 926.132 552.625 C 925.843 561.438 922.069 565.779 913.835 567.881 C 901.251 568.121 887.467 568.664 874.949 568.196 C 865.712 567.851 862.825 565.96 857.246 559.486 C 855.958 547.865 856.526 528.283 856.521 516.138 L 856.51 440.094 L 856.528 322.453 C 856.524 301.264 856.373 280.07 856.691 258.884 C 856.851 248.164 859 244.633 869.705 242.394 z"/>
<path transform="translate(0,0)" fill="rgb(247,247,247)" d="M 883.491 103.505 C 902.132 99.1837 920.761 110.74 925.17 129.361 C 929.579 147.981 918.111 166.664 899.511 171.161 C 880.787 175.688 861.952 164.126 857.513 145.381 C 853.075 126.636 864.725 107.855 883.491 103.505 z"/>
</svg>