<!-- RECRAFT VECTORIZE from logo/options-w/W5-soft-light.png -->
<svg version="1.1" xmlns="http://www.w3.org/2000/svg" style="display: block;" viewBox="0 0 2048 745" width="704" height="256" preserveAspectRatio="none">
<path transform="translate(0,0)" fill="rgb(255,255,255)" d="M 0 0 L 2048 0 L 2048 745 L 0 745 L 0 0 z"/>
<path transform="translate(0,0)" fill="rgb(12,17,32)" d="M 1820.45 242.077 C 1845.06 242.583 1874.16 242.854 1898.64 242.206 C 1891.3 269.295 1880.49 301 1871.96 328.229 C 1846.15 405.653 1820.93 489.77 1796.8 567.924 L 1717.68 568.038 C 1699.17 507.086 1682.54 445.314 1664.38 384.236 C 1659.65 368.34 1655.6 351.155 1648.89 336.037 C 1645.54 353.908 1636 383.571 1630.68 401.881 L 1601.14 503.5 C 1595.15 524.123 1588.07 546.924 1583.11 567.663 C 1559.69 568.905 1527.35 567.903 1503.26 567.898 C 1495.23 541.301 1485.5 513.2 1476.79 486.675 L 1428.44 339.488 L 1409.25 281.321 C 1405.27 269.24 1399.97 254.39 1397.28 242.234 L 1475.78 242.468 C 1481.72 265.061 1491.3 292.909 1498.48 315.877 L 1545.09 465.672 C 1552.92 442.496 1560.42 414.137 1567.41 390.152 L 1610.6 242.162 C 1637.03 242.112 1663.46 242.25 1689.88 242.577 C 1701.98 288.869 1717.37 335.205 1730.14 381.436 C 1737.83 409.279 1746.33 438.633 1755.79 465.851 C 1757.97 453.13 1763.31 436.343 1766.98 423.784 L 1786 358.748 L 1806.92 286.911 C 1810.99 272.811 1815.42 255.579 1820.45 242.077 z"/>
<path transform="translate(0,0)" fill="rgb(12,17,32)" d="M 1162 242.335 C 1251.66 238.896 1327.2 308.64 1330.92 398.289 C 1334.65 487.937 1265.14 563.702 1175.5 567.707 C 1085.47 571.729 1009.29 501.846 1005.55 411.795 C 1001.81 321.745 1071.94 245.788 1162 242.335 z"/>
<path transform="translate(0,0)" fill="rgb(255,255,255)" d="M 1156.34 317.459 C 1204.55 310.876 1249.03 344.488 1255.85 392.669 C 1262.67 440.85 1229.27 485.486 1181.13 492.544 C 1132.64 499.651 1087.63 465.974 1080.76 417.456 C 1073.89 368.939 1107.79 324.089 1156.34 317.459 z"/>
<path transform="translate(0,0)" fill="rgb(12,17,32)" d="M 511.515 242.42 C 522.761 242.32 562.83 240.077 570.314 245.828 C 573.711 252.814 572.298 268.768 572.096 277.047 C 587.418 263.7 601.106 254.817 620.888 248.483 C 654.125 237.905 690.204 240.967 721.183 256.996 C 751.739 272.838 774.72 300.207 785.037 333.044 C 795.346 366.429 792.057 402.535 775.886 433.508 C 759.839 463.885 732.41 486.665 699.603 496.863 C 662.8 508.164 629.086 502.965 595.664 485.257 C 586.518 479.948 579.849 474.737 572.057 467.806 C 573.355 511.76 572.283 561.667 572.285 606.095 L 572.267 665.654 C 572.259 676.587 572.344 687.435 571.995 698.383 C 572.431 705.022 566.113 708.045 560.117 707.69 C 547.978 706.973 513.473 711.382 504.566 703.642 C 500.594 691.961 502.749 605.12 502.745 585.005 L 502.737 385.864 L 502.762 296.921 C 502.768 284.362 502.087 257.055 504.316 245.673 C 506.23 243.303 508.49 243.132 511.515 242.42 z"/>
<path transform="translate(0,0)" fill="rgb(255,255,255)" d="M 652.69 312.534 C 685.928 307.96 716.542 331.307 720.924 364.571 C 725.305 397.836 701.782 428.314 668.492 432.503 C 635.474 436.658 605.298 413.368 600.952 380.374 C 596.606 347.381 619.722 317.071 652.69 312.534 z"/>
<path transform="translate(0,0)" fill="rgb(12,17,32)" d="M 140.883 102.318 C 169.035 100.166 214.423 102.683 244.438 102.679 L 339.437 102.638 C 348.78 102.638 398.457 100.727 404.897 106.502 C 412.794 113.583 408.069 141.551 409.563 152.451 C 411.053 163.325 407.78 177.552 393.605 176.589 C 372.891 177.346 352.445 177.074 331.803 177.061 L 204.827 177.148 C 204.054 217.042 205.267 257.649 204.486 297.845 C 232.066 298.027 259.648 298.05 287.229 297.915 C 299.031 297.908 329.318 296.015 339.674 301.951 C 345.837 305.484 344.349 325.278 343.992 332.589 C 343.535 341.958 347.032 360.446 340.176 368.449 C 329.709 374.282 300.638 372.465 287.236 372.45 C 259.765 372.264 232.294 372.315 204.824 372.601 C 204.467 395.583 204.792 419.445 204.782 442.5 L 204.675 493.287 C 268.687 495.075 336.323 491.646 399.807 494.08 C 408.703 500.038 409.414 503 409.433 513.51 C 409.446 526.86 410.058 540.083 408.89 553.397 C 408.069 566.305 400.411 567.843 388.871 567.852 C 310.127 567.914 231.428 567.463 152.696 568.902 C 131.475 569.29 129.108 560.288 129.127 541.492 C 129.15 518.94 130.237 496.296 130.312 473.671 L 130.324 272.952 C 130.384 243.552 130.32 214.445 130.237 184.752 C 130.33 160.121 126.986 134.49 131.046 110.159 C 131.617 106.737 137.934 103.539 140.883 102.318 z"/>
<path transform="translate(0,0)" fill="rgb(12,17,32)" d="M 870.007 242.398 C 931.854 241.437 926.435 235.53 926.454 298.397 L 926.423 367.274 L 926.458 488.041 C 926.458 508.755 926.569 529.477 926.292 550.186 C 926.157 560.231 923.403 565.68 913.05 567.789 C 904.352 567.934 861.43 571.076 858.794 561.483 C 855.552 549.684 856.447 526.67 856.447 513.924 L 856.45 446.684 L 856.477 324.017 C 856.481 302.837 856.276 281.646 856.614 260.472 C 856.798 248.974 858.278 244.579 870.007 242.398 z"/>
<path transform="translate(0,0)" fill="rgb(12,17,32)" d="M 884.028 103.431 C 902.793 99.382 921.28 111.337 925.286 130.11 C 929.292 148.884 917.295 167.344 898.512 171.307 C 879.79 175.258 861.403 163.308 857.409 144.594 C 853.416 125.881 865.324 107.467 884.028 103.431 z"/>
</svg>