<!-- RECRAFT VECTORIZE from logo/options-w/W6-lockup-dark.png -->
<svg version="1.1" xmlns="http://www.w3.org/2000/svg" style="display: block;" viewBox="0 0 2048 584" width="897" height="256" preserveAspectRatio="none">
<path transform="translate(0,0)" fill="rgb(12,17,32)" d="M 0 0 L 2048 0 L 2048 584 L 887.107 584 L 840.688 584 L 0 584 L 0 0 z"/>
<path transform="translate(0,0)" fill="rgb(248,248,249)" d="M 840.688 584 C 838.982 581.975 836.338 579.121 836.293 576.532 C 835.966 558.033 836.099 538.978 836.093 520.528 L 836.073 403.735 L 836.09 286.365 C 836.095 272.796 834.449 233.529 837.274 222.138 C 843.175 217.741 881.85 217.651 888.393 220.97 C 892.434 226.495 891.082 238.334 890.923 245.413 C 916.785 225.681 941.189 215.445 974.537 219.98 C 1001.18 223.683 1025.28 237.795 1041.54 259.227 C 1058.19 281.136 1065.31 308.838 1061.28 336.065 C 1057.58 362.556 1043.48 386.479 1022.08 402.535 C 1000.16 419.099 972.525 426.205 945.332 422.269 C 923.499 419.123 907.815 410.199 890.879 396.751 L 891.052 516.469 C 891.064 535.802 891.402 556.342 890.574 575.706 C 890.455 578.493 888.811 581.795 887.107 584 L 840.688 584 z"/>
<path transform="translate(0,0)" fill="rgb(12,17,32)" d="M 951.979 274.523 C 977.774 269.912 1002.42 287.112 1006.98 312.916 C 1011.55 338.719 994.301 363.329 968.49 367.849 C 942.743 372.357 918.208 355.165 913.654 329.426 C 909.1 303.688 926.248 279.122 951.979 274.523 z"/>
<path transform="translate(0,0)" fill="rgb(248,248,249)" d="M 172.486 110.288 C 184.268 107.5 228.944 109.025 243.983 109.332 C 288.309 110.236 336.526 107.877 380.387 109.707 C 424.534 107.717 466.14 145.131 467.189 189.612 C 468.154 230.494 467.189 271.996 467.245 312.951 L 467.355 367.447 C 467.375 380.383 468.04 396.977 465.6 409.406 C 462.782 424.173 455.901 437.861 445.729 448.931 C 431.643 464.203 412.038 473.213 391.275 473.958 C 388.583 474.065 383.887 474.238 381.302 474.034 C 368.421 475.321 349.026 474.762 335.704 474.754 L 258.663 474.711 C 242.256 474.722 185.021 476.518 172.764 473.812 C 159.891 472.559 144.527 464.31 134.575 456.087 C 100.479 427.916 102.04 399.343 102.068 359.004 L 102.054 297.98 L 102.066 226.383 C 102.092 193.862 98.8726 160.984 123.323 135.601 C 136.365 122.061 153.485 111.998 172.486 110.288 z"/>
<path transform="translate(0,0)" fill="rgb(64,57,203)" d="M 380.387 109.707 C 424.534 107.717 466.14 145.131 467.189 189.612 C 468.154 230.494 467.189 271.996 467.245 312.951 L 467.355 367.447 C 467.375 380.383 468.04 396.977 465.6 409.406 C 462.782 424.173 455.901 437.861 445.729 448.931 C 431.643 464.203 412.038 473.213 391.275 473.958 C 388.583 474.065 383.887 474.238 381.302 474.034 C 391.605 462.876 385.227 446.893 387.216 432.585 C 388.449 423.712 383.427 416.625 373.857 416.249 C 357.377 415.601 340.767 415.846 324.186 415.856 L 226.672 415.94 L 226.596 321.169 C 240.325 321.157 326.803 323.111 331.559 318.798 C 334.972 315.703 335.936 311.017 336.155 306.588 C 336.53 298.984 337.622 271.452 332.819 266.643 C 330.295 264.115 324.895 263.383 321.518 263.031 C 310.848 261.92 299.554 262.698 288.799 262.72 L 226.684 262.876 C 226.206 231.658 226.629 199.3 226.612 167.988 L 322.462 168.125 C 339.352 168.156 355.301 168.242 372.918 167.811 C 393.959 168.592 385.134 143.107 387.13 129.901 C 388.359 121.768 386.484 115.564 380.387 109.707 z"/>
<path transform="translate(0,0)" fill="rgb(64,57,203)" d="M 172.764 473.812 C 159.891 472.559 144.527 464.31 134.575 456.087 C 100.479 427.916 102.04 399.343 102.068 359.004 L 102.054 297.98 L 102.066 226.383 C 102.092 193.862 98.8726 160.984 123.323 135.601 C 136.365 122.061 153.485 111.998 172.486 110.288 C 168.825 114.345 167.827 116.072 167.556 121.704 C 166.752 138.446 167.707 155.37 167.919 172.104 C 168.079 199.519 168.101 226.935 167.984 254.35 L 168.015 392.148 C 167.946 414.925 167.065 437.698 167.369 460.393 C 167.447 466.2 168.741 469.46 172.764 473.812 z"/>
<path transform="translate(0,0)" fill="rgb(248,248,249)" d="M 1836.7 219.01 L 1898.55 219.1 C 1891.65 242.113 1884.11 265.344 1876.9 288.291 L 1818.39 474.479 C 1797.73 474.316 1777.06 474.375 1756.4 474.655 C 1743.11 433.564 1732.29 388.343 1719.28 346.824 C 1713.68 328.954 1709.3 309.991 1702.69 292.46 C 1697.73 313.693 1690.18 337.61 1684.05 358.728 L 1650.62 474.357 L 1588.18 474.461 C 1562 390.07 1532 303.387 1504.47 219.068 L 1566.7 219.103 C 1582.53 275.508 1603.5 337.235 1621.07 393.869 C 1639.07 338.709 1655.48 275.308 1672.38 219.037 L 1734.52 219.109 L 1766.05 327.494 C 1771.99 347.883 1779 374.166 1786.15 393.766 C 1788.67 379.467 1798.51 349.257 1803.07 333.634 L 1836.7 219.01 z"/>
<path transform="translate(0,0)" fill="rgb(248,248,249)" d="M 1325.86 219.399 C 1396.04 213.621 1457.66 265.725 1463.63 335.89 C 1469.59 406.055 1417.65 467.815 1347.51 473.97 C 1277.09 480.147 1215.04 427.968 1209.06 357.537 C 1203.07 287.106 1255.41 225.2 1325.86 219.399 z"/>
<path transform="translate(0,0)" fill="rgb(12,17,32)" d="M 1324.18 278.522 C 1362.04 271.764 1398.15 297.139 1404.63 335.048 C 1411.11 372.956 1385.46 408.883 1347.51 415.079 C 1309.95 421.209 1274.48 395.892 1268.07 358.38 C 1261.66 320.867 1286.71 285.209 1324.18 278.522 z"/>
<path transform="translate(0,0)" fill="rgb(248,248,249)" d="M 563.589 109.273 C 563.836 109.249 564.083 109.227 564.331 109.208 C 567.874 108.932 572.014 108.865 575.569 108.93 C 636.292 110.029 697.189 109.323 757.898 109.733 C 775.522 107.757 775.216 123.82 774.129 136.757 C 773.179 148.046 778.644 166.616 762.668 167.502 C 744.731 168.496 727.311 168.106 709.589 168.094 L 613.442 167.969 C 612.541 198.472 613.264 232.122 613.324 262.897 C 625.747 262.887 713.509 260.757 718.686 265.57 C 722.05 268.698 723.137 273.502 723.247 277.946 C 723.46 286.606 725.101 312.229 719.511 317.878 C 717.418 319.994 714.224 320.359 711.36 320.68 C 700.097 321.942 688.106 321.18 676.753 321.174 L 613.386 321.076 C 612.999 338.187 613.276 356.311 613.255 373.5 C 613.211 387.669 613.265 401.837 613.418 416.005 L 711.471 415.908 C 728.291 415.896 745.18 415.651 761.961 416.234 C 778.572 416.811 772.921 436.264 774.172 447.246 C 774.759 452.399 774.911 462.437 772.854 467.067 C 771.576 470.019 769.143 472.317 766.123 473.425 C 764.096 474.173 761.732 474.672 759.575 474.643 C 721.358 474.126 683.109 474.565 644.887 474.409 C 621.249 474.312 597.636 475.359 574.038 475.062 C 569.047 475 561.937 474.057 557.461 472.034 C 553.03 458.182 554.96 392.929 554.972 375.166 L 554.934 227.409 L 554.928 155.321 C 554.93 145.746 554.39 122.163 556.13 114.145 C 558.238 111.518 560.575 110.694 563.589 109.273 z"/>
<path transform="translate(0,0)" fill="rgb(248,248,249)" d="M 1111.38 219.267 C 1122.47 218.963 1148.04 216.103 1155.33 224.114 C 1156.67 228.093 1157.44 235.241 1157.47 239.575 C 1157.74 290.517 1157.68 340.885 1157.65 391.901 C 1157.63 415.319 1158.17 442.55 1156.84 466.081 C 1156.66 469.35 1153.04 472.233 1150.33 473.973 C 1143.36 474.544 1110.69 477.233 1105.05 469.872 C 1103.94 468.428 1102.94 458.268 1102.95 455.436 C 1103.28 378.847 1101.53 301.802 1103.78 225.386 C 1103.85 222.914 1108.93 220.266 1111.38 219.267 z"/>
<path transform="translate(0,0)" fill="rgb(248,248,249)" d="M 1123.32 110.482 C 1137.96 106.737 1152.86 115.626 1156.52 130.292 C 1160.17 144.959 1151.2 159.801 1136.51 163.37 C 1121.94 166.909 1107.25 158.024 1103.63 143.481 C 1100 128.937 1108.8 114.195 1123.32 110.482 z"/>
</svg>