<!-- RECRAFT VECTORIZE from logo/options-w/W6-lockup-light.png -->
<svg version="1.1" xmlns="http://www.w3.org/2000/svg" style="display: block;" viewBox="0 0 2048 584" width="897" height="256" preserveAspectRatio="none">
<path transform="translate(0,0)" fill="rgb(255,255,255)" d="M 0 0 L 2048 0 L 2048 584 L 887.147 584 L 840.333 584 L 0 584 L 0 0 z"/>
<path transform="translate(0,0)" fill="rgb(12,17,32)" d="M 840.333 584 C 838.772 581.69 836.417 578.367 836.371 575.649 C 836.054 556.667 836.186 536.981 836.181 518.056 L 836.16 395.963 L 836.164 281.985 C 836.166 268.057 835.399 235.646 837.099 222.936 C 842.274 217.032 881.146 218.106 888.374 221.114 C 892.406 225.732 890.854 239.463 890.785 246.019 C 914.698 226.352 938.767 216.629 970.341 219.678 C 997.307 222.225 1022.13 235.454 1039.28 256.417 C 1056.62 277.499 1064.73 304.679 1061.77 331.813 C 1059.02 358.666 1045.71 383.324 1024.77 400.357 C 1003.61 417.559 976.452 425.589 949.34 422.66 C 926.383 420.301 907.993 410.798 890.431 396.248 C 892.378 428.174 890.171 466.507 890.976 499.179 C 891.575 523.45 890.843 550.705 890.48 575.037 C 890.43 578.371 888.954 581.242 887.147 584 L 840.333 584 z"/>
<path transform="translate(0,0)" fill="rgb(255,255,255)" d="M 951.767 274.516 C 977.614 269.784 1002.39 286.959 1007.02 312.825 C 1011.65 338.691 994.38 363.396 968.496 367.928 C 942.754 372.436 918.212 355.28 913.605 329.555 C 908.998 303.83 926.06 279.222 951.767 274.516 z"/>
<path transform="translate(0,0)" fill="rgb(48,47,130)" d="M 381.031 110.374 L 386.027 109.274 C 395.313 110.227 402.563 111.053 411.234 114.252 C 442.854 125.916 467.844 158.905 467.109 193.066 C 466.955 200.205 467.191 207.699 467.195 214.924 L 467.202 273.841 L 467.209 355.79 C 467.2 371.433 467.909 389.159 466.332 404.263 C 462.47 441.242 431.38 470.863 394.35 473.685 C 391.616 473.894 384.207 474.431 381.941 475.012 L 381.864 473.282 C 391.307 463.178 385.318 445.806 387.217 432.59 C 388.483 423.78 383.438 416.627 373.846 416.243 C 357.335 415.583 340.658 415.829 324.025 415.84 L 226.656 415.933 L 226.622 321.206 C 240.028 321.173 326.766 323.013 331.303 319.044 C 334.807 315.979 335.832 311.542 336.125 307.067 C 336.655 298.958 337.457 271.142 332.519 266.006 C 327.284 260.563 240.249 262.828 226.684 262.864 C 226.234 231.619 226.63 199.369 226.61 168.041 L 354.942 168.13 C 379.944 168.187 389.693 171.174 386.871 141.048 C 385.759 129.176 391.36 120.438 381.031 110.374 z"/>
<path transform="translate(0,0)" fill="rgb(12,17,32)" d="M 1836.83 219.041 L 1898.47 219.162 L 1877.67 285.851 C 1871.08 303.972 1863.89 329.484 1857.96 348.344 L 1818.36 474.347 L 1756.41 474.48 C 1743.62 435.739 1734.24 394.305 1721.81 355.288 C 1715.22 334.584 1710.4 312.846 1702.69 292.493 C 1694.63 326.723 1681.11 366.806 1671.54 401.293 C 1666.45 419.621 1656.21 459.07 1650.25 474.304 L 1588.22 474.311 C 1569.6 413.738 1547.42 352.64 1528.41 292.057 C 1520.83 267.905 1511.77 243.384 1504.88 219.087 L 1566.62 219.183 C 1571.77 238.422 1579.82 261.961 1585.92 281.465 L 1621.15 393.858 C 1627 376.902 1632.82 354.675 1637.98 336.941 L 1672.44 219.084 L 1734.55 219.237 C 1747.14 264.887 1761.4 310.313 1774.25 355.911 C 1777.7 368.145 1781.49 381.479 1786.12 393.254 C 1795.71 355.752 1808.32 318.181 1818.61 280.782 C 1824.24 260.301 1830.49 239.279 1836.83 219.041 z"/>
<path transform="translate(0,0)" fill="rgb(12,17,32)" d="M 1326.83 219.384 C 1397.02 214.136 1458.22 266.689 1463.65 336.871 C 1469.07 407.053 1416.67 468.387 1346.51 473.988 C 1276.09 479.609 1214.49 426.982 1209.04 356.55 C 1203.6 286.118 1256.38 224.651 1326.83 219.384 z"/>
<path transform="translate(0,0)" fill="rgb(255,255,255)" d="M 1324.29 278.457 C 1361.99 271.792 1397.95 296.935 1404.64 334.627 C 1411.32 372.318 1386.2 408.297 1348.51 415.002 C 1310.79 421.713 1274.78 396.566 1268.09 358.845 C 1261.4 321.125 1286.57 285.127 1324.29 278.457 z"/>
<path transform="translate(0,0)" fill="rgb(12,17,32)" d="M 563.789 109.2 C 587.171 107.752 625.477 109.697 650.794 109.698 L 722.915 109.668 C 735.71 109.664 748.408 109.603 761.235 109.858 C 768.826 110.009 774.191 114.67 774 122.418 C 773.729 133.414 776.734 157.04 769.655 165.497 C 759.733 170.688 634.684 167.951 613.343 167.927 C 612.517 198.357 613.237 232.204 613.217 262.909 C 624.891 262.92 713.739 261.205 718.103 265.145 C 721.742 268.431 722.992 272.678 723.207 277.459 C 723.401 281.784 722.849 286.144 722.892 290.476 C 722.985 299.747 725.445 311.122 718.683 318.629 C 711.807 322.65 627.829 321.077 613.322 321.057 C 612.899 337.989 613.257 356.446 613.245 373.5 L 613.332 416.073 L 714.401 416.005 C 730.197 415.998 748.155 415.439 763.845 416.792 C 766.593 417.243 770.076 418.086 771.437 421.146 C 776.746 433.087 773.388 451.753 773.526 464.701 C 773.596 471.293 765.744 474.386 760.152 474.382 C 746.938 474.371 733.499 474.346 720.177 474.337 L 637.485 474.327 C 618.434 474.349 599.423 474.989 580.378 475.107 C 574.713 475.143 569.242 474.878 563.681 473.837 C 561.345 473.4 558.862 472.911 557.444 470.792 C 555.658 468.124 555.156 465.495 555.022 462.346 C 555.124 437.506 555.078 412.509 555.079 387.685 L 555.029 235.022 L 555.016 158.12 C 555.018 147.393 554.437 123.471 556.234 114.16 C 558.496 111.189 560.388 110.665 563.789 109.2 z"/>
<path transform="translate(0,0)" fill="rgb(48,47,130)" d="M 169.861 473.547 C 133.095 462.108 105.447 436.245 102.625 395.257 C 101.881 384.463 102.208 373.594 102.196 362.766 L 102.155 299.168 L 102.166 226.909 C 102.176 209.561 101.546 192.254 104.074 175.056 C 108.931 142.009 137.968 114.686 171.004 110.563 L 171.792 111.278 C 169.229 114.594 167.269 118.765 167.31 122.985 C 167.714 164.077 168.125 205.718 167.985 246.793 L 168.021 394.75 C 167.993 417.041 166.83 439.337 167.375 461.565 C 167.512 467.15 168.706 468.821 172.135 473.06 L 169.861 473.547 z"/>
<path transform="translate(0,0)" fill="rgb(12,17,32)" d="M 1152.39 472.914 C 1143.82 475.565 1111.42 476.904 1104.52 469.255 C 1102.22 458.44 1102.88 433.192 1102.87 420.86 L 1102.83 341.934 L 1102.86 269.159 C 1102.86 256.773 1102.27 236.271 1104.04 224.821 C 1108.35 216.512 1145.89 217.679 1152.3 221.075 C 1159.82 228.734 1157.43 241.995 1157.44 252.656 L 1157.44 299.223 L 1157.4 454.832 C 1157.33 463.469 1158.21 466.645 1152.39 472.914 z"/>
<path transform="translate(0,0)" fill="rgb(7,10,19)" d="M 1152.39 472.914 C 1150.3 470.51 1150.79 450.173 1150.77 446.034 L 1150.73 390.367 L 1150.72 279.878 C 1150.69 261.454 1150.26 242.917 1150.67 224.502 C 1150.7 222.864 1151.38 222.434 1152.3 221.075 C 1159.82 228.734 1157.43 241.995 1157.44 252.656 L 1157.44 299.223 L 1157.4 454.832 C 1157.33 463.469 1158.21 466.645 1152.39 472.914 z"/>
<path transform="translate(0,0)" fill="rgb(12,17,32)" d="M 1153.26 151.084 C 1146.99 161.308 1134.77 166.224 1123.18 163.185 C 1111.58 160.146 1103.34 149.869 1102.9 137.888 C 1102.45 125.906 1109.91 115.048 1121.25 111.16 C 1132.59 107.271 1145.14 111.271 1152.14 121.004 C 1158.54 129.892 1158.97 141.747 1153.26 151.084 z"/>
<path transform="translate(0,0)" fill="rgb(7,10,19)" d="M 1152.14 121.004 C 1158.54 129.892 1158.97 141.747 1153.26 151.084 C 1150.19 147.873 1151.28 125.816 1152.14 121.004 z"/>
<path transform="translate(0,0)" fill="rgb(197,197,214)" d="M 172.135 473.06 C 180.931 474.908 376.058 474.841 381.864 473.282 L 381.941 475.012 C 370.945 479.733 272.781 474.232 253.418 476.317 C 242.876 477.452 178.85 476.175 169.861 473.547 L 172.135 473.06 z"/>
<path transform="translate(0,0)" fill="rgb(197,197,214)" d="M 381.031 110.374 C 362.005 109.502 340.259 109.991 321.056 110.001 L 216.381 109.888 C 203.509 109.822 187.267 110.387 174.722 109.759 L 175.27 109.072 C 184.409 107.344 202.807 107.874 212.698 107.902 L 265.86 107.918 L 339.786 107.836 C 352.065 107.821 374.766 107.065 386.027 109.274 L 381.031 110.374 z"/>
</svg>