<!-- RECRAFT VECTORIZE from logo/options-v3/G1-optical-E.png -->
<svg version="1.1" xmlns="http://www.w3.org/2000/svg" style="display: block;" viewBox="0 0 2048 2048" width="512" height="512" preserveAspectRatio="none">
<path transform="translate(0,0)" fill="rgb(48,47,130)" d="M 411.543 0 L 1631.53 0 C 1640.43 3.60267 1660.26 4.34895 1670.79 6.37882 C 1816.92 34.5526 1943.88 147.14 2007.04 279.486 C 2021.67 310.019 2032.77 342.123 2040.12 375.173 C 2042.22 384.988 2045.85 411.848 2048 418.587 L 2048 1636.76 L 2047.73 1637.98 C 2041.76 1665.53 2041.36 1686.66 2033.17 1716.94 C 2004.35 1823.27 1937.42 1915.29 1845.14 1975.46 C 1799.08 2005.61 1747.83 2026.98 1694 2038.48 C 1684.5 2040.6 1646.29 2046 1641.65 2048 L 412.207 2048 C 400.361 2043.9 378.673 2041.98 365.221 2038.89 C 188.213 1998.27 41.5467 1838.4 5.56732 1661.97 C 3.54893 1652.07 3.21884 1639.58 0 1630.33 L 0 412.149 C 1.27203 408.602 5.49764 374.415 7.0676 366.171 C 14.5851 325.283 27.7736 285.644 46.2511 248.403 C 101.935 136.258 202.051 52.568 322.292 17.6505 C 338.678 12.7385 354.325 9.43964 371.103 6.31786 C 382.081 4.2752 402.007 3.6458 411.543 0 z"/>
<path transform="translate(0,0)" fill="rgb(254,254,254)" d="M 537.898 512.416 C 560.629 509.951 592.803 511.844 616.503 511.863 L 741.683 511.87 L 1128.41 511.859 L 1341.07 511.811 L 1406.96 511.794 C 1420.15 511.795 1437.47 511.412 1450.3 512.93 C 1467.29 514.824 1483.15 522.328 1495.4 534.255 C 1510.9 549.098 1519.76 569.567 1519.96 591.028 C 1520.26 612.473 1511.89 633.128 1496.74 648.317 C 1485.3 659.852 1468.8 669.038 1452.68 670.635 C 1428.05 673.072 1400.05 672.144 1375.04 672.139 L 1231.66 672.086 L 736.115 672.171 L 736.197 895.934 L 1140.34 895.861 L 1257.09 895.791 C 1278.55 895.777 1304.79 894.653 1325.82 897.346 C 1362.64 902.059 1392.06 938.235 1392.16 975.064 C 1392.3 996.743 1383.66 1017.56 1368.21 1032.77 C 1340.82 1059.95 1310.36 1056.18 1274.65 1056.16 L 1197.46 1056.09 L 919.5 1056.11 L 736.115 1056.17 L 736.199 1279.93 L 1215.69 1279.81 L 1365.09 1279.81 C 1391.6 1279.81 1419.37 1279.31 1445.84 1280.58 C 1461.87 1281.35 1474.61 1286.07 1487.6 1295.7 C 1504.73 1308.37 1516.09 1327.36 1519.14 1348.45 C 1522.31 1369.38 1516.92 1390.71 1504.2 1407.62 C 1476.38 1444.2 1442.67 1440.17 1401.34 1440.16 L 1322.31 1440.1 L 1053.57 1440.09 L 706.383 1440.1 L 599.591 1440.14 C 558.308 1440.21 518.884 1446.1 484.476 1419.28 C 464.569 1403.78 451.764 1380.89 448.964 1355.82 C 447.258 1340.51 447.83 1320.01 447.86 1304.27 L 447.908 1229.04 L 447.864 973.654 L 447.844 721.117 L 447.855 643.355 C 447.86 628.55 447.092 611.835 448.774 597.224 C 454.367 548.662 490.766 516.889 537.898 512.416 z"/>
</svg>