<!-- RECRAFT VECTORIZE from logo/options-v3/G10-block-E.png -->
<svg version="1.1" xmlns="http://www.w3.org/2000/svg" style="display: block;" viewBox="0 0 2048 2048" width="512" height="512" preserveAspectRatio="none">
<path transform="translate(0,0)" fill="rgb(65,57,203)" d="M 412.581 0 L 1630.74 0 C 1638.97 3.66447 1661.73 4.32663 1672.11 6.40529 C 1850.01 42.0358 2000.55 199.787 2040.3 374.959 C 2043.14 387.484 2044.48 407.787 2048 418.543 L 2048 1636.75 L 2047.73 1637.97 C 2045.66 1647.78 2044.76 1658.65 2043.28 1668.67 C 2040.96 1684.28 2037.8 1699.76 2033.83 1715.03 C 2005.83 1820.9 1940 1912.84 1848.8 1973.46 C 1799.54 2006.03 1752.38 2025.02 1694.79 2038.61 C 1684.91 2040.95 1648.43 2045.74 1643.52 2048 L 409.555 2048 C 401.756 2045.23 374.063 2041.08 363.045 2038.58 C 327.343 2030.34 292.889 2017.4 260.583 2000.11 C 151.496 1941.71 59.8952 1834.97 20.2436 1717.71 C 13.9769 1698.86 8.99166 1679.61 5.32211 1660.09 C 3.58115 1650.82 2.83212 1638.2 0 1629.66 L 0 412.457 C 2.89314 404.483 2.37929 393.035 3.66757 384.469 C 11.1964 334.411 26.5763 285.048 50.1201 240.268 C 106.891 131.301 206.023 50.5152 324.206 16.9067 C 343.523 11.4459 363.166 7.21315 383.018 4.23372 C 392.355 2.84152 403.881 3.21523 412.581 0 z"/>
<path transform="translate(0,0)" fill="rgb(254,254,254)" d="M 479.934 479.957 L 1568.17 479.948 C 1566.59 585.036 1568.19 694.658 1568.07 800.037 L 832.093 800.145 L 832.118 863.93 L 1376.17 863.95 C 1374.59 969.138 1376.18 1078.53 1376.07 1184.04 L 992.5 1184.08 L 832.092 1184.15 L 832.116 1247.93 L 1568.17 1247.95 C 1566.59 1353.03 1568.19 1462.66 1568.07 1568.04 L 479.932 1568.03 L 479.934 479.957 z"/>
</svg>