<!-- RECRAFT VECTORIZE from logo/options-v3/G11-letter-E.png -->
<svg version="1.1" xmlns="http://www.w3.org/2000/svg" style="display: block;" viewBox="0 0 2048 2048" width="512" height="512" preserveAspectRatio="none">
<path transform="translate(0,0)" fill="rgb(29,28,76)" d="M 411.257 0 L 1631.66 0 C 1637.84 2.4621 1646.1 2.98005 1652.8 3.88813 C 1807.39 24.8206 1942.39 143.576 2007.83 281.522 C 2022.06 311.335 2032.84 342.675 2039.96 374.933 C 2042.27 385.737 2045.47 410.018 2048 418.528 L 2048 1636.92 C 2041.76 1666.28 2041.08 1687.25 2032.6 1718.25 C 2003.68 1823.86 1937.11 1915.24 1845.46 1975.15 C 1798.83 2005.65 1746.97 2027.27 1692.48 2038.91 C 1683.76 2040.84 1646.82 2045.63 1641.65 2048 L 413.173 2048 C 406.723 2045.67 376.443 2041.45 367.15 2039.35 C 333.4 2031.89 299.413 2019.66 268.716 2003.92 C 139.056 1937.39 36.881 1809.19 6.3879 1666.1 C 4.09256 1655.33 3.59329 1640.27 0 1630.36 L 0 411.395 C 1.48062 407.318 5.73492 373.598 7.3583 365.1 C 14.907 324.521 28.0718 285.192 46.4731 248.246 C 101.808 136.969 200.888 53.6835 320.022 18.3055 C 337.138 13.171 353.428 9.68099 370.947 6.34937 C 381.881 4.27011 401.673 3.59533 411.257 0 z"/>
<path transform="translate(0,0)" fill="rgb(254,254,254)" d="M 675.51 544.376 C 677.706 544.049 685.637 543.852 687.969 543.849 C 733.86 543.799 779.823 543.886 825.712 543.884 L 1106.05 543.846 L 1237.16 543.812 C 1260.31 543.812 1289.82 542.328 1312.2 545.616 C 1362.35 552.984 1407.39 606.652 1407.77 656.276 C 1407.97 685.509 1396.5 713.614 1375.9 734.358 C 1338.75 771.888 1300.98 768.187 1252.58 768.165 L 1156.27 768.104 L 800.133 768.173 L 800.245 911.93 L 1011.68 911.84 C 1025.3 911.837 1039.39 911.898 1052.71 911.834 C 1100.93 911.601 1142.25 906.953 1179.02 944.958 C 1200.26 966.913 1215.74 992.817 1215.81 1024.59 C 1215.85 1053.96 1204.19 1082.14 1183.4 1102.89 C 1168.42 1117.96 1149.44 1128.42 1128.69 1133.02 C 1106.17 1137.9 1037.64 1136.13 1010.86 1136.12 L 800.133 1136.17 L 800.185 1185.5 L 800.245 1279.93 L 1145.98 1279.83 L 1245.85 1279.83 C 1288.77 1279.83 1322.19 1274.79 1358.28 1302.05 C 1409.22 1340.53 1425.31 1406.9 1385.45 1459.36 C 1367.27 1483.48 1340.05 1499.16 1310.06 1502.8 C 1295.53 1504.64 1278.25 1504.2 1263.39 1504.19 L 1200.96 1504.13 L 991.831 1504.11 L 780.833 1504.17 L 717.305 1504.22 C 679.69 1504.23 654.405 1506.05 623.297 1480.94 C 600.334 1462.41 580.635 1434.87 576.627 1404.92 C 574.816 1391.38 575.81 1372.97 575.807 1359.27 L 575.828 1278.15 L 575.849 1017.66 L 575.808 762.929 L 575.808 685.94 C 575.817 645.842 573.451 618.174 600.669 584.845 C 619.204 561.894 646.156 547.32 675.51 544.376 z"/>
</svg>