<!-- RECRAFT VECTORIZE from logo/options-v3/G12-e-arc.png -->
<svg version="1.1" xmlns="http://www.w3.org/2000/svg" style="display: block;" viewBox="0 0 2048 2048" width="512" height="512" preserveAspectRatio="none">
<path transform="translate(0,0)" fill="rgb(48,47,130)" d="M 411.543 0 L 1631.53 0 C 1640.43 3.60277 1660.26 4.34882 1670.79 6.3789 C 1816.92 34.5526 1943.88 147.141 2007.04 279.485 C 2021.67 310.02 2032.77 342.123 2040.12 375.174 C 2042.22 384.993 2045.84 411.844 2048 418.587 L 2048 1636.76 L 2047.73 1637.98 C 2041.76 1665.54 2041.36 1686.66 2033.16 1716.94 C 2004.35 1823.27 1937.42 1915.29 1845.14 1975.46 C 1799.08 2005.61 1747.83 2026.98 1694 2038.48 C 1684.48 2040.6 1646.3 2046 1641.65 2048 L 412.207 2048 C 400.32 2043.9 378.701 2041.98 365.221 2038.89 C 188.211 1998.27 41.5517 1838.4 5.56573 1661.97 C 3.54888 1652.08 3.22511 1639.56 0 1630.33 L 0 412.149 C 1.27212 408.602 5.49776 374.416 7.06776 366.171 C 14.5852 325.283 27.7734 285.645 46.2506 248.404 C 101.935 136.259 202.051 52.5682 322.292 17.6509 C 338.679 12.7386 354.323 9.43863 371.103 6.31754 C 382.079 4.27601 402.01 3.64498 411.543 0 z"/>
<path transform="translate(0,0)" fill="rgb(254,254,254)" d="M 704.199 1311.93 L 1094.81 1311.85 L 1218.63 1311.81 C 1252.89 1311.79 1296.59 1307.43 1326.88 1324.12 C 1349.19 1336.58 1365.57 1357.45 1372.37 1382.07 C 1379.31 1407.05 1375.95 1433.76 1363.04 1456.23 C 1350.66 1477.48 1329.1 1494.4 1305.25 1500.58 C 1287.47 1505.19 1261.4 1504.11 1242.35 1504.12 L 1177.53 1504.12 L 946.435 1504.11 L 654.385 1504.1 L 563.15 1504.14 C 544.477 1504.18 526.21 1504.31 507.508 1503.69 C 466.036 1502.3 428.88 1472.25 419.025 1431.92 C 414.857 1414.86 415.822 1393.81 415.841 1376.04 L 415.9 1317.01 L 415.894 1096.04 L 415.875 791.415 L 415.826 692.713 C 415.815 643.122 409.366 598.171 453.015 564.237 C 480.092 543.186 504.814 543.653 537.774 543.797 C 556.937 543.881 576.548 543.87 595.657 543.875 L 792.156 543.856 L 1120.26 543.814 L 1226.13 543.823 C 1245.08 543.828 1268.93 543.169 1287.38 544.434 C 1303.51 545.51 1319.08 550.735 1332.6 559.604 C 1358.38 576.48 1369.7 599.037 1375.7 628.282 C 1373.33 633.287 1364.79 636.986 1359.55 640.898 C 1330.78 662.413 1326.61 689.514 1329.95 722.244 C 1296.19 741.01 1257.81 736.151 1220.13 736.136 L 1098.21 736.105 L 704.115 736.17 L 704.197 927.934 L 1066.06 927.826 L 1169.03 927.796 C 1185.93 927.797 1216.63 927.035 1232.31 929.505 C 1251.08 932.575 1268.47 941.258 1282.21 954.41 C 1300.85 972.184 1311.54 996.715 1311.88 1022.47 C 1312.43 1048.11 1302.57 1072.89 1284.55 1091.15 C 1251.07 1125.14 1213.82 1120.17 1170.07 1120.15 L 1071.25 1120.08 L 704.115 1120.17 L 704.199 1311.93 z"/>
<path transform="translate(0,0)" fill="rgb(164,179,252)" d="M 1375.7 628.282 L 1376.64 629.808 C 1381.77 629.262 1385.76 626.946 1390.51 626.038 C 1408.97 622.505 1430.33 624.381 1448.94 625.659 C 1555.34 633.847 1656.76 674.146 1739.76 741.224 C 1848.88 829.377 1918.45 957.318 1933.12 1096.83 C 1947.74 1236.32 1906.28 1375.91 1817.9 1484.81 C 1729.55 1593.5 1601.67 1662.68 1462.35 1677.16 C 1426.69 1680.83 1386.31 1685.79 1357.34 1661.89 C 1340.8 1648.37 1330.41 1628.75 1328.5 1607.47 C 1326.5 1585.94 1333.25 1564.51 1347.22 1548.01 C 1378.42 1511.44 1419.76 1522.47 1462.47 1515.93 C 1547.97 1503.07 1626.22 1460.55 1683.53 1395.81 C 1750.59 1319.97 1781.11 1225.75 1774.8 1125.06 C 1767.95 1029.21 1723.76 939.872 1651.74 876.261 C 1594.26 825.49 1522.38 793.921 1446.11 785.954 C 1420.63 783.499 1393.24 786.891 1370.66 774.721 C 1353.51 765.474 1343.05 753.604 1334.85 735.842 C 1332.85 731.515 1331.19 724.932 1329.95 722.244 C 1326.61 689.514 1330.78 662.413 1359.55 640.898 C 1364.79 636.986 1373.33 633.287 1375.7 628.282 z"/>
</svg>