<!-- RECRAFT VECTORIZE from logo/options-v3/G13-nested-E.png -->
<svg version="1.1" xmlns="http://www.w3.org/2000/svg" style="display: block;" viewBox="0 0 2048 2048" width="512" height="512" preserveAspectRatio="none">
<path transform="translate(0,0)" fill="rgb(48,47,130)" d="M 411.543 0 L 1631.53 0 C 1640.43 3.6026 1660.26 4.34865 1670.79 6.37851 C 1816.92 34.5527 1943.88 147.141 2007.04 279.486 C 2021.67 310.02 2032.77 342.123 2040.12 375.173 C 2042.22 384.991 2045.84 411.844 2048 418.587 L 2048 1636.76 L 2047.73 1637.98 C 2041.76 1665.54 2041.36 1686.66 2033.17 1716.94 C 2004.35 1823.27 1937.42 1915.29 1845.14 1975.46 C 1799.08 2005.61 1747.83 2026.98 1694 2038.48 C 1684.49 2040.6 1646.29 2046 1641.65 2048 L 412.207 2048 C 400.36 2043.9 378.673 2041.98 365.221 2038.89 C 188.212 1998.27 41.5482 1838.4 5.56595 1661.97 C 3.549 1652.08 3.22514 1639.56 0 1630.33 L 0 412.148 C 1.29736 408.531 5.35609 375.168 6.96832 366.684 C 14.5231 325.353 27.8665 285.293 46.6046 247.688 C 102.367 135.892 202.318 52.4915 322.292 17.6509 C 338.679 12.7391 354.324 9.43893 371.103 6.31772 C 382.08 4.27577 402.009 3.64528 411.543 0 z"/>
<path transform="translate(0,0)" fill="rgb(254,254,254)" d="M 543.923 479.984 L 1504.15 479.951 L 1504.07 800.072 L 896.198 800.171 C 895.835 831.894 896.159 864.266 896.081 896.057 L 863.922 896.051 L 863.916 800.018 C 874.44 799.792 885.294 799.928 895.846 799.927 L 895.947 768.015 C 1022.64 766.204 1152.88 768.004 1279.92 767.825 L 1279.94 704.121 L 768.115 704.172 L 768.192 959.5 L 768.196 1151.93 L 864.151 1151.95 L 864.197 1247.93 L 1504.15 1247.95 L 1504.07 1568.07 L 543.922 1568.06 L 543.923 479.984 z"/>
<path transform="translate(0,0)" fill="rgb(254,254,254)" d="M 1119.92 895.985 C 1183.22 895.189 1248.79 895.622 1312.15 895.951 L 1312.08 1152.06 L 1279.92 1152.05 L 1279.95 1088.12 L 1152.5 1088.11 L 895.923 1088.06 L 895.924 960.016 C 969.764 958.886 1045.88 959.894 1119.92 959.822 L 1119.92 895.985 z"/>
</svg>