<!-- RECRAFT VECTORIZE from logo/options-v3/G14-custom-E.png -->
<svg version="1.1" xmlns="http://www.w3.org/2000/svg" style="display: block;" viewBox="0 0 2048 2048" width="512" height="512" preserveAspectRatio="none">
<path transform="translate(0,0)" fill="rgb(11,32,75)" d="M 410.453 0 L 1632.56 0 C 1638.45 2.5986 1648.47 3.2461 1655.26 4.20249 C 1811.33 26.1735 1949.47 149.741 2012.2 290.859 C 2024.62 318.339 2034.06 347.071 2040.35 376.564 C 2042.61 387.479 2045.37 409.005 2048 418.297 L 2048 1637.67 C 2041.53 1667.27 2041.13 1687.93 2032.17 1720.14 C 2002.56 1826.2 1935 1917.69 1842.34 1977.19 C 1796.85 2006.5 1746.43 2027.35 1693.52 2038.7 C 1683.46 2040.93 1646.46 2045.83 1641.68 2048 L 412.58 2048 C 407.658 2045.78 375.395 2041.4 366.342 2039.38 C 335.935 2032.29 306.368 2022 278.138 2008.66 C 163.872 1954.55 66.178 1845.04 23.4479 1726.24 C 16.0564 1705.65 10.1674 1684.56 5.82719 1663.12 C 4.00146 1654.08 3.17602 1638.21 0 1630.47 L 0 411.287 C 1.76607 406.549 5.40043 374.956 7.17011 365.69 C 14.7371 325.168 27.8377 285.879 46.104 248.925 C 101.061 137.973 199.487 54.7128 318.017 18.9133 C 335.658 13.544 352.652 9.78531 370.732 6.29998 C 382.025 4.12287 400.46 3.77494 410.453 0 z"/>
<path transform="translate(0,0)" fill="rgb(254,254,254)" d="M 535.27 480.422 C 544.028 479.498 560.902 479.823 569.899 479.827 L 631.156 479.893 L 829.274 479.894 L 1472.02 479.873 C 1513.93 542.712 1557.26 610.336 1600.35 671.877 C 1512.83 673.085 1422.95 672.112 1335.27 672.112 L 832.114 672.14 L 832.213 831.945 L 1376 831.877 L 1460.15 958.046 C 1471.33 974.831 1492.36 1008.45 1504.36 1023.5 C 1469.7 1077.61 1432.06 1130.43 1397.12 1184.41 C 1390.38 1194.81 1382.52 1205.33 1376.6 1216.16 L 1066.5 1216.11 L 832.113 1216.14 L 832.213 1375.95 L 1600.61 1376.06 C 1593.53 1384.82 1583.92 1400.2 1577.55 1409.78 L 1537.41 1470.02 L 1495.43 1532.92 C 1488.79 1542.88 1478.04 1558.08 1472.6 1568.16 L 826.916 1568.11 L 633.162 1568.12 C 597.876 1568.14 560.361 1570.1 525.455 1566.78 C 440.769 1558.72 447.806 1484.68 447.84 1422.3 L 447.885 1323.18 L 447.875 1005.54 L 447.842 711.978 L 447.825 621.134 C 447.832 548.076 443.506 487.369 535.27 480.422 z"/>
</svg>