<!-- RECRAFT VECTORIZE from logo/options-v3/G15-eo-stroke.png -->
<svg version="1.1" xmlns="http://www.w3.org/2000/svg" style="display: block;" viewBox="0 0 2048 2048" width="512" height="512" preserveAspectRatio="none">
<path transform="translate(0,0)" fill="rgb(29,28,76)" d="M 411.257 0 L 1631.66 0 C 1637.84 2.46213 1646.1 2.98003 1652.8 3.88806 C 1807.39 24.8191 1942.4 143.579 2007.83 281.522 C 2022.06 311.334 2032.84 342.675 2039.96 374.933 C 2042.27 385.738 2045.47 410.015 2048 418.528 L 2048 1636.92 C 2041.76 1666.28 2041.08 1687.25 2032.6 1718.25 C 2003.68 1823.86 1937.11 1915.24 1845.46 1975.15 C 1798.83 2005.65 1746.97 2027.27 1692.48 2038.91 C 1683.77 2040.84 1646.82 2045.63 1641.65 2048 L 413.173 2048 C 406.71 2045.66 376.454 2041.45 367.15 2039.35 C 333.398 2031.88 299.416 2019.66 268.716 2003.92 C 139.055 1937.39 36.8825 1809.19 6.38768 1666.1 C 4.09246 1655.33 3.59389 1640.27 0 1630.36 L 0 411.398 C 1.47886 407.337 5.73561 373.592 7.35803 365.101 C 14.9068 324.522 28.0717 285.192 46.4731 248.246 C 101.808 136.968 200.888 53.6834 320.022 18.3054 C 337.138 13.1707 353.428 9.68108 370.947 6.34935 C 381.878 4.27052 401.677 3.59566 411.257 0 z"/>
<path transform="translate(0,0)" fill="rgb(254,254,254)" d="M 571.678 512.368 C 573.188 512.134 580.313 511.903 581.968 511.897 C 624.098 511.752 666.378 511.875 708.499 511.869 L 960.634 511.832 L 1092.68 511.828 C 1114.31 511.83 1138 511.351 1159.5 512.675 C 1171.81 513.434 1187.53 520.89 1196.36 529.76 C 1212.64 546.112 1215.85 562.004 1216.33 583.98 C 1292.74 549.298 1386.36 537.058 1469.29 547.86 C 1596.01 564.151 1710.99 630.313 1788.76 731.681 C 1866.69 833.191 1900.87 961.621 1883.68 1088.44 C 1866.77 1213.86 1800.9 1327.48 1700.45 1404.46 C 1671.52 1427.74 1631.42 1450.51 1597.53 1465.07 C 1504.34 1504.99 1400.94 1514.47 1302.04 1492.16 C 1269.12 1484.61 1247.58 1476.78 1216.53 1464.39 C 1214.77 1500.45 1199.81 1529.33 1161.86 1534.9 C 1138.85 1538.27 1105.06 1536.15 1081 1536.12 L 922.396 1536.1 L 691.023 1536.14 L 617.861 1536.22 C 590.923 1536.24 560.063 1539.91 537.483 1523.12 C 523.975 1512.91 515.098 1497.74 512.819 1480.96 C 511.368 1470.48 511.824 1450.39 511.818 1439.18 L 511.841 1369.12 L 511.842 1127.58 L 511.875 756.603 L 511.816 641.28 C 511.773 619.316 511.308 597.308 512.159 575.364 C 513.54 539.768 536.976 516.29 571.678 512.368 z"/>
<path transform="translate(0,0)" fill="rgb(29,28,76)" d="M 640.093 640.163 L 1087.97 640.123 L 1087.93 665.807 C 1060.85 691.962 1047.29 706.218 1024.15 735.665 C 1008.33 736.465 988.705 735.913 972.579 735.895 L 879.826 735.805 C 848.078 735.783 810.974 730.385 787.063 754.563 C 770.331 771.482 768.1 787.529 767.854 810.398 L 767.788 888.221 C 767.818 919.529 763.358 950.001 787.167 973.688 C 810.18 996.583 843.547 992.281 873.063 992.19 C 891.728 992.105 910.393 992.116 929.058 992.223 C 928.136 1016.78 927.824 1030.93 929.097 1055.75 C 901.825 1056.21 874.066 1055.57 846.73 1055.77 C 823.159 1055.93 803.635 1057.23 786.16 1075.27 C 778.445 1083.24 773.004 1093.14 770.402 1103.92 C 766.664 1119.19 767.801 1147.78 767.801 1164.44 L 768.017 1248.25 C 769.668 1266.05 773.035 1278.75 785.668 1292.15 C 793.659 1300.75 804.01 1306.8 815.424 1309.54 C 833.135 1313.76 866.189 1311.81 885.707 1312.18 C 931.188 1313.03 979.095 1310.81 1024.41 1312.38 C 1043.7 1338.87 1064.32 1359.34 1087.75 1381.92 C 1088.17 1389.76 1087.92 1399.83 1087.96 1407.84 L 640.243 1407.93 C 639.322 1326.36 640.185 1243 640.186 1161.31 L 640.093 640.163 z"/>
<path transform="translate(0,0)" fill="rgb(29,28,76)" d="M 1216.03 729.249 C 1293.24 678.846 1387.16 660.799 1477.56 678.997 C 1569.45 697.506 1650.16 751.934 1701.75 830.198 C 1753.05 908.228 1771.35 1003.4 1752.65 1094.89 C 1733.84 1186.48 1679.33 1266.81 1601.17 1318.12 C 1522.93 1369.38 1427.55 1387.48 1335.98 1368.45 C 1288.9 1358.64 1256.84 1343.79 1216.33 1319.19 C 1216.08 1304.46 1216.05 1289.72 1216.22 1274.99 C 1216.33 1246.73 1217.94 1222.38 1195.76 1201.13 C 1167.72 1174.27 1131.48 1188.39 1100.96 1182.46 C 1165.19 1165.44 1150.84 1106.82 1152.99 1054.85 L 1154.97 1054.86 C 1156.61 1102.96 1186.2 1160.27 1218.09 1195.35 C 1263.99 1246.32 1328.48 1276.65 1397.01 1279.5 C 1465.42 1282.62 1532.2 1258.02 1582.24 1211.26 C 1631.94 1165.4 1661.17 1101.51 1663.38 1033.92 C 1665.62 964.102 1642.31 899.424 1594.09 848.435 C 1547.46 798.69 1482.73 769.846 1414.56 768.423 C 1346.94 766.472 1281.33 791.562 1232.26 838.136 C 1192.41 876.158 1156.18 938.851 1155.01 994.728 L 1152.95 992.722 C 1152.59 979.296 1152.4 965.867 1152.38 952.437 C 1152.23 925.341 1153.57 902.355 1132.27 881.771 C 1122.94 872.757 1112.69 868.331 1100.12 865.482 L 1101.58 865.272 C 1137.35 860.318 1175.42 874.506 1202.65 839.158 C 1218.15 819.04 1216.37 795.104 1216.28 770.564 L 1216.03 729.249 z"/>
<path transform="translate(0,0)" fill="rgb(29,28,76)" d="M 1390.74 897.374 C 1460.8 887.818 1525.3 936.987 1534.65 1007.08 C 1544 1077.17 1494.64 1141.53 1424.52 1150.67 C 1354.7 1159.78 1290.66 1110.67 1281.35 1040.87 C 1272.04 971.066 1320.96 906.89 1390.74 897.374 z"/>
<path transform="translate(0,0)" fill="rgb(157,158,175)" d="M 1152.99 1054.85 C 1152.7 1051.98 1152.86 1038.61 1153.94 1036.99 C 1154.85 1044.24 1155.06 1047.56 1154.97 1054.86 L 1152.99 1054.85 z"/>
<path transform="translate(0,0)" fill="rgb(157,158,175)" d="M 1152.95 992.722 L 1155.01 994.728 C 1155.32 1000.85 1154.65 1005.97 1153.42 1011.93 C 1153.06 1005.25 1152.95 999.412 1152.95 992.722 z"/>
</svg>