<!-- RECRAFT VECTORIZE from logo/options-v3/G2-eo-ligature.png -->
<svg version="1.1" xmlns="http://www.w3.org/2000/svg" style="display: block;" viewBox="0 0 2048 2048" width="512" height="512" preserveAspectRatio="none">
<path transform="translate(0,0)" fill="rgb(29,28,76)" d="M 411.257 0 L 1631.66 0 C 1637.84 2.46199 1646.1 2.98026 1652.8 3.88818 C 1807.38 24.8164 1942.4 143.581 2007.83 281.522 C 2022.06 311.335 2032.84 342.675 2039.96 374.933 C 2042.27 385.74 2045.47 410.014 2048 418.528 L 2048 1636.92 C 2041.76 1666.28 2041.08 1687.25 2032.6 1718.25 C 2003.68 1823.86 1937.11 1915.24 1845.46 1975.15 C 1798.83 2005.65 1746.97 2027.27 1692.48 2038.91 C 1683.76 2040.84 1646.82 2045.63 1641.65 2048 L 413.172 2048 C 406.709 2045.66 376.455 2041.45 367.15 2039.36 C 333.401 2031.88 299.411 2019.66 268.716 2003.92 C 139.056 1937.39 36.8822 1809.19 6.38741 1666.1 C 4.0985 1655.36 3.59359 1640.25 0 1630.38 L 0 411.398 C 1.4369 407.451 5.76538 373.395 7.41743 364.782 C 14.9091 324.682 27.8839 285.803 45.9766 249.241 C 101.02 137.862 199.851 54.3483 318.853 18.6583 C 336.348 13.353 353.019 9.74666 370.947 6.34936 C 381.86 4.28127 401.7 3.58531 411.257 0 z"/>
<path transform="translate(0,0)" fill="rgb(254,254,254)" d="M 537.66 544.413 C 539.224 544.199 541.299 544.115 542.866 544.097 C 586.744 543.587 630.95 543.878 674.831 543.871 L 932.243 543.832 L 1062.18 543.826 C 1080.6 543.827 1119.44 542.869 1136.11 545.456 C 1154.77 548.476 1172.08 557.046 1185.79 570.047 C 1206.38 589.458 1215.3 613.309 1216.22 641.159 C 1275.37 638.547 1318.65 641.71 1375.45 661.733 C 1471.93 695.614 1550.89 766.626 1594.78 858.99 C 1638.58 951.188 1643.93 1057.01 1609.66 1153.16 C 1575.27 1249.49 1503.84 1328.09 1411.24 1371.51 C 1359.5 1396.73 1305.24 1406.71 1248.16 1408.19 C 1246.68 1430.6 1241.95 1448.83 1227.92 1466.96 C 1212.11 1487.19 1188.81 1500.19 1163.29 1503 C 1149.72 1504.61 1133.2 1504.18 1119.29 1504.17 L 1057.3 1504.14 L 848.979 1504.13 L 640.711 1504.17 L 577.097 1504.21 C 562.516 1504.21 545.764 1504.59 531.428 1502.92 C 514.079 1500.91 497.658 1494.01 484.081 1483.03 C 464.269 1467.4 451.586 1444.45 448.893 1419.36 C 447.252 1403.99 447.796 1384.35 447.819 1368.6 L 447.875 1293.3 L 447.842 1037.33 L 447.81 766.043 L 447.819 681.185 C 447.823 666.557 447.238 644.513 448.632 630.361 C 450.34 611.676 457.587 593.926 469.443 579.384 C 487.414 557.414 509.898 547.072 537.66 544.413 z"/>
<path transform="translate(0,0)" fill="rgb(29,28,76)" d="M 1244.18 832.455 C 1255.39 832.486 1266.21 832.797 1277.34 834.394 C 1327.5 842.055 1372.55 869.345 1402.57 910.25 C 1432.97 951.78 1445.49 1003.74 1437.34 1054.56 C 1429.37 1104.43 1402 1149.12 1361.19 1178.88 C 1315.21 1212.54 1264.9 1220.94 1209.48 1212.12 C 1149.65 1197.76 1111.89 1169.25 1079.9 1117.11 C 1088.54 1114.37 1094.41 1112.4 1102.37 1107.99 C 1124.74 1095.7 1141.26 1074.97 1148.25 1050.42 C 1155.31 1025.32 1152.01 998.441 1139.1 975.794 C 1126.11 953.252 1105.17 937.81 1080.14 931.141 C 1115.59 868.862 1172.95 835.089 1244.18 832.455 z"/>
<path transform="translate(0,0)" fill="rgb(29,28,76)" d="M 875.899 927.997 L 998.786 928.087 C 1022.83 928.075 1056.58 927.036 1079.7 930.472 C 1054.22 985.288 1047.47 1029.15 1067.37 1089 C 1070.72 1099.06 1075.69 1107.93 1079.45 1117.31 C 1056.21 1121.09 1022.89 1119.93 998.678 1119.92 L 876.041 1119.94 C 859.929 1050.83 860.701 996.833 875.899 927.997 z"/>
<path transform="translate(0,0)" fill="rgb(29,28,76)" d="M 736.131 1120.17 L 876.041 1119.94 C 880.852 1134.74 883.272 1145.39 889.15 1160.8 C 911.25 1218.93 947.191 1270.79 993.859 1311.89 L 853 1311.86 L 736.243 1311.93 L 736.131 1120.17 z"/>
<path transform="translate(0,0)" fill="rgb(29,28,76)" d="M 852 736.131 L 993.614 736.073 C 932.842 792.798 898.6 847.463 875.899 927.997 L 736.242 927.933 L 736.131 736.171 L 852 736.131 z"/>
<path transform="translate(0,0)" fill="rgb(29,28,76)" d="M 994.389 1312.11 L 1096.5 1312.09 C 1120.44 1312.06 1154.09 1309.78 1176.32 1315.25 C 1221.69 1326.41 1244.99 1364.6 1247.9 1407.9 C 1157.37 1408.59 1061.59 1372.96 994.389 1312.11 z"/>
<path transform="translate(0,0)" fill="rgb(29,28,76)" d="M 1205.61 642.37 L 1216.22 641.569 C 1213.38 668.128 1207.21 688.655 1187.52 708.091 C 1176.09 719.393 1161.98 727.6 1146.5 731.935 C 1127.79 737.091 1097.02 735.936 1076.72 735.914 L 1010.25 735.885 L 993.525 735.972 C 1059.52 682.28 1120.04 652.638 1205.61 642.37 z"/>
</svg>