<!-- RECRAFT VECTORIZE from logo/options-v3/G3-negative-E.png -->
<svg version="1.1" xmlns="http://www.w3.org/2000/svg" style="display: block;" viewBox="0 0 2048 2048" width="512" height="512" preserveAspectRatio="none">
<path transform="translate(0,0)" fill="rgb(65,57,203)" d="M 412.581 0 L 1630.74 0 C 1639.01 3.67899 1660.8 4.18962 1671.07 6.21679 C 1849.53 41.4295 2000.38 199.366 2040.3 374.959 C 2043.16 387.525 2044.47 407.727 2048 418.543 L 2048 1636.75 L 2047.73 1637.97 C 2045.66 1647.78 2044.76 1658.65 2043.28 1668.67 C 2040.96 1684.28 2037.8 1699.76 2033.83 1715.03 C 2005.78 1821.07 1939.79 1913.13 1848.38 1973.74 C 1799.19 2006.2 1752.15 2025.08 1694.69 2038.64 C 1684.8 2040.98 1648.48 2045.72 1643.52 2048 L 409.555 2048 C 401.759 2045.24 374.062 2041.08 363.045 2038.58 C 327.384 2030.34 292.968 2017.43 260.693 2000.17 C 151.544 1941.75 59.9159 1835.03 20.2435 1717.71 C 13.9765 1698.86 8.99132 1679.61 5.32215 1660.09 C 3.58123 1650.82 2.83207 1638.2 0 1629.66 L 0 412.457 C 2.89494 404.484 2.378 393.034 3.66665 384.469 C 11.1972 334.412 26.5764 285.047 50.12 240.268 C 106.89 131.3 206.023 50.5149 324.206 16.9072 C 343.523 11.4456 363.166 7.21269 383.018 4.23376 C 392.354 2.84197 403.883 3.21589 412.581 0 z"/>
<path transform="translate(0,0)" fill="rgb(254,254,254)" d="M 1003.87 384.294 C 1357.09 373.17 1652.47 650.44 1663.69 1003.65 C 1674.9 1356.87 1397.71 1652.32 1044.5 1663.63 C 691.159 1674.95 395.568 1397.63 384.346 1044.29 C 373.124 690.938 650.521 395.421 1003.87 384.294 z"/>
<path transform="translate(0,0)" fill="rgb(65,57,203)" d="M 767.141 704.411 C 769.425 704.316 771.711 704.235 773.996 704.168 C 814.207 702.988 860.861 704.102 901.548 704.096 L 1153.01 704.059 L 1284.18 704.05 C 1301.13 704.05 1338.48 703.119 1353.67 705.111 C 1366.7 706.746 1378.84 712.603 1388.24 721.787 C 1400.55 733.661 1407.57 749.993 1407.72 767.101 C 1407.99 796.283 1387.89 824.668 1358.07 829.937 C 1339.83 833.16 1317.48 831.959 1298.63 831.941 L 1213.38 831.853 L 895.937 831.98 L 895.932 960.03 L 1144.28 960.117 L 1211.33 959.989 C 1227.58 959.95 1244.71 959.27 1260.76 961.692 C 1289.63 966.048 1311.6 994.037 1311.85 1022.73 C 1312.11 1040.09 1305.38 1056.82 1293.17 1069.16 C 1273.11 1089.36 1250.82 1087.8 1224.33 1087.91 C 1206.42 1087.98 1188.42 1087.92 1170.5 1087.93 L 994.5 1087.88 L 895.937 1087.98 L 895.933 1216.03 C 1000.59 1217.12 1107.33 1216.06 1212.15 1216.04 L 1299 1216.04 C 1327.3 1216.04 1361.29 1211.64 1384.25 1230.27 C 1397.41 1240.98 1405.76 1256.51 1407.44 1273.4 C 1409.19 1290.57 1404 1307.72 1393.04 1321.04 C 1370.96 1347.65 1339.71 1344.04 1308.6 1343.97 L 1248.32 1343.86 L 1048.37 1343.85 L 859.86 1343.91 L 801.622 1343.97 C 788.189 1343.98 775.409 1344.14 761.992 1343.11 C 730.655 1340.7 706.028 1315.74 704.805 1284.05 C 703.553 1251.59 704.084 1218.68 704.089 1186.01 L 704.14 997.059 L 704.102 842.298 C 704.094 832.949 704.429 822.758 704.08 813.48 C 702.166 762.536 701.629 709.395 767.141 704.411 z"/>
</svg>