<!-- RECRAFT VECTORIZE from logo/options-v3/G4-modular-E.png -->
<svg version="1.1" xmlns="http://www.w3.org/2000/svg" style="display: block;" viewBox="0 0 2048 2048" width="512" height="512" preserveAspectRatio="none">
<path transform="translate(0,0)" fill="rgb(54,49,164)" d="M 412.303 0 L 1630.78 0 C 1639.45 3.54108 1659.27 4.12684 1669.52 6.06408 C 1814.67 33.4897 1944.39 146.115 2007.1 279.106 C 2021.92 310.091 2033.11 342.683 2040.45 376.236 C 2042.97 388.23 2045.27 408.757 2048 418.532 L 2048 1636.84 L 2047.72 1638.12 C 2042.03 1665.36 2041.5 1686.24 2033.55 1715.9 C 2005.18 1821.68 1939.12 1913.44 1847.82 1973.91 C 1801.99 2004.23 1751 2025.91 1697.36 2037.87 C 1685.79 2040.5 1648.51 2045.7 1642.69 2048 L 410.506 2048 C 398.895 2043.74 376.569 2041.86 363.327 2038.75 C 208.595 2002.41 74.96 1872.54 22.4326 1723.37 C 15.3244 1703.17 9.63535 1682.5 5.40696 1661.5 C 3.57459 1652.2 3.02561 1638.83 0 1630.39 L 0 412.253 C 1.3759 408.363 5.08803 376.197 6.76543 367.335 C 14.1831 326.202 27.3567 286.319 45.898 248.861 C 101.572 136.303 201.992 52.3286 322.625 17.4508 C 342.286 11.8067 362.292 7.43745 382.516 4.37037 C 391.444 3.00679 404.23 3.06728 412.303 0 z"/>
<path transform="translate(0,0)" fill="rgb(254,254,254)" d="M 649.804 512.426 C 667.476 510.822 689.166 511.809 707.214 511.83 L 802.558 511.885 L 1102.91 511.87 L 1305.45 511.827 L 1365.6 511.839 C 1379.81 511.877 1396.39 511.555 1410.37 513.637 C 1473.13 522.822 1530 584.613 1535.38 647.456 C 1540.44 706.469 1503.44 765.566 1448.88 788.11 C 1430.55 795.685 1417.75 798.099 1398.18 799.581 C 1381.21 801.107 1360.19 800.126 1342.87 800.11 L 1247.21 800.067 L 949.807 800.08 L 745.273 800.127 L 685.731 800.133 C 670.47 800.126 653.623 800.483 638.583 798.452 C 575.838 789.976 517.929 727.574 512.771 664.893 C 510.028 627.702 522.124 590.938 546.412 562.64 C 573.996 530.327 608.159 515.495 649.804 512.426 z"/>
<path transform="translate(0,0)" fill="rgb(254,254,254)" d="M 649.803 1248.42 C 663.643 1247.18 685.579 1247.81 699.99 1247.83 L 786.165 1247.89 L 1067.31 1247.87 L 1293.64 1247.83 L 1359.87 1247.83 C 1375.36 1247.84 1394.24 1247.39 1409.43 1249.51 C 1472.51 1258.21 1529.74 1320.11 1535.33 1383.08 C 1540.59 1442.28 1503.56 1501.46 1448.89 1524.11 C 1430.61 1531.69 1417.7 1534.1 1398.18 1535.58 C 1384.87 1536.76 1363.33 1536.12 1349.33 1536.11 L 1263.31 1536.06 L 983.689 1536.09 L 754.197 1536.13 L 688.071 1536.12 C 672.095 1536.11 654.362 1536.54 638.599 1534.46 C 576.108 1526.21 518.069 1463.47 512.75 1401.29 C 509.862 1363.73 522.165 1326.58 546.904 1298.16 C 574.558 1265.99 608.24 1251.51 649.803 1248.42 z"/>
<path transform="translate(0,0)" fill="rgb(254,254,254)" d="M 647.232 880.571 L 648.832 880.43 C 669.27 878.753 707.053 879.826 728.3 879.836 L 876.219 879.843 L 1012.04 879.822 C 1072.05 879.824 1110.47 873.513 1159.9 914.537 C 1264.14 1001.03 1212.72 1157.77 1078.25 1167.56 C 1068.54 1168.73 1055.48 1168 1045.53 1168.13 C 1029.28 1168.34 1012.87 1168.12 996.602 1168.11 L 841.356 1168.1 L 713.518 1168.11 C 689.497 1168.12 656.873 1169.55 633.679 1165.66 C 574.014 1155.65 518.221 1094.17 512.83 1034.01 C 509.753 996.547 521.791 959.406 546.26 930.867 C 573.056 899.381 606.584 884.045 647.232 880.571 z"/>
<path transform="translate(0,0)" fill="rgb(165,179,252)" d="M 1402.93 880.269 C 1482.23 877.469 1548.81 939.42 1551.73 1018.71 C 1554.65 1098.01 1492.8 1164.69 1413.51 1167.72 C 1334.05 1170.76 1267.2 1108.75 1264.28 1029.29 C 1261.35 949.83 1323.46 883.074 1402.93 880.269 z"/>
</svg>