<!-- RECRAFT VECTORIZE from logo/options-v3/G5-ripple-E.png -->
<svg version="1.1" xmlns="http://www.w3.org/2000/svg" style="display: block;" viewBox="0 0 2048 2048" width="512" height="512" preserveAspectRatio="none">
<path transform="translate(0,0)" fill="rgb(30,58,138)" d="M 412.245 0 L 1630.79 0 C 1640.6 3.75997 1659.37 4.12399 1670.48 6.29593 C 1815.69 34.6966 1940 143.16 2004.85 274.888 C 2020.5 306.494 2032.29 339.872 2039.95 374.3 C 2042.7 387.24 2044.96 407.735 2048 418.59 L 2048 1636.81 L 2047.72 1638.09 C 2041.92 1666.06 2041.5 1686.72 2033.33 1716.87 C 2004.78 1821.86 1939.17 1912.95 1848.64 1973.29 C 1801.72 2004.5 1749.36 2026.65 1694.28 2038.58 C 1685.09 2040.61 1646.73 2045.99 1642.59 2048 L 411.486 2048 C 402.071 2044.27 379.385 2042.25 367.892 2039.7 C 210.354 2004.8 75.0113 1873.19 22.029 1722.22 C 15.0793 1702.3 9.51808 1681.92 5.38544 1661.23 C 3.58456 1652.1 3.01981 1637.7 0 1629.63 L 0 412.299 C 2.63056 405.23 2.46834 393.367 3.66512 385.461 C 4.68696 378.711 5.83292 372.643 7.09557 365.94 C 14.8549 323.709 28.6768 282.822 48.1327 244.545 C 104.24 134.105 203.646 51.8878 322.652 17.4968 C 342.318 11.8748 362.312 7.47063 382.52 4.30936 C 391.788 2.87836 403.703 3.10499 412.245 0 z"/>
<path transform="translate(0,0)" fill="rgb(254,254,254)" d="M 601.729 544.426 C 618.646 542.464 642.738 543.807 660.337 543.835 L 761.079 543.886 L 1086.45 543.873 L 1332.89 543.862 L 1405.84 543.855 C 1421.06 543.868 1439.11 543.34 1454.05 545.152 C 1510.91 552.034 1562.38 607.931 1567.44 664.262 C 1572.16 716.878 1538.84 769.089 1490.71 789.433 C 1475.22 795.977 1462.88 798.279 1446.32 799.577 C 1430.02 801.453 1405.49 800.134 1388.36 800.11 L 1286.46 800.062 L 960.152 800.091 L 713.54 800.119 L 639.993 800.105 C 594.619 800.086 568.192 800.999 530.857 770.098 C 474.246 723.243 462.258 647.267 510.052 589.573 C 533.741 560.975 565.266 547.247 601.729 544.426 z"/>
<path transform="translate(0,0)" fill="rgb(254,254,254)" d="M 601.729 1248.43 C 618.194 1246.47 641.991 1247.8 659.138 1247.83 L 759.943 1247.89 L 1083.72 1247.87 L 1332.89 1247.86 L 1405.84 1247.86 C 1420.59 1247.87 1440.09 1246.87 1454.05 1249.15 C 1550 1264.84 1605.43 1381.04 1537.59 1458.62 C 1511.98 1487.91 1483.66 1500.66 1446.33 1503.58 C 1430.08 1505.43 1405.99 1504.13 1388.95 1504.11 L 1286.36 1504.06 L 958.227 1504.1 L 713.501 1504.12 L 640.362 1504.11 C 626.033 1504.1 608.973 1504.61 594.884 1502.97 C 537.698 1496.42 485.287 1440.28 480.539 1383.43 C 476.148 1330.86 509.349 1277.76 558.267 1258.16 C 574.018 1251.85 584.971 1249.72 601.729 1248.43 z"/>
<path transform="translate(0,0)" fill="rgb(146,197,252)" d="M 603.261 896.424 C 615.833 895.11 632.679 895.89 645.563 895.889 L 719.042 895.92 L 947.031 895.93 L 1110.27 895.915 C 1137.97 895.908 1174.48 894.258 1201.56 897.815 C 1256.18 904.993 1307.58 962.681 1311.37 1017.54 C 1313.45 1050.72 1302.25 1083.35 1280.22 1108.25 C 1255.42 1136.5 1225.27 1149.14 1188.38 1151.57 C 1175.55 1153.04 1156.37 1152.09 1143.22 1152.06 L 1071.47 1152.02 L 840.602 1152.04 L 677.984 1152.07 C 651.911 1152.08 616.385 1153.53 590.981 1150.31 C 536.255 1143.37 484.379 1085.44 480.562 1030.43 C 478.578 997.273 489.804 964.676 511.785 939.768 C 536.549 911.427 566.39 898.96 603.261 896.424 z"/>
</svg>