<!-- RECRAFT VECTORIZE from logo/options-v3/G6-portal.png -->
<svg version="1.1" xmlns="http://www.w3.org/2000/svg" style="display: block;" viewBox="0 0 2048 2048" width="512" height="512" preserveAspectRatio="none">
<path transform="translate(0,0)" fill="rgb(48,47,130)" d="M 411.543 0 L 1631.53 0 C 1640.43 3.60283 1660.26 4.34831 1670.79 6.37855 C 1816.92 34.554 1943.88 147.139 2007.04 279.486 C 2021.67 310.02 2032.77 342.123 2040.12 375.173 C 2042.22 384.989 2045.85 411.848 2048 418.587 L 2048 1636.76 L 2047.73 1637.98 C 2041.76 1665.54 2041.36 1686.66 2033.16 1716.94 C 2004.35 1823.27 1937.42 1915.29 1845.14 1975.46 C 1799.08 2005.61 1747.83 2026.98 1694 2038.48 C 1684.49 2040.6 1646.29 2046 1641.65 2048 L 412.207 2048 C 400.354 2043.9 378.677 2041.98 365.221 2038.89 C 188.214 1998.27 41.5455 1838.4 5.56733 1661.97 C 3.5488 1652.07 3.21885 1639.58 0 1630.33 L 0 412.148 C 1.27185 408.602 5.49785 374.415 7.06772 366.171 C 14.5851 325.283 27.7732 285.645 46.2503 248.404 C 101.935 136.259 202.051 52.5683 322.292 17.6506 C 338.678 12.7386 354.325 9.43907 371.103 6.31728 C 382.08 4.2748 402.008 3.64573 411.543 0 z"/>
<path transform="translate(0,0)" fill="rgb(254,254,254)" d="M 1005.53 448.427 C 1012.45 447.936 1020.36 447.956 1027.35 447.972 C 1145.39 448.836 1258.31 496.268 1341.56 579.952 C 1398.22 636.822 1438.52 707.894 1458.24 785.708 C 1474.92 851.354 1472.24 903.155 1472.22 970.279 L 1472.2 1112.97 L 1472.07 1536.07 L 1247.92 1536.06 L 1247.88 1096.49 L 1247.91 977.794 C 1247.92 951.726 1248.86 914.379 1244.54 889.211 C 1238.02 852.464 1222.49 817.908 1199.33 788.642 C 1160.02 739.133 1107.32 712.505 1045.25 705.133 C 1038.7 704.836 1031.89 704.504 1025.35 704.455 C 965.884 703.663 908.61 726.862 866.461 768.813 C 835.022 799.909 813.522 839.638 804.682 882.965 C 798.759 912.099 800.16 952.175 800.202 982.591 L 800.216 1094.07 L 800.073 1536.07 L 575.922 1536.06 L 575.863 1100.84 L 575.859 960.903 C 575.861 902.65 573.803 855.34 586.734 798.09 C 603.471 723.422 639.029 654.276 690.027 597.227 C 772.995 504.894 882.262 455.102 1005.53 448.427 z"/>
</svg>