<!-- RECRAFT VECTORIZE from logo/options-v3/G7-precision-mark.png -->
<svg version="1.1" xmlns="http://www.w3.org/2000/svg" style="display: block;" viewBox="0 0 2048 2048" width="512" height="512" preserveAspectRatio="none">
<path transform="translate(0,0)" fill="rgb(15,24,42)" d="M 410.483 0 L 1632.58 0 C 1641.31 3.49595 1657.3 3.88249 1666.99 5.71657 C 1816.55 34.0268 1941.74 144.67 2007.33 280.623 C 2021.74 310.47 2032.62 341.895 2039.75 374.261 C 2042.47 387.091 2044.94 407.091 2048 418.222 L 2048 1637.45 L 2047.71 1638.71 C 2041.14 1667.83 2040.85 1688.95 2031.71 1721.45 C 2001.82 1827.19 1934.2 1918.3 1841.65 1977.54 C 1796.99 2006.27 1747.55 2026.79 1695.66 2038.12 C 1687.25 2039.96 1678.78 2041.56 1670.27 2042.92 C 1662.84 2044.03 1647 2045.47 1640.77 2048 L 413.438 2048 C 407.389 2045.66 380.649 2042.27 372.374 2040.6 C 219.83 2009.81 83.4713 1880.74 27.9622 1738.28 C 21.398 1721.4 15.8348 1704.15 11.3014 1686.61 C 9.28492 1678.67 2.73217 1641.31 0 1638.07 L 0 1636.79 L 0 1415.4 L 0 632.217 L 0 411.846 L 0 409.317 C 1.4346 405.789 6.35567 370.363 7.9846 362.204 C 15.7177 322.254 28.8789 283.55 47.1021 247.167 C 102.398 136.812 200.754 54.1428 318.976 18.6552 C 343.112 11.3581 367.247 6.29856 392.259 3.3768 C 398.114 2.69285 404.982 2.02852 410.483 0 z"/>
<path transform="translate(0,0)" fill="rgb(128,139,249)" d="M 0 632.217 C 5.6004 629.283 20.1143 619.27 26.2947 615.379 C 41.5503 605.818 57.3805 597.206 73.6951 589.591 C 171.001 544.059 280.722 532.312 385.461 556.213 C 412.069 562.32 434.523 570.073 460.043 579.475 L 460.926 579.497 C 478.678 579.771 502.674 576.27 521.924 576.052 C 592.125 575.433 661.502 591.205 724.535 622.115 C 756.438 638.928 780.252 653.686 808.708 676.028 C 851.251 709.431 876.248 745.028 858.272 801.375 C 787.336 776.22 732.514 778.018 663.266 807.74 C 601.518 840.658 558.61 886.894 538.099 955.011 C 519.76 1016.44 526.658 1082.65 557.267 1138.98 C 579.776 1180.19 619.842 1220.61 663.023 1239.76 C 720.253 1267.59 786.191 1271.56 846.348 1250.8 C 850.161 1249.46 854.848 1247.88 858.434 1246.1 C 882.548 1331.1 817.691 1367.5 756.022 1408.62 C 746.772 1414.79 732.913 1419.94 724.421 1425.99 L 723.163 1426.41 C 713.221 1429.81 693.957 1439.52 681.221 1444.24 C 634.779 1461.48 585.753 1470.74 536.221 1471.61 C 519.915 1472.06 506.136 1471.41 489.946 1470.11 C 484.821 1469.7 464.503 1468.02 460.239 1468.51 C 450.612 1471.25 438.146 1476.38 428.251 1479.7 C 409.356 1485.99 390.075 1491.05 370.528 1494.86 C 236.382 1520.94 112.232 1491.08 0 1415.4 L 0 632.217 z"/>
<path transform="translate(0,0)" fill="rgb(15,24,42)" d="M 0 632.217 C 5.6004 629.283 20.1143 619.27 26.2947 615.379 C 41.5503 605.818 57.3805 597.206 73.6951 589.591 C 171.001 544.059 280.722 532.312 385.461 556.213 C 412.069 562.32 434.523 570.073 460.043 579.475 C 451.804 583.988 425.577 586.924 415.03 589.909 C 397.445 594.884 381.25 599.738 364.148 606.387 C 242.268 653.643 147.163 751.854 103.847 875.189 C 64.2121 987.63 71.0469 1111.23 122.838 1218.62 C 174.34 1325.25 265.93 1407.18 377.619 1446.53 C 389.482 1450.67 401.428 1454.27 413.244 1457.67 C 421.657 1460.1 455.578 1465.53 460.239 1468.51 C 450.612 1471.25 438.146 1476.38 428.251 1479.7 C 409.356 1485.99 390.075 1491.05 370.528 1494.86 C 236.382 1520.94 112.232 1491.08 0 1415.4 L 0 632.217 z"/>
<path transform="translate(0,0)" fill="rgb(15,24,42)" d="M 663.023 1239.76 C 656.474 1249.36 601.464 1269.03 588.528 1272.27 C 522.407 1288.75 452.445 1278.25 394.085 1243.07 C 335.451 1207.65 293.457 1150.22 277.493 1083.61 C 261.745 1017.56 272.822 947.958 308.296 890.058 C 343.952 831.917 401.354 790.425 467.746 774.805 C 535.391 758.746 604.286 771.383 663.266 807.74 C 601.518 840.658 558.61 886.894 538.099 955.011 C 519.76 1016.44 526.658 1082.65 557.267 1138.98 C 579.776 1180.19 619.842 1220.61 663.023 1239.76 z"/>
<path transform="translate(0,0)" fill="rgb(254,254,254)" d="M 663.266 807.74 C 732.514 778.018 787.336 776.22 858.272 801.375 C 900.691 820.541 923.154 837.495 954.16 872.402 C 992.712 915.804 978.431 984.215 922.115 1003.64 C 901.81 1010.61 879.563 1009.16 860.333 999.618 C 839.909 989.507 836.705 979.405 821.59 964.786 C 801.447 945.305 769.269 939.52 742.726 948.23 C 722.759 954.698 706.223 968.911 696.83 987.68 C 687.189 1007.21 685.655 1029.75 692.561 1050.4 C 699.554 1070.4 714.218 1086.8 733.318 1095.97 C 767.403 1112.51 809.755 1101.81 832.297 1071.6 C 854.623 1041.68 895.861 1031.72 929.737 1047.46 C 949.196 1056.44 964.201 1072.89 971.345 1093.09 C 978.636 1113.2 977.442 1135.41 968.036 1154.62 C 949.357 1192.65 897.55 1230.66 858.434 1246.1 C 854.848 1247.88 850.161 1249.46 846.348 1250.8 C 786.191 1271.56 720.253 1267.59 663.023 1239.76 C 619.842 1220.61 579.776 1180.19 557.267 1138.98 C 526.658 1082.65 519.76 1016.44 538.099 955.011 C 558.61 886.894 601.518 840.658 663.266 807.74 z"/>
<path transform="translate(0,0)" fill="rgb(254,254,254)" d="M 0 1415.4 C 112.232 1491.08 236.382 1520.94 370.528 1494.86 C 390.075 1491.05 409.356 1485.99 428.251 1479.7 C 438.146 1476.38 450.612 1471.25 460.239 1468.51 C 464.503 1468.02 484.821 1469.7 489.946 1470.11 C 506.136 1471.41 519.915 1472.06 536.221 1471.61 C 585.753 1470.74 634.779 1461.48 681.221 1444.24 C 693.957 1439.52 713.221 1429.81 723.163 1426.41 L 724.421 1425.99 C 740.373 1458.76 740.806 1506.96 713.544 1533.86 C 675.319 1571.57 617.571 1606.36 569.17 1629.55 C 408.493 1706.87 223.669 1717.15 55.41 1658.12 C 40.3905 1652.83 12.2291 1640.15 0 1636.79 L 0 1415.4 z"/>
<path transform="translate(0,0)" fill="rgb(254,254,254)" d="M 0 411.846 C 35.7011 396.798 63.6356 385.867 101.457 375.537 C 243.54 336.822 394.411 345.895 530.83 401.358 C 582.494 422.335 631.355 449.641 676.294 482.649 C 688.008 491.223 701.558 501.2 711.257 511.815 C 718.664 519.865 724.592 529.159 728.769 539.27 C 738.186 561.946 738.35 589.6 728.957 612.306 C 727.557 615.608 726.083 618.879 724.535 622.115 C 661.502 591.205 592.125 575.433 521.924 576.052 C 502.674 576.27 478.678 579.771 460.926 579.497 L 460.043 579.475 C 434.523 570.073 412.069 562.32 385.461 556.213 C 280.722 532.312 171.001 544.059 73.6951 589.591 C 57.3805 597.206 41.5503 605.818 26.2947 615.379 C 20.1143 619.27 5.6004 629.283 0 632.217 L 0 411.846 z"/>
</svg>