<!-- RECRAFT VECTORIZE from logo/options-v3/G8-geo-e.png -->
<svg version="1.1" xmlns="http://www.w3.org/2000/svg" style="display: block;" viewBox="0 0 2048 2048" width="512" height="512" preserveAspectRatio="none">
<path transform="translate(0,0)" fill="rgb(76,71,230)" d="M 413.198 0 L 1630.72 0 C 1639.07 3.74709 1661.71 4.31986 1672.03 6.37095 C 1858.48 43.4198 2018.47 217.276 2045.38 404.466 C 2046.07 409.289 2046.42 413.895 2048 418.542 L 2048 1636.83 L 2047.73 1638.04 C 2045.64 1647.77 2044.77 1658.78 2043.31 1668.77 C 2040.94 1684.65 2037.74 1700.4 2033.73 1715.96 C 2005.25 1822.61 1938.41 1915 1846.04 1975.42 C 1799.97 2005.36 1748.86 2026.72 1695.19 2038.47 C 1685.07 2040.74 1647.94 2045.97 1642.81 2048 L 409.232 2048 C 402.173 2045.54 374.788 2041.29 365.191 2039.13 C 329.273 2031.04 294.593 2018.2 262.065 2000.95 C 133.985 1933.17 32.6952 1801.92 4.90748 1659.56 C 3.05806 1650.08 3.03244 1638.47 0 1629.6 L 0 412.635 C 1.64317 408.244 4.5044 378.187 6.30201 368.63 C 14.0849 325.284 28.1478 283.305 48.0468 244.019 C 104.507 132.972 204.801 50.5692 324.692 16.7261 C 344.022 11.3137 363.666 7.09518 383.514 4.0944 C 392.984 2.67076 404.237 3.20693 413.198 0 z"/>
<path transform="translate(0,0)" fill="rgb(254,254,254)" d="M 1066.67 481.403 C 1077.17 479.098 1107.33 485.052 1118.7 486.596 C 1338.24 516.41 1541.82 668.671 1589.36 892.055 C 1612.1 998.899 1599.31 1110.37 1539.52 1203.31 C 1533.3 1212.95 1526.64 1222.38 1520.4 1232.04 L 736.226 1232.11 C 769.285 1406.4 951.096 1504.67 1116.5 1503.68 C 1242.26 1502.93 1349.71 1463.99 1440.02 1375.73 C 1458.83 1395.56 1480.39 1416.27 1499.84 1435.72 C 1531.39 1467.35 1568.09 1505.82 1600.48 1535.9 C 1576.62 1557.09 1559.85 1574.18 1533.7 1594.61 C 1433.83 1673.93 1314.05 1724.22 1187.5 1739.97 C 1014.58 1758.95 841.071 1709.71 703.897 1602.73 C 580.239 1505.19 500.963 1362.05 483.886 1205.48 C 465.829 1033.05 516.53 860.464 624.978 725.2 C 733.159 587.522 892.518 499.562 1066.67 481.403 z"/>
<path transform="translate(0,0)" fill="rgb(76,71,230)" d="M 1011.66 672.447 C 1039.79 670.721 1075.93 674.265 1103.58 679.548 C 1250.11 707.541 1375.26 811.255 1407.86 959.754 C 1365.44 960.457 1321.5 959.898 1278.99 959.899 L 1038.5 959.894 L 640.246 959.94 C 669.793 808.795 810.624 698.879 958.332 677.165 C 976.501 674.494 993.315 673.187 1011.66 672.447 z"/>
</svg>