<!-- RECRAFT VECTORIZE from logo/options-v3/G9-chevron-E.png -->
<svg version="1.1" xmlns="http://www.w3.org/2000/svg" style="display: block;" viewBox="0 0 2048 2048" width="512" height="512" preserveAspectRatio="none">
<path transform="translate(0,0)" fill="rgb(29,28,76)" d="M 411.257 0 L 1631.66 0 C 1637.84 2.46202 1646.1 2.98017 1652.8 3.88812 C 1807.39 24.8175 1942.4 143.581 2007.83 281.522 C 2022.06 311.335 2032.84 342.675 2039.96 374.933 C 2042.27 385.742 2045.47 410.011 2048 418.528 L 2048 1636.92 C 2041.77 1666.28 2041.08 1687.25 2032.6 1718.25 C 2003.68 1823.86 1937.11 1915.24 1845.46 1975.15 C 1798.83 2005.65 1746.97 2027.27 1692.48 2038.91 C 1683.76 2040.84 1646.82 2045.63 1641.65 2048 L 413.172 2048 C 407.376 2045.9 375.561 2041.14 366.76 2039.26 C 332.761 2031.65 299.856 2019.79 268.821 2003.96 C 138.586 1937.59 36.9439 1808.63 6.38619 1666.09 C 4.05067 1655.2 3.64464 1640.41 0 1630.36 L 0 411.398 C 1.48154 407.328 5.65224 374.02 7.32019 365.297 C 14.8213 324.888 27.8888 285.714 46.1494 248.894 C 101.418 137.302 200.647 53.756 320.023 18.3048 C 337.138 13.17 353.428 9.68091 370.947 6.34935 C 381.881 4.27006 401.673 3.59537 411.257 0 z"/>
<path transform="translate(0,0)" fill="rgb(254,254,254)" d="M 479.908 544.021 L 956.057 543.824 L 1145.56 543.83 C 1178.49 543.832 1214.4 543.096 1247.04 544.059 C 1257.6 550.375 1269.33 559.738 1279.32 567.256 L 1328.84 604.531 L 1504.24 735.964 C 1419.61 799.393 1333.42 865.817 1248.13 927.833 C 1222.75 928.644 1195.65 928.213 1170.13 928.206 L 1058.17 928.011 C 1060.12 932.905 1233.35 1061.58 1248.54 1071.9 C 1232.6 1083.74 1059.39 1212.99 1058.68 1214.5 L 1061.21 1216.05 C 1054.35 1215.16 1019.56 1215.94 1010.35 1215.94 L 892.007 1215.96 L 479.861 1215.88 L 479.908 880.426 L 479.829 659.806 C 479.826 621.649 479.279 582.085 479.908 544.021 z"/>
<path transform="translate(0,0)" fill="rgb(164,179,252)" d="M 479.908 880.426 C 503.55 879.233 533.574 880.054 557.571 880.052 L 701.214 880.06 L 885.292 880.025 C 916.717 880.02 948.149 879.919 979.573 880.134 C 985.796 880.176 990.673 880.477 996.201 883.47 C 1016.09 894.243 1038.04 919.065 1058.17 928.011 C 1060.12 932.905 1233.35 1061.58 1248.54 1071.9 C 1232.6 1083.74 1059.39 1212.99 1058.68 1214.5 L 1061.21 1216.05 C 1054.35 1215.16 1019.56 1215.94 1010.35 1215.94 L 892.007 1215.96 L 479.861 1215.88 L 479.908 880.426 z"/>
<path transform="translate(0,0)" fill="rgb(254,254,254)" d="M 479.861 1215.88 L 892.007 1215.96 L 1010.35 1215.94 C 1019.56 1215.94 1054.35 1215.16 1061.21 1216.05 C 1079.09 1214.9 1109.79 1215.84 1128.52 1215.83 C 1168.01 1215.69 1207.5 1215.76 1246.99 1216.05 C 1256.02 1221.08 1270.58 1232.68 1279.28 1239.25 L 1327.95 1275.82 L 1504.24 1407.96 C 1419.48 1471.46 1333.48 1537.4 1248.13 1599.83 C 1221.31 1601.14 1186.41 1600.15 1159.07 1600.15 L 990.095 1600.15 L 479.933 1600.1 C 478.445 1473.09 479.848 1343.16 479.861 1215.88 z"/>
</svg>