<?xml version="1.0" encoding="UTF-8"?>
<svg xmlns="http://www.w3.org/2000/svg" viewBox="0 0 538.0 198.0">
  <rect width="100%" height="100%" fill="#FFFFFF"/>
  <g transform="translate(0 18.0)">
    <path d="M40 0 H128.0 V28.0 H66.0 V37.0 H110.4 V63.0 H66.0 V72.0 H128.0 V100 H40 Z" fill="#0B1020"/><path d="M142.0 28 H168.0 V140 H142.0 Z" fill="#0B1020"/><path fill="#0B1020" fill-rule="evenodd" d="M190.32 28.0 A36.0 36.0 0 1 1 190.31 28.0 Z M190.32 47.8 A16.2 16.2 0 1 0 190.32999999999998 47.8 Z"/><circle cx="254.4" cy="10.92" r="10.4" fill="#0B1020"/><rect x="241.4" y="28" width="26.0" height="72" rx="4.68" fill="#0B1020"/><path fill="#0B1020" fill-rule="evenodd" d="M320.0 24.0 A40.0 40.0 0 1 1 319.99 24.0 Z M320.0 44.0 A20.0 20.0 0 1 0 320.01 44.0 Z"/><path d="M374.0 28
      H404.0
      L407.48 96
      L424.84 28
      H454.84
      L457.08 96
      L474.44 28
      H498.0
      L462.03999999999996 100
      H434.03999999999996
      L440.96000000000004 56.6
      L419.88 100
      H391.88
      Z" fill="#0B1020"/>
  </g>
</svg>
