<?xml version="1.0" encoding="UTF-8"?>
<svg xmlns="http://www.w3.org/2000/svg" viewBox="0 0 582.3 198.0">
  <rect width="100%" height="100%" fill="#FFFFFF"/>
  <g transform="translate(0 18.0)">
    <path d="M40 0 H128.0 V32.68 H70.68 V34.66 H110.4 V65.34 H70.68 V67.32 H128.0 V100 H40 Z" fill="#0B1020"/><path d="M144.51999999999998 28 H175.2 V140 H144.51999999999998 Z" fill="#0B1020"/><path fill="#0B1020" fill-rule="evenodd" d="M201.5376 27.999999999999993 A42.48 42.48 0 1 1 201.5276 27.999999999999993 Z M201.5376 51.36399999999999 A19.116 19.116 0 1 0 201.5476 51.36399999999999 Z"/><circle cx="277.15199999999993" cy="12.8856" r="12.272" fill="#0B1020"/><rect x="261.81199999999995" y="28" width="30.68" height="72" rx="5.522399999999999" fill="#0B1020"/><path fill="#0B1020" fill-rule="evenodd" d="M354.55999999999995 16.800000000000004 A47.199999999999996 47.199999999999996 0 1 1 354.54999999999995 16.800000000000004 Z M354.55999999999995 40.400000000000006 A23.599999999999998 23.599999999999998 0 1 0 354.56999999999994 40.400000000000006 Z"/><path d="M418.28 28
      H452.96
      L451.76 96
      L469.11999999999995 28
      H503.79999999999995
      L501.35999999999996 96
      L518.72 28
      H542.28
      L506.31999999999994 100
      H473.63999999999993
      L485.24 61.748000000000005
      L464.15999999999997 100
      H431.47999999999996
      Z" fill="#0B1020"/>
  </g>
</svg>
