<?xml version="1.0" encoding="UTF-8"?>
<svg xmlns="http://www.w3.org/2000/svg" viewBox="0 0 583.6 198.0">
  <rect width="100%" height="100%" fill="#FFFFFF"/>
  <g transform="translate(0 18.0)">
    <path d="M40 0 H138.56 V30.080000000000002 H68.08 V35.96 H118.84800000000001 V64.04 H68.08 V69.92 H138.56 V100 H40 Z" fill="#0B1020"/><path d="M153.68 28 H181.76000000000002 V140 H153.68 Z" fill="#0B1020"/><path fill="#0B1020" fill-rule="evenodd" d="M205.86560000000003 27.999999999999993 A38.88 38.88 0 1 1 205.85560000000004 27.999999999999993 Z M205.86560000000003 49.38399999999999 A17.496000000000002 17.496000000000002 0 1 0 205.87560000000002 49.38399999999999 Z"/><circle cx="275.07200000000006" cy="11.7936" r="11.232000000000001" fill="#0B1020"/><rect x="261.03200000000004" y="28" width="28.080000000000002" height="72" rx="5.0544" fill="#0B1020"/><path fill="#0B1020" fill-rule="evenodd" d="M346.17920000000004 20.540799999999997 A43.4592 43.4592 0 1 1 346.16920000000005 20.540799999999997 Z M346.17920000000004 42.270399999999995 A21.7296 21.7296 0 1 0 346.1892 42.270399999999995 Z"/><path d="M404.75840000000005 28
      H436.83840000000004
      L442.2560000000001 96
      L461.6992000000001 28
      H493.77920000000006
      L497.8080000000001 96
      L517.2512 28
      H543.6384
      L503.36320000000006 100
      H473.2832000000001
      L479.75360000000006 58.888000000000005
      L456.14400000000006 100
      H426.0640000000001
      Z" fill="#0B1020"/>
  </g>
</svg>
