<?xml version="1.0" encoding="UTF-8"?>
<svg xmlns="http://www.w3.org/2000/svg" viewBox="0 0 720.2 276.6">
  <rect width="100%" height="100%" fill="#FFFFFF"/>
  <g transform="translate(44, 187.2700892857143) scale(0.09207589285714286)">
    <path transform="translate(0.0,0)" d="M188 -1493H1227V-1202H573V-924H1188V-633H573V-291H1249V0H188Z" fill="#0B1020"/><path transform="translate(1399.0,0)" d="M530 -162V426H172V-1120H530V-956Q604 -1054 694.0 -1100.5Q784 -1147 901 -1147Q1108 -1147 1241.0 -982.5Q1374 -818 1374 -559Q1374 -300 1241.0 -135.5Q1108 29 901 29Q784 29 694.0 -17.5Q604 -64 530 -162ZM768 -887Q653 -887 591.5 -802.5Q530 -718 530 -559Q530 -400 591.5 -315.5Q653 -231 768 -231Q883 -231 943.5 -315.0Q1004 -399 1004 -559Q1004 -719 943.5 -803.0Q883 -887 768 -887Z" fill="#0B1020"/><path transform="translate(2865.0,0)" d="M172 -1120H530V0H172ZM172 -1556H530V-1264H172Z" fill="#0B1020"/><path transform="translate(3567.0,0)" d="M705 -891Q586 -891 523.5 -805.5Q461 -720 461 -559Q461 -398 523.5 -312.5Q586 -227 705 -227Q822 -227 884.0 -312.5Q946 -398 946 -559Q946 -720 884.0 -805.5Q822 -891 705 -891ZM705 -1147Q994 -1147 1156.5 -991.0Q1319 -835 1319 -559Q1319 -283 1156.5 -127.0Q994 29 705 29Q415 29 251.5 -127.0Q88 -283 88 -559Q88 -835 251.5 -991.0Q415 -1147 705 -1147Z" fill="#0B1020"/><path transform="translate(4974.0,0)" d="M72 -1120H420L608 -348L797 -1120H1096L1284 -356L1473 -1120H1821L1526 0H1135L946 -770L758 0H367Z" fill="#0B1020"/>
  </g>
</svg>
