<?xml version="1.0" encoding="UTF-8"?>
<svg xmlns="http://www.w3.org/2000/svg" viewBox="0 0 691.3 268.1">
  
  <g transform="translate(44, 183.6820440028389) scale(0.0936834634492548)">
    <path transform="translate(0.0,0)" d="M137 0V-1409H1245V-1181H432V-827H1184V-599H432V-228H1286V0Z" fill="#0B1020"/><path transform="translate(1468.4,0)" d="M1167 -546Q1167 -423 1142.5 -319.0Q1118 -215 1067.0 -140.0Q1016 -65 937.5 -22.5Q859 20 752 20Q704 20 656.5 10.0Q609 0 566.0 -22.5Q523 -45 486.5 -81.5Q450 -118 424 -172H418Q419 -167 420.0 -147.0Q421 -127 422.0 -100.5Q423 -74 423.5 -44.5Q424 -15 424 10V425H143V-833Q143 -916 140.5 -981.0Q138 -1046 135 -1082H408Q410 -1075 412.5 -1055.0Q415 -1035 416.5 -1009.0Q418 -983 419.0 -955.0Q420 -927 420 -906H424Q475 -1013 564.0 -1059.0Q653 -1105 770 -1105Q873 -1105 948.0 -1063.0Q1023 -1021 1071.5 -947.0Q1120 -873 1143.5 -770.5Q1167 -668 1167 -546ZM874 -546Q874 -731 818.0 -820.5Q762 -910 651 -910Q609 -910 567.5 -892.5Q526 -875 493.5 -832.5Q461 -790 440.5 -718.5Q420 -647 420 -538Q420 -432 440.0 -361.5Q460 -291 492.5 -249.0Q525 -207 566.0 -189.5Q607 -172 649 -172Q703 -172 745.0 -193.5Q787 -215 815.5 -260.5Q844 -306 859.0 -377.0Q874 -448 874 -546Z" fill="#0B1020"/><path transform="translate(2821.8,0)" d="M143 -1277V-1484H424V-1277ZM143 0V-1082H424V0Z" fill="#0B1020"/><path transform="translate(3493.2000000000003,0)" d="M1171 -542Q1171 -418 1136.5 -315.0Q1102 -212 1033.0 -137.5Q964 -63 861.0 -21.5Q758 20 621 20Q489 20 388.0 -21.0Q287 -62 218.5 -136.0Q150 -210 115.0 -313.5Q80 -417 80 -542Q80 -663 113.5 -765.5Q147 -868 215.0 -943.0Q283 -1018 386.0 -1060.0Q489 -1102 627 -1102Q773 -1102 876.0 -1060.0Q979 -1018 1044.5 -943.5Q1110 -869 1140.5 -766.5Q1171 -664 1171 -542ZM877 -542Q877 -735 814.0 -822.0Q751 -909 631 -909Q507 -909 441.0 -821.0Q375 -733 375 -542Q375 -445 392.5 -375.0Q410 -305 442.0 -260.0Q474 -215 519.0 -193.5Q564 -172 618 -172Q680 -172 728.5 -193.5Q777 -215 810.0 -260.0Q843 -305 860.0 -375.0Q877 -445 877 -542Z" fill="#0B1020"/><path transform="translate(4846.6,0)" d="M436 -255 645 -1082H946L1153 -255L1337 -1082H1597L1313 0H1016L797 -882L571 0H274L-6 -1082H258Z" fill="#0B1020"/>
  </g>
</svg>
