<?xml version="1.0" encoding="UTF-8"?>
<svg xmlns="http://www.w3.org/2000/svg" viewBox="0 0 642.3 269.1">
  <rect width="100%" height="100%" fill="#FFFFFF"/>
  <g transform="translate(44, 188.8559670781893) scale(0.18106995884773663)">
    <path transform="translate(0.0,0)" d="M230 -314V-125H625V0H80V-729H607V-604H230V-439H579V-314Z" fill="#0B1020"/><path transform="translate(690.0,0)" d="M355 -549Q457 -549 519.0 -467.0Q581 -385 581.0 -262.0Q581 -139 516.5 -57.5Q452 24 355 24Q255 24 205 -64V218H65V-540H205V-460Q255 -549 355 -549ZM323 -93Q375 -93 408.0 -140.0Q441 -187 441 -260Q441 -337 408.5 -384.5Q376 -432 323.0 -432.0Q270 -432 237.5 -385.0Q205 -338 205.0 -262.0Q205 -186 237.5 -139.5Q270 -93 323 -93Z" fill="#0B1020"/><path transform="translate(1336.0,0)" d="M210 -540V0H70V-540ZM210 -729V-604H70V-729Z" fill="#0B1020"/><path transform="translate(1641.0,0)" d="M306 -549Q433 -549 503.5 -472.5Q574 -396 574 -259Q574 -129 502.0 -53.0Q430 23 307 23Q182 23 111.0 -53.5Q40 -130 40.0 -263.0Q40 -396 111.0 -472.5Q182 -549 306 -549ZM307 -436Q250 -436 215.0 -388.0Q180 -340 180.0 -263.0Q180 -186 215.0 -138.0Q250 -90 307 -90Q363 -90 398.5 -137.5Q434 -185 434 -261Q434 -341 399.5 -388.5Q365 -436 307 -436Z" fill="#0B1020"/><path transform="translate(2280.0,0)" d="M618 0H473L392 -381L306 0H162L10 -540H155L241 -162L323 -540H463L544 -162L626 -540H771Z" fill="#0B1020"/>
  </g>
</svg>
