<?xml version="1.0" encoding="UTF-8"?>
<svg xmlns="http://www.w3.org/2000/svg" viewBox="0 0 741.9 276.6">
  
  <g transform="translate(44, 187.2700892857143) scale(0.09207589285714286)">
    <path transform="translate(0.0,0)" d="M1290 -563V-461H453Q466 -335 544.0 -272.0Q622 -209 762 -209Q875 -209 993.5 -242.5Q1112 -276 1237 -344V-68Q1110 -20 983.0 4.5Q856 29 729 29Q425 29 256.5 -125.5Q88 -280 88 -559Q88 -833 253.5 -990.0Q419 -1147 709 -1147Q973 -1147 1131.5 -988.0Q1290 -829 1290 -563ZM922 -682Q922 -784 862.5 -846.5Q803 -909 707 -909Q603 -909 538.0 -850.5Q473 -792 457 -682Z" fill="#0B1020"/><path transform="translate(1450.44,0)" d="M530 -162V426H172V-1120H530V-956Q604 -1054 694.0 -1100.5Q784 -1147 901 -1147Q1108 -1147 1241.0 -982.5Q1374 -818 1374 -559Q1374 -300 1241.0 -135.5Q1108 29 901 29Q784 29 694.0 -17.5Q604 -64 530 -162ZM768 -887Q653 -887 591.5 -802.5Q530 -718 530 -559Q530 -400 591.5 -315.5Q653 -231 768 -231Q883 -231 943.5 -315.0Q1004 -399 1004 -559Q1004 -719 943.5 -803.0Q883 -887 768 -887Z" fill="#0B1020"/><path transform="translate(2977.88,0)" d="M172 -1120H530V0H172ZM172 -1556H530V-1264H172Z" fill="#0B1020"/><path transform="translate(3741.32,0)" d="M705 -891Q586 -891 523.5 -805.5Q461 -720 461 -559Q461 -398 523.5 -312.5Q586 -227 705 -227Q822 -227 884.0 -312.5Q946 -398 946 -559Q946 -720 884.0 -805.5Q822 -891 705 -891ZM705 -1147Q994 -1147 1156.5 -991.0Q1319 -835 1319 -559Q1319 -283 1156.5 -127.0Q994 29 705 29Q415 29 251.5 -127.0Q88 -283 88 -559Q88 -835 251.5 -991.0Q415 -1147 705 -1147Z" fill="#0B1020"/><path transform="translate(5209.76,0)" d="M72 -1120H420L608 -348L797 -1120H1096L1284 -356L1473 -1120H1821L1526 0H1135L946 -770L758 0H367Z" fill="#0B1020"/>
  </g>
</svg>
