<!-- RECRAFT VECTORIZE from logo/options-w/app/W1-modular-icon-paper.png -->
<svg version="1.1" xmlns="http://www.w3.org/2000/svg" style="display: block;" viewBox="0 0 1024 1024" width="256" height="256" preserveAspectRatio="none">
<path transform="translate(0,0)" fill="rgb(246,246,247)" d="M 200.133 0 L 822.713 0 C 828.675 3.25974 846.509 5.51533 854.2 7.82737 C 932.475 31.356 996.373 100.324 1017.91 178.633 C 1019.35 183.868 1021.96 199.54 1024 203.389 L 1024 825.665 C 1019.13 837.071 1016.9 859.579 1011.95 873.831 C 991.17 932.817 946.772 980.49 889.41 1005.41 C 879.726 1009.53 869.805 1013.07 859.7 1016.01 C 854.581 1017.5 830.019 1022.55 827.792 1024 L 198.163 1024 C 195.967 1022.93 193.137 1022.12 190.777 1021.63 C 105.66 1003.86 37.4257 937.826 9.3877 856.548 C 5.4978 845.272 4.28421 829.804 0 819.8 L 0 200.108 C 1.63206 197.602 1.91079 193.816 2.32512 190.862 C 14.5894 103.549 78.4564 31.3656 163.367 8.07849 C 173.027 5.42927 192.281 3.69013 200.133 0 z"/>
<path transform="translate(0,0)" fill="rgb(12,17,32)" d="M 283.604 112.316 C 284.738 112.255 285.873 112.206 287.008 112.168 C 313.338 111.329 343.723 112.059 370.417 112.05 L 533.29 112.012 L 632.762 112.015 C 650.391 112.018 669.28 111.56 686.733 112.633 C 695.922 113.197 702.105 114.313 708.649 120.672 C 716.522 128.323 720.666 139.749 720.085 151.007 C 718.816 172.127 721.961 195.609 718.411 216.289 C 713.438 245.247 672.903 239.957 651.491 239.964 L 590.694 239.968 L 383.934 240.013 C 383.216 308.823 383.858 379.203 383.974 448.082 L 538.826 448.084 C 563.73 448.05 590.4 446.827 614.867 449.344 C 630.527 450.955 641.055 471.772 640.04 486.133 C 639.455 494.399 639.941 503.75 639.841 512.134 C 640.561 532.699 644.067 571.225 614.913 574.697 C 592.533 577.363 562.754 575.889 539.517 575.875 L 383.935 576.013 C 383.572 611.301 383.906 647.165 383.906 682.5 L 383.975 784.082 L 585.811 784.092 C 619.861 784.077 653.97 783.533 687.981 784.542 C 702.425 784.97 717.047 796.151 718.696 810.676 C 721.32 833.788 720.18 860.692 719.23 883.983 C 717.766 919.915 662.961 911.989 638.589 911.985 L 538.716 911.924 L 370.716 911.902 C 343.129 911.905 315.589 912.048 287.988 911.834 C 274.018 911.725 257.746 900.346 256.793 886.004 C 255.184 861.806 256.096 836.413 256.13 812.041 L 256.14 647.25 L 256.127 309.14 L 256.105 200.644 C 256.075 181.343 255.948 161.916 256.103 142.63 C 256.149 136.87 258.568 128.617 262.137 124.074 C 268.208 116.346 274.283 113.654 283.604 112.316 z"/>
</svg>