<!-- RECRAFT VECTORIZE from logo/options-w/app/W2-optical-icon-paper.png -->
<svg version="1.1" xmlns="http://www.w3.org/2000/svg" style="display: block;" viewBox="0 0 1024 1024" width="256" height="256" preserveAspectRatio="none">
<path transform="translate(0,0)" fill="rgb(246,246,247)" d="M 200.133 0 L 822.713 0 C 827.503 2.61891 837.152 3.75705 842.743 5.06655 C 852.98 7.46385 863.606 10.0501 873.289 14.1715 C 938.455 41.9099 989.505 97.1037 1013.5 163.605 C 1015.26 168.458 1016.31 174.01 1017.91 178.633 C 1020.11 184.972 1021.33 198.354 1024 203.389 L 1024 825.665 C 1019.01 837.351 1016.89 859.886 1011.72 874.496 C 990.857 933.107 946.659 980.464 889.626 1005.31 C 879.622 1009.58 869.366 1013.23 858.916 1016.24 C 854.438 1017.52 830.033 1022.54 827.792 1024 L 198.163 1024 C 194.747 1022.34 185.519 1020.07 181.551 1019.13 C 95.4962 998.931 23.0906 921.728 4.16764 836.032 C 2.90327 830.306 2.33676 825.254 0 819.802 L 0 200.108 C 1.63199 197.603 1.91089 193.816 2.32518 190.862 C 14.589 103.55 78.4572 31.3656 163.367 8.07878 C 173.027 5.42962 192.282 3.68954 200.133 0 z"/>
<path transform="translate(0,0)" fill="rgb(12,17,32)" d="M 275.162 112.36 C 303.914 111.207 337.294 112.047 366.572 112.056 L 532.472 112.032 L 649.987 112.014 C 670.553 112.016 691.822 111.742 712.657 112.539 C 745.599 115.059 734.251 160.571 735.75 181.954 C 740.24 246.007 726.516 239.981 672.475 239.971 L 605.385 239.959 L 383.935 240.013 C 383.213 308.821 383.858 379.202 383.974 448.081 C 451.554 448.732 519.243 447.487 586.922 447.997 C 612.661 448.191 624.212 452.69 624.13 482.171 C 624.08 500.312 623.488 522.202 624.144 540.289 C 625.427 575.631 608.8 576.759 579.089 576.026 C 564.502 575.802 547.255 575.886 532.259 575.876 L 383.934 576.013 C 383.536 613.943 383.903 652.518 383.905 690.5 L 383.974 784.082 L 598.643 784.091 C 634.175 784.077 670.001 783.763 705.536 784.175 C 709.913 784.226 718.546 784.805 722.268 786.866 C 727.531 789.78 733.802 796.352 734.595 803.186 C 737.766 831.626 735.496 861.675 735.449 890.356 C 735.436 898.486 727.566 909.066 719.277 910.33 C 701.629 913.021 682.566 912.004 664.668 911.993 L 570.706 911.902 L 378.715 911.886 C 347.288 911.899 315.709 912.126 284.282 911.967 C 278.416 911.937 272.422 911.63 267.55 908.564 C 263.005 905.705 257.078 898.677 256.745 893.273 C 255.571 874.205 256.09 851.968 256.091 832.868 L 256.097 684.01 L 256.089 330.859 C 256.073 269.265 256.036 207.669 256.106 146.076 C 256.125 129.671 255.607 116.507 275.162 112.36 z"/>
</svg>