<!-- RECRAFT VECTORIZE from logo/options-w/app/W3-block-icon-ink.png -->
<svg version="1.1" xmlns="http://www.w3.org/2000/svg" style="display: block;" viewBox="0 0 1024 1024" width="256" height="256" preserveAspectRatio="none">
<path transform="translate(0,0)" fill="rgb(12,17,32)" d="M 198.179 0 L 823.626 0 L 824.414 0.326451 C 834.776 4.51368 848.767 5.70589 859.901 9.5037 C 937.996 36.1416 1002.43 107.634 1020.08 188.37 C 1021.18 193.386 1022.45 198.587 1024 203.476 L 1024 825.455 L 1023.69 826.421 C 1019.32 840.511 1018.03 855.375 1012.94 870.664 C 994.764 924.771 956.756 969.978 906.574 997.174 C 883.736 1009.42 863.183 1016.25 837.879 1021.06 C 835.256 1021.56 829.926 1022.65 827.78 1024 L 199.358 1024 C 195.925 1022.21 166.611 1015.61 158.795 1012.73 C 96.6462 989.858 41.6921 935.654 16.3153 874.92 C 12.0606 864.614 8.56586 854.009 5.85897 843.193 C 4.32816 837.3 2.62353 826.786 0 821.724 L 0 198.358 C 1.64098 194.989 3.13361 186.645 3.89401 182.521 C 17.7381 107.427 71.9114 39.9324 146.432 13.6372 C 155.063 10.5481 163.881 8.00924 172.833 6.03599 C 180.015 4.48375 191.751 2.79047 198.179 0 z"/>
<path transform="translate(0,0)" fill="rgb(254,254,254)" d="M 255.933 111.993 C 316.843 111.213 379.243 111.905 440.249 111.902 L 768.113 111.972 L 768.072 256.073 L 400.149 256.114 L 400.191 439.941 L 688.112 439.97 L 688.072 584.073 L 400.149 584.114 L 400.144 623.5 L 400.192 767.942 L 768.112 767.971 L 768.071 912.073 L 255.959 912.086 L 255.933 111.993 z"/>
</svg>