<!-- RECRAFT VECTORIZE from logo/options-w/app/W3-block-icon-paper.png -->
<svg version="1.1" xmlns="http://www.w3.org/2000/svg" style="display: block;" viewBox="0 0 1024 1024" width="256" height="256" preserveAspectRatio="none">
<path transform="translate(0,0)" fill="rgb(246,246,247)" d="M 200.135 0 L 821.815 0 L 822.573 0.306279 C 827.715 2.32495 838.785 4.14438 844.702 5.41744 C 853.532 7.3819 862.206 9.9927 870.654 13.2288 C 939.255 39.826 997.048 105.109 1017.16 175.718 C 1018.91 181.857 1021.85 199.326 1024 203.389 L 1024 825.665 C 1019.13 837.074 1016.9 859.577 1011.95 873.831 C 991.17 932.817 946.771 980.489 889.41 1005.41 C 879.726 1009.53 869.805 1013.07 859.7 1016.02 C 854.581 1017.5 830.018 1022.55 827.792 1024 L 198.162 1024 C 194.744 1022.33 185.52 1020.07 181.551 1019.13 C 95.4956 998.933 23.0921 921.726 4.16757 836.033 C 2.90295 830.306 2.33538 825.253 0 819.8 L 0 200.104 C 1.72014 197.463 1.93677 193.442 2.44634 190.182 C 5.1309 171.991 10.043 154.199 17.0719 137.207 C 43.1777 72.8111 99.1034 25.4778 165.664 7.39029 C 174.974 4.86039 192.192 3.74679 200.135 0 z"/>
<path transform="translate(0,0)" fill="rgb(12,17,32)" d="M 256.091 112.091 L 767.976 112.062 L 767.936 255.897 C 646.003 257.272 522.118 255.639 399.935 256.013 C 399.311 316.974 399.875 379.024 399.974 440.082 L 687.976 440.062 L 687.937 583.897 C 592.63 584.973 495.42 583.719 399.935 584.013 L 399.905 624.5 L 399.974 768.081 L 767.975 768.063 L 767.937 911.897 L 256.168 911.946 C 255.126 822.633 256.116 731.289 256.117 641.843 L 256.091 112.091 z"/>
</svg>