<!-- RECRAFT VECTORIZE from logo/options-w/app/W3-block-icon-brand.png -->
<svg version="1.1" xmlns="http://www.w3.org/2000/svg" style="display: block;" viewBox="0 0 1024 1024" width="256" height="256" preserveAspectRatio="none">
<path transform="translate(0,0)" fill="rgb(48,47,130)" d="M 199.148 0 L 822.833 0 C 827.411 2.59788 837.221 3.75362 842.682 4.97308 C 921.721 22.6235 988.186 90.1664 1014.24 165.691 C 1018.5 178.062 1020.45 191.469 1024 204.164 L 1024 825.586 L 1023.72 826.535 C 1019.4 841.277 1018.33 854.731 1012.93 871.037 C 995.225 924.066 958.318 968.551 909.469 995.74 C 896.89 1002.89 883.593 1008.68 869.796 1013.03 C 864.431 1014.73 829.325 1022.99 827.806 1024 L 198.474 1024 C 195.072 1022.55 185.408 1020.37 181.225 1019.22 C 169.134 1015.9 157.557 1012.77 145.953 1007.68 C 87.2981 981.965 38.3792 929.497 14.3334 870.387 C 10.1739 860.162 7.33814 849.431 4.59335 838.791 C 3.19119 833.355 2.35558 826.39 0.297448 821.451 L 0 820.756 L 0 199.303 C 1.46888 196.62 1.60192 193.53 2.13844 190.543 C 5.11879 173.954 8.77661 158.082 14.9888 142.397 C 38.5376 81.7022 87.4836 34.3637 148.93 12.854 C 157.801 9.71932 166.866 7.16139 176.067 5.1962 C 182.281 3.89329 193.912 2.51307 199.148 0 z"/>
<path transform="translate(0,0)" fill="rgb(254,254,254)" d="M 255.923 111.985 L 470.84 111.84 L 768.151 111.952 L 768.074 256.073 L 400.115 256.17 L 400.199 439.934 L 688.151 439.952 L 688.073 584.073 L 400.112 584.171 L 400.192 622.798 L 400.199 767.932 L 768.151 767.952 L 768.072 912.073 L 255.922 912.062 L 255.923 111.985 z"/>
</svg>