<!-- RECRAFT VECTORIZE from logo/options-w/app/W1-modular-icon-ink.png -->
<svg version="1.1" xmlns="http://www.w3.org/2000/svg" style="display: block;" viewBox="0 0 1024 1024" width="256" height="256" preserveAspectRatio="none">
<path transform="translate(0,0)" fill="rgb(12,17,32)" d="M 198.179 0 L 823.626 0 L 824.414 0.326443 C 834.776 4.51367 848.767 5.70692 859.901 9.50427 C 937.996 36.14 1002.43 107.635 1020.08 188.369 C 1021.18 193.386 1022.45 198.587 1024 203.476 L 1024 825.454 L 1023.69 826.42 C 1019.32 840.511 1018.03 855.376 1012.94 870.664 C 994.764 924.77 956.756 969.977 906.575 997.173 C 883.737 1009.42 863.183 1016.25 837.879 1021.06 C 835.256 1021.56 829.926 1022.65 827.78 1024 L 199.358 1024 C 195.931 1022.21 166.606 1015.61 158.795 1012.73 C 96.6497 989.862 41.6889 935.65 16.315 874.921 C 12.0606 864.614 8.56583 854.009 5.85884 843.193 C 4.32821 837.301 2.62364 826.785 0 821.724 L 0 198.358 C 1.64118 194.988 3.13339 186.646 3.89382 182.521 C 17.7373 107.427 71.9124 39.9326 146.432 13.6372 C 155.063 10.5479 163.881 8.00907 172.833 6.03595 C 180.014 4.48412 191.753 2.79066 198.179 0 z"/>
<path transform="translate(0,0)" fill="rgb(254,254,254)" d="M 280.26 112.221 C 282.926 112.125 285.592 112.045 288.259 111.98 C 318.221 111.277 350.281 111.875 380.389 111.887 L 549.461 111.884 L 642.029 111.868 C 653.613 111.864 680.141 111.25 690.948 112.567 C 697.926 113.377 704.444 116.463 709.494 121.348 C 718.334 129.98 720.893 143.695 720.262 155.352 C 719.452 170.302 721.866 204.33 718.277 217.203 C 716.876 222.417 714.103 227.161 710.245 230.939 C 697.829 243.121 668.851 240.137 651.995 240.137 L 590.326 240.099 L 384.149 240.113 L 384.191 447.942 L 533.777 447.847 C 558.462 447.844 584.293 447.083 608.363 448.597 C 645.904 451.991 639.688 487.691 640.161 514.677 C 640.543 536.457 643.809 572.393 612.585 575.245 C 588.974 577.402 562.635 576.067 538.524 576.05 L 384.147 576.113 L 384.147 679.5 L 384.191 783.942 L 581.473 783.859 C 614.951 783.851 649.118 782.382 682.487 784.108 C 688.262 784.407 695.139 784.978 700.557 787.029 C 707.618 789.701 714.064 797.4 716.879 804.226 C 722.288 817.345 722.312 880.559 716.665 893.687 C 713.459 901.139 707.63 906.295 700.067 909.103 C 694.867 911.035 689.247 911.813 683.724 912.058 C 662.084 913.017 639.982 912.112 618.303 912.105 L 489.205 912.072 L 360.506 912.101 C 336.764 912.147 313.002 912.368 289.266 912.071 C 284.183 911.727 279.313 911.684 274.687 909.21 C 253.154 897.698 255.726 880.355 255.829 859.667 C 255.905 844.336 255.847 828.926 255.865 813.762 L 255.901 681.035 L 255.88 327.041 C 255.871 266.735 255.712 206.427 255.938 146.124 C 256.006 128.195 262.699 118.082 280.26 112.221 z"/>
</svg>