<!-- RECRAFT VECTORIZE from logo/options-w/app/W1-modular-icon-brand.png -->
<svg version="1.1" xmlns="http://www.w3.org/2000/svg" style="display: block;" viewBox="0 0 1024 1024" width="256" height="256" preserveAspectRatio="none">
<path transform="translate(0,0)" fill="rgb(48,47,130)" d="M 199.148 0 L 822.833 0 C 827.41 2.5976 837.223 3.75441 842.682 4.9733 C 921.637 22.6032 987.994 89.9963 1014.15 165.392 C 1018.49 177.907 1020.33 191.406 1024 204.164 L 1024 825.584 L 1023.72 826.533 C 1019.4 841.265 1018.33 854.734 1012.93 871.037 C 995.226 924.063 958.32 968.546 909.474 995.737 C 896.755 1002.96 883.3 1008.81 869.339 1013.18 C 864.013 1014.84 829.428 1022.92 827.806 1024 L 198.474 1024 C 195.129 1022.58 185.892 1020.5 181.824 1019.38 C 169.557 1016.03 157.709 1012.84 145.952 1007.68 C 87.296 981.965 38.3817 929.497 14.3324 870.387 C 10.1715 860.16 7.3374 849.435 4.59421 838.791 C 3.19439 833.36 2.35307 826.386 0.297344 821.451 L 0 820.756 L 0 199.307 C 1.46762 196.616 1.59988 193.534 2.13737 190.542 C 5.11783 173.953 8.77823 158.081 14.9899 142.396 C 38.5379 81.7017 87.4838 34.363 148.93 12.8536 C 157.801 9.71869 166.866 7.16053 176.067 5.19518 C 182.281 3.8923 193.912 2.51307 199.148 0 z"/>
<path transform="translate(0,0)" fill="rgb(254,254,254)" d="M 280.286 112.23 L 281.199 112.192 C 310.271 110.993 344.509 111.83 373.996 111.834 L 541.423 111.837 L 640.17 111.812 C 659.192 111.807 695.554 107.862 709.267 121.084 C 726.221 137.431 718.543 169.763 720.253 191.115 C 720.822 198.219 720.066 208.674 718.658 215.776 C 712.811 245.468 675.422 240.139 652.441 240.148 L 591.096 240.153 L 384.113 240.171 L 384.199 447.935 L 534.439 447.798 C 558.51 447.783 584.963 447.127 608.965 448.629 C 615.892 449.062 623.643 451.475 628.594 456.446 C 636.192 463.307 641.422 476.699 640.254 487.827 C 637.754 511.653 647.336 547.259 630.607 566.57 C 626.921 570.825 618.12 574.808 613.016 575.205 C 588.837 577.089 563.643 576.063 539.363 576.049 L 384.115 576.171 L 384.192 679.5 L 384.199 783.934 L 566.651 783.831 L 639.763 783.797 C 657.336 783.799 683.246 781.209 699.832 786.752 C 706.737 789.06 713.889 797.214 716.865 803.699 C 721.739 814.319 722.184 879.699 717.936 890.479 C 714.597 898.951 709.112 905.648 700.547 909.137 C 695.926 911.019 690.819 911.848 685.853 912.082 C 666.841 912.978 647.363 912.077 628.305 912.075 L 511.839 912.072 L 369.88 912.112 C 343.425 912.156 317.168 912.184 290.521 912.11 C 269.029 912.447 255.847 897.715 255.871 876.52 C 255.902 849.61 255.886 822.343 255.898 795.352 L 255.899 631.224 L 255.863 309.964 C 255.842 254.014 255.649 198.052 256.015 142.106 C 256.118 126.348 266.095 117.108 280.286 112.23 z"/>
</svg>