<!-- RECRAFT VECTORIZE from logo/options-w/app/W2-optical-icon-ink.png -->
<svg version="1.1" xmlns="http://www.w3.org/2000/svg" style="display: block;" viewBox="0 0 1024 1024" width="256" height="256" preserveAspectRatio="none">
<path transform="translate(0,0)" fill="rgb(12,17,32)" d="M 198.174 0 L 823.626 0 L 824.414 0.326446 C 834.776 4.51375 848.767 5.70681 859.901 9.50428 C 937.997 36.1412 1002.43 107.634 1020.08 188.37 C 1021.18 193.386 1022.45 198.587 1024 203.476 L 1024 825.455 L 1023.69 826.421 C 1019.32 840.505 1018.03 855.375 1012.94 870.663 C 994.764 924.77 956.757 969.977 906.575 997.173 C 883.738 1009.42 863.183 1016.25 837.879 1021.06 C 835.255 1021.56 829.927 1022.65 827.78 1024 L 199.358 1024 C 195.923 1022.21 166.611 1015.61 158.795 1012.73 C 96.6507 989.861 41.6875 935.65 16.3155 874.921 C 12.0609 864.614 8.56594 854.01 5.85846 843.193 C 4.32773 837.301 2.6236 826.785 0 821.724 L 0 198.358 C 2.58171 193.057 5.592 173.813 7.31151 167.013 C 24.8291 97.7338 79.2185 37.2872 146.727 13.5247 C 155.265 10.4873 163.984 7.98631 172.834 6.03629 C 180.005 4.48676 191.762 2.79176 198.174 0 z"/>
<path transform="translate(0,0)" fill="rgb(254,254,254)" d="M 272.906 112.184 C 273.978 112.121 275.051 112.069 276.124 112.028 C 305.131 110.986 340.099 111.868 369.565 111.862 L 549.63 111.844 L 657.608 111.859 C 728.903 111.88 738.611 100.718 736.281 178.468 C 734.418 240.618 741.436 240.269 675.908 240.165 L 608.653 240.057 L 384.15 240.113 L 384.192 447.941 L 532.034 447.904 C 554.385 447.896 578.773 447.15 600.933 448.47 C 623.129 449.792 625.046 471.808 624.246 489.24 C 623.503 505.416 624.431 524.181 624.337 540.578 C 625.394 577.028 607.122 576.803 577.278 576.181 C 563.534 575.964 546.75 576.063 532.53 576.051 L 384.149 576.114 L 384.147 688.5 L 384.191 783.942 L 617.625 783.896 L 675.32 783.862 C 685.874 783.854 696.325 783.743 707.111 784.131 C 737.099 785.208 734.931 801.81 736.095 824.767 C 741.324 927.859 732.247 912.154 642.474 912.107 L 502.586 912.083 C 479.679 912.082 281.026 914.222 271.603 910.827 C 265.279 908.549 260.153 902.733 257.405 896.747 C 255.957 893.593 256.035 889.709 255.931 886.292 C 255.201 862.338 255.853 838.168 255.88 814.195 L 255.901 682.891 L 255.857 271.009 C 255.847 251.172 253.791 135.661 257.333 126.194 C 259.956 119.182 266.437 115.163 272.906 112.184 z"/>
</svg>