<!-- RECRAFT VECTORIZE from logo/options-w/app/W2-optical-icon-brand.png -->
<svg version="1.1" xmlns="http://www.w3.org/2000/svg" style="display: block;" viewBox="0 0 1024 1024" width="256" height="256" preserveAspectRatio="none">
<path transform="translate(0,0)" fill="rgb(48,47,130)" d="M 199.148 0 L 822.833 0 C 827.411 2.59771 837.222 3.75397 842.682 4.97321 C 921.639 22.6062 987.991 89.9933 1014.15 165.39 C 1018.49 177.906 1020.33 191.406 1024 204.164 L 1024 825.584 L 1023.72 826.533 C 1019.4 841.267 1018.33 854.735 1012.93 871.037 C 995.226 924.063 958.321 968.546 909.474 995.736 C 896.76 1002.96 883.311 1008.81 869.357 1013.18 C 864.009 1014.85 829.407 1022.93 827.806 1024 L 198.474 1024 C 195.128 1022.58 185.893 1020.5 181.824 1019.38 C 169.558 1016.03 157.708 1012.84 145.952 1007.68 C 87.2958 981.964 38.382 929.497 14.3323 870.387 C 10.1715 860.16 7.33745 849.434 4.5942 838.791 C 3.19423 833.36 2.35359 826.385 0.297409 821.451 L 0 820.756 L 0 199.303 C 1.46856 196.619 1.60138 193.53 2.13796 190.543 C 5.1186 173.953 8.77718 158.082 14.9898 142.396 C 38.5377 81.7016 87.4836 34.3628 148.931 12.8538 C 157.802 9.71927 166.866 7.16131 176.067 5.19592 C 182.281 3.89278 193.911 2.51287 199.148 0 z"/>
<path transform="translate(0,0)" fill="rgb(254,254,254)" d="M 273.15 112.174 C 273.688 112.142 274.226 112.114 274.764 112.089 C 301.225 110.845 335.6 111.806 362.71 111.812 L 528.622 111.836 L 648.604 111.808 C 670.054 111.81 692.404 111.386 713.815 112.499 C 719.84 112.812 723.25 114.908 727.822 118.802 C 735.242 125.124 736.385 135.967 736.183 146.012 C 735.51 171.329 738.15 198.204 734.626 223.226 C 733.03 234.557 720.252 239.26 710.355 239.681 C 697.39 240.233 684.69 240.16 671.748 240.159 L 604.328 240.149 L 384.113 240.171 L 384.199 447.934 L 531.458 447.854 C 554.804 447.832 578.805 447.017 601.951 448.484 C 619.153 450.639 624.63 465.095 624.344 480.708 C 623.956 501.799 624.189 522.876 624.378 543.986 C 625.038 557.661 619.432 574.275 603.3 575.422 C 580.607 577.035 555.88 576.061 533.012 576.047 L 384.112 576.171 L 384.192 688.5 L 384.199 783.934 L 618.194 783.838 L 676.637 783.81 C 717.709 783.777 734.868 776.685 736.144 823.326 C 738.902 924.174 739.353 912.14 648.677 912.12 L 516.978 912.107 L 347.959 912.132 C 328.972 912.139 310.196 912.13 290.976 912.16 C 276.464 912.183 265.776 913.097 257.929 897.863 C 256.14 894.389 256.028 891.592 255.981 887.691 C 255.7 863.875 255.854 839.964 255.88 816.15 L 255.901 683.499 L 255.854 271.534 C 255.848 252.621 253.831 135.68 257.249 126.465 C 259.982 119.098 266.329 115.259 273.15 112.174 z"/>
</svg>