<svg xmlns="http://www.w3.org/2000/svg" viewBox="0 0 128 128" fill="none">
  <rect width="128" height="128" rx="28" fill="#1E1B4B"/>
  <!-- Continuous EO: thick stroke monogram -->
  <path fill="#fff" fill-rule="evenodd" d="
    M34 34
    h36
    a6 6 0 0 1 0 12
    H46
    v12
    h20
    a6 6 0 0 1 0 12
    H46
    v12
    h26
    a6 6 0 0 1 0 12
    H34
    a6 6 0 0 1 -6 -6
    V40
    a6 6 0 0 1 6 -6
    z
    M78 40
    a24 24 0 1 1 0 48
    a24 24 0 1 1 0 -48
    z
    M78 52
    a12 12 0 1 0 0 24
    a12 12 0 1 0 0 -24
    z"/>
</svg>
