<svg xmlns="http://www.w3.org/2000/svg" viewBox="0 0 128 128" fill="none">
  <rect width="128" height="128" rx="28" fill="#4F46E5"/>
  <!--
    Geometric e: outer ring open on right-bottom, solid crossbar mid.
    Constructed as filled ring + bar, then open gap on right via counter.
  -->
  <path fill="#fff" d="
    M64 30
    c20 0 36 14 36 32
    c0 6 -2 11 -5 15
    H46
    c2 10 12 17 24 17
    c8 0 15 -3 20 -8
    l10 10
    c-8 8 -19 13 -30 13
    c-22 0 -40 -16 -40 -38
    s18 -41 40 -41
    z
    M64 42
    c-12 0 -22 8 -24 18
    h48
    c-2 -10 -12 -18 -24 -18
    z"/>
</svg>
