<!-- RECRAFT VECTORIZE from logo/options-w3/app/T1-dejavu-bold-icon-ink.png -->
<svg version="1.1" xmlns="http://www.w3.org/2000/svg" style="display: block;" viewBox="0 0 1024 1024" width="256" height="256" preserveAspectRatio="none">
<path transform="translate(0,0)" fill="rgb(12,17,32)" d="M 198.179 0 L 823.626 0 L 824.414 0.326444 C 834.776 4.51374 848.767 5.70625 859.901 9.50387 C 937.995 36.1412 1002.43 107.634 1020.08 188.37 C 1021.18 193.386 1022.45 198.587 1024 203.475 L 1024 825.455 L 1023.69 826.421 C 1019.32 840.51 1018.03 855.376 1012.94 870.664 C 994.764 924.771 956.756 969.978 906.574 997.174 C 883.737 1009.42 863.182 1016.25 837.879 1021.06 C 835.256 1021.56 829.926 1022.65 827.78 1024 L 199.358 1024 C 195.91 1022.2 166.619 1015.61 158.789 1012.73 C 96.647 989.857 41.6898 935.653 16.3152 874.921 C 12.0608 864.614 8.56591 854.01 5.85868 843.193 C 4.32776 837.3 2.62347 826.786 0 821.724 L 0 198.358 C 1.64077 194.989 3.1336 186.645 3.89402 182.521 C 17.7389 107.427 71.9107 39.9331 146.432 13.637 C 155.063 10.5477 163.881 8.00892 172.833 6.03585 C 180.014 4.48398 191.752 2.79056 198.179 0 z"/>
<path transform="translate(0,0)" fill="rgb(254,254,254)" d="M 329.297 234.892 C 377.79 234.176 427.938 234.805 476.541 234.801 L 700.334 234.917 C 701.704 264.207 700.992 309.176 700.355 338.865 L 466.984 338.854 L 466.955 437.949 L 686.695 437.997 C 685.681 471.353 686.446 508.368 686.426 542.003 L 466.956 542.077 L 466.906 553.604 L 466.853 663.926 C 546.859 664.763 628.126 663.885 708.278 664.013 C 708.493 698.696 708.468 733.38 708.201 768.063 L 329.208 768.063 L 329.297 234.892 z"/>
</svg>