<!-- RECRAFT VECTORIZE from logo/options-w3/app/T3-liberation-bold-icon-brand.png -->
<svg version="1.1" xmlns="http://www.w3.org/2000/svg" style="display: block;" viewBox="0 0 1024 1024" width="256" height="256" preserveAspectRatio="none">
<path transform="translate(0,0)" fill="rgb(48,47,130)" d="M 199.149 0 L 822.833 0 C 827.41 2.59779 837.221 3.75417 842.682 4.9733 C 921.72 22.6209 988.186 90.1697 1014.24 165.691 C 1018.51 178.06 1020.45 191.47 1024 204.164 L 1024 825.584 L 1023.72 826.534 C 1019.4 841.265 1018.33 854.739 1012.93 871.038 C 995.226 924.063 958.32 968.546 909.475 995.737 C 896.755 1002.96 883.3 1008.81 869.339 1013.18 C 864.015 1014.84 829.426 1022.92 827.807 1024 L 198.474 1024 C 195.071 1022.55 185.408 1020.37 181.225 1019.22 C 169.133 1015.9 157.557 1012.77 145.953 1007.68 C 87.2989 981.966 38.3784 929.497 14.3333 870.387 C 10.1737 860.162 7.33839 849.432 4.59386 838.791 C 3.19199 833.356 2.35461 826.39 0.297318 821.451 L 0 820.756 L 0 199.307 C 1.46737 196.616 1.60102 193.534 2.13808 190.542 C 5.11672 173.953 8.77824 158.081 14.9896 142.396 C 38.5377 81.7017 87.4837 34.363 148.93 12.8539 C 157.801 9.71903 166.866 7.16105 176.067 5.19595 C 182.282 3.89281 193.911 2.51305 199.149 0 z"/>
<path transform="translate(0,0)" fill="rgb(254,254,254)" d="M 313.721 255.974 L 716.392 255.97 C 716.582 283.649 716.51 311.33 716.176 339.009 L 420.972 339.028 L 421.009 467.336 L 694.085 467.245 L 694.064 550.375 L 458.75 550.51 L 420.988 550.307 L 421.044 685.06 L 731.154 685.128 L 731.063 768.059 L 313.387 768.028 C 314.381 757.304 313.614 727.876 313.617 715.748 L 313.615 608.977 L 313.721 255.974 z"/>
</svg>