<!-- RECRAFT VECTORIZE from logo/options-w3/app/T3-liberation-bold-icon-ink.png -->
<svg version="1.1" xmlns="http://www.w3.org/2000/svg" style="display: block;" viewBox="0 0 1024 1024" width="256" height="256" preserveAspectRatio="none">
<path transform="translate(0,0)" fill="rgb(12,17,32)" d="M 198.173 0 L 823.626 0 L 824.414 0.326433 C 834.777 4.51366 848.766 5.70631 859.901 9.50401 C 937.996 36.1411 1002.43 107.634 1020.08 188.37 C 1021.18 193.386 1022.45 198.587 1024 203.475 L 1024 825.455 L 1023.69 826.421 C 1019.32 840.512 1018.03 855.376 1012.94 870.662 C 994.765 924.774 956.752 969.984 906.563 997.175 C 883.69 1009.42 863.226 1016.27 837.879 1021.06 C 835.26 1021.56 829.923 1022.65 827.78 1024 L 199.358 1024 C 195.92 1022.2 166.613 1015.61 158.795 1012.73 C 96.6508 989.862 41.6877 935.65 16.3152 874.921 C 12.0606 864.614 8.56585 854.01 5.85883 843.193 C 4.32805 837.3 2.62347 826.787 0 821.724 L 0 198.358 C 1.64074 194.989 3.13338 186.645 3.89358 182.521 C 17.7314 107.445 71.9165 39.9227 146.426 13.6384 C 155.059 10.5492 163.879 8.01037 172.834 6.03705 C 180.002 4.48811 191.763 2.79092 198.173 0 z"/>
<path transform="translate(0,0)" fill="rgb(254,254,254)" d="M 313.823 255.958 L 716.297 255.993 C 716.476 283.641 716.454 311.29 716.231 338.938 L 421.014 338.95 L 421.004 467.332 L 605.479 467.288 C 633.826 467.291 666.099 468.142 694.049 467.227 L 694.088 550.307 L 462.775 550.387 L 421.014 550.296 L 421.04 685.111 L 731.169 685.167 L 731.056 768.029 L 313.758 768.064 C 312.781 691.308 313.677 612.378 313.668 535.436 L 313.823 255.958 z"/>
</svg>