<!-- RECRAFT VECTORIZE from logo/options-w3/app/T5-freesans-bold-icon-brand.png -->
<svg version="1.1" xmlns="http://www.w3.org/2000/svg" style="display: block;" viewBox="0 0 1024 1024" width="256" height="256" preserveAspectRatio="none">
<path transform="translate(0,0)" fill="rgb(48,47,130)" d="M 199.148 0 L 822.833 0 C 827.41 2.59715 837.223 3.75458 842.682 4.97346 C 921.638 22.6029 987.994 89.9965 1014.15 165.392 C 1018.49 177.907 1020.33 191.406 1024 204.164 L 1024 825.584 L 1023.72 826.534 C 1019.4 841.266 1018.33 854.738 1012.93 871.037 C 995.226 924.063 958.321 968.546 909.475 995.736 C 896.755 1002.96 883.3 1008.81 869.339 1013.18 C 864.011 1014.85 829.431 1022.91 827.807 1024 L 198.474 1024 C 195.07 1022.55 185.409 1020.37 181.225 1019.22 C 169.133 1015.9 157.557 1012.77 145.953 1007.68 C 87.2987 981.965 38.3784 929.497 14.3333 870.387 C 10.1734 860.161 7.33803 849.433 4.59391 838.791 C 3.1926 833.357 2.35514 826.388 0.297475 821.451 L 0 820.756 L 0 199.303 C 1.46908 196.619 1.60117 193.53 2.13775 190.543 C 5.11787 173.953 8.77718 158.081 14.9897 142.396 C 38.5374 81.7015 87.4835 34.3628 148.93 12.854 C 157.801 9.719 166.866 7.16096 176.067 5.19582 C 182.281 3.89294 193.912 2.51294 199.148 0 z"/>
<path transform="translate(0,0)" fill="rgb(254,254,254)" d="M 334.402 256.007 L 704.976 255.967 L 704.905 343.962 L 440.153 344.038 L 440.166 459.661 L 588.574 459.41 C 619.687 459.402 654.241 458.681 685.129 459.847 L 685.029 547.731 C 660.815 546.863 630.401 547.695 605.717 547.692 L 446.13 547.657 C 443.661 547.631 443.075 547.736 440.662 548.285 C 439.687 551.979 440.088 582.68 440.103 588.122 L 440.264 680.036 L 717.681 680.057 C 717.219 708.089 717.076 740.094 717.621 768.027 L 334.434 768.026 C 335.094 747.836 334.542 724.317 334.545 703.923 L 334.554 579.985 L 334.402 256.007 z"/>
</svg>