<!-- RECRAFT VECTORIZE from logo/options-w3/app/T5-freesans-bold-icon-ink.png -->
<svg version="1.1" xmlns="http://www.w3.org/2000/svg" style="display: block;" viewBox="0 0 1024 1024" width="256" height="256" preserveAspectRatio="none">
<path transform="translate(0,0)" fill="rgb(12,17,32)" d="M 198.179 0 L 823.626 0 L 824.414 0.326428 C 834.777 4.51372 848.767 5.70633 859.901 9.50393 C 937.994 36.1399 1002.43 107.635 1020.08 188.37 C 1021.18 193.385 1022.45 198.587 1024 203.475 L 1024 825.455 L 1023.69 826.421 C 1019.32 840.512 1018.03 855.376 1012.94 870.664 C 994.763 924.775 956.751 969.984 906.563 997.178 C 883.711 1009.42 863.202 1016.26 837.879 1021.06 C 835.259 1021.56 829.924 1022.65 827.78 1024 L 199.358 1024 C 195.903 1022.2 166.622 1015.61 158.789 1012.73 C 96.6503 989.86 41.6862 935.649 16.3155 874.921 C 12.0611 864.614 8.56623 854.009 5.85886 843.193 C 4.32793 837.3 2.62349 826.787 0 821.724 L 0 198.358 C 2.58176 193.056 5.59155 173.813 7.31202 167.013 C 24.8447 97.7093 79.1982 37.3087 146.728 13.5293 C 155.266 10.4896 163.985 7.98683 172.834 6.0358 C 180.016 4.4832 191.751 2.79153 198.179 0 z"/>
<path transform="translate(0,0)" fill="rgb(254,254,254)" d="M 334.637 256.002 L 704.946 255.998 L 704.896 343.924 L 440.189 344.012 L 440.17 459.627 L 592.312 459.534 C 622.595 459.529 654.951 458.967 685.099 459.902 L 685.057 547.561 L 448.25 547.5 L 440.245 547.375 C 439.52 590.734 440.009 636.586 440.265 680.059 L 717.569 680.083 C 717.531 709.333 717.328 738.787 717.646 768.018 L 334.694 768.062 C 334.061 745.152 334.559 719.817 334.559 696.749 L 334.559 562.683 C 334.561 460.989 333.594 357.569 334.637 256.002 z"/>
</svg>