<!-- RECRAFT VECTORIZE from logo/options-w3/app/T1-dejavu-bold-icon-brand.png -->
<svg version="1.1" xmlns="http://www.w3.org/2000/svg" style="display: block;" viewBox="0 0 1024 1024" width="256" height="256" preserveAspectRatio="none">
<path transform="translate(0,0)" fill="rgb(48,47,130)" d="M 199.148 0 L 822.833 0 C 827.412 2.59786 837.221 3.7538 842.682 4.97325 C 921.722 22.6254 988.136 90.1343 1014.23 165.641 C 1018.53 178.06 1020.35 191.498 1024 204.164 L 1024 825.584 L 1023.72 826.534 C 1019.4 841.265 1018.33 854.736 1012.93 871.037 C 995.226 924.064 958.321 968.547 909.474 995.737 C 896.754 1002.96 883.3 1008.81 869.339 1013.18 C 863.999 1014.85 829.445 1022.91 827.805 1024 L 198.474 1024 C 195.127 1022.58 185.893 1020.5 181.824 1019.38 C 169.555 1016.03 157.711 1012.84 145.953 1007.69 C 87.2926 981.959 38.3847 929.504 14.3327 870.387 C 10.1721 860.161 7.33769 849.434 4.59391 838.791 C 3.19352 833.359 2.35335 826.386 0.297333 821.451 L 0 820.756 L 0 199.303 C 1.46908 196.619 1.60116 193.53 2.13775 190.543 C 5.11794 173.953 8.77684 158.081 14.9891 142.396 C 38.5376 81.7017 87.4837 34.3631 148.93 12.8538 C 157.801 9.71913 166.866 7.16118 176.067 5.19591 C 182.281 3.89296 193.912 2.51298 199.148 0 z"/>
<path transform="translate(0,0)" fill="rgb(254,254,254)" d="M 329.185 234.856 L 700.497 234.894 C 701.219 267.034 701.236 306.919 700.309 338.926 L 466.977 338.879 L 466.957 437.956 L 686.692 437.97 C 685.769 470.865 686.367 508.89 686.571 542.031 L 467.057 542.024 L 466.926 553.289 L 466.868 663.914 L 708.378 663.989 C 708.569 698.676 708.51 733.364 708.201 768.05 L 329.119 768.036 C 329.752 709.892 329.133 650.535 329.134 592.307 L 329.185 234.856 z"/>
</svg>