<svg xmlns="http://www.w3.org/2000/svg" viewBox="0 0 420 160">
  
  <g transform="translate(0 22)">
    <g fill="#0B1020">
      <rect x="28" y="0" width="16" height="100" rx="4"/>
      <rect x="28" y="0" width="58" height="16" rx="4"/>
      <rect x="28" y="42" width="48" height="16" rx="4"/>
      <rect x="28" y="84" width="58" height="16" rx="4"/>
    </g>
<g fill="#0B1020">
      <rect x="103" y="30" width="15" height="100" rx="2"/>
      <path fill-rule="evenodd" d="
        M137 30
        A28 28 0 1 1 136.99 30
        Z
        M137 45
        A13 13 0 1 0 137.01 45
        Z
      "/>
    </g>
<g fill="#0B1020">
          <rect x="174" y="0" width="15" height="15" rx="2"/>
          <rect x="174" y="30" width="15" height="70" rx="3"/>
        </g>
<path fill="#0B1020" fill-rule="evenodd" d="
      M236 30
      A35 35 0 1 1 235.99 30
      Z
      M236 46
      A19 19 0 1 0 236.01 46
      Z
    "/>
<path fill="#0B1020" d="
      M280 30
      H297
      L312 78
      L326 30
      H343
      L357 78
      L371 30
      H388
      L366 100
      H349
      L334.5 50
      L320 100
      H303
      Z
    "/>
  </g>
</svg>
