<svg xmlns="http://www.w3.org/2000/svg" viewBox="0 0 428 160">
  
  <g transform="translate(0 22)">
    <g fill="#0B1020">
          <rect x="28" y="0" width="16" height="100" rx="3"/>
          <rect x="28" y="0" width="60" height="16" rx="3"/>
          <rect x="28" y="42" width="46" height="16" rx="3"/>
          <rect x="28" y="84" width="60" height="16" rx="3"/>
        </g>
<g fill="#0B1020">
      <rect x="105" y="30" width="15" height="100" rx="2"/>
      <path fill-rule="evenodd" d="
        M139 30
        A28 28 0 1 1 138.99 30
        Z
        M139 45
        A13 13 0 1 0 139.01 45
        Z
      "/>
    </g>
<g fill="#0B1020">
      <circle cx="185.5" cy="7.5" r="7.5"/>
      <rect x="178" y="30" width="15" height="70" rx="3"/>
    </g>
<path fill="#0B1020" fill-rule="evenodd" d="
      M242 30
      A35 35 0 1 1 241.99 30
      Z
      M242 46
      A19 19 0 1 0 242.01 46
      Z
    "/>
<path fill="#0B1020" d="
      M288 30
      H305
      L320 78
      L334 30
      H351
      L365 78
      L379 30
      H396
      L374 100
      H357
      L342.5 50
      L328 100
      H311
      Z
    "/>
  </g>
</svg>
