<svg xmlns="http://www.w3.org/2000/svg" viewBox="0 0 448 160">
  
  <g transform="translate(0 22)">
    <g fill="#0B1020">
      <rect x="28" y="0" width="16" height="100" rx="4"/>
      <rect x="28" y="0" width="58" height="16" rx="4"/>
      <rect x="28" y="42" width="48" height="16" rx="4"/>
      <rect x="28" y="84" width="58" height="16" rx="4"/>
    </g>
<g fill="#0B1020">
      <rect x="110" y="30" width="15" height="100" rx="2"/>
      <path fill-rule="evenodd" d="
        M144 30
        A28 28 0 1 1 143.99 30
        Z
        M144 45
        A13 13 0 1 0 144.01 45
        Z
      "/>
    </g>
<g fill="#0B1020">
      <circle cx="195.5" cy="7.5" r="7.5"/>
      <rect x="188" y="30" width="15" height="70" rx="3"/>
    </g>
<path fill="#0B1020" fill-rule="evenodd" d="
      M257 30
      A35 35 0 1 1 256.99 30
      Z
      M257 46
      A19 19 0 1 0 257.01 46
      Z
    "/>
<path fill="#0B1020" d="
      M308 30
      H325
      L340 78
      L354 30
      H371
      L385 78
      L399 30
      H416
      L394 100
      H377
      L362.5 50
      L348 100
      H331
      Z
    "/>
  </g>
</svg>
