<!-- RECRAFT VECTORIZE from logo/options-w3/mock/C1-heavy-navbar-dark.png -->
<svg version="1.1" xmlns="http://www.w3.org/2000/svg" style="display: block;" viewBox="0 0 4096 256" width="4096" height="256" preserveAspectRatio="none">
<path transform="translate(0,0)" fill="rgb(11,16,32)" d="M 0 0 L 4096 0 L 4096 256 L 0 256 L 0 0 z"/>
<path transform="translate(0,0)" fill="rgb(66,55,202)" d="M 3680.9 61.8564 C 3683.62 59.9054 3850.49 60.742 3867.69 60.7461 L 3927.44 60.7382 C 3936.42 60.7383 3952.44 60.2888 3960.98 61.3648 C 3965.1 66.383 3963.97 61.5095 3968.79 66.4601 C 3972.78 70.5586 3976.43 74.4147 3979.89 79.0568 C 3981.95 81.8272 3980.54 83.4573 3983.46 85.0567 C 3984.52 101.225 3983.64 120.076 3983.96 136.454 C 3984.06 141.713 3984.11 163.594 3983.35 167.877 C 3979.2 171.354 3981.28 173.159 3980.36 173.998 C 3975.82 178.121 3967.92 188.526 3962.16 189.692 L 3960.85 191.491 C 3940.9 192.706 3684.51 192.515 3681.02 191.021 C 3680.79 190.693 3680.07 189.854 3679.67 189.729 C 3672.33 187.421 3665.81 179.187 3661.04 173.328 C 3660.06 172.13 3662.26 171.256 3658.42 167.922 C 3657.12 161.121 3656.93 88.2443 3658.93 84.9498 C 3661.45 82.9716 3659.9 79.1996 3664.11 75.489 C 3668.42 71.6869 3672.56 65.1345 3678.5 63.6465 C 3678.76 63.5825 3680.51 62.176 3680.9 61.8564 z"/>
<path transform="translate(0,0)" fill="rgb(243,243,250)" d="M 3903.59 133.859 C 3898.63 138.921 3891.58 141.066 3886.63 135.476 C 3875.69 123.131 3893.01 101.381 3905.08 122.907 C 3909.29 121.65 3907.11 117.333 3912.42 114.216 C 3915.39 114.084 3917.57 114.034 3920.57 114.177 C 3923.66 109.54 3919.2 108.205 3922.95 104.323 L 3925.35 104.67 C 3927.59 107.849 3926.87 131.711 3926.08 136.37 L 3924.89 137.884 L 3921.26 137.031 L 3920.52 138.188 C 3909.15 142.767 3910.71 136.193 3903.59 133.859 z"/>
<path transform="translate(0,0)" fill="rgb(58,46,199)" d="M 3905.71 127.426 C 3907.89 137.437 3910.68 139.05 3920.52 138.188 C 3909.15 142.767 3910.71 136.193 3903.59 133.859 L 3901.89 132.27 C 3896.77 132.875 3895.93 135.24 3891.47 133.955 C 3888.85 131.679 3889.36 132.687 3888.54 129.653 C 3890.89 127.665 3900.8 128.178 3905.71 127.426 z"/>
<path transform="translate(0,0)" fill="rgb(58,46,199)" d="M 3912.46 118.436 C 3914.08 118.357 3915.78 118.706 3917.4 118.964 C 3923.53 123.843 3921.48 128.061 3918.76 134.462 L 3914.44 133.926 C 3908.51 129.569 3910.22 124.714 3912.46 118.436 z"/>
<path transform="translate(0,0)" fill="rgb(243,243,250)" d="M 3727.74 120.386 C 3730.88 120.495 3737.09 120.148 3739.31 122.619 C 3742.52 126.194 3742.08 130.149 3738.73 133.544 C 3735.36 136.912 3730.79 138.808 3726.02 138.818 C 3716.72 138.811 3710.43 129.953 3710.48 121.276 C 3710.5 116.443 3712.46 111.821 3715.93 108.45 C 3723.99 100.584 3738.68 102.882 3738.45 113.239 L 3735.84 115.035 C 3739.04 118.435 3743.61 115.631 3745.08 119.498 C 3743.73 123.969 3743.12 125.543 3743.77 130.14 L 3742.98 129.829 C 3742.78 126.393 3742.67 122.952 3742.64 119.51 C 3738.32 119.502 3731.69 119.178 3727.74 120.386 z"/>
<path transform="translate(0,0)" fill="rgb(58,46,199)" d="M 3727.74 120.386 L 3727.29 122.585 C 3729.51 126.335 3734.71 124.117 3736.65 129.036 C 3734.66 132.078 3727.78 135.64 3724.48 134.708 C 3708.31 130.137 3719.3 91.6523 3735.84 115.035 C 3739.04 118.435 3743.61 115.631 3745.08 119.498 C 3743.73 123.969 3743.12 125.543 3743.77 130.14 L 3742.98 129.829 C 3742.78 126.393 3742.67 122.952 3742.64 119.51 C 3738.32 119.502 3731.69 119.178 3727.74 120.386 z"/>
<path transform="translate(0,0)" fill="rgb(243,243,250)" d="M 3853.33 136.105 L 3851.55 138.233 C 3846.96 139.098 3847.72 137.11 3846.56 137.155 C 3840.16 137.401 3831.75 139.697 3827.33 133.663 C 3827.83 124.46 3838.24 125.736 3843.83 122.444 L 3843.62 120.576 C 3837.21 115.295 3836.11 122.078 3830.39 120.569 L 3830.37 118.986 C 3832.44 116.819 3835.85 113.821 3838.8 113.339 C 3849.66 111.568 3849.36 128.024 3850.25 134.009 L 3853.33 136.105 z"/>
<path transform="translate(0,0)" fill="rgb(243,243,250)" d="M 3752.48 114.309 C 3753.14 114.25 3753.8 114.2 3754.46 114.158 C 3761.34 113.724 3766.57 117.362 3766.97 124.429 C 3763.87 130.272 3753.34 127.89 3750.38 131.071 C 3755.12 135.42 3757.18 134.53 3762.81 132.742 C 3763.79 131.973 3763.53 132.205 3765.05 132.269 L 3765.29 133.779 C 3756.92 148.462 3733.98 129.108 3752.48 114.309 z"/>
<path transform="translate(0,0)" fill="rgb(243,243,250)" d="M 3798.48 114.078 C 3804.55 113.831 3808.28 113.365 3812.05 119.071 L 3810.99 120.015 C 3807.17 119.796 3803.36 119.49 3799.56 119.097 L 3798.79 120.454 C 3803.58 126.24 3812.31 124.349 3813.17 132.219 C 3811.61 135.52 3810.54 136.239 3807.75 138.519 C 3802.57 138.699 3795.65 139.386 3793.92 133.016 C 3796.08 131.845 3803.36 133.478 3807.63 133.383 L 3808.31 132.093 C 3805.68 126.109 3796.58 128.549 3793.96 121.306 C 3794.52 117.791 3796.03 116.609 3798.48 114.078 z"/>
<path transform="translate(0,0)" fill="rgb(243,243,250)" d="M 3819.29 107.608 C 3820.95 108.502 3825.69 114.713 3823.95 117.849 C 3818.72 127.261 3822.75 131.919 3827.5 137.945 C 3822.71 138.314 3823.51 138.938 3819.7 136.919 C 3814.63 130.109 3814.86 114.943 3819.29 107.608 z"/>
<path transform="translate(0,0)" fill="rgb(243,243,250)" d="M 3871.56 114.289 C 3872.56 110.391 3871.88 110.883 3874.55 108.152 C 3876.97 110.968 3874.8 112.26 3877.67 113.711 C 3878.5 114.124 3879.52 114.992 3880.24 115.607 C 3877.73 123.292 3874.41 120.832 3876.11 132.493 L 3880.71 135.989 L 3880.4 137.514 C 3877.39 138.775 3878.49 138.729 3875.48 137.998 C 3868.38 130.912 3875.44 123.264 3867.82 115.059 L 3871.56 114.289 z"/>
<path transform="translate(0,0)" fill="rgb(243,243,250)" d="M 3774.37 107.677 L 3776.11 108.975 C 3776.71 115.546 3784.12 111.862 3776.64 123.514 C 3774.39 127.008 3779.44 133.647 3782.51 137.36 C 3780.03 138.338 3779.11 138.22 3776.43 138.098 C 3768.25 133.157 3776.13 124.751 3770.42 117.103 C 3770.57 114.738 3772.96 111.683 3774.37 107.677 z"/>
<path transform="translate(0,0)" fill="rgb(243,243,250)" d="M 3860.16 115.831 C 3863.03 114.472 3863.69 114.399 3866.84 114.712 C 3864.83 119.725 3857.27 122.325 3859.15 133.293 C 3859.38 134.643 3859.26 136.562 3858.23 137.536 C 3855.27 133.248 3853.29 118.319 3857.45 114.9 L 3860.16 115.831 z"/>
<path transform="translate(0,0)" fill="rgb(58,46,199)" d="M 3860.16 115.831 C 3859 110.75 3857.95 114.465 3855.53 111.181 C 3859.56 109.951 3866.41 108.39 3870.39 110.322 L 3871.56 114.289 L 3867.82 115.059 L 3866.84 114.712 C 3863.69 114.399 3863.03 114.472 3860.16 115.831 z"/>
<path transform="translate(0,0)" fill="rgb(58,46,199)" d="M 3909.07 140.426 C 3913.37 139.871 3922.05 139.766 3926.24 140.662 L 3927.48 142.596 C 3921.98 142.461 3912.23 144.718 3909.07 140.426 z"/>
<path transform="translate(0,0)" fill="rgb(58,46,199)" d="M 3850.25 134.009 C 3852.5 126.739 3851.03 123.317 3853.17 116.957 C 3854.13 121.708 3854.17 131.35 3853.33 136.105 L 3850.25 134.009 z"/>
<path transform="translate(0,0)" fill="rgb(58,46,199)" d="M 3718.32 140.526 C 3723.38 139.803 3732.05 138.702 3735.61 142.439 C 3732.76 142.624 3729.91 142.769 3727.05 142.874 C 3722.94 142.992 3721.03 143.09 3718.32 140.526 z"/>
<path transform="translate(0,0)" fill="rgb(58,46,199)" d="M 3795.58 140.464 C 3800.27 140.092 3807.87 138.379 3810.52 142.495 C 3806.05 142.784 3798.01 144.306 3795.58 140.464 z"/>
<path transform="translate(0,0)" fill="rgb(58,46,199)" d="M 3768.67 118.447 L 3770.62 120.165 C 3771.09 123.407 3771.47 131.44 3769.56 134.082 L 3768.92 133.468 C 3768.44 129.359 3768.55 122.688 3768.67 118.447 z"/>
<path transform="translate(0,0)" fill="rgb(58,46,199)" d="M 3750.15 140.423 C 3754.67 140.007 3760.98 138.462 3763.53 142.517 C 3758.84 142.903 3753.17 144.23 3750.15 140.423 z"/>
<path transform="translate(0,0)" fill="rgb(58,46,199)" d="M 3749.39 110.529 C 3753.76 109.968 3760.5 108.868 3764.19 111.68 C 3759.54 113.306 3753.31 113.705 3749.39 110.529 z"/>
<path transform="translate(0,0)" fill="rgb(58,46,199)" d="M 3887.57 140.453 C 3890.9 140.113 3897.12 139.48 3900.03 140.727 L 3900.43 142.476 C 3895.64 142.897 3893.43 143.215 3888.74 142.301 L 3887.57 140.453 z"/>
<path transform="translate(0,0)" fill="rgb(58,46,199)" d="M 3830.84 140.419 C 3835.22 139.957 3840.04 138.533 3842.53 142.516 C 3837.74 142.946 3834.23 144.051 3830.84 140.419 z"/>
<path transform="translate(0,0)" fill="rgb(58,46,199)" d="M 3817.84 140.441 C 3821.19 139.983 3823.02 139.545 3826.3 140.515 L 3827.09 142.602 C 3823.78 142.911 3821.98 143.238 3818.75 142.319 L 3817.84 140.441 z"/>
<path transform="translate(0,0)" fill="rgb(243,243,250)" d="M 135.628 83.9186 L 181.59 83.9298 C 181.654 89.1124 181.863 94.1654 181.051 99.2953 C 174.259 99.26 153.616 97.7627 149.986 100.57 L 149.61 102.514 C 154.316 107.648 166.333 100.903 172.364 106.162 L 172.465 107.669 L 172.455 116.98 L 172.759 119.911 C 177.508 121.829 176.826 118.842 179.944 123.146 C 182.62 125.837 181.688 134.455 181.628 138.316 L 135.718 138.359 C 135.966 120.213 135.936 102.064 135.628 83.9186 z"/>
<path transform="translate(0,0)" fill="rgb(5,8,20)" d="M 179.944 123.146 C 173.535 123.299 152.571 125.108 149.414 120.899 L 150.523 118.622 C 155.794 116.418 165.879 119.151 172.222 117.058 L 172.455 116.98 L 172.759 119.911 C 177.508 121.829 176.826 118.842 179.944 123.146 z"/>
<path transform="translate(0,0)" fill="rgb(243,243,250)" d="M 188.55 98.8883 C 202.691 98.5697 200.707 103.71 213.106 98.4807 C 224.274 101.142 228.439 104.247 232.247 115.224 C 232.26 117.088 232.4 120.823 232.245 122.518 C 227.905 134.125 223.374 137.292 211.171 138.844 L 205.085 136.458 L 204.713 135.868 L 202.978 135.987 C 200.018 142.445 205.946 156.075 196.996 160.821 C 194.002 161.472 192.946 160.875 190.202 159.704 C 187.582 153.801 188.579 108.916 188.55 98.8883 z"/>
<path transform="translate(0,0)" fill="rgb(5,8,20)" d="M 211.57 110.617 C 214.537 109.898 217.662 110.84 219.738 113.079 C 221.813 115.319 222.516 118.506 221.574 121.411 C 220.632 124.315 218.193 126.483 215.198 127.079 C 210.698 127.973 206.31 125.105 205.322 120.625 C 204.335 116.145 207.111 111.698 211.57 110.617 z"/>
<path transform="translate(0,0)" fill="rgb(243,243,250)" d="M 309.549 103.973 L 309.733 100.949 C 313.465 97.6464 318.526 99.1408 323.822 98.8544 C 324.253 106.064 324.741 120.392 326.219 126.887 L 327.545 128.002 C 328.859 126.285 328.648 126.991 328.842 124.851 C 329.507 122.629 330.416 116.989 330.894 114.464 C 335.173 98.334 333.302 98.7855 350.382 99.1379 C 350.554 103.658 350.549 125.443 353.122 127.746 C 354.966 126.107 355.502 121.895 355.72 119.471 L 356.893 113.283 C 357.966 108.651 358.526 102.913 361.879 99.876 C 364.881 98.7632 366.492 99.0673 369.611 99.3467 C 373.288 103.29 356.869 132.631 353.884 138.33 L 339.028 138.244 C 341.036 130.351 342.514 124.674 343.501 116.628 C 338.83 122.717 335.333 131.245 332.239 138.37 L 317.731 138.328 C 317.088 135.367 315.912 129.185 314.867 126.634 C 313.408 119.226 311.348 111.355 309.549 103.973 z"/>
<path transform="translate(0,0)" fill="rgb(243,243,250)" d="M 276.717 97.0788 C 290.234 97.1248 301.335 103.604 301.332 118.452 C 301.317 124.46 298.896 130.211 294.61 134.421 C 290.343 138.681 286.55 139.675 280.839 141.216 C 271.208 138.66 265.077 135.869 260.836 126.072 C 259.449 121.425 259.632 116.882 260.66 112.218 C 264.059 103.859 268.286 100.514 276.359 97.0621 L 276.717 97.0788 z"/>
<path transform="translate(0,0)" fill="rgb(5,8,20)" d="M 277.072 108.843 C 280.701 107.501 284.773 108.262 287.672 110.822 C 290.572 113.382 291.831 117.329 290.95 121.095 C 290.069 124.862 287.19 127.84 283.455 128.848 C 278.029 130.312 272.412 127.249 270.703 121.895 C 268.995 116.542 271.801 110.791 277.072 108.843 z"/>
<path transform="translate(0,0)" fill="rgb(129,143,163)" d="M 1498.56 104.191 C 1503.41 103.91 1508.72 104.133 1513.61 104.235 C 1515.67 105.532 1519.62 107.484 1521.9 108.706 C 1525.62 118.484 1526.69 126.445 1519.4 134.663 C 1512.15 140.165 1506.75 138.702 1497.52 138.225 C 1497.56 131.261 1496.47 109.025 1498.56 104.191 z"/>
<path transform="translate(0,0)" fill="rgb(11,16,32)" d="M 1502.94 108.154 C 1503.54 108.137 1504.14 108.126 1504.74 108.119 C 1520.87 107.932 1524.85 122.656 1514.79 132.759 C 1512.4 134.443 1505.15 135.952 1503.64 132.493 C 1501.27 127.04 1501.6 113.779 1502.94 108.154 z"/>
<path transform="translate(0,0)" fill="rgb(5,8,20)" d="M 1575.62 121.836 C 1579.47 111.976 1587.68 109.004 1593.11 119.58 L 1593.08 120.873 C 1588.84 119.346 1586.69 118.166 1582.21 118.551 L 1581.39 119.407 C 1584.45 126.408 1594.59 124.297 1596.56 131.938 C 1593.06 140.27 1577.93 142.205 1575.95 131.299 L 1573.94 131.48 C 1571.52 136.45 1566.57 140.187 1561.28 138.31 C 1543.06 131.849 1561.45 98.1358 1574.78 121.537 L 1575.62 121.836 z"/>
<path transform="translate(0,0)" fill="rgb(129,143,163)" d="M 1575.62 121.836 C 1579.47 111.976 1587.68 109.004 1593.11 119.58 L 1593.08 120.873 C 1588.84 119.346 1586.69 118.166 1582.21 118.551 L 1581.39 119.407 C 1584.45 126.408 1594.59 124.297 1596.56 131.938 C 1593.06 140.27 1577.93 142.205 1575.95 131.299 C 1581.71 130.74 1579.63 135.035 1589.19 133.597 L 1589.77 132.381 C 1583.8 125.68 1580.25 128.769 1575.62 121.836 z"/>
<path transform="translate(0,0)" fill="rgb(129,143,163)" d="M 1573.94 131.48 C 1571.52 136.45 1566.57 140.187 1561.28 138.31 C 1543.06 131.849 1561.45 98.1358 1574.78 121.537 C 1564.43 122.416 1566.49 115.428 1559.77 120.792 C 1557.79 125.233 1557.59 131.188 1562.49 133.804 C 1567.65 135.097 1566.08 131.045 1573.94 131.48 z"/>
<path transform="translate(0,0)" fill="rgb(5,8,20)" d="M 3679.79 56.4341 C 3688.79 54.8964 3958.17 55.8273 3961.25 56.6901 L 3961.91 58.5435 C 3946.9 59.2376 3927.64 58.6893 3912.39 58.6935 L 3817.38 58.7087 L 3729.57 58.7067 C 3714.45 58.7037 3695.56 59.2195 3680.67 58.3903 L 3679.79 56.4341 z"/>
<path transform="translate(0,0)" fill="rgb(129,143,163)" d="M 709.123 130.619 L 711.402 132.137 L 711.573 134.347 C 709.409 137.587 704.279 138.943 700.533 138.425 C 694.5 137.591 695.306 131.205 692.426 127.691 C 690.228 130.7 690.994 133.44 691.336 137.239 C 687.224 139.357 676.996 138.294 672.911 135.543 C 670.571 132.774 670.306 117.398 673.106 114.651 L 674.899 114.902 C 678.982 121.714 671.163 130.8 680.507 134.389 C 690.63 132.392 683.357 120.617 688 114.612 L 690.017 114.835 C 692.142 117.27 690.208 121.634 692.274 124.753 C 698.16 114.545 704.468 107.002 712.623 120.776 C 712.94 120.397 715.36 118.466 715.906 118.019 C 715.402 121.539 715.357 127.791 713.318 129.554 C 710.994 129.766 710.682 129.407 709.123 130.619 z"/>
<path transform="translate(0,0)" fill="rgb(5,8,20)" d="M 709.123 130.619 C 706.223 133.814 705.042 134.24 701.066 133.651 C 696.807 130.364 696.979 124.492 699.34 120.12 C 706.454 115.646 704.289 122.25 712.623 120.776 C 712.94 120.397 715.36 118.466 715.906 118.019 C 715.402 121.539 715.357 127.791 713.318 129.554 C 710.994 129.766 710.682 129.407 709.123 130.619 z"/>
<path transform="translate(0,0)" fill="rgb(129,143,163)" d="M 1300.92 130.163 C 1300.98 113.921 1307.12 111.37 1315.85 116.333 C 1316.74 116.835 1318.11 113.442 1321.16 115.691 C 1324.16 124.051 1322.63 143.961 1314.23 149.301 C 1309.68 149.9 1302.87 146.987 1302.2 142.511 C 1308.8 141.118 1312.55 146.83 1316.21 140.359 L 1315.53 138.863 C 1307.53 136.869 1305.6 139.496 1301.1 132.312 L 1300.92 130.163 z"/>
<path transform="translate(0,0)" fill="rgb(5,8,20)" d="M 1309.9 117.516 C 1319.34 120.398 1317.2 128.128 1313.31 134.468 C 1302.62 132.976 1303.73 123.056 1309.9 117.516 z"/>
<path transform="translate(0,0)" fill="rgb(243,243,250)" d="M 240.953 99.2171 C 243.873 99.183 249.692 98.7536 251.991 100.043 C 254.27 105.631 254.1 132.635 252.508 138.333 C 250.717 138.358 241.557 138.678 241.208 137.233 C 239.369 129.615 238.782 105.785 240.953 99.2171 z"/>
<path transform="translate(0,0)" fill="rgb(129,143,163)" d="M 662.151 103.551 C 663.335 104.074 664.819 104.469 665.076 105.736 C 666.289 111.705 666.572 132.263 664.997 137.069 C 659.909 137.718 656.154 138.34 650.969 138.584 C 637.786 127.854 642.661 116.613 659.136 113.675 C 661.674 110.839 658.881 108.513 662.151 103.551 z"/>
<path transform="translate(0,0)" fill="rgb(5,8,20)" d="M 651.473 118.356 C 653.462 118.334 654.957 118.612 656.915 118.922 C 662.769 124.142 660.778 128.136 657.723 134.525 C 653.312 133.867 654.324 134.579 650.967 131.925 C 648.529 127.263 650.016 123.271 651.473 118.356 z"/>
<path transform="translate(0,0)" fill="rgb(129,143,163)" d="M 1190.41 104.317 C 1200.09 103.799 1213.57 100.88 1214.95 113.959 L 1215.11 114.828 C 1209.77 124.027 1203.9 119.887 1196.5 122.629 C 1194.59 125.326 1196.13 131.621 1196.66 135.127 C 1195.08 137.438 1194.73 137.873 1192.14 138.92 L 1190.85 138.062 C 1189.66 132.618 1190.33 111.308 1190.41 104.317 z"/>
<path transform="translate(0,0)" fill="rgb(5,8,20)" d="M 1196.42 108.213 C 1197.45 108.193 1198.48 108.182 1199.51 108.179 C 1204.02 108.163 1206.07 107.811 1209.15 110.863 C 1209.85 113.498 1208.96 114.86 1207.81 117.267 C 1203.01 117.475 1197.95 118.576 1194.94 114.381 C 1195.01 111.444 1195.07 110.802 1196.42 108.213 z"/>
<path transform="translate(0,0)" fill="rgb(5,8,20)" d="M 181.051 99.2953 L 181.258 101.708 L 182.549 102.187 C 183.878 98.6887 184.304 89.2609 185.304 84.2727 L 186.02 84.2039 C 186.647 87.9273 186.851 89.4214 186.756 93.1951 C 191.41 93.0724 196.54 92.5843 200.802 94.3967 L 201.035 95.5085 C 197.403 97.2316 191.012 96.6126 186.78 96.51 C 185.288 109.173 187.718 149.099 185.158 157.157 C 181.475 148.374 186.184 109.217 182.287 104.63 C 178.805 104.563 179.978 104.171 177.216 106.109 C 175.419 111.834 177.472 114.208 180.645 118.856 C 179.119 120.394 178.177 119.907 175.538 119.98 L 174.047 118.921 C 175.034 110.93 173.874 113.683 172.465 107.669 L 172.364 106.162 C 166.333 100.903 154.316 107.648 149.61 102.514 L 149.986 100.57 C 153.616 97.7627 174.259 99.26 181.051 99.2953 z"/>
<path transform="translate(0,0)" fill="rgb(129,143,163)" d="M 576.272 104.276 C 584.791 103.764 596.745 102.21 600.845 112.062 C 600.451 121.716 590.242 121.95 582.955 121.772 C 578.411 125.042 583.627 131.33 578.73 138.551 L 577.313 138.18 C 575.118 134.9 575.826 109.294 576.272 104.276 z"/>
<path transform="translate(0,0)" fill="rgb(5,8,20)" d="M 581.238 108.36 C 584.991 108.258 590.927 107.536 593.709 109.693 C 595.505 113.48 594.989 112.563 594.631 117.034 C 590.944 117.303 585.316 118.188 582.275 116.478 C 580.231 113.077 580.977 112.903 581.238 108.36 z"/>
<path transform="translate(0,0)" fill="rgb(129,143,163)" d="M 883.685 104.221 C 892.074 103.785 904.038 102.309 908.007 112.064 C 907.426 121.953 896.622 121.97 889.175 121.703 C 885.663 125.517 891.062 132.412 886.426 137.774 L 884.795 137.55 C 881.892 132.779 882.752 110.168 883.685 104.221 z"/>
<path transform="translate(0,0)" fill="rgb(5,8,20)" d="M 888.87 108.277 C 892.775 108.192 898.49 107.508 901.341 110.042 C 902.538 113.997 902.207 112.94 901.237 117.199 C 895.787 117.527 892.01 118.549 888.145 115.132 C 887.694 112.034 887.994 111.176 888.87 108.277 z"/>
<path transform="translate(0,0)" fill="rgb(129,143,163)" d="M 977.817 114.209 C 995.013 113.104 997.897 128.119 986.263 138.49 C 969.61 139.458 966.366 124.367 977.817 114.209 z"/>
<path transform="translate(0,0)" fill="rgb(11,16,32)" d="M 979.689 117.687 C 981.97 117.9 983.651 118.169 985.496 119.631 C 987.042 120.866 988.036 122.665 988.259 124.631 C 988.74 129.144 986.776 131.71 984.15 135.014 C 981.492 134.554 980.93 134.266 978.558 132.969 C 974.054 127.587 975.705 122.699 979.689 117.687 z"/>
<path transform="translate(0,0)" fill="rgb(129,143,163)" d="M 625.862 114.207 C 643.019 113.093 645.678 128.31 634.256 138.505 C 632.834 138.578 631.295 138.629 629.876 138.547 C 626.922 138.403 624.151 137.075 622.188 134.862 C 615.986 127.826 619.745 119.609 625.862 114.207 z"/>
<path transform="translate(0,0)" fill="rgb(11,16,32)" d="M 627.7 117.692 C 630.002 117.891 631.667 118.161 633.531 119.631 C 635.075 120.864 636.061 122.663 636.271 124.628 C 636.744 129.143 634.789 131.71 632.167 135.022 C 621.534 133.262 622.18 124.511 627.7 117.692 z"/>
<path transform="translate(0,0)" fill="rgb(129,143,163)" d="M 1534.76 114.176 C 1551.81 113.187 1554.75 128.52 1542.73 138.605 C 1541.58 138.653 1540.42 138.651 1539.27 138.6 C 1525.62 137.928 1524.83 122.902 1534.76 114.176 z"/>
<path transform="translate(0,0)" fill="rgb(5,8,20)" d="M 1536.72 117.624 C 1547.59 118.875 1546.49 128.071 1541.07 134.814 C 1538.17 134.487 1537.64 134.312 1535.17 132.765 C 1530.94 127.253 1532.61 122.525 1536.72 117.624 z"/>
<path transform="translate(0,0)" fill="rgb(129,143,163)" d="M 1020.03 114.62 C 1024.61 112.754 1025.98 117.255 1029.43 117.032 C 1028.76 117.075 1033.98 114.221 1034.45 114.004 C 1046.87 114.299 1045.15 132.386 1040.48 139.181 L 1038.55 138.559 C 1037.04 133.999 1039.43 121.698 1033.77 117.708 L 1030.87 118.556 C 1030 120.246 1029.39 123.765 1028.97 125.753 C 1029.17 129.731 1030.6 137.257 1025.57 138.303 C 1021.94 132.879 1027.2 120.917 1020.47 117.561 C 1012.43 120.831 1017.64 132.624 1013.15 138.169 L 1011.82 137.65 C 1009.98 134.731 1010.5 120.54 1010.68 116.31 C 1013.38 114.309 1013.63 117.551 1020.03 114.62 z"/>
<path transform="translate(0,0)" fill="rgb(129,143,163)" d="M 945.884 119.121 L 944.359 116.391 C 946.554 113.092 947.55 109.169 949.57 108.618 C 952.096 112.369 952.072 113.6 955.743 114.926 C 962.832 112.454 958.722 108.727 964.959 104.221 C 968.006 103.969 967.03 103.646 969.299 105.474 C 968.036 110.532 965.13 107.767 964.984 112.467 C 966.747 113.5 968.491 114.38 969.769 115.985 C 968.859 117.715 964.939 120.498 964.929 120.869 C 964.81 125.138 964.909 129.478 964.977 133.75 C 964.804 136.92 965.262 135.958 963.165 138.105 C 954.637 135.661 965.502 121.744 957.072 117.805 C 954.464 118.067 952.985 118.02 951.119 119.944 C 947.592 126.953 956.303 133.488 955.126 137.922 C 951.453 138.636 952.875 138.669 949.12 137.406 C 944.16 131.715 948.781 123.793 945.884 119.121 z"/>
<path transform="translate(0,0)" fill="rgb(129,143,163)" d="M 936.48 122.379 C 935.45 121.073 933.569 118.949 931.923 118.634 L 931.747 118.601 C 929.616 118.193 925.662 120.175 923.531 121.089 L 921.949 120.039 C 922.99 114.579 928.574 112.713 933.59 112.995 C 943.782 118.122 938.351 127.387 941.977 134.99 L 943.076 136.614 L 942.12 138.191 C 937.628 138.31 935.935 135.362 935.406 135.482 C 930.751 136.542 924.422 140.315 919.614 135.683 C 919.226 134.524 919.358 133.858 919.634 132.762 C 922.449 121.578 929.748 126.454 936.48 122.379 z"/>
<path transform="translate(0,0)" fill="rgb(129,143,163)" d="M 1255.84 133.725 C 1258.92 131.594 1258 131.54 1261.25 131.792 L 1261.86 133.68 C 1259.16 139.383 1252.42 140.348 1247.48 136.164 C 1237.33 127.578 1246.13 107.492 1258.82 115.796 C 1260.61 116.968 1260.85 118.592 1260.87 120.533 L 1258.84 121.046 L 1255.87 119.029 C 1254.31 124.97 1250.23 123.683 1252.78 129.733 L 1255.44 131.336 L 1255.84 133.725 z"/>
<path transform="translate(0,0)" fill="rgb(5,8,20)" d="M 1255.84 133.725 C 1253.52 134.135 1253.06 133.997 1250.86 133.135 C 1246.87 129.133 1246.97 124.146 1250.31 119.699 C 1253.43 118.232 1252.2 118.496 1255.87 119.029 C 1254.31 124.97 1250.23 123.683 1252.78 129.733 L 1255.44 131.336 L 1255.84 133.725 z"/>
<path transform="translate(0,0)" fill="rgb(129,143,163)" d="M 1285.95 114.367 C 1287.26 114.117 1289.3 114.444 1290.7 114.595 C 1297.73 118.822 1298.46 135.105 1293.63 137.713 C 1288.83 132.701 1296.32 122.361 1285.08 117.104 C 1277.03 126.019 1282.85 134.038 1279.28 138.149 C 1276.12 134.586 1273.93 118.474 1277.9 114.921 C 1279.57 115.229 1281.14 115.912 1282.72 116.526 L 1285.95 114.367 z"/>
<path transform="translate(0,0)" fill="rgb(5,8,20)" d="M 3653.4 83.656 C 3653.76 83.7847 3654.16 83.9517 3654.42 84.2389 C 3657.49 87.6161 3655.73 159.999 3655.56 168.922 L 3654.05 168.618 C 3652.53 165.926 3653.21 92.0631 3653.4 83.656 z"/>
<path transform="translate(0,0)" fill="rgb(5,8,20)" d="M 309.549 103.973 C 311.348 111.355 313.408 119.226 314.867 126.634 C 314.772 130.113 315.215 134.895 313.37 137.357 C 309.812 135.011 309.982 124.053 308.502 119.244 C 305.983 121.288 305.62 127.466 302.835 129.952 C 300.675 123.285 308.705 112.341 307.323 105.657 L 309.549 103.973 z"/>
<path transform="translate(0,0)" fill="rgb(129,143,163)" d="M 715.906 118.019 L 714.476 116.793 C 714.822 114.946 717.055 110.08 718.489 109.067 C 718.807 108.844 719.144 108.648 719.495 108.482 C 723.535 113.66 717.719 110.583 725.492 115.487 C 724.014 119.962 721.396 116.637 721.071 123.25 C 721.018 125.28 720.625 131.375 721.544 132.796 L 721.617 132.91 C 723.209 135.375 725.339 133.239 725.436 137.258 C 722.73 138.749 723.545 138.323 720.002 137.988 C 713.288 132.603 718.49 125.26 715.906 118.019 z"/>
<path transform="translate(0,0)" fill="rgb(129,143,163)" d="M 913.036 103.634 L 914.754 104.76 C 917.086 108.15 916.036 133.731 915.366 138.799 L 912.893 137.688 C 910.527 133.949 910.659 107.752 913.036 103.634 z"/>
<path transform="translate(0,0)" fill="rgb(5,8,20)" d="M 131.091 83.6696 C 131.27 83.7855 131.42 83.876 131.555 84.0456 C 134.714 88.0133 133.209 131.44 132.524 138.919 C 132.29 138.682 131.084 137.368 131.064 137.163 C 130.127 127.385 129.496 91.3411 131.091 83.6696 z"/>
<path transform="translate(0,0)" fill="rgb(5,8,20)" d="M 232.247 115.224 L 232.444 108.095 L 234.865 108.269 L 236.04 107.215 L 235.718 100.359 L 236.933 99.3162 C 238.167 101.184 238.726 125.051 236.03 128.432 C 234.504 128.88 233.592 129.04 232.363 130.085 L 233.046 128.203 C 231.659 125.863 232.142 125.489 232.245 122.518 C 232.4 120.823 232.26 117.088 232.247 115.224 z"/>
<path transform="translate(0,0)" fill="rgb(129,143,163)" d="M 613.287 114.871 C 613.719 114.666 614.692 114.924 615.221 115.017 C 615.358 116.437 614.626 117.112 613.32 117.896 C 602.75 124.239 614.756 134.178 604.881 138.764 C 604.041 134.562 604.248 119.91 605.146 115.641 L 606.437 114.898 L 610.185 116.382 L 613.287 114.871 z"/>
<path transform="translate(0,0)" fill="rgb(5,8,20)" d="M 260.836 126.072 C 260.764 129.533 261.387 131.286 259.542 133.537 L 257.797 133.342 C 257.546 132.596 257.33 131.84 257.15 131.075 C 256.077 126.549 255.799 104.001 257.375 101.429 C 261.001 105.752 260.668 107.4 260.66 112.218 C 259.632 116.882 259.449 121.425 260.836 126.072 z"/>
<path transform="translate(0,0)" fill="rgb(129,143,163)" d="M 1219.24 114.973 C 1223.37 116.032 1226.97 115.371 1228.18 116.395 C 1226.31 119.074 1225.23 120.563 1224 123.624 C 1222.65 126.996 1223.56 136.729 1220.63 138.521 C 1217.48 135.626 1219.29 120.976 1218.76 116.06 L 1219.24 114.973 z"/>
<path transform="translate(0,0)" fill="rgb(129,143,163)" d="M 1007.06 114.555 C 1008.27 115.042 1007.94 114.956 1008.75 116.277 C 994.817 126.75 1008.03 130.312 999.442 139.324 C 997.093 135.112 997.762 121.571 998.45 116.554 C 1000.51 113.823 1001.45 117.328 1007.06 114.555 z"/>
<path transform="translate(0,0)" fill="rgb(5,8,20)" d="M 134.311 141.459 C 141.185 140.325 174.418 140.682 181.523 141.39 L 180.358 142.699 C 174.438 140.911 142.356 147.781 134.311 141.459 z"/>
<path transform="translate(0,0)" fill="rgb(129,143,163)" d="M 1268.17 113.722 C 1273.12 115.861 1271.38 134.129 1270.43 138.826 C 1269.24 138.267 1267.44 137.624 1267.2 136.143 C 1266.31 130.712 1265.86 118.42 1268.17 113.722 z"/>
<path transform="translate(0,0)" fill="rgb(129,143,163)" d="M 1236.19 113.691 C 1241 115.83 1239.35 134.213 1238.42 138.815 C 1237.24 138.254 1235.44 137.583 1235.19 136.145 C 1234.23 130.717 1233.89 118.406 1236.19 113.691 z"/>
<path transform="translate(0,0)" fill="rgb(5,8,20)" d="M 328.842 124.851 C 325.37 120.727 326.768 104.442 330.206 99.4213 C 331.087 100.904 330.698 111.254 330.894 114.464 C 330.416 116.989 329.507 122.629 328.842 124.851 z"/>
<path transform="translate(0,0)" fill="rgb(5,8,20)" d="M 205.085 136.458 L 211.171 138.844 C 211.918 139.388 221.366 139.925 222.978 140.069 C 218.429 143.32 210.445 145.095 205.227 142.524 C 203.896 139.731 204.429 139.93 205.085 136.458 z"/>
<path transform="translate(0,0)" fill="rgb(5,8,20)" d="M 355.72 119.471 L 354.012 120.3 C 351.384 116.506 353.574 103.658 355.51 99.5304 C 356.88 101.18 356.798 110.653 356.893 113.283 L 355.72 119.471 z"/>
<path transform="translate(0,0)" fill="rgb(5,8,20)" d="M 276.359 97.0621 C 272.962 96.622 271.395 97.1181 269.699 94.9653 C 273.331 91.8187 281.508 89.2818 285.723 92.8795 L 285.915 93.9444 C 280.254 97.1649 280.113 92.0904 276.717 97.0788 L 276.359 97.0621 z"/>
<path transform="translate(0,0)" fill="rgb(5,8,20)" d="M 1214.95 113.959 C 1216.05 114.181 1218.3 114.561 1219.24 114.973 L 1218.76 116.06 C 1216.19 117.797 1216.91 132.11 1216.12 136.724 C 1214.27 129.597 1214.77 122.142 1215.11 114.828 L 1214.95 113.959 z"/>
<path transform="translate(0,0)" fill="rgb(5,8,20)" d="M 1045.4 117.471 L 1047.19 118.586 C 1048.06 123.176 1047.61 133.304 1047.52 138.397 C 1046.16 138.332 1046.48 138.245 1045.3 137.018 C 1044.53 130.938 1045.11 123.667 1045.4 117.471 z"/>
<path transform="translate(0,0)" fill="rgb(5,8,20)" d="M 1496.8 140.497 C 1502.18 139.925 1512.98 138.573 1516.67 142.458 C 1510.21 142.839 1501.57 144.302 1496.8 140.497 z"/>
<path transform="translate(0,0)" fill="rgb(5,8,20)" d="M 335.241 93.441 C 339.811 93.3259 348.757 92.2052 351.771 95.5897 C 348.33 96.3466 337.885 97.1294 334.793 95.4477 L 335.241 93.441 z"/>
<path transform="translate(0,0)" fill="rgb(5,8,20)" d="M 672.977 140.497 L 674.043 140.423 C 679.048 140.083 688.876 139.01 692.362 142.05 C 687.657 143.427 676.873 143.874 672.977 140.497 z"/>
<path transform="translate(0,0)" fill="rgb(5,8,20)" d="M 648.212 140.42 C 652.313 139.91 661.343 139.858 665.304 140.577 L 666.534 142.595 C 660.946 142.449 651.496 144.763 648.212 140.42 z"/>
<path transform="translate(0,0)" fill="rgb(5,8,20)" d="M 309.81 93.4447 C 314.215 93.3542 320.816 92.7101 324.285 94.7943 L 323.606 96.1729 C 320.306 96.2577 310.678 96.9766 308.569 95.0135 L 309.81 93.4447 z"/>
<path transform="translate(0,0)" fill="rgb(5,8,20)" d="M 187.952 163.418 C 192.657 163.039 196.656 162.506 201.321 163.508 L 202.598 165.65 C 197.749 165.981 190.71 167.597 187.952 163.418 z"/>
<path transform="translate(0,0)" fill="rgb(5,8,20)" d="M 1578 140.427 C 1582.74 140.041 1586.64 139.519 1591.36 140.514 L 1592.56 142.534 C 1587.61 142.898 1581.36 144.266 1578 140.427 z"/>
<path transform="translate(0,0)" fill="rgb(5,8,20)" d="M 945.884 119.121 C 945.325 123.305 945.548 131.652 943.791 133.85 L 941.977 134.99 C 942.821 130.172 942.159 123.744 943.662 119.777 L 945.884 119.121 z"/>
<path transform="translate(0,0)" fill="rgb(5,8,20)" d="M 360.691 93.4395 C 363.961 93.3699 369.984 92.7474 372.49 94.4919 L 371.744 96.185 C 367.883 96.3607 362.654 96.8344 359.544 95.0149 L 360.691 93.4395 z"/>
<path transform="translate(0,0)" fill="rgb(5,8,20)" d="M 1196.31 123.426 C 1202.01 123.029 1207.49 121.961 1211.61 125.426 C 1205.72 126.044 1200.66 127.691 1196.31 123.426 z"/>
<path transform="translate(0,0)" fill="rgb(5,8,20)" d="M 582.286 123.448 C 587.158 123.097 593.125 121.849 596.587 125.476 C 591.24 126.022 585.956 127.594 582.286 123.448 z"/>
<path transform="translate(0,0)" fill="rgb(5,8,20)" d="M 1532.07 140.502 C 1537.07 139.985 1542.02 138.603 1545.63 142.445 C 1543.79 142.618 1541.95 142.761 1540.1 142.874 C 1536.01 143.102 1534.81 142.957 1532.07 140.502 z"/>
<path transform="translate(0,0)" fill="rgb(5,8,20)" d="M 975.327 140.504 C 980.442 139.944 985.021 138.551 988.658 142.449 C 983.657 142.919 979.05 144.145 975.327 140.504 z"/>
<path transform="translate(0,0)" fill="rgb(5,8,20)" d="M 623.366 140.503 C 628.47 139.953 633.03 138.576 636.655 142.468 C 631.712 142.911 626.999 144.142 623.366 140.503 z"/>
<path transform="translate(0,0)" fill="rgb(5,8,20)" d="M 1247.2 140.501 C 1252.25 139.974 1256.99 138.608 1260.61 142.436 C 1255.45 142.939 1251.07 144.192 1247.2 140.501 z"/>
<path transform="translate(0,0)" fill="rgb(5,8,20)" d="M 697.099 140.424 C 701.495 139.984 704.039 139.538 708.338 140.536 L 709.541 142.519 C 704.869 142.945 700.141 144.216 697.099 140.424 z"/>
<path transform="translate(0,0)" fill="rgb(5,8,20)" d="M 1558 140.428 C 1562.45 139.984 1568.03 138.501 1570.53 142.52 C 1565.79 142.942 1561.13 144.211 1558 140.428 z"/>
<path transform="translate(0,0)" fill="rgb(5,8,20)" d="M 921.607 140.447 C 925.523 140.048 928.536 139.504 932.358 140.491 L 933.56 142.534 C 929.231 142.946 926.957 143.333 922.734 142.332 L 921.607 140.447 z"/>
<path transform="translate(0,0)" fill="rgb(5,8,20)" d="M 1301.1 132.312 C 1300.89 133.848 1300.32 135.551 1299.87 137.052 L 1298.83 137.418 C 1297.49 134.399 1297.39 131.449 1299.28 128.752 L 1300.92 130.163 L 1301.1 132.312 z"/>
</svg>