<!-- RECRAFT VECTORIZE from logo/options-w3/mock/C1-heavy-navbar-light.png -->
<svg version="1.1" xmlns="http://www.w3.org/2000/svg" style="display: block;" viewBox="0 0 4096 256" width="4096" height="256" preserveAspectRatio="none">
<path transform="translate(0,0)" fill="rgb(255,255,255)" d="M 0 0 L 4096 0 L 4096 256 L 0 256 L 0 0 z"/>
<path transform="translate(0,0)" fill="rgb(66,55,201)" d="M 3680.91 61.8566 C 3683.63 59.9241 3849.92 60.7553 3867.05 60.7594 L 3927.21 60.7519 C 3936.24 60.752 3952.4 60.2989 3960.99 61.3772 C 3962.48 63.0933 3979.07 74.2388 3980.27 77.7383 C 3984.31 89.5547 3985.06 103.886 3984.07 117.032 C 3982.05 143.711 3993.12 170.993 3966.07 187.995 C 3963.13 189.842 3963.04 188.614 3960.83 191.422 C 3945.93 193.156 3682.86 191.805 3681.03 191.015 C 3679.43 188.788 3677.09 189.53 3675.83 188.29 C 3671.05 183.608 3661.65 177.32 3660.63 170.622 C 3660.41 169.228 3659.6 168.951 3658.42 167.918 C 3657.17 161.228 3656.94 88.3365 3658.9 84.9382 C 3661.5 82.946 3660.06 80.4807 3661.74 78.2938 C 3665.57 73.3024 3670.52 68.6285 3675.41 64.7077 C 3676.45 63.8735 3677.51 64.5511 3680.91 61.8566 z"/>
<path transform="translate(0,0)" fill="rgb(53,40,197)" d="M 3680.91 61.8566 C 3683.63 59.9241 3849.92 60.7553 3867.05 60.7594 L 3927.21 60.7519 C 3936.24 60.752 3952.4 60.2989 3960.99 61.3772 L 3959.96 64.4426 C 3959.67 64.5852 3701.96 66.3097 3683.07 64.8609 C 3681.01 63.5169 3681.48 64.2155 3680.91 61.8566 z"/>
<path transform="translate(0,0)" fill="rgb(53,40,197)" d="M 3681.03 191.015 L 3681.65 188.136 C 3683.72 187.061 3726.88 187.682 3732.41 187.685 L 3907.09 187.702 C 3914.19 187.702 3957.67 186.556 3960.17 188.942 L 3960.83 191.422 C 3945.93 193.156 3682.86 191.805 3681.03 191.015 z"/>
<path transform="translate(0,0)" fill="rgb(53,40,197)" d="M 3658.42 167.918 C 3657.17 161.228 3656.94 88.3365 3658.9 84.9382 L 3661.32 86.3111 C 3662.64 92.6078 3662.6 163.644 3660.48 167.005 L 3658.42 167.918 z"/>
<path transform="translate(0,0)" fill="rgb(231,229,246)" d="M 3903.58 133.853 C 3901.22 136.411 3898.74 138.432 3895.2 138.559 C 3872.57 139.366 3886.9 98.5849 3902.31 119.019 C 3903.75 120.931 3903.48 122.204 3905.94 123.139 C 3908.25 114.093 3911.13 114.264 3919.8 114.876 C 3923.64 111.559 3919.81 108.54 3923.91 104.433 L 3925.85 105.111 L 3926.89 107.479 C 3927.55 113.426 3928.18 131.832 3927.09 137.483 C 3926.21 137.995 3913.32 139.641 3911.46 139.484 C 3908.22 137.683 3905.32 134.064 3903.58 133.853 z"/>
<path transform="translate(0,0)" fill="rgb(53,40,197)" d="M 3905.72 127.419 C 3907.05 134.01 3909.13 139.574 3917 137.742 C 3919.84 137.081 3922.91 138.566 3925.84 136.275 C 3926.92 132.055 3926.02 114.62 3926.89 107.479 C 3927.55 113.426 3928.18 131.832 3927.09 137.483 C 3926.21 137.995 3913.32 139.641 3911.46 139.484 C 3908.22 137.683 3905.32 134.064 3903.58 133.853 C 3900.1 129.588 3897.29 136.067 3891.47 133.96 C 3888.85 131.681 3889.36 132.69 3888.54 129.654 C 3890.42 128.061 3901.79 127.81 3905.72 127.419 z"/>
<path transform="translate(0,0)" fill="rgb(53,40,197)" d="M 3914.8 117.382 C 3924.68 120.759 3921.77 128.607 3917.85 135.404 C 3915.15 134.594 3914.65 134.298 3912.4 132.614 C 3908.86 126.71 3909.89 122.008 3914.8 117.382 z"/>
<path transform="translate(0,0)" fill="rgb(231,229,246)" d="M 3727.74 120.386 C 3730.88 120.496 3737.09 120.149 3739.31 122.62 C 3742.52 126.194 3742.08 130.149 3738.73 133.543 C 3735.36 136.911 3730.79 138.807 3726.02 138.817 C 3716.72 138.81 3710.43 129.953 3710.48 121.276 C 3710.5 116.443 3712.46 111.821 3715.93 108.45 C 3723.99 100.585 3738.68 102.885 3738.45 113.236 L 3735.84 115.034 C 3739.05 118.436 3743.61 115.621 3745.08 119.498 C 3743.74 123.968 3743.12 125.543 3743.77 130.139 L 3742.97 129.83 C 3742.75 126.394 3742.65 122.953 3742.64 119.51 C 3738.32 119.502 3731.69 119.178 3727.74 120.386 z"/>
<path transform="translate(0,0)" fill="rgb(53,40,197)" d="M 3727.74 120.386 L 3727.29 122.585 C 3729.51 126.335 3734.71 124.117 3736.65 129.036 C 3734.66 132.078 3727.78 135.64 3724.48 134.708 C 3708.31 130.137 3719.3 91.6533 3735.84 115.034 C 3739.05 118.436 3743.61 115.621 3745.08 119.498 C 3743.74 123.968 3743.12 125.543 3743.77 130.139 L 3742.97 129.83 C 3742.75 126.394 3742.65 122.953 3742.64 119.51 C 3738.32 119.502 3731.69 119.178 3727.74 120.386 z"/>
<path transform="translate(0,0)" fill="rgb(231,229,246)" d="M 3853.33 136.105 L 3851.58 138.319 C 3847.14 139.336 3844.52 135.157 3844.13 135.756 C 3841.5 139.734 3827.74 140.751 3828.27 130.705 C 3829.88 128.357 3839.82 123.435 3843.55 120.775 L 3843.14 118.723 C 3838.02 118.221 3836.84 119.248 3832.25 121.482 L 3830.03 120.383 L 3830.14 118.657 C 3832.81 116.222 3836.11 114.59 3839.67 113.95 C 3850.56 112.075 3849.23 127.692 3850.25 134.009 L 3853.33 136.105 z"/>
<path transform="translate(0,0)" fill="rgb(231,229,246)" d="M 3752.62 114.11 C 3759.48 113.827 3767.1 116.516 3767.65 124.419 C 3764.27 130.346 3754.92 126.882 3751.08 130.207 C 3752.25 132.916 3751.73 132.055 3754.53 133.939 C 3757.53 134.715 3759.88 133.677 3762.81 132.744 C 3763.79 131.974 3763.52 132.206 3765.05 132.268 L 3765.29 133.762 C 3757.51 147.914 3733.57 129.914 3752.62 114.11 z"/>
<path transform="translate(0,0)" fill="rgb(231,229,246)" d="M 3798.48 114.079 C 3804.55 113.832 3808.27 113.365 3812.05 119.071 L 3810.99 120.015 C 3807.18 119.797 3803.38 119.489 3799.58 119.091 L 3798.79 120.455 C 3803.58 126.244 3812.31 124.346 3813.17 132.219 C 3811.61 135.519 3810.54 136.239 3807.75 138.519 C 3802.58 138.699 3795.64 139.383 3793.92 133.016 C 3796.08 131.847 3803.36 133.479 3807.63 133.384 L 3808.31 132.093 C 3805.68 126.108 3796.58 128.548 3793.96 121.305 C 3794.53 117.792 3796.03 116.609 3798.48 114.079 z"/>
<path transform="translate(0,0)" fill="rgb(231,229,246)" d="M 3819.29 107.61 C 3820.95 108.504 3825.69 114.716 3823.95 117.848 C 3818.72 127.257 3822.75 131.918 3827.5 137.945 C 3822.71 138.314 3823.51 138.937 3819.7 136.918 C 3814.63 130.103 3814.86 114.947 3819.29 107.61 z"/>
<path transform="translate(0,0)" fill="rgb(231,229,246)" d="M 3871.56 114.289 C 3872.56 110.393 3871.88 110.883 3874.55 108.153 C 3876.9 110.884 3874.88 112.17 3877.51 113.611 C 3878.51 114.154 3879.38 114.87 3880.24 115.607 C 3877.73 123.29 3874.41 120.834 3876.11 132.493 L 3880.7 135.99 L 3880.4 137.513 C 3877.39 138.774 3878.49 138.728 3875.48 137.997 C 3868.38 130.914 3875.44 123.264 3867.82 115.059 L 3871.56 114.289 z"/>
<path transform="translate(0,0)" fill="rgb(231,229,246)" d="M 3774.37 107.678 L 3776.11 108.976 C 3776.71 115.544 3784.12 111.864 3776.63 123.514 C 3774.39 127.007 3779.44 133.644 3782.51 137.357 C 3780.02 138.337 3779.11 138.219 3776.43 138.098 C 3768.25 133.158 3776.13 124.751 3770.42 117.102 C 3770.57 114.739 3772.96 111.68 3774.37 107.678 z"/>
<path transform="translate(0,0)" fill="rgb(231,229,246)" d="M 3860.16 115.832 C 3863.03 114.472 3863.69 114.399 3866.84 114.712 C 3864.82 119.728 3857.27 122.32 3859.15 133.293 C 3859.38 134.642 3859.26 136.561 3858.23 137.535 C 3855.27 133.249 3853.29 118.319 3857.45 114.901 L 3860.16 115.832 z"/>
<path transform="translate(0,0)" fill="rgb(53,40,197)" d="M 3860.16 115.832 C 3859 110.749 3857.95 114.47 3855.53 111.182 C 3859.56 109.949 3866.41 108.383 3870.39 110.319 L 3871.56 114.289 L 3867.82 115.059 L 3866.84 114.712 C 3863.69 114.399 3863.03 114.472 3860.16 115.832 z"/>
<path transform="translate(0,0)" fill="rgb(53,40,197)" d="M 3909.05 140.427 C 3913.36 139.87 3922.05 139.76 3926.25 140.659 L 3927.48 142.597 C 3921.98 142.464 3912.22 144.724 3909.05 140.427 z"/>
<path transform="translate(0,0)" fill="rgb(53,40,197)" d="M 3850.25 134.009 C 3852.5 126.737 3851.03 123.326 3853.16 116.95 C 3854.13 121.701 3854.17 131.346 3853.33 136.105 L 3850.25 134.009 z"/>
<path transform="translate(0,0)" fill="rgb(53,40,197)" d="M 3718.31 140.525 C 3723.37 139.802 3732.05 138.699 3735.61 142.439 C 3732.76 142.626 3729.91 142.772 3727.05 142.878 C 3722.94 142.998 3721.04 143.088 3718.31 140.525 z"/>
<path transform="translate(0,0)" fill="rgb(53,40,197)" d="M 3795.57 140.462 C 3800.27 140.09 3807.87 138.366 3810.52 142.496 C 3806.04 142.788 3798.02 144.311 3795.57 140.462 z"/>
<path transform="translate(0,0)" fill="rgb(53,40,197)" d="M 3768.67 118.445 L 3770.62 120.166 C 3771.09 123.41 3771.47 131.438 3769.56 134.085 L 3768.92 133.469 C 3768.44 129.363 3768.55 122.687 3768.67 118.445 z"/>
<path transform="translate(0,0)" fill="rgb(53,40,197)" d="M 3750.12 140.422 C 3754.65 140.006 3760.98 138.456 3763.53 142.518 C 3758.81 142.911 3753.19 144.234 3750.12 140.422 z"/>
<path transform="translate(0,0)" fill="rgb(53,40,197)" d="M 3749.39 110.529 C 3753.76 109.965 3760.5 108.862 3764.19 111.681 C 3759.55 113.308 3753.3 113.707 3749.39 110.529 z"/>
<path transform="translate(0,0)" fill="rgb(53,40,197)" d="M 3887.56 140.452 C 3890.9 140.112 3897.12 139.474 3900.04 140.724 L 3900.44 142.477 C 3895.65 142.901 3893.43 143.222 3888.73 142.302 L 3887.56 140.452 z"/>
<path transform="translate(0,0)" fill="rgb(53,40,197)" d="M 3830.83 140.419 C 3835.22 139.956 3840.04 138.527 3842.53 142.517 C 3837.74 142.95 3834.23 144.055 3830.83 140.419 z"/>
<path transform="translate(0,0)" fill="rgb(53,40,197)" d="M 3817.82 140.441 C 3821.18 139.982 3823.02 139.543 3826.31 140.512 L 3827.1 142.603 C 3823.8 142.913 3821.98 143.245 3818.75 142.319 L 3817.82 140.441 z"/>
<path transform="translate(0,0)" fill="rgb(6,9,23)" d="M 135.643 83.8819 C 150.968 84.0289 166.295 84.0337 181.621 83.8962 C 181.455 88.8243 181.728 94.0196 181.901 98.9664 L 181.25 101.464 C 176.357 103.825 176.384 100.106 173.993 103.93 C 174.173 109.289 174.497 109.783 172.5 114.721 L 172.816 116.274 L 172.88 118.872 C 177.319 120.403 180.859 119.71 183.421 124.536 C 184.793 127.123 183.838 135.662 182.318 137.849 C 175.96 138.825 144.706 138.32 135.718 138.424 C 135.98 120.244 135.955 102.061 135.643 83.8819 z"/>
<path transform="translate(0,0)" fill="rgb(231,229,246)" d="M 181.662 123.425 C 173.321 123.228 165.005 123.434 156.665 123.376 C 153.231 123.352 150.892 123.907 149.215 120.471 C 155.055 115.516 168.251 119.62 172.659 116.391 L 172.816 116.274 L 172.88 118.872 C 177.319 120.403 180.859 119.71 183.421 124.536 C 184.793 127.123 183.838 135.662 182.318 137.849 C 181.059 133.66 181.53 127.905 181.662 123.425 z"/>
<path transform="translate(0,0)" fill="rgb(231,229,246)" d="M 181.901 98.9664 L 181.25 101.464 C 176.357 103.825 176.384 100.106 173.993 103.93 C 174.173 109.289 174.497 109.783 172.5 114.721 C 172.243 112.785 172.522 106.608 172.577 104.336 C 166.151 104.473 154.031 105.702 149.389 102.033 L 150.115 100.655 C 156.307 97.8185 174.329 98.8273 181.901 98.9664 z"/>
<path transform="translate(0,0)" fill="rgb(6,9,23)" d="M 189.12 98.8255 C 203.206 98.7034 200.519 103.687 213.301 98.4381 C 226.944 102.087 229.906 106.019 232.826 119.386 C 228.828 133.941 223.907 138.392 208.875 138.269 L 204.757 135.885 C 195.754 138.391 211.886 159.315 192.244 160.859 C 186.542 157.423 188.216 107.025 189.12 98.8255 z"/>
<path transform="translate(0,0)" fill="rgb(255,255,255)" d="M 211.349 110.568 C 214.318 109.778 217.482 110.644 219.635 112.835 C 221.788 115.027 222.598 118.206 221.755 121.161 C 220.912 124.115 218.548 126.389 215.563 127.115 C 211.015 128.221 206.425 125.461 205.27 120.926 C 204.116 116.391 206.827 111.771 211.349 110.568 z"/>
<path transform="translate(0,0)" fill="rgb(6,9,23)" d="M 321.837 98.1667 C 325.366 97.7413 324.328 97.3859 326.952 98.9826 C 329.206 103.387 326.828 107.907 329.046 111.317 L 331.786 112.047 C 332.487 108.356 332.985 104.019 335.212 101.063 C 338.747 98.5666 344.103 99.0273 349.001 98.5029 C 352.021 98.8203 351.105 98.3374 353.083 100.509 C 353.721 104.634 352.862 108.924 354.542 110.786 C 356.516 110.227 356.899 109.879 358.475 108.565 C 358.779 101.651 365.378 95.2739 370.279 100.261 C 371.484 105.337 357.071 132.023 353.86 138.299 L 338.985 138.313 C 341.165 130.197 342.362 124.968 343.633 116.68 C 338.738 122.471 335.322 131.259 332.15 138.327 L 317.755 138.213 C 315.949 129.766 307.556 104.659 310.26 98.6747 C 314.114 98.4109 317.974 98.2415 321.837 98.1667 z"/>
<path transform="translate(0,0)" fill="rgb(231,229,246)" d="M 321.837 98.1667 C 325.366 97.7413 324.328 97.3859 326.952 98.9826 C 329.206 103.387 326.828 107.907 329.046 111.317 L 331.786 112.047 C 331.075 115.315 329.209 126.463 327.474 127.869 C 322.611 120.766 327.136 104.74 321.837 98.1667 z"/>
<path transform="translate(0,0)" fill="rgb(231,229,246)" d="M 349.001 98.5029 C 352.021 98.8203 351.105 98.3374 353.083 100.509 C 353.721 104.634 352.862 108.924 354.542 110.786 C 356.516 110.227 356.899 109.879 358.475 108.565 C 357.543 112.621 355.006 125.077 353.136 127.989 C 349.371 124.554 351.869 106.18 349.001 98.5029 z"/>
<path transform="translate(0,0)" fill="rgb(6,9,23)" d="M 276.924 97.9362 C 284.476 96.5913 292.165 99.4398 297.018 105.381 C 301.871 111.322 303.128 119.424 300.303 126.556 C 297.479 133.689 291.014 138.733 283.41 139.74 C 272.008 141.249 261.489 133.374 259.726 122.01 C 257.962 110.645 265.601 99.9526 276.924 97.9362 z"/>
<path transform="translate(0,0)" fill="rgb(255,255,255)" d="M 276.836 108.805 C 280.503 107.367 284.664 108.075 287.649 110.644 C 290.634 113.213 291.953 117.223 291.077 121.063 C 290.201 124.903 287.273 127.943 283.468 128.963 C 278.022 130.423 272.384 127.376 270.622 122.02 C 268.86 116.664 271.587 110.864 276.836 108.805 z"/>
<path transform="translate(0,0)" fill="rgb(162,175,193)" d="M 1499.37 104.147 C 1507.15 103.673 1512.41 102.931 1518.79 108.006 C 1529.22 116.309 1526.12 128.119 1517.65 136.458 C 1512.89 139.561 1503.24 138.493 1497.49 138.251 C 1497.41 130.927 1496.02 109.059 1499.37 104.147 z"/>
<path transform="translate(0,0)" fill="rgb(255,255,255)" d="M 1502.93 108.222 C 1504.66 108.154 1506.38 108.133 1508.11 108.161 C 1521.71 108.454 1523.61 124.294 1513.77 133.629 C 1497.87 136.21 1502.68 126.178 1502.21 114.681 C 1502.12 112.697 1502.48 110.143 1502.93 108.222 z"/>
<path transform="translate(0,0)" fill="rgb(162,175,193)" d="M 1306.91 114.258 C 1309.1 113.989 1317.8 114.81 1320.48 115.013 C 1320.92 116.197 1321.26 117.419 1321.48 118.665 C 1323.63 131.169 1322.13 159.54 1302.65 145.099 L 1302.57 142.574 C 1305.82 140.424 1308.05 144.456 1314.28 143.863 C 1316.59 141.665 1315.96 142.623 1316.39 138.922 C 1315.07 137.552 1314.98 137.825 1312.95 138.157 C 1297.75 140.644 1297.58 121.861 1306.91 114.258 z"/>
<path transform="translate(0,0)" fill="rgb(255,255,255)" d="M 1307.51 118.399 C 1319.1 117.863 1317.21 127.363 1313.65 134.534 L 1308.99 133.804 C 1303.71 129.284 1305.42 124.327 1307.51 118.399 z"/>
<path transform="translate(0,0)" fill="rgb(6,9,23)" d="M 241.006 99.1989 C 243.909 99.1753 249.702 98.7612 251.965 100.078 C 254.255 105.293 254.049 132.866 252.496 138.293 C 250.72 138.325 241.547 138.684 241.205 137.235 C 239.414 129.635 238.786 105.706 241.006 99.1989 z"/>
<path transform="translate(0,0)" fill="rgb(162,175,193)" d="M 662.069 103.87 C 662.804 104.221 664.83 105.007 664.961 105.514 C 666.455 111.297 666.648 132.049 664.648 137.095 C 660.928 138.091 654.769 138.342 650.829 138.493 C 644.363 133.338 641.805 121.515 648.923 115.53 C 651.288 113.541 656.569 114.571 659.668 114.981 C 661.417 113.962 660.067 108.676 662.069 103.87 z"/>
<path transform="translate(0,0)" fill="rgb(255,255,255)" d="M 653.645 117.251 C 663.887 119.982 661.26 128.115 657.572 135.022 C 654.696 134.567 653.751 134.475 651.439 132.589 C 647.799 126.813 649.246 122.009 653.645 117.251 z"/>
<path transform="translate(0,0)" fill="rgb(162,175,193)" d="M 1190.77 104.215 C 1199.25 103.772 1210.6 102.172 1214.85 111.786 C 1214.69 122.384 1203.06 121.946 1195.38 121.763 C 1194.26 128.493 1197.35 128.175 1193.16 138.05 L 1192 138.142 C 1189.71 131.664 1189.87 111.302 1190.77 104.215 z"/>
<path transform="translate(0,0)" fill="rgb(255,255,255)" d="M 1195.87 108.3 C 1201.09 108.123 1204.47 107.41 1208.63 110.07 C 1209.98 112.918 1209.47 114.255 1208.75 117.234 C 1203.35 117.574 1199.54 118.566 1195.44 115.458 C 1194.63 112.541 1195.14 111.156 1195.87 108.3 z"/>
<path transform="translate(0,0)" fill="rgb(162,175,193)" d="M 576.296 104.286 C 584.718 103.788 596.671 102.219 600.786 111.943 C 600.449 121.693 590.326 121.931 582.939 121.783 C 578.335 123.827 583.477 133.555 579.177 138.038 L 576.84 137.504 C 575.19 135.392 575.899 108.493 576.296 104.286 z"/>
<path transform="translate(0,0)" fill="rgb(255,255,255)" d="M 581.469 108.242 C 586.619 108.092 590.335 107.301 594.285 110.15 C 595.555 112.906 594.952 114.415 594.227 117.29 C 589.056 117.576 585.017 118.523 581.098 115.495 C 580.25 112.546 580.758 111.143 581.469 108.242 z"/>
<path transform="translate(0,0)" fill="rgb(162,175,193)" d="M 883.665 104.207 C 892.102 103.785 903.981 102.312 908.02 112.06 C 907.421 121.93 896.651 121.967 889.191 121.762 C 885.807 126.319 890.607 131.375 886.85 137.85 L 884.922 138.012 L 883.281 136.015 C 882.785 130.538 882.827 109.276 883.665 104.207 z"/>
<path transform="translate(0,0)" fill="rgb(255,255,255)" d="M 888.675 108.272 C 893.955 108.102 897.396 107.382 901.541 110.16 C 902.81 112.911 902.104 114.473 901.269 117.318 C 895.893 117.591 892.418 118.474 888.262 115.515 C 887.439 112.54 887.938 111.183 888.675 108.272 z"/>
<path transform="translate(0,0)" fill="rgb(162,175,193)" d="M 672.555 113.496 C 680.186 118.23 672.946 127.876 677.147 132.998 C 690.169 140.184 683.67 119.608 687.97 114.728 L 689.796 115.035 C 691.288 117.562 691.699 120.971 692.242 123.894 C 693.459 123.403 695.842 117.913 697.629 115.449 C 702.53 112.602 710.745 113.822 711.187 120.498 C 704.088 118.806 702.48 116.822 697.54 122.442 C 697.621 126.227 697.766 127.632 698.567 131.332 C 702.698 136.284 707.131 129.753 711.778 132.275 L 711.545 134.085 C 708.647 137.7 706.622 139.697 701.454 138.485 C 693.665 136.658 695.43 132.322 692.546 127.685 C 690.851 130.183 691.519 133.166 690.61 137.124 C 690.297 137.326 689.965 137.495 689.619 137.629 C 680.009 141.392 667.434 133.932 670.805 122.775 C 671.768 119.587 670.569 117.599 672.555 113.496 z"/>
<path transform="translate(0,0)" fill="rgb(162,175,193)" d="M 977.733 114.207 C 994.987 113.13 997.954 128.104 986.257 138.486 C 984.869 138.564 983.411 138.619 982.024 138.558 C 979.056 138.455 976.254 137.163 974.249 134.972 C 967.938 128.04 971.713 119.671 977.733 114.207 z"/>
<path transform="translate(0,0)" fill="rgb(255,255,255)" d="M 979.589 117.731 C 981.926 117.919 983.636 118.154 985.528 119.646 C 987.069 120.871 988.06 122.66 988.281 124.616 C 988.774 129.066 986.817 131.693 984.239 134.962 C 981.525 134.549 980.978 134.29 978.556 132.985 C 974.066 127.68 975.681 122.736 979.589 117.731 z"/>
<path transform="translate(0,0)" fill="rgb(162,175,193)" d="M 625.785 114.196 C 643.044 113.1 645.64 128.232 634.318 138.512 C 632.9 138.587 631.406 138.639 629.989 138.575 C 627.035 138.462 624.25 137.165 622.263 134.976 C 615.974 127.987 619.718 119.661 625.785 114.196 z"/>
<path transform="translate(0,0)" fill="rgb(255,255,255)" d="M 628.63 117.367 C 639.459 119.844 637.46 129.014 631.581 135.467 C 621.635 132.437 621.753 123.555 628.63 117.367 z"/>
<path transform="translate(0,0)" fill="rgb(162,175,193)" d="M 1534.67 114.165 C 1536.11 114.078 1537.55 114.047 1538.99 114.073 C 1552.54 114.431 1552.6 129.798 1542.99 138.586 C 1541.79 138.632 1540.59 138.635 1539.38 138.594 C 1525.61 138.062 1524.87 122.982 1534.67 114.165 z"/>
<path transform="translate(0,0)" fill="rgb(255,255,255)" d="M 1536.57 117.628 C 1538.56 117.869 1540.45 118.177 1542.09 119.427 C 1543.77 120.695 1544.86 122.6 1545.09 124.694 C 1545.55 128.958 1543.64 131.737 1541.16 134.899 C 1538.2 134.535 1537.66 134.37 1535.13 132.788 C 1530.92 127.29 1532.5 122.583 1536.57 117.628 z"/>
<path transform="translate(0,0)" fill="rgb(162,175,193)" d="M 1017.22 114.388 C 1017.75 114.365 1021.98 114.172 1022 114.18 C 1030.3 117.629 1027.02 117.386 1034.92 113.994 C 1045.56 114.95 1045.05 134.489 1040.49 138.309 C 1037 134.567 1040 119.344 1033.16 117.825 L 1030.87 119.615 C 1029.16 122.978 1029.14 124.008 1028.97 127.75 C 1029.22 131.794 1030.36 136.507 1026.11 138.289 C 1021.45 134.453 1025.78 126.266 1023.62 119.978 C 1021.08 117.984 1022.15 118.491 1018.78 118.075 C 1012.65 122.924 1017.51 133.816 1013.32 138.071 C 1007.11 135.552 1013.61 123.541 1009.82 117.692 L 1009.71 117.529 C 1010.1 115.455 1010.01 116.026 1012.17 114.537 L 1015.83 116.112 L 1017.22 114.388 z"/>
<path transform="translate(0,0)" fill="rgb(162,175,193)" d="M 964.466 103.62 C 966.645 103.775 967.171 104.046 969.159 104.964 L 969.408 106.622 C 967.863 108.328 966.9 109.112 965.098 110.549 L 965.218 112.829 C 966.874 113.671 967.894 114.247 969.44 115.277 L 969.007 117.398 C 968.446 117.703 967.891 118.02 967.342 118.347 C 960.958 122.197 969.296 133.892 962.501 137.995 L 960.832 137.302 C 957.878 130.687 963.276 121.75 957.539 117.853 C 953.64 117.91 955.025 117.496 951.745 119.425 L 951.491 121.75 C 951.44 122.999 951.176 128.917 951.39 129.551 C 953.338 135.318 955.447 133.208 954.577 138.965 L 953.402 139.428 C 944.801 135.096 944.007 117.843 947.69 109.644 C 951.034 107.793 950.325 113.801 957.437 114.539 C 959.611 113.025 960.94 107.88 964.466 103.62 z"/>
<path transform="translate(0,0)" fill="rgb(162,175,193)" d="M 926.671 114.096 C 946.575 113.374 935.439 123.359 942.176 134.045 C 942.736 134.933 943.164 135.557 943.65 136.525 L 942.208 138.371 C 941.66 138.442 940.638 138.616 940.137 138.638 C 939.792 138.654 935.208 135.149 934.961 135.316 C 931.43 137.703 929.788 138.706 925.475 138.871 C 922.828 137.557 921.374 135.612 919.885 133.215 C 920.176 124.201 930.967 126.815 934.371 120.438 L 932.793 118.605 C 928.837 119.425 925.766 120.029 921.753 120.462 L 921.357 119.127 C 922.094 117.78 925.345 115.229 926.671 114.096 z"/>
<path transform="translate(0,0)" fill="rgb(162,175,193)" d="M 1580.65 114.115 C 1586.33 113.79 1591.51 113.458 1594.67 119.198 C 1592.14 120.561 1585.88 119.247 1582.1 118.981 L 1581.27 120.491 C 1585.54 125.754 1591.95 123.988 1595.71 130.919 C 1595.03 135.058 1593.27 136.112 1589.83 138.599 C 1586.11 138.668 1583.54 138.894 1579.96 137.826 C 1577.73 135.694 1577.17 135.783 1576.31 133.04 C 1578.2 131.812 1585.99 133.497 1590.13 133.247 L 1590.31 131.544 C 1585.75 125.573 1578.59 128.443 1576.34 121.31 C 1577.13 117.645 1578.09 116.801 1580.65 114.115 z"/>
<path transform="translate(0,0)" fill="rgb(162,175,193)" d="M 1285.88 114.379 C 1287.25 114.108 1289.25 114.439 1290.68 114.594 C 1297.76 118.877 1298.43 135.157 1293.64 137.707 C 1288.85 132.78 1296.23 122.291 1285.09 117.119 C 1277 125.964 1283.28 133.43 1279.62 138.085 L 1278.18 137.853 C 1274.77 133.891 1276.49 122.419 1276.81 116.435 C 1278.97 114.753 1280.52 117.766 1285.88 114.379 z"/>
<path transform="translate(0,0)" fill="rgb(162,175,193)" d="M 1249.91 114.053 C 1250.73 114.025 1251.55 114.022 1252.37 114.043 C 1256.48 114.142 1259.99 115.806 1262.82 118.78 L 1262.18 120.179 C 1257.92 121.611 1259.49 120.795 1254.07 118.327 C 1245.9 119.911 1246.17 129.279 1251.95 133.85 C 1254.97 134.492 1255.93 133.851 1258.58 132.466 L 1260.2 131.387 L 1261.66 132.132 C 1260.78 148.665 1229.06 132.406 1249.91 114.053 z"/>
<path transform="translate(0,0)" fill="rgb(162,175,193)" d="M 1560.37 114.162 C 1565.26 113.932 1572.45 114.108 1571.93 120.516 C 1568.23 122.029 1562.43 115.057 1559.94 120.193 C 1557.23 125.772 1557.02 130.584 1562.96 133.945 C 1566 134.4 1567.17 133.44 1569.71 131.871 L 1571.72 131.684 L 1572.35 133.33 C 1564.63 148.835 1542.13 128.969 1560.37 114.162 z"/>
<path transform="translate(0,0)" fill="rgb(162,175,193)" d="M 718.392 107.695 C 718.609 107.832 718.825 107.969 719.042 108.106 C 732.156 120.491 710.77 123.99 726.84 136.764 C 724.125 138.421 722.457 138.716 719.418 137.885 C 713.42 133.003 719.639 122.326 714.789 117.079 C 714.138 116.375 717.631 109.81 718.392 107.695 z"/>
<path transform="translate(0,0)" fill="rgb(162,175,193)" d="M 913.016 103.637 C 914 104.269 915.436 105.057 915.568 106.305 C 916.221 112.478 916.981 134.319 914.618 139.299 C 913.494 138.526 912.019 137.246 911.862 135.918 C 911.179 130.116 910.484 108.093 913.016 103.637 z"/>
<path transform="translate(0,0)" fill="rgb(162,175,193)" d="M 613.311 114.887 L 613.999 114.646 L 615.436 115.345 C 614.363 119.778 611.203 117.214 609.676 120.584 C 608.073 124.124 609.718 132.38 608.456 135.95 L 608.25 136.528 C 607.781 137.821 606.437 138.04 604.867 138.779 C 604.094 134.875 604.318 119.627 605.11 115.641 L 606.435 114.862 L 610.281 116.351 L 613.311 114.887 z"/>
<path transform="translate(0,0)" fill="rgb(162,175,193)" d="M 1227.74 114.4 C 1228.1 114.497 1229.58 115.395 1230.01 115.643 C 1229.16 118.947 1225.07 117.398 1224.01 121.186 C 1222.01 128.325 1225.36 133.636 1220.46 139.375 C 1217.95 135.344 1218.47 120.904 1219.35 116.068 C 1222.06 113.979 1222.02 117.472 1227.74 114.4 z"/>
<path transform="translate(0,0)" fill="rgb(162,175,193)" d="M 1007.11 114.583 C 1008.11 115.008 1008.09 115.339 1008.79 116.35 C 994.998 126.408 1007.93 130.53 999.449 139.29 C 997.126 135.125 997.784 121.55 998.44 116.557 C 1000.41 113.927 1001.69 117.105 1007.11 114.583 z"/>
<path transform="translate(0,0)" fill="rgb(162,175,193)" d="M 1268.22 113.763 C 1273.14 115.906 1271.32 134.09 1270.46 138.822 L 1268.32 137.861 C 1265.49 134.952 1266.15 117.384 1268.22 113.763 z"/>
<path transform="translate(0,0)" fill="rgb(162,175,193)" d="M 1236.21 113.724 C 1237.15 114.133 1238.01 115.263 1238.71 116.058 C 1239.52 121.806 1239.45 133.112 1238.45 138.818 C 1237.24 138.263 1235.45 137.631 1235.19 136.152 C 1234.25 130.731 1233.86 118.412 1236.21 113.724 z"/>
</svg>