<!-- RECRAFT VECTORIZE from logo/options-w3/mock/C2-heavier-navbar-dark.png -->
<svg version="1.1" xmlns="http://www.w3.org/2000/svg" style="display: block;" viewBox="0 0 4096 256" width="4096" height="256" preserveAspectRatio="none">
<path transform="translate(0,0)" fill="rgb(11,16,32)" d="M 0 0 L 4096 0 L 4096 256 L 0 256 L 0 0 z"/>
<path transform="translate(0,0)" fill="rgb(66,55,202)" d="M 3680.9 61.8564 C 3683.62 59.9053 3850.49 60.742 3867.69 60.746 L 3927.44 60.7381 C 3936.42 60.7382 3952.44 60.2887 3960.98 61.3648 C 3965.1 66.3829 3963.97 61.5094 3968.79 66.46 C 3972.78 70.5586 3976.43 74.4146 3979.89 79.0567 C 3981.95 81.8271 3980.54 83.4573 3983.46 85.0566 C 3984.52 101.225 3983.65 120.076 3983.96 136.454 C 3984.06 141.713 3984.11 163.594 3983.35 167.876 C 3979.2 171.354 3981.28 173.159 3980.36 173.999 C 3975.82 178.122 3967.92 188.526 3962.16 189.692 L 3960.85 191.491 C 3940.9 192.706 3684.51 192.515 3681.02 191.021 C 3680.79 190.693 3680.07 189.854 3679.67 189.729 C 3672.33 187.421 3665.81 179.187 3661.04 173.328 C 3660.06 172.13 3662.26 171.256 3658.42 167.922 C 3657.12 161.121 3656.93 88.2443 3658.93 84.9498 C 3661.45 82.9715 3659.9 79.1997 3664.11 75.489 C 3668.42 71.6869 3672.56 65.1345 3678.5 63.6465 C 3678.76 63.5824 3680.51 62.176 3680.9 61.8564 z"/>
<path transform="translate(0,0)" fill="rgb(245,244,251)" d="M 3903.59 133.859 C 3898.63 138.921 3891.58 141.066 3886.63 135.476 C 3875.69 123.131 3893.01 101.381 3905.08 122.907 C 3909.29 121.65 3907.11 117.333 3912.42 114.216 C 3915.39 114.084 3917.57 114.034 3920.57 114.177 C 3923.66 109.54 3919.2 108.205 3922.95 104.323 L 3925.35 104.67 C 3927.59 107.849 3926.87 131.711 3926.08 136.37 L 3924.89 137.884 L 3921.26 137.031 L 3920.52 138.188 C 3909.15 142.767 3910.71 136.193 3903.59 133.859 z"/>
<path transform="translate(0,0)" fill="rgb(58,46,199)" d="M 3905.71 127.426 C 3907.89 137.437 3910.68 139.05 3920.52 138.188 C 3909.15 142.767 3910.71 136.193 3903.59 133.859 L 3901.89 132.27 C 3896.77 132.875 3895.93 135.24 3891.47 133.955 C 3888.85 131.679 3889.36 132.687 3888.54 129.653 C 3890.89 127.665 3900.8 128.178 3905.71 127.426 z"/>
<path transform="translate(0,0)" fill="rgb(58,46,199)" d="M 3912.46 118.436 C 3914.08 118.357 3915.78 118.706 3917.4 118.964 C 3923.53 123.843 3921.48 128.061 3918.76 134.462 L 3914.44 133.926 C 3908.51 129.569 3910.22 124.714 3912.46 118.436 z"/>
<path transform="translate(0,0)" fill="rgb(245,244,251)" d="M 3727.74 120.386 C 3730.88 120.495 3737.09 120.148 3739.31 122.619 C 3742.52 126.194 3742.08 130.149 3738.73 133.544 C 3735.36 136.912 3730.79 138.808 3726.02 138.818 C 3716.72 138.811 3710.43 129.953 3710.48 121.276 C 3710.5 116.443 3712.46 111.821 3715.93 108.45 C 3723.99 100.584 3738.68 102.882 3738.45 113.239 L 3735.84 115.035 C 3739.04 118.435 3743.61 115.631 3745.08 119.498 C 3743.73 123.969 3743.12 125.543 3743.77 130.14 L 3742.98 129.829 C 3742.78 126.393 3742.67 122.952 3742.64 119.51 C 3738.32 119.502 3731.69 119.178 3727.74 120.386 z"/>
<path transform="translate(0,0)" fill="rgb(58,46,199)" d="M 3727.74 120.386 L 3727.29 122.585 C 3729.51 126.335 3734.71 124.117 3736.65 129.036 C 3734.66 132.078 3727.78 135.64 3724.48 134.708 C 3708.31 130.137 3719.3 91.6523 3735.84 115.035 C 3739.04 118.435 3743.61 115.631 3745.08 119.498 C 3743.73 123.969 3743.12 125.543 3743.77 130.14 L 3742.98 129.829 C 3742.78 126.393 3742.67 122.952 3742.64 119.51 C 3738.32 119.502 3731.69 119.178 3727.74 120.386 z"/>
<path transform="translate(0,0)" fill="rgb(245,244,251)" d="M 3853.33 136.105 L 3851.55 138.233 C 3846.96 139.098 3847.72 137.11 3846.56 137.155 C 3840.16 137.401 3831.75 139.697 3827.33 133.663 C 3827.83 124.46 3838.24 125.736 3843.83 122.444 L 3843.62 120.576 C 3837.21 115.295 3836.11 122.078 3830.39 120.569 L 3830.37 118.986 C 3832.44 116.819 3835.85 113.821 3838.8 113.339 C 3849.66 111.568 3849.36 128.024 3850.25 134.009 L 3853.33 136.105 z"/>
<path transform="translate(0,0)" fill="rgb(245,244,251)" d="M 3752.48 114.309 C 3753.14 114.25 3753.8 114.2 3754.46 114.158 C 3761.34 113.724 3766.57 117.362 3766.97 124.429 C 3763.87 130.272 3753.34 127.89 3750.38 131.071 C 3755.12 135.42 3757.18 134.53 3762.81 132.742 C 3763.79 131.973 3763.53 132.205 3765.05 132.269 L 3765.29 133.779 C 3756.92 148.462 3733.98 129.108 3752.48 114.309 z"/>
<path transform="translate(0,0)" fill="rgb(245,244,251)" d="M 3798.48 114.078 C 3804.55 113.831 3808.28 113.365 3812.05 119.071 L 3810.99 120.015 C 3807.17 119.796 3803.36 119.49 3799.56 119.097 L 3798.79 120.454 C 3803.58 126.24 3812.31 124.349 3813.17 132.219 C 3811.61 135.52 3810.54 136.239 3807.75 138.519 C 3802.57 138.699 3795.65 139.386 3793.92 133.016 C 3796.08 131.845 3803.36 133.478 3807.63 133.383 L 3808.31 132.093 C 3805.68 126.109 3796.58 128.549 3793.96 121.306 C 3794.52 117.791 3796.03 116.609 3798.48 114.078 z"/>
<path transform="translate(0,0)" fill="rgb(245,244,251)" d="M 3819.29 107.608 C 3820.95 108.502 3825.69 114.713 3823.95 117.849 C 3818.72 127.261 3822.75 131.919 3827.5 137.945 C 3822.71 138.314 3823.51 138.938 3819.7 136.919 C 3814.63 130.109 3814.86 114.943 3819.29 107.608 z"/>
<path transform="translate(0,0)" fill="rgb(245,244,251)" d="M 3871.56 114.289 C 3872.56 110.391 3871.88 110.883 3874.55 108.152 C 3876.97 110.968 3874.8 112.26 3877.67 113.711 C 3878.5 114.124 3879.52 114.992 3880.24 115.607 C 3877.73 123.292 3874.41 120.832 3876.11 132.493 L 3880.71 135.989 L 3880.4 137.514 C 3877.39 138.775 3878.49 138.729 3875.48 137.998 C 3868.38 130.912 3875.44 123.264 3867.82 115.059 L 3871.56 114.289 z"/>
<path transform="translate(0,0)" fill="rgb(245,244,251)" d="M 3774.37 107.677 L 3776.11 108.975 C 3776.71 115.546 3784.12 111.862 3776.64 123.514 C 3774.39 127.008 3779.44 133.647 3782.51 137.36 C 3780.03 138.338 3779.11 138.22 3776.43 138.098 C 3768.25 133.157 3776.13 124.751 3770.42 117.103 C 3770.57 114.738 3772.96 111.683 3774.37 107.677 z"/>
<path transform="translate(0,0)" fill="rgb(245,244,251)" d="M 3860.16 115.831 C 3863.03 114.472 3863.69 114.399 3866.84 114.712 C 3864.83 119.725 3857.27 122.325 3859.15 133.293 C 3859.38 134.643 3859.26 136.562 3858.23 137.536 C 3855.27 133.248 3853.29 118.319 3857.45 114.9 L 3860.16 115.831 z"/>
<path transform="translate(0,0)" fill="rgb(58,46,199)" d="M 3860.16 115.831 C 3859 110.75 3857.95 114.465 3855.53 111.181 C 3859.56 109.951 3866.41 108.39 3870.39 110.322 L 3871.56 114.289 L 3867.82 115.059 L 3866.84 114.712 C 3863.69 114.399 3863.03 114.472 3860.16 115.831 z"/>
<path transform="translate(0,0)" fill="rgb(58,46,199)" d="M 3909.07 140.426 C 3913.37 139.871 3922.05 139.766 3926.24 140.662 L 3927.48 142.596 C 3921.98 142.461 3912.23 144.718 3909.07 140.426 z"/>
<path transform="translate(0,0)" fill="rgb(58,46,199)" d="M 3850.25 134.009 C 3852.5 126.739 3851.03 123.317 3853.17 116.957 C 3854.13 121.708 3854.17 131.35 3853.33 136.105 L 3850.25 134.009 z"/>
<path transform="translate(0,0)" fill="rgb(58,46,199)" d="M 3718.32 140.526 C 3723.38 139.803 3732.05 138.702 3735.61 142.439 C 3732.76 142.624 3729.91 142.769 3727.05 142.874 C 3722.94 142.992 3721.03 143.09 3718.32 140.526 z"/>
<path transform="translate(0,0)" fill="rgb(58,46,199)" d="M 3795.58 140.464 C 3800.27 140.092 3807.87 138.379 3810.52 142.495 C 3806.05 142.784 3798.01 144.306 3795.58 140.464 z"/>
<path transform="translate(0,0)" fill="rgb(58,46,199)" d="M 3768.67 118.447 L 3770.62 120.165 C 3771.09 123.407 3771.47 131.44 3769.56 134.082 L 3768.92 133.468 C 3768.44 129.359 3768.55 122.688 3768.67 118.447 z"/>
<path transform="translate(0,0)" fill="rgb(58,46,199)" d="M 3750.15 140.423 C 3754.67 140.007 3760.98 138.462 3763.53 142.517 C 3758.84 142.903 3753.17 144.23 3750.15 140.423 z"/>
<path transform="translate(0,0)" fill="rgb(58,46,199)" d="M 3749.39 110.529 C 3753.76 109.968 3760.5 108.868 3764.19 111.68 C 3759.54 113.306 3753.31 113.705 3749.39 110.529 z"/>
<path transform="translate(0,0)" fill="rgb(58,46,199)" d="M 3887.57 140.453 C 3890.9 140.113 3897.12 139.48 3900.03 140.727 L 3900.43 142.476 C 3895.64 142.897 3893.43 143.215 3888.74 142.301 L 3887.57 140.453 z"/>
<path transform="translate(0,0)" fill="rgb(58,46,199)" d="M 3830.84 140.419 C 3835.22 139.957 3840.04 138.533 3842.53 142.516 C 3837.74 142.946 3834.23 144.051 3830.84 140.419 z"/>
<path transform="translate(0,0)" fill="rgb(58,46,199)" d="M 3817.84 140.441 C 3821.19 139.983 3823.02 139.545 3826.3 140.515 L 3827.09 142.602 C 3823.78 142.911 3821.98 143.238 3818.75 142.319 L 3817.84 140.441 z"/>
<path transform="translate(0,0)" fill="rgb(181,183,189)" d="M 137.476 83.3458 C 151.182 83.9271 168.028 83.5394 181.996 83.6056 C 182.09 87.0664 182.585 94.8146 181.52 97.8405 C 179.95 102.302 176.537 101.718 173.131 103.274 C 170.605 113.99 173.123 117.507 181.282 123.27 C 182.814 124.352 182.121 132.043 182.005 134.25 C 182.192 135.116 181.607 136.391 181.293 137.276 C 176.927 140.256 142.564 138.747 135.145 138.587 C 135.106 124.435 134.612 100.731 135.559 85.6007 C 136.306 84.7219 136.945 83.9702 137.476 83.3458 z"/>
<path transform="translate(0,0)" fill="rgb(245,244,251)" d="M 137.188 85.1099 C 150.434 85.7626 166.703 85.3531 180.028 85.1563 C 179.472 91.4552 179.214 93.7178 180.293 100.1 C 174.943 100.103 155.168 99.2921 151.75 102.362 C 155.527 105.913 165.34 104.76 170.901 104.669 L 170.884 117.704 C 164.52 117.6 156.602 117.159 150.467 118.389 C 153.6 124.351 173.395 122.247 179.928 122.218 C 179.409 127.692 179.667 131.602 179.947 137.026 C 166.803 136.493 150.669 136.939 137.298 136.951 C 138.103 127.943 138.052 94.0602 137.188 85.1099 z"/>
<path transform="translate(0,0)" fill="rgb(245,244,251)" d="M 189.453 99.2432 C 206.982 97.951 202.146 104.325 219.111 98.5844 C 231.56 101.65 237.518 105.215 241.098 118.406 C 240.952 136.881 228.998 151.142 209.869 143.615 C 209.607 142.955 208.37 142.164 207.734 141.688 L 206.162 142.623 C 204.967 146.773 205.416 155.737 205.462 160.404 C 200.131 160.3 194.799 160.226 189.468 160.181 C 190.067 141.125 189.792 118.312 189.453 99.2432 z"/>
<path transform="translate(0,0)" fill="rgb(4,8,21)" d="M 216.025 112.765 C 221.245 110.986 226.918 113.781 228.689 119.003 C 230.46 124.226 227.657 129.895 222.432 131.659 C 217.217 133.419 211.562 130.623 209.795 125.411 C 208.027 120.198 210.815 114.539 216.025 112.765 z"/>
<path transform="translate(0,0)" fill="rgb(245,244,251)" d="M 296.182 92.8898 L 300.56 92.8926 C 315.589 96.609 326.051 108.233 321.981 124.254 C 320.204 131.328 315.689 137.406 309.43 141.15 C 293.097 150.765 277.918 139.507 273.879 122.737 L 273.866 114.525 C 277.055 101.707 283.675 95.9739 296.182 92.8898 z"/>
<path transform="translate(0,0)" fill="rgb(4,8,21)" d="M 295.191 106.709 C 301.825 105.027 308.571 109.024 310.281 115.651 C 311.992 122.278 308.022 129.041 301.402 130.779 C 294.743 132.527 287.932 128.529 286.212 121.863 C 284.492 115.196 288.518 108.402 295.191 106.709 z"/>
<path transform="translate(0,0)" fill="rgb(245,244,251)" d="M 348.918 112.681 C 350.543 108.487 351.784 101.011 352.93 99.1193 C 354.172 105.691 353.289 107.813 353.879 113.142 C 354.767 109.181 355.525 103.6 358.235 100.806 C 362.433 98.0768 369.668 98.9091 375.164 98.8563 C 375.063 111.102 373.693 118.948 374.843 131.572 C 378.76 121.754 378.762 109.725 383.454 100.925 C 384.506 98.9521 388.546 99.3186 391.018 99.2141 L 392.339 100.522 C 393.103 107.188 380.022 131.086 376.423 138.353 C 371.066 138.238 365.351 138.39 359.964 138.436 C 361.174 134.58 362.526 131.282 361.648 127.318 C 358.964 128.284 355.338 137.204 353.308 137.949 C 350.782 138.876 341.031 138.404 337.907 138.35 C 335.418 127.041 333.216 110.814 331.239 99.0405 C 336.074 98.9664 344.411 97.9468 347.706 100.659 C 349.786 103.625 349.065 108.892 348.918 112.681 z"/>
<path transform="translate(0,0)" fill="rgb(4,8,21)" d="M 348.918 112.681 C 350.543 108.487 351.784 101.011 352.93 99.1193 C 354.172 105.691 353.289 107.813 353.879 113.142 C 353.197 116.761 352.572 122.561 350.234 125.119 L 349.026 124.391 C 348.014 120.823 348.618 116.436 348.918 112.681 z"/>
<path transform="translate(0,0)" fill="rgb(129,142,163)" d="M 1523.25 103.284 L 1536.89 104.338 C 1549.34 112.491 1551.06 124.457 1541.03 135.635 C 1534.42 139.908 1527.9 138.614 1519.95 138.248 C 1519.78 128.907 1519.53 119.195 1519.88 109.866 C 1520.03 105.732 1520.64 105.529 1523.25 103.284 z"/>
<path transform="translate(0,0)" fill="rgb(4,8,21)" d="M 1540.87 128.315 C 1538.45 132.526 1534.55 134.889 1529.82 134.813 C 1522.72 129.626 1521.7 111.886 1530.32 108.272 C 1534.36 108.543 1535.26 108.682 1538.51 111.086 C 1543.4 115.728 1542.94 122.315 1540.87 128.315 z"/>
<path transform="translate(0,0)" fill="rgb(4,8,21)" d="M 1538.51 111.086 C 1543.4 115.728 1542.94 122.315 1540.87 128.315 C 1537.71 125.561 1537.11 117.987 1536.13 113.059 L 1538.51 111.086 z"/>
<path transform="translate(0,0)" fill="rgb(4,8,21)" d="M 1597.92 121.834 C 1602.16 112.116 1613.86 109.53 1617.29 119.646 L 1616.46 120.709 C 1611.35 120.157 1607.96 117.961 1604.53 118.916 L 1604.16 120.972 C 1607.96 126.41 1615.15 122.556 1617.83 131.444 C 1617.03 134.095 1616.38 135.802 1613.55 137.295 C 1610.65 138.843 1607.24 139.146 1604.1 138.136 C 1601.55 137.315 1600.16 136.387 1598.94 133.973 C 1598.54 133.157 1598.17 132.324 1597.83 131.476 L 1596.2 131.519 C 1594.6 134.951 1590.04 139.83 1586.13 139.055 C 1572.27 136.312 1571.74 109.631 1590.04 114.791 C 1592.49 115.48 1592.79 116.446 1594.42 118.392 L 1594.16 121.11 L 1597.92 121.834 z"/>
<path transform="translate(0,0)" fill="rgb(129,142,163)" d="M 1597.92 121.834 C 1602.16 112.116 1613.86 109.53 1617.29 119.646 L 1616.46 120.709 C 1611.35 120.157 1607.96 117.961 1604.53 118.916 L 1604.16 120.972 C 1607.96 126.41 1615.15 122.556 1617.83 131.444 C 1617.03 134.095 1616.38 135.802 1613.55 137.295 C 1610.65 138.843 1607.24 139.146 1604.1 138.136 C 1601.55 137.315 1600.16 136.387 1598.94 133.973 C 1598.54 133.157 1598.17 132.324 1597.83 131.476 C 1602.5 130.863 1608.59 136.67 1612.29 132.766 C 1607.74 126.34 1603.63 128.659 1597.92 121.834 z"/>
<path transform="translate(0,0)" fill="rgb(129,142,163)" d="M 1596.2 131.519 C 1594.6 134.951 1590.04 139.83 1586.13 139.055 C 1572.27 136.312 1571.74 109.631 1590.04 114.791 C 1592.49 115.48 1592.79 116.446 1594.42 118.392 L 1594.16 121.11 C 1588.29 119.57 1583.43 116.501 1580.13 124.327 C 1580.95 139.513 1590.65 131.134 1596.2 131.519 z"/>
<path transform="translate(0,0)" fill="rgb(245,244,251)" d="M 256.894 83.3901 C 257.666 83.6344 260.514 84.7784 261.02 85.1082 C 268.343 87.0841 259.682 97.2526 261.634 98.2589 C 270.185 102.666 265.246 121.032 266.244 129.392 C 266.851 134.475 265.651 137.243 261.198 138.616 C 259.299 138.588 251.219 138.761 250.899 136.028 C 249.617 125.005 249.683 112.822 250.578 101.782 C 250.718 100.057 254.019 100.714 255.136 97.0207 C 254.207 93.8015 253.867 93.0459 252.213 90.1656 C 252.686 87.1502 254.746 85.5283 256.894 83.3901 z"/>
<path transform="translate(0,0)" fill="rgb(4,8,21)" d="M 3679.79 56.4341 C 3688.79 54.8961 3958.17 55.8265 3961.25 56.6902 L 3961.91 58.5434 C 3946.9 59.2373 3927.64 58.6892 3912.39 58.6934 L 3817.38 58.7086 L 3729.57 58.7066 C 3714.45 58.7036 3695.56 59.2195 3680.67 58.39 L 3679.79 56.4341 z"/>
<path transform="translate(0,0)" fill="rgb(129,142,163)" d="M 1327.02 137.522 C 1321.08 128.985 1321.2 111.019 1335.93 115.233 C 1341.68 116.878 1339.79 113.415 1343.66 115.787 C 1346.77 126.59 1345.09 161.534 1325.34 144.613 L 1325.02 142.636 L 1327.01 140.519 C 1326.24 140.083 1325.16 139.253 1324.41 138.718 L 1327.02 137.522 z"/>
<path transform="translate(0,0)" fill="rgb(4,8,21)" d="M 1327.02 137.522 C 1335.07 140.146 1334.04 136.162 1338.83 138.223 C 1339.05 140.776 1339.11 139.923 1337.32 142.431 C 1333.49 144.205 1335.02 144.021 1330.91 143.506 C 1329.82 142.707 1327.92 141.383 1327.01 140.519 C 1326.24 140.083 1325.16 139.253 1324.41 138.718 L 1327.02 137.522 z"/>
<path transform="translate(0,0)" fill="rgb(129,142,163)" d="M 727.837 133.731 C 729.458 132.2 730.042 132.058 732.177 131.39 L 733.767 132.465 C 733.115 136.8 730.489 138.597 726.011 138.847 C 720.699 139.142 718.472 134.183 715.033 130.864 L 713.684 131.84 L 713.485 137.657 C 713.121 137.99 712.652 138.418 712.077 138.943 C 711.854 138.814 708.571 136.913 708.571 136.913 C 706.447 137.096 702.915 137.791 700.843 137.789 C 697.389 137.787 697.301 137.504 695.198 135.592 C 693.335 131.662 692.168 117.592 695.638 114.525 L 697.217 115.189 C 699.4 120.081 697.548 126.953 699.196 132.749 C 702.206 134.574 701.261 134.083 704.973 134.227 C 712.413 128.74 705.112 121.539 710.876 114.185 L 712.445 114.256 C 713.466 115.672 713.782 120.052 714.041 122.014 C 715.736 121.732 719.461 114.908 722.457 114.252 C 727.514 113.144 732.425 114.82 733.8 120.047 L 732.575 121.294 C 730.04 120.98 730.852 121.358 729.06 119.24 C 728.13 120.855 727.344 122.564 725.766 123.535 L 724.508 127.013 C 726.118 129.622 727.592 131.011 727.837 133.731 z"/>
<path transform="translate(0,0)" fill="rgb(4,8,21)" d="M 727.837 133.731 C 725.63 134.073 725.215 134.044 723.112 133.296 C 718.945 129.274 718.69 124.368 722.386 119.786 C 726.105 118.141 724.858 118.482 729.06 119.24 C 728.13 120.855 727.344 122.564 725.766 123.535 L 724.508 127.013 C 726.118 129.622 727.592 131.011 727.837 133.731 z"/>
<path transform="translate(0,0)" fill="rgb(129,142,163)" d="M 968.085 117.756 L 966.956 116.419 C 968.454 113.18 969.19 111.526 971.274 108.605 C 976.259 110.084 972.487 115.889 980.32 114.473 C 982.896 110.804 984.531 105.835 987.638 103.572 L 989.699 103.338 C 991.707 105.277 991.668 104.622 991.711 106.899 L 987.54 110.558 L 987.662 112.832 L 991.643 114.906 L 991.869 116.927 C 991.457 117.244 990.751 117.879 990.336 118.093 C 983.227 121.773 990.169 131.068 986.522 137.651 L 984.565 137.947 C 981.046 135.018 982.698 125.528 981.739 120.328 C 979.855 126.488 981.491 131.082 979.614 134.048 L 977.068 135.399 C 977.956 136.103 977.726 136.102 978.101 137.41 C 975.284 138.802 976.269 138.449 972.622 137.927 C 965.834 132.14 971.545 126.201 968.085 117.756 z"/>
<path transform="translate(0,0)" fill="rgb(4,8,21)" d="M 977.068 135.399 C 976.182 134.626 975.213 133.276 974.47 132.317 C 973.255 126.256 972.703 124.339 975.97 118.929 C 978.974 117.6 977.817 117.73 981.086 118.462 L 981.739 120.328 C 979.855 126.488 981.491 131.082 979.614 134.048 L 977.068 135.399 z"/>
<path transform="translate(0,0)" fill="rgb(129,142,163)" d="M 685.133 103.693 C 686.372 104.237 686.828 105.032 687.623 106.101 C 689.203 119.345 693.822 145.749 670.977 137.259 C 661.563 126.658 667.095 112.825 681.956 114.858 C 683.98 115.134 681.831 107.212 685.133 103.693 z"/>
<path transform="translate(0,0)" fill="rgb(4,8,21)" d="M 675.674 117.543 L 679.515 118.645 C 685.562 124.022 683.16 129.11 679.697 135.168 C 669.628 132.887 670.008 123.993 675.674 117.543 z"/>
<path transform="translate(0,0)" fill="rgb(129,142,163)" d="M 598.538 104.276 C 608.088 103.741 620.152 101.069 623.018 112.875 L 622.183 116.723 C 615.417 123.009 612.991 121.851 603.502 121.819 C 603.646 126.658 605.398 137.046 600.226 138.343 L 598.662 136.947 C 597.581 131.421 598.409 110.77 598.538 104.276 z"/>
<path transform="translate(0,0)" fill="rgb(4,8,21)" d="M 604.421 108.221 C 605.779 108.194 607.138 108.179 608.497 108.178 C 612.712 108.174 614.328 108.044 617.15 110.861 C 617.846 113.497 616.954 114.875 615.811 117.284 C 611.007 117.48 605.958 118.565 602.932 114.387 C 603.012 111.454 603.059 110.803 604.421 108.221 z"/>
<path transform="translate(0,0)" fill="rgb(129,142,163)" d="M 1213.57 104.196 L 1214.87 104.13 C 1223 103.73 1236.8 102.791 1237.32 114.33 C 1233.42 122.584 1225.32 121.913 1217.6 121.859 C 1217.7 125.505 1218.75 136.034 1214.72 137.271 C 1212.15 131.384 1211.7 110.004 1213.57 104.196 z"/>
<path transform="translate(0,0)" fill="rgb(129,142,163)" d="M 906.048 104.253 C 909.408 104.102 912.77 103.983 916.132 103.896 C 922.368 103.795 931.088 106.552 931.181 114.043 C 928.336 122.83 912.968 120.721 910.443 123.314 C 910.599 127.586 911.391 135.272 908.174 138.246 C 904.24 134.549 905.235 109.742 906.048 104.253 z"/>
<path transform="translate(0,0)" fill="rgb(4,8,21)" d="M 911.424 108.162 C 915.805 108.116 920.912 107.467 924.069 110.459 C 924.81 114.454 924.671 113.268 923.281 117.261 C 918.465 117.497 913.64 118.593 910.272 114.776 C 910.09 111.672 910.251 111.053 911.424 108.162 z"/>
<path transform="translate(0,0)" fill="rgb(4,8,21)" d="M 1284.74 117.163 L 1285.4 114.378 L 1286.73 114.174 C 1288.24 118.841 1287.8 126.087 1287.38 130.979 L 1285.99 131.429 C 1284.7 134.887 1280.99 137.676 1277.82 139.348 C 1260.16 139.926 1263.24 100.872 1284.74 117.163 z"/>
<path transform="translate(0,0)" fill="rgb(129,142,163)" d="M 1285.99 131.429 C 1284.7 134.887 1280.99 137.676 1277.82 139.348 C 1260.16 139.926 1263.24 100.872 1284.74 117.163 L 1285.33 120.239 L 1283.66 121.431 C 1280.17 120.265 1276.1 118.414 1272.77 119.746 C 1269.64 122.836 1269.7 129.86 1272.57 133.098 C 1278.42 135.344 1280.23 130.449 1285.99 131.429 z"/>
<path transform="translate(0,0)" fill="rgb(129,142,163)" d="M 1000.44 114.105 C 1001.9 114.036 1003.43 113.99 1004.89 114.058 C 1007.84 114.217 1010.61 115.539 1012.59 117.735 C 1019.14 124.991 1014.62 133.141 1008.51 138.56 C 1003.54 138.728 999.862 138.613 996.338 134.594 C 994.275 132.243 993.258 129.153 993.522 126.036 C 993.979 119.984 996.098 117.851 1000.44 114.105 z"/>
<path transform="translate(0,0)" fill="rgb(4,8,21)" d="M 1002.77 117.473 C 1013.14 119.882 1011.95 127.57 1007.08 134.507 C 1003.95 134.448 1003.25 134.402 1000.67 132.663 C 996.45 127.15 998.395 122.035 1002.77 117.473 z"/>
<path transform="translate(0,0)" fill="rgb(129,142,163)" d="M 1557.09 114.232 C 1574.27 113.137 1576.88 128.214 1565.61 138.376 C 1548.56 139.588 1545.63 124.109 1557.09 114.232 z"/>
<path transform="translate(0,0)" fill="rgb(4,8,21)" d="M 1559.75 117.4 C 1570.7 120.084 1568.58 128.957 1562.54 135.522 C 1552.89 131.839 1553.23 123.851 1559.75 117.4 z"/>
<path transform="translate(0,0)" fill="rgb(129,142,163)" d="M 648.493 114.086 C 649.941 114.025 651.449 113.987 652.896 114.061 C 655.844 114.217 658.607 115.547 660.568 117.754 C 666.992 124.967 662.551 133.137 656.527 138.547 C 639.85 139.321 636.706 124.037 648.493 114.086 z"/>
<path transform="translate(0,0)" fill="rgb(4,8,21)" d="M 650.766 117.474 C 661.081 119.853 659.977 127.546 655.127 134.472 C 651.999 134.447 651.268 134.419 648.662 132.665 C 644.439 127.16 646.391 122.028 650.766 117.474 z"/>
<path transform="translate(0,0)" fill="rgb(4,8,21)" d="M 241.098 118.406 C 241.67 109.46 246.669 107.521 246.46 99.4693 C 248.156 107.471 248.563 128.352 247.946 136.599 L 246.919 138.163 C 245.165 136.227 245.215 133.901 244.636 131.011 C 241.88 137.349 235.761 146.768 229.299 149.105 C 217.098 153.519 212.146 142.665 210.156 159.57 C 207.834 156.977 208.366 149.272 208.399 145.431 C 208.763 144.88 209.323 143.87 209.869 143.615 C 228.998 151.142 240.952 136.881 241.098 118.406 z"/>
<path transform="translate(0,0)" fill="rgb(129,142,163)" d="M 1042.5 114.518 C 1045.23 113.777 1046.81 114.418 1048.46 115.84 C 1050.74 117.793 1056.07 115.388 1059.63 114.341 C 1067.61 116.25 1066.94 135.166 1063.31 138.07 L 1061.88 137.671 C 1058.78 132.144 1062.53 121.845 1057.13 118.167 C 1050.3 118.499 1051.4 126.739 1051.57 131.984 L 1051.49 135.571 C 1049.81 137.76 1050.61 137.2 1047.86 137.938 C 1044.2 133.448 1049.79 123.961 1043.7 117.965 C 1032.48 119.338 1041.11 132.665 1036 138.069 L 1034.05 137.901 C 1032.17 134.851 1033.1 123.353 1032.91 119.238 C 1032.67 113.866 1037.47 117.514 1042.5 114.518 z"/>
<path transform="translate(0,0)" fill="rgb(129,142,163)" d="M 947.437 114.553 C 949.804 114.189 957.696 113.522 959.235 115.161 C 961.975 118.077 966.064 135.735 964.112 138.406 C 960.072 139.206 958.536 134.965 957.467 135.503 C 952.698 137.901 952.013 139.086 946.032 138.487 C 945.906 138.352 945.785 138.214 945.668 138.072 C 943.835 135.883 942.212 132.719 942.488 129.784 C 946.134 123.716 950.35 125.962 957.31 122.9 L 957.323 120.311 C 952.759 116.042 947.751 122.434 943.37 120.746 C 943.841 117.368 944.698 117.446 947.437 114.553 z"/>
<path transform="translate(0,0)" fill="rgb(129,142,163)" d="M 1308.61 114.437 L 1312.1 114.244 C 1320.32 117.094 1320.46 134.167 1316.69 137.655 C 1311.13 133.61 1318.06 125.127 1309.23 116.965 C 1308.92 117.079 1308.61 117.206 1308.31 117.346 C 1301.45 120.616 1304.29 129.778 1301.34 137.822 L 1300.28 137.799 C 1300.07 137.272 1299.88 136.735 1299.71 136.19 C 1298.59 132.458 1297.95 118.607 1299.8 115.198 C 1301.95 115.372 1303.53 116.018 1305.54 116.724 L 1308.61 114.437 z"/>
<path transform="translate(0,0)" fill="rgb(4,8,21)" d="M 3653.4 83.6561 C 3653.76 83.7849 3654.16 83.9519 3654.42 84.2391 C 3657.49 87.6165 3655.73 159.999 3655.56 168.921 L 3654.05 168.618 C 3652.53 165.926 3653.21 92.0631 3653.4 83.6561 z"/>
<path transform="translate(0,0)" fill="rgb(129,142,163)" d="M 740.404 108.398 C 740.672 108.442 741.184 108.567 741.407 108.741 C 754.123 118.665 733.044 126.626 748.946 135.974 C 747.799 137.629 745.882 138.135 744 138.836 C 735.407 136.669 741.922 122.693 737.625 117.875 C 735.889 115.929 739.004 113.419 740.404 108.398 z"/>
<path transform="translate(0,0)" fill="rgb(4,8,21)" d="M 273.879 122.737 C 273.464 133.104 274.998 129.817 269.495 136.09 C 267.299 132.29 268.411 106.604 271.124 103.516 C 274.534 108.012 273.788 108.313 273.866 114.525 L 273.879 122.737 z"/>
<path transform="translate(0,0)" fill="rgb(129,142,163)" d="M 935.104 103.66 C 935.704 104.003 936.922 104.586 937.146 105.079 C 939.469 110.189 938.506 133.882 937.63 138.816 C 936.389 138.176 934.713 137.643 934.495 136.385 C 933.456 130.398 933.136 108.606 935.104 103.66 z"/>
<path transform="translate(0,0)" fill="rgb(4,8,21)" d="M 134.174 141.463 C 140.38 140.439 172.547 140.052 180.354 141.908 C 180.354 141.908 181.481 143.152 181.638 143.325 C 175.821 144.665 138.153 144.727 134.174 141.463 z"/>
<path transform="translate(0,0)" fill="rgb(129,142,163)" d="M 1250.17 114.812 C 1251.26 114.551 1251.09 114.758 1252.37 115.531 L 1252.07 116.871 C 1250.22 118.07 1249.48 118.538 1247.42 119.329 C 1243.36 125.97 1249.04 133.564 1242.38 139.194 C 1240.42 135.092 1240.92 120.987 1241.76 116.215 C 1244.32 113.386 1244.16 117.483 1250.17 114.812 z"/>
<path transform="translate(0,0)" fill="rgb(129,142,163)" d="M 1029.1 114.947 L 1030.51 114.938 L 1031.21 116.361 C 1019.27 123.785 1030.14 134.339 1020.89 138.772 C 1020 134.626 1020.22 119.863 1021.09 115.612 L 1022.43 114.835 L 1026.06 116.363 L 1029.1 114.947 z"/>
<path transform="translate(0,0)" fill="rgb(129,142,163)" d="M 627.271 114.996 C 631.412 116.071 635.009 115.384 636.172 116.39 C 626.71 129.684 633.453 133.242 629.361 138.071 L 628.019 137.384 C 625.877 130.287 627.378 123.073 626.768 116.055 L 627.271 114.996 z"/>
<path transform="translate(0,0)" fill="rgb(4,8,21)" d="M 296.182 92.8898 C 293.494 92.8583 288.492 93.2383 286.515 91.5243 C 289.85 85.6693 304.931 87.8536 310.508 90.2308 L 311.483 91.6469 C 308.124 92.9611 304.197 92.8138 300.56 92.8926 L 296.182 92.8898 z"/>
<path transform="translate(0,0)" fill="rgb(129,142,163)" d="M 1290.08 113.777 C 1291.67 114.201 1292.16 114.991 1293.2 116.227 C 1294.2 122.819 1293.82 132.108 1293.09 138.787 C 1290.47 137.913 1291.26 138.47 1289.54 136.34 C 1288.72 130.442 1288.37 119.426 1290.08 113.777 z"/>
<path transform="translate(0,0)" fill="rgb(129,142,163)" d="M 1257.46 114.236 C 1259 114.487 1259.57 114.923 1260.85 115.723 C 1262.13 120.603 1261.62 132.017 1261.64 137.74 L 1258.62 137.737 C 1255.59 134.492 1257.2 119.249 1257.46 114.236 z"/>
<path transform="translate(0,0)" fill="rgb(4,8,21)" d="M 1208.46 103.626 L 1209.49 104.173 C 1212.15 108.362 1210.87 132.567 1210.57 138.884 L 1209.61 138.387 C 1207.25 134.54 1208.39 109.745 1208.46 103.626 z"/>
<path transform="translate(0,0)" fill="rgb(4,8,21)" d="M 623.018 112.875 L 627.271 114.996 L 626.768 116.055 C 623.478 119.742 626.251 130.474 624.022 136.919 C 622.309 131.107 622.393 122.922 622.183 116.723 L 623.018 112.875 z"/>
<path transform="translate(0,0)" fill="rgb(4,8,21)" d="M 287.694 146.35 C 292.868 146.298 302.532 145.973 307.276 146.656 L 308.502 148.538 C 302.362 149.184 291.724 151.273 287.694 146.35 z"/>
<path transform="translate(0,0)" fill="rgb(4,8,21)" d="M 358.197 93.3669 C 362.561 93.2931 372.53 92.5714 375.446 94.9773 L 374.047 96.2044 C 369.941 96.2792 359.038 96.9445 356.033 95.2771 L 358.197 93.3669 z"/>
<path transform="translate(0,0)" fill="rgb(4,8,21)" d="M 332.389 93.4443 C 336.608 93.3944 345.801 92.7621 348.826 94.6361 L 347.916 96.2031 C 343.735 96.2919 334.322 96.8646 331.245 94.9773 L 332.389 93.4443 z"/>
<path transform="translate(0,0)" fill="rgb(4,8,21)" d="M 188.797 163.42 C 193.039 163.007 201.332 162.578 205.273 163.626 L 206.259 165.567 C 200.914 165.903 192.068 167.749 188.797 163.42 z"/>
<path transform="translate(0,0)" fill="rgb(4,8,21)" d="M 695.332 140.489 C 699.336 139.854 708.8 139.908 712.736 140.564 L 713.51 142.5 C 706.952 142.851 699.975 144.356 695.332 140.489 z"/>
<path transform="translate(0,0)" fill="rgb(4,8,21)" d="M 174.315 103.351 L 176.511 104.272 C 178.667 108.202 175.628 109.685 178.255 117.696 C 177.776 117.754 175.736 117.543 175.129 117.492 C 173.692 115.042 174.306 106.609 174.315 103.351 z"/>
<path transform="translate(0,0)" fill="rgb(4,8,21)" d="M 190.68 93.4719 C 194.239 93.3707 201.436 92.7436 204.322 94.1575 L 204.599 96.1036 C 201.243 96.1924 192.632 96.9418 190.368 95.3038 L 190.68 93.4719 z"/>
<path transform="translate(0,0)" fill="rgb(4,8,21)" d="M 968.085 117.756 C 967.569 122.661 968.412 128.55 967.219 133.029 L 965.593 132.494 C 963.875 128.703 964.469 120.905 968.085 117.756 z"/>
<path transform="translate(0,0)" fill="rgb(4,8,21)" d="M 384.167 93.368 C 388.542 93.2262 390.232 93.1602 394.505 94.0101 L 395.055 95.2739 L 393.179 96.3663 C 391.605 96.3933 390.029 96.3904 388.455 96.3575 C 385.8 96.2765 383.29 96.4788 381.726 94.8142 L 384.167 93.368 z"/>
<path transform="translate(0,0)" fill="rgb(4,8,21)" d="M 604.317 123.427 C 610.015 123.038 615.45 121.922 619.601 125.433 C 613.734 126.048 608.665 127.676 604.317 123.427 z"/>
<path transform="translate(0,0)" fill="rgb(4,8,21)" d="M 911.337 123.45 C 917.065 123.035 922.446 121.899 926.604 125.458 C 920.714 126.019 915.791 127.624 911.337 123.45 z"/>
<path transform="translate(0,0)" fill="rgb(4,8,21)" d="M 1218.37 123.49 C 1223.42 123.1 1229.89 121.82 1233.6 125.458 L 1232.56 125.56 C 1226.23 126.171 1223 127.305 1218.37 123.49 z"/>
<path transform="translate(0,0)" fill="rgb(4,8,21)" d="M 1554.63 140.443 C 1558.46 140.135 1563.09 139.479 1566.7 140.565 L 1567.44 142.512 C 1563.25 142.864 1559.86 143.352 1555.74 142.318 L 1554.63 140.443 z"/>
<path transform="translate(0,0)" fill="rgb(4,8,21)" d="M 645.668 140.451 C 649.531 140.134 654.114 139.482 657.767 140.55 L 658.549 142.541 C 654.376 142.859 650.842 143.329 646.74 142.304 L 645.668 140.451 z"/>
<path transform="translate(0,0)" fill="rgb(4,8,21)" d="M 997.994 140.435 C 1001.5 140.193 1007 139.448 1010.07 140.714 L 1010.47 142.496 C 1005.74 142.937 1001.13 144.205 997.994 140.435 z"/>
<path transform="translate(0,0)" fill="rgb(4,8,21)" d="M 1269.68 140.443 C 1274.19 140.001 1280.05 138.437 1282.54 142.528 C 1278.36 142.873 1274.84 143.372 1270.74 142.311 L 1269.68 140.443 z"/>
<path transform="translate(0,0)" fill="rgb(4,8,21)" d="M 719.125 140.486 C 724.124 139.986 728.98 138.637 732.602 142.437 C 726.775 143.019 723.508 143.883 719.125 140.486 z"/>
<path transform="translate(0,0)" fill="rgb(4,8,21)" d="M 1580.07 140.482 C 1584.99 139.935 1589.16 138.714 1592.66 142.472 C 1586.93 143.028 1584.38 143.8 1580.07 140.482 z"/>
</svg>