<!-- RECRAFT VECTORIZE from logo/options-w3/mock/C2-heavier-navbar-light.png -->
<svg version="1.1" xmlns="http://www.w3.org/2000/svg" style="display: block;" viewBox="0 0 4096 256" width="4096" height="256" preserveAspectRatio="none">
<path transform="translate(0,0)" fill="rgb(255,255,255)" d="M 0 0 L 4096 0 L 4096 256 L 0 256 L 0 0 z"/>
<path transform="translate(0,0)" fill="rgb(66,55,201)" d="M 3680.91 61.8566 C 3683.63 59.9241 3849.92 60.7553 3867.05 60.7594 L 3927.21 60.7519 C 3936.24 60.752 3952.4 60.2989 3960.99 61.3772 C 3962.48 63.0933 3979.07 74.2388 3980.27 77.7383 C 3984.31 89.5547 3985.06 103.886 3984.07 117.032 C 3982.05 143.711 3993.12 170.993 3966.07 187.995 C 3963.13 189.842 3963.04 188.614 3960.83 191.422 C 3945.93 193.156 3682.86 191.805 3681.03 191.015 C 3679.43 188.788 3677.09 189.53 3675.83 188.29 C 3671.05 183.608 3661.65 177.32 3660.63 170.622 C 3660.41 169.228 3659.6 168.951 3658.42 167.918 C 3657.17 161.228 3656.94 88.3365 3658.9 84.9382 C 3661.5 82.946 3660.06 80.4807 3661.74 78.2938 C 3665.57 73.3024 3670.52 68.6285 3675.41 64.7077 C 3676.45 63.8735 3677.51 64.5511 3680.91 61.8566 z"/>
<path transform="translate(0,0)" fill="rgb(53,40,197)" d="M 3680.91 61.8566 C 3683.63 59.9241 3849.92 60.7553 3867.05 60.7594 L 3927.21 60.7519 C 3936.24 60.752 3952.4 60.2989 3960.99 61.3772 L 3959.96 64.4426 C 3959.67 64.5852 3701.96 66.3097 3683.07 64.8609 C 3681.01 63.5169 3681.48 64.2155 3680.91 61.8566 z"/>
<path transform="translate(0,0)" fill="rgb(53,40,197)" d="M 3681.03 191.015 L 3681.65 188.136 C 3683.72 187.061 3726.88 187.682 3732.41 187.685 L 3907.09 187.702 C 3914.19 187.702 3957.67 186.556 3960.17 188.942 L 3960.83 191.422 C 3945.93 193.156 3682.86 191.805 3681.03 191.015 z"/>
<path transform="translate(0,0)" fill="rgb(53,40,197)" d="M 3658.42 167.918 C 3657.17 161.228 3656.94 88.3365 3658.9 84.9382 L 3661.32 86.3111 C 3662.64 92.6078 3662.6 163.644 3660.48 167.005 L 3658.42 167.918 z"/>
<path transform="translate(0,0)" fill="rgb(255,255,255)" d="M 3903.58 133.853 C 3901.22 136.411 3898.74 138.432 3895.2 138.559 C 3872.57 139.366 3886.9 98.5849 3902.31 119.019 C 3903.75 120.931 3903.48 122.204 3905.94 123.139 C 3908.25 114.093 3911.13 114.264 3919.8 114.876 C 3923.64 111.559 3919.81 108.54 3923.91 104.433 L 3925.85 105.111 L 3926.89 107.479 C 3927.55 113.426 3928.18 131.832 3927.09 137.483 C 3926.21 137.995 3913.32 139.641 3911.46 139.484 C 3908.22 137.683 3905.32 134.064 3903.58 133.853 z"/>
<path transform="translate(0,0)" fill="rgb(53,40,197)" d="M 3905.72 127.419 C 3907.05 134.01 3909.13 139.574 3917 137.742 C 3919.84 137.081 3922.91 138.566 3925.84 136.275 C 3926.92 132.055 3926.02 114.62 3926.89 107.479 C 3927.55 113.426 3928.18 131.832 3927.09 137.483 C 3926.21 137.995 3913.32 139.641 3911.46 139.484 C 3908.22 137.683 3905.32 134.064 3903.58 133.853 C 3900.1 129.588 3897.29 136.067 3891.47 133.96 C 3888.85 131.681 3889.36 132.69 3888.54 129.654 C 3890.42 128.061 3901.79 127.81 3905.72 127.419 z"/>
<path transform="translate(0,0)" fill="rgb(53,40,197)" d="M 3914.8 117.382 C 3924.68 120.759 3921.77 128.607 3917.85 135.404 C 3915.15 134.594 3914.65 134.298 3912.4 132.614 C 3908.86 126.71 3909.89 122.008 3914.8 117.382 z"/>
<path transform="translate(0,0)" fill="rgb(255,255,255)" d="M 3727.74 120.386 C 3730.88 120.496 3737.09 120.149 3739.31 122.62 C 3742.52 126.194 3742.08 130.149 3738.73 133.543 C 3735.36 136.911 3730.79 138.807 3726.02 138.817 C 3716.72 138.81 3710.43 129.953 3710.48 121.276 C 3710.5 116.443 3712.46 111.821 3715.93 108.45 C 3723.99 100.585 3738.68 102.885 3738.45 113.236 L 3735.84 115.034 C 3739.05 118.436 3743.61 115.621 3745.08 119.498 C 3743.74 123.968 3743.12 125.543 3743.77 130.139 L 3742.97 129.83 C 3742.75 126.394 3742.65 122.953 3742.64 119.51 C 3738.32 119.502 3731.69 119.178 3727.74 120.386 z"/>
<path transform="translate(0,0)" fill="rgb(53,40,197)" d="M 3727.74 120.386 L 3727.29 122.585 C 3729.51 126.335 3734.71 124.117 3736.65 129.036 C 3734.66 132.078 3727.78 135.64 3724.48 134.708 C 3708.31 130.137 3719.3 91.6533 3735.84 115.034 C 3739.05 118.436 3743.61 115.621 3745.08 119.498 C 3743.74 123.968 3743.12 125.543 3743.77 130.139 L 3742.97 129.83 C 3742.75 126.394 3742.65 122.953 3742.64 119.51 C 3738.32 119.502 3731.69 119.178 3727.74 120.386 z"/>
<path transform="translate(0,0)" fill="rgb(255,255,255)" d="M 3853.33 136.105 L 3851.58 138.319 C 3847.14 139.336 3844.52 135.157 3844.13 135.756 C 3841.5 139.734 3827.74 140.751 3828.27 130.705 C 3829.88 128.357 3839.82 123.435 3843.55 120.775 L 3843.14 118.723 C 3838.02 118.221 3836.84 119.248 3832.25 121.482 L 3830.03 120.383 L 3830.14 118.657 C 3832.81 116.222 3836.11 114.59 3839.67 113.95 C 3850.56 112.075 3849.23 127.692 3850.25 134.009 L 3853.33 136.105 z"/>
<path transform="translate(0,0)" fill="rgb(255,255,255)" d="M 3752.62 114.11 C 3759.48 113.827 3767.1 116.516 3767.65 124.419 C 3764.27 130.346 3754.92 126.882 3751.08 130.207 C 3752.25 132.916 3751.73 132.055 3754.53 133.939 C 3757.53 134.715 3759.88 133.677 3762.81 132.744 C 3763.79 131.974 3763.52 132.206 3765.05 132.268 L 3765.29 133.762 C 3757.51 147.914 3733.57 129.914 3752.62 114.11 z"/>
<path transform="translate(0,0)" fill="rgb(255,255,255)" d="M 3798.48 114.079 C 3804.55 113.832 3808.27 113.365 3812.05 119.071 L 3810.99 120.015 C 3807.18 119.797 3803.38 119.489 3799.58 119.091 L 3798.79 120.455 C 3803.58 126.244 3812.31 124.346 3813.17 132.219 C 3811.61 135.519 3810.54 136.239 3807.75 138.519 C 3802.58 138.699 3795.64 139.383 3793.92 133.016 C 3796.08 131.847 3803.36 133.479 3807.63 133.384 L 3808.31 132.093 C 3805.68 126.108 3796.58 128.548 3793.96 121.305 C 3794.53 117.792 3796.03 116.609 3798.48 114.079 z"/>
<path transform="translate(0,0)" fill="rgb(255,255,255)" d="M 3819.29 107.61 C 3820.95 108.504 3825.69 114.716 3823.95 117.848 C 3818.72 127.257 3822.75 131.918 3827.5 137.945 C 3822.71 138.314 3823.51 138.937 3819.7 136.918 C 3814.63 130.103 3814.86 114.947 3819.29 107.61 z"/>
<path transform="translate(0,0)" fill="rgb(255,255,255)" d="M 3871.56 114.289 C 3872.56 110.393 3871.88 110.883 3874.55 108.153 C 3876.9 110.884 3874.88 112.17 3877.51 113.611 C 3878.51 114.154 3879.38 114.87 3880.24 115.607 C 3877.73 123.29 3874.41 120.834 3876.11 132.493 L 3880.7 135.99 L 3880.4 137.513 C 3877.39 138.774 3878.49 138.728 3875.48 137.997 C 3868.38 130.914 3875.44 123.264 3867.82 115.059 L 3871.56 114.289 z"/>
<path transform="translate(0,0)" fill="rgb(255,255,255)" d="M 3774.37 107.678 L 3776.11 108.976 C 3776.71 115.544 3784.12 111.864 3776.63 123.514 C 3774.39 127.007 3779.44 133.644 3782.51 137.357 C 3780.02 138.337 3779.11 138.219 3776.43 138.098 C 3768.25 133.158 3776.13 124.751 3770.42 117.102 C 3770.57 114.739 3772.96 111.68 3774.37 107.678 z"/>
<path transform="translate(0,0)" fill="rgb(255,255,255)" d="M 3860.16 115.832 C 3863.03 114.472 3863.69 114.399 3866.84 114.712 C 3864.82 119.728 3857.27 122.32 3859.15 133.293 C 3859.38 134.642 3859.26 136.561 3858.23 137.535 C 3855.27 133.249 3853.29 118.319 3857.45 114.901 L 3860.16 115.832 z"/>
<path transform="translate(0,0)" fill="rgb(53,40,197)" d="M 3860.16 115.832 C 3859 110.749 3857.95 114.47 3855.53 111.182 C 3859.56 109.949 3866.41 108.383 3870.39 110.319 L 3871.56 114.289 L 3867.82 115.059 L 3866.84 114.712 C 3863.69 114.399 3863.03 114.472 3860.16 115.832 z"/>
<path transform="translate(0,0)" fill="rgb(53,40,197)" d="M 3909.05 140.427 C 3913.36 139.87 3922.05 139.76 3926.25 140.659 L 3927.48 142.597 C 3921.98 142.464 3912.22 144.724 3909.05 140.427 z"/>
<path transform="translate(0,0)" fill="rgb(53,40,197)" d="M 3850.25 134.009 C 3852.5 126.737 3851.03 123.326 3853.16 116.95 C 3854.13 121.701 3854.17 131.346 3853.33 136.105 L 3850.25 134.009 z"/>
<path transform="translate(0,0)" fill="rgb(53,40,197)" d="M 3718.31 140.525 C 3723.37 139.802 3732.05 138.699 3735.61 142.439 C 3732.76 142.626 3729.91 142.772 3727.05 142.878 C 3722.94 142.998 3721.04 143.088 3718.31 140.525 z"/>
<path transform="translate(0,0)" fill="rgb(53,40,197)" d="M 3795.57 140.462 C 3800.27 140.09 3807.87 138.366 3810.52 142.496 C 3806.04 142.788 3798.02 144.311 3795.57 140.462 z"/>
<path transform="translate(0,0)" fill="rgb(53,40,197)" d="M 3768.67 118.445 L 3770.62 120.166 C 3771.09 123.41 3771.47 131.438 3769.56 134.085 L 3768.92 133.469 C 3768.44 129.363 3768.55 122.687 3768.67 118.445 z"/>
<path transform="translate(0,0)" fill="rgb(53,40,197)" d="M 3750.12 140.422 C 3754.65 140.006 3760.98 138.456 3763.53 142.518 C 3758.81 142.911 3753.19 144.234 3750.12 140.422 z"/>
<path transform="translate(0,0)" fill="rgb(53,40,197)" d="M 3749.39 110.529 C 3753.76 109.965 3760.5 108.862 3764.19 111.681 C 3759.55 113.308 3753.3 113.707 3749.39 110.529 z"/>
<path transform="translate(0,0)" fill="rgb(53,40,197)" d="M 3887.56 140.452 C 3890.9 140.112 3897.12 139.474 3900.04 140.724 L 3900.44 142.477 C 3895.65 142.901 3893.43 143.222 3888.73 142.302 L 3887.56 140.452 z"/>
<path transform="translate(0,0)" fill="rgb(53,40,197)" d="M 3830.83 140.419 C 3835.22 139.956 3840.04 138.527 3842.53 142.517 C 3837.74 142.95 3834.23 144.055 3830.83 140.419 z"/>
<path transform="translate(0,0)" fill="rgb(53,40,197)" d="M 3817.82 140.441 C 3821.18 139.982 3823.02 139.543 3826.31 140.512 L 3827.1 142.603 C 3823.8 142.913 3821.98 143.245 3818.75 142.319 L 3817.82 140.441 z"/>
<path transform="translate(0,0)" fill="rgb(78,82,93)" d="M 137.513 83.3324 C 150.579 84.0401 168.462 83.4981 182.106 83.6207 C 182.185 87.0638 182.65 94.8245 181.562 97.8224 C 179.979 102.183 176.546 101.811 173.186 103.275 C 170.463 113.625 173.465 117.912 181.326 123.286 C 182.86 124.335 182.174 132.056 182.06 134.25 C 182.263 135.12 181.64 136.4 181.307 137.29 C 176.972 140.193 142.501 138.758 135.07 138.62 C 135.038 124.666 134.533 100.611 135.53 85.609 C 136.302 84.7228 136.963 83.964 137.513 83.3324 z"/>
<path transform="translate(0,0)" fill="rgb(14,19,35)" d="M 137.164 85.0283 C 146.971 85.9689 169.776 85.5436 179.976 85.0863 C 179.301 92.0282 182.08 98.7145 175.327 100.937 C 168.748 100.126 161.031 99.6722 154.582 101.288 L 153.271 102.352 C 156.034 105.065 162.603 104.681 166.325 104.647 C 167.65 104.634 168.976 104.614 170.301 104.587 C 171.241 108.741 170.816 113.427 171.016 117.699 C 165.327 117.916 157.768 117.02 153.075 118.404 C 151.564 120.474 151.78 119.673 151.644 122.099 C 156.35 122.072 171.476 122.267 175.246 121.415 C 176.311 121.585 177.809 122.267 178.849 122.691 C 179.836 124.943 179.701 133.65 180.029 137.219 C 169.955 136.184 148.068 136.834 137.327 137.046 C 138.229 127.697 138.05 93.9158 137.164 85.0283 z"/>
<path transform="translate(0,0)" fill="rgb(6,10,25)" d="M 137.164 85.0283 C 146.971 85.9689 169.776 85.5436 179.976 85.0863 C 179.301 92.0282 182.08 98.7145 175.327 100.937 L 172.628 98.6767 C 174.247 95.3752 175.729 93.9783 175.027 91.0335 C 169.342 88.0077 148.836 89.0461 141.471 89.132 C 141.87 96.6186 140.589 130.245 143.131 132.772 L 145.158 133.139 C 152.148 133.337 169.741 135.03 174.598 131.197 C 175.471 127.874 174.766 126.761 172.908 123.282 L 175.246 121.415 C 176.311 121.585 177.809 122.267 178.849 122.691 C 179.836 124.943 179.701 133.65 180.029 137.219 C 169.955 136.184 148.068 136.834 137.327 137.046 C 138.229 127.697 138.05 93.9158 137.164 85.0283 z"/>
<path transform="translate(0,0)" fill="rgb(6,10,25)" d="M 170.301 104.587 C 171.241 108.741 170.816 113.427 171.016 117.699 C 161.213 114.816 158.188 117.666 152.09 115.763 L 151.81 114.567 C 155.787 111.277 164.971 116.327 166.868 111.026 C 163.909 108.779 155.411 109.789 150.528 107.2 C 154.055 104.862 162.312 107.548 170.301 104.587 z"/>
<path transform="translate(0,0)" fill="rgb(6,10,25)" d="M 190.388 98.964 C 207.893 98.5155 201.55 104.327 219.127 98.6101 C 228.654 100.563 235.699 104.29 239.494 113.849 C 241.784 119.635 241.694 126.092 239.244 131.812 C 236.17 138.831 230.72 142.547 223.836 145.213 C 214.481 145.537 213.129 144.895 205.142 140.489 C 205.483 146.823 205.406 154.079 205.473 160.496 C 200.517 160.106 194.631 160.266 189.593 160.276 C 189.568 151.73 188.743 104.786 190.388 98.964 z"/>
<path transform="translate(0,0)" fill="rgb(255,255,255)" d="M 215.823 112.71 C 219.241 111.48 223.056 112.181 225.813 114.546 C 228.57 116.911 229.843 120.575 229.147 124.14 C 228.45 127.706 225.891 130.621 222.447 131.775 C 217.204 133.53 211.524 130.74 209.709 125.517 C 207.895 120.294 210.621 114.583 215.823 112.71 z"/>
<path transform="translate(0,0)" fill="rgb(6,10,25)" d="M 294.989 94.0081 C 308.502 92.227 320.95 101.606 322.965 115.086 C 324.979 128.567 315.817 141.175 302.373 143.423 C 293.468 144.912 284.451 141.48 278.79 134.445 C 273.128 127.411 271.702 117.87 275.06 109.488 C 278.418 101.106 286.037 95.1879 294.989 94.0081 z"/>
<path transform="translate(0,0)" fill="rgb(255,255,255)" d="M 295.022 106.67 C 299.461 105.485 304.193 106.829 307.345 110.171 C 310.498 113.513 311.565 118.315 310.124 122.677 C 308.682 127.04 304.965 130.261 300.442 131.067 C 293.844 132.243 287.492 128.009 286.038 121.466 C 284.585 114.924 288.547 108.398 295.022 106.67 z"/>
<path transform="translate(0,0)" fill="rgb(6,10,25)" d="M 349.465 132.312 C 357.017 109.562 346.759 98.9724 375.17 98.7681 C 374.722 110.043 373.667 120.371 374.981 131.598 C 378.729 121.378 379.364 102.769 386.201 98.2073 C 386.768 98.2793 387.333 98.3582 387.897 98.444 C 391.409 98.9856 391.992 98.7999 393.647 101.052 C 391.972 107.113 379.802 131.536 376.398 138.337 C 371.033 138.142 365.264 138.368 359.869 138.477 C 362.078 131.099 362.433 129.817 363.081 122.339 C 360.132 127.229 357.035 133.292 354.086 138.422 C 349.193 138.127 342.947 138.356 337.949 138.402 C 336.496 131.349 331.788 105.511 331.916 98.8057 C 337.484 99.3209 343.465 99.0196 349.08 98.8693 C 348.743 110.531 347.912 120.687 349.465 132.312 z"/>
<path transform="translate(0,0)" fill="rgb(162,176,193)" d="M 1520.6 104.196 C 1525.57 104.02 1531.2 104.108 1536.23 104.08 C 1537.71 104.999 1539.44 106.098 1540.8 107.167 C 1544.45 110.102 1546.8 114.369 1547.31 119.03 C 1547.94 124.657 1545.9 129.809 1542.43 134.127 C 1534.58 140.203 1530.12 138.738 1519.98 138.241 C 1519.93 131.725 1519.39 109.774 1520.6 104.196 z"/>
<path transform="translate(0,0)" fill="rgb(255,255,255)" d="M 1525.45 108.102 C 1542.48 107.683 1548.43 120.493 1537.67 132.518 C 1535.85 133.956 1530.52 135.174 1528.43 134.352 C 1522.77 132.122 1524.06 112.646 1525.45 108.102 z"/>
<path transform="translate(0,0)" fill="rgb(6,10,25)" d="M 256.906 83.4427 C 259.914 84.3441 261.76 85.2484 263.836 87.5909 C 265.605 96.6055 256.019 92.9387 265.793 102.309 C 267.296 103.75 266.441 132.892 265.2 136.27 C 264.659 137.741 262.619 138.093 261.204 138.574 C 257.473 138.561 254.896 138.828 251.589 137.078 C 249.115 133.754 250.329 108.94 250.169 103.479 C 250.083 100.574 252.732 100.183 255.305 97.9801 C 253.795 94.7479 253.314 93.6214 252.535 90.1335 C 252.979 86.8144 254.512 85.7233 256.906 83.4427 z"/>
<path transform="translate(0,0)" fill="rgb(162,176,193)" d="M 1329.43 114.097 C 1331.52 113.97 1341.01 115.383 1343.14 115.979 C 1347.6 128.362 1344.45 161.532 1323.9 143.775 C 1327.39 139.014 1328.94 144.208 1334.64 144.217 C 1337.66 142.625 1337.06 142.573 1338.94 139.337 C 1337.52 136.597 1331.25 139.595 1325.78 135.656 C 1320.14 128.539 1323.01 119.625 1329.43 114.097 z"/>
<path transform="translate(0,0)" fill="rgb(255,255,255)" d="M 1331.58 117.375 C 1342.08 120.097 1339.89 127.806 1335.5 135.122 C 1332.86 134.558 1332.26 134.428 1330.06 132.878 C 1326.32 127.339 1327.55 122.343 1331.58 117.375 z"/>
<path transform="translate(0,0)" fill="rgb(162,176,193)" d="M 720.505 114.485 C 727.419 113.203 728.995 113.349 733.211 118.354 L 733.022 119.468 C 729.212 119.24 727.727 119.225 723.946 119.719 C 719.187 122.984 718.638 126.7 721.287 131.681 C 724.697 133.806 729.654 133.061 733.843 132.926 L 734.13 134.045 C 727.418 142.09 722.891 136.774 714.307 134.465 C 713.978 136.241 713.955 137.084 712.594 138.3 L 709.005 138.021 L 707.921 137.492 C 704.529 138.635 699.372 137.95 696.011 136.76 C 692.757 133.726 692.784 117.137 695.369 114.305 C 698.455 117.403 697.696 131.225 703.224 135.3 C 710.885 133.289 706.112 118.952 710.408 114.877 C 712.385 116.161 714.502 117.82 716.826 117.943 L 720.505 114.485 z"/>
<path transform="translate(0,0)" fill="rgb(162,176,193)" d="M 685.034 103.63 C 685.925 104.156 687.265 104.796 687.471 105.805 C 688.774 112.193 689.413 131.98 687.584 137.65 C 685.689 138.306 676.504 138.262 673.24 138.54 C 666.422 132.956 664.296 122.106 671.3 115.842 C 674.059 113.375 678.823 114.479 682.383 114.84 C 684.549 111.425 681.532 107.65 685.034 103.63 z"/>
<path transform="translate(0,0)" fill="rgb(255,255,255)" d="M 673.728 118.329 L 678.07 118.555 C 684.88 122.75 682.403 128.088 680.681 134.833 C 669.446 133.529 671.268 127.171 673.728 118.329 z"/>
<path transform="translate(0,0)" fill="rgb(162,176,193)" d="M 598.774 104.203 C 607.098 103.776 619.468 102.341 623.279 112.144 C 622.6 122.184 610.755 121.943 603.375 121.764 C 602.504 125.92 605.154 133.568 601.625 137.69 L 600.144 137.461 C 597.292 131.686 597.937 111.016 598.774 104.203 z"/>
<path transform="translate(0,0)" fill="rgb(255,255,255)" d="M 603.878 108.306 C 609.11 108.121 612.472 107.406 616.644 110.069 C 617.988 112.918 617.466 114.259 616.735 117.236 C 611.319 117.574 607.554 118.558 603.423 115.458 C 602.613 112.538 603.135 111.16 603.878 108.306 z"/>
<path transform="translate(0,0)" fill="rgb(162,176,193)" d="M 1213.1 104.265 C 1221.31 103.784 1233.79 102.191 1237.31 112.204 C 1236.46 122.35 1225.86 121.926 1218.23 121.751 C 1215.91 125.733 1220.4 131.718 1215.95 137.664 L 1214.56 137.466 C 1211.58 132.12 1212.55 110.958 1213.1 104.265 z"/>
<path transform="translate(0,0)" fill="rgb(255,255,255)" d="M 1218.06 108.327 C 1223.78 108.04 1227.27 107.176 1231.53 110.576 C 1232.06 114.512 1231.91 113.459 1230.38 117.357 C 1225.33 117.608 1221.85 118.388 1217.91 115.535 C 1216.99 112.616 1217.43 111.242 1218.06 108.327 z"/>
<path transform="translate(0,0)" fill="rgb(162,176,193)" d="M 905.978 104.245 C 913.29 103.861 925.918 102.161 929.605 109.872 C 931.709 124.228 917.83 120.573 910.252 122.523 C 910.476 126.34 911.532 135.618 908.516 138.226 L 907.81 137.621 C 904.185 129.661 904.89 112.934 905.978 104.245 z"/>
<path transform="translate(0,0)" fill="rgb(255,255,255)" d="M 910.952 108.293 C 914.702 108.166 920.757 107.404 923.546 109.705 C 925.14 113.557 924.623 112.744 924.001 117.266 C 918.765 117.593 914.553 118.581 910.552 115.453 C 909.766 112.54 910.26 111.147 910.952 108.293 z"/>
<path transform="translate(0,0)" fill="rgb(162,176,193)" d="M 1000.41 114.082 C 1001.84 114.012 1003.28 114.002 1004.71 114.051 C 1007.73 114.175 1010.57 115.511 1012.6 117.757 C 1019.1 124.957 1014.58 133.127 1008.57 138.554 C 991.758 139.262 988.741 124.17 1000.41 114.082 z"/>
<path transform="translate(0,0)" fill="rgb(255,255,255)" d="M 1002.64 117.466 C 1013.01 119.297 1012.1 127.71 1007.18 134.547 C 1003.91 134.44 1002.8 134.519 1000.25 132.326 C 996.54 126.705 998.408 121.945 1002.64 117.466 z"/>
<path transform="translate(0,0)" fill="rgb(162,176,193)" d="M 1557.12 114.232 C 1574.34 113.112 1576.76 128.209 1565.65 138.393 C 1548.51 139.648 1545.59 123.828 1557.12 114.232 z"/>
<path transform="translate(0,0)" fill="rgb(255,255,255)" d="M 1559.63 117.346 C 1570.89 119.871 1568.58 128.932 1562.63 135.572 C 1552.82 131.98 1553.12 123.9 1559.63 117.346 z"/>
<path transform="translate(0,0)" fill="rgb(162,176,193)" d="M 648.435 114.1 C 649.859 114.021 651.286 114.003 652.712 114.045 C 655.683 114.142 658.488 115.44 660.484 117.643 C 666.945 124.727 662.632 133.071 656.678 138.529 C 639.727 139.245 636.716 124.06 648.435 114.1 z"/>
<path transform="translate(0,0)" fill="rgb(255,255,255)" d="M 650.604 117.479 C 660.968 119.258 660.077 127.673 655.211 134.513 C 643.641 134.149 644.413 124.183 650.604 117.479 z"/>
<path transform="translate(0,0)" fill="rgb(162,176,193)" d="M 1042.48 114.525 C 1046.09 113.539 1047.28 115.044 1050.04 116.841 C 1056.25 117.145 1052.56 111.698 1061.58 114.844 C 1065.94 119.879 1067.51 132.788 1063.65 137.97 C 1059.41 133.969 1060.9 119.75 1055.2 117.542 C 1051.27 121.906 1051.35 125.223 1051.36 130.83 C 1051.63 134.588 1051.76 135.036 1049.78 137.467 L 1047.73 137.665 C 1045.28 134.744 1047.45 124.69 1045.76 119.562 C 1043.24 117.987 1044.15 118.404 1040.65 118.624 C 1033.97 124.397 1040.83 132.063 1035.92 138.264 C 1034.7 137.933 1034.31 138.069 1033.71 137.156 L 1033.62 137.029 C 1032.28 135.026 1032.89 119.376 1033.49 116.625 C 1038.01 114.595 1036.8 117.689 1042.48 114.525 z"/>
<path transform="translate(0,0)" fill="rgb(162,176,193)" d="M 987.079 103.542 C 988.46 103.679 989.985 104.264 991.32 104.707 L 991.916 106.473 C 990.657 108.282 989.36 109.088 987.591 110.378 C 987.462 115.136 988.14 111.428 991.534 115.543 C 990.191 118.666 988.709 120.451 987.743 123.789 C 986.481 128.154 988.307 133.831 986.569 137.632 L 984.466 137.993 C 978.61 133.231 986.381 122.856 980.032 117.944 C 976.251 117.962 977.57 117.564 974.425 119.356 L 974.047 121.75 C 973.232 132.646 977.465 132.736 975.961 138.31 C 973.314 138.607 974.131 138.558 971.389 136.97 C 967.927 131.655 967.142 114.292 970.5 108.874 L 971.738 108.665 C 974.265 112.045 975.432 114.353 979.878 114.404 C 982.799 112.445 982.531 108.577 987.079 103.542 z"/>
<path transform="translate(0,0)" fill="rgb(162,176,193)" d="M 949.04 114.157 C 953.697 113.91 956.565 113.718 960.328 116.544 C 963.249 120.375 961.334 127.042 963.134 132.008 C 964.172 134.87 965.904 134.4 965.909 137.081 L 964.577 138.336 C 960.252 139.168 958.559 134.943 957.461 135.507 C 952.864 137.869 952.197 139.038 946.333 138.656 C 944.013 135.854 943.046 134.911 942.682 131.24 C 945.407 123.169 954.462 125.667 957.119 121 L 955.463 119.008 L 944.583 120.366 L 943.501 119.216 C 943.907 118.451 948.097 114.974 949.04 114.157 z"/>
<path transform="translate(0,0)" fill="rgb(162,176,193)" d="M 1602.35 114.233 C 1607.29 113.931 1615.22 112.85 1616.98 119.104 C 1615.36 120.303 1606.75 119.523 1603.95 119.483 C 1605.73 126.024 1614.76 123.018 1617.74 130.697 C 1617.36 134.156 1615.73 135.681 1613.53 138.338 C 1608.59 138.725 1601.2 138.678 1597.82 134.317 L 1598.94 135.739 L 1598.09 135.026 L 1598.71 132.863 C 1603.34 129.93 1608.02 137.516 1612.15 132.763 L 1611.82 130.289 C 1607.48 125.448 1601.63 128.4 1599.03 121.787 C 1599.08 118.546 1600.54 116.882 1602.35 114.233 z"/>
<path transform="translate(0,0)" fill="rgb(162,176,193)" d="M 1308.57 114.472 C 1320.82 112.173 1320.48 130.139 1316.61 136.927 L 1315.17 137.126 C 1311.93 131.13 1316.94 124.799 1310.51 117.274 C 1308.2 117.724 1307.7 117.833 1305.78 119.173 C 1302.01 124.237 1303.83 135.716 1300.62 138.056 C 1297.85 134.558 1298.57 119.844 1299.39 115.265 C 1302.34 113.967 1300.58 115.251 1304.82 116.846 L 1308.57 114.472 z"/>
<path transform="translate(0,0)" fill="rgb(162,176,193)" d="M 1272.33 114.137 C 1276.61 113.909 1283.64 115.15 1285.21 119.567 C 1282.38 122.734 1279.41 119.297 1276.04 118.262 C 1268.72 120.002 1268.23 129.972 1274.92 133.976 C 1278 134.394 1279.19 133.429 1281.77 131.853 L 1283.89 131.606 L 1284.44 133.35 C 1276.78 148.664 1254.12 129.324 1272.33 114.137 z"/>
<path transform="translate(0,0)" fill="rgb(162,176,193)" d="M 1582.77 114.025 C 1588.94 113.847 1590.64 114.64 1595.25 118.874 L 1595.05 120.127 C 1589.83 121.406 1591.63 119.901 1586.54 118.199 C 1579.12 119.934 1578.73 129.693 1584.95 133.915 C 1587.99 134.464 1589.03 133.706 1591.67 132.246 C 1592.79 131.502 1592.53 131.74 1594.17 131.817 L 1594.48 133.799 C 1587.13 148.114 1564.46 129.602 1582.77 114.025 z"/>
<path transform="translate(0,0)" fill="rgb(162,176,193)" d="M 740.43 108.396 L 742.058 109.019 C 742.646 110.08 746.314 114.563 746.178 115.191 C 744.035 125.084 738.345 129.77 748.989 135.984 C 747.411 138.199 744.523 138.952 742.002 138.332 C 736.531 133.578 741.488 122.214 737.541 117.776 C 735.926 115.96 739.022 113.221 740.43 108.396 z"/>
<path transform="translate(0,0)" fill="rgb(162,176,193)" d="M 935.123 103.701 L 937.037 104.819 C 939.48 108.223 938.414 133.771 937.665 138.844 C 936.394 138.195 934.71 137.677 934.493 136.393 C 933.481 130.43 933.116 108.601 935.123 103.701 z"/>
<path transform="translate(0,0)" fill="rgb(162,176,193)" d="M 1250.17 114.853 C 1251.28 114.544 1251.05 114.715 1252.38 115.394 C 1251.22 119.189 1250.31 117.081 1248.12 119.237 C 1241.1 126.169 1250.48 132.325 1242.39 139.176 C 1240.42 135.084 1240.93 120.923 1241.75 116.153 C 1244.37 113.33 1244.17 117.478 1250.17 114.853 z"/>
<path transform="translate(0,0)" fill="rgb(162,176,193)" d="M 1029.09 114.951 L 1030.44 115.026 C 1031.21 116.607 1031.52 116.346 1029.79 117.325 C 1022.63 121.399 1026.15 131.058 1024.38 136.145 L 1024.2 136.64 C 1023.8 137.772 1022.26 138.129 1020.87 138.785 C 1020.01 134.608 1020.23 119.873 1021.08 115.617 L 1022.43 114.832 L 1026.23 116.327 L 1029.09 114.951 z"/>
<path transform="translate(0,0)" fill="rgb(162,176,193)" d="M 635.76 114.412 L 637.162 114.904 L 637.745 116.392 C 623.838 125.888 636.507 130.061 628.451 139.38 C 625.957 135.338 626.465 120.906 627.359 116.068 C 629.896 114.14 630.219 117.322 635.76 114.412 z"/>
<path transform="translate(0,0)" fill="rgb(162,176,193)" d="M 1290.38 113.513 C 1291.57 114.106 1292.24 114.973 1293.13 115.945 C 1294.14 123.236 1293.8 131.458 1293.1 138.786 C 1290.46 137.921 1291.25 138.483 1289.55 136.344 C 1288.82 130.931 1288.03 118.254 1290.38 113.513 z"/>
<path transform="translate(0,0)" fill="rgb(162,176,193)" d="M 1257.46 114.238 C 1259 114.483 1259.57 114.922 1260.85 115.727 C 1262.13 120.615 1261.61 132.017 1261.62 137.739 L 1258.62 137.728 C 1255.73 133.44 1257.17 120.119 1257.46 114.238 z"/>
</svg>