<!-- RECRAFT VECTORIZE from logo/options-w3/mock/C3-wide-heavy-navbar-dark.png -->
<svg version="1.1" xmlns="http://www.w3.org/2000/svg" style="display: block;" viewBox="0 0 4096 256" width="4096" height="256" preserveAspectRatio="none">
<path transform="translate(0,0)" fill="rgb(11,16,32)" d="M 0 0 L 4096 0 L 4096 256 L 0 256 L 0 0 z"/>
<path transform="translate(0,0)" fill="rgb(66,55,202)" d="M 3680.9 61.8564 C 3683.62 59.9053 3850.49 60.742 3867.69 60.7461 L 3927.44 60.7381 C 3936.42 60.7383 3952.44 60.2887 3960.98 61.3648 C 3965.1 66.3829 3963.97 61.5095 3968.79 66.4601 C 3972.78 70.5586 3976.43 74.4147 3979.89 79.0568 C 3981.95 81.8272 3980.54 83.4573 3983.46 85.0567 C 3984.52 101.225 3983.65 120.076 3983.96 136.454 C 3984.06 141.713 3984.11 163.594 3983.35 167.877 C 3979.2 171.354 3981.28 173.159 3980.36 173.999 C 3975.82 178.121 3967.92 188.526 3962.16 189.692 L 3960.85 191.491 C 3940.9 192.706 3684.51 192.515 3681.02 191.021 C 3680.79 190.693 3680.07 189.854 3679.67 189.729 C 3672.33 187.421 3665.81 179.187 3661.04 173.328 C 3660.06 172.13 3662.26 171.256 3658.42 167.922 C 3657.12 161.121 3656.93 88.2443 3658.93 84.9498 C 3661.45 82.9715 3659.9 79.1996 3664.11 75.489 C 3668.42 71.6869 3672.56 65.1345 3678.5 63.6465 C 3678.76 63.5825 3680.51 62.176 3680.9 61.8564 z"/>
<path transform="translate(0,0)" fill="rgb(243,243,250)" d="M 3903.59 133.859 C 3898.63 138.921 3891.58 141.066 3886.63 135.476 C 3875.69 123.131 3893.01 101.381 3905.08 122.907 C 3909.28 121.654 3907.14 117.331 3912.42 114.211 C 3915.4 114.078 3917.54 114.029 3920.54 114.181 C 3922.69 111.223 3920.46 106.474 3923.06 103.887 C 3925.51 104.423 3924.73 104.001 3926.5 105.832 C 3926.64 112.119 3927.14 131.352 3925.96 136.713 L 3924.71 137.907 L 3921.26 137.031 L 3920.52 138.188 C 3909.15 142.767 3910.71 136.193 3903.59 133.859 z"/>
<path transform="translate(0,0)" fill="rgb(58,46,199)" d="M 3905.71 127.426 C 3907.89 137.437 3910.68 139.05 3920.52 138.188 C 3909.15 142.767 3910.71 136.193 3903.59 133.859 L 3901.89 132.27 C 3896.77 132.875 3895.93 135.24 3891.47 133.955 C 3888.85 131.679 3889.36 132.687 3888.54 129.653 C 3890.89 127.665 3900.8 128.178 3905.71 127.426 z"/>
<path transform="translate(0,0)" fill="rgb(58,46,199)" d="M 3912.46 118.436 C 3914.08 118.357 3915.78 118.706 3917.4 118.964 C 3923.53 123.843 3921.48 128.061 3918.76 134.462 L 3914.44 133.926 C 3908.51 129.569 3910.22 124.714 3912.46 118.436 z"/>
<path transform="translate(0,0)" fill="rgb(243,243,250)" d="M 3727.74 120.386 C 3730.88 120.495 3737.09 120.148 3739.31 122.619 C 3742.52 126.194 3742.08 130.149 3738.73 133.544 C 3735.36 136.912 3730.79 138.808 3726.02 138.818 C 3716.72 138.811 3710.43 129.953 3710.48 121.276 C 3710.5 116.443 3712.46 111.821 3715.93 108.45 C 3723.99 100.584 3738.68 102.882 3738.45 113.239 L 3735.84 115.035 C 3739.04 118.435 3743.61 115.631 3745.08 119.498 C 3743.73 123.969 3743.12 125.543 3743.77 130.14 L 3742.98 129.829 C 3742.78 126.393 3742.67 122.952 3742.64 119.51 C 3738.32 119.502 3731.69 119.178 3727.74 120.386 z"/>
<path transform="translate(0,0)" fill="rgb(58,46,199)" d="M 3727.74 120.386 L 3727.29 122.585 C 3729.51 126.335 3734.71 124.117 3736.65 129.036 C 3734.66 132.078 3727.78 135.64 3724.48 134.708 C 3708.31 130.137 3719.3 91.6523 3735.84 115.035 C 3739.04 118.435 3743.61 115.631 3745.08 119.498 C 3743.73 123.969 3743.12 125.543 3743.77 130.14 L 3742.98 129.829 C 3742.78 126.393 3742.67 122.952 3742.64 119.51 C 3738.32 119.502 3731.69 119.178 3727.74 120.386 z"/>
<path transform="translate(0,0)" fill="rgb(243,243,250)" d="M 3853.33 136.105 C 3853.09 136.514 3851.72 137.932 3851.32 138.374 C 3846.76 138.71 3845.33 136.194 3844.97 136.332 C 3840.23 138.108 3827.53 143.111 3828.77 129.837 C 3832.59 122.386 3837.87 126.65 3843.51 123.102 L 3843.72 120.977 L 3841.86 118.841 C 3837.95 117.998 3835.99 119.554 3832.06 121.372 L 3830.57 120.486 L 3830.55 118.245 C 3832.19 116.176 3834.48 114.805 3837.09 114.485 C 3852.19 112.635 3848.72 125.292 3850.25 134.009 L 3853.33 136.105 z"/>
<path transform="translate(0,0)" fill="rgb(243,243,250)" d="M 3752.47 114.309 C 3753.13 114.25 3753.79 114.2 3754.45 114.158 C 3761.34 113.724 3766.57 117.358 3766.97 124.429 C 3763.87 130.272 3753.34 127.89 3750.38 131.071 C 3755.12 135.42 3757.18 134.53 3762.81 132.742 C 3763.79 131.973 3763.53 132.205 3765.05 132.269 L 3765.29 133.779 C 3756.93 148.449 3733.99 129.143 3752.47 114.309 z"/>
<path transform="translate(0,0)" fill="rgb(243,243,250)" d="M 3798.48 114.078 C 3804.55 113.831 3808.28 113.365 3812.05 119.071 L 3810.99 120.015 C 3807.17 119.796 3803.36 119.49 3799.56 119.097 L 3798.79 120.454 C 3803.58 126.24 3812.31 124.349 3813.17 132.219 C 3811.61 135.52 3810.54 136.239 3807.75 138.519 C 3802.57 138.699 3795.65 139.386 3793.92 133.016 C 3796.08 131.845 3803.36 133.478 3807.63 133.383 L 3808.31 132.093 C 3805.68 126.109 3796.58 128.549 3793.96 121.306 C 3794.52 117.791 3796.03 116.609 3798.48 114.078 z"/>
<path transform="translate(0,0)" fill="rgb(243,243,250)" d="M 3819.29 107.608 C 3820.95 108.502 3825.69 114.713 3823.95 117.849 C 3818.72 127.261 3822.75 131.919 3827.5 137.945 C 3822.71 138.314 3823.51 138.938 3819.7 136.919 C 3814.63 130.109 3814.86 114.943 3819.29 107.608 z"/>
<path transform="translate(0,0)" fill="rgb(243,243,250)" d="M 3871.56 114.289 C 3872.56 110.391 3871.88 110.883 3874.55 108.152 C 3876.97 110.968 3874.8 112.26 3877.67 113.711 C 3878.5 114.124 3879.52 114.992 3880.24 115.607 C 3877.73 123.292 3874.41 120.832 3876.11 132.493 L 3880.71 135.989 L 3880.4 137.514 C 3877.39 138.775 3878.49 138.729 3875.48 137.998 C 3868.38 130.912 3875.44 123.264 3867.82 115.059 L 3871.56 114.289 z"/>
<path transform="translate(0,0)" fill="rgb(243,243,250)" d="M 3774.37 107.677 L 3776.11 108.975 C 3776.71 115.545 3784.12 111.862 3776.64 123.514 C 3774.39 127.008 3779.44 133.647 3782.51 137.36 C 3780.03 138.338 3779.11 138.22 3776.43 138.098 C 3768.25 133.157 3776.13 124.751 3770.42 117.103 C 3770.57 114.738 3772.96 111.683 3774.37 107.677 z"/>
<path transform="translate(0,0)" fill="rgb(243,243,250)" d="M 3860.16 115.831 C 3863.03 114.472 3863.69 114.399 3866.84 114.712 C 3864.83 119.725 3857.27 122.325 3859.15 133.293 C 3859.38 134.643 3859.26 136.562 3858.23 137.536 C 3855.27 133.248 3853.29 118.319 3857.45 114.9 L 3860.16 115.831 z"/>
<path transform="translate(0,0)" fill="rgb(58,46,199)" d="M 3860.16 115.831 C 3859 110.75 3857.95 114.465 3855.53 111.181 C 3859.56 109.951 3866.41 108.39 3870.39 110.322 L 3871.56 114.289 L 3867.82 115.059 L 3866.84 114.712 C 3863.69 114.399 3863.03 114.472 3860.16 115.831 z"/>
<path transform="translate(0,0)" fill="rgb(58,46,199)" d="M 3909.07 140.426 C 3913.37 139.871 3922.05 139.766 3926.24 140.662 L 3927.48 142.596 C 3921.98 142.461 3912.23 144.718 3909.07 140.426 z"/>
<path transform="translate(0,0)" fill="rgb(58,46,199)" d="M 3850.25 134.009 C 3852.5 126.739 3851.03 123.317 3853.17 116.957 C 3854.13 121.707 3854.17 131.35 3853.33 136.105 L 3850.25 134.009 z"/>
<path transform="translate(0,0)" fill="rgb(58,46,199)" d="M 3718.32 140.526 C 3723.38 139.803 3732.05 138.702 3735.61 142.439 C 3732.76 142.624 3729.91 142.769 3727.05 142.874 C 3722.94 142.992 3721.03 143.09 3718.32 140.526 z"/>
<path transform="translate(0,0)" fill="rgb(58,46,199)" d="M 3795.58 140.464 C 3800.27 140.092 3807.87 138.379 3810.52 142.495 C 3806.05 142.784 3798.01 144.306 3795.58 140.464 z"/>
<path transform="translate(0,0)" fill="rgb(58,46,199)" d="M 3768.67 118.447 L 3770.62 120.165 C 3771.09 123.407 3771.47 131.44 3769.56 134.082 L 3768.92 133.468 C 3768.44 129.36 3768.55 122.688 3768.67 118.447 z"/>
<path transform="translate(0,0)" fill="rgb(58,46,199)" d="M 3750.15 140.423 C 3754.67 140.007 3760.98 138.462 3763.53 142.517 C 3758.84 142.904 3753.17 144.23 3750.15 140.423 z"/>
<path transform="translate(0,0)" fill="rgb(58,46,199)" d="M 3749.39 110.529 C 3753.76 109.968 3760.5 108.868 3764.19 111.68 C 3759.54 113.306 3753.31 113.705 3749.39 110.529 z"/>
<path transform="translate(0,0)" fill="rgb(58,46,199)" d="M 3887.57 140.453 C 3890.9 140.113 3897.12 139.479 3900.03 140.727 L 3900.43 142.476 C 3895.64 142.897 3893.43 143.215 3888.74 142.301 L 3887.57 140.453 z"/>
<path transform="translate(0,0)" fill="rgb(58,46,199)" d="M 3830.84 140.419 C 3835.22 139.957 3840.04 138.533 3842.53 142.516 C 3837.74 142.946 3834.23 144.051 3830.84 140.419 z"/>
<path transform="translate(0,0)" fill="rgb(58,46,199)" d="M 3817.84 140.441 C 3821.19 139.983 3823.02 139.545 3826.3 140.515 L 3827.09 142.602 C 3823.78 142.911 3821.98 143.238 3818.75 142.319 L 3817.84 140.441 z"/>
<path transform="translate(0,0)" fill="rgb(72,76,89)" d="M 134.139 82.8189 C 148.303 81.7157 173.13 82.544 188.009 82.6096 C 188.12 88.7536 188.343 94.895 188.677 101.031 C 184.495 102.02 180.526 101.701 177.851 103.827 C 177.068 105.815 178.255 116.558 178.14 120.19 C 180.489 120.293 186.671 120.425 188.625 120.957 C 188.096 125.357 188.15 134.755 188.055 139.55 C 174.215 139.937 147.722 140.378 134.237 139.312 C 133.423 122.391 134.113 100.14 134.139 82.8189 z"/>
<path transform="translate(0,0)" fill="rgb(243,243,250)" d="M 137.021 84.2997 C 153.412 84.4816 169.803 84.4738 186.193 84.2763 C 185.902 89.3085 185.979 95.1112 185.925 100.208 C 179.146 99.9332 153.969 97.71 150.353 101.8 C 150.773 102.775 151.108 104.085 152.033 104.236 C 157.957 105.209 170.207 104.638 176.063 104.553 C 176.004 108.931 176.126 113.415 176.197 117.801 L 152.839 117.74 C 150.833 118.505 151.454 118.125 150.145 119.879 L 151.237 121.431 C 157.578 123.494 178.176 122.338 185.979 122.033 C 185.994 127.343 186.089 132.652 186.263 137.959 C 169.606 137.759 152.947 137.772 136.29 137.996 C 136.327 130.118 135.567 88.8887 137.021 84.2997 z"/>
<path transform="translate(0,0)" fill="rgb(243,243,250)" d="M 194.506 98.9189 C 197.559 98.8903 203.396 98.8329 206.288 99.796 C 208.532 100.543 207.726 101.363 211.435 102.029 L 215.568 99.641 C 228.808 98.1449 237.401 102.976 241.246 116.186 L 241.159 124.937 C 236.805 141.671 223.72 141.941 209.752 139.39 L 208.807 140.244 C 208.162 146.095 208.589 154.267 208.74 160.366 C 204.139 160.097 199.164 160.317 194.529 160.427 L 194.506 98.9189 z"/>
<path transform="translate(0,0)" fill="rgb(4,7,20)" d="M 218.17 111.727 C 221.348 110.561 224.911 111.25 227.426 113.517 C 229.941 115.784 230.994 119.257 230.162 122.539 C 229.33 125.821 226.75 128.373 223.459 129.169 C 218.756 130.307 213.983 127.576 212.578 122.946 C 211.174 118.316 213.627 113.394 218.17 111.727 z"/>
<path transform="translate(0,0)" fill="rgb(243,243,250)" d="M 375.791 120.161 C 379.063 112.56 378.014 101.124 387.15 98.2167 C 390.701 98.7674 392.554 98.7905 395.079 101.397 L 391.022 107.243 C 387.27 114.501 378.598 132.096 374.463 138.398 C 370.345 138.449 364.069 138.889 360.394 137.518 L 358.444 135.015 C 357.251 135.387 356.341 137.664 355.112 139.358 L 353.89 139.126 L 352.781 134.351 C 350.108 140.128 340.13 138.426 334.676 138.27 C 331.284 125.842 327.619 110.993 323.348 99.0606 L 340.127 99.0307 C 341.777 111.089 341.556 122.893 343.271 135.208 C 345.314 129.607 345.874 126.714 346.965 120.967 L 347.042 120.312 C 348.651 117.029 352.027 103.05 352.943 99.2405 C 357.546 98.9556 364.983 99.1597 369.796 99.1438 C 371.002 110.85 370.373 122.397 371.878 134.811 C 374.083 128.747 374.788 126.64 375.791 120.161 z"/>
<path transform="translate(0,0)" fill="rgb(4,7,20)" d="M 352.781 134.351 C 354.485 130.559 356.241 125.591 359.479 123.172 L 361.147 123.192 C 362.083 126.344 359.93 132.18 358.444 135.015 C 357.251 135.387 356.341 137.664 355.112 139.358 L 353.89 139.126 L 352.781 134.351 z"/>
<path transform="translate(0,0)" fill="rgb(243,243,250)" d="M 289.063 96.1699 C 301.469 93.6639 313.568 101.654 316.135 114.048 C 318.701 126.442 310.77 138.58 298.389 141.207 C 285.922 143.852 273.682 135.854 271.097 123.374 C 268.513 110.895 276.571 98.6933 289.063 96.1699 z"/>
<path transform="translate(0,0)" fill="rgb(4,7,20)" d="M 290.781 107.744 C 294.818 106.721 299.09 107.984 301.923 111.036 C 304.755 114.088 305.696 118.443 304.376 122.392 C 303.055 126.341 299.685 129.254 295.586 129.989 C 289.55 131.072 283.742 127.179 282.447 121.186 C 281.152 115.192 284.837 109.249 290.781 107.744 z"/>
<path transform="translate(0,0)" fill="rgb(129,142,163)" d="M 1523.25 103.284 L 1536.89 104.338 C 1549.34 112.491 1551.06 124.457 1541.03 135.635 C 1534.42 139.908 1527.9 138.614 1519.95 138.248 C 1519.78 128.907 1519.53 119.195 1519.88 109.866 C 1520.03 105.732 1520.64 105.529 1523.25 103.284 z"/>
<path transform="translate(0,0)" fill="rgb(4,7,20)" d="M 1540.87 128.315 C 1538.45 132.526 1534.55 134.889 1529.82 134.813 C 1522.72 129.626 1521.7 111.886 1530.32 108.272 C 1534.36 108.543 1535.26 108.682 1538.51 111.086 C 1543.4 115.728 1542.94 122.315 1540.87 128.315 z"/>
<path transform="translate(0,0)" fill="rgb(4,7,20)" d="M 1597.92 121.834 C 1602.16 112.116 1613.86 109.529 1617.29 119.645 L 1616.46 120.708 C 1611.36 120.152 1607.96 117.957 1604.52 118.911 C 1603.03 126.669 1614.89 120.992 1617.76 131.531 C 1614.41 140.871 1602.14 141.213 1598.43 132.974 C 1598.21 132.483 1598.01 131.984 1597.83 131.476 L 1596.2 131.519 C 1594.6 134.951 1590.04 139.83 1586.13 139.055 C 1572.27 136.312 1571.74 109.631 1590.04 114.791 C 1592.49 115.48 1592.79 116.447 1594.42 118.392 L 1594.16 121.11 L 1597.92 121.834 z"/>
<path transform="translate(0,0)" fill="rgb(129,142,163)" d="M 1597.92 121.834 C 1602.16 112.116 1613.86 109.529 1617.29 119.645 L 1616.46 120.708 C 1611.36 120.152 1607.96 117.957 1604.52 118.911 C 1603.03 126.669 1614.89 120.992 1617.76 131.531 C 1614.41 140.871 1602.14 141.213 1598.43 132.974 C 1598.21 132.483 1598.01 131.984 1597.83 131.476 C 1602.5 130.863 1608.59 136.67 1612.29 132.766 C 1607.74 126.34 1603.63 128.659 1597.92 121.834 z"/>
<path transform="translate(0,0)" fill="rgb(129,142,163)" d="M 1596.2 131.519 C 1594.6 134.951 1590.04 139.83 1586.13 139.055 C 1572.27 136.312 1571.74 109.631 1590.04 114.791 C 1592.49 115.48 1592.79 116.447 1594.42 118.392 L 1594.16 121.11 C 1588.29 119.57 1583.43 116.501 1580.13 124.327 C 1580.95 139.513 1590.65 131.134 1596.2 131.519 z"/>
<path transform="translate(0,0)" fill="rgb(4,7,20)" d="M 3679.79 56.4341 C 3688.79 54.8963 3958.17 55.8271 3961.25 56.6902 L 3961.91 58.5435 C 3946.9 59.2375 3927.64 58.6893 3912.39 58.6935 L 3817.38 58.7087 L 3729.57 58.7066 C 3714.45 58.7037 3695.56 59.2195 3680.67 58.3902 L 3679.79 56.4341 z"/>
<path transform="translate(0,0)" fill="rgb(129,142,163)" d="M 1327.02 137.522 C 1321.08 128.985 1321.2 111.019 1335.93 115.233 C 1341.68 116.878 1339.79 113.416 1343.66 115.787 C 1346.77 126.589 1345.09 161.534 1325.34 144.613 L 1325.02 142.636 L 1327.01 140.519 C 1326.24 140.082 1325.16 139.253 1324.41 138.718 L 1327.02 137.522 z"/>
<path transform="translate(0,0)" fill="rgb(4,7,20)" d="M 1327.02 137.522 C 1335.07 140.146 1334.04 136.162 1338.83 138.223 C 1339.05 140.776 1339.11 139.923 1337.32 142.431 C 1333.49 144.205 1335.02 144.021 1330.91 143.506 C 1329.82 142.707 1327.92 141.383 1327.01 140.519 C 1326.24 140.082 1325.16 139.253 1324.41 138.718 L 1327.02 137.522 z"/>
<path transform="translate(0,0)" fill="rgb(129,142,163)" d="M 727.837 133.731 C 729.458 132.2 730.042 132.058 732.177 131.39 L 733.767 132.465 C 733.115 136.8 730.489 138.597 726.011 138.847 C 720.699 139.143 718.472 134.183 715.033 130.864 L 713.684 131.84 L 713.485 137.657 C 713.121 137.99 712.652 138.418 712.077 138.943 C 711.854 138.814 708.571 136.913 708.571 136.913 C 706.447 137.096 702.915 137.791 700.843 137.789 C 697.389 137.787 697.301 137.504 695.198 135.592 C 693.335 131.662 692.168 117.592 695.638 114.525 L 697.217 115.189 C 699.4 120.081 697.548 126.953 699.196 132.749 C 702.206 134.574 701.261 134.083 704.973 134.227 C 712.413 128.74 705.112 121.539 710.876 114.185 L 712.445 114.256 C 713.466 115.672 713.782 120.052 714.041 122.014 C 715.736 121.732 719.461 114.908 722.457 114.252 C 727.514 113.144 732.425 114.82 733.8 120.047 L 732.575 121.294 C 730.04 120.98 730.852 121.358 729.06 119.24 C 728.13 120.855 727.344 122.564 725.766 123.535 L 724.508 127.013 C 726.118 129.622 727.592 131.011 727.837 133.731 z"/>
<path transform="translate(0,0)" fill="rgb(4,7,20)" d="M 727.837 133.731 C 725.63 134.073 725.215 134.044 723.112 133.296 C 718.945 129.274 718.69 124.368 722.386 119.786 C 726.105 118.141 724.858 118.482 729.06 119.24 C 728.13 120.855 727.344 122.564 725.766 123.535 L 724.508 127.013 C 726.118 129.622 727.592 131.011 727.837 133.731 z"/>
<path transform="translate(0,0)" fill="rgb(243,243,250)" d="M 250.97 99.0676 C 255.162 99.3744 260.182 99.4031 264.45 99.5411 C 264.349 107.587 264.797 131.718 263.658 138.207 C 261.103 138.347 252.33 138.587 251.545 137.527 C 248.064 132.832 249.186 102.941 250.97 99.0676 z"/>
<path transform="translate(0,0)" fill="rgb(129,142,163)" d="M 968.085 117.756 L 966.956 116.419 C 968.454 113.18 969.191 111.526 971.274 108.605 C 976.259 110.085 972.487 115.889 980.32 114.473 C 982.896 110.804 984.531 105.835 987.638 103.572 L 989.699 103.338 C 991.707 105.277 991.668 104.622 991.711 106.899 L 987.54 110.558 L 987.662 112.832 L 991.643 114.906 L 991.869 116.927 C 991.457 117.244 990.751 117.879 990.336 118.093 C 983.227 121.773 990.169 131.068 986.522 137.651 L 984.565 137.947 C 981.046 135.018 982.698 125.528 981.739 120.328 C 979.855 126.488 981.491 131.082 979.614 134.048 L 977.068 135.399 C 977.956 136.103 977.726 136.102 978.101 137.41 C 975.284 138.802 976.269 138.449 972.622 137.927 C 965.834 132.14 971.545 126.201 968.085 117.756 z"/>
<path transform="translate(0,0)" fill="rgb(4,7,20)" d="M 977.068 135.399 C 976.182 134.626 975.213 133.276 974.47 132.317 C 973.255 126.256 972.703 124.339 975.97 118.929 C 978.974 117.6 977.817 117.73 981.086 118.462 L 981.739 120.328 C 979.855 126.488 981.491 131.082 979.614 134.048 L 977.068 135.399 z"/>
<path transform="translate(0,0)" fill="rgb(129,142,163)" d="M 685.133 103.694 C 686.372 104.237 686.828 105.032 687.623 106.101 C 689.203 119.345 693.822 145.749 670.977 137.259 C 661.563 126.658 667.095 112.825 681.956 114.858 C 683.983 115.135 681.824 107.219 685.133 103.694 z"/>
<path transform="translate(0,0)" fill="rgb(4,7,20)" d="M 675.674 117.543 L 679.515 118.645 C 685.562 124.022 683.16 129.11 679.697 135.168 C 669.628 132.887 670.008 123.993 675.674 117.543 z"/>
<path transform="translate(0,0)" fill="rgb(129,142,163)" d="M 598.538 104.276 C 608.088 103.741 620.152 101.069 623.018 112.875 L 622.183 116.723 C 615.417 123.009 612.991 121.851 603.502 121.819 C 603.646 126.658 605.398 137.046 600.226 138.343 L 598.662 136.947 C 597.581 131.421 598.409 110.77 598.538 104.276 z"/>
<path transform="translate(0,0)" fill="rgb(4,7,20)" d="M 604.421 108.221 C 605.779 108.194 607.138 108.179 608.497 108.178 C 612.712 108.174 614.328 108.044 617.15 110.861 C 617.846 113.497 616.954 114.875 615.811 117.284 C 611.007 117.48 605.958 118.565 602.932 114.387 C 603.012 111.454 603.059 110.803 604.421 108.221 z"/>
<path transform="translate(0,0)" fill="rgb(129,142,163)" d="M 1213.57 104.196 L 1214.87 104.13 C 1223 103.73 1236.8 102.791 1237.32 114.33 C 1233.42 122.584 1225.32 121.913 1217.6 121.859 C 1217.7 125.505 1218.75 136.034 1214.72 137.27 C 1212.15 131.384 1211.7 110.004 1213.57 104.196 z"/>
<path transform="translate(0,0)" fill="rgb(129,142,163)" d="M 906.048 104.253 C 909.408 104.102 912.77 103.983 916.132 103.896 C 922.368 103.795 931.088 106.552 931.181 114.043 C 928.336 122.83 912.968 120.721 910.443 123.314 C 910.599 127.586 911.391 135.272 908.174 138.246 C 904.24 134.548 905.235 109.742 906.048 104.253 z"/>
<path transform="translate(0,0)" fill="rgb(4,7,20)" d="M 911.424 108.162 C 915.805 108.116 920.912 107.467 924.069 110.459 C 924.81 114.454 924.671 113.268 923.281 117.261 C 918.465 117.497 913.64 118.593 910.272 114.776 C 910.09 111.672 910.251 111.053 911.424 108.162 z"/>
<path transform="translate(0,0)" fill="rgb(4,7,20)" d="M 1284.74 117.163 L 1285.4 114.378 L 1286.73 114.174 C 1288.24 118.84 1287.8 126.088 1287.38 130.979 L 1285.99 131.427 C 1284.7 134.888 1280.99 137.676 1277.82 139.348 C 1260.16 139.92 1263.23 100.877 1284.74 117.163 z"/>
<path transform="translate(0,0)" fill="rgb(129,142,163)" d="M 1285.99 131.427 C 1284.7 134.888 1280.99 137.676 1277.82 139.348 C 1260.16 139.92 1263.23 100.877 1284.74 117.163 L 1285.33 120.239 L 1283.66 121.431 C 1280.17 120.265 1276.1 118.415 1272.77 119.747 C 1269.64 122.835 1269.7 129.86 1272.57 133.096 C 1278.42 135.343 1280.23 130.446 1285.99 131.427 z"/>
<path transform="translate(0,0)" fill="rgb(129,142,163)" d="M 1000.44 114.106 C 1001.9 114.036 1003.43 113.99 1004.89 114.058 C 1007.84 114.217 1010.61 115.539 1012.59 117.735 C 1019.14 124.991 1014.62 133.141 1008.51 138.56 C 1003.54 138.728 999.862 138.613 996.338 134.594 C 994.275 132.243 993.258 129.153 993.522 126.036 C 993.979 119.984 996.098 117.851 1000.44 114.106 z"/>
<path transform="translate(0,0)" fill="rgb(4,7,20)" d="M 1002.77 117.473 C 1013.14 119.882 1011.95 127.57 1007.08 134.507 C 1003.95 134.448 1003.25 134.402 1000.67 132.663 C 996.45 127.15 998.395 122.035 1002.77 117.473 z"/>
<path transform="translate(0,0)" fill="rgb(129,142,163)" d="M 1557.09 114.232 C 1574.27 113.137 1576.88 128.214 1565.61 138.376 C 1548.56 139.588 1545.63 124.109 1557.09 114.232 z"/>
<path transform="translate(0,0)" fill="rgb(4,7,20)" d="M 1559.75 117.4 C 1570.7 120.084 1568.58 128.957 1562.54 135.522 C 1552.89 131.839 1553.23 123.851 1559.75 117.4 z"/>
<path transform="translate(0,0)" fill="rgb(129,142,163)" d="M 648.493 114.086 C 649.941 114.025 651.449 113.987 652.896 114.061 C 655.844 114.217 658.607 115.547 660.568 117.754 C 666.991 124.967 662.551 133.137 656.527 138.547 C 639.85 139.321 636.706 124.037 648.493 114.086 z"/>
<path transform="translate(0,0)" fill="rgb(4,7,20)" d="M 650.766 117.474 C 661.081 119.853 659.977 127.546 655.127 134.472 C 651.999 134.447 651.268 134.419 648.662 132.665 C 644.439 127.16 646.391 122.028 650.766 117.474 z"/>
<path transform="translate(0,0)" fill="rgb(4,7,20)" d="M 188.677 101.031 C 189.824 95.8651 188.728 87.222 190.533 83.6266 C 194.896 87.6996 192.08 98.1738 191.502 103.99 C 190.576 113.289 194.212 154.061 189.819 160.314 C 186.399 156.479 190.979 129.682 188.625 120.957 C 186.671 120.425 180.489 120.293 178.14 120.19 C 178.255 116.558 177.068 105.815 177.851 103.827 C 180.526 101.701 184.495 102.02 188.677 101.031 z"/>
<path transform="translate(0,0)" fill="rgb(129,142,163)" d="M 1042.5 114.518 C 1045.23 113.777 1046.81 114.418 1048.46 115.84 C 1050.74 117.793 1056.07 115.388 1059.63 114.341 C 1067.61 116.25 1066.94 135.167 1063.31 138.07 L 1061.88 137.671 C 1058.78 132.144 1062.53 121.845 1057.13 118.167 C 1050.3 118.499 1051.4 126.738 1051.57 131.983 L 1051.49 135.571 C 1049.81 137.76 1050.61 137.2 1047.86 137.938 C 1044.2 133.448 1049.79 123.961 1043.7 117.965 C 1032.48 119.337 1041.11 132.665 1036 138.069 L 1034.05 137.901 C 1032.17 134.851 1033.1 123.353 1032.91 119.238 C 1032.67 113.866 1037.47 117.515 1042.5 114.518 z"/>
<path transform="translate(0,0)" fill="rgb(129,142,163)" d="M 947.437 114.553 C 949.804 114.189 957.696 113.522 959.235 115.161 C 961.975 118.077 966.064 135.735 964.112 138.405 C 960.072 139.206 958.536 134.964 957.467 135.502 C 952.698 137.901 952.013 139.086 946.032 138.487 C 945.906 138.352 945.785 138.214 945.668 138.072 C 943.835 135.883 942.212 132.719 942.488 129.784 C 946.134 123.716 950.35 125.962 957.31 122.9 L 957.323 120.311 C 952.759 116.042 947.751 122.434 943.37 120.746 C 943.841 117.368 944.698 117.446 947.437 114.553 z"/>
<path transform="translate(0,0)" fill="rgb(129,142,163)" d="M 1308.61 114.437 L 1312.1 114.244 C 1320.32 117.094 1320.46 134.167 1316.69 137.655 C 1311.13 133.61 1318.06 125.127 1309.23 116.965 C 1308.92 117.079 1308.61 117.206 1308.31 117.346 C 1301.45 120.615 1304.29 129.778 1301.34 137.822 L 1300.28 137.799 C 1300.07 137.272 1299.88 136.735 1299.71 136.19 C 1298.59 132.458 1297.95 118.607 1299.8 115.198 C 1301.95 115.372 1303.53 116.018 1305.54 116.724 L 1308.61 114.437 z"/>
<path transform="translate(0,0)" fill="rgb(4,7,20)" d="M 3653.4 83.656 C 3653.76 83.7848 3654.16 83.9518 3654.42 84.2389 C 3657.49 87.6162 3655.73 159.999 3655.56 168.922 L 3654.05 168.618 C 3652.53 165.926 3653.21 92.0631 3653.4 83.656 z"/>
<path transform="translate(0,0)" fill="rgb(4,7,20)" d="M 241.246 116.186 L 241.394 108.966 L 242.336 108.129 L 245.569 110.979 L 246.18 110.1 C 245.646 107.149 244.303 101.746 245.219 99.1579 L 246.559 98.5674 C 248.451 101.419 247.493 131.685 247.446 137.575 L 246.461 138.641 C 244.592 135.639 245.144 135.219 244.933 131.339 L 242.111 131.583 C 240.802 129.968 241.142 127.106 241.159 124.937 L 241.246 116.186 z"/>
<path transform="translate(0,0)" fill="rgb(129,142,163)" d="M 740.404 108.398 C 740.672 108.442 741.184 108.567 741.407 108.741 C 754.123 118.665 733.044 126.626 748.946 135.974 C 747.799 137.628 745.882 138.135 744 138.836 C 735.407 136.669 741.922 122.693 737.625 117.875 C 735.889 115.929 739.004 113.419 740.404 108.398 z"/>
<path transform="translate(0,0)" fill="rgb(129,142,163)" d="M 935.104 103.66 C 935.704 104.003 936.922 104.586 937.146 105.079 C 939.469 110.189 938.506 133.882 937.63 138.816 C 936.389 138.176 934.713 137.643 934.495 136.385 C 933.456 130.398 933.136 108.606 935.104 103.66 z"/>
<path transform="translate(0,0)" fill="rgb(129,142,163)" d="M 1250.17 114.813 C 1251.26 114.551 1251.09 114.758 1252.37 115.531 L 1252.07 116.871 C 1250.22 118.069 1249.48 118.538 1247.42 119.329 C 1243.36 125.97 1249.04 133.564 1242.38 139.194 C 1240.42 135.092 1240.92 120.987 1241.76 116.215 C 1244.32 113.386 1244.16 117.483 1250.17 114.813 z"/>
<path transform="translate(0,0)" fill="rgb(129,142,163)" d="M 1029.1 114.947 L 1030.51 114.938 L 1031.21 116.361 C 1019.27 123.785 1030.14 134.339 1020.89 138.772 C 1020 134.626 1020.22 119.863 1021.09 115.612 L 1022.43 114.835 L 1026.06 116.363 L 1029.1 114.947 z"/>
<path transform="translate(0,0)" fill="rgb(129,142,163)" d="M 627.271 114.996 C 631.412 116.071 635.009 115.384 636.172 116.39 C 626.71 129.683 633.453 133.242 629.361 138.071 L 628.019 137.384 C 625.877 130.287 627.378 123.073 626.768 116.055 L 627.271 114.996 z"/>
<path transform="translate(0,0)" fill="rgb(129,142,163)" d="M 1290.08 113.777 C 1291.67 114.201 1292.16 114.991 1293.2 116.227 C 1294.2 122.819 1293.82 132.108 1293.09 138.787 C 1290.47 137.913 1291.26 138.47 1289.54 136.34 C 1288.72 130.442 1288.37 119.426 1290.08 113.777 z"/>
<path transform="translate(0,0)" fill="rgb(129,142,163)" d="M 1257.47 114.236 C 1259 114.487 1259.57 114.923 1260.85 115.723 C 1262.13 120.602 1261.62 132.018 1261.64 137.74 L 1258.62 137.737 C 1255.59 134.492 1257.2 119.249 1257.47 114.236 z"/>
<path transform="translate(0,0)" fill="rgb(4,7,20)" d="M 267.224 100.672 C 271.551 104.711 270.973 129.628 268.679 134.76 L 268.386 135.548 L 267.417 134.584 C 266.734 123.443 267.075 111.86 267.224 100.672 z"/>
<path transform="translate(0,0)" fill="rgb(4,7,20)" d="M 1208.46 103.625 L 1209.49 104.172 C 1212.15 108.362 1210.87 132.568 1210.57 138.884 L 1209.61 138.387 C 1207.25 134.539 1208.39 109.746 1208.46 103.625 z"/>
<path transform="translate(0,0)" fill="rgb(4,7,20)" d="M 211.435 102.029 C 207.502 94.5546 221.881 90.347 228.219 95.5403 L 227.86 96.7105 C 222.189 96.2349 218.954 94.8666 215.568 99.641 L 211.435 102.029 z"/>
<path transform="translate(0,0)" fill="rgb(4,7,20)" d="M 623.018 112.875 L 627.271 114.996 L 626.768 116.055 C 623.519 119.697 626.2 130.187 624.021 136.919 C 622.309 131.108 622.393 122.922 622.183 116.723 L 623.018 112.875 z"/>
<path transform="translate(0,0)" fill="rgb(4,7,20)" d="M 395.079 101.397 C 399.437 100.463 397.426 97.5536 400.216 99.0096 C 400.222 100.376 394.093 112.772 392.63 113.68 C 390.883 111.369 391.33 110.474 391.022 107.243 L 395.079 101.397 z"/>
<path transform="translate(0,0)" fill="rgb(4,7,20)" d="M 372.809 100.177 C 377.871 102.783 375.255 114.691 375.791 120.161 L 373.707 119.428 C 372.426 115.348 372.8 104.937 372.809 100.177 z"/>
<path transform="translate(0,0)" fill="rgb(4,7,20)" d="M 346.965 120.967 C 345.108 120.635 345.747 120.97 344.418 119.478 C 343.692 114.261 342.978 109.002 345.284 104.126 L 346.305 104.331 C 348.027 109.486 346.236 113.484 347.042 120.312 L 346.965 120.967 z"/>
<path transform="translate(0,0)" fill="rgb(4,7,20)" d="M 353.623 93.4289 C 357.351 93.3767 367.579 92.7012 370.196 94.8117 L 369.6 96.1782 C 365.731 96.2568 355.59 97.0099 352.744 95.3386 L 353.623 93.4289 z"/>
<path transform="translate(0,0)" fill="rgb(4,7,20)" d="M 695.332 140.489 C 699.336 139.854 708.799 139.908 712.736 140.564 L 713.51 142.5 C 706.951 142.851 699.975 144.356 695.332 140.489 z"/>
<path transform="translate(0,0)" fill="rgb(4,7,20)" d="M 324.079 93.4699 C 327.861 93.4201 336.808 92.7032 339.592 94.3753 L 339.679 96.1377 C 335.403 96.2046 327.145 96.9524 323.796 95.3856 L 324.079 93.4699 z"/>
<path transform="translate(0,0)" fill="rgb(4,7,20)" d="M 284.46 90.543 C 290.222 90.0007 298.459 88.2503 302.845 92.5766 C 296.78 92.8461 288.711 94.1401 284.46 90.543 z"/>
<path transform="translate(0,0)" fill="rgb(4,7,20)" d="M 193.644 163.423 C 198.136 163.143 204.067 162.456 208.292 163.598 L 209.411 165.568 C 204.207 165.944 196.866 167.685 193.644 163.423 z"/>
<path transform="translate(0,0)" fill="rgb(4,7,20)" d="M 968.085 117.756 C 967.569 122.66 968.412 128.55 967.219 133.029 L 965.593 132.494 C 963.875 128.704 964.469 120.905 968.085 117.756 z"/>
<path transform="translate(0,0)" fill="rgb(4,7,20)" d="M 382.647 93.48 C 386.024 93.4383 392.579 92.7121 395.021 94.6002 L 394.007 96.199 C 390.904 96.2231 384.029 96.9535 381.669 95.3452 L 382.647 93.48 z"/>
<path transform="translate(0,0)" fill="rgb(4,7,20)" d="M 604.317 123.427 C 610.015 123.038 615.45 121.922 619.601 125.433 C 613.734 126.048 608.665 127.676 604.317 123.427 z"/>
<path transform="translate(0,0)" fill="rgb(4,7,20)" d="M 911.337 123.45 C 917.065 123.035 922.446 121.899 926.604 125.458 C 920.714 126.019 915.791 127.625 911.337 123.45 z"/>
<path transform="translate(0,0)" fill="rgb(4,7,20)" d="M 1218.37 123.49 C 1223.42 123.1 1229.89 121.82 1233.6 125.458 L 1232.56 125.56 C 1226.23 126.172 1223 127.305 1218.37 123.49 z"/>
<path transform="translate(0,0)" fill="rgb(4,7,20)" d="M 1554.63 140.443 C 1558.46 140.135 1563.09 139.479 1566.7 140.565 L 1567.44 142.512 C 1563.25 142.864 1559.86 143.352 1555.74 142.318 L 1554.63 140.443 z"/>
<path transform="translate(0,0)" fill="rgb(4,7,20)" d="M 645.668 140.451 C 649.531 140.134 654.114 139.482 657.767 140.55 L 658.55 142.541 C 654.376 142.859 650.842 143.329 646.74 142.304 L 645.668 140.451 z"/>
<path transform="translate(0,0)" fill="rgb(4,7,20)" d="M 997.993 140.435 C 1001.5 140.193 1007 139.448 1010.07 140.714 L 1010.47 142.496 C 1005.74 142.937 1001.13 144.205 997.993 140.435 z"/>
<path transform="translate(0,0)" fill="rgb(4,7,20)" d="M 1269.68 140.443 C 1274.19 140.001 1280.05 138.436 1282.54 142.528 C 1278.36 142.873 1274.84 143.373 1270.74 142.311 L 1269.68 140.443 z"/>
<path transform="translate(0,0)" fill="rgb(4,7,20)" d="M 719.124 140.486 C 724.124 139.985 728.98 138.637 732.602 142.437 C 726.774 143.019 723.508 143.884 719.124 140.486 z"/>
<path transform="translate(0,0)" fill="rgb(4,7,20)" d="M 1580.07 140.482 C 1584.99 139.935 1589.16 138.714 1592.66 142.472 C 1586.93 143.028 1584.38 143.8 1580.07 140.482 z"/>
</svg>