<!-- RECRAFT VECTORIZE from logo/options-w3/mock/C3-wide-heavy-navbar-light.png -->
<svg version="1.1" xmlns="http://www.w3.org/2000/svg" style="display: block;" viewBox="0 0 4096 256" width="4096" height="256" preserveAspectRatio="none">
<path transform="translate(0,0)" fill="rgb(255,255,255)" d="M 0 0 L 4096 0 L 4096 256 L 0 256 L 0 0 z"/>
<path transform="translate(0,0)" fill="rgb(63,51,200)" d="M 3680.91 61.8707 C 3683.64 59.9128 3850.67 60.755 3867.87 60.7589 L 3927.35 60.7505 C 3936.24 60.7501 3952.56 60.2973 3960.96 61.4034 C 3962.27 63.0232 3979.25 74.4001 3980.39 77.9287 C 3984.19 89.6866 3985.06 104.136 3984.04 117.033 C 3981.97 143.272 3993.02 170.519 3966.74 187.478 C 3963.82 189.364 3962.82 188.848 3960.83 191.417 C 3945.95 193.17 3682.81 191.779 3681.03 191.003 C 3680.8 190.672 3680.09 189.854 3679.7 189.73 C 3672.45 187.475 3665.64 179.237 3661.06 173.335 C 3660.04 172.018 3662.38 171.293 3658.44 167.895 C 3657.13 161.198 3656.95 88.2993 3658.92 84.9382 C 3661.97 82.6275 3658.92 80.67 3664.19 75.3583 C 3667.52 71.6243 3671.59 67.631 3675.58 64.6197 C 3676.71 63.7627 3678.42 63.8554 3680.91 61.8707 z"/>
<path transform="translate(0,0)" fill="rgb(51,39,197)" d="M 3680.91 61.8707 C 3683.64 59.9128 3850.67 60.755 3867.87 60.7589 L 3927.35 60.7505 C 3936.24 60.7501 3952.56 60.2973 3960.96 61.4034 L 3959.7 64.2129 C 3957.45 64.963 3696.96 66.3574 3682.08 64.5615 C 3681.39 63.5058 3681.04 63.1159 3680.91 61.8707 z"/>
<path transform="translate(0,0)" fill="rgb(51,39,197)" d="M 3681.03 191.003 L 3681.74 188.317 C 3682.84 187.893 3957.22 187.237 3959.69 188.189 L 3960.83 191.417 C 3945.95 193.17 3682.81 191.779 3681.03 191.003 z"/>
<path transform="translate(0,0)" fill="rgb(51,39,197)" d="M 3658.44 167.895 C 3657.13 161.198 3656.95 88.2993 3658.92 84.9382 L 3661.24 86.3419 C 3662.49 92.8508 3662.23 155.589 3660.88 166.695 C 3660.85 166.928 3658.99 167.655 3658.44 167.895 z"/>
<path transform="translate(0,0)" fill="rgb(255,255,255)" d="M 3922.95 103.659 L 3925.41 104.834 C 3927.52 108.23 3926.97 131.314 3926.13 136.048 C 3923.46 138.368 3920.49 135.893 3919.53 136.472 C 3912.39 140.747 3907.98 138.5 3905.53 127.605 C 3901.21 128.217 3890.41 128.191 3888.39 129.591 C 3889.22 132.215 3889.62 131.945 3891.94 133.876 C 3896.65 134.667 3896.5 132.897 3901.93 131.975 L 3903.16 133.011 L 3902.75 135.872 C 3888.99 145.023 3875.46 128.097 3887.25 116.4 C 3895.47 108.248 3900.03 117.477 3905.44 122.924 C 3909.81 113.789 3910.48 113.697 3920.32 114.604 C 3923.65 111.878 3919.83 110.524 3922.95 103.659 z"/>
<path transform="translate(0,0)" fill="rgb(51,39,197)" d="M 3914.8 117.382 C 3924.68 120.759 3921.77 128.607 3917.85 135.404 C 3915.15 134.594 3914.65 134.298 3912.4 132.614 C 3908.86 126.71 3909.89 122.008 3914.8 117.382 z"/>
<path transform="translate(0,0)" fill="rgb(255,255,255)" d="M 3721.04 104.178 C 3727.38 103.636 3736.99 104.001 3738.48 112.057 C 3734.92 113.361 3726.65 107.02 3721.18 109.216 C 3715.11 111.65 3714.65 122.802 3716.66 127.599 C 3717.7 130.1 3719.71 132.078 3722.22 133.088 C 3727.71 135.293 3738.86 132.778 3735.62 125.643 C 3732.41 125.472 3729.32 125.881 3727.75 122.783 C 3731.32 119.386 3736.14 119.676 3739.86 122.758 C 3742.9 127.413 3740.34 133.854 3736.08 136.11 C 3714.69 147.431 3699.33 119.027 3721.04 104.178 z"/>
<path transform="translate(0,0)" fill="rgb(255,255,255)" d="M 3853.31 136.117 L 3851.97 138.012 C 3845.18 140.012 3847.82 133.615 3840.5 138.064 C 3836.75 140.342 3830.29 137.886 3828.07 132.767 C 3830.28 123.154 3839.95 126.48 3843.42 120.99 L 3841.51 118.822 C 3836.99 118.329 3836.92 119.621 3831.99 121.471 L 3830.44 120.434 L 3830.64 118.371 C 3833.99 114.938 3840.24 111.494 3844.94 114.87 C 3850.07 118.558 3849.32 128.035 3850.25 134.021 L 3853.31 136.117 z"/>
<path transform="translate(0,0)" fill="rgb(255,255,255)" d="M 3752.6 114.078 C 3759.53 113.808 3766.88 116.36 3767.62 124.221 C 3763.27 130.033 3756.2 127.443 3750.57 130.642 C 3755.5 135.395 3756.51 134.714 3762.81 132.712 C 3763.61 132.081 3763.82 132.285 3765.06 132.218 L 3765.32 133.78 C 3756.59 148.062 3733.97 129.553 3752.6 114.078 z"/>
<path transform="translate(0,0)" fill="rgb(255,255,255)" d="M 3798.45 114.052 C 3804.53 113.803 3808.32 113.335 3812.08 119.055 L 3810.98 120.018 C 3807.16 119.82 3803.35 119.537 3799.54 119.168 L 3798.82 120.427 C 3803.69 126.137 3812.32 124.403 3813.22 132.212 C 3811.66 135.531 3810.57 136.274 3807.75 138.556 C 3802.4 138.772 3795.74 139.394 3793.86 133.005 C 3795.5 131.93 3804.11 133.294 3807.43 133.408 L 3808.25 132.105 C 3805.53 125.81 3795.79 128.787 3793.96 120.753 C 3794.87 117.405 3796.04 116.476 3798.45 114.052 z"/>
<path transform="translate(0,0)" fill="rgb(255,255,255)" d="M 3819.19 107.532 C 3820.88 108.396 3821.32 110.389 3822.8 111.904 C 3826.9 116.109 3822.25 118.114 3821.9 123.999 C 3821.42 132.228 3823.25 132.508 3827.57 137.951 C 3813.6 140.138 3817.07 126.192 3816.23 116.526 C 3816.02 114.047 3818.12 109.926 3819.19 107.532 z"/>
<path transform="translate(0,0)" fill="rgb(255,255,255)" d="M 3871.57 114.267 C 3872.55 110.328 3871.85 110.871 3874.56 108.145 C 3877.06 110.971 3874.77 112.187 3877.67 113.678 C 3878.51 114.111 3879.52 114.972 3880.26 115.595 C 3877.7 123.406 3874.55 120.795 3876.12 132.488 L 3880.75 135.98 L 3880.41 137.545 C 3877.39 138.811 3878.49 138.762 3875.46 138.042 C 3868.32 130.866 3875.46 123.225 3867.77 115.061 L 3871.57 114.267 z"/>
<path transform="translate(0,0)" fill="rgb(255,255,255)" d="M 3774.31 107.616 C 3775.93 108.415 3777.85 112.225 3779.39 113.697 C 3781.47 115.683 3776.9 121.89 3776.75 125.631 C 3776.4 134.606 3778.54 131.771 3782.59 137.481 C 3780.54 138.228 3779.1 138.166 3776.92 138.232 C 3767.72 133.284 3776.35 124.968 3770.4 117.136 C 3770.55 114.667 3772.88 111.794 3774.31 107.616 z"/>
<path transform="translate(0,0)" fill="rgb(255,255,255)" d="M 3860.16 115.817 C 3863.03 114.471 3863.69 114.402 3866.84 114.728 C 3865.59 118.042 3865.8 117.405 3862.73 119.148 C 3857.45 122.151 3862.3 134.402 3858.49 138.018 C 3857.37 137.683 3856.24 137.626 3856.07 136.403 C 3855.28 130.465 3855.64 122.35 3855.68 116.435 L 3856.6 114.928 C 3857.91 115.076 3859.05 115.096 3860.16 115.817 z"/>
<path transform="translate(0,0)" fill="rgb(51,39,197)" d="M 3860.16 115.817 C 3858.93 110.412 3858.03 114.879 3855.71 110.776 C 3859.4 109.917 3866.93 109.055 3870.38 110.433 L 3871.57 114.267 L 3867.77 115.061 L 3866.84 114.728 C 3863.69 114.402 3863.03 114.471 3860.16 115.817 z"/>
<path transform="translate(0,0)" fill="rgb(51,39,197)" d="M 3909.57 140.45 C 3914.29 139.882 3924.39 138.971 3927.32 142.516 C 3922.48 142.668 3915.16 143.169 3910.59 142.281 L 3909.57 140.45 z"/>
<path transform="translate(0,0)" fill="rgb(51,39,197)" d="M 3850.25 134.021 C 3852.56 127.046 3851.28 122.162 3853.26 117.148 C 3853.86 121.357 3854.21 132.028 3853.31 136.117 L 3850.25 134.021 z"/>
<path transform="translate(0,0)" fill="rgb(51,39,197)" d="M 3718.45 140.541 C 3723.55 139.928 3731.99 138.72 3735.58 142.483 C 3730.67 142.698 3721.81 143.875 3718.45 140.541 z"/>
<path transform="translate(0,0)" fill="rgb(51,39,197)" d="M 3768.78 118.519 L 3770.6 120.158 C 3771.02 123.272 3771.42 131.497 3769.57 133.967 L 3768.84 133.271 C 3768.74 128.215 3768.52 123.593 3768.78 118.519 z"/>
<path transform="translate(0,0)" fill="rgb(51,39,197)" d="M 3795.93 140.484 C 3800.53 140.126 3807.84 138.513 3810.51 142.473 C 3805.46 142.726 3801.83 143.023 3796.75 142.275 L 3795.93 140.484 z"/>
<path transform="translate(0,0)" fill="rgb(51,39,197)" d="M 3749.37 110.555 C 3753.62 110.109 3760.6 109.09 3764.19 111.661 C 3759.53 113.271 3753.37 113.604 3749.37 110.555 z"/>
<path transform="translate(0,0)" fill="rgb(51,39,197)" d="M 3750.5 140.452 C 3754.91 140.043 3760.92 138.595 3763.51 142.489 C 3758.87 142.754 3756.27 142.958 3751.69 142.334 L 3750.5 140.452 z"/>
<path transform="translate(0,0)" fill="rgb(51,39,197)" d="M 3887.88 140.473 C 3891.9 140.109 3895.69 139.539 3899.61 140.601 L 3900.34 142.478 C 3895.72 142.753 3893.3 142.959 3888.75 142.284 L 3887.88 140.473 z"/>
<path transform="translate(0,0)" fill="rgb(51,39,197)" d="M 3831.21 140.434 C 3835.45 139.99 3840.01 138.694 3842.51 142.503 C 3838.28 142.753 3833.83 143.809 3831.21 140.434 z"/>
<path transform="translate(0,0)" fill="rgb(51,39,197)" d="M 3818.3 140.45 C 3821.07 140.094 3823.67 139.501 3826.23 140.613 L 3826.63 142.545 C 3823.44 142.791 3821.97 142.997 3818.78 142.303 L 3818.3 140.45 z"/>
<path transform="translate(0,0)" fill="rgb(51,39,197)" d="M 3872.45 140.517 C 3876.37 139.94 3878.98 139.627 3882.14 141.644 C 3877.99 142.783 3875.69 143.837 3872.45 140.517 z"/>
<path transform="translate(0,0)" fill="rgb(51,39,197)" d="M 3773.45 140.505 C 3777.34 139.937 3779.96 139.676 3783.16 141.647 C 3778.98 142.806 3776.7 143.857 3773.45 140.505 z"/>
<path transform="translate(0,0)" fill="rgb(165,177,194)" d="M 137.464 82.408 C 153.474 82.9701 171.756 82.3979 188.119 82.6596 C 189.684 108.459 186.595 95.9494 178.398 102.138 C 176.448 105.334 177.488 115.216 177.49 120.278 C 180.951 120.257 184.51 119.748 187.116 121.843 C 189.03 124.632 188.418 129.704 188.315 133.25 C 188.411 135.627 188.422 136.138 187.166 138.145 C 181.432 141.592 142.596 139.912 135.336 138.633 C 132.455 133.945 133.823 94.7184 134.2 86.4173 C 134.31 84.0006 135.762 83.4713 137.464 82.408 z"/>
<path transform="translate(0,0)" fill="rgb(6,9,24)" d="M 137.001 84.1764 C 149.709 85.1651 172.994 84.6127 186.196 84.2222 C 185.907 89.295 186.005 95.2124 185.964 100.355 C 179.496 99.689 155.553 98.357 150.597 100.902 L 150.417 102.601 C 154.809 105.998 169.451 104.477 176.103 104.342 C 175.838 108.865 176.069 113.401 176.227 117.929 C 168.954 117.719 161.077 117.839 153.75 117.807 C 151.701 117.935 152.266 117.889 150.471 119.115 L 150.51 120.76 C 154.614 124.15 179.754 122.266 185.982 121.921 C 186.001 127.321 186.095 132.721 186.265 138.118 C 174.764 137.239 147.866 137.668 136.26 138.107 C 136.619 129.658 135.699 88.5134 137.001 84.1764 z"/>
<path transform="translate(0,0)" fill="rgb(15,21,36)" d="M 141.976 88.1281 L 144.241 88.918 C 146.901 92.1903 145.432 124.585 145.51 131.958 L 143.634 132.823 L 142.215 131.886 C 141.361 126.588 141.959 95.0888 141.976 88.1281 z"/>
<path transform="translate(0,0)" fill="rgb(6,9,24)" d="M 195.219 98.671 C 209.941 99.0193 207.254 103.749 221.113 98.5043 C 226.588 99.8554 230.182 100.681 234.346 104.618 C 238.647 108.613 241.149 114.177 241.282 120.045 C 241.462 125.651 239.35 131.089 235.432 135.104 C 229.921 140.811 224.914 141.511 217.482 141.663 C 214.075 139.676 212.47 137.884 209.199 140.479 C 207.652 144.103 208.672 155.527 208.752 160.464 C 203.744 160.012 199.497 160.274 194.517 160.495 C 194.678 147.943 193.452 108.975 195.219 98.671 z"/>
<path transform="translate(0,0)" fill="rgb(255,255,255)" d="M 217.93 111.7 C 221.144 110.435 224.795 111.069 227.395 113.344 C 229.994 115.619 231.107 119.154 230.28 122.508 C 229.452 125.861 226.823 128.473 223.463 129.277 C 218.746 130.407 213.959 127.695 212.502 123.069 C 211.045 118.442 213.416 113.477 217.93 111.7 z"/>
<path transform="translate(0,0)" fill="rgb(6,9,24)" d="M 288.983 96.1924 C 301.392 93.6327 313.533 101.597 316.126 113.999 C 318.72 126.401 310.788 138.563 298.394 141.19 C 285.951 143.828 273.732 135.859 271.128 123.409 C 268.524 110.959 276.526 98.7619 288.983 96.1924 z"/>
<path transform="translate(0,0)" fill="rgb(255,255,255)" d="M 290.406 107.732 C 294.396 106.589 298.692 107.685 301.647 110.599 C 304.603 113.513 305.759 117.793 304.673 121.798 C 303.587 125.804 300.427 128.914 296.404 129.936 C 290.313 131.483 284.108 127.855 282.469 121.788 C 280.831 115.721 284.365 109.462 290.406 107.732 z"/>
<path transform="translate(0,0)" fill="rgb(6,9,24)" d="M 324.472 98.9698 C 329.555 99.1247 334.985 98.9881 340.096 98.9504 C 341.689 111.154 341.629 123.078 343.257 135.486 C 346.228 127.492 350.803 107.952 353.099 99.0396 L 369.724 99.0447 C 370.891 110.845 370.461 122.578 371.76 134.845 C 376.38 122.868 376.327 110.926 382.687 100.688 C 384.051 98.4918 388.229 98.9629 391.11 98.8515 C 391.535 98.9638 392.788 99.7638 393.248 100.04 C 393.559 105.072 378.068 131.81 374.599 138.31 L 358.713 138.272 C 360.531 130.339 361.689 125.059 362.534 117.004 C 357.571 123.627 354.167 130.992 350.435 138.374 L 334.671 138.295 C 332.939 131.807 324.546 103.608 324.472 98.9698 z"/>
<path transform="translate(0,0)" fill="rgb(165,177,194)" d="M 1520.6 104.196 C 1525.57 104.02 1531.2 104.108 1536.23 104.08 C 1537.71 104.999 1539.44 106.098 1540.8 107.167 C 1544.45 110.102 1546.8 114.369 1547.31 119.03 C 1547.94 124.657 1545.9 129.809 1542.43 134.127 C 1534.58 140.203 1530.12 138.738 1519.98 138.241 C 1519.93 131.725 1519.39 109.774 1520.6 104.196 z"/>
<path transform="translate(0,0)" fill="rgb(255,255,255)" d="M 1525.45 108.102 C 1542.48 107.683 1548.43 120.493 1537.67 132.518 C 1535.85 133.956 1530.52 135.174 1528.43 134.352 C 1522.77 132.122 1524.06 112.646 1525.45 108.102 z"/>
<path transform="translate(0,0)" fill="rgb(165,177,194)" d="M 1329.43 114.097 C 1331.51 113.97 1341.01 115.382 1343.14 115.979 C 1347.6 128.362 1344.45 161.532 1323.9 143.775 C 1328.04 137.966 1330.66 147.23 1337.01 142.966 C 1338.44 140.223 1339.18 139.91 1338.88 137.147 C 1330.36 138.93 1323.02 138.866 1323.04 126.773 C 1323.05 121.098 1325.11 117.795 1329.43 114.097 z"/>
<path transform="translate(0,0)" fill="rgb(255,255,255)" d="M 1331.58 117.375 C 1342.08 120.097 1339.89 127.806 1335.5 135.122 C 1332.86 134.558 1332.26 134.428 1330.06 132.878 C 1326.32 127.339 1327.55 122.343 1331.58 117.375 z"/>
<path transform="translate(0,0)" fill="rgb(6,9,24)" d="M 251.081 99.1046 C 254.799 99.5091 260.501 99.4656 264.383 99.5522 C 264.283 107.508 264.694 131.8 263.568 138.179 C 261.093 138.317 252.686 138.537 251.753 137.456 C 248.027 133.14 249.263 102.902 251.081 99.1046 z"/>
<path transform="translate(0,0)" fill="rgb(15,21,36)" d="M 254.861 104.617 L 256.919 105.178 C 259.369 107.849 258.405 128.018 258.642 133.746 L 256.125 133.102 C 253.551 129.1 254.567 110.23 254.861 104.617 z"/>
<path transform="translate(0,0)" fill="rgb(165,177,194)" d="M 720.505 114.485 C 727.419 113.203 728.995 113.349 733.211 118.354 L 733.022 119.468 C 729.212 119.24 727.727 119.225 723.946 119.719 C 719.187 122.984 718.638 126.7 721.287 131.681 C 724.697 133.806 729.654 133.061 733.843 132.926 L 734.13 134.045 C 727.418 142.09 722.891 136.774 714.307 134.465 C 713.978 136.241 713.955 137.084 712.594 138.3 L 709.005 138.021 L 707.921 137.492 C 704.18 138.689 697.473 138.368 694.793 135.276 C 693.5 130.851 693.238 119.705 694.148 115.249 L 695.746 114.403 C 699.235 118.876 697.627 131.563 702.535 135.271 C 711.155 133.575 707.442 117.676 709.763 114.769 C 711.944 116.023 714.389 117.674 716.856 117.919 L 720.505 114.485 z"/>
<path transform="translate(0,0)" fill="rgb(165,177,194)" d="M 685.034 103.63 C 685.925 104.156 687.265 104.796 687.471 105.805 C 688.774 112.193 689.413 131.98 687.584 137.65 C 685.689 138.306 676.504 138.262 673.24 138.54 C 666.418 132.953 664.297 122.103 671.308 115.83 C 674.045 113.381 678.848 114.482 682.383 114.84 C 684.549 111.425 681.532 107.65 685.034 103.63 z"/>
<path transform="translate(0,0)" fill="rgb(255,255,255)" d="M 673.728 118.329 L 678.07 118.555 C 684.88 122.75 682.403 128.088 680.681 134.833 C 669.446 133.529 671.268 127.171 673.728 118.329 z"/>
<path transform="translate(0,0)" fill="rgb(165,177,194)" d="M 598.774 104.203 C 607.098 103.776 619.468 102.341 623.279 112.144 C 622.6 122.184 610.755 121.943 603.375 121.764 C 602.504 125.92 605.154 133.568 601.625 137.69 L 600.144 137.461 C 597.292 131.686 597.937 111.016 598.774 104.203 z"/>
<path transform="translate(0,0)" fill="rgb(255,255,255)" d="M 603.878 108.306 C 609.11 108.121 612.472 107.406 616.644 110.069 C 617.988 112.918 617.466 114.259 616.735 117.236 C 611.319 117.574 607.554 118.558 603.423 115.458 C 602.613 112.538 603.135 111.16 603.878 108.306 z"/>
<path transform="translate(0,0)" fill="rgb(165,177,194)" d="M 1213.1 104.262 C 1221.31 103.781 1233.79 102.187 1237.32 112.204 C 1236.47 122.353 1225.87 121.93 1218.23 121.754 C 1215.91 125.727 1220.4 131.719 1215.96 137.664 L 1214.74 137.644 C 1211.49 132.774 1212.56 110.745 1213.1 104.262 z"/>
<path transform="translate(0,0)" fill="rgb(255,255,255)" d="M 1218.08 108.332 C 1221.85 108.195 1227.9 107.434 1230.7 109.675 C 1232.34 113.549 1231.82 112.686 1231.13 117.277 C 1225.75 117.597 1222.04 118.548 1217.92 115.463 C 1217.04 112.606 1217.49 111.185 1218.08 108.332 z"/>
<path transform="translate(0,0)" fill="rgb(165,177,194)" d="M 905.964 104.238 C 913.274 103.855 925.918 102.158 929.613 109.859 C 931.721 124.224 917.829 120.581 910.263 122.526 C 910.503 126.373 911.403 135.75 908.504 138.342 L 907.768 137.679 C 904.193 129.516 904.884 113.099 905.964 104.238 z"/>
<path transform="translate(0,0)" fill="rgb(255,255,255)" d="M 910.942 108.286 C 914.681 108.169 920.758 107.422 923.537 109.707 C 925.137 113.554 924.619 112.738 923.998 117.258 C 918.8 117.587 914.494 118.592 910.58 115.437 C 909.801 112.551 910.287 111.123 910.942 108.286 z"/>
<path transform="translate(0,0)" fill="rgb(165,177,194)" d="M 1000.41 114.082 C 1001.84 114.012 1003.28 114.002 1004.71 114.051 C 1007.73 114.175 1010.57 115.511 1012.6 117.757 C 1019.1 124.957 1014.58 133.127 1008.57 138.554 C 991.758 139.262 988.741 124.17 1000.41 114.082 z"/>
<path transform="translate(0,0)" fill="rgb(255,255,255)" d="M 1002.64 117.465 C 1013.01 119.298 1012.1 127.71 1007.18 134.547 C 1003.91 134.44 1002.8 134.519 1000.25 132.326 C 996.539 126.705 998.408 121.945 1002.64 117.465 z"/>
<path transform="translate(0,0)" fill="rgb(165,177,194)" d="M 1557.12 114.232 C 1574.34 113.112 1576.76 128.209 1565.65 138.393 C 1548.51 139.648 1545.59 123.828 1557.12 114.232 z"/>
<path transform="translate(0,0)" fill="rgb(255,255,255)" d="M 1559.63 117.346 C 1570.89 119.871 1568.58 128.932 1562.63 135.572 C 1552.82 131.98 1553.12 123.9 1559.63 117.346 z"/>
<path transform="translate(0,0)" fill="rgb(165,177,194)" d="M 648.436 114.098 C 649.86 114.02 651.286 114.002 652.712 114.043 C 655.683 114.14 658.488 115.439 660.485 117.641 C 666.943 124.722 662.638 133.068 656.681 138.53 C 639.735 139.244 636.707 124.096 648.436 114.098 z"/>
<path transform="translate(0,0)" fill="rgb(255,255,255)" d="M 650.605 117.48 C 660.964 119.256 660.074 127.673 655.212 134.511 C 643.642 134.149 644.415 124.185 650.605 117.48 z"/>
<path transform="translate(0,0)" fill="rgb(165,177,194)" d="M 1042.48 114.525 C 1046.09 113.539 1047.28 115.044 1050.04 116.841 C 1056.25 117.145 1052.56 111.698 1061.58 114.844 C 1065.94 119.879 1067.51 132.788 1063.65 137.97 C 1059.41 133.969 1060.9 119.749 1055.2 117.542 C 1051.27 121.906 1051.35 125.223 1051.36 130.83 C 1051.63 134.588 1051.76 135.036 1049.78 137.467 L 1047.73 137.665 C 1045.69 135.218 1046.83 124.361 1045.92 119.84 C 1043.87 117.951 1044.74 118.42 1041.82 117.991 C 1036.41 121.003 1038.35 133.642 1035.12 138.162 C 1032.53 134.852 1033.05 122.124 1033.12 117.201 C 1035.07 114.173 1036.97 117.609 1042.48 114.525 z"/>
<path transform="translate(0,0)" fill="rgb(165,177,194)" d="M 987.079 103.542 C 988.46 103.679 989.985 104.264 991.32 104.707 L 991.916 106.473 C 990.657 108.282 989.36 109.088 987.591 110.378 C 987.462 115.136 988.139 111.428 991.534 115.543 C 990.191 118.666 988.709 120.451 987.743 123.789 C 986.481 128.154 988.307 133.831 986.569 137.632 L 984.466 137.993 C 978.61 133.231 986.381 122.856 980.032 117.944 C 976.251 117.962 977.57 117.564 974.425 119.356 L 974.047 121.75 C 973.956 123.26 974.009 125.115 973.846 126.55 C 973.009 133.922 979.174 131.954 976.807 139.696 C 968.737 140.012 965.284 117.811 970.867 108.874 L 972.045 108.671 C 974.43 112.105 975.464 114.357 979.878 114.404 C 982.799 112.445 982.531 108.577 987.079 103.542 z"/>
<path transform="translate(0,0)" fill="rgb(165,177,194)" d="M 949.026 114.157 C 953.687 113.91 956.561 113.715 960.328 116.545 C 963.246 120.375 961.334 127.044 963.135 132.008 C 964.173 134.87 965.905 134.401 965.91 137.081 L 964.577 138.336 C 960.252 139.168 958.559 134.943 957.461 135.507 C 952.864 137.869 952.197 139.038 946.333 138.656 C 933.286 124.784 954.975 125.505 957.602 121.958 L 956.441 120.006 C 951.556 118.203 949.195 120.184 944.049 119.833 C 944.601 117.298 946.739 116.181 949.026 114.157 z"/>
<path transform="translate(0,0)" fill="rgb(165,177,194)" d="M 1602.35 114.233 C 1607.29 113.931 1615.22 112.85 1616.98 119.104 C 1615.36 120.303 1606.75 119.523 1603.95 119.483 C 1605.73 126.024 1614.76 123.018 1617.74 130.697 C 1617.36 134.156 1615.73 135.681 1613.53 138.338 C 1608.59 138.725 1601.2 138.678 1597.82 134.317 L 1598.94 135.739 L 1598.09 135.026 L 1598.71 132.863 C 1603.34 129.93 1608.02 137.516 1612.15 132.763 L 1611.82 130.289 C 1607.48 125.448 1601.63 128.4 1599.03 121.787 C 1599.08 118.546 1600.54 116.882 1602.35 114.233 z"/>
<path transform="translate(0,0)" fill="rgb(165,177,194)" d="M 1308.52 114.481 C 1320.84 112.178 1320.5 130.105 1316.6 136.925 L 1315.18 137.126 C 1311.93 131.13 1316.94 124.796 1310.51 117.274 L 1306.58 118.448 C 1299.14 125.871 1307.06 134.119 1300.99 138.136 L 1299.56 137.603 C 1298 134.419 1298.59 120.831 1299.2 116.936 C 1302.23 114.671 1302.88 117.904 1308.52 114.481 z"/>
<path transform="translate(0,0)" fill="rgb(165,177,194)" d="M 1272.33 114.137 C 1276.61 113.909 1283.64 115.15 1285.21 119.567 C 1282.38 122.734 1279.41 119.297 1276.04 118.262 C 1268.72 120.003 1268.23 129.972 1274.92 133.976 C 1278 134.394 1279.19 133.429 1281.77 131.853 L 1283.9 131.606 L 1284.44 133.35 C 1276.78 148.664 1254.12 129.324 1272.33 114.137 z"/>
<path transform="translate(0,0)" fill="rgb(165,177,194)" d="M 1582.77 114.025 C 1588.94 113.847 1590.64 114.64 1595.25 118.874 L 1595.05 120.127 C 1589.83 121.406 1591.63 119.901 1586.54 118.199 C 1579.12 119.934 1578.73 129.693 1584.95 133.915 C 1587.99 134.464 1589.03 133.706 1591.67 132.246 C 1592.79 131.502 1592.53 131.74 1594.17 131.817 L 1594.48 133.799 C 1587.13 148.114 1564.46 129.602 1582.77 114.025 z"/>
<path transform="translate(0,0)" fill="rgb(165,177,194)" d="M 740.43 108.396 L 742.058 109.019 C 742.646 110.08 746.314 114.563 746.178 115.191 C 744.035 125.084 738.345 129.77 748.989 135.984 C 747.411 138.199 744.523 138.952 742.002 138.332 C 736.531 133.578 741.488 122.214 737.541 117.776 C 735.925 115.96 739.022 113.221 740.43 108.396 z"/>
<path transform="translate(0,0)" fill="rgb(165,177,194)" d="M 935.123 103.701 L 937.037 104.819 C 939.48 108.223 938.414 133.771 937.665 138.844 C 936.394 138.195 934.71 137.677 934.493 136.393 C 933.481 130.43 933.116 108.601 935.123 103.701 z"/>
<path transform="translate(0,0)" fill="rgb(165,177,194)" d="M 1250.17 114.853 C 1251.28 114.544 1251.05 114.715 1252.38 115.394 C 1251.22 119.189 1250.31 117.081 1248.12 119.237 C 1241.1 126.169 1250.48 132.325 1242.39 139.176 C 1240.42 135.084 1240.93 120.923 1241.75 116.153 C 1244.37 113.33 1244.17 117.477 1250.17 114.853 z"/>
<path transform="translate(0,0)" fill="rgb(165,177,194)" d="M 1029.09 114.951 L 1030.44 115.026 C 1031.21 116.607 1031.52 116.346 1029.79 117.325 C 1022.63 121.399 1026.15 131.058 1024.38 136.145 L 1024.2 136.64 C 1023.8 137.772 1022.26 138.129 1020.87 138.785 C 1020.01 134.608 1020.23 119.873 1021.08 115.617 L 1022.43 114.832 L 1026.23 116.327 L 1029.09 114.951 z"/>
<path transform="translate(0,0)" fill="rgb(165,177,194)" d="M 635.759 114.403 L 637.726 115.347 C 637.664 119.112 633.181 116.977 631.986 121.37 C 630.05 128.487 633.326 133.664 628.451 139.38 C 625.957 135.338 626.465 120.906 627.359 116.069 C 629.958 114.083 630.164 117.38 635.759 114.403 z"/>
<path transform="translate(0,0)" fill="rgb(165,177,194)" d="M 1290.38 113.513 C 1291.57 114.106 1292.24 114.973 1293.13 115.945 C 1294.14 123.236 1293.8 131.458 1293.1 138.786 C 1290.46 137.921 1291.25 138.483 1289.55 136.344 C 1288.82 130.931 1288.03 118.255 1290.38 113.513 z"/>
<path transform="translate(0,0)" fill="rgb(165,177,194)" d="M 1257.46 114.238 C 1259 114.483 1259.57 114.922 1260.85 115.727 C 1262.13 120.615 1261.61 132.017 1261.62 137.739 L 1258.62 137.728 C 1255.73 133.44 1257.17 120.119 1257.46 114.238 z"/>
</svg>