<!-- RECRAFT VECTORIZE from logo/options-w3/mock/L1-dejavu-navbar-light.png -->
<svg version="1.1" xmlns="http://www.w3.org/2000/svg" style="display: block;" viewBox="0 0 4096 256" width="4096" height="256" preserveAspectRatio="none">
<path transform="translate(0,0)" fill="rgb(255,255,255)" d="M 0 0 L 4096 0 L 4096 256 L 0 256 L 0 0 z"/>
<path transform="translate(0,0)" fill="rgb(66,55,201)" d="M 3680.91 61.8565 C 3683.63 59.9241 3849.92 60.7552 3867.05 60.7593 L 3927.21 60.7519 C 3936.24 60.752 3952.4 60.2989 3960.99 61.3772 C 3962.48 63.0932 3979.07 74.2388 3980.27 77.7383 C 3984.31 89.5547 3985.06 103.886 3984.07 117.032 C 3982.05 143.711 3993.12 170.993 3966.07 187.995 C 3963.13 189.842 3963.04 188.614 3960.83 191.422 C 3945.93 193.156 3682.86 191.805 3681.03 191.015 C 3679.43 188.788 3677.09 189.53 3675.83 188.29 C 3671.05 183.608 3661.65 177.32 3660.63 170.622 C 3660.41 169.228 3659.6 168.951 3658.42 167.919 C 3657.17 161.228 3656.94 88.3365 3658.9 84.9382 C 3661.5 82.946 3660.06 80.4807 3661.74 78.2938 C 3665.57 73.3024 3670.52 68.6285 3675.41 64.7077 C 3676.45 63.8735 3677.51 64.5511 3680.91 61.8565 z"/>
<path transform="translate(0,0)" fill="rgb(50,42,157)" d="M 3680.91 61.8565 C 3683.63 59.9241 3849.92 60.7552 3867.05 60.7593 L 3927.21 60.7519 C 3936.24 60.752 3952.4 60.2989 3960.99 61.3772 L 3959.96 64.4426 C 3959.67 64.5852 3701.96 66.3098 3683.07 64.8609 C 3681.01 63.5169 3681.48 64.2155 3680.91 61.8565 z"/>
<path transform="translate(0,0)" fill="rgb(50,42,157)" d="M 3681.03 191.015 L 3681.65 188.136 C 3683.72 187.061 3726.88 187.682 3732.41 187.685 L 3907.09 187.702 C 3914.19 187.702 3957.67 186.556 3960.17 188.942 L 3960.83 191.422 C 3945.93 193.156 3682.86 191.805 3681.03 191.015 z"/>
<path transform="translate(0,0)" fill="rgb(50,42,157)" d="M 3658.42 167.919 C 3657.17 161.228 3656.94 88.3365 3658.9 84.9382 L 3661.32 86.3111 C 3662.64 92.6078 3662.6 163.644 3660.48 167.005 L 3658.42 167.919 z"/>
<path transform="translate(0,0)" fill="rgb(240,239,250)" d="M 3903.58 133.853 C 3901.22 136.411 3898.74 138.432 3895.2 138.559 C 3872.56 139.366 3886.91 98.5875 3902.31 119.019 C 3903.75 120.931 3903.48 122.204 3905.94 123.139 C 3908.25 114.093 3911.13 114.264 3919.8 114.876 C 3923.64 111.559 3919.81 108.54 3923.91 104.433 L 3925.85 105.111 L 3926.89 107.479 C 3927.55 113.426 3928.18 131.832 3927.09 137.483 C 3926.21 137.995 3913.32 139.641 3911.46 139.484 C 3908.22 137.683 3905.32 134.064 3903.58 133.853 z"/>
<path transform="translate(0,0)" fill="rgb(84,73,206)" d="M 3905.72 127.419 C 3907.05 134.01 3909.13 139.574 3917 137.742 C 3919.84 137.081 3922.91 138.566 3925.84 136.275 C 3926.92 132.055 3926.02 114.62 3926.89 107.479 C 3927.55 113.426 3928.18 131.832 3927.09 137.483 C 3926.21 137.995 3913.32 139.641 3911.46 139.484 C 3908.22 137.683 3905.32 134.064 3903.58 133.853 C 3900.1 129.588 3897.29 136.067 3891.47 133.96 C 3888.85 131.681 3889.36 132.69 3888.54 129.654 C 3890.42 128.061 3901.79 127.81 3905.72 127.419 z"/>
<path transform="translate(0,0)" fill="rgb(50,42,157)" d="M 3914.8 117.382 C 3924.68 120.759 3921.77 128.607 3917.85 135.404 C 3915.15 134.594 3914.65 134.298 3912.4 132.614 C 3908.86 126.71 3909.89 122.008 3914.8 117.382 z"/>
<path transform="translate(0,0)" fill="rgb(240,239,250)" d="M 3727.74 120.387 C 3730.88 120.496 3737.09 120.149 3739.31 122.62 C 3742.52 126.194 3742.07 130.149 3738.73 133.543 C 3735.36 136.911 3730.79 138.807 3726.02 138.818 C 3716.72 138.81 3710.43 129.952 3710.48 121.276 C 3710.5 116.443 3712.46 111.821 3715.93 108.45 C 3723.99 100.585 3738.68 102.885 3738.45 113.236 L 3735.84 115.034 C 3739.05 118.439 3743.61 115.609 3745.09 119.498 C 3743.74 123.967 3743.12 125.543 3743.77 130.138 L 3742.95 129.832 C 3742.73 126.396 3742.62 122.953 3742.64 119.51 C 3738.32 119.502 3731.69 119.179 3727.74 120.387 z"/>
<path transform="translate(0,0)" fill="rgb(50,42,157)" d="M 3727.74 120.387 L 3727.29 122.585 C 3729.51 126.334 3734.7 124.114 3736.66 129.036 C 3734.66 132.08 3727.78 135.638 3724.48 134.706 C 3708.31 130.138 3719.3 91.6524 3735.84 115.034 C 3739.05 118.439 3743.61 115.609 3745.09 119.498 C 3743.74 123.967 3743.12 125.543 3743.77 130.138 L 3742.95 129.832 C 3742.73 126.396 3742.62 122.953 3742.64 119.51 C 3738.32 119.502 3731.69 119.179 3727.74 120.387 z"/>
<path transform="translate(0,0)" fill="rgb(240,239,250)" d="M 3853.33 136.105 C 3852.74 137.505 3851.83 137.882 3850.53 138.644 C 3850.27 138.622 3848.31 138.458 3848.31 138.458 C 3840.64 132.593 3845.29 137.205 3838.33 139.398 C 3832.36 138.731 3828.75 136.609 3828.72 130.197 C 3832.24 123.033 3836.3 126.212 3843.65 122.803 L 3843.72 120.767 C 3838.14 115.28 3835.44 122.088 3830.67 120.268 L 3830.88 118.337 C 3834.18 114.29 3840.07 112.121 3844.9 114.812 C 3850.34 120.488 3849.12 126.57 3850.25 134.009 L 3853.33 136.105 z"/>
<path transform="translate(0,0)" fill="rgb(240,239,250)" d="M 3752.62 114.11 C 3759.85 113.803 3766.31 116.198 3767.52 124.184 C 3763.44 129.855 3756.43 127.674 3751.12 130.397 C 3753.01 136.053 3758.59 134.067 3762.81 132.744 C 3763.79 131.974 3763.52 132.206 3765.05 132.268 L 3765.29 133.762 C 3757.51 147.901 3733.58 129.95 3752.62 114.11 z"/>
<path transform="translate(0,0)" fill="rgb(240,239,250)" d="M 3798.48 114.079 C 3804.55 113.832 3808.27 113.365 3812.05 119.071 L 3810.99 120.015 C 3807.18 119.797 3803.38 119.489 3799.58 119.091 L 3798.79 120.455 C 3803.58 126.244 3812.31 124.346 3813.17 132.219 C 3811.61 135.519 3810.54 136.239 3807.75 138.519 C 3802.58 138.699 3795.64 139.383 3793.92 133.016 C 3796.08 131.847 3803.36 133.479 3807.63 133.384 L 3808.31 132.093 C 3805.68 126.108 3796.58 128.547 3793.96 121.305 C 3794.53 117.792 3796.03 116.609 3798.48 114.079 z"/>
<path transform="translate(0,0)" fill="rgb(240,239,250)" d="M 3819.29 107.61 C 3820.95 108.504 3825.69 114.716 3823.95 117.848 C 3818.72 127.257 3822.75 131.918 3827.5 137.945 C 3822.71 138.314 3823.51 138.937 3819.7 136.918 C 3814.63 130.103 3814.86 114.947 3819.29 107.61 z"/>
<path transform="translate(0,0)" fill="rgb(240,239,250)" d="M 3871.56 114.289 C 3872.56 110.393 3871.88 110.883 3874.55 108.153 C 3876.9 110.884 3874.88 112.17 3877.51 113.611 C 3878.51 114.154 3879.38 114.87 3880.24 115.607 C 3877.73 123.29 3874.41 120.834 3876.11 132.493 L 3880.7 135.99 L 3880.4 137.513 C 3877.39 138.774 3878.49 138.728 3875.48 137.997 C 3868.38 130.914 3875.44 123.264 3867.82 115.059 L 3871.56 114.289 z"/>
<path transform="translate(0,0)" fill="rgb(240,239,250)" d="M 3774.37 107.678 L 3776.11 108.976 C 3776.71 115.544 3784.12 111.864 3776.63 123.514 C 3774.39 127.007 3779.44 133.644 3782.51 137.357 C 3780.02 138.337 3779.11 138.219 3776.43 138.098 C 3768.25 133.158 3776.13 124.751 3770.42 117.102 C 3770.57 114.739 3772.96 111.68 3774.37 107.678 z"/>
<path transform="translate(0,0)" fill="rgb(240,239,250)" d="M 3860.16 115.832 C 3863.03 114.472 3863.69 114.399 3866.84 114.712 C 3864.82 119.728 3857.27 122.32 3859.15 133.293 C 3859.38 134.642 3859.26 136.561 3858.23 137.535 C 3855.27 133.249 3853.29 118.319 3857.45 114.901 L 3860.16 115.832 z"/>
<path transform="translate(0,0)" fill="rgb(50,42,157)" d="M 3860.16 115.832 C 3859 110.747 3857.95 114.472 3855.53 111.181 C 3859.61 109.936 3866.33 108.427 3870.39 110.321 L 3871.56 114.289 L 3867.82 115.059 L 3866.84 114.712 C 3863.69 114.399 3863.03 114.472 3860.16 115.832 z"/>
<path transform="translate(0,0)" fill="rgb(50,42,157)" d="M 3909.05 140.427 C 3913.36 139.87 3922.05 139.76 3926.25 140.659 L 3927.48 142.597 C 3921.98 142.464 3912.22 144.724 3909.05 140.427 z"/>
<path transform="translate(0,0)" fill="rgb(50,42,157)" d="M 3850.25 134.009 C 3852.5 126.737 3851.03 123.326 3853.16 116.95 C 3854.13 121.701 3854.17 131.346 3853.33 136.105 L 3850.25 134.009 z"/>
<path transform="translate(0,0)" fill="rgb(50,42,157)" d="M 3718.31 140.525 C 3723.37 139.802 3732.05 138.698 3735.61 142.439 C 3732.76 142.626 3729.91 142.772 3727.05 142.878 C 3722.94 142.998 3721.04 143.088 3718.31 140.525 z"/>
<path transform="translate(0,0)" fill="rgb(50,42,157)" d="M 3795.57 140.462 C 3800.27 140.09 3807.87 138.366 3810.52 142.496 C 3806.04 142.788 3798.02 144.311 3795.57 140.462 z"/>
<path transform="translate(0,0)" fill="rgb(50,42,157)" d="M 3768.67 118.445 L 3770.62 120.166 C 3771.09 123.41 3771.47 131.438 3769.56 134.085 L 3768.92 133.469 C 3768.44 129.363 3768.55 122.687 3768.67 118.445 z"/>
<path transform="translate(0,0)" fill="rgb(50,42,157)" d="M 3750.12 140.422 C 3754.65 140.006 3760.98 138.456 3763.53 142.518 C 3758.81 142.911 3753.19 144.234 3750.12 140.422 z"/>
<path transform="translate(0,0)" fill="rgb(50,42,157)" d="M 3749.39 110.529 C 3753.76 109.965 3760.5 108.862 3764.19 111.681 C 3759.55 113.308 3753.3 113.707 3749.39 110.529 z"/>
<path transform="translate(0,0)" fill="rgb(50,42,157)" d="M 3887.56 140.452 C 3890.9 140.112 3897.12 139.474 3900.04 140.724 L 3900.44 142.477 C 3895.65 142.901 3893.43 143.222 3888.73 142.302 L 3887.56 140.452 z"/>
<path transform="translate(0,0)" fill="rgb(50,42,157)" d="M 3830.83 140.419 C 3835.22 139.956 3840.04 138.527 3842.53 142.517 C 3837.74 142.95 3834.23 144.055 3830.83 140.419 z"/>
<path transform="translate(0,0)" fill="rgb(50,42,157)" d="M 3817.82 140.441 C 3821.18 139.982 3823.02 139.543 3826.31 140.512 L 3827.1 142.603 C 3823.8 142.913 3821.98 143.245 3818.75 142.319 L 3817.82 140.441 z"/>
<path transform="translate(0,0)" fill="rgb(50,42,157)" d="M 147.551 86.4024 C 158.271 85.8663 195.976 84.6354 204.313 88.056 C 208.963 91.3283 213.263 96.0112 214.309 101.811 C 214.384 102.237 214.428 102.667 214.441 103.099 C 214.278 113.51 214.41 123.724 214.5 134.134 C 214.603 146.122 216.311 157.68 207.063 166.77 C 206.723 166.998 206.374 167.214 206.018 167.417 C 198.233 171.82 157.818 170.846 147.065 168.924 C 141.193 167.875 137.374 160.835 134.553 155.859 C 134.03 139.313 133.691 120.128 134.642 103.51 C 135.103 95.4413 139.876 89.4017 147.551 86.4024 z"/>
<path transform="translate(0,0)" fill="rgb(32,28,118)" d="M 207.063 166.77 C 201.453 167.061 197.044 165.426 190.624 165.274 C 177.49 164.964 164.403 164.849 151.271 164.736 C 163.836 163.89 201.429 168.154 208.397 157.908 C 213.016 151.117 207.195 107.119 211.488 102.011 L 214.441 103.099 C 214.278 113.51 214.41 123.724 214.5 134.134 C 214.603 146.122 216.311 157.68 207.063 166.77 z"/>
<path transform="translate(0,0)" fill="rgb(32,28,118)" d="M 147.551 86.4024 C 158.271 85.8663 195.976 84.6354 204.313 88.056 C 203.593 88.4938 199.961 90.6233 199.643 91.047 C 194.185 92.5542 156.541 92.0058 149.848 91.3898 C 149.386 90.8003 147.418 89.8742 146.643 89.4651 L 147.551 86.4024 z"/>
<path transform="translate(0,0)" fill="rgb(66,55,201)" d="M 149.848 91.3898 C 156.541 92.0058 194.185 92.5542 199.643 91.047 C 201.262 92.0587 201.8 92.3159 202.646 94.0466 L 201.617 95.2205 C 194.275 95.2768 149.507 96.4702 146.159 94.0277 L 146.586 92.5129 L 149.848 91.3898 z"/>
<path transform="translate(0,0)" fill="rgb(240,239,250)" d="M 160.394 104.964 C 167.312 104.901 188.974 102.18 189.967 110.451 C 183.018 119.775 173.16 107.716 170.414 117.997 C 172.906 126.002 181.922 118.986 187.188 122.853 C 189.059 125.614 189.112 124.794 188.815 127.46 C 184.739 133.285 177.471 128.808 170.292 131.67 C 170.646 143.699 179.638 140.508 190.201 142.891 L 190.838 145.065 C 185.857 151.172 168.427 148.912 159.908 148.94 C 160.496 134.625 159.407 119.187 160.394 104.964 z"/>
<path transform="translate(0,0)" fill="rgb(32,28,118)" d="M 172.183 133.247 C 176.349 132.82 186.319 132.198 188.692 135.606 C 185.707 136.244 176.501 137.006 173.642 136.251 L 172.183 133.247 z"/>
<path transform="translate(0,0)" fill="rgb(163,176,194)" d="M 1488.62 104.225 C 1493.7 103.948 1499.54 104.139 1504.69 104.188 C 1506.13 105.15 1507.53 106.169 1508.9 107.24 C 1512.51 110.155 1514.81 114.392 1515.29 119.01 C 1515.86 124.505 1513.94 129.882 1510.47 134.122 C 1502.63 140.184 1498.14 138.726 1487.98 138.262 C 1487.93 131.782 1487.38 109.753 1488.62 104.225 z"/>
<path transform="translate(0,0)" fill="rgb(240,239,250)" d="M 1493.16 108.287 C 1509.26 107.418 1516.47 118.856 1506.71 131.628 C 1504.09 133.864 1500.89 134.47 1497.61 134.711 C 1489.99 131.522 1492.32 115.48 1493.16 108.287 z"/>
<path transform="translate(0,0)" fill="rgb(163,176,194)" d="M 1297.67 113.864 C 1300.27 114.013 1307.65 115.305 1310.69 115.735 C 1315.03 121.731 1312.96 141.533 1307.09 147.007 C 1305.59 148.41 1303.57 149.136 1301.52 149.018 C 1297.11 148.776 1294.41 145.934 1291.7 142.88 C 1295.74 140.532 1296.98 142.913 1301.47 144.214 C 1305.23 143.207 1304.23 143.433 1307 140.078 C 1305.74 136.828 1289.52 140.638 1291.16 126.342 C 1292.05 118.647 1291.36 119.614 1297.67 113.864 z"/>
<path transform="translate(0,0)" fill="rgb(240,239,250)" d="M 1299.56 117.392 C 1310.36 119.948 1307.6 128.134 1303.5 135.098 C 1300.86 134.546 1300.26 134.419 1298.06 132.877 C 1294.32 127.368 1295.56 122.346 1299.56 117.392 z"/>
<path transform="translate(0,0)" fill="rgb(163,176,194)" d="M 688.516 114.474 C 693.722 113.602 701.078 113.499 701.97 119.987 L 700.855 121.188 C 698.394 120.268 695.902 119.433 693.383 118.683 C 688.804 119.827 686.333 123.998 686.852 128.606 C 689.764 133.232 696.538 132.084 702.338 133.591 C 702.134 135.643 700.486 136.821 698.964 138.2 C 693.007 140.665 688.683 136.703 683.137 134.627 C 682.36 136.369 682.131 137.118 680.61 138.291 L 679.447 137.413 C 676.312 136.284 672.044 138.756 667.475 137.95 C 658.97 136.45 661.977 123.198 661.696 116.924 C 661.62 115.216 663.205 114.538 664.306 113.844 C 668.529 117.393 664.691 127.085 667.363 132.467 C 669.641 134.227 670.126 134.444 672.984 134.777 C 678.912 130.933 673.782 120.868 677.56 115.934 C 681.21 115.638 680.223 116.648 684.048 118.689 L 688.516 114.474 z"/>
<path transform="translate(0,0)" fill="rgb(163,176,194)" d="M 653.055 103.659 C 653.867 104.142 655.235 104.828 655.383 105.665 C 656.615 112.646 657.552 131.779 655.826 138.1 C 652.918 139.561 651.727 136.589 651.019 136.869 C 647.503 138.264 644.833 138.451 641.124 138.554 C 634.326 132.776 632.289 121.746 639.647 115.605 C 642.439 113.275 646.505 114.457 650.005 114.877 C 652.922 112.622 649.21 108.022 653.055 103.659 z"/>
<path transform="translate(0,0)" fill="rgb(240,239,250)" d="M 642.415 118.445 L 646.487 118.668 C 652.858 123.187 650.428 129.123 648.072 135.315 L 643.022 133.674 C 638.197 128.831 639.455 123.932 642.415 118.445 z"/>
<path transform="translate(0,0)" fill="rgb(163,176,194)" d="M 566.768 104.204 C 575.143 103.775 587.431 102.339 591.308 112.139 C 590.586 122.189 578.782 121.94 571.366 121.764 C 570.507 125.974 573.177 133.456 569.581 137.729 L 568.189 137.47 C 565.311 131.646 565.938 111.071 566.768 104.204 z"/>
<path transform="translate(0,0)" fill="rgb(240,239,250)" d="M 571.844 108.295 C 577.08 108.12 580.447 107.418 584.639 110.075 C 586.006 112.918 585.466 114.26 584.706 117.235 C 579.32 117.576 575.531 118.561 571.434 115.461 C 570.628 112.542 571.132 111.156 571.844 108.295 z"/>
<path transform="translate(0,0)" fill="rgb(163,176,194)" d="M 1181.09 104.24 C 1183.36 104.116 1185.63 104.015 1187.9 103.935 C 1195.24 103.69 1205.35 105.195 1205.64 114.386 C 1201.98 122.362 1193.48 121.941 1186.12 121.752 C 1184.28 125.805 1188.17 132.725 1184.05 137.734 L 1182.64 137.703 C 1179.4 132.804 1180.55 110.765 1181.09 104.24 z"/>
<path transform="translate(0,0)" fill="rgb(240,239,250)" d="M 1186.09 108.342 C 1189.97 108.202 1195.76 107.389 1198.67 109.677 C 1200.43 112.34 1199.95 114.008 1199.53 117.113 C 1197.46 117.284 1195.38 117.421 1193.31 117.524 C 1190.46 117.654 1188.42 117.817 1186.24 115.825 C 1184.98 113.178 1185.59 111.189 1186.09 108.342 z"/>
<path transform="translate(0,0)" fill="rgb(163,176,194)" d="M 874.033 104.254 C 881.404 103.88 894.259 102.004 897.711 110.186 C 898.841 124.468 886.35 120.434 878.273 122.537 C 878.556 126.839 879.493 135.146 876.443 138.289 L 875.933 137.847 C 872.317 130.077 872.832 112.636 874.033 104.254 z"/>
<path transform="translate(0,0)" fill="rgb(240,239,250)" d="M 878.967 108.299 C 882.708 108.168 888.751 107.408 891.54 109.705 C 893.142 113.557 892.622 112.744 891.995 117.274 C 886.798 117.594 882.515 118.584 878.589 115.432 C 877.799 112.548 878.294 111.133 878.967 108.299 z"/>
<path transform="translate(0,0)" fill="rgb(163,176,194)" d="M 968.405 114.091 C 969.878 114.025 971.415 113.983 972.886 114.055 C 975.845 114.211 978.62 115.542 980.593 117.753 C 987.087 124.971 982.625 133.095 976.595 138.538 C 959.776 139.39 956.704 124.199 968.405 114.091 z"/>
<path transform="translate(0,0)" fill="rgb(240,239,250)" d="M 970.648 117.457 C 980.951 119.278 980.133 127.67 975.196 134.482 C 971.914 134.424 970.802 134.521 968.24 132.327 C 964.543 126.697 966.417 121.94 970.648 117.457 z"/>
<path transform="translate(0,0)" fill="rgb(163,176,194)" d="M 1525.11 114.237 C 1542.33 113.144 1544.77 128.179 1533.66 138.383 C 1516.53 139.602 1513.56 123.876 1525.11 114.237 z"/>
<path transform="translate(0,0)" fill="rgb(240,239,250)" d="M 1527.64 117.359 C 1538.77 119.96 1536.71 128.956 1530.57 135.574 C 1520.75 132.042 1521.28 123.835 1527.64 117.359 z"/>
<path transform="translate(0,0)" fill="rgb(163,176,194)" d="M 616.452 114.081 C 617.813 114.013 619.177 113.999 620.539 114.038 C 634.033 114.531 634.337 129.668 624.563 138.566 C 607.832 139.297 604.762 124.106 616.452 114.081 z"/>
<path transform="translate(0,0)" fill="rgb(240,239,250)" d="M 618.64 117.454 C 628.929 119.305 628.125 127.658 623.206 134.484 C 619.931 134.416 618.802 134.514 616.246 132.326 C 612.529 126.693 614.446 121.959 618.64 117.454 z"/>
<path transform="translate(0,0)" fill="rgb(9,10,19)" d="M 315.917 120.041 C 321.323 119.237 317.411 116.118 325.832 116.907 C 327.753 120.56 328.489 124.595 330.75 126.296 C 333.878 123.109 331.499 120.821 335.461 117.813 C 341.45 120.338 336.924 123.608 340.463 126.678 C 341.616 124.744 345.167 118.147 346.766 117.423 L 348.301 118.262 C 349.274 121.88 345.951 135.562 343.253 137.808 C 339.677 137.18 337.475 132.513 335.539 129.437 C 332.358 131.046 333.512 135.132 329.455 137.748 C 327.06 136.558 325.833 134.492 324.92 131.862 C 324.89 131.776 324.862 131.69 324.835 131.604 C 320.79 131.098 321.791 131.297 317.768 132.992 C 320.454 128.815 319.666 123.299 315.917 120.041 z"/>
<path transform="translate(0,0)" fill="rgb(240,239,250)" d="M 315.917 120.041 C 321.323 119.237 317.411 116.118 325.832 116.907 C 320.311 120.586 323.425 125.463 324.835 131.604 C 320.79 131.098 321.791 131.297 317.768 132.992 C 320.454 128.815 319.666 123.299 315.917 120.041 z"/>
<path transform="translate(0,0)" fill="rgb(163,176,194)" d="M 1010.48 114.525 C 1015.31 113.175 1018.14 117.845 1019.45 117.141 C 1023.91 114.739 1022.72 113.876 1028.06 114.134 C 1034.02 116.834 1036.45 133.555 1031.21 138.053 L 1029.58 137.737 C 1026.7 132.529 1030.96 124.039 1025.59 118.192 C 1022.63 118.326 1023.53 117.946 1021.29 119.575 C 1018.83 123.835 1019.28 127.897 1019.35 132.755 C 1020.1 135.754 1018.95 136.782 1016.75 138.263 C 1011.62 135.277 1016.26 126.086 1013.82 119.969 C 1011.22 117.846 1012.33 118.357 1008.51 118.354 C 1005.08 122.467 1006.2 135.096 1003.12 138.147 C 1000.28 134.777 1000.9 120.761 1000.94 115.802 L 1002.65 114.81 L 1007.43 116.328 L 1010.48 114.525 z"/>
<path transform="translate(0,0)" fill="rgb(163,176,194)" d="M 955.108 103.551 C 957.421 103.746 957.828 103.882 959.728 105.214 C 959.226 110.441 956.056 107.06 955.305 112.459 C 956.831 113.539 958.12 114.266 959.748 115.182 L 959.618 117.272 C 949.381 122.693 960.893 133.204 953.009 138.047 C 946.828 134.523 953.345 123.736 948.985 118.304 C 945.176 117.673 946.63 117.555 942.959 118.835 L 942.035 120.884 C 941.616 128.566 940.972 128.963 945.093 135.037 C 946.078 136.489 945.252 138.356 944.624 139.781 L 942.637 139.086 C 936.2 132.762 931.823 111.199 940.494 108.021 C 943.488 111.846 940.282 111.847 944.931 115.221 C 951.102 113.666 949.706 109.727 955.108 103.551 z"/>
<path transform="translate(0,0)" fill="rgb(9,10,19)" d="M 283.957 134.196 C 276.635 140.657 272.862 133.211 272.009 140.772 C 271.702 143.492 272.088 142.975 270.15 144.75 L 267.906 143.963 C 264.015 138.397 264.867 124.87 268.779 119.098 C 274.541 115.42 280.122 116.994 284.747 121.815 C 284.878 126.029 285.237 130.167 283.957 134.196 z"/>
<path transform="translate(0,0)" fill="rgb(163,176,194)" d="M 916.915 114.159 C 921.347 113.917 924.398 113.769 928.069 116.302 C 931.282 119.84 929.282 127.063 931.133 132.011 C 932.212 134.895 933.928 134.35 933.925 137.093 L 932.578 138.334 C 928.258 139.155 926.54 134.948 925.458 135.514 C 920.835 137.932 920.2 138.962 914.323 138.648 C 902.092 125.614 923.289 125.039 925.534 120.734 C 920.014 115.926 916.677 121.651 912.324 119.742 C 913.279 116.683 914.251 116.573 916.915 114.159 z"/>
<path transform="translate(0,0)" fill="rgb(9,10,19)" d="M 317.768 132.992 C 315.511 136.503 311.309 138.241 307.231 137.352 C 303.153 136.462 300.057 133.132 299.466 129 C 298.876 124.868 300.915 120.804 304.581 118.808 C 308.247 116.812 312.767 117.303 315.917 120.041 C 319.666 123.299 320.454 128.815 317.768 132.992 z"/>
<path transform="translate(0,0)" fill="rgb(9,10,19)" d="M 255.613 111.475 C 258.27 111.406 257.581 111.481 260.206 112.838 L 260.561 114.784 C 257.755 117.6 256.131 116.499 251.115 117.257 L 250.137 119.049 C 251.943 121.262 256.553 121.76 260.02 122.802 L 260.195 124.378 C 254.908 128.62 251.861 123.342 249.961 129.552 L 250.914 131.164 L 253.088 131.173 C 256.034 131.383 259.078 131.594 261.094 133.836 L 260.245 135.411 C 254.751 137.984 250.199 137.336 244.207 137.051 C 244.252 128.759 241.981 119.538 245.735 113.229 C 249.565 110.837 250.642 111.593 255.613 111.475 z"/>
<path transform="translate(0,0)" fill="rgb(163,176,194)" d="M 1570.33 114.236 C 1576.01 113.894 1582.37 112.87 1584.96 119.087 C 1583.35 120.388 1574.93 119.542 1571.94 119.518 L 1572.53 121.529 C 1577.11 125.383 1583.73 124.707 1585.78 130.694 C 1585.4 134.159 1583.76 135.678 1581.53 138.329 C 1575.48 138.75 1571.26 138.764 1566.19 134.881 L 1566.46 133.242 C 1571.55 129.534 1575.84 137.707 1580.17 132.761 L 1579.82 130.289 C 1575.64 125.538 1569.61 128.444 1567.03 121.788 C 1567.07 118.598 1568.57 116.857 1570.33 114.236 z"/>
<path transform="translate(0,0)" fill="rgb(240,239,250)" d="M 284.747 121.815 C 289.594 116.416 284.055 113.67 289.114 110.124 L 291.488 110.098 C 296.328 115.063 295.333 131.839 293.619 138.138 C 285.58 140.07 289.238 135.94 283.957 134.196 C 285.237 130.167 284.878 126.029 284.747 121.815 z"/>
<path transform="translate(0,0)" fill="rgb(163,176,194)" d="M 1276.51 114.477 C 1289.68 112.595 1287.99 134.475 1284.79 137.714 C 1279.18 133.799 1285.18 124.684 1278.47 117.284 C 1277.96 117.387 1277.44 117.504 1276.93 117.636 C 1268.76 119.774 1272.65 132.376 1269.09 138.026 L 1268.11 137.462 C 1266.86 133.486 1265.43 117.927 1268.17 115.045 L 1273.36 116.49 L 1276.51 114.477 z"/>
<path transform="translate(0,0)" fill="rgb(163,176,194)" d="M 1240.33 114.143 C 1245.48 113.913 1251.15 114.054 1252.39 120.201 C 1249.45 121.283 1243.51 117.818 1241.86 118.912 C 1235.77 122.956 1237.85 130.768 1242.88 133.932 C 1245.97 134.427 1247.17 133.441 1249.77 131.845 L 1251.88 131.601 L 1252.43 133.342 C 1244.42 148.782 1222.3 129.109 1240.33 114.143 z"/>
<path transform="translate(0,0)" fill="rgb(163,176,194)" d="M 1550.8 114.022 C 1555.63 113.861 1560.53 114.194 1562.67 119.009 L 1561.88 121.001 C 1556.85 119.994 1556.08 118.325 1551.64 119.074 C 1546.81 123.006 1547.48 130.569 1552.94 133.817 C 1556.95 134.102 1555.85 134.037 1559.67 132.256 C 1560.78 131.491 1560.51 131.734 1562.18 131.816 L 1562.49 133.792 C 1555.09 148.155 1532.47 129.572 1550.8 114.022 z"/>
<path transform="translate(0,0)" fill="rgb(163,176,194)" d="M 708.406 108.394 L 710.767 109.719 C 711.038 110.187 713.982 114.887 713.992 114.73 C 713.406 123.885 705.363 129.121 716.941 135.989 C 715.798 137.646 713.877 138.144 711.993 138.838 C 703.439 136.61 709.859 122.649 705.629 117.909 C 703.87 115.938 706.981 113.39 708.406 108.394 z"/>
<path transform="translate(0,0)" fill="rgb(163,176,194)" d="M 903.114 103.686 L 905.044 104.807 C 907.475 108.232 906.422 133.746 905.664 138.824 C 904.393 138.181 902.713 137.672 902.494 136.391 C 901.475 130.42 901.126 108.603 903.114 103.686 z"/>
<path transform="translate(0,0)" fill="rgb(163,176,194)" d="M 1218.06 115.09 L 1219.26 114.657 L 1220.44 115.737 L 1220.02 117.509 L 1216.57 118.479 C 1210.92 124.289 1215.58 131.065 1212.6 138.913 C 1206.8 135.706 1209.05 122.584 1209.55 116.502 C 1209.76 113.996 1214.14 116.833 1217.85 115.185 L 1218.06 115.09 z"/>
<path transform="translate(0,0)" fill="rgb(163,176,194)" d="M 997.091 114.949 L 998.434 115.031 L 999.146 116.441 C 989.734 122.327 994.214 130.939 992.378 136.148 L 992.202 136.644 C 991.794 137.777 990.273 138.128 988.893 138.786 C 988.026 134.631 988.242 119.859 989.079 115.616 L 990.431 114.827 L 994.236 116.342 L 997.091 114.949 z"/>
<path transform="translate(0,0)" fill="rgb(163,176,194)" d="M 603.79 114.4 L 605.795 115.625 C 604.936 119.371 601.711 116.873 600.267 120.735 C 597.603 127.858 601.6 133.348 596.452 139.359 L 596.332 139.163 C 594.677 136.422 592.63 113.952 597.772 115.549 C 601.22 116.621 600.156 116.438 603.79 114.4 z"/>
<path transform="translate(0,0)" fill="rgb(163,176,194)" d="M 1258.1 113.8 C 1263.95 115.555 1261.69 133.504 1261.1 138.79 C 1258.47 137.912 1259.26 138.474 1257.55 136.344 C 1256.74 130.476 1256.37 119.408 1258.1 113.8 z"/>
<path transform="translate(0,0)" fill="rgb(163,176,194)" d="M 1225.45 114.238 C 1226.99 114.474 1227.57 114.918 1228.85 115.729 C 1230.13 120.416 1229.61 132.162 1229.63 137.739 L 1226.61 137.736 C 1223.73 133.442 1225.16 120.126 1225.45 114.238 z"/>
</svg>