<!-- RECRAFT VECTORIZE from logo/options-w3/mock/L2-liberation-navbar-light.png -->
<svg version="1.1" xmlns="http://www.w3.org/2000/svg" style="display: block;" viewBox="0 0 4096 256" width="4096" height="256" preserveAspectRatio="none">
<path transform="translate(0,0)" fill="rgb(255,255,255)" d="M 0 0 L 4096 0 L 4096 256 L 0 256 L 0 0 z"/>
<path transform="translate(0,0)" fill="rgb(66,55,201)" d="M 3680.91 61.8565 C 3683.63 59.9241 3849.92 60.7552 3867.05 60.7593 L 3927.21 60.7519 C 3936.24 60.752 3952.4 60.2989 3960.99 61.3772 C 3962.48 63.0932 3979.07 74.2388 3980.27 77.7383 C 3984.31 89.5547 3985.06 103.886 3984.07 117.032 C 3982.05 143.711 3993.12 170.993 3966.07 187.995 C 3963.13 189.842 3963.04 188.614 3960.83 191.422 C 3945.93 193.156 3682.86 191.805 3681.03 191.015 C 3679.43 188.788 3677.09 189.53 3675.83 188.29 C 3671.05 183.608 3661.65 177.32 3660.63 170.622 C 3660.41 169.228 3659.6 168.951 3658.42 167.919 C 3657.17 161.228 3656.94 88.3365 3658.9 84.9382 C 3661.5 82.946 3660.06 80.4807 3661.74 78.2938 C 3665.57 73.3024 3670.52 68.6285 3675.41 64.7077 C 3676.45 63.8735 3677.51 64.5511 3680.91 61.8565 z"/>
<path transform="translate(0,0)" fill="rgb(51,43,160)" d="M 3680.91 61.8565 C 3683.63 59.9241 3849.92 60.7552 3867.05 60.7593 L 3927.21 60.7519 C 3936.24 60.752 3952.4 60.2989 3960.99 61.3772 L 3959.96 64.4426 C 3959.67 64.5852 3701.96 66.3098 3683.07 64.8609 C 3681.01 63.5169 3681.48 64.2155 3680.91 61.8565 z"/>
<path transform="translate(0,0)" fill="rgb(51,43,160)" d="M 3681.03 191.015 L 3681.65 188.136 C 3683.72 187.061 3726.88 187.682 3732.41 187.685 L 3907.09 187.702 C 3914.19 187.702 3957.67 186.556 3960.17 188.942 L 3960.83 191.422 C 3945.93 193.156 3682.86 191.805 3681.03 191.015 z"/>
<path transform="translate(0,0)" fill="rgb(51,43,160)" d="M 3658.42 167.919 C 3657.17 161.228 3656.94 88.3365 3658.9 84.9382 L 3661.32 86.3111 C 3662.64 92.6078 3662.6 163.644 3660.48 167.005 L 3658.42 167.919 z"/>
<path transform="translate(0,0)" fill="rgb(255,255,255)" d="M 3903.59 133.863 C 3902.91 134.612 3902.19 135.323 3901.44 135.994 C 3884.86 150.499 3872.21 111.191 3897.66 114.351 C 3900.76 116.041 3903.17 120.103 3905.25 123.09 C 3908.7 121.08 3906.9 110.92 3919.21 115.143 C 3922.76 116.364 3920.56 107.567 3923.82 104.423 L 3925.52 104.622 L 3926.89 107.48 C 3927.55 113.426 3928.18 131.836 3927.09 137.483 C 3926.21 137.995 3913.32 139.642 3911.46 139.485 C 3908.24 137.689 3905.32 134.065 3903.59 133.863 z"/>
<path transform="translate(0,0)" fill="rgb(84,73,206)" d="M 3905.71 127.431 C 3906.61 132.822 3907.92 134.388 3911.52 138.131 C 3918.35 140.307 3916.78 135.985 3922.71 136.835 C 3923.93 137.01 3924.66 137.016 3925.8 136.634 C 3926.84 132.525 3926.09 114.521 3926.89 107.48 C 3927.55 113.426 3928.18 131.836 3927.09 137.483 C 3926.21 137.995 3913.32 139.642 3911.46 139.485 C 3908.24 137.689 3905.32 134.065 3903.59 133.863 C 3900.24 129.709 3897.97 135.553 3891.97 134.14 C 3889.15 132.239 3889.94 133.189 3888.49 130.131 L 3889.56 128.578 C 3895.21 128.445 3900.11 127.976 3905.71 127.431 z"/>
<path transform="translate(0,0)" fill="rgb(51,43,160)" d="M 3915.29 117.33 C 3916.15 117.68 3917.76 118.806 3918.6 119.357 C 3921.45 125.911 3921.63 129.942 3916.78 135.551 C 3907.56 131.325 3909.4 123.553 3915.29 117.33 z"/>
<path transform="translate(0,0)" fill="rgb(255,255,255)" d="M 3727.74 120.387 C 3730.88 120.496 3737.09 120.149 3739.31 122.62 C 3742.52 126.194 3742.07 130.149 3738.73 133.543 C 3735.36 136.911 3730.79 138.807 3726.02 138.818 C 3716.72 138.81 3710.43 129.952 3710.48 121.276 C 3710.5 116.443 3712.46 111.821 3715.93 108.45 C 3723.99 100.585 3738.68 102.885 3738.45 113.236 L 3735.84 115.034 C 3739.05 118.439 3743.61 115.609 3745.09 119.498 C 3743.74 123.967 3743.12 125.543 3743.77 130.138 L 3742.95 129.832 C 3742.73 126.396 3742.62 122.953 3742.64 119.51 C 3738.32 119.502 3731.69 119.179 3727.74 120.387 z"/>
<path transform="translate(0,0)" fill="rgb(51,43,160)" d="M 3727.74 120.387 L 3727.29 122.585 C 3729.51 126.334 3734.7 124.114 3736.66 129.036 C 3734.66 132.08 3727.78 135.638 3724.48 134.706 C 3708.31 130.138 3719.3 91.6524 3735.84 115.034 C 3739.05 118.439 3743.61 115.609 3745.09 119.498 C 3743.74 123.967 3743.12 125.543 3743.77 130.138 L 3742.95 129.832 C 3742.73 126.396 3742.62 122.953 3742.64 119.51 C 3738.32 119.502 3731.69 119.179 3727.74 120.387 z"/>
<path transform="translate(0,0)" fill="rgb(255,255,255)" d="M 3853.33 136.105 C 3852.74 137.505 3851.83 137.882 3850.53 138.644 C 3850.27 138.622 3848.31 138.458 3848.31 138.458 C 3840.64 132.593 3845.29 137.205 3838.33 139.398 C 3832.36 138.731 3828.75 136.609 3828.72 130.197 C 3832.24 123.033 3836.3 126.212 3843.65 122.803 L 3843.72 120.767 C 3838.14 115.28 3835.44 122.088 3830.67 120.268 L 3830.88 118.337 C 3834.18 114.29 3840.07 112.121 3844.9 114.812 C 3850.34 120.488 3849.12 126.57 3850.25 134.009 L 3853.33 136.105 z"/>
<path transform="translate(0,0)" fill="rgb(255,255,255)" d="M 3752.62 114.11 C 3759.85 113.803 3766.31 116.198 3767.52 124.184 C 3763.44 129.855 3756.43 127.674 3751.12 130.397 C 3753.01 136.053 3758.59 134.067 3762.81 132.744 C 3763.79 131.974 3763.52 132.206 3765.05 132.268 L 3765.29 133.762 C 3757.51 147.901 3733.58 129.95 3752.62 114.11 z"/>
<path transform="translate(0,0)" fill="rgb(255,255,255)" d="M 3798.48 114.079 C 3804.55 113.832 3808.27 113.365 3812.05 119.071 L 3810.99 120.015 C 3807.18 119.797 3803.38 119.489 3799.58 119.091 L 3798.79 120.455 C 3803.58 126.244 3812.31 124.346 3813.17 132.219 C 3811.61 135.519 3810.54 136.239 3807.75 138.519 C 3802.58 138.699 3795.64 139.383 3793.92 133.016 C 3796.08 131.847 3803.36 133.479 3807.63 133.384 L 3808.31 132.093 C 3805.68 126.108 3796.58 128.547 3793.96 121.305 C 3794.53 117.792 3796.03 116.609 3798.48 114.079 z"/>
<path transform="translate(0,0)" fill="rgb(255,255,255)" d="M 3819.29 107.61 C 3820.95 108.504 3825.69 114.716 3823.95 117.848 C 3818.72 127.257 3822.75 131.918 3827.5 137.945 C 3822.71 138.314 3823.51 138.937 3819.7 136.918 C 3814.63 130.103 3814.86 114.947 3819.29 107.61 z"/>
<path transform="translate(0,0)" fill="rgb(255,255,255)" d="M 3871.56 114.289 C 3872.56 110.393 3871.88 110.883 3874.55 108.153 C 3876.9 110.884 3874.88 112.17 3877.51 113.611 C 3878.51 114.154 3879.38 114.87 3880.24 115.607 C 3877.73 123.29 3874.41 120.834 3876.11 132.493 L 3880.7 135.99 L 3880.4 137.513 C 3877.39 138.774 3878.49 138.728 3875.48 137.997 C 3868.38 130.914 3875.44 123.264 3867.82 115.059 L 3871.56 114.289 z"/>
<path transform="translate(0,0)" fill="rgb(255,255,255)" d="M 3774.37 107.678 L 3776.11 108.976 C 3776.71 115.544 3784.12 111.864 3776.63 123.514 C 3774.39 127.007 3779.44 133.644 3782.51 137.357 C 3780.02 138.337 3779.11 138.219 3776.43 138.098 C 3768.25 133.158 3776.13 124.751 3770.42 117.102 C 3770.57 114.739 3772.96 111.68 3774.37 107.678 z"/>
<path transform="translate(0,0)" fill="rgb(255,255,255)" d="M 3860.16 115.832 C 3863.03 114.472 3863.69 114.399 3866.84 114.712 C 3864.82 119.728 3857.27 122.32 3859.15 133.293 C 3859.38 134.642 3859.26 136.561 3858.23 137.535 C 3855.27 133.249 3853.29 118.319 3857.45 114.901 L 3860.16 115.832 z"/>
<path transform="translate(0,0)" fill="rgb(51,43,160)" d="M 3860.16 115.832 C 3859 110.747 3857.95 114.472 3855.53 111.181 C 3859.61 109.936 3866.33 108.427 3870.39 110.321 L 3871.56 114.289 L 3867.82 115.059 L 3866.84 114.712 C 3863.69 114.399 3863.03 114.472 3860.16 115.832 z"/>
<path transform="translate(0,0)" fill="rgb(51,43,160)" d="M 3909.05 140.427 C 3913.36 139.87 3922.05 139.76 3926.25 140.659 L 3927.48 142.597 C 3921.98 142.464 3912.22 144.724 3909.05 140.427 z"/>
<path transform="translate(0,0)" fill="rgb(51,43,160)" d="M 3850.25 134.009 C 3852.5 126.737 3851.03 123.326 3853.16 116.95 C 3854.13 121.701 3854.17 131.346 3853.33 136.105 L 3850.25 134.009 z"/>
<path transform="translate(0,0)" fill="rgb(51,43,160)" d="M 3718.31 140.525 C 3723.37 139.802 3732.05 138.698 3735.61 142.439 C 3732.76 142.626 3729.91 142.772 3727.05 142.878 C 3722.94 142.998 3721.04 143.088 3718.31 140.525 z"/>
<path transform="translate(0,0)" fill="rgb(51,43,160)" d="M 3795.57 140.462 C 3800.27 140.09 3807.87 138.366 3810.52 142.496 C 3806.04 142.788 3798.02 144.311 3795.57 140.462 z"/>
<path transform="translate(0,0)" fill="rgb(51,43,160)" d="M 3768.67 118.445 L 3770.62 120.166 C 3771.09 123.41 3771.47 131.438 3769.56 134.085 L 3768.92 133.469 C 3768.44 129.363 3768.55 122.687 3768.67 118.445 z"/>
<path transform="translate(0,0)" fill="rgb(51,43,160)" d="M 3750.12 140.422 C 3754.65 140.006 3760.98 138.456 3763.53 142.518 C 3758.81 142.911 3753.19 144.234 3750.12 140.422 z"/>
<path transform="translate(0,0)" fill="rgb(51,43,160)" d="M 3749.39 110.529 C 3753.76 109.965 3760.5 108.862 3764.19 111.681 C 3759.55 113.308 3753.3 113.707 3749.39 110.529 z"/>
<path transform="translate(0,0)" fill="rgb(51,43,160)" d="M 3887.56 140.452 C 3890.9 140.112 3897.12 139.474 3900.04 140.724 L 3900.44 142.477 C 3895.65 142.901 3893.43 143.222 3888.73 142.302 L 3887.56 140.452 z"/>
<path transform="translate(0,0)" fill="rgb(51,43,160)" d="M 3830.83 140.419 C 3835.22 139.956 3840.04 138.527 3842.53 142.517 C 3837.74 142.95 3834.23 144.055 3830.83 140.419 z"/>
<path transform="translate(0,0)" fill="rgb(51,43,160)" d="M 3817.82 140.441 C 3821.18 139.982 3823.02 139.543 3826.31 140.512 L 3827.1 142.603 C 3823.8 142.913 3821.98 143.245 3818.75 142.319 L 3817.82 140.441 z"/>
<path transform="translate(0,0)" fill="rgb(51,43,160)" d="M 134.562 155.978 C 134.078 142.842 134.546 127.589 134.112 114.392 C 132.163 75.5457 159.69 88.2747 185.598 85.7955 C 196.627 84.7402 202.561 85.9901 210.232 93.8074 C 216.202 105.046 213.784 116.787 213.944 129.192 C 214.086 140.179 216.565 162.099 204.556 167.366 C 196.044 171.1 155.136 171.697 147.448 169.253 C 146.175 168.843 144.932 168.344 143.729 167.758 C 139.038 163.976 137.434 161.038 134.562 155.978 z"/>
<path transform="translate(0,0)" fill="rgb(38,34,122)" d="M 134.562 155.978 C 134.078 142.842 134.546 127.589 134.112 114.392 C 132.163 75.5457 159.69 88.2747 185.598 85.7955 C 196.627 84.7402 202.561 85.9901 210.232 93.8074 C 209.949 96.8279 210.4 97.5016 208.657 99.5627 C 206.291 97.8468 204.375 94.4847 202.055 91.9748 C 185.039 91.8858 167.693 91.5816 150.987 91.6217 C 142.072 91.6432 137.627 104.168 138.928 110.463 C 142.189 126.237 128.707 164.554 155.129 161.805 C 171.487 160.102 186.095 160.864 201.311 161.709 C 193.253 164.227 149.005 162.089 147.438 163.667 C 156.018 165.623 187.464 162.631 198.036 164.559 C 198.81 165.347 199.466 166.016 200.006 166.566 L 199.244 167.816 C 188.426 167.112 154.647 166.932 143.729 167.758 C 139.038 163.976 137.434 161.038 134.562 155.978 z"/>
<path transform="translate(0,0)" fill="rgb(255,255,255)" d="M 158.512 107.198 C 165.133 107.034 181.755 106.081 188.286 107.894 C 189.452 108.218 189.523 109.793 189.83 111.107 C 185.974 118.303 170.966 108.739 165.624 118.048 C 166.552 131.499 185.359 118.843 188.557 127.598 C 185.178 135.247 172.533 127.913 166.823 132.518 L 166.664 132.649 L 166.743 140.325 C 174.55 145.966 189.958 136.951 191.455 146.202 C 187.508 150.872 165.658 148.891 158.512 148.802 C 159.208 136.782 158.898 119.278 158.512 107.198 z"/>
<path transform="translate(0,0)" fill="rgb(38,34,122)" d="M 153.4 106.482 L 154.908 107.198 C 156.741 110.721 155.673 143.719 155.567 149.515 L 154.074 148.804 C 151.792 145.25 152.901 112.457 153.4 106.482 z"/>
<path transform="translate(0,0)" fill="rgb(38,34,122)" d="M 157.718 152.511 C 165.656 152.132 183.357 151.096 190.297 152.564 L 191.57 154.595 C 184.45 156.085 163.139 157.619 157.718 152.511 z"/>
<path transform="translate(0,0)" fill="rgb(38,34,122)" d="M 166.664 132.649 C 167.133 132.713 170.851 133.213 170.863 133.221 C 177.052 137.544 182.971 137.452 190.573 138.042 L 190.257 138.638 C 180.497 140.115 175.133 139.412 166.743 140.325 L 166.664 132.649 z"/>
<path transform="translate(0,0)" fill="rgb(38,34,122)" d="M 168.164 115.976 C 173.404 116.238 186.808 115.388 190.185 117.838 L 189.527 118.931 C 183.905 118.968 171.76 121.054 169.559 120.5 L 168.164 115.976 z"/>
<path transform="translate(0,0)" fill="rgb(29,32,44)" d="M 246.485 111.139 C 252.431 110.457 257.764 109.103 263.026 111.779 C 264.735 115.033 263.952 116.015 266.122 116.921 L 266.324 117.051 C 272.091 120.693 279.639 114.205 282.168 122.831 C 283.134 126.127 282.942 131.901 281.194 135.047 C 275.18 138.596 271.536 134.776 269.711 144.664 C 266.786 145.333 267.851 145.372 264.889 144.074 L 263.458 138.98 L 262.256 138.334 L 242.807 137.79 C 242.507 130.34 240.058 115.417 246.485 111.139 z"/>
<path transform="translate(0,0)" fill="rgb(29,32,44)" d="M 266.122 116.921 L 266.324 117.051 C 272.091 120.693 279.639 114.205 282.168 122.831 C 283.134 126.127 282.942 131.901 281.194 135.047 C 275.18 138.596 271.536 134.776 269.711 144.664 C 266.786 145.333 267.851 145.372 264.889 144.074 C 266.28 136.526 264.432 122.61 266.122 116.921 z"/>
<path transform="translate(0,0)" fill="rgb(255,255,255)" d="M 246.485 111.139 C 252.431 110.457 257.764 109.103 263.026 111.779 C 264.735 115.033 263.952 116.015 266.122 116.921 C 264.432 122.61 266.28 136.526 264.889 144.074 L 263.458 138.98 L 262.256 138.334 L 261.708 134.987 C 258.836 132.461 252.683 132.964 247.717 130.099 L 248.562 128.611 C 249.337 128.525 250.11 128.423 250.881 128.305 C 253.961 127.835 258.298 126.801 260.213 124.187 C 258.143 121.056 252.639 123.822 248.174 120.852 L 248.259 118.586 C 250.401 116.657 256.496 117.132 260.36 116.645 L 261.603 115.04 L 260.993 113.067 C 258.399 111.2 250.156 111.368 246.485 111.139 z"/>
<path transform="translate(0,0)" fill="rgb(163,176,193)" d="M 1478.79 104.221 C 1483.66 104.002 1489.55 104.089 1494.51 104.044 C 1496.03 104.954 1497.76 106.029 1499.15 107.117 C 1502.76 109.96 1505.1 114.124 1505.64 118.69 C 1506.32 124.356 1504.44 129.632 1500.95 134.038 C 1493.08 140.21 1488.64 138.751 1478.41 138.274 C 1478.29 130.275 1477.78 111.593 1478.79 104.221 z"/>
<path transform="translate(0,0)" fill="rgb(255,255,255)" d="M 1483.82 108.209 C 1500.17 107.606 1506.75 119.869 1496.73 131.946 C 1496.27 132.363 1495.76 132.725 1495.22 133.025 C 1479.58 141.496 1481.58 115.502 1483.82 108.209 z"/>
<path transform="translate(0,0)" fill="rgb(163,176,193)" d="M 1287.99 113.963 C 1308.54 113.98 1302.4 124.575 1302.59 141.128 C 1296.84 149.829 1291.79 151.615 1283.38 144.823 L 1283.44 142.547 C 1287.73 139.969 1290.26 146.867 1296.51 142.169 C 1297.29 140.255 1298.03 139.012 1297.32 137.081 C 1292.37 138.196 1287.02 139.728 1283.75 135.042 C 1278.54 127.588 1282.07 119 1287.99 113.963 z"/>
<path transform="translate(0,0)" fill="rgb(255,255,255)" d="M 1290.72 117.298 C 1300.21 120.749 1298.23 127.853 1294.27 134.68 C 1283.38 133.737 1284.48 123.065 1290.72 117.298 z"/>
<path transform="translate(0,0)" fill="rgb(163,176,193)" d="M 652.941 113.438 C 660.651 115.396 654.603 126.566 657.604 132.512 C 660.777 134.399 659.454 133.945 663.435 133.986 C 668.881 129.381 664.607 123.089 666.647 115.722 C 669.035 113.84 668.036 114.246 671.124 114.014 C 672.591 115.934 672.372 117.85 672.706 120.532 L 673.791 120.629 L 679.801 114.652 C 684.817 113.161 689.862 114.125 692.265 119.246 C 686.66 121.991 685.038 114.804 678.403 122.378 C 678.431 125.749 678.539 127.052 679.176 130.364 C 684.238 136.256 687.098 130.951 692.204 132.276 C 692.438 136.194 691.44 137.452 688.373 139.343 C 682.908 139.972 677.929 135.811 673.788 132.664 L 672.511 133.1 L 672.578 137.835 C 652.917 138.77 647.44 134.703 652.941 113.438 z"/>
<path transform="translate(0,0)" fill="rgb(163,176,193)" d="M 643.036 103.746 C 644.338 104.368 645.781 104.738 646.013 106.144 C 647.009 112.18 647.614 131.92 645.504 137.137 C 640.968 137.811 636.407 138.31 631.832 138.632 C 624.43 132.662 623.277 123.658 628.739 116.764 C 633.996 110.129 641.363 119.167 641.489 112.448 C 641.552 109.055 641.446 107.112 643.036 103.746 z"/>
<path transform="translate(0,0)" fill="rgb(255,255,255)" d="M 634.644 117.259 C 644.649 119.89 641.818 128.284 638.552 134.962 C 635.626 134.557 634.75 134.477 632.353 132.679 C 628.64 126.91 629.877 121.889 634.644 117.259 z"/>
<path transform="translate(0,0)" fill="rgb(163,176,193)" d="M 557.091 104.252 C 565.393 103.759 577.762 102.136 581.353 112.209 C 580.481 122.409 569.877 121.956 562.2 121.76 C 560.055 125.544 564.276 131.171 560.003 137.675 L 558.55 137.505 C 555.56 132.105 556.521 110.974 557.091 104.252 z"/>
<path transform="translate(0,0)" fill="rgb(255,255,255)" d="M 562.111 108.332 C 565.85 108.219 571.961 107.448 574.654 109.686 C 576.421 112.34 575.944 113.988 575.521 117.089 C 573.454 117.265 571.383 117.407 569.311 117.515 C 566.469 117.651 564.42 117.806 562.239 115.825 C 560.979 113.18 561.6 111.178 562.111 108.332 z"/>
<path transform="translate(0,0)" fill="rgb(163,176,193)" d="M 864.284 104.283 C 866.923 104.11 869.565 103.979 872.208 103.89 C 879.701 103.634 888.246 105.767 888.444 114.676 C 885.104 122.337 877.15 121.943 870.163 121.764 C 866.398 127.48 872.538 136.69 865.536 137.968 L 864.061 136.451 C 863.69 128.656 863.592 111.708 864.284 104.283 z"/>
<path transform="translate(0,0)" fill="rgb(255,255,255)" d="M 869.465 108.241 C 873.436 108.172 879.26 107.412 882.112 109.882 C 883.461 113.522 882.924 113.128 882.223 117.293 C 877.04 117.582 873.022 118.529 869.092 115.494 C 868.244 112.546 868.753 111.141 869.465 108.241 z"/>
<path transform="translate(0,0)" fill="rgb(163,176,193)" d="M 1171.66 104.198 C 1180.12 103.761 1191.92 102.343 1196 112.071 C 1195.45 121.91 1184.61 121.969 1177.19 121.757 C 1173.91 126.041 1178.39 131.699 1174.85 137.849 L 1172.92 138.024 L 1171.28 136.014 C 1170.77 130.594 1170.84 109.252 1171.66 104.198 z"/>
<path transform="translate(0,0)" fill="rgb(255,255,255)" d="M 1176.64 108.271 C 1181.93 108.104 1185.44 107.349 1189.53 110.154 C 1190.77 112.911 1190.11 114.473 1189.33 117.326 C 1184.57 117.576 1179.53 118.668 1176.05 115.117 C 1175.6 112.047 1175.87 111.172 1176.64 108.271 z"/>
<path transform="translate(0,0)" fill="rgb(163,176,193)" d="M 958.653 114.181 C 960.097 114.092 961.544 114.06 962.99 114.085 C 976.379 114.432 976.722 129.685 967.12 138.456 C 950.212 139.493 947.238 124.29 958.653 114.181 z"/>
<path transform="translate(0,0)" fill="rgb(255,255,255)" d="M 960.575 117.618 C 971.697 118.93 970.626 127.913 965.172 134.911 C 962.205 134.547 961.659 134.384 959.127 132.799 C 954.895 127.284 956.466 122.573 960.575 117.618 z"/>
<path transform="translate(0,0)" fill="rgb(163,176,193)" d="M 606.652 114.161 C 623.875 113.199 626.772 128.484 614.726 138.602 C 613.516 138.659 612.305 138.66 611.096 138.607 C 597.648 137.928 596.88 122.829 606.652 114.161 z"/>
<path transform="translate(0,0)" fill="rgb(255,255,255)" d="M 608.584 117.638 C 610.57 117.876 612.452 118.183 614.086 119.429 C 615.767 120.698 616.853 122.602 617.088 124.695 C 617.551 128.949 615.646 131.731 613.17 134.884 C 610.212 134.526 609.663 134.369 607.133 132.801 C 602.904 127.295 604.488 122.586 608.584 117.638 z"/>
<path transform="translate(0,0)" fill="rgb(163,176,193)" d="M 1515.58 114.127 C 1516.91 114.066 1518.25 114.047 1519.58 114.07 C 1532.99 114.37 1533.68 129.491 1523.88 138.534 C 1506.77 139.087 1504.13 124.295 1515.58 114.127 z"/>
<path transform="translate(0,0)" fill="rgb(255,255,255)" d="M 1517.59 117.531 C 1528.41 118.992 1527.35 127.947 1522.1 134.798 C 1510.97 133.786 1511.71 124.291 1517.59 117.531 z"/>
<path transform="translate(0,0)" fill="rgb(163,176,193)" d="M 1000.56 114.393 C 1009.76 113.995 1004.29 118.536 1018.41 114.447 C 1025.81 116.596 1025.03 135.694 1022.02 137.879 L 1019.82 137.338 C 1017.96 133.692 1019.16 125.909 1018.14 120.455 C 1015.41 118.123 1016.64 118.695 1012.95 118.249 L 1011.57 119.364 C 1009.68 124.79 1009.71 126.466 1009.7 132.246 C 1010.55 135.249 1009.35 136.461 1007.34 138.098 L 1005.7 137.426 C 1003.56 132.264 1006.16 126.369 1004.37 119.746 C 1001.52 117.83 1002.7 118.155 999.352 118.188 C 994.157 122.001 997.583 133.075 994.377 138.083 L 992.514 137.407 C 991.631 133.499 991.179 120.816 990.921 116.168 C 994.29 113.19 994.213 118.133 1000.56 114.393 z"/>
<path transform="translate(0,0)" fill="rgb(163,176,193)" d="M 945.462 103.439 L 949.456 104.587 L 950.22 106.482 C 949.188 108.1 947.41 109.333 945.883 110.523 L 945.709 112.562 C 947.709 113.58 948.556 113.951 950.188 115.487 C 949.606 118.971 949.293 116.947 947.179 118.813 C 942.6 122.855 949.886 134.605 943.01 137.983 C 937.009 134.118 945.131 121.521 937.854 117.36 C 932.657 118.143 932.542 119.337 932.252 123.752 C 931.574 131.213 936.765 135.357 934.172 138.637 C 931.941 138.596 931.416 138.09 929.616 136.75 C 926.37 130.025 926.053 117.184 928.086 109.986 C 931.48 107.224 931.482 114.011 938.051 114.65 C 940.364 113.31 941.782 107.827 945.462 103.439 z"/>
<path transform="translate(0,0)" fill="rgb(163,176,193)" d="M 907.441 114.215 C 926.404 113.011 917.499 123.87 922.88 134.066 C 923.866 135.935 923.768 134.63 924.211 137.181 L 922.623 138.703 C 919.166 138.967 916.612 135.134 915.944 135.48 C 911.255 137.911 910.4 139.023 904.592 138.555 C 902.526 135.897 901.273 134.659 901.067 131.246 C 903.558 124.102 908.346 126.37 915.218 121.801 L 915.086 120.121 C 910.99 117.387 906.872 121.469 902.137 120.064 C 903.38 116.838 904.5 116.675 907.441 114.215 z"/>
<path transform="translate(0,0)" fill="rgb(29,32,44)" d="M 300.05 118.892 C 303.335 117.346 307.203 117.726 310.124 119.881 C 313.045 122.037 314.549 125.621 314.041 129.216 C 313.533 132.811 311.094 135.837 307.69 137.098 C 302.726 138.938 297.194 136.538 295.146 131.656 C 293.097 126.775 295.26 121.146 300.05 118.892 z"/>
<path transform="translate(0,0)" fill="rgb(29,32,44)" d="M 315.225 117.31 C 323.388 120.114 317.657 122.677 321.27 127.325 C 323.568 126.809 324.196 122.058 327.324 118.259 C 329.876 119.024 332.015 124.302 333.663 127.236 C 337.463 126.923 334.11 121.471 337.995 118.272 L 340.313 118.628 C 341.306 121.567 339.871 125.306 339.11 128.731 L 338.997 129.216 C 338.113 132.952 337.639 135.659 334.507 137.599 L 332.689 136.482 C 329.57 132.505 329.01 126.946 328.104 121.95 C 326.467 127.545 327.357 132.884 322.146 136.635 C 316.123 135.974 314.772 121.978 315.225 117.31 z"/>
<path transform="translate(0,0)" fill="rgb(163,176,193)" d="M 1561.49 114.079 C 1568.2 113.753 1571.2 113.273 1575.59 119.258 C 1573.33 120.575 1566.52 119.251 1562.9 119.017 L 1562.01 119.985 C 1565.35 125.868 1572.32 123.4 1576.52 130.917 C 1575.85 135.008 1574.14 136.078 1570.75 138.567 C 1566.83 138.729 1565.41 138.679 1561.54 138.068 C 1558.95 136.059 1557.91 135.931 1556.87 133.192 C 1558.42 132.223 1567.3 133.212 1570.75 133.121 L 1571.33 131.56 C 1566.48 125.792 1558.74 128.042 1557.25 120.801 C 1558.07 117.453 1559.16 116.533 1561.49 114.079 z"/>
<path transform="translate(0,0)" fill="rgb(163,176,193)" d="M 1266.72 114.503 C 1279.82 113.54 1278.95 132.662 1275.29 137.804 L 1273.99 137.261 C 1270.32 128.255 1275.63 123.569 1267.12 117.032 C 1258.18 120.438 1264.25 133.256 1259.97 137.951 L 1258.04 137.789 C 1256.39 135.482 1256.96 120.399 1257.42 116.89 C 1260.64 114.62 1261.13 117.683 1266.72 114.503 z"/>
<path transform="translate(0,0)" fill="rgb(163,176,193)" d="M 1230.75 114.022 C 1236.28 113.825 1239.83 114.795 1243.41 119.344 L 1242.87 120.345 C 1238.38 121.174 1240.08 120.629 1235.07 118.242 C 1226.94 119.713 1226.71 129.59 1232.95 133.91 C 1236 134.456 1237.02 133.72 1239.65 132.273 C 1240.77 131.413 1240.56 131.68 1242.25 131.751 L 1242.55 133.78 C 1235.4 148.055 1212.45 129.845 1230.75 114.022 z"/>
<path transform="translate(0,0)" fill="rgb(163,176,193)" d="M 1541.18 114.121 C 1548 114.042 1548.76 113.466 1553.07 118.768 L 1552.89 120.419 C 1552.56 120.56 1552.35 120.634 1552 120.731 L 1551.83 120.777 C 1547.94 121.849 1546.15 118.113 1540.85 119.469 C 1538.02 123.508 1538.77 130.024 1542.24 133.602 C 1546.6 134.401 1545.26 134.294 1549.55 132.71 L 1550.35 131.548 L 1552.26 131.944 C 1552.6 134.919 1552.67 133.869 1550.98 136.869 C 1539.15 144.917 1525.84 126.647 1541.18 114.121 z"/>
<path transform="translate(0,0)" fill="rgb(163,176,193)" d="M 699.247 107.585 C 703.023 110.394 699.575 110.353 704.384 114.328 C 707.645 117.023 701.27 119.875 701.411 124.237 C 701.678 132.44 703.075 132.125 707.213 136.994 C 704.499 138.408 702.874 138.708 699.989 137.756 C 694.928 133.614 698.823 122.579 697.519 120.231 C 693.751 113.444 695.612 116.945 699.247 107.585 z"/>
<path transform="translate(0,0)" fill="rgb(163,176,193)" d="M 893.073 103.54 L 895.385 104.533 C 898.158 108.226 896.791 133.18 896.355 138.778 L 893.391 137.571 C 891.194 133.638 891.909 108.534 893.073 103.54 z"/>
<path transform="translate(0,0)" fill="rgb(163,176,193)" d="M 593.971 115.186 L 594.988 114.742 L 596.361 115.425 C 595.744 118.702 591.668 118.085 590.331 121.485 C 587.403 128.931 592.32 131.622 587.49 139.322 C 583.852 135.686 584.808 121.626 585.508 116.464 C 587.897 113.133 588.293 117.685 593.769 115.277 L 593.971 115.186 z"/>
<path transform="translate(0,0)" fill="rgb(163,176,193)" d="M 1208.4 114.912 C 1208.94 114.705 1209.78 114.977 1210.45 115.096 C 1211.09 118.475 1205.35 118.063 1204.16 122.679 C 1202.64 128.617 1205.56 133.635 1202.55 139.253 C 1197.91 135.702 1199.4 122.202 1200.05 116.735 C 1200.33 114.412 1204.05 116.904 1208.4 114.912 z"/>
<path transform="translate(0,0)" fill="rgb(163,176,193)" d="M 987.221 114.881 L 988.835 115.036 L 989.429 116.621 C 985.345 119.94 984.018 118.494 983.251 124.871 C 982.686 129.566 984.156 135.454 981.534 139.343 C 977.434 136.007 978.23 121.56 979.151 116.486 C 981.27 113.861 982.099 117.398 987.221 114.881 z"/>
<path transform="translate(0,0)" fill="rgb(163,176,193)" d="M 1249.23 113.752 C 1250.14 114.192 1250.91 115.256 1251.58 116.048 C 1252.41 121.81 1252.28 133.046 1251.36 138.808 C 1248.88 137.834 1249.52 138.415 1248.03 136.371 C 1247.27 131.093 1246.33 118.088 1249.23 113.752 z"/>
<path transform="translate(0,0)" fill="rgb(163,176,193)" d="M 1217.17 113.694 C 1221.88 115.926 1220.51 135.443 1218.59 139.265 C 1213.61 135.762 1214.55 117.888 1217.17 113.694 z"/>
<path transform="translate(0,0)" fill="rgb(29,32,44)" d="M 287.832 117.472 C 293.958 119.409 291.395 132.843 290.897 138.081 C 288.012 137.304 288.877 137.894 287.111 135.458 C 286.213 130.834 286.227 121.93 287.832 117.472 z"/>
</svg>