<!-- RECRAFT VECTORIZE from logo/options-w3/mock/T1-dejavu-bold-navbar-light.png -->
<svg version="1.1" xmlns="http://www.w3.org/2000/svg" style="display: block;" viewBox="0 0 4096 256" width="4096" height="256" preserveAspectRatio="none">
<path transform="translate(0,0)" fill="rgb(255,255,255)" d="M 0 0 L 4096 0 L 4096 256 L 0 256 L 0 0 z"/>
<path transform="translate(0,0)" fill="rgb(66,55,201)" d="M 3680.91 61.8566 C 3683.63 59.9241 3849.92 60.7553 3867.05 60.7593 L 3927.21 60.7519 C 3936.24 60.752 3952.4 60.2989 3960.99 61.3772 C 3962.48 63.0932 3979.07 74.2388 3980.27 77.7383 C 3984.31 89.5547 3985.06 103.886 3984.07 117.032 C 3982.05 143.711 3993.12 170.993 3966.07 187.995 C 3963.13 189.842 3963.04 188.614 3960.83 191.422 C 3945.93 193.156 3682.86 191.805 3681.03 191.015 C 3679.43 188.788 3677.09 189.53 3675.83 188.29 C 3671.05 183.608 3661.65 177.32 3660.63 170.622 C 3660.41 169.228 3659.6 168.951 3658.42 167.919 C 3657.17 161.228 3656.94 88.3365 3658.9 84.9382 C 3661.5 82.946 3660.06 80.4807 3661.74 78.2938 C 3665.57 73.3024 3670.52 68.6285 3675.41 64.7077 C 3676.45 63.8735 3677.51 64.5511 3680.91 61.8566 z"/>
<path transform="translate(0,0)" fill="rgb(53,40,197)" d="M 3680.91 61.8566 C 3683.63 59.9241 3849.92 60.7553 3867.05 60.7593 L 3927.21 60.7519 C 3936.24 60.752 3952.4 60.2989 3960.99 61.3772 L 3959.96 64.4426 C 3959.67 64.5852 3701.96 66.3097 3683.07 64.8609 C 3681.01 63.5169 3681.48 64.2155 3680.91 61.8566 z"/>
<path transform="translate(0,0)" fill="rgb(53,40,197)" d="M 3681.03 191.015 L 3681.65 188.136 C 3683.72 187.061 3726.88 187.682 3732.41 187.685 L 3907.09 187.702 C 3914.19 187.702 3957.67 186.556 3960.17 188.942 L 3960.83 191.422 C 3945.93 193.156 3682.86 191.805 3681.03 191.015 z"/>
<path transform="translate(0,0)" fill="rgb(53,40,197)" d="M 3658.42 167.919 C 3657.17 161.228 3656.94 88.3365 3658.9 84.9382 L 3661.32 86.3111 C 3662.64 92.6078 3662.6 163.644 3660.48 167.005 L 3658.42 167.919 z"/>
<path transform="translate(0,0)" fill="rgb(255,255,255)" d="M 3903.58 133.853 C 3901.22 136.411 3898.74 138.432 3895.2 138.559 C 3872.56 139.366 3886.91 98.5875 3902.31 119.019 C 3903.75 120.931 3903.48 122.204 3905.94 123.139 C 3908.25 114.093 3911.13 114.264 3919.8 114.876 C 3923.64 111.559 3919.81 108.54 3923.91 104.433 L 3925.85 105.111 L 3926.89 107.479 C 3927.55 113.426 3928.18 131.832 3927.09 137.483 C 3926.21 137.995 3913.32 139.641 3911.46 139.484 C 3908.22 137.683 3905.32 134.064 3903.58 133.853 z"/>
<path transform="translate(0,0)" fill="rgb(53,40,197)" d="M 3905.72 127.419 C 3907.05 134.01 3909.13 139.574 3917 137.742 C 3919.84 137.081 3922.91 138.566 3925.84 136.275 C 3926.92 132.055 3926.02 114.62 3926.89 107.479 C 3927.55 113.426 3928.18 131.832 3927.09 137.483 C 3926.21 137.995 3913.32 139.641 3911.46 139.484 C 3908.22 137.683 3905.32 134.064 3903.58 133.853 C 3900.1 129.588 3897.29 136.067 3891.47 133.96 C 3888.85 131.681 3889.36 132.69 3888.54 129.654 C 3890.42 128.061 3901.79 127.81 3905.72 127.419 z"/>
<path transform="translate(0,0)" fill="rgb(53,40,197)" d="M 3914.8 117.382 C 3924.68 120.759 3921.77 128.607 3917.85 135.404 C 3915.15 134.594 3914.65 134.298 3912.4 132.614 C 3908.86 126.71 3909.89 122.008 3914.8 117.382 z"/>
<path transform="translate(0,0)" fill="rgb(255,255,255)" d="M 3727.74 120.386 C 3730.88 120.496 3737.09 120.149 3739.31 122.62 C 3742.52 126.194 3742.08 130.149 3738.73 133.543 C 3735.36 136.911 3730.79 138.807 3726.02 138.817 C 3716.72 138.81 3710.43 129.953 3710.48 121.276 C 3710.5 116.443 3712.46 111.821 3715.93 108.45 C 3723.99 100.585 3738.68 102.885 3738.45 113.236 L 3735.84 115.034 C 3739.05 118.438 3743.61 115.615 3745.08 119.498 C 3743.74 123.968 3743.12 125.543 3743.77 130.139 L 3742.97 129.83 C 3742.75 126.394 3742.65 122.953 3742.64 119.51 C 3738.32 119.502 3731.69 119.178 3727.74 120.386 z"/>
<path transform="translate(0,0)" fill="rgb(53,40,197)" d="M 3727.74 120.386 L 3727.29 122.585 C 3729.51 126.335 3734.71 124.117 3736.65 129.036 C 3734.66 132.078 3727.78 135.64 3724.48 134.708 C 3708.31 130.137 3719.3 91.6533 3735.84 115.034 C 3739.05 118.438 3743.61 115.615 3745.08 119.498 C 3743.74 123.968 3743.12 125.543 3743.77 130.139 L 3742.97 129.83 C 3742.75 126.394 3742.65 122.953 3742.64 119.51 C 3738.32 119.502 3731.69 119.178 3727.74 120.386 z"/>
<path transform="translate(0,0)" fill="rgb(255,255,255)" d="M 3853.33 136.104 L 3851.58 138.319 C 3847.09 139.348 3844.76 135.242 3844.13 135.756 C 3840.21 138.925 3834.57 140.816 3828.87 135.029 C 3827.82 131.495 3827.82 132.896 3829.14 129.23 C 3832.24 125.924 3838.08 124.572 3842.75 122.488 L 3843.34 120.801 C 3836.51 113.547 3834.8 125.547 3830.21 119.981 C 3831.28 114.095 3840.18 112.609 3845.17 115.206 C 3850.41 120.308 3849.1 126.619 3850.25 134.009 L 3853.33 136.104 z"/>
<path transform="translate(0,0)" fill="rgb(255,255,255)" d="M 3752.62 114.112 C 3759.46 113.83 3767.11 116.518 3767.65 124.419 C 3764.26 130.347 3754.92 126.874 3751.08 130.206 C 3752.24 132.918 3751.73 132.056 3754.53 133.942 C 3757.53 134.718 3759.88 133.679 3762.81 132.747 C 3763.61 132.12 3763.81 132.328 3765.04 132.275 L 3765.29 133.758 C 3757.52 147.896 3733.58 129.953 3752.62 114.112 z"/>
<path transform="translate(0,0)" fill="rgb(255,255,255)" d="M 3798.48 114.079 C 3804.55 113.832 3808.27 113.365 3812.05 119.071 L 3810.99 120.015 C 3807.18 119.797 3803.38 119.489 3799.58 119.091 L 3798.79 120.455 C 3803.58 126.244 3812.31 124.346 3813.17 132.219 C 3811.61 135.519 3810.54 136.239 3807.75 138.519 C 3802.57 138.699 3795.65 139.384 3793.92 133.012 C 3795.53 131.986 3804.04 133.378 3807.62 133.404 L 3808.31 132.065 C 3805.57 126.064 3796.58 128.55 3793.96 121.305 C 3794.53 117.792 3796.03 116.609 3798.48 114.079 z"/>
<path transform="translate(0,0)" fill="rgb(255,255,255)" d="M 3819.29 107.61 C 3820.95 108.504 3825.69 114.716 3823.95 117.848 C 3818.72 127.257 3822.75 131.918 3827.5 137.945 C 3822.71 138.314 3823.51 138.937 3819.7 136.918 C 3814.63 130.103 3814.86 114.947 3819.29 107.61 z"/>
<path transform="translate(0,0)" fill="rgb(255,255,255)" d="M 3871.56 114.289 C 3872.56 110.393 3871.88 110.883 3874.55 108.153 C 3876.89 110.875 3874.92 112.194 3877.56 113.609 C 3878.55 114.144 3879.45 114.866 3880.33 115.593 C 3868.12 137.371 3881.6 131.626 3880.52 137.406 C 3877.45 138.74 3878.61 138.686 3875.53 137.963 C 3868.27 130.626 3875.55 123.384 3867.82 115.059 L 3871.56 114.289 z"/>
<path transform="translate(0,0)" fill="rgb(255,255,255)" d="M 3774.37 107.678 L 3776.11 108.976 C 3776.71 115.544 3784.12 111.864 3776.63 123.514 C 3774.39 127.007 3779.44 133.644 3782.51 137.357 C 3780.02 138.337 3779.11 138.219 3776.43 138.098 C 3768.25 133.158 3776.13 124.751 3770.42 117.102 C 3770.57 114.739 3772.96 111.68 3774.37 107.678 z"/>
<path transform="translate(0,0)" fill="rgb(255,255,255)" d="M 3860.16 115.832 C 3863.03 114.472 3863.69 114.399 3866.84 114.712 C 3864.82 119.728 3857.27 122.32 3859.15 133.293 C 3859.38 134.642 3859.26 136.561 3858.23 137.535 C 3855.27 133.249 3853.29 118.319 3857.45 114.901 L 3860.16 115.832 z"/>
<path transform="translate(0,0)" fill="rgb(53,40,197)" d="M 3860.16 115.832 C 3859 110.749 3857.95 114.47 3855.53 111.182 C 3859.56 109.95 3866.41 108.383 3870.39 110.319 L 3871.56 114.289 L 3867.82 115.059 L 3866.84 114.712 C 3863.69 114.399 3863.03 114.472 3860.16 115.832 z"/>
<path transform="translate(0,0)" fill="rgb(53,40,197)" d="M 3909.05 140.427 C 3913.36 139.87 3922.05 139.76 3926.25 140.659 L 3927.48 142.597 C 3921.98 142.464 3912.22 144.724 3909.05 140.427 z"/>
<path transform="translate(0,0)" fill="rgb(53,40,197)" d="M 3850.25 134.009 C 3852.48 126.746 3851.04 123.311 3853.16 116.95 C 3854.13 121.701 3854.17 131.346 3853.33 136.104 L 3850.25 134.009 z"/>
<path transform="translate(0,0)" fill="rgb(53,40,197)" d="M 3718.31 140.525 C 3723.37 139.802 3732.05 138.699 3735.61 142.439 C 3732.76 142.626 3729.91 142.772 3727.05 142.878 C 3722.94 142.998 3721.04 143.088 3718.31 140.525 z"/>
<path transform="translate(0,0)" fill="rgb(53,40,197)" d="M 3795.57 140.462 C 3800.27 140.09 3807.87 138.366 3810.52 142.496 C 3806.04 142.788 3798.02 144.311 3795.57 140.462 z"/>
<path transform="translate(0,0)" fill="rgb(53,40,197)" d="M 3768.67 118.445 L 3770.62 120.166 C 3771.09 123.41 3771.47 131.438 3769.56 134.085 L 3768.92 133.469 C 3768.44 129.363 3768.55 122.687 3768.67 118.445 z"/>
<path transform="translate(0,0)" fill="rgb(53,40,197)" d="M 3750.12 140.422 C 3754.65 140.006 3760.98 138.456 3763.53 142.518 C 3758.81 142.911 3753.19 144.234 3750.12 140.422 z"/>
<path transform="translate(0,0)" fill="rgb(53,40,197)" d="M 3749.39 110.529 C 3753.76 109.965 3760.5 108.862 3764.19 111.681 C 3759.55 113.308 3753.3 113.707 3749.39 110.529 z"/>
<path transform="translate(0,0)" fill="rgb(53,40,197)" d="M 3887.56 140.452 C 3890.9 140.112 3897.12 139.474 3900.04 140.724 L 3900.44 142.477 C 3895.65 142.901 3893.43 143.222 3888.73 142.302 L 3887.56 140.452 z"/>
<path transform="translate(0,0)" fill="rgb(53,40,197)" d="M 3830.83 140.419 C 3835.22 139.956 3840.04 138.527 3842.53 142.517 C 3837.74 142.95 3834.23 144.055 3830.83 140.419 z"/>
<path transform="translate(0,0)" fill="rgb(53,40,197)" d="M 3817.82 140.441 C 3821.18 139.982 3823.02 139.543 3826.31 140.512 L 3827.1 142.603 C 3823.8 142.913 3821.98 143.245 3818.75 142.319 L 3817.82 140.441 z"/>
<path transform="translate(0,0)" fill="rgb(5,7,22)" d="M 206.107 105.914 C 228.047 105.104 231.449 134.496 217.194 146.004 C 213.244 149.192 203.146 146.197 198.403 145.06 L 196.972 146.226 L 196.878 151.75 C 197.005 157.971 196.985 162.881 188.969 163.67 C 188.328 163.442 186.297 162.121 186.169 161.298 C 183.599 144.839 184.806 125.786 185.677 109.026 C 185.794 106.756 191.514 107.674 193.227 108.091 C 199.855 109.705 201.034 108.726 206.107 105.914 z"/>
<path transform="translate(0,0)" fill="rgb(255,255,255)" d="M 202.715 114.779 C 216.072 115.026 215.151 130.686 208.314 138.859 C 193.749 139.402 193.621 122.451 202.715 114.779 z"/>
<path transform="translate(0,0)" fill="rgb(5,7,22)" d="M 271.456 106.274 C 280.669 104.081 290.225 108.218 294.931 116.435 C 299.638 124.652 298.371 134.988 291.818 141.825 C 289.015 144.749 285.439 146.816 281.505 147.784 C 270.022 150.611 258.428 143.567 255.645 132.073 C 252.863 120.579 259.951 109.012 271.456 106.274 z"/>
<path transform="translate(0,0)" fill="rgb(255,255,255)" d="M 273.929 114.864 C 287.673 114.435 286.891 130.171 280.023 138.71 C 278.878 138.794 277.728 138.81 276.58 138.758 C 265.299 138.226 265.62 122.078 273.929 114.864 z"/>
<path transform="translate(0,0)" fill="rgb(5,7,22)" d="M 303.558 107.072 C 327.41 105.728 310.046 127.219 321.814 129.911 C 324.723 124.902 324.697 114.056 327.38 108.395 C 340.893 98.4562 339.598 124.597 343.195 130.369 L 344.392 130.253 C 349.489 123.374 344.637 109.144 354.607 106.535 C 357.995 105.648 358.409 105.486 360.477 108.082 C 361.55 111.871 359.997 115.502 358.795 119.253 C 357.597 126.378 353.579 140.513 351.535 147.321 C 347.499 147.319 343.463 147.364 339.428 147.457 C 337.129 141.609 335.268 126.674 332.044 123.783 C 327.638 127.641 330.125 140.862 325.148 145.44 C 311.003 158.452 303.345 114.731 303.558 107.072 z"/>
<path transform="translate(0,0)" fill="rgb(5,7,22)" d="M 137.791 93.6358 C 144.683 93.7937 167.545 92.7436 171.748 95.0487 C 173.769 98.5035 173.332 97.0454 173.391 101.157 C 168.113 108.496 155.983 99.5669 150.664 106.472 C 150.474 110.361 149.96 109.786 151.729 112.942 C 158.273 117.126 167.636 110.137 172.109 117.309 C 172.484 130.423 159.49 120.768 150.564 126.034 C 150.391 148.876 165.72 128.966 173.619 139.586 C 173.893 143.863 174.259 142.337 172.381 146.212 C 167.781 148.717 144.512 147.254 137.756 147.376 L 137.791 93.6358 z"/>
<path transform="translate(0,0)" fill="rgb(162,176,193)" d="M 1485.56 104.221 L 1500.69 104.032 C 1512.82 111.142 1516.45 122.874 1507.03 134.345 C 1498.53 140.159 1495.68 138.731 1484.74 138.213 C 1484.7 131.611 1484.14 109.119 1485.56 104.221 z"/>
<path transform="translate(0,0)" fill="rgb(255,255,255)" d="M 1489.96 108.237 C 1491.04 108.183 1492.12 108.145 1493.21 108.123 C 1508.66 107.844 1511.83 122.843 1501.76 133.063 C 1485.59 142.285 1488.69 116.44 1489.96 108.237 z"/>
<path transform="translate(0,0)" fill="rgb(162,176,193)" d="M 672.49 114.297 C 673.677 114.363 675.206 114.448 677.077 114.553 C 677.166 114.833 679.926 117.565 681.031 117.092 C 686.834 114.607 688.186 113.267 694.603 114.895 C 696.742 116.816 697.958 117.288 698.791 119.772 C 692.78 119.038 690.075 117.681 685.679 122.285 C 680.272 137.833 696.6 130.997 699.554 133.588 C 694.721 140.161 693.38 138.724 685.501 138.511 C 681.367 133.796 678.494 136.404 672.731 138.103 C 656.344 142.936 657.414 126.067 659.307 115.506 L 660.818 114.486 C 663.029 118.814 663.033 131.936 667.188 134.419 C 674.547 132.882 672.597 120.367 672.49 114.297 z"/>
<path transform="translate(0,0)" fill="rgb(162,176,193)" d="M 1294.33 114.049 C 1295.99 113.971 1305.5 115.475 1307.9 115.814 C 1312.46 127.287 1309.43 160.771 1289.58 144.635 L 1289.99 142.73 C 1293.6 140.426 1295.29 144.911 1301.19 143.674 C 1303.81 141.062 1303.14 141.65 1304.12 137.907 C 1302.95 136.859 1303.39 136.785 1301.97 137.28 C 1285.51 142.99 1284.02 122.705 1294.33 114.049 z"/>
<path transform="translate(0,0)" fill="rgb(255,255,255)" d="M 1296.57 117.312 C 1306.99 119.936 1304.34 128.156 1300.47 135.047 C 1297.82 134.538 1297.25 134.409 1294.98 132.961 C 1291.02 127.323 1292.29 122.319 1296.57 117.312 z"/>
<path transform="translate(0,0)" fill="rgb(162,176,193)" d="M 650.001 103.602 C 650.584 103.974 651.859 104.656 652.016 105.157 C 653.716 110.591 653.615 132.377 652.239 137.059 C 647.058 137.932 642.719 138.556 637.461 138.258 C 630.868 132.611 628.691 117.365 639.05 114.325 C 639.884 114.08 645.441 114.81 646.672 114.973 C 649.272 113.453 646.145 107.787 650.001 103.602 z"/>
<path transform="translate(0,0)" fill="rgb(255,255,255)" d="M 640.548 117.301 L 644.339 118.552 C 650.387 124.18 648.054 128.76 644.661 135.111 C 641.95 134.586 641.284 134.456 638.981 132.956 C 635.013 127.332 636.324 122.323 640.548 117.301 z"/>
<path transform="translate(0,0)" fill="rgb(5,7,22)" d="M 233.576 108.25 C 237.624 107.159 243.373 106.71 247.358 107.977 C 244.741 118.454 250.46 139.611 243.494 146.449 C 240.655 147.763 240.03 147.75 236.945 147.127 C 231.482 142.202 235.876 119.515 233.576 108.25 z"/>
<path transform="translate(0,0)" fill="rgb(162,176,193)" d="M 870.772 104.22 C 873.809 104.056 876.85 103.943 879.892 103.88 C 886.83 103.794 895.089 106.514 895.137 114.581 C 891.01 122.465 882.964 121.939 875.368 121.757 C 874.462 126.196 877.222 133.471 873.751 137.859 L 872.115 137.616 C 868.942 133.034 870.05 110.319 870.772 104.22 z"/>
<path transform="translate(0,0)" fill="rgb(255,255,255)" d="M 875.856 108.289 C 879.732 108.193 885.396 107.473 888.297 109.685 C 889.942 113.608 889.445 112.653 888.775 117.242 C 883.377 117.583 879.548 118.578 875.437 115.465 C 874.627 112.542 875.136 111.154 875.856 108.289 z"/>
<path transform="translate(0,0)" fill="rgb(162,176,193)" d="M 1177.93 104.253 C 1186.44 103.794 1197.9 102.212 1202.12 111.859 C 1201.75 122.285 1189.67 121.927 1182.13 121.889 C 1182.4 125.616 1183.53 136.151 1180.26 138.232 C 1175.98 134.167 1177.36 110.349 1177.93 104.253 z"/>
<path transform="translate(0,0)" fill="rgb(255,255,255)" d="M 1182.94 108.3 C 1186.68 108.172 1192.73 107.424 1195.53 109.706 C 1197.14 113.552 1196.62 112.729 1195.97 117.27 C 1190.78 117.59 1186.48 118.585 1182.59 115.431 C 1181.81 112.552 1182.29 111.131 1182.94 108.3 z"/>
<path transform="translate(0,0)" fill="rgb(162,176,193)" d="M 563.715 104.225 C 572.11 103.789 583.983 102.37 587.99 112.079 C 587.38 121.892 576.599 121.943 569.175 121.737 C 565.765 126.36 570.565 131.381 566.825 137.829 L 564.923 137.988 L 563.297 136.015 C 562.828 130.411 562.824 109.332 563.715 104.225 z"/>
<path transform="translate(0,0)" fill="rgb(255,255,255)" d="M 568.606 108.246 C 573.911 108.084 577.422 107.332 581.551 110.122 C 582.809 112.912 582.14 114.459 581.336 117.341 C 575.894 117.615 572.401 118.522 568.24 115.498 C 567.422 112.549 567.915 111.144 568.606 108.246 z"/>
<path transform="translate(0,0)" fill="rgb(162,176,193)" d="M 965.008 114.238 C 966.469 114.133 968.082 114.041 969.541 114.093 C 972.523 114.176 975.346 115.458 977.37 117.65 C 983.762 124.528 979.501 132.959 973.657 138.367 C 956.786 139.677 953.482 124.499 965.008 114.238 z"/>
<path transform="translate(0,0)" fill="rgb(255,255,255)" d="M 967.648 117.351 C 978.775 119.998 976.745 128.932 970.618 135.565 C 960.733 132.015 961.176 123.894 967.648 117.351 z"/>
<path transform="translate(0,0)" fill="rgb(162,176,193)" d="M 613.123 114.239 C 630.283 113.13 632.786 128.187 621.635 138.39 C 604.646 139.583 601.458 123.994 613.123 114.239 z"/>
<path transform="translate(0,0)" fill="rgb(255,255,255)" d="M 615.629 117.361 C 626.753 119.942 624.748 128.94 618.584 135.549 C 608.741 132.1 609.224 123.833 615.629 117.361 z"/>
<path transform="translate(0,0)" fill="rgb(162,176,193)" d="M 1521.8 114.203 C 1539.03 113.09 1541.7 128.247 1530.27 138.515 C 1528.96 138.592 1527.64 138.615 1526.33 138.584 C 1512.86 138.153 1512.26 122.914 1521.8 114.203 z"/>
<path transform="translate(0,0)" fill="rgb(255,255,255)" d="M 1524.6 117.363 C 1535.44 119.841 1533.47 128.972 1527.59 135.443 C 1517.61 132.481 1517.79 123.556 1524.6 117.363 z"/>
<path transform="translate(0,0)" fill="rgb(162,176,193)" d="M 1007.23 114.484 C 1007.49 114.412 1010.73 114.331 1010.74 114.342 C 1018.31 120.247 1016.95 113.773 1024.61 113.707 C 1030.68 118.412 1033.03 135.486 1028.12 137.946 C 1025.04 134.761 1025.31 122.332 1021.24 117.684 L 1019.72 117.797 C 1015.6 123.392 1016.12 126.515 1016.17 133.25 C 1016.97 135.818 1015.58 137.097 1013.61 138.138 C 1006.09 132.669 1017.54 122.863 1006.93 117.64 C 1000.17 119.362 1004.34 133.755 1000.48 138.248 L 999.155 137.886 C 997.832 131.494 997.658 122.905 997.341 116.212 C 1002.07 113.316 1000.67 118.321 1007.23 114.484 z"/>
<path transform="translate(0,0)" fill="rgb(162,176,193)" d="M 951.519 103.703 C 953.873 103.819 954.581 103.78 956.517 105.1 C 956.455 108.393 955.281 107.229 952.151 110.967 L 952.425 112.866 L 956.024 114.497 C 956.799 118.37 950.118 121.288 952.678 130.044 C 953.284 132.115 952.521 135.417 950.734 137.605 L 948.184 137.578 C 945.181 133.645 948.979 123.391 946.138 118.505 C 942.829 117.158 940.826 117.68 938.68 120.304 C 938.761 123.197 938.792 126.97 938.769 129.737 C 938.767 129.998 942.388 134.35 942.792 137.171 L 941.176 138.402 C 937.325 138.136 938.607 138.643 935.599 136.617 C 933.439 131.164 931.188 113.095 935.872 108.998 C 938.831 111.902 940.548 114.063 944.447 114.554 C 946.788 113.08 948.155 107.875 951.519 103.703 z"/>
<path transform="translate(0,0)" fill="rgb(162,176,193)" d="M 913.867 114.159 C 917.203 113.97 920.242 113.588 923.188 115.615 C 927.545 118.614 931.296 134.926 928.665 138.431 C 923.495 138.808 924.441 133.096 918.915 137.183 C 916.727 138.802 913.483 138.825 910.843 138.532 C 899.907 125.442 918.945 125.264 922.58 120.416 C 919.499 117.111 913.843 119.908 910.037 120.993 L 908.965 120.043 C 909.268 117.088 911.016 116.588 913.867 114.159 z"/>
<path transform="translate(0,0)" fill="rgb(162,176,193)" d="M 1567.83 114.144 C 1568.72 114.098 1569.61 114.062 1570.49 114.035 C 1574.15 113.928 1581.68 115.045 1581.8 119.715 C 1579.1 120.792 1573.32 118.374 1568.5 119.352 C 1570.1 126.448 1580.71 123.288 1582.67 131.109 C 1581.99 134.506 1580.4 135.903 1578.11 138.459 C 1576.35 138.574 1574.58 138.609 1572.82 138.562 C 1568.6 138.43 1563.65 137.734 1563.9 132.618 C 1567.43 132.855 1574.87 134.256 1577.46 132.691 C 1575.22 124.818 1566.38 129.639 1563.52 121.305 C 1564.17 117.834 1565.48 116.72 1567.83 114.144 z"/>
<path transform="translate(0,0)" fill="rgb(162,176,193)" d="M 1273.29 114.477 C 1273.5 114.443 1273.71 114.412 1273.91 114.383 C 1285.31 112.82 1285.39 132.974 1281.77 137.545 C 1275.94 134.77 1282.9 125.387 1274.23 117.041 C 1266.58 119.561 1268.44 129.797 1266.53 137.133 L 1265.14 137.861 C 1262.98 134.632 1263.29 119.375 1264.22 115.228 C 1269.44 113.403 1265.45 119.676 1273.29 114.477 z"/>
<path transform="translate(0,0)" fill="rgb(162,176,193)" d="M 1547.64 113.979 C 1552.95 113.971 1556.77 114.772 1560.27 119.217 L 1559.05 120.549 C 1553.83 121.252 1557.16 119.701 1551 118.228 C 1543.86 120.411 1543.58 129.927 1549.94 133.945 C 1553 134.448 1554.14 133.564 1556.75 132.042 L 1558.78 131.635 L 1559.47 133.335 C 1552.56 148.193 1528.95 130.05 1547.64 113.979 z"/>
<path transform="translate(0,0)" fill="rgb(162,176,193)" d="M 1237.16 114.125 C 1237.45 114.112 1237.73 114.102 1238.01 114.094 C 1243.41 113.944 1245.87 115.059 1249.85 118.817 L 1249.43 120.112 L 1246.41 120.991 L 1242.03 118.466 C 1238.36 118.528 1239.56 118.051 1236.83 120.251 C 1234.09 125.69 1234.14 129.691 1238.96 133.771 C 1241.95 134.505 1242.85 133.98 1245.56 132.708 L 1246.2 131.62 L 1248.17 131.665 C 1248.95 134.107 1248.7 133.43 1247.47 136.36 C 1236.91 145.62 1220.98 127.553 1237.16 114.125 z"/>
<path transform="translate(0,0)" fill="rgb(255,255,255)" d="M 233.576 108.25 L 233.609 108.086 C 234.697 102.394 231.278 92.4834 241.823 92.8669 C 248.242 93.1004 247.253 103.797 247.358 107.977 C 243.373 106.71 237.624 107.159 233.576 108.25 z"/>
<path transform="translate(0,0)" fill="rgb(162,176,193)" d="M 705.704 109.081 L 707.395 109.127 C 708.295 112.521 711.532 115.183 711.281 116.057 C 708.674 125.146 703.263 129.727 713.662 135.913 C 711.965 138.738 709.538 138.642 706.88 137.886 C 702.735 133.961 703.624 121.806 702.077 116.344 C 701.85 115.542 704.948 110.517 705.704 109.081 z"/>
<path transform="translate(0,0)" fill="rgb(162,176,193)" d="M 900.135 103.699 C 902.259 104.998 903.021 105.766 903.042 108.507 C 903.117 118.105 903.867 129.33 902.497 138.807 C 901.041 138.095 899.487 137.684 899.234 135.976 C 898.338 129.936 897.781 108.582 900.135 103.699 z"/>
<path transform="translate(0,0)" fill="rgb(162,176,193)" d="M 993.899 115.138 L 995.405 114.987 L 996.095 116.358 C 983.342 126.05 993.931 128.963 987.501 139.331 C 983.801 135.674 984.749 121.656 985.482 116.467 C 987.905 113.067 988.351 117.675 993.702 115.229 L 993.899 115.138 z"/>
<path transform="translate(0,0)" fill="rgb(162,176,193)" d="M 1215.06 114.728 L 1216.76 115.192 L 1216.98 116.967 C 1203.96 122.013 1215.41 131.016 1207.44 139.283 C 1205.15 135.13 1205.82 121.516 1206.46 116.532 C 1208.55 113.714 1209.43 117.318 1215.06 114.728 z"/>
<path transform="translate(0,0)" fill="rgb(162,176,193)" d="M 600.387 114.911 L 602.032 114.795 L 602.69 116.527 C 589.523 124.617 599.675 129.651 594.55 139.268 C 589.904 135.699 591.411 122.215 592.051 116.734 C 592.326 114.376 596.004 116.939 600.387 114.911 z"/>
<path transform="translate(0,0)" fill="rgb(162,176,193)" d="M 1255.19 113.764 C 1260.39 115.819 1258.6 134.032 1257.63 138.824 C 1255.79 138.228 1255.54 137.917 1254.41 136.347 C 1253.66 130.905 1253.05 118.694 1255.19 113.764 z"/>
<path transform="translate(0,0)" fill="rgb(162,176,193)" d="M 1222.18 114.168 L 1224.61 114.735 C 1227.71 118.987 1226.23 132.771 1225.87 138.612 C 1225.25 138.413 1223.5 137.958 1223.24 137.597 C 1220.72 134.139 1222.02 118.81 1222.18 114.168 z"/>
</svg>