<!-- RECRAFT VECTORIZE from logo/options-w3/mock/T1-dejavu-bold-navbar-dark.png -->
<svg version="1.1" xmlns="http://www.w3.org/2000/svg" style="display: block;" viewBox="0 0 4096 256" width="4096" height="256" preserveAspectRatio="none">
<path transform="translate(0,0)" fill="rgb(11,16,32)" d="M 0 0 L 4096 0 L 4096 256 L 0 256 L 0 0 z"/>
<path transform="translate(0,0)" fill="rgb(63,51,200)" d="M 3680.9 61.8463 C 3683.61 59.9192 3847.52 60.7458 3864.59 60.7494 L 3925.83 60.7357 C 3936 60.7352 3951.45 60.2474 3960.99 61.3448 C 3963.76 64.7436 3967.96 64.0407 3972.2 69.9275 C 3975.64 74.7135 3980.55 78.3001 3982.7 84.5509 C 3982.73 84.6121 3983.39 85.0028 3983.47 85.0447 C 3984.5 101.229 3983.65 120.03 3983.95 136.417 C 3984.05 141.779 3984.13 163.434 3983.37 167.87 C 3978.92 171.634 3982.66 172.407 3977.94 176.528 C 3973.58 180.336 3968.02 188.488 3962.19 189.697 L 3960.86 191.505 C 3940.71 192.683 3684.66 192.574 3681.02 191.029 C 3679.26 188.848 3677.2 189.185 3674.25 187.62 C 3668.58 184.613 3661.2 170.431 3658.41 167.938 C 3657.12 161.08 3656.94 88.2423 3658.92 84.9498 C 3659.63 84.405 3660.08 83.8472 3660.16 82.9412 L 3660.19 82.7015 C 3660.82 76.0961 3670.68 69.2002 3675.39 64.7346 C 3675.94 64.2085 3677.86 64.3482 3680.9 61.8463 z"/>
<path transform="translate(0,0)" fill="rgb(71,58,215)" d="M 3680.9 61.8463 C 3683.61 59.9192 3847.52 60.7458 3864.59 60.7494 L 3925.83 60.7357 C 3936 60.7352 3951.45 60.2474 3960.99 61.3448 L 3960 64.3082 C 3956.23 66.0864 3782.96 65.2094 3766.48 65.2057 L 3710 65.1959 C 3702.69 65.2064 3689.06 65.8861 3682.65 64.8855 C 3681.15 63.301 3681.35 63.9129 3680.9 61.8463 z"/>
<path transform="translate(0,0)" fill="rgb(71,58,215)" d="M 3681.02 191.029 L 3681.88 187.614 C 3768.47 185.918 3855.9 188.91 3942.54 187.363 C 3946.11 187.299 3957.39 186.55 3960.07 188.521 L 3960.86 191.505 C 3940.71 192.683 3684.66 192.574 3681.02 191.029 z"/>
<path transform="translate(0,0)" fill="rgb(71,58,215)" d="M 3658.41 167.938 C 3657.12 161.08 3656.94 88.2423 3658.92 84.9498 L 3661.44 86.1271 C 3662.84 92.0558 3662.64 155.3 3661.29 166.076 C 3661.18 166.9 3659.39 167.501 3658.41 167.938 z"/>
<path transform="translate(0,0)" fill="rgb(71,58,215)" d="M 3983.37 167.87 L 3980.72 166.806 C 3978.79 162.745 3978.85 90.1806 3980.79 85.9813 L 3983.47 85.0447 C 3984.5 101.229 3983.65 120.03 3983.95 136.417 C 3984.05 141.779 3984.13 163.434 3983.37 167.87 z"/>
<path transform="translate(0,0)" fill="rgb(244,244,250)" d="M 3922.94 103.645 C 3924.28 104.29 3925.7 104.623 3925.97 105.966 C 3927.16 111.832 3927.48 132.213 3925.58 137.159 C 3914.05 138.898 3908.43 140.634 3905.53 127.61 C 3901.83 128.054 3890.04 128.336 3888.67 129.566 L 3889.28 131.689 C 3890.33 132.546 3891.57 133.844 3892.77 134.108 L 3892.93 134.142 C 3896.58 134.954 3898.77 131.201 3902.88 132.626 L 3903.07 135.051 C 3890.18 146.297 3875.09 128.05 3887.23 116.412 C 3895.6 108.385 3899.65 117.087 3905.44 122.921 C 3909.75 113.905 3910.39 113.677 3920.23 114.61 C 3923.72 111.894 3919.8 110.621 3922.94 103.645 z"/>
<path transform="translate(0,0)" fill="rgb(63,51,200)" d="M 3914.81 117.399 L 3918.4 119.012 C 3923.68 124.994 3921.53 129.412 3917.56 135.269 C 3908.05 132.499 3908.45 123.126 3914.81 117.399 z"/>
<path transform="translate(0,0)" fill="rgb(244,244,250)" d="M 3741.63 122.86 C 3740.98 131.9 3737.97 138.646 3727.58 138.906 C 3723.29 138.987 3719.14 137.372 3716.04 134.412 C 3706.92 125.632 3709.37 103.818 3724.69 104.066 C 3730.75 104.164 3738.37 106.013 3738.32 113.328 L 3735.85 115.053 C 3720.8 93.6058 3705.93 127.39 3723.75 134.018 C 3729.3 136.083 3733.23 132.26 3736.63 128.669 L 3736.72 127.501 C 3734.94 126.663 3727.96 123.563 3726.95 122.51 C 3729.17 119.969 3738.65 120.237 3741.38 122.633 C 3741.47 122.707 3741.55 122.782 3741.63 122.86 z"/>
<path transform="translate(0,0)" fill="rgb(244,244,250)" d="M 3853.31 136.117 L 3851.98 137.995 C 3847.71 139.21 3844.72 135.754 3843.65 136.267 C 3836.84 139.552 3828.11 139.849 3829.29 129.548 C 3833.66 122.23 3836.93 126.292 3843.48 122.897 L 3843.72 120.876 C 3840.2 118.155 3832.36 121.492 3829.7 118.939 C 3832.59 114.493 3839.93 112.481 3844.98 114.806 C 3850.37 120.83 3849.1 126.454 3850.25 134.021 L 3853.31 136.117 z"/>
<path transform="translate(0,0)" fill="rgb(244,244,250)" d="M 3752.6 114.078 C 3759.53 113.808 3766.88 116.36 3767.62 124.221 C 3763.27 130.033 3756.2 127.443 3750.57 130.642 C 3755.5 135.395 3756.51 134.714 3762.81 132.712 C 3763.61 132.081 3763.82 132.285 3765.06 132.218 L 3765.32 133.78 C 3756.59 148.062 3733.97 129.553 3752.6 114.078 z"/>
<path transform="translate(0,0)" fill="rgb(244,244,250)" d="M 3798.45 114.052 C 3804.53 113.803 3808.32 113.335 3812.08 119.055 L 3810.98 120.018 C 3807.16 119.82 3803.35 119.537 3799.54 119.168 L 3798.82 120.427 C 3803.69 126.137 3812.32 124.403 3813.22 132.212 C 3811.66 135.531 3810.57 136.274 3807.75 138.556 C 3802.4 138.772 3795.74 139.394 3793.86 133.005 C 3795.5 131.93 3804.11 133.294 3807.43 133.408 L 3808.25 132.105 C 3805.53 125.81 3795.79 128.787 3793.96 120.753 C 3794.87 117.405 3796.04 116.476 3798.45 114.052 z"/>
<path transform="translate(0,0)" fill="rgb(244,244,250)" d="M 3819.19 107.532 C 3820.88 108.396 3821.32 110.389 3822.8 111.904 C 3826.9 116.109 3822.25 118.114 3821.9 123.999 C 3821.42 132.228 3823.25 132.508 3827.57 137.951 C 3813.6 140.138 3817.07 126.192 3816.23 116.526 C 3816.02 114.047 3818.12 109.926 3819.19 107.532 z"/>
<path transform="translate(0,0)" fill="rgb(244,244,250)" d="M 3871.57 114.267 C 3872.55 110.328 3871.85 110.871 3874.56 108.145 C 3877.06 110.971 3874.77 112.187 3877.67 113.678 C 3878.51 114.111 3879.52 114.972 3880.26 115.595 C 3877.7 123.406 3874.55 120.795 3876.12 132.488 L 3880.75 135.98 L 3880.41 137.545 C 3877.39 138.811 3878.49 138.762 3875.46 138.042 C 3868.32 130.866 3875.46 123.225 3867.77 115.061 L 3871.57 114.267 z"/>
<path transform="translate(0,0)" fill="rgb(244,244,250)" d="M 3774.31 107.616 C 3775.93 108.415 3777.85 112.225 3779.39 113.697 C 3781.47 115.683 3776.9 121.89 3776.75 125.631 C 3776.4 134.606 3778.54 131.771 3782.59 137.481 C 3780.54 138.228 3779.1 138.166 3776.92 138.232 C 3767.72 133.284 3776.35 124.968 3770.4 117.136 C 3770.55 114.667 3772.88 111.794 3774.31 107.616 z"/>
<path transform="translate(0,0)" fill="rgb(244,244,250)" d="M 3860.16 115.817 C 3863.03 114.471 3863.69 114.402 3866.84 114.728 C 3865.59 118.042 3865.8 117.405 3862.73 119.148 C 3857.45 122.151 3862.3 134.402 3858.49 138.018 C 3857.37 137.683 3856.24 137.626 3856.07 136.403 C 3855.28 130.465 3855.64 122.35 3855.68 116.435 L 3856.6 114.928 C 3857.91 115.076 3859.05 115.096 3860.16 115.817 z"/>
<path transform="translate(0,0)" fill="rgb(71,58,215)" d="M 3850.25 134.021 C 3852.56 127.046 3851.28 122.162 3853.26 117.148 C 3853.86 121.357 3854.21 132.028 3853.31 136.117 L 3850.25 134.021 z"/>
<path transform="translate(0,0)" fill="rgb(71,58,215)" d="M 3768.78 118.519 L 3770.6 120.158 C 3771.02 123.272 3771.42 131.497 3769.57 133.967 L 3768.84 133.271 C 3768.74 128.215 3768.52 123.593 3768.78 118.519 z"/>
<path transform="translate(0,0)" fill="rgb(244,244,250)" d="M 198.305 109.107 C 195.499 98.3073 188.773 106.832 184.959 102.492 C 187.012 98.9925 195.121 100.242 198.256 102.122 L 198.473 102.254 C 207.962 100.922 218.353 97.2671 223.4 108.579 C 223.679 109.205 225.006 109.569 225.695 109.858 L 227.345 106.933 C 228.678 110.196 226.801 112.898 228.401 115.547 C 231.084 111.964 227.454 109.89 230.198 106.913 C 233.34 108.914 232.447 144.595 230.858 147.194 C 228.828 143.918 229.28 142.125 229.376 137.981 C 227.434 138.733 226.953 139.358 225.433 138.762 L 224.742 134.759 C 220.91 145.007 216.601 147.561 206.091 148.927 C 202.773 146.268 201.406 145.261 197.658 143.28 C 195.446 149.076 198.995 156.255 195.758 161.297 C 192.261 162.71 188.536 162.962 185.314 160.741 C 184.468 158.078 184.777 150.266 185.164 147.272 C 186.448 137.363 179.897 111.778 189.63 106.83 C 193.755 106.915 194.613 107.249 198.305 109.107 z"/>
<path transform="translate(0,0)" fill="rgb(4,7,20)" d="M 198.305 109.107 C 195.499 98.3073 188.773 106.832 184.959 102.492 C 187.012 98.9925 195.121 100.242 198.256 102.122 L 198.473 102.254 C 207.962 100.922 218.353 97.2671 223.4 108.579 C 223.679 109.205 225.006 109.569 225.695 109.858 L 227.345 106.933 C 228.678 110.196 226.801 112.898 228.401 115.547 C 231.084 111.964 227.454 109.89 230.198 106.913 C 233.34 108.914 232.447 144.595 230.858 147.194 C 228.828 143.918 229.28 142.125 229.376 137.981 C 227.434 138.733 226.953 139.358 225.433 138.762 L 224.742 134.759 C 227.918 116.833 219.388 97.9919 199.842 109.601 L 198.305 109.107 z"/>
<path transform="translate(0,0)" fill="rgb(4,7,20)" d="M 203.382 114.675 C 216.116 116.578 215.506 131.837 207.272 139.221 C 207.094 139.204 206.917 139.183 206.741 139.157 C 193.533 137.245 194.013 121.568 203.382 114.675 z"/>
<path transform="translate(0,0)" fill="rgb(244,244,250)" d="M 137.529 93.6553 C 143.24 93.7063 168.012 93.0676 171.642 94.3304 C 173.972 96.9144 174.892 99.0312 173.439 102.122 C 166.671 106.292 154.973 100.622 150.219 107.667 C 150.392 119.142 163.484 111.564 172.988 115.491 C 174.034 114.785 175.048 113.794 176.246 113.792 C 181.595 113.782 176.76 110.214 179.67 106.316 L 181.178 106.578 C 182.643 110.427 181.779 153.712 181.638 161.058 L 180.69 162.695 C 178.639 161.137 178.327 155.297 178.26 152.621 L 177.875 160.344 C 177.776 157.217 177.977 152.078 176.417 149.61 C 172.78 147.868 170.024 150.32 169.021 147.794 C 162.931 146.696 144.68 147.267 137.701 147.368 C 137.777 129.624 138.071 111.347 137.529 93.6553 z"/>
<path transform="translate(0,0)" fill="rgb(4,7,20)" d="M 172.988 115.491 C 174.034 114.785 175.048 113.794 176.246 113.792 C 181.595 113.782 176.76 110.214 179.67 106.316 L 181.178 106.578 C 182.643 110.427 181.779 153.712 181.638 161.058 L 180.69 162.695 C 178.639 161.137 178.327 155.297 178.26 152.621 L 177.875 160.344 C 177.776 157.217 177.977 152.078 176.417 149.61 C 172.78 147.868 170.024 150.32 169.021 147.794 C 170.914 147.627 171.347 147.125 172.752 145.889 C 174.368 142.018 174.241 143.522 173.727 139.491 C 168.013 132.965 158.064 139.24 151.468 135.7 C 145.726 121.904 160.475 124.654 167.561 124.4 C 171.96 124.242 172.255 119.149 172.988 115.491 z"/>
<path transform="translate(0,0)" fill="rgb(244,244,250)" d="M 346.875 120.254 C 348.503 113.166 349.138 106.785 357.696 105.982 C 360.523 107.384 360.949 107.874 362.392 110.685 L 365.099 107.727 C 367.743 111.465 359.842 140.402 356.98 143.67 C 356.275 139.767 356.234 135.482 356.094 131.493 C 354.784 136.733 353.082 142.155 351.543 147.352 L 339.328 147.363 C 337.503 142.579 336.13 136.036 334.906 130.95 C 334.646 127.224 334.303 125.662 331.107 124.118 C 329.745 127.118 326.866 142.853 325.868 147.261 C 321.928 147.365 317.678 147.678 313.896 146.65 C 310.936 142.342 304.009 114.571 303.842 108.691 L 305.598 107.302 C 308.607 107.083 310.016 106.869 312.984 107.733 C 316.525 110.666 317.072 116.673 318.081 121.406 C 318.853 125.831 318.818 127.605 321.824 131.075 C 324.516 124.932 323.994 111.359 330.971 106.091 C 338.028 105.114 339.866 116.383 341.1 121.385 C 341.354 118.935 340.845 113.342 342.006 111.465 L 341.548 110.64 C 342.282 110.931 343.335 111.611 344.049 112.041 C 344.867 111.562 345.71 111.106 346.432 110.486 L 346.875 120.254 z"/>
<path transform="translate(0,0)" fill="rgb(4,7,20)" d="M 362.392 110.685 L 365.099 107.727 C 367.743 111.465 359.842 140.402 356.98 143.67 C 356.275 139.767 356.234 135.482 356.094 131.493 C 357.231 126.309 359.392 114.412 362.392 110.685 z"/>
<path transform="translate(0,0)" fill="rgb(4,7,20)" d="M 341.1 121.385 C 341.354 118.935 340.845 113.342 342.006 111.465 L 341.548 110.64 C 342.282 110.931 343.335 111.611 344.049 112.041 C 344.867 111.562 345.71 111.106 346.432 110.486 L 346.875 120.254 C 346.017 124.784 345.109 130.409 343.965 134.788 C 342.972 130.74 341.498 125.424 341.1 121.385 z"/>
<path transform="translate(0,0)" fill="rgb(244,244,250)" d="M 255.441 131.209 C 253.471 121.274 258.75 111.321 268.081 107.381 C 277.412 103.441 288.227 106.597 293.974 114.937 C 299.721 123.277 298.819 134.507 291.815 141.823 C 286.78 147.083 279.412 149.414 272.267 148.009 C 265.123 146.604 259.187 141.655 256.519 134.881 C 256.05 133.691 255.69 132.462 255.441 131.209 z"/>
<path transform="translate(0,0)" fill="rgb(4,7,20)" d="M 274.29 114.636 C 276.898 114.848 278.746 115.067 280.814 116.854 C 283.163 118.892 284.587 121.794 284.761 124.899 C 285.16 131.176 283.434 134.515 279.482 139.017 C 279.307 139.015 279.132 139.011 278.957 139.003 C 264.661 138.403 265.358 122.523 274.29 114.636 z"/>
<path transform="translate(0,0)" fill="rgb(122,135,155)" d="M 698.067 131.046 L 698.981 133.53 L 696.196 137.842 C 689.126 141.415 684.642 135.804 679.75 131.146 C 676.924 132.327 680.132 135.054 677.371 138.211 C 670.078 140.138 658.273 140.055 658.248 129.35 C 658.241 126.234 657.732 117.209 658.953 114.918 L 661.016 114.322 C 667.207 117.253 660.899 126.911 664.473 132.374 C 666.858 134.016 667.365 134.141 670.256 133.954 C 672.456 131.655 672.347 121.079 672.614 116.865 C 674.019 115.066 674.419 114.895 676.634 114.317 L 678.371 115.466 L 678.708 120.528 L 680.016 121.509 C 691.273 104.986 693.107 119.13 699.996 115.723 L 700.156 115.643 C 703.551 113.965 703.661 108.386 707.171 107.22 C 707.359 107.713 709.177 112.893 709.238 112.927 C 711.169 114.01 712.836 114.233 713.839 116.44 L 713.133 118.011 L 709.535 119.363 C 703.733 126.798 713.587 134.643 712.977 138.093 C 711.109 139.08 706.347 138.202 705.081 136.675 C 702.49 133.548 703.328 125.045 702.967 120.771 C 702.118 124.752 702.5 128.894 700.963 131.203 L 698.067 131.046 z"/>
<path transform="translate(0,0)" fill="rgb(4,7,20)" d="M 698.067 131.046 C 693.937 130.927 686.252 141.141 683.591 123.817 C 686.001 117.138 692.758 119.826 698.259 121.458 C 699.258 120.13 700.27 118.811 701.296 117.504 C 702.847 118.877 702.424 118.531 702.967 120.771 C 702.118 124.752 702.5 128.894 700.963 131.203 L 698.067 131.046 z"/>
<path transform="translate(0,0)" fill="rgb(130,144,164)" d="M 705.98 110.788 C 706.337 111.361 709.83 115.522 709.848 115.441 C 707.902 124.228 703.615 129.493 711.81 136.58 C 710.106 137.716 710.224 137.342 707.826 137.369 C 706.314 136.062 705.061 134.793 704.914 132.67 C 704.321 124.06 701.411 118.318 705.98 110.788 z"/>
<path transform="translate(0,0)" fill="rgb(130,144,164)" d="M 1484.49 104.502 C 1489.28 103.908 1496.11 104.098 1501.08 104.091 C 1502.7 105.095 1504.55 106.286 1506 107.503 C 1509.53 110.491 1511.72 114.759 1512.09 119.366 C 1512.55 125.017 1510.5 130.342 1506.85 134.602 C 1499 140.107 1494.26 138.685 1484.49 138.184 L 1484.49 104.502 z"/>
<path transform="translate(0,0)" fill="rgb(11,16,32)" d="M 1489.87 111.837 C 1493.59 101.668 1512.35 112.719 1506.07 126.837 C 1504.2 132.754 1496.9 136.455 1491.11 133.703 C 1488.8 129.572 1491.51 119.637 1489.87 111.837 z"/>
<path transform="translate(0,0)" fill="rgb(4,7,20)" d="M 1489.87 111.837 C 1493.59 101.668 1512.35 112.719 1506.07 126.837 C 1501.08 125.234 1504.02 120.455 1501.22 115.55 C 1497.32 111.878 1495.23 112.198 1489.87 111.837 z"/>
<path transform="translate(0,0)" fill="rgb(4,7,20)" d="M 1562.54 121.955 C 1566.05 114.813 1567.81 113.055 1576.05 114.228 C 1578.83 115.858 1580.04 116.39 1581.51 119.358 L 1580.89 120.789 C 1575.03 121.48 1576.52 117.61 1570.58 118.684 L 1570.05 119.809 C 1574.03 124.511 1583.38 129.254 1583.45 134.388 C 1581.13 139.208 1566.86 141.734 1562.4 131.637 L 1561.05 131.485 C 1555.69 141.669 1544.93 140.097 1540.89 131.755 C 1537.42 124.575 1545.74 110.556 1555.6 114.744 C 1558.77 118.091 1557.98 116.633 1559.1 121.072 L 1562.54 121.955 z"/>
<path transform="translate(0,0)" fill="rgb(122,135,155)" d="M 1562.54 121.955 C 1566.05 114.813 1567.81 113.055 1576.05 114.228 C 1578.83 115.858 1580.04 116.39 1581.51 119.358 L 1580.89 120.789 C 1575.03 121.48 1576.52 117.61 1570.58 118.684 L 1570.05 119.809 C 1574.03 124.511 1583.38 129.254 1583.45 134.388 C 1581.13 139.208 1566.86 141.734 1562.4 131.637 C 1567.49 131.289 1573.54 136.696 1576.95 132.29 C 1573.4 127.075 1568.47 128.395 1562.54 121.955 z"/>
<path transform="translate(0,0)" fill="rgb(130,144,164)" d="M 1561.05 131.485 C 1555.69 141.669 1544.93 140.097 1540.89 131.755 C 1537.42 124.575 1545.74 110.556 1555.6 114.744 C 1558.77 118.091 1557.98 116.633 1559.1 121.072 L 1558.88 121.064 C 1552.47 120.819 1553.93 115.76 1547.43 120.358 C 1544.73 124.751 1544.62 129.866 1548.8 133.354 C 1555.6 135.089 1553.25 130.967 1561.05 131.485 z"/>
<path transform="translate(0,0)" fill="rgb(4,7,20)" d="M 3679.79 56.4341 C 3688.79 54.8963 3958.17 55.8271 3961.25 56.6902 L 3961.91 58.5435 C 3946.9 59.2375 3927.64 58.6893 3912.39 58.6935 L 3817.38 58.7087 L 3729.57 58.7067 C 3714.45 58.7037 3695.56 59.2195 3680.67 58.3902 L 3679.79 56.4341 z"/>
<path transform="translate(0,0)" fill="rgb(244,244,250)" d="M 234.749 101.318 C 234.292 98.2404 233.63 95.8471 235.075 93.0689 C 243.288 86.1599 246.38 93.3346 247.457 100.725 C 245.858 106.29 247.775 104.817 247.392 107.926 C 244.708 118.497 250.697 139.667 243.447 146.351 C 240.622 147.658 240.002 147.671 236.916 147.159 C 231.455 142.191 236.017 119.269 233.54 108.069 C 232.934 105.239 235.002 106.716 234.749 101.318 z"/>
<path transform="translate(0,0)" fill="rgb(244,244,250)" d="M 234.749 101.318 C 234.292 98.2404 233.63 95.8471 235.075 93.0689 C 243.288 86.1599 246.38 93.3346 247.457 100.725 C 242.512 101.429 239.767 101.402 234.749 101.318 z"/>
<path transform="translate(0,0)" fill="rgb(11,16,32)" d="M 234.749 101.318 C 239.767 101.402 242.512 101.429 247.457 100.725 C 245.858 106.29 247.775 104.817 247.392 107.926 C 243.197 106.829 237.749 107.342 233.54 108.069 C 232.934 105.239 235.002 106.716 234.749 101.318 z"/>
<path transform="translate(0,0)" fill="rgb(130,144,164)" d="M 1294.27 114.09 C 1295.91 114.013 1305.02 115.384 1307.06 115.649 C 1311.98 119.855 1311.74 163.778 1288.71 143.721 C 1292.16 139.702 1293.68 143.565 1299.1 144.272 C 1302.44 142.89 1301.73 142.832 1303.86 139.321 C 1302.51 136.384 1296.5 139.661 1290.67 135.692 C 1284.99 128.592 1287.77 119.58 1294.27 114.09 z"/>
<path transform="translate(0,0)" fill="rgb(4,7,20)" d="M 1296.83 117.582 C 1307.03 119.942 1304 128.606 1300.42 134.966 C 1290.27 133.22 1290.84 123.332 1296.83 117.582 z"/>
<path transform="translate(0,0)" fill="rgb(130,144,164)" d="M 650.252 103.75 C 654.602 106.71 653.689 131.852 652.245 137.012 C 647.226 137.955 642.653 138.626 637.552 138.231 C 631.275 132.867 629.239 120.723 636.672 115.286 C 639.114 113.5 644.267 114.659 647.307 115.103 C 649.558 109.218 646.374 108.801 650.252 103.75 z"/>
<path transform="translate(0,0)" fill="rgb(4,7,20)" d="M 641.918 117.381 C 650.921 121.086 648.114 129.267 643.933 135.482 C 634.488 132.169 634.221 122.645 641.918 117.381 z"/>
<path transform="translate(0,0)" fill="rgb(122,135,155)" d="M 933.041 117.83 L 931.827 116.417 C 933.138 113.56 934.101 111.18 936.032 108.67 C 940.327 110.881 937.185 112.632 942.764 114.835 C 951.206 111.922 948.468 101.872 954.827 103.289 C 956.541 105.792 956.469 104.916 956.017 107.453 C 953.1 109.875 952.575 109.438 952.22 112.479 C 953.789 113.548 955.07 114.358 956.717 115.301 L 956.311 117.278 C 955.838 117.58 952.451 119.667 952.389 119.88 C 950.784 125.357 954.762 133.509 950.5 137.946 C 945.385 136.475 947.333 125.399 946.782 120.515 C 942.072 125.955 948.833 130.107 942.118 135.272 C 943.02 136.271 942.757 135.934 942.72 137.664 C 940.171 138.708 939.652 138.629 937.008 137.82 C 931.565 132.908 935.754 125.483 933.041 117.83 z"/>
<path transform="translate(0,0)" fill="rgb(4,7,20)" d="M 942.118 135.272 C 936.711 131.478 937.739 123.891 940.89 118.874 C 943.918 117.594 942.769 117.681 945.946 118.466 L 946.782 120.515 C 942.072 125.955 948.833 130.107 942.118 135.272 z"/>
<path transform="translate(0,0)" fill="rgb(130,144,164)" d="M 870.832 104.224 C 873.723 104.06 876.617 103.943 879.512 103.875 C 886.689 103.739 894.717 106.213 894.85 114.552 C 890.547 122.653 882.829 121.92 874.927 121.848 C 875.254 125.841 876.533 136.596 872.884 138.559 C 868.84 134.591 870.073 110.045 870.832 104.224 z"/>
<path transform="translate(0,0)" fill="rgb(4,7,20)" d="M 876.006 108.306 C 880.17 108.197 885.545 107.462 888.607 110.138 C 889.699 114.001 889.364 113.039 888.324 117.197 C 886.403 117.319 884.48 117.411 882.556 117.475 C 878.842 117.577 877.806 117.44 875.352 115.124 C 874.916 112.055 875.191 111.193 876.006 108.306 z"/>
<path transform="translate(0,0)" fill="rgb(130,144,164)" d="M 563.132 104.309 C 572.955 103.803 588.678 100.856 587.549 115.924 C 583.368 120.297 581.959 121.625 575.827 121.759 C 573.127 121.805 570.427 121.812 567.727 121.782 C 568.093 126.416 569.054 131.925 566.847 135.92 L 565.33 137.272 C 561.977 134.246 562.948 130.085 563.115 125.75 C 563.082 118.603 563.088 111.456 563.132 104.309 z"/>
<path transform="translate(0,0)" fill="rgb(4,7,20)" d="M 568.857 108.285 C 572.767 108.19 578.483 107.496 581.339 110.046 C 582.531 113.997 582.2 112.944 581.216 117.2 L 580.409 117.249 C 575.134 117.556 571.892 118.456 568.153 115.129 C 567.71 112.037 568.001 111.181 568.857 108.285 z"/>
<path transform="translate(0,0)" fill="rgb(130,144,164)" d="M 1178.01 104.254 C 1185.48 103.863 1198.15 102.004 1201.75 110.184 C 1203.05 124.392 1190.09 120.444 1182.28 122.531 C 1182.6 128.231 1183.08 132.077 1181.37 137.62 L 1179.9 137.933 C 1176.3 130.13 1176.8 112.664 1178.01 104.254 z"/>
<path transform="translate(0,0)" fill="rgb(4,7,20)" d="M 1183.43 108.176 C 1188.34 108.113 1193.04 107.265 1196.49 111.102 C 1196.97 113.955 1196.27 114.876 1194.83 117.298 C 1189.98 117.561 1185.31 118.662 1182.29 114.381 C 1182.27 111.481 1182.29 110.827 1183.43 108.176 z"/>
<path transform="translate(0,0)" fill="rgb(130,144,164)" d="M 964.962 114.241 C 982.018 113.011 985.18 127.854 973.586 138.358 C 956.789 139.654 953.557 124.537 964.962 114.241 z"/>
<path transform="translate(0,0)" fill="rgb(4,7,20)" d="M 967.765 117.375 C 978.731 120.145 976.607 128.962 970.52 135.525 C 960.871 131.849 961.201 123.793 967.765 117.375 z"/>
<path transform="translate(0,0)" fill="rgb(130,144,164)" d="M 613.101 114.238 C 630.245 113.138 632.877 128.223 621.578 138.359 C 604.717 139.685 601.497 124.051 613.101 114.238 z"/>
<path transform="translate(0,0)" fill="rgb(4,7,20)" d="M 615.758 117.395 C 626.702 120.096 624.559 128.973 618.521 135.528 C 609.007 131.854 609.153 123.889 615.758 117.395 z"/>
<path transform="translate(0,0)" fill="rgb(130,144,164)" d="M 1521.92 114.209 C 1523.43 114.11 1525.05 114.031 1526.56 114.088 C 1529.45 114.224 1532.16 115.512 1534.1 117.662 C 1540.38 124.568 1536.24 133.177 1530.28 138.494 C 1528.84 138.571 1527.32 138.622 1525.88 138.545 C 1522.85 138.385 1520.02 137.006 1518.03 134.722 C 1511.94 127.818 1515.94 119.439 1521.92 114.209 z"/>
<path transform="translate(0,0)" fill="rgb(4,7,20)" d="M 1524.72 117.325 C 1535.41 120.158 1533.44 128.986 1527.46 135.413 C 1517.5 132.144 1518 123.559 1524.72 117.325 z"/>
<path transform="translate(0,0)" fill="rgb(130,144,164)" d="M 1249.75 130.15 C 1249.4 135.018 1247.06 137.564 1242.71 139.165 C 1235.08 138.595 1230.77 131.562 1230.03 124.453 C 1229.26 117.008 1235.23 114.425 1241.5 114.205 C 1245.27 114.073 1247.26 116.486 1249.89 118.946 C 1250.32 122.634 1254.13 125.282 1251.85 130.005 L 1249.75 130.15 z"/>
<path transform="translate(0,0)" fill="rgb(4,7,20)" d="M 1249.89 118.946 C 1250.32 122.634 1254.13 125.282 1251.85 130.005 L 1249.75 130.15 C 1244.54 131.076 1244.58 134.414 1239.24 134.356 C 1234.9 131.315 1234.53 124.878 1236.6 120.377 C 1242.74 115.067 1241.96 121.197 1247.91 121.128 L 1249.89 118.946 z"/>
<path transform="translate(0,0)" fill="rgb(130,144,164)" d="M 1007.24 114.494 C 1011.14 113.312 1011.99 115.55 1014.73 116.802 C 1018.6 117.913 1018.49 113.704 1023.39 113.763 C 1030.97 113.854 1032.85 135.661 1028.11 137.865 C 1024.9 134.839 1025.29 122.987 1021.28 117.644 L 1019.81 117.647 C 1015.58 123.814 1016.08 126.447 1016.23 133.759 L 1016.5 135.53 C 1015.31 137.866 1016 137.276 1013.52 138.115 C 1008.75 134.896 1012.56 126.738 1010.9 120.495 C 1008.47 117.951 1009.3 118.074 1006.27 117.457 C 1000.86 122.182 1004.14 135.458 999.687 138.181 C 995.206 133.947 1000.4 123.948 996.961 116.669 L 996.91 116.564 L 998.677 114.928 C 1000.94 115.141 1002.14 115.647 1004.28 116.416 L 1007.24 114.494 z"/>
<path transform="translate(0,0)" fill="rgb(130,144,164)" d="M 913.835 114.145 C 929.599 113.364 926.651 120.368 927.963 132.529 C 927.986 132.744 930.262 134.665 930.548 137.181 L 929.088 138.597 C 928.49 138.624 927.018 138.825 926.688 138.488 C 920.352 132.022 920.568 139.518 910.874 138.509 C 908.971 136.263 907.437 133.89 907.576 130.931 C 910.785 124.057 915.349 125.202 922.439 121.115 L 921.395 119.464 C 917.683 117.858 913.741 121.044 908.516 120.304 L 908.526 119.124 C 909.188 117.91 912.601 115.2 913.835 114.145 z"/>
<path transform="translate(0,0)" fill="rgb(130,144,164)" d="M 1273.28 114.456 C 1285.48 112.642 1285.48 131.977 1281.66 137.679 C 1276.56 135.899 1282.61 125.298 1274.22 116.996 C 1273.9 117.106 1273.58 117.223 1273.26 117.348 C 1265.8 120.254 1269.36 131.828 1266.05 137.982 L 1265.02 137.479 C 1264.63 136.389 1264.33 135.269 1264.12 134.128 C 1263.45 130.475 1262.76 118.006 1264.74 115.14 C 1266.75 115.475 1268.31 115.956 1270.26 116.532 L 1273.28 114.456 z"/>
<path transform="translate(0,0)" fill="rgb(4,7,20)" d="M 3653.4 83.656 C 3653.76 83.7848 3654.16 83.9518 3654.42 84.2389 C 3657.49 87.6162 3655.73 159.999 3655.56 168.922 L 3654.05 168.618 C 3652.53 165.926 3653.21 92.0631 3653.4 83.656 z"/>
<path transform="translate(0,0)" fill="rgb(130,144,164)" d="M 900.089 103.657 C 902.232 104.983 903.016 105.725 903.04 108.508 C 903.124 118.045 903.915 129.413 902.464 138.812 C 901.056 138.092 899.502 137.629 899.247 135.967 C 898.319 129.918 897.825 108.586 900.089 103.657 z"/>
<path transform="translate(0,0)" fill="rgb(130,144,164)" d="M 994.076 114.809 L 995.605 115.033 L 995.935 116.272 C 995.506 116.606 995.083 116.948 994.668 117.299 C 982.931 127.227 995.359 131.577 986.396 139.203 C 984.55 135.466 984.034 117.984 986.97 114.798 L 991.03 116.282 L 994.076 114.809 z"/>
<path transform="translate(0,0)" fill="rgb(130,144,164)" d="M 1215.09 114.638 L 1216.55 114.93 L 1216.9 116.371 C 1203.04 125.576 1215.82 130.563 1207.43 139.302 C 1205.42 135.61 1204.81 118.056 1207.98 114.883 L 1211.75 116.321 L 1215.09 114.638 z"/>
<path transform="translate(0,0)" fill="rgb(130,144,164)" d="M 600.399 114.895 L 602.044 114.8 L 602.696 116.529 C 589.732 124.019 599.473 129.981 594.559 139.259 C 590.187 135.803 590.952 121.696 592.054 116.524 C 594.631 113.488 594.648 117.967 600.399 114.895 z"/>
<path transform="translate(0,0)" fill="rgb(4,7,20)" d="M 256.519 134.881 L 255.77 138.955 L 254.631 139.573 C 246.366 134.895 248.191 119.22 253.413 115.691 C 256.204 117.997 252.551 127.428 255.441 131.209 C 255.69 132.462 256.05 133.691 256.519 134.881 z"/>
<path transform="translate(0,0)" fill="rgb(4,7,20)" d="M 137.514 87.3128 C 143.801 87.161 168.331 86.1638 172.368 88.0753 L 172.895 90.4838 C 166.4 90.6257 142.782 91.523 138.345 89.7281 L 137.514 87.3128 z"/>
<path transform="translate(0,0)" fill="rgb(4,7,20)" d="M 197.658 143.28 C 201.406 145.261 202.773 146.268 206.091 148.927 C 209.65 149.815 215.152 148.706 217.917 150.058 C 215.161 155.518 208.374 151.099 202.825 153.494 L 201.069 160.039 L 201.099 159.744 L 200.087 159.338 C 199.682 152.422 199.35 149.993 197.658 143.28 z"/>
<path transform="translate(0,0)" fill="rgb(130,144,164)" d="M 1255.19 113.746 C 1260.42 115.894 1258.62 133.986 1257.61 138.828 C 1255.79 138.206 1255.54 137.885 1254.4 136.335 C 1253.65 130.883 1253.04 118.685 1255.19 113.746 z"/>
<path transform="translate(0,0)" fill="rgb(130,144,164)" d="M 1223.23 113.761 C 1224.71 114.344 1225.12 115.231 1225.99 116.555 C 1226.66 122.049 1226.72 133.492 1225.56 138.833 C 1224.46 138.289 1222.68 137.613 1222.42 136.339 C 1221.38 131.057 1221.21 118.381 1223.23 113.761 z"/>
<path transform="translate(0,0)" fill="rgb(4,7,20)" d="M 136.644 150.464 C 137.363 150.322 138.088 150.216 138.818 150.147 C 144.755 149.639 170.507 148.548 174.252 151.679 C 169.811 153.359 140.308 153.745 136.644 150.464 z"/>
<path transform="translate(0,0)" fill="rgb(4,7,20)" d="M 264.508 149.476 C 269.582 149.467 283.356 148.915 287.34 149.981 L 287.651 152.176 C 281.31 153.142 268.328 155.045 264.508 149.476 z"/>
<path transform="translate(0,0)" fill="rgb(4,7,20)" d="M 151.57 106.303 C 156.349 106.311 169.371 105.41 172.766 107.513 L 171.811 109.623 C 167.008 109.816 157.878 110.489 153.579 109.663 L 151.57 106.303 z"/>
<path transform="translate(0,0)" fill="rgb(4,7,20)" d="M 318.081 121.406 C 318.226 116.523 317.829 113.533 319.475 109.051 C 322.578 111.458 321.373 126.939 321.824 131.075 C 318.818 127.605 318.853 125.831 318.081 121.406 z"/>
<path transform="translate(0,0)" fill="rgb(4,7,20)" d="M 331.107 124.118 C 334.303 125.662 334.646 127.224 334.906 130.95 C 334.842 135.819 334.916 138.649 333.673 143.451 L 332.692 143.743 C 330.871 135.37 331.441 132.534 331.107 124.118 z"/>
<path transform="translate(0,0)" fill="rgb(4,7,20)" d="M 587.549 115.924 L 589.39 116.429 C 590.595 120.89 589.954 132.717 589.879 138.022 L 588.061 137.268 C 587.025 134.097 587.221 119.629 587.549 115.924 z"/>
<path transform="translate(0,0)" fill="rgb(4,7,20)" d="M 1483.95 140.499 C 1484.2 140.469 1484.46 140.446 1484.72 140.433 C 1491.11 140.035 1500.13 138.47 1504.61 142.431 C 1498.07 142.78 1488.62 144.395 1483.95 140.499 z"/>
<path transform="translate(0,0)" fill="rgb(4,7,20)" d="M 300.396 112.634 L 301.836 113.815 C 304.001 119.495 301.098 127.383 299.516 133.309 L 299.49 133.549 C 299.293 127.762 298.572 117.735 300.396 112.634 z"/>
<path transform="translate(0,0)" fill="rgb(4,7,20)" d="M 660.339 140.51 C 665.306 139.74 676.329 138.912 679.626 142.562 C 673.978 142.782 664.255 144.474 660.339 140.51 z"/>
<path transform="translate(0,0)" fill="rgb(4,7,20)" d="M 635 140.493 C 639.907 140.061 650.224 139.171 654.165 141.66 C 649.916 143.636 638.799 143.843 635 140.493 z"/>
<path transform="translate(0,0)" fill="rgb(4,7,20)" d="M 302.892 100.399 C 307.528 100.351 313.952 98.6571 314.556 103.741 C 310.522 103.874 305.756 104.554 302.591 102.506 L 302.892 100.399 z"/>
<path transform="translate(0,0)" fill="rgb(4,7,20)" d="M 982.379 113.798 C 984.6 116.185 983.592 134.69 983.499 139.152 C 982.812 130.259 979.37 121.8 982.379 113.798 z"/>
<path transform="translate(0,0)" fill="rgb(4,7,20)" d="M 351.568 100.457 C 355.611 100.281 357.541 100.077 361.457 101.079 L 362.042 102.415 L 360.752 103.772 C 357.367 103.81 352.258 104.433 350.066 102.593 L 351.568 100.457 z"/>
<path transform="translate(0,0)" fill="rgb(4,7,20)" d="M 933.041 117.83 C 932.318 123.168 934.269 131.329 930.332 134.512 C 929.209 129.562 928.928 121.196 933.041 117.83 z"/>
<path transform="translate(0,0)" fill="rgb(4,7,20)" d="M 311.479 150.472 C 315.65 149.828 323.882 148.636 326.9 151.55 C 323.07 153.4 314.948 153.434 311.479 150.472 z"/>
<path transform="translate(0,0)" fill="rgb(4,7,20)" d="M 328.65 100.239 C 331.633 100.191 336.104 99.9754 337.939 102.484 L 336.749 103.756 C 333.019 103.933 331.328 104.046 327.631 103.438 L 327.148 102.101 L 328.65 100.239 z"/>
<path transform="translate(0,0)" fill="rgb(4,7,20)" d="M 876.318 123.432 C 882.037 123.032 887.434 121.91 891.606 125.439 C 885.749 126.041 880.667 127.655 876.318 123.432 z"/>
<path transform="translate(0,0)" fill="rgb(4,7,20)" d="M 1183.35 123.451 C 1189.05 123.031 1194.52 121.944 1198.6 125.436 C 1197.21 125.58 1195.81 125.712 1194.41 125.832 C 1188.53 126.329 1187.21 126.705 1183.35 123.451 z"/>
<path transform="translate(0,0)" fill="rgb(4,7,20)" d="M 1291.83 150.447 C 1296.6 150.029 1302.35 148.634 1305.41 152.539 C 1301.24 152.896 1296.73 153.556 1292.75 152.329 L 1291.83 150.447 z"/>
<path transform="translate(0,0)" fill="rgb(4,7,20)" d="M 233.189 150.462 C 238.022 149.837 243.486 148.427 247.281 151.769 C 242.615 153.039 237.167 153.603 233.189 150.462 z"/>
<path transform="translate(0,0)" fill="rgb(4,7,20)" d="M 962.629 140.442 C 966.463 140.137 971.091 139.487 974.703 140.565 L 975.395 142.494 C 971.186 142.863 967.882 143.365 963.737 142.317 L 962.629 140.442 z"/>
<path transform="translate(0,0)" fill="rgb(4,7,20)" d="M 610.614 140.447 C 614.46 140.134 619.091 139.47 622.714 140.564 L 623.382 142.492 C 619.08 142.869 612.962 144.346 610.614 140.447 z"/>
<path transform="translate(0,0)" fill="rgb(4,7,20)" d="M 1234.61 140.438 C 1239.1 140.042 1244.87 138.537 1247.48 142.535 C 1243.17 142.889 1236.94 144.329 1234.61 140.438 z"/>
<path transform="translate(0,0)" fill="rgb(4,7,20)" d="M 684.188 140.43 C 687.919 140.108 692.165 139.457 695.665 140.644 L 696.567 142.539 C 691.988 142.948 687.076 144.234 684.188 140.43 z"/>
<path transform="translate(0,0)" fill="rgb(4,7,20)" d="M 1519.62 140.427 C 1524.12 140.008 1530.03 138.477 1532.54 142.521 C 1527.6 142.951 1523.14 144.114 1519.62 140.427 z"/>
<path transform="translate(0,0)" fill="rgb(4,7,20)" d="M 1545.2 140.428 C 1549.61 139.985 1552.04 139.57 1556.36 140.498 L 1557.56 142.514 C 1552.99 142.939 1548.07 144.242 1545.2 140.428 z"/>
<path transform="translate(0,0)" fill="rgb(4,7,20)" d="M 908.755 140.451 C 912.127 140.183 917.047 139.442 920.013 140.703 L 920.456 142.523 C 916.134 142.942 913.957 143.317 909.743 142.313 L 908.755 140.451 z"/>
<path transform="translate(0,0)" fill="rgb(4,7,20)" d="M 704.052 140.498 C 708.146 139.96 711.125 139.168 714.335 141.954 C 709.458 143.198 708.118 143.77 704.052 140.498 z"/>
</svg>