<!-- RECRAFT VECTORIZE from logo/options-w3/mock/T3-liberation-bold-navbar-light.png -->
<svg version="1.1" xmlns="http://www.w3.org/2000/svg" style="display: block;" viewBox="0 0 4096 256" width="4096" height="256" preserveAspectRatio="none">
<path transform="translate(0,0)" fill="rgb(255,255,255)" d="M 0 0 L 4096 0 L 4096 256 L 0 256 L 0 0 z"/>
<path transform="translate(0,0)" fill="rgb(66,55,201)" d="M 3680.91 61.8566 C 3683.63 59.9241 3849.92 60.7553 3867.05 60.7593 L 3927.21 60.7519 C 3936.24 60.752 3952.4 60.2989 3960.99 61.3772 C 3962.48 63.0932 3979.07 74.2388 3980.27 77.7383 C 3984.31 89.5547 3985.06 103.886 3984.07 117.032 C 3982.05 143.711 3993.12 170.993 3966.07 187.995 C 3963.13 189.842 3963.04 188.614 3960.83 191.422 C 3945.93 193.156 3682.86 191.805 3681.03 191.015 C 3679.43 188.788 3677.09 189.53 3675.83 188.29 C 3671.05 183.608 3661.65 177.32 3660.63 170.622 C 3660.41 169.228 3659.6 168.951 3658.42 167.919 C 3657.17 161.228 3656.94 88.3365 3658.9 84.9382 C 3661.5 82.946 3660.06 80.4807 3661.74 78.2938 C 3665.57 73.3024 3670.52 68.6285 3675.41 64.7077 C 3676.45 63.8735 3677.51 64.5511 3680.91 61.8566 z"/>
<path transform="translate(0,0)" fill="rgb(53,40,197)" d="M 3680.91 61.8566 C 3683.63 59.9241 3849.92 60.7553 3867.05 60.7593 L 3927.21 60.7519 C 3936.24 60.752 3952.4 60.2989 3960.99 61.3772 L 3959.96 64.4426 C 3959.67 64.5852 3701.96 66.3098 3683.07 64.8609 C 3681.01 63.5169 3681.48 64.2155 3680.91 61.8566 z"/>
<path transform="translate(0,0)" fill="rgb(53,40,197)" d="M 3681.03 191.015 L 3681.65 188.136 C 3683.72 187.061 3726.88 187.682 3732.41 187.685 L 3907.09 187.702 C 3914.19 187.702 3957.67 186.556 3960.17 188.942 L 3960.83 191.422 C 3945.93 193.156 3682.86 191.805 3681.03 191.015 z"/>
<path transform="translate(0,0)" fill="rgb(53,40,197)" d="M 3658.42 167.919 C 3657.17 161.228 3656.94 88.3365 3658.9 84.9382 L 3661.32 86.3111 C 3662.64 92.6078 3662.6 163.644 3660.48 167.005 L 3658.42 167.919 z"/>
<path transform="translate(0,0)" fill="rgb(255,255,255)" d="M 3903.58 133.853 C 3901.22 136.411 3898.74 138.432 3895.2 138.559 C 3872.56 139.366 3886.91 98.5875 3902.31 119.019 C 3903.75 120.931 3903.48 122.204 3905.94 123.139 C 3908.25 114.093 3911.13 114.264 3919.8 114.876 C 3923.64 111.559 3919.81 108.54 3923.91 104.433 L 3925.85 105.111 L 3926.89 107.479 C 3927.55 113.426 3928.18 131.832 3927.09 137.483 C 3926.21 137.995 3913.32 139.641 3911.46 139.484 C 3908.22 137.683 3905.32 134.064 3903.58 133.853 z"/>
<path transform="translate(0,0)" fill="rgb(53,40,197)" d="M 3905.72 127.419 C 3907.05 134.01 3909.13 139.574 3917 137.742 C 3919.84 137.081 3922.91 138.566 3925.84 136.275 C 3926.92 132.055 3926.02 114.62 3926.89 107.479 C 3927.55 113.426 3928.18 131.832 3927.09 137.483 C 3926.21 137.995 3913.32 139.641 3911.46 139.484 C 3908.22 137.683 3905.32 134.064 3903.58 133.853 C 3900.1 129.588 3897.29 136.067 3891.47 133.96 C 3888.85 131.681 3889.36 132.69 3888.54 129.654 C 3890.42 128.061 3901.79 127.81 3905.72 127.419 z"/>
<path transform="translate(0,0)" fill="rgb(53,40,197)" d="M 3914.8 117.382 C 3924.68 120.759 3921.77 128.607 3917.85 135.404 C 3915.15 134.594 3914.65 134.298 3912.4 132.614 C 3908.86 126.71 3909.89 122.008 3914.8 117.382 z"/>
<path transform="translate(0,0)" fill="rgb(255,255,255)" d="M 3727.74 120.386 C 3730.88 120.496 3737.09 120.149 3739.31 122.62 C 3742.52 126.194 3742.08 130.149 3738.73 133.543 C 3735.36 136.911 3730.79 138.807 3726.02 138.817 C 3716.72 138.81 3710.43 129.953 3710.48 121.276 C 3710.5 116.443 3712.46 111.821 3715.93 108.45 C 3723.99 100.585 3738.68 102.885 3738.45 113.236 L 3735.84 115.034 C 3739.05 118.438 3743.61 115.615 3745.08 119.498 C 3743.74 123.968 3743.12 125.543 3743.77 130.139 L 3742.97 129.83 C 3742.75 126.394 3742.65 122.953 3742.64 119.51 C 3738.32 119.502 3731.69 119.178 3727.74 120.386 z"/>
<path transform="translate(0,0)" fill="rgb(53,40,197)" d="M 3727.74 120.386 L 3727.29 122.585 C 3729.51 126.335 3734.71 124.117 3736.65 129.036 C 3734.66 132.078 3727.78 135.64 3724.48 134.708 C 3708.31 130.137 3719.3 91.6533 3735.84 115.034 C 3739.05 118.438 3743.61 115.615 3745.08 119.498 C 3743.74 123.968 3743.12 125.543 3743.77 130.139 L 3742.97 129.83 C 3742.75 126.394 3742.65 122.953 3742.64 119.51 C 3738.32 119.502 3731.69 119.178 3727.74 120.386 z"/>
<path transform="translate(0,0)" fill="rgb(255,255,255)" d="M 3853.33 136.105 C 3848.58 141.871 3847.05 136.177 3844.6 136.402 C 3840.64 136.764 3837.23 141.158 3831.15 137.762 C 3822.52 123.75 3840.11 126.406 3843.83 121.528 C 3842.08 118.872 3842.94 119.615 3839.87 118.386 C 3836.57 119.309 3835.15 119.93 3832.07 121.379 L 3830.57 120.49 L 3830.55 118.243 C 3832.24 116.163 3834.44 114.808 3837.09 114.485 C 3852.19 112.645 3848.72 125.276 3850.25 134.009 L 3853.33 136.105 z"/>
<path transform="translate(0,0)" fill="rgb(255,255,255)" d="M 3752.61 114.109 C 3759.47 113.828 3767.1 116.507 3767.65 124.419 C 3764.27 130.346 3754.92 126.882 3751.08 130.207 C 3752.25 132.916 3751.73 132.055 3754.53 133.939 C 3757.53 134.715 3759.88 133.677 3762.81 132.744 C 3763.79 131.974 3763.52 132.206 3765.05 132.268 L 3765.29 133.762 C 3757.52 147.888 3733.59 129.982 3752.61 114.109 z"/>
<path transform="translate(0,0)" fill="rgb(255,255,255)" d="M 3798.48 114.079 C 3804.55 113.832 3808.27 113.365 3812.05 119.071 L 3810.99 120.015 C 3807.18 119.797 3803.38 119.489 3799.58 119.091 L 3798.79 120.455 C 3803.58 126.244 3812.31 124.346 3813.17 132.219 C 3811.61 135.519 3810.54 136.239 3807.75 138.519 C 3802.58 138.699 3795.64 139.383 3793.92 133.016 C 3796.08 131.847 3803.36 133.479 3807.63 133.384 L 3808.31 132.093 C 3805.68 126.108 3796.58 128.548 3793.96 121.305 C 3794.53 117.792 3796.03 116.609 3798.48 114.079 z"/>
<path transform="translate(0,0)" fill="rgb(255,255,255)" d="M 3819.29 107.61 C 3820.95 108.504 3825.69 114.716 3823.95 117.848 C 3818.72 127.257 3822.75 131.918 3827.5 137.945 C 3822.71 138.314 3823.51 138.937 3819.7 136.918 C 3814.63 130.103 3814.86 114.947 3819.29 107.61 z"/>
<path transform="translate(0,0)" fill="rgb(255,255,255)" d="M 3871.56 114.289 C 3872.56 110.393 3871.88 110.883 3874.55 108.153 C 3876.9 110.884 3874.88 112.17 3877.51 113.611 C 3878.51 114.154 3879.38 114.87 3880.24 115.607 C 3877.73 123.29 3874.41 120.834 3876.11 132.493 L 3880.7 135.99 L 3880.4 137.513 C 3877.39 138.774 3878.49 138.728 3875.48 137.997 C 3868.38 130.914 3875.44 123.264 3867.82 115.059 L 3871.56 114.289 z"/>
<path transform="translate(0,0)" fill="rgb(255,255,255)" d="M 3774.37 107.678 L 3776.11 108.976 C 3776.71 115.544 3784.12 111.864 3776.63 123.514 C 3774.39 127.007 3779.44 133.644 3782.51 137.357 C 3780.02 138.337 3779.11 138.219 3776.43 138.098 C 3768.25 133.158 3776.13 124.751 3770.42 117.102 C 3770.57 114.739 3772.96 111.68 3774.37 107.678 z"/>
<path transform="translate(0,0)" fill="rgb(255,255,255)" d="M 3860.16 115.832 C 3863.03 114.472 3863.69 114.399 3866.84 114.712 C 3864.82 119.728 3857.27 122.32 3859.15 133.293 C 3859.38 134.642 3859.26 136.561 3858.23 137.535 C 3855.27 133.249 3853.29 118.319 3857.45 114.901 L 3860.16 115.832 z"/>
<path transform="translate(0,0)" fill="rgb(53,40,197)" d="M 3860.16 115.832 C 3859 110.749 3857.95 114.47 3855.53 111.182 C 3859.56 109.949 3866.41 108.383 3870.39 110.319 L 3871.56 114.289 L 3867.82 115.059 L 3866.84 114.712 C 3863.69 114.399 3863.03 114.472 3860.16 115.832 z"/>
<path transform="translate(0,0)" fill="rgb(53,40,197)" d="M 3909.05 140.427 C 3913.36 139.87 3922.05 139.76 3926.25 140.659 L 3927.48 142.597 C 3921.98 142.464 3912.22 144.724 3909.05 140.427 z"/>
<path transform="translate(0,0)" fill="rgb(53,40,197)" d="M 3850.25 134.009 C 3852.5 126.737 3851.03 123.326 3853.16 116.95 C 3854.13 121.701 3854.17 131.346 3853.33 136.105 L 3850.25 134.009 z"/>
<path transform="translate(0,0)" fill="rgb(53,40,197)" d="M 3718.31 140.525 C 3723.37 139.802 3732.05 138.699 3735.61 142.439 C 3732.76 142.626 3729.91 142.772 3727.05 142.878 C 3722.94 142.998 3721.04 143.088 3718.31 140.525 z"/>
<path transform="translate(0,0)" fill="rgb(53,40,197)" d="M 3795.57 140.462 C 3800.27 140.09 3807.87 138.366 3810.52 142.496 C 3806.04 142.788 3798.02 144.311 3795.57 140.462 z"/>
<path transform="translate(0,0)" fill="rgb(53,40,197)" d="M 3768.67 118.445 L 3770.62 120.166 C 3771.09 123.41 3771.47 131.438 3769.56 134.085 L 3768.92 133.469 C 3768.44 129.363 3768.55 122.687 3768.67 118.445 z"/>
<path transform="translate(0,0)" fill="rgb(53,40,197)" d="M 3750.18 140.428 C 3754.71 140.005 3760.98 138.452 3763.53 142.518 C 3758.89 142.899 3753.13 144.234 3750.18 140.428 z"/>
<path transform="translate(0,0)" fill="rgb(53,40,197)" d="M 3749.39 110.529 C 3753.76 109.965 3760.5 108.862 3764.19 111.681 C 3759.55 113.308 3753.3 113.707 3749.39 110.529 z"/>
<path transform="translate(0,0)" fill="rgb(53,40,197)" d="M 3887.56 140.452 C 3890.9 140.112 3897.12 139.474 3900.04 140.724 L 3900.44 142.477 C 3895.65 142.901 3893.43 143.222 3888.73 142.302 L 3887.56 140.452 z"/>
<path transform="translate(0,0)" fill="rgb(53,40,197)" d="M 3830.83 140.419 C 3835.22 139.956 3840.04 138.527 3842.53 142.517 C 3837.74 142.95 3834.23 144.055 3830.83 140.419 z"/>
<path transform="translate(0,0)" fill="rgb(53,40,197)" d="M 3817.82 140.441 C 3821.18 139.982 3823.02 139.543 3826.31 140.512 L 3827.1 142.603 C 3823.8 142.913 3821.98 143.245 3818.75 142.319 L 3817.82 140.441 z"/>
<path transform="translate(0,0)" fill="rgb(1,2,12)" d="M 185.861 107.132 C 193.008 106.919 190.604 107.639 196.627 110.017 C 199.884 109.861 204.489 106.272 207.525 106.498 C 225.179 107.806 225.165 135.141 215.232 145.007 C 211.104 149.107 207.933 148.583 202.41 148.56 C 199.385 146.187 199.497 145.489 196.134 145.192 C 193.133 150.026 197.219 154.846 194.29 161.878 C 191.405 164.508 192.591 163.777 188.601 164.563 L 187.419 163.71 C 184.471 156.95 184.4 114.215 185.861 107.132 z"/>
<path transform="translate(0,0)" fill="rgb(255,255,255)" d="M 200.118 113.782 C 215.529 112.65 213.349 132.956 205.854 141.829 C 191.022 141.348 192.685 122.693 200.118 113.782 z"/>
<path transform="translate(0,0)" fill="rgb(1,2,12)" d="M 260.401 107.189 C 289.86 103.602 294.723 135.59 273.395 148.029 C 269.496 148.401 263.178 149.07 259.562 147.301 C 242.619 139.008 242.493 114.452 260.401 107.189 z"/>
<path transform="translate(0,0)" fill="rgb(255,255,255)" d="M 263.086 113.747 C 263.763 113.708 264.441 113.682 265.118 113.67 C 279.233 113.439 278.315 133.125 270.092 141.441 C 269.394 141.529 268.693 141.59 267.991 141.625 C 254.872 142.218 255.142 121.863 263.086 113.747 z"/>
<path transform="translate(0,0)" fill="rgb(1,2,12)" d="M 137.137 94.5928 C 149.076 95.4302 161.438 93.8323 173.174 95.4049 C 174.999 95.6495 174.904 96.1825 175.939 97.8291 C 174.907 106.933 154.609 103.649 146.866 103.418 C 146.588 126.437 154.033 114.506 170.553 117.073 C 172.542 117.382 172.667 118.424 173.6 120.087 C 173.219 123.752 173.813 122.676 171.453 125.055 L 149.932 125.059 L 147.931 125.939 C 146.308 129.051 146.811 135.721 146.845 139.511 C 154.625 139.418 169.816 137.608 176 141.048 C 177.731 143.809 177.493 142.646 176.77 146.021 C 172.497 149.081 144.581 147.893 136.855 148.175 C 137.029 130.361 136.625 112.387 137.137 94.5928 z"/>
<path transform="translate(0,0)" fill="rgb(1,2,12)" d="M 290.779 106.681 C 306.132 107.678 297.18 131.218 305.012 133.673 C 309.71 127.607 307.034 106.197 317.887 106.059 C 327.831 111.015 323.281 124.761 328.666 133.41 L 330.354 133.433 C 335.191 126.13 331.061 112.769 338.441 107.921 C 342.154 107.285 341.13 106.957 344.346 108.304 C 344.699 110.016 342.118 119.392 341.503 123.064 C 338.606 130.235 338.18 139.317 335.164 146.413 C 334.15 148.798 326.04 148.795 324.823 146.324 C 321.418 139.409 321.621 125.161 317.42 118.875 C 311.759 120.991 314.195 142.634 306.265 148.352 C 304.752 148.445 303.951 148.727 302.581 148.132 C 299.68 146.871 297.56 142.797 296.517 139.62 C 293.368 130.03 291.583 119.424 289.443 109.518 C 289.978 108.383 290.423 107.437 290.779 106.681 z"/>
<path transform="translate(0,0)" fill="rgb(162,175,193)" d="M 1467.38 104.149 C 1469.24 104.049 1471.11 103.975 1472.98 103.925 C 1491.23 103.478 1500.65 121.297 1487.38 134.651 C 1480.15 140.18 1474.78 138.702 1465.5 138.243 C 1465.44 131.126 1464.18 108.849 1467.38 104.149 z"/>
<path transform="translate(0,0)" fill="rgb(255,255,255)" d="M 1470.95 108.221 C 1472.37 108.168 1473.78 108.145 1475.19 108.15 C 1489.75 108.258 1491.89 124.001 1481.78 133.642 C 1465.9 136.152 1470.67 126.218 1470.21 114.68 C 1470.13 112.689 1470.48 110.145 1470.95 108.221 z"/>
<path transform="translate(0,0)" fill="rgb(162,175,193)" d="M 1274.93 114.251 C 1277.3 113.963 1286.23 114.759 1288.62 115.256 C 1289.06 116.564 1289.38 117.908 1289.59 119.272 C 1291.47 131.76 1289.91 159.447 1270.66 145.116 L 1270.41 142.969 C 1273.24 139.268 1275.57 144.959 1281.69 143.839 C 1284.04 140.87 1283.72 141.979 1284.26 138.62 C 1281.84 136.613 1279.74 139.069 1276.81 138.293 C 1264.6 135.05 1267.24 120.669 1274.93 114.251 z"/>
<path transform="translate(0,0)" fill="rgb(255,255,255)" d="M 1275.51 118.388 C 1287.11 117.892 1285.21 127.363 1281.62 134.536 L 1276.99 133.788 C 1271.73 129.261 1273.45 124.32 1275.51 118.388 z"/>
<path transform="translate(0,0)" fill="rgb(162,175,193)" d="M 630.094 103.574 C 631.016 103.997 632.58 104.484 632.83 105.243 C 634.65 110.757 634.545 132.101 632.8 136.937 C 628.778 138.044 623.036 138.33 618.829 138.488 C 613.433 134.194 612.191 128.834 612.978 122.232 C 614.075 113.021 621.556 114.193 627.664 114.979 C 629.197 114.057 628.344 108.195 630.094 103.574 z"/>
<path transform="translate(0,0)" fill="rgb(255,255,255)" d="M 621.635 117.264 L 625.292 118.619 C 631.102 124.299 628.882 128.727 625.619 135.052 C 622.747 134.582 621.756 134.49 619.447 132.588 C 615.796 126.818 617.213 122.014 621.635 117.264 z"/>
<path transform="translate(0,0)" fill="rgb(162,175,193)" d="M 1158.78 104.198 C 1161.75 104.045 1164.72 103.938 1167.69 103.877 C 1174.64 103.774 1183.16 106.441 1183.18 114.588 C 1179.04 122.443 1170.97 121.942 1163.38 121.787 C 1163.06 126.269 1164.48 135.833 1160.2 138.254 C 1157.59 132.073 1157.87 111.138 1158.78 104.198 z"/>
<path transform="translate(0,0)" fill="rgb(255,255,255)" d="M 1163.89 108.311 C 1169.13 108.121 1172.46 107.412 1176.64 110.08 C 1178 112.918 1177.47 114.264 1176.73 117.235 C 1174.7 117.367 1172.66 117.47 1170.63 117.544 C 1166.75 117.663 1165.82 117.531 1163.26 115.124 C 1162.83 112.058 1163.09 111.2 1163.89 108.311 z"/>
<path transform="translate(0,0)" fill="rgb(162,175,193)" d="M 544.266 104.277 C 552.78 103.769 564.807 102.2 568.83 112.088 C 568.135 121.924 557.626 121.952 550.148 121.768 C 546.571 125.844 551.258 131.873 547.732 137.71 L 545.529 137.908 L 544.033 136.482 C 543.507 129.875 543.755 110.856 544.266 104.277 z"/>
<path transform="translate(0,0)" fill="rgb(255,255,255)" d="M 549.478 108.24 C 553.312 108.218 559.134 107.478 561.874 109.621 C 563.523 113.549 563.001 112.647 562.225 117.3 C 557.34 117.573 552.522 118.684 548.876 115.124 C 548.411 112.043 548.695 111.152 549.478 108.24 z"/>
<path transform="translate(0,0)" fill="rgb(162,175,193)" d="M 851.691 104.219 C 860.068 103.811 871.987 102.355 875.994 112.048 C 875.418 121.884 864.618 121.944 857.183 121.74 C 854.572 125.886 858.029 131.369 854.122 138.517 C 849.497 137.838 850.865 108.926 851.691 104.219 z"/>
<path transform="translate(0,0)" fill="rgb(255,255,255)" d="M 856.604 108.242 C 861.724 108.055 865.622 107.22 869.548 110.134 C 870.794 112.914 870.146 114.444 869.363 117.317 C 863.909 117.612 860.419 118.534 856.247 115.502 C 855.426 112.549 855.915 111.146 856.604 108.242 z"/>
<path transform="translate(0,0)" fill="rgb(162,175,193)" d="M 640.528 113.509 C 648.125 118.219 641.014 127.621 645.148 132.976 C 647.66 134.388 648.174 134.483 651.035 134.139 C 657.728 128.173 650.93 118.236 656.465 114.687 C 658.976 116.433 659.673 120.644 660.829 124.072 C 661.65 122.043 662.416 120.44 663.39 118.499 C 666.74 111.83 677.709 112.548 679.322 120.373 C 676.501 120.14 673.341 119.351 670.548 118.739 C 667.008 119.846 668.038 119.416 665.544 122.478 C 665.556 127.18 665.185 129.256 668.346 132.507 C 672.299 133.977 675.306 133.385 679.502 132.973 L 679.272 134.192 C 671.475 142.235 663.678 139.193 661.167 128.153 C 659.074 129.712 659.519 135.608 657.046 137.856 C 642.378 138.923 636.815 135.118 639.04 119.943 C 639.438 117.226 639.248 116.204 640.528 113.509 z"/>
<path transform="translate(0,0)" fill="rgb(162,175,193)" d="M 945.783 114.199 C 947.156 114.095 948.532 114.051 949.909 114.066 C 963.506 114.334 964.108 129.392 954.378 138.483 C 937.608 139.569 934.416 124.353 945.783 114.199 z"/>
<path transform="translate(0,0)" fill="rgb(255,255,255)" d="M 948.619 117.366 C 959.466 119.879 957.463 128.981 951.565 135.443 C 941.612 132.452 941.779 123.541 948.619 117.366 z"/>
<path transform="translate(0,0)" fill="rgb(162,175,193)" d="M 593.897 114.199 C 595.228 114.109 596.562 114.078 597.896 114.107 C 611.461 114.493 611.933 129.555 602.445 138.416 C 585.375 139.472 582.392 124.116 593.897 114.199 z"/>
<path transform="translate(0,0)" fill="rgb(255,255,255)" d="M 596.642 117.37 C 607.521 119.83 605.352 129.024 599.578 135.476 C 589.609 132.378 589.748 123.556 596.642 117.37 z"/>
<path transform="translate(0,0)" fill="rgb(162,175,193)" d="M 1502.65 114.16 C 1519.81 113.212 1522.85 128.49 1510.73 138.594 C 1509.62 138.648 1508.51 138.656 1507.4 138.618 C 1493.62 138.094 1492.87 122.958 1502.65 114.16 z"/>
<path transform="translate(0,0)" fill="rgb(255,255,255)" d="M 1504.61 117.63 C 1515.7 118.755 1514.51 128.023 1509.22 134.896 C 1506.25 134.542 1505.66 134.38 1503.14 132.801 C 1498.89 127.285 1500.5 122.581 1504.61 117.63 z"/>
<path transform="translate(0,0)" fill="rgb(162,175,193)" d="M 985.222 114.382 C 992.888 113.266 990.705 115.501 996.936 116.477 C 1000.98 117.11 1003.81 111.5 1009.49 116.604 C 1011.42 120.762 1012.75 134.775 1009.03 138.016 L 1006.82 137.284 C 1004.57 133.535 1007.17 126.104 1005.16 120.541 C 1002.9 118.085 1003.93 118.595 1000.85 118.035 C 997.622 119.536 997.133 124.652 997.045 127.75 C 997.356 132.475 998.688 135.397 994.632 138.026 L 992.692 137.285 C 990.835 133.468 993.129 125.898 991.705 120.484 C 989.67 118.132 990.507 118.835 987.278 117.727 C 980.959 121.434 985.231 132.647 981.516 138.08 L 979.944 137.87 C 979.02 133.25 976.781 117.486 979.725 114.571 L 983.843 116.061 L 985.222 114.382 z"/>
<path transform="translate(0,0)" fill="rgb(1,2,12)" d="M 230.155 107.068 C 233.413 107.127 236.315 106.654 238.842 108.793 C 240.174 114.222 239.583 140.273 239.545 147.458 C 235.542 148.113 232.968 149.18 230.141 145.926 C 229.307 139.241 229.397 113.903 230.155 107.068 z"/>
<path transform="translate(0,0)" fill="rgb(162,175,193)" d="M 932.424 103.606 C 935.653 104.238 935.592 103.721 937.704 105.799 C 936.146 107.681 934.858 108.993 933.149 110.694 L 933.268 112.815 C 935.037 113.684 935.904 114.17 937.525 115.293 C 936.581 120.021 934.084 117.763 932.905 121.035 C 930.981 126.378 936.892 136.128 930.021 137.917 C 924.437 133.845 931.916 122.194 925.545 117.859 C 921.641 117.912 923.026 117.498 919.746 119.426 L 919.492 121.75 C 919.243 127.81 918.452 129.55 922.102 134.316 C 923.397 136.007 922.862 137.33 922.421 139.033 L 921.445 139.32 C 913.121 136.049 910.641 112.798 917.121 107.968 C 920.512 109.97 916.912 111.801 922.943 114.733 C 928.965 113.61 927.203 110.098 932.424 103.606 z"/>
<path transform="translate(0,0)" fill="rgb(162,175,193)" d="M 894.531 114.265 C 897.337 114.053 900.206 113.801 902.845 114.896 C 907.999 117.034 911.701 134.161 909.605 138.236 C 906.753 138.646 907.845 138.614 904.989 136.411 C 901.95 134.066 901.645 137.562 894.514 139.162 C 894.213 139.066 893.917 138.956 893.627 138.831 C 890.867 137.659 888.879 135.44 887.754 132.697 C 889.199 124.65 899.221 126.115 902.376 120.69 C 898.639 115.788 893.467 121.765 889.591 119.825 C 890.208 117.342 892.523 115.871 894.531 114.265 z"/>
<path transform="translate(0,0)" fill="rgb(162,175,193)" d="M 1548.78 114.128 C 1554.59 113.788 1559.35 113.58 1562.75 119.278 C 1559.84 120.616 1554.36 118.682 1549.39 119.12 L 1549.34 120.541 C 1551.24 123.13 1558.25 125.742 1562.2 128.265 C 1563.97 131.33 1563.83 130.171 1563.33 133.32 C 1561.28 136.106 1560.52 136.632 1557.75 138.584 C 1552.23 138.769 1546.88 139.311 1544.12 133.355 C 1546.89 132.074 1553.49 133.324 1557.77 133.378 L 1558.82 132.328 C 1557.04 126.463 1547.17 128.952 1544.36 121.31 C 1545.12 117.654 1546.19 116.772 1548.78 114.128 z"/>
<path transform="translate(0,0)" fill="rgb(162,175,193)" d="M 1253.86 114.378 C 1265.99 112.797 1266.33 130.933 1262.65 137.486 L 1261.26 137.272 C 1257.76 128.256 1262.69 122.957 1254.12 117.009 C 1244.95 120.411 1252.02 132.49 1247.15 137.913 L 1245.54 137.384 C 1243.11 131.982 1244.32 121.747 1244.94 115.813 L 1246.03 115.009 L 1250.59 116.384 L 1253.86 114.378 z"/>
<path transform="translate(0,0)" fill="rgb(162,175,193)" d="M 1217.83 114.065 C 1221.94 113.925 1228.78 114.287 1229.87 119.504 C 1225.42 119.167 1221.22 118.378 1217.59 120.883 C 1214.53 125.165 1215.63 130.485 1219.49 133.802 C 1223.62 134.376 1222.49 134.227 1226.58 132.466 L 1228.2 131.396 L 1229.65 132.133 C 1228.83 148.627 1197.09 132.51 1217.83 114.065 z"/>
<path transform="translate(0,0)" fill="rgb(162,175,193)" d="M 1528.41 114.158 C 1535.14 113.883 1535.85 113.778 1540.39 118.838 C 1539.29 121.588 1533.18 117.231 1527.57 120.575 C 1525.51 126.252 1525.08 130.108 1530.51 133.818 C 1535 133.963 1533.64 134.05 1537.72 131.867 L 1539.71 131.681 L 1540.33 133.337 C 1532.37 148.718 1510.29 129.203 1528.41 114.158 z"/>
<path transform="translate(0,0)" fill="rgb(162,175,193)" d="M 686.367 107.661 C 686.591 107.801 686.814 107.941 687.038 108.081 C 700.148 120.457 678.795 124.004 694.823 136.762 C 692.059 138.484 690.214 138.349 687.432 137.876 C 681.424 133.029 687.618 122.326 682.801 117.079 C 682.153 116.374 685.617 109.789 686.367 107.661 z"/>
<path transform="translate(0,0)" fill="rgb(162,175,193)" d="M 881.05 103.66 C 882.006 104.281 883.44 105.099 883.569 106.31 C 884.226 112.481 884.986 134.322 882.613 139.297 C 881.5 138.506 880 137.22 879.864 135.871 C 879.277 130.031 878.404 108.146 881.05 103.66 z"/>
<path transform="translate(0,0)" fill="rgb(162,175,193)" d="M 581.308 114.888 L 581.997 114.647 L 583.436 115.342 C 582.384 119.778 579.206 117.21 577.684 120.586 C 576.083 124.136 577.712 132.373 576.454 135.95 L 576.248 136.528 C 575.782 137.823 574.444 138.038 572.873 138.779 C 572.102 134.873 572.324 119.639 573.123 115.652 L 574.441 114.872 L 578.283 116.348 L 581.308 114.888 z"/>
<path transform="translate(0,0)" fill="rgb(162,175,193)" d="M 1195.55 114.367 L 1197.18 114.883 L 1197.77 116.396 C 1183.81 125.932 1196.53 130.084 1188.45 139.366 C 1185.95 135.342 1186.47 120.894 1187.35 116.063 C 1190.43 113.619 1189.63 117.789 1195.55 114.367 z"/>
<path transform="translate(0,0)" fill="rgb(162,175,193)" d="M 975.146 114.66 L 976.456 115.298 L 976.882 116.656 C 963.761 124.569 975.632 130.713 967.453 139.304 C 965.107 135.14 965.784 121.554 966.436 116.551 C 968.335 113.987 969.813 117.022 975.146 114.66 z"/>
<path transform="translate(0,0)" fill="rgb(162,175,193)" d="M 1236.17 113.729 C 1241.14 115.773 1239.29 134.112 1238.46 138.82 L 1236.32 137.853 C 1233.44 134.891 1234.24 117.671 1236.17 113.729 z"/>
<path transform="translate(0,0)" fill="rgb(162,175,193)" d="M 1204.21 113.721 C 1205.15 114.128 1206.01 115.263 1206.71 116.06 C 1207.53 121.807 1207.47 133.128 1206.44 138.821 C 1205.24 138.264 1203.44 137.615 1203.18 136.15 C 1202.24 130.728 1201.86 118.409 1204.21 113.721 z"/>
</svg>