<!-- RECRAFT VECTORIZE from logo/options-w3/mock/T3-liberation-bold-navbar-dark.png -->
<svg version="1.1" xmlns="http://www.w3.org/2000/svg" style="display: block;" viewBox="0 0 4096 256" width="4096" height="256" preserveAspectRatio="none">
<path transform="translate(0,0)" fill="rgb(11,16,32)" d="M 0 0 L 4096 0 L 4096 256 L 0 256 L 0 0 z"/>
<path transform="translate(0,0)" fill="rgb(63,51,200)" d="M 3680.9 61.8463 C 3683.61 59.9191 3847.52 60.7458 3864.59 60.7494 L 3925.83 60.7357 C 3936 60.7351 3951.45 60.2473 3960.99 61.3447 C 3963.76 64.7436 3967.96 64.0407 3972.2 69.9275 C 3975.64 74.7135 3980.55 78.3001 3982.7 84.5509 C 3982.73 84.6121 3983.39 85.0028 3983.47 85.0447 C 3984.5 101.229 3983.65 120.03 3983.95 136.417 C 3984.05 141.779 3984.13 163.434 3983.37 167.87 C 3978.92 171.634 3982.66 172.407 3977.94 176.528 C 3973.58 180.336 3968.02 188.488 3962.19 189.697 L 3960.86 191.505 C 3940.71 192.683 3684.66 192.574 3681.02 191.029 C 3679.26 188.848 3677.2 189.185 3674.25 187.62 C 3668.58 184.614 3661.2 170.431 3658.41 167.938 C 3657.12 161.08 3656.94 88.2423 3658.92 84.9498 C 3659.63 84.405 3660.08 83.8471 3660.16 82.9411 L 3660.19 82.7015 C 3660.82 76.0961 3670.68 69.2001 3675.39 64.7346 C 3675.94 64.2084 3677.86 64.3481 3680.9 61.8463 z"/>
<path transform="translate(0,0)" fill="rgb(71,58,215)" d="M 3680.9 61.8463 C 3683.61 59.9191 3847.52 60.7458 3864.59 60.7494 L 3925.83 60.7357 C 3936 60.7351 3951.45 60.2473 3960.99 61.3447 L 3960 64.3082 C 3956.23 66.0864 3782.96 65.2094 3766.48 65.2057 L 3710 65.1959 C 3702.69 65.2064 3689.06 65.8861 3682.65 64.8855 C 3681.15 63.3009 3681.35 63.9129 3680.9 61.8463 z"/>
<path transform="translate(0,0)" fill="rgb(71,58,215)" d="M 3681.02 191.029 L 3681.88 187.614 C 3768.47 185.918 3855.9 188.91 3942.54 187.363 C 3946.11 187.299 3957.39 186.55 3960.07 188.521 L 3960.86 191.505 C 3940.71 192.683 3684.66 192.574 3681.02 191.029 z"/>
<path transform="translate(0,0)" fill="rgb(71,58,215)" d="M 3658.41 167.938 C 3657.12 161.08 3656.94 88.2423 3658.92 84.9498 L 3661.44 86.1271 C 3662.84 92.0557 3662.64 155.3 3661.29 166.076 C 3661.18 166.9 3659.39 167.501 3658.41 167.938 z"/>
<path transform="translate(0,0)" fill="rgb(71,58,215)" d="M 3983.37 167.87 L 3980.72 166.806 C 3978.79 162.745 3978.85 90.1806 3980.79 85.9813 L 3983.47 85.0447 C 3984.5 101.229 3983.65 120.03 3983.95 136.417 C 3984.05 141.779 3984.13 163.434 3983.37 167.87 z"/>
<path transform="translate(0,0)" fill="rgb(244,243,251)" d="M 3922.94 103.645 C 3924.28 104.29 3925.7 104.623 3925.97 105.966 C 3927.16 111.832 3927.48 132.213 3925.58 137.159 C 3914.05 138.898 3908.43 140.634 3905.53 127.61 C 3901.83 128.054 3890.04 128.336 3888.67 129.566 L 3889.28 131.689 C 3890.33 132.546 3891.57 133.844 3892.77 134.108 L 3892.93 134.142 C 3896.58 134.954 3898.77 131.201 3902.88 132.626 L 3903.07 135.051 C 3890.18 146.297 3875.09 128.05 3887.23 116.412 C 3895.6 108.385 3899.65 117.087 3905.44 122.921 C 3909.75 113.905 3910.39 113.677 3920.23 114.61 C 3923.72 111.894 3919.8 110.621 3922.94 103.645 z"/>
<path transform="translate(0,0)" fill="rgb(63,51,200)" d="M 3914.81 117.399 L 3918.4 119.012 C 3923.68 124.994 3921.53 129.412 3917.56 135.269 C 3908.05 132.499 3908.45 123.126 3914.81 117.399 z"/>
<path transform="translate(0,0)" fill="rgb(244,243,251)" d="M 3741.63 122.86 C 3740.98 131.9 3737.97 138.646 3727.58 138.906 C 3723.29 138.987 3719.14 137.372 3716.04 134.412 C 3706.92 125.632 3709.37 103.818 3724.69 104.066 C 3730.75 104.164 3738.37 106.013 3738.32 113.328 L 3735.85 115.053 C 3720.8 93.6058 3705.93 127.39 3723.75 134.018 C 3729.3 136.083 3733.23 132.26 3736.63 128.669 L 3736.72 127.501 C 3734.94 126.663 3727.96 123.563 3726.95 122.51 C 3729.17 119.969 3738.65 120.237 3741.38 122.633 C 3741.47 122.707 3741.55 122.782 3741.63 122.86 z"/>
<path transform="translate(0,0)" fill="rgb(244,243,251)" d="M 3762.99 131.842 C 3764.9 132.321 3764.34 131.903 3765.36 133.418 L 3764.09 135.646 C 3759.5 139.022 3752.82 139.089 3748.14 135.844 C 3744.15 130.817 3744.52 121.509 3748.81 117.148 C 3755.73 110.105 3767.28 115.703 3767.29 125.075 C 3763.34 132.123 3756.15 125.98 3751.3 129.175 L 3750.92 131.797 C 3755.28 128.893 3758.5 129.788 3762.99 131.842 z"/>
<path transform="translate(0,0)" fill="rgb(71,58,215)" d="M 3750.92 131.797 C 3755.28 128.893 3758.5 129.788 3762.99 131.842 C 3757.46 134.627 3756.37 134.917 3750.92 131.797 z"/>
<path transform="translate(0,0)" fill="rgb(244,243,251)" d="M 3853.31 136.117 L 3851.98 137.995 C 3847.71 139.21 3844.72 135.754 3843.65 136.267 C 3836.84 139.552 3828.11 139.849 3829.29 129.548 C 3833.66 122.23 3836.93 126.292 3843.48 122.897 L 3843.72 120.876 C 3840.2 118.155 3832.36 121.492 3829.7 118.939 C 3832.59 114.493 3839.93 112.481 3844.98 114.806 C 3850.37 120.83 3849.1 126.454 3850.25 134.021 L 3853.31 136.117 z"/>
<path transform="translate(0,0)" fill="rgb(244,243,251)" d="M 3798.45 114.052 C 3804.53 113.803 3808.32 113.335 3812.08 119.055 L 3810.98 120.018 C 3807.16 119.82 3803.35 119.537 3799.54 119.168 L 3798.82 120.427 C 3803.69 126.137 3812.32 124.403 3813.22 132.212 C 3811.66 135.531 3810.57 136.274 3807.75 138.556 C 3802.4 138.772 3795.74 139.394 3793.86 133.005 C 3795.5 131.93 3804.11 133.294 3807.43 133.408 L 3808.25 132.105 C 3805.53 125.81 3795.79 128.787 3793.96 120.753 C 3794.87 117.405 3796.04 116.476 3798.45 114.052 z"/>
<path transform="translate(0,0)" fill="rgb(244,243,251)" d="M 3819.19 107.532 C 3820.88 108.396 3821.32 110.389 3822.8 111.904 C 3826.9 116.109 3822.25 118.114 3821.9 123.999 C 3821.42 132.228 3823.25 132.508 3827.57 137.951 C 3813.6 140.138 3817.07 126.192 3816.23 116.526 C 3816.02 114.047 3818.12 109.926 3819.19 107.532 z"/>
<path transform="translate(0,0)" fill="rgb(244,243,251)" d="M 3871.57 114.267 C 3872.55 110.328 3871.85 110.871 3874.56 108.145 C 3877.06 110.971 3874.77 112.187 3877.67 113.678 C 3878.51 114.111 3879.52 114.972 3880.26 115.595 C 3877.7 123.406 3874.55 120.795 3876.12 132.488 L 3880.75 135.98 L 3880.41 137.545 C 3877.39 138.811 3878.49 138.762 3875.46 138.042 C 3868.32 130.866 3875.46 123.225 3867.77 115.061 L 3871.57 114.267 z"/>
<path transform="translate(0,0)" fill="rgb(244,243,251)" d="M 3774.31 107.616 C 3775.93 108.415 3777.85 112.225 3779.39 113.697 C 3781.47 115.683 3776.9 121.89 3776.75 125.631 C 3776.4 134.606 3778.54 131.771 3782.59 137.481 C 3780.54 138.228 3779.1 138.166 3776.92 138.232 C 3767.72 133.284 3776.35 124.968 3770.4 117.136 C 3770.55 114.667 3772.88 111.794 3774.31 107.616 z"/>
<path transform="translate(0,0)" fill="rgb(244,243,251)" d="M 3860.16 115.817 C 3863.03 114.471 3863.69 114.402 3866.84 114.728 C 3865.59 118.042 3865.8 117.405 3862.73 119.148 C 3857.45 122.151 3862.3 134.402 3858.49 138.018 C 3857.37 137.683 3856.24 137.626 3856.07 136.403 C 3855.28 130.465 3855.64 122.35 3855.68 116.435 L 3856.6 114.928 C 3857.91 115.076 3859.05 115.096 3860.16 115.817 z"/>
<path transform="translate(0,0)" fill="rgb(71,58,215)" d="M 3850.25 134.021 C 3852.56 127.046 3851.28 122.162 3853.26 117.148 C 3853.86 121.357 3854.21 132.028 3853.31 136.117 L 3850.25 134.021 z"/>
<path transform="translate(0,0)" fill="rgb(71,58,215)" d="M 3768.78 118.519 L 3770.6 120.158 C 3771.02 123.272 3771.42 131.497 3769.57 133.967 L 3768.84 133.271 C 3768.74 128.215 3768.52 123.593 3768.78 118.519 z"/>
<path transform="translate(0,0)" fill="rgb(244,243,251)" d="M 247.688 121.837 L 245.494 122.565 C 243.13 128.987 247.361 145.322 242.33 148.284 C 241.21 144.932 241.184 109.354 243.258 106.745 C 245.161 110.094 242.742 113.501 244.985 116.533 C 247.085 113.54 244.054 111.076 246.147 107.844 L 247.634 107.776 L 246.989 109.398 C 254.645 110.864 261.097 87.4881 282.54 108.174 L 285.538 107.415 L 286.715 108.297 L 286.573 111.799 L 285.685 108.65 L 285.023 108.399 L 282.575 113.17 C 301.873 153.564 242.137 163.458 247.688 121.837 z"/>
<path transform="translate(0,0)" fill="rgb(4,8,21)" d="M 247.688 121.837 L 245.494 122.565 C 243.13 128.987 247.361 145.322 242.33 148.284 C 241.21 144.932 241.184 109.354 243.258 106.745 C 245.161 110.094 242.742 113.501 244.985 116.533 C 247.085 113.54 244.054 111.076 246.147 107.844 L 247.634 107.776 L 246.989 109.398 C 254.645 110.864 261.097 87.4881 282.54 108.174 L 285.538 107.415 L 286.715 108.297 L 286.573 111.799 L 285.685 108.65 L 285.023 108.399 L 282.575 113.17 C 269.209 101.586 253.363 104.309 247.688 121.837 z"/>
<path transform="translate(0,0)" fill="rgb(4,8,21)" d="M 263.184 113.859 C 279.652 112.864 278.376 132.307 269.89 141.565 C 254.453 142.161 255.019 122.571 263.184 113.859 z"/>
<path transform="translate(0,0)" fill="rgb(244,243,251)" d="M 185.759 107.163 C 193.027 106.851 190.541 107.553 196.649 109.987 C 199.882 109.722 204.531 106.358 207.586 106.547 C 225.232 107.632 225.159 135.308 215.276 145.032 C 211.173 149.069 208.024 148.62 202.565 148.621 C 199.408 146.162 199.766 145.698 196.163 145.2 C 193.081 149.89 197.207 155.541 194.408 162.019 C 191.807 164.474 192.899 163.795 189.017 164.483 L 187.369 163.013 C 184.261 155.932 184.311 114.628 185.759 107.163 z"/>
<path transform="translate(0,0)" fill="rgb(4,8,21)" d="M 200.168 113.825 C 215.339 112.665 212.894 132.8 206.038 141.644 C 191.217 141.758 192.932 122.676 200.168 113.825 z"/>
<path transform="translate(0,0)" fill="rgb(15,20,36)" d="M 201.709 118.322 C 203.534 118.736 204.023 119.571 205.199 121.007 C 207.021 126.85 206.04 131.102 204.021 136.782 C 197.373 134.046 199.879 123.394 201.709 118.322 z"/>
<path transform="translate(0,0)" fill="rgb(244,243,251)" d="M 293.526 127.854 C 292.517 123.393 289.324 113.218 289.865 109.986 C 291.865 107.125 290.854 107.916 294.621 106.976 C 300.762 109.512 300.234 127.075 304.376 132.961 C 310.378 130.488 305.455 113.295 313.931 107.821 C 316.784 107.043 317.649 106.739 320.401 107.88 C 326.313 113.378 325.427 125.92 328.14 133.137 L 329.856 132.838 C 332.195 130.149 331.561 130.472 331.986 126.53 C 333.397 119.416 333.75 109.394 340.578 105.989 L 342.112 106.646 C 346.192 111.414 338.125 142.091 333.422 146.965 C 331.627 148.826 328.855 148.061 326.715 147.889 C 322.601 144.787 320.266 127.946 318.949 121.714 C 318.703 128.562 318.281 140.746 314.022 146.456 L 312.849 145.824 C 312.044 142.178 312.151 139.421 312.136 135.703 C 310.69 142.057 309.997 148.919 301.76 148.301 C 297.576 145.731 297.446 144.332 296.325 139.642 C 296.169 138.986 296.017 138.328 295.871 137.669 L 293.526 127.854 z"/>
<path transform="translate(0,0)" fill="rgb(4,8,21)" d="M 312.136 135.703 C 313.232 131.2 314.231 123.103 316.495 119.713 L 318.05 119.677 L 318.949 121.714 C 318.703 128.562 318.281 140.746 314.022 146.456 L 312.849 145.824 C 312.044 142.178 312.151 139.421 312.136 135.703 z"/>
<path transform="translate(0,0)" fill="rgb(244,243,251)" d="M 136.829 94.5692 C 148.663 95.1648 161.792 94.1522 173.084 94.9352 C 175.919 96.9684 175.125 95.9646 176.341 99.3112 C 173.495 109.616 156.077 99.2969 147.989 104.582 C 146.374 106.952 147.045 110.563 147.252 113.526 C 147.979 116.372 147.381 115.698 149.588 117.049 C 157.091 116.881 167.372 116.078 174.107 119.574 L 174.385 122.001 C 166.455 126.324 156.607 125.31 147.642 125.1 C 146.989 130.459 147.016 134.056 147.058 139.378 C 152.777 139.272 173.964 138.36 177.955 140.265 C 177.608 144.813 177.562 147.35 172.13 147.81 C 160.511 148.794 148.542 147.9 136.792 148.198 L 136.829 94.5692 z"/>
<path transform="translate(0,0)" fill="rgb(129,143,163)" d="M 1466.49 104.2 C 1471.37 103.908 1476.71 104.13 1481.62 104.232 L 1489.89 108.712 C 1493.57 117.784 1494.44 126.085 1488.11 134.109 C 1480.3 140.199 1475.55 138.739 1465.52 138.225 C 1465.45 131.415 1464.74 108.826 1466.49 104.2 z"/>
<path transform="translate(0,0)" fill="rgb(4,8,21)" d="M 1470.98 108.2 C 1472.62 108.144 1474.25 108.13 1475.89 108.159 C 1489.74 108.471 1491.66 124.214 1481.75 133.591 C 1465.91 136.235 1470.68 126.135 1470.21 114.682 C 1470.13 112.687 1470.5 110.125 1470.98 108.2 z"/>
<path transform="translate(0,0)" fill="rgb(4,8,21)" d="M 1543.29 121.575 C 1547.92 112.87 1556.35 109.794 1562.08 119.118 L 1561.86 120.846 L 1559.51 121.317 C 1556.71 119.396 1552.37 117.142 1548.87 118.786 C 1553.61 123.998 1561.91 125.384 1562.88 132.395 C 1559.66 141.667 1547.02 140.99 1543.2 131.602 L 1541.58 131.842 C 1542.41 136.949 1533.83 140.385 1528.38 137.222 C 1507.34 125.027 1535.76 101.614 1540.03 121.034 L 1543.29 121.575 z"/>
<path transform="translate(0,0)" fill="rgb(129,143,163)" d="M 1543.29 121.575 C 1547.92 112.87 1556.35 109.794 1562.08 119.118 L 1561.86 120.846 L 1559.51 121.317 C 1556.71 119.396 1552.37 117.142 1548.87 118.786 C 1553.61 123.998 1561.91 125.384 1562.88 132.395 C 1559.66 141.667 1547.02 140.99 1543.2 131.602 C 1550.46 131.038 1547.84 134.961 1557.18 133.509 L 1557.57 132.198 C 1551.71 125.722 1548.45 128.819 1543.29 121.575 z"/>
<path transform="translate(0,0)" fill="rgb(129,143,163)" d="M 1541.58 131.842 C 1542.41 136.949 1533.83 140.385 1528.38 137.222 C 1507.34 125.027 1535.76 101.614 1540.03 121.034 C 1534.34 121.061 1533.69 116.697 1527.57 120.305 C 1525.11 125.239 1525.98 131.149 1531.05 133.952 C 1537.18 134.296 1533.74 130.884 1541.58 131.842 z"/>
<path transform="translate(0,0)" fill="rgb(4,8,21)" d="M 3679.79 56.4343 C 3683.98 55.7203 3706.12 56.0271 3711.38 56.0375 L 3779.31 56.1278 L 3910.87 56.1213 C 3917.96 56.1191 3955.85 55.4982 3960.6 56.602 L 3961.63 58.5542 C 3947.45 59.2706 3928.15 58.6875 3913.69 58.6914 L 3820.72 58.7067 L 3730.74 58.7057 C 3715.29 58.7029 3695.89 59.2367 3680.67 58.3896 L 3679.79 56.4343 z"/>
<path transform="translate(0,0)" fill="rgb(129,143,163)" d="M 677.162 130.635 C 679.573 132.109 679.017 131.332 679.692 133.973 C 678.518 136.13 676.723 137.235 674.459 137.822 C 660.992 141.315 664.302 130.269 660.014 127.872 C 657.455 132.788 660.027 132.703 658.425 137.14 C 654.256 139.06 644.678 138.131 640.665 135.187 C 638.457 132.066 638.419 117.367 641.117 114.443 C 646.605 115.626 641.155 128.519 647.248 134.945 C 657.538 136.754 651.245 117.371 657.173 114.369 C 659.141 116.043 659.689 122.23 660.144 124.955 C 661.687 124.04 662.852 118.783 665.64 115.481 C 670.885 112.474 679.174 113.791 679.153 121.136 C 680.708 120.31 681.998 118.533 683.154 117.147 C 683.48 117.914 684.414 119.929 684.479 120.633 L 684.365 120.798 C 682.618 123.367 682.633 127.05 682.386 130.175 C 680.421 129.763 679.927 129.644 677.942 129.964 L 677.162 130.635 z"/>
<path transform="translate(0,0)" fill="rgb(4,8,21)" d="M 683.154 117.147 C 683.48 117.914 684.414 119.929 684.479 120.633 L 684.365 120.798 C 682.618 123.367 682.633 127.05 682.386 130.175 C 680.421 129.763 679.927 129.644 677.942 129.964 L 677.162 130.635 C 675.44 132.536 674.702 132.852 672.394 134.001 C 668.8 133.825 670.05 134.303 667.256 132.056 C 664.574 126.968 664.994 122.454 669.46 118.707 C 675.407 118.396 672.383 120.174 679.153 121.136 C 680.708 120.31 681.998 118.533 683.154 117.147 z"/>
<path transform="translate(0,0)" fill="rgb(129,143,163)" d="M 1268.9 130.163 C 1268.94 116.418 1271.11 113.706 1284.28 114.208 C 1286.3 114.285 1286.97 114.288 1288.78 115.332 C 1293.56 125.08 1288.27 165.539 1270.57 143.324 L 1271.19 142.391 C 1274.83 142.978 1279.4 144.106 1282.75 142.841 C 1284.77 140.694 1284.2 141.533 1284.53 138.036 C 1281.63 136.789 1273.11 141.63 1269.07 132.294 L 1268.9 130.163 z"/>
<path transform="translate(0,0)" fill="rgb(4,8,21)" d="M 1275.59 118.326 C 1287 118.065 1285.27 127.263 1281.61 134.419 L 1277.46 133.884 C 1271.7 129.404 1273.44 124.602 1275.59 118.326 z"/>
<path transform="translate(0,0)" fill="rgb(129,143,163)" d="M 628.504 103.723 C 630.495 103.999 631.611 104.146 633.529 104.754 C 634.019 111.877 633.967 130.035 633.226 136.839 C 629.314 137.773 623.552 138.273 619.407 138.778 C 618.737 138.29 618.087 137.776 617.457 137.236 C 612.212 132.711 610.624 121.193 616.188 116.292 C 619.164 113.671 623.597 114.446 627.513 114.207 C 628.98 112.588 628.516 106.269 628.504 103.723 z"/>
<path transform="translate(0,0)" fill="rgb(4,8,21)" d="M 619.458 118.372 C 621.458 118.338 622.942 118.613 624.912 118.92 C 630.617 124.295 628.827 128.059 625.735 134.535 C 621.31 133.874 622.326 134.588 618.958 131.925 C 616.515 127.269 617.998 123.281 619.458 118.372 z"/>
<path transform="translate(0,0)" fill="rgb(129,143,163)" d="M 913.837 113.773 C 915.415 110.846 915.04 110.471 917.638 108.982 C 921.119 110.967 918.416 113.198 923.5 115.027 L 926.482 114.114 C 928.603 109.669 930.682 102.324 936.132 104.179 L 937.313 105.611 C 935.825 110.013 932.556 109.326 933.227 112.371 L 934.921 112.445 L 937.419 115.436 L 937.002 117.954 C 928.69 121.602 936.249 133.596 930.173 137.847 C 926.105 133.459 929.027 123.756 927.737 117.881 C 925.111 124.334 926.729 131.556 924.879 133.604 L 922.958 134.038 C 923.895 136.541 923.999 135.724 923.012 137.903 L 920.621 138.637 C 910.365 135.921 917.682 124.322 913.922 120.194 C 912.861 118.249 912.693 117.819 912.342 115.632 L 913.837 113.773 z"/>
<path transform="translate(0,0)" fill="rgb(4,8,21)" d="M 922.958 134.038 C 922.471 133.921 920.905 133.052 920.368 132.771 C 918.64 126.957 918.187 125.219 920.695 119.732 C 923.778 117.396 923.395 118.073 927.737 117.881 C 925.111 124.334 926.729 131.556 924.879 133.604 L 922.958 134.038 z"/>
<path transform="translate(0,0)" fill="rgb(129,143,163)" d="M 1158.83 104.22 C 1167.27 103.78 1178.73 102.229 1182.94 111.818 C 1182.85 122.121 1170.9 121.92 1163.51 121.837 C 1163.78 127.664 1164.5 133.296 1162.14 138.65 L 1160.68 138.491 C 1157.27 130.26 1157.66 113.023 1158.83 104.22 z"/>
<path transform="translate(0,0)" fill="rgb(4,8,21)" d="M 1164.42 108.214 C 1165.86 108.186 1167.3 108.173 1168.75 108.174 C 1172.87 108.182 1174.39 108.105 1177.14 110.859 C 1177.84 113.496 1176.95 114.864 1175.81 117.276 C 1171 117.48 1165.97 118.575 1162.94 114.386 C 1163.01 111.448 1163.06 110.801 1164.42 108.214 z"/>
<path transform="translate(0,0)" fill="rgb(129,143,163)" d="M 906.197 115.788 C 907.591 114.228 909.947 112.404 911.668 111.056 C 911.86 110.906 912.842 111.483 913.592 110.897 L 913.837 113.773 L 912.342 115.632 C 912.693 117.819 912.861 118.249 913.922 120.194 C 913.231 124.754 913.918 131.104 912.112 133.667 L 909.923 135.096 L 911.102 136.985 L 910.109 138.207 C 905.732 138.35 903.121 134.192 902.185 135.376 C 898.447 140.104 887.221 140.94 888.538 129.401 C 893.728 120.608 900.239 127.917 903.2 121.831 C 900.139 115.573 893.886 121.779 889.495 119.291 C 891.604 113.688 902.29 112.226 906.197 115.788 z"/>
<path transform="translate(0,0)" fill="rgb(4,8,21)" d="M 906.197 115.788 C 907.591 114.228 909.947 112.404 911.668 111.056 C 911.86 110.906 912.842 111.483 913.592 110.897 L 913.837 113.773 L 912.342 115.632 C 912.693 117.819 912.861 118.249 913.922 120.194 C 913.231 124.754 913.918 131.104 912.112 133.667 L 909.923 135.096 C 906.91 129.505 910.95 122.932 906.197 115.788 z"/>
<path transform="translate(0,0)" fill="rgb(129,143,163)" d="M 544.29 104.268 C 552.795 103.77 564.729 102.234 568.827 112.062 C 568.464 121.719 558.224 121.943 550.951 121.753 C 546.397 125.043 551.591 131.382 546.729 138.531 L 545.316 138.173 C 543.114 135.047 543.806 109.144 544.29 104.268 z"/>
<path transform="translate(0,0)" fill="rgb(4,8,21)" d="M 549.238 108.355 C 552.992 108.25 558.929 107.522 561.708 109.69 C 563.501 113.483 562.985 112.57 562.632 117.043 C 558.662 117.311 552.882 118.339 549.89 116.189 C 548.175 113.875 548.874 111.204 549.238 108.355 z"/>
<path transform="translate(0,0)" fill="rgb(129,143,163)" d="M 851.127 104.304 C 861.451 103.681 868.175 101.517 875.523 109.806 L 876.108 111.572 C 873.648 123.473 865.276 121.879 855.722 121.732 C 856.064 125.843 857.038 134.013 855.149 137.411 L 853.225 137.844 L 851.614 136.643 C 850.359 131.36 851.058 111.146 851.127 104.304 z"/>
<path transform="translate(0,0)" fill="rgb(4,8,21)" d="M 856.883 108.273 C 860.802 108.19 866.474 107.507 869.338 110.047 C 870.529 113.997 870.198 112.947 869.215 117.203 L 868.794 117.228 C 863.443 117.543 859.944 118.5 856.154 115.131 C 855.707 112.034 856.009 111.172 856.883 108.273 z"/>
<path transform="translate(0,0)" fill="rgb(4,8,21)" d="M 147.642 125.1 C 158.863 132.042 168.367 125.91 173.723 129.024 L 173.577 131.409 C 175.151 131.55 174.801 131.435 176.277 130.306 L 176.789 131.773 C 172.489 134.541 157.614 131.519 151.993 133.147 C 154.82 134.341 175.714 134.177 179.15 133.188 C 178.706 127.036 176.574 112.909 179.682 108.089 L 181.633 107.394 C 182.961 109.735 183.275 146.717 182.244 148.461 C 180.399 144.859 180.048 141.506 177.955 140.265 C 173.964 138.36 152.777 139.272 147.058 139.378 C 147.016 134.056 146.989 130.459 147.642 125.1 z"/>
<path transform="translate(0,0)" fill="rgb(129,143,163)" d="M 948.28 113.159 C 981.13 119.619 941.822 161.881 939.071 121.924 C 941.154 117.68 944.353 115.426 948.28 113.159 z"/>
<path transform="translate(0,0)" fill="rgb(4,8,21)" d="M 948.732 117.328 C 959.395 120.166 957.41 128.991 951.48 135.42 C 941.493 132.168 941.978 123.562 948.732 117.328 z"/>
<path transform="translate(0,0)" fill="rgb(129,143,163)" d="M 593.884 114.206 C 611.009 113.111 613.677 128.312 602.264 138.492 C 585.575 139.486 582.389 124.219 593.884 114.206 z"/>
<path transform="translate(0,0)" fill="rgb(15,20,36)" d="M 595.707 117.697 C 598.004 117.896 599.666 118.165 601.526 119.631 C 603.07 120.865 604.058 122.663 604.269 124.628 C 604.744 129.151 602.782 131.717 600.147 135.024 C 597.491 134.56 596.928 134.271 594.555 132.975 C 590.037 127.593 591.67 122.691 595.707 117.697 z"/>
<path transform="translate(0,0)" fill="rgb(129,143,163)" d="M 1502.73 114.174 C 1519.83 113.173 1522.77 128.524 1510.69 138.608 C 1509.54 138.654 1508.38 138.65 1507.23 138.598 C 1493.58 137.917 1492.85 122.898 1502.73 114.174 z"/>
<path transform="translate(0,0)" fill="rgb(4,8,21)" d="M 1504.71 117.613 C 1515.6 118.913 1514.49 128.062 1509.07 134.83 C 1506.17 134.478 1505.64 134.3 1503.17 132.741 C 1498.94 127.238 1500.62 122.512 1504.71 117.613 z"/>
<path transform="translate(0,0)" fill="rgb(129,143,163)" d="M 988.029 114.456 C 994.854 114.159 990.773 115.28 997.422 117.354 C 999.159 116.195 1000.55 115.102 1002.18 113.803 C 1011.82 113.076 1012.77 130.587 1011.25 136.949 C 1009.2 139.063 1010 138.796 1007.42 139.22 C 1003.48 134.788 1008.71 121.379 1002.2 117.902 L 999.469 118.844 C 997.666 121.733 997.488 122.457 996.946 125.753 L 997.098 135.448 C 995.546 137.636 996.251 137.286 993.929 137.919 C 991.688 135.71 993.224 126.309 990.618 120.217 C 988.086 117.814 989.219 118.279 985.882 118.027 C 984.62 119.309 982.859 133.486 981.567 137.816 L 980.555 138.177 C 978.381 134.717 978.369 120.659 978.281 116.209 L 980.179 115.039 L 984.958 116.363 L 988.029 114.456 z"/>
<path transform="translate(0,0)" fill="rgb(244,243,251)" d="M 230.062 107.049 C 233.766 107.032 236.491 106.636 239.004 109.052 C 240.262 115.456 239.654 139.525 239.599 147.494 C 235.499 148.182 232.969 149.27 230.084 145.927 C 229.198 138.926 229.304 114.298 230.062 107.049 z"/>
<path transform="translate(0,0)" fill="rgb(129,143,163)" d="M 1253.9 114.357 C 1255.26 114.113 1257.27 114.442 1258.7 114.599 C 1265.74 118.829 1266.48 135.138 1261.65 137.7 C 1256.83 132.408 1264.26 122.368 1253.09 117.091 C 1245.08 125.961 1250.9 132.82 1247.28 138.152 C 1244.12 134.596 1241.94 118.462 1245.9 114.909 C 1247.56 115.231 1249.12 115.909 1250.71 116.525 L 1253.9 114.357 z"/>
<path transform="translate(0,0)" fill="rgb(4,8,21)" d="M 147.252 113.526 C 149.973 109.333 149.077 106.188 151.301 106.095 C 158.88 105.781 168.556 105.791 175.945 106.408 L 176.453 107.467 C 175.131 108.325 173.929 109.078 172.562 109.864 C 172.978 111.024 173.258 111.715 173.818 112.813 C 168.711 116.972 153.724 109.712 149.588 117.049 C 147.381 115.698 147.979 116.372 147.252 113.526 z"/>
<path transform="translate(0,0)" fill="rgb(4,8,21)" d="M 3653.4 83.6561 C 3653.76 83.7849 3654.16 83.952 3654.42 84.2391 C 3657.49 87.6165 3655.73 159.998 3655.56 168.921 L 3654.05 168.618 C 3652.53 165.926 3653.21 92.0631 3653.4 83.6561 z"/>
<path transform="translate(0,0)" fill="rgb(129,143,163)" d="M 1210.86 122.659 C 1215.06 114.577 1223.43 109.352 1229.75 118.568 L 1229.65 120.407 C 1223.68 120.649 1220.66 116.987 1215.73 121.52 C 1214.11 126.257 1216.53 131.892 1220.68 134.517 C 1225.45 134.632 1224.27 131.168 1229.38 131.663 L 1230.25 133.494 C 1229.07 135.749 1227.05 137.449 1224.63 138.227 C 1218.61 140.173 1213.23 135.453 1211.11 130.151 C 1211.79 126.972 1211.46 125.765 1210.86 122.659 z"/>
<path transform="translate(0,0)" fill="rgb(129,143,163)" d="M 683.154 117.147 L 682.576 115.364 C 683.86 113.088 684.805 111.27 685.936 108.913 L 687.577 108.613 C 690.524 112.838 689.002 112.308 693.474 115.667 L 692.864 117.529 C 686.717 120.47 688.796 125.265 689.137 131.972 C 690.747 133.569 691.893 134.526 693.677 135.927 L 693.527 137.275 C 690.003 138.91 691.381 138.756 687.768 138.298 C 683.497 134.6 684.469 125.974 684.479 120.633 C 684.414 119.929 683.48 117.914 683.154 117.147 z"/>
<path transform="translate(0,0)" fill="rgb(4,8,21)" d="M 131.243 93.727 L 132.531 94.6864 C 134.808 97.9341 133.61 140.969 133.542 148.153 C 128.596 146.562 130.267 100.398 131.243 93.727 z"/>
<path transform="translate(0,0)" fill="rgb(129,143,163)" d="M 1206.18 139.321 C 1204.55 138.331 1204.31 137.945 1203.28 136.349 C 1202.64 130.415 1201.05 119.37 1204.55 114.692 L 1207.45 114.848 C 1207.99 117.754 1208.36 119.546 1209.24 122.41 L 1210.86 122.659 C 1211.46 125.765 1211.79 126.972 1211.11 130.151 L 1209.33 130.299 C 1207.05 136.419 1210.37 135.368 1206.18 139.321 z"/>
<path transform="translate(0,0)" fill="rgb(15,20,36)" d="M 1207.45 114.848 C 1207.99 117.754 1208.36 119.546 1209.24 122.41 L 1210.86 122.659 C 1211.46 125.765 1211.79 126.972 1211.11 130.151 L 1209.33 130.299 C 1207.05 136.419 1210.37 135.368 1206.18 139.321 C 1207.19 136.351 1206.99 120.409 1207.45 114.848 z"/>
<path transform="translate(0,0)" fill="rgb(129,143,163)" d="M 881.011 103.618 L 882.756 104.758 C 885.09 108.149 884.054 133.748 883.367 138.801 L 880.897 137.684 C 878.525 133.958 878.676 107.759 881.011 103.618 z"/>
<path transform="translate(0,0)" fill="rgb(4,8,21)" d="M 223.611 110.477 L 225.293 111.845 C 226.741 119.09 227.494 141.168 225.667 148.288 C 222.341 140.692 220.001 117.378 223.611 110.477 z"/>
<path transform="translate(0,0)" fill="rgb(129,143,163)" d="M 581.281 114.875 C 581.711 114.668 582.693 114.936 583.222 115.033 C 583.341 116.392 582.779 116.976 581.508 117.727 C 570.715 124.108 582.755 134.179 572.892 138.764 C 572.112 134.649 572.118 119.408 573.373 115.361 L 574.916 114.819 L 578.122 116.442 L 581.281 114.875 z"/>
<path transform="translate(0,0)" fill="rgb(129,143,163)" d="M 975.094 114.601 L 976.494 115.252 L 976.825 116.605 C 963.919 124.661 975.563 130.696 967.442 139.317 C 965.343 135.582 964.728 118.087 967.981 114.837 L 971.714 116.306 L 975.094 114.601 z"/>
<path transform="translate(0,0)" fill="rgb(129,143,163)" d="M 1195.65 114.297 L 1198.15 115.671 C 1197.14 118.913 1193.37 116.551 1191.87 121.576 C 1189.58 129.197 1193.95 132.935 1188.44 139.389 C 1186.08 135.521 1185.7 118.637 1188.58 114.993 L 1192.5 116.259 L 1195.65 114.297 z"/>
<path transform="translate(0,0)" fill="rgb(4,8,21)" d="M 934.921 112.445 L 935.726 110.547 C 941.315 110.568 948.556 107.977 955.246 110.959 L 955.328 111.972 C 952.736 112.992 951.002 112.988 948.28 113.159 C 944.353 115.426 941.154 117.68 939.071 121.924 C 936.934 121.559 937.589 121.918 935.886 120.539 L 937.002 117.954 L 937.419 115.436 L 934.921 112.445 z"/>
<path transform="translate(0,0)" fill="rgb(129,143,163)" d="M 1236.17 113.722 C 1241.12 115.856 1239.39 134.143 1238.42 138.828 C 1237.23 138.267 1235.44 137.617 1235.2 136.144 C 1234.33 130.707 1233.85 118.423 1236.17 113.722 z"/>
<path transform="translate(0,0)" fill="rgb(4,8,21)" d="M 328.14 133.137 C 328.89 127.22 327.004 118.38 329.896 112.323 C 332.099 115.178 331.842 122.535 331.986 126.53 C 331.561 130.472 332.195 130.149 329.856 132.838 L 328.14 133.137 z"/>
<path transform="translate(0,0)" fill="rgb(4,8,21)" d="M 295.871 137.669 L 295.309 147.261 L 294.448 147.374 C 291.594 141.159 291.337 136.502 291.358 129.682 L 293.526 127.854 L 295.871 137.669 z"/>
<path transform="translate(0,0)" fill="rgb(4,8,21)" d="M 1013.38 117.46 L 1015.19 118.586 C 1016.11 123.642 1015.66 132.882 1015.55 138.39 L 1014.4 138.332 C 1011.88 135.261 1013.2 122.063 1013.38 117.46 z"/>
<path transform="translate(0,0)" fill="rgb(4,8,21)" d="M 1465.19 140.431 C 1469.63 139.929 1479.13 139.685 1483.36 140.533 L 1484.56 142.497 C 1479.29 142.739 1468.38 144.51 1465.19 140.431 z"/>
<path transform="translate(0,0)" fill="rgb(4,8,21)" d="M 616.161 140.419 C 620.328 139.92 629.3 139.851 633.314 140.571 L 634.535 142.591 C 628.85 142.404 619.553 144.803 616.161 140.419 z"/>
<path transform="translate(0,0)" fill="rgb(4,8,21)" d="M 1545.99 140.429 C 1550.33 140.135 1555.55 139.486 1559.67 140.583 L 1560.37 142.465 C 1555.43 142.885 1549.38 144.273 1545.99 140.429 z"/>
<path transform="translate(0,0)" fill="rgb(4,8,21)" d="M 550.288 123.448 C 555.191 123.095 561.068 121.854 564.591 125.472 C 559.251 126.019 553.953 127.592 550.288 123.448 z"/>
<path transform="translate(0,0)" fill="rgb(4,8,21)" d="M 1272.63 150.444 C 1277.48 150.058 1283.07 148.649 1286.28 152.546 C 1281.83 152.935 1275 154.527 1272.63 150.444 z"/>
<path transform="translate(0,0)" fill="rgb(4,8,21)" d="M 591.395 140.504 C 596.235 139.991 601.097 139.142 605.169 141.655 C 600.938 143.365 594.768 143.961 591.395 140.504 z"/>
<path transform="translate(0,0)" fill="rgb(4,8,21)" d="M 943.443 140.505 C 948.501 139.951 953.035 138.598 956.644 142.452 C 951.79 142.901 946.936 144.17 943.443 140.505 z"/>
<path transform="translate(0,0)" fill="rgb(4,8,21)" d="M 1500.12 140.486 C 1505.16 139.981 1510.02 138.597 1513.63 142.45 C 1507.8 142.995 1504.52 143.856 1500.12 140.486 z"/>
<path transform="translate(0,0)" fill="rgb(4,8,21)" d="M 228.847 87.4607 C 229.313 87.2815 229.789 87.1314 230.274 87.0113 C 232.949 86.363 236.848 85.9228 239.273 87.4226 L 239.66 89.5062 C 236.439 89.6164 230.325 90.6516 228.847 87.4607 z"/>
<path transform="translate(0,0)" fill="rgb(4,8,21)" d="M 1215.24 140.489 C 1220.33 139.967 1224.9 138.64 1228.61 142.436 C 1222.89 143.011 1219.46 143.911 1215.24 140.489 z"/>
<path transform="translate(0,0)" fill="rgb(4,8,21)" d="M 665.077 140.432 C 669.47 139.991 672.039 139.544 676.341 140.518 L 677.55 142.538 C 672.875 142.945 668.137 144.199 665.077 140.432 z"/>
<path transform="translate(0,0)" fill="rgb(4,8,21)" d="M 185.607 166.486 C 188.661 166.367 192.791 165.718 195.247 167.463 L 194.855 169.522 C 191.228 169.585 187.469 169.813 184.632 167.954 L 185.607 166.486 z"/>
<path transform="translate(0,0)" fill="rgb(4,8,21)" d="M 1525.99 140.426 C 1530.38 139.995 1533.04 139.535 1537.33 140.538 L 1538.54 142.503 C 1533.77 142.94 1529.2 144.193 1525.99 140.426 z"/>
<path transform="translate(0,0)" fill="rgb(4,8,21)" d="M 889.622 140.444 C 893.324 140.104 897.178 139.498 900.717 140.564 L 901.384 142.514 C 897.06 142.947 894.957 143.313 890.736 142.328 L 889.622 140.444 z"/>
<path transform="translate(0,0)" fill="rgb(4,8,21)" d="M 224.023 91.428 L 225.906 92.6597 C 227.249 94.8844 226.458 97.9627 226.091 100.606 L 224.156 99.1754 C 222.728 95.4053 223.303 95.7715 224.023 91.428 z"/>
<path transform="translate(0,0)" fill="rgb(4,8,21)" d="M 684.758 140.486 C 685.306 140.417 685.855 140.352 686.404 140.293 C 690.253 139.875 692.368 139.486 695.247 141.804 C 690.263 143.19 688.969 143.832 684.758 140.486 z"/>
<path transform="translate(0,0)" fill="rgb(4,8,21)" d="M 1269.07 132.294 C 1268.52 135.017 1268.83 136.023 1267.02 137.597 C 1265.48 134.434 1265.28 131.626 1267.02 128.584 L 1268.9 130.163 L 1269.07 132.294 z"/>
<path transform="translate(0,0)" fill="rgb(4,8,21)" d="M 916.029 140.395 C 918.729 140.093 921.645 139.462 924.037 140.684 L 924.45 142.613 C 920.271 143.012 918.586 143.608 916.029 140.395 z"/>
<path transform="translate(0,0)" fill="rgb(4,8,21)" d="M 875.523 109.806 C 875.297 106.529 874.717 106.058 876.207 103.562 C 878.036 105.362 877.498 104.856 877.816 107.979 C 877.439 108.864 876.653 110.909 876.108 111.572 L 875.523 109.806 z"/>
</svg>