<!-- RECRAFT VECTORIZE from logo/options-w3/mock/T4-liberation-tracked-navbar-dark.png -->
<svg version="1.1" xmlns="http://www.w3.org/2000/svg" style="display: block;" viewBox="0 0 4096 256" width="4096" height="256" preserveAspectRatio="none">
<path transform="translate(0,0)" fill="rgb(11,16,32)" d="M 0 0 L 4096 0 L 4096 256 L 0 256 L 0 0 z"/>
<path transform="translate(0,0)" fill="rgb(66,55,202)" d="M 3680.9 61.8564 C 3683.62 59.9053 3850.49 60.742 3867.69 60.7461 L 3927.44 60.7381 C 3936.42 60.7383 3952.44 60.2887 3960.98 61.3648 C 3965.1 66.3829 3963.97 61.5095 3968.79 66.4601 C 3972.78 70.5586 3976.43 74.4146 3979.89 79.0568 C 3981.95 81.8272 3980.54 83.4573 3983.46 85.0567 C 3984.52 101.225 3983.65 120.076 3983.96 136.454 C 3984.06 141.713 3984.11 163.594 3983.35 167.877 C 3979.2 171.354 3981.28 173.159 3980.36 173.999 C 3975.82 178.121 3967.92 188.526 3962.16 189.692 L 3960.85 191.491 C 3940.9 192.706 3684.51 192.515 3681.02 191.021 C 3680.79 190.693 3680.07 189.854 3679.67 189.729 C 3672.33 187.421 3665.81 179.187 3661.04 173.328 C 3660.06 172.13 3662.26 171.256 3658.42 167.922 C 3657.12 161.121 3656.93 88.2443 3658.93 84.9498 C 3661.45 82.9715 3659.9 79.1996 3664.11 75.489 C 3668.42 71.6869 3672.56 65.1345 3678.5 63.6465 C 3678.76 63.5825 3680.51 62.176 3680.9 61.8564 z"/>
<path transform="translate(0,0)" fill="rgb(244,243,251)" d="M 3903.59 133.858 C 3892.16 145.547 3878.81 133.809 3884.49 121.042 C 3892.81 102.341 3905.08 122.863 3905.93 123.085 C 3907.58 119.336 3908.51 116.023 3912.14 114.227 C 3915.79 114.298 3917.6 114.509 3921.2 115.123 C 3923.48 111.394 3919.97 109.845 3922.9 104.734 L 3924.76 104.498 C 3928.37 108.409 3925.72 127.629 3926.5 133.841 C 3926.6 134.66 3925.98 136.809 3925.68 137.642 C 3923.58 138.015 3923.2 137.903 3921.27 136.999 L 3920.52 138.187 C 3909.16 142.767 3910.71 136.197 3903.59 133.858 z"/>
<path transform="translate(0,0)" fill="rgb(58,46,199)" d="M 3905.72 127.423 C 3907.87 137.429 3910.7 139.045 3920.52 138.187 C 3909.16 142.767 3910.71 136.197 3903.59 133.858 L 3901.89 132.272 C 3896.78 132.886 3895.92 135.239 3891.47 133.956 C 3888.85 131.68 3889.36 132.688 3888.54 129.653 C 3890.89 127.664 3900.8 128.176 3905.72 127.423 z"/>
<path transform="translate(0,0)" fill="rgb(58,46,199)" d="M 3914.81 117.399 L 3918.4 119.012 C 3923.68 124.994 3921.53 129.412 3917.56 135.269 C 3908.05 132.499 3908.45 123.126 3914.81 117.399 z"/>
<path transform="translate(0,0)" fill="rgb(244,243,251)" d="M 3727.74 120.388 C 3730.88 120.497 3737.09 120.15 3739.31 122.621 C 3742.52 126.195 3742.07 130.149 3738.73 133.543 C 3735.36 136.91 3730.79 138.806 3726.02 138.817 C 3716.72 138.809 3710.43 129.952 3710.48 121.277 C 3710.5 116.444 3712.47 111.822 3715.93 108.452 C 3723.99 100.587 3738.68 102.888 3738.45 113.232 L 3735.84 115.035 C 3739.04 118.436 3743.61 115.63 3745.08 119.498 C 3743.73 123.969 3743.12 125.543 3743.77 130.14 L 3742.98 129.829 C 3742.78 126.393 3742.67 122.952 3742.64 119.51 C 3738.32 119.502 3731.69 119.177 3727.74 120.388 z"/>
<path transform="translate(0,0)" fill="rgb(58,46,199)" d="M 3727.74 120.388 L 3727.3 122.585 C 3729.51 126.332 3734.69 124.109 3736.66 129.037 C 3734.69 132.036 3727.96 135.546 3724.7 134.728 C 3708.22 130.6 3719.21 91.5042 3735.84 115.035 C 3739.04 118.436 3743.61 115.63 3745.08 119.498 C 3743.73 123.969 3743.12 125.543 3743.77 130.14 L 3742.98 129.829 C 3742.78 126.393 3742.67 122.952 3742.64 119.51 C 3738.32 119.502 3731.69 119.177 3727.74 120.388 z"/>
<path transform="translate(0,0)" fill="rgb(244,243,251)" d="M 3853.33 136.105 L 3851.58 138.313 C 3845.96 139.454 3846.86 134.355 3841.36 136.503 C 3837.36 138.065 3834.31 138.879 3830.32 137.332 C 3822.11 125.024 3841.89 124.44 3843.87 122.443 L 3843.2 119.742 C 3838.87 115.871 3836.9 120.769 3831.27 121.501 L 3830.11 120.411 C 3832.13 115.883 3839.44 110.131 3843.98 113.924 C 3849.97 118.938 3849.26 127.346 3850.25 134.009 L 3853.33 136.105 z"/>
<path transform="translate(0,0)" fill="rgb(244,243,251)" d="M 3752.62 114.109 C 3759.47 113.827 3767.1 116.508 3767.65 124.419 C 3764.27 130.346 3754.92 126.883 3751.08 130.207 C 3752.25 132.915 3751.73 132.055 3754.53 133.938 C 3757.53 134.715 3759.88 133.676 3762.81 132.743 C 3763.79 131.974 3763.52 132.205 3765.05 132.267 L 3765.29 133.763 C 3757.48 147.865 3733.6 130.007 3752.62 114.109 z"/>
<path transform="translate(0,0)" fill="rgb(244,243,251)" d="M 3798.48 114.078 C 3804.55 113.831 3808.28 113.365 3812.05 119.071 L 3810.99 120.015 C 3807.17 119.796 3803.36 119.49 3799.56 119.097 L 3798.79 120.454 C 3803.58 126.24 3812.31 124.349 3813.17 132.219 C 3811.61 135.52 3810.54 136.239 3807.75 138.519 C 3802.57 138.699 3795.65 139.386 3793.92 133.016 C 3796.08 131.845 3803.36 133.478 3807.63 133.383 L 3808.31 132.093 C 3805.68 126.109 3796.58 128.549 3793.96 121.306 C 3794.52 117.791 3796.03 116.609 3798.48 114.078 z"/>
<path transform="translate(0,0)" fill="rgb(244,243,251)" d="M 3819.29 107.608 C 3820.95 108.502 3825.69 114.713 3823.95 117.849 C 3818.72 127.261 3822.75 131.919 3827.5 137.945 C 3822.71 138.314 3823.51 138.938 3819.7 136.919 C 3814.63 130.109 3814.86 114.943 3819.29 107.608 z"/>
<path transform="translate(0,0)" fill="rgb(244,243,251)" d="M 3871.56 114.289 C 3872.56 110.391 3871.88 110.883 3874.55 108.152 C 3876.97 110.968 3874.8 112.26 3877.67 113.711 C 3878.5 114.124 3879.52 114.992 3880.24 115.607 C 3877.73 123.292 3874.41 120.832 3876.11 132.493 L 3880.71 135.989 L 3880.4 137.514 C 3877.39 138.775 3878.49 138.729 3875.48 137.998 C 3868.38 130.912 3875.44 123.264 3867.82 115.059 L 3871.56 114.289 z"/>
<path transform="translate(0,0)" fill="rgb(244,243,251)" d="M 3774.37 107.677 L 3776.11 108.975 C 3776.71 115.545 3784.12 111.862 3776.64 123.514 C 3774.39 127.008 3779.44 133.647 3782.51 137.36 C 3780.03 138.338 3779.11 138.22 3776.43 138.098 C 3768.25 133.157 3776.13 124.751 3770.42 117.103 C 3770.57 114.738 3772.96 111.683 3774.37 107.677 z"/>
<path transform="translate(0,0)" fill="rgb(244,243,251)" d="M 3860.16 115.831 C 3863.03 114.472 3863.69 114.399 3866.84 114.712 C 3864.83 119.725 3857.27 122.325 3859.15 133.293 C 3859.38 134.643 3859.26 136.562 3858.23 137.536 C 3855.27 133.248 3853.29 118.319 3857.45 114.9 L 3860.16 115.831 z"/>
<path transform="translate(0,0)" fill="rgb(58,46,199)" d="M 3860.16 115.831 C 3859 110.75 3857.95 114.465 3855.53 111.181 C 3859.56 109.951 3866.41 108.39 3870.39 110.322 L 3871.56 114.289 L 3867.82 115.059 L 3866.84 114.712 C 3863.69 114.399 3863.03 114.472 3860.16 115.831 z"/>
<path transform="translate(0,0)" fill="rgb(58,46,199)" d="M 3909.07 140.426 C 3913.37 139.871 3922.05 139.766 3926.24 140.662 L 3927.48 142.596 C 3921.98 142.461 3912.23 144.718 3909.07 140.426 z"/>
<path transform="translate(0,0)" fill="rgb(58,46,199)" d="M 3850.25 134.009 C 3852.5 126.739 3851.03 123.317 3853.17 116.957 C 3854.13 121.707 3854.17 131.35 3853.33 136.105 L 3850.25 134.009 z"/>
<path transform="translate(0,0)" fill="rgb(58,46,199)" d="M 3718.32 140.526 C 3723.38 139.803 3732.05 138.702 3735.61 142.439 C 3732.76 142.625 3729.91 142.769 3727.05 142.874 C 3722.94 142.992 3721.03 143.09 3718.32 140.526 z"/>
<path transform="translate(0,0)" fill="rgb(58,46,199)" d="M 3795.58 140.464 C 3800.27 140.092 3807.87 138.379 3810.52 142.495 C 3806.05 142.784 3798.01 144.306 3795.58 140.464 z"/>
<path transform="translate(0,0)" fill="rgb(58,46,199)" d="M 3768.67 118.447 L 3770.62 120.165 C 3771.09 123.407 3771.47 131.44 3769.56 134.082 L 3768.92 133.468 C 3768.44 129.36 3768.55 122.688 3768.67 118.447 z"/>
<path transform="translate(0,0)" fill="rgb(58,46,199)" d="M 3750.15 140.423 C 3754.67 140.007 3760.98 138.462 3763.53 142.517 C 3758.84 142.904 3753.17 144.23 3750.15 140.423 z"/>
<path transform="translate(0,0)" fill="rgb(58,46,199)" d="M 3749.39 110.529 C 3753.76 109.968 3760.5 108.867 3764.19 111.68 C 3759.54 113.306 3753.31 113.705 3749.39 110.529 z"/>
<path transform="translate(0,0)" fill="rgb(58,46,199)" d="M 3887.57 140.453 C 3890.9 140.113 3897.12 139.479 3900.03 140.727 L 3900.43 142.476 C 3895.64 142.897 3893.43 143.215 3888.74 142.301 L 3887.57 140.453 z"/>
<path transform="translate(0,0)" fill="rgb(58,46,199)" d="M 3830.84 140.419 C 3835.22 139.957 3840.04 138.533 3842.53 142.516 C 3837.74 142.946 3834.23 144.051 3830.84 140.419 z"/>
<path transform="translate(0,0)" fill="rgb(58,46,199)" d="M 3817.84 140.441 C 3821.19 139.983 3823.02 139.545 3826.3 140.515 L 3827.09 142.602 C 3823.78 142.911 3821.98 143.238 3818.75 142.319 L 3817.84 140.441 z"/>
<path transform="translate(0,0)" fill="rgb(244,243,251)" d="M 205.562 107.206 L 201.749 106.372 C 201.927 101.471 208.277 100.261 212.343 100.456 C 216.354 100.624 220.135 102.378 222.854 105.333 C 225.052 107.759 228.244 113.367 230.001 116.37 C 232.557 114.079 231.842 110.76 233.489 106.295 L 234.59 106.963 C 235.316 115.215 235.586 140.562 234.532 148.456 L 233.139 148.414 C 231.172 144.427 232.767 140.338 230.867 138.591 C 227.134 143.981 221.373 152.755 214.758 153.831 C 210.982 154.445 209.201 152.818 206.681 153.759 C 205.734 157.002 204.602 161.34 203.181 164.292 C 201.742 160.263 202.356 153.309 202.665 149.067 C 206.292 149.312 210.039 149.721 213.622 149.176 C 206.051 148.322 204.83 147.09 198.612 143.032 C 198.989 148.737 201.123 161.032 196.057 164.112 C 192.371 163.751 192.435 164.297 189.701 162.282 C 188.885 156.26 188.103 110.715 190.59 108.151 C 194.489 107.027 197.115 108.706 201.534 110.042 L 205.562 107.206 z"/>
<path transform="translate(0,0)" fill="rgb(4,8,21)" d="M 205.562 107.206 L 201.749 106.372 C 201.927 101.471 208.277 100.261 212.343 100.456 C 216.354 100.624 220.135 102.378 222.854 105.333 C 225.052 107.759 228.244 113.367 230.001 116.37 C 232.557 114.079 231.842 110.76 233.489 106.295 L 234.59 106.963 C 235.316 115.215 235.586 140.562 234.532 148.456 L 233.139 148.414 C 231.172 144.427 232.767 140.338 230.867 138.591 C 227.134 143.981 221.373 152.755 214.758 153.831 C 210.982 154.445 209.201 152.818 206.681 153.759 C 205.734 157.002 204.602 161.34 203.181 164.292 C 201.742 160.263 202.356 153.309 202.665 149.067 C 206.292 149.312 210.039 149.721 213.622 149.176 C 231.081 141.7 232.476 102.804 205.562 107.206 z"/>
<path transform="translate(0,0)" fill="rgb(4,8,21)" d="M 204.818 113.381 C 219.242 114.161 217.839 133.766 209.21 142.035 C 195.041 139.382 196.821 122.181 204.818 113.381 z"/>
<path transform="translate(0,0)" fill="rgb(244,243,251)" d="M 360.344 112.163 L 362.7 111.199 L 363.934 106.839 L 365.111 106.815 C 367.026 110.252 358.925 143.618 355.229 146.31 C 353.718 143.863 354.14 139.75 354.165 136.746 C 352.438 142.201 351.501 150.645 343.663 148.023 C 337.996 142.745 336.563 131.324 334.94 123.569 C 334.545 135.753 335.033 134.001 330.717 145.409 L 329.286 146.098 C 327.372 142.208 328.539 138.584 328.127 134.591 C 326.689 140.809 325.183 150.169 316.683 148.269 C 313.157 145.643 313.066 143.756 311.915 139.442 C 311.79 142.483 312.238 144.467 310.722 146.692 L 309.202 146.259 C 306.721 141.608 303.169 128.406 301.496 122.738 L 301.379 123.219 C 300.323 119.223 297.918 110.06 301.021 106.984 C 302.334 109.251 301.802 109.079 303.905 110.141 C 305.809 107.76 306.267 107.367 309.187 106.548 C 316.804 109.177 316.303 123.087 318.047 130.091 L 319.295 132.781 L 320.798 132.845 L 321.937 131.313 C 323.419 125.313 325.848 103.172 335.053 106.77 C 340.784 113.388 341.252 120.398 343.059 129.05 C 343.145 125.168 343.147 114.208 345.998 111.779 C 348.192 114.685 347.823 121.574 348 125.515 C 349.5 118.821 349.314 110.677 355.384 107.205 C 358.583 107.524 358.634 106.99 360.603 108.96 L 360.344 112.163 z"/>
<path transform="translate(0,0)" fill="rgb(4,8,21)" d="M 311.915 139.442 C 311.79 142.483 312.238 144.467 310.722 146.692 L 309.202 146.259 C 306.721 141.608 303.169 128.406 301.496 122.738 L 301.379 123.219 C 300.323 119.223 297.918 110.06 301.021 106.984 C 302.334 109.251 301.802 109.079 303.905 110.141 C 306.935 114.843 310.605 133.168 311.915 139.442 z"/>
<path transform="translate(0,0)" fill="rgb(4,8,21)" d="M 360.344 112.163 L 362.7 111.199 L 363.934 106.839 L 365.111 106.815 C 367.026 110.252 358.925 143.618 355.229 146.31 C 353.718 143.863 354.14 139.75 354.165 136.746 C 355.003 132.043 358.643 116.112 360.344 112.163 z"/>
<path transform="translate(0,0)" fill="rgb(4,8,21)" d="M 328.127 134.591 C 328.854 130.824 330.115 121.921 332.794 119.47 L 334.159 120.202 L 334.94 123.569 C 334.545 135.753 335.033 134.001 330.717 145.409 L 329.286 146.098 C 327.372 142.208 328.539 138.584 328.127 134.591 z"/>
<path transform="translate(0,0)" fill="rgb(4,8,21)" d="M 343.059 129.05 C 343.145 125.168 343.147 114.208 345.998 111.779 C 348.192 114.685 347.823 121.574 348 125.515 C 347.819 128.871 347.906 130.215 345.861 132.967 L 344.295 133.178 C 343.47 131.563 343.012 130.888 343.059 129.05 z"/>
<path transform="translate(0,0)" fill="rgb(244,243,251)" d="M 284.931 107.021 C 299.759 111.122 302.334 134.319 291.563 143.645 C 276.807 155.661 257.29 145.244 259.127 125.945 C 260.666 109.786 269.133 106.108 284.376 106.93 L 284.931 107.021 z"/>
<path transform="translate(0,0)" fill="rgb(4,8,21)" d="M 274.84 113.765 C 275.144 113.75 275.448 113.738 275.752 113.728 C 291.363 113.223 290.458 132.476 281.631 141.579 C 266.01 142.508 266.997 123.26 274.84 113.765 z"/>
<path transform="translate(0,0)" fill="rgb(244,243,251)" d="M 137.155 94.5797 C 149.13 95.2669 162.2 93.5484 174.02 95.4903 C 175.434 95.7226 175.668 97.0859 176.275 98.3768 C 174.41 106.949 154.517 103.657 147.098 103.479 C 146.713 126.532 154.368 113.775 171.926 117.319 C 174.278 119.377 173.737 118.418 174.222 121.573 C 172.922 124.185 172.611 125.243 169.308 125.255 C 162.131 125.281 154.957 125.153 147.783 125.011 C 147.123 127.508 147.11 136.35 147.036 139.397 C 155.091 139.332 171.482 137.4 177.023 141.543 C 178.16 144.261 178.073 143.218 177.194 146.182 C 173.753 149.121 144.047 148.023 137.023 148.204 C 136.848 130.329 136.893 112.453 137.155 94.5797 z"/>
<path transform="translate(0,0)" fill="rgb(129,142,163)" d="M 1482.56 104.185 C 1487.41 103.924 1492.64 104.129 1497.52 104.225 L 1505.89 108.694 C 1509.63 118.482 1510.72 126.44 1503.4 134.663 C 1496.21 140.154 1490.69 138.692 1481.51 138.234 C 1481.58 131.29 1480.42 109.287 1482.56 104.185 z"/>
<path transform="translate(0,0)" fill="rgb(4,8,21)" d="M 1486.96 108.16 C 1488.11 108.132 1489.26 108.122 1490.41 108.131 C 1505.44 108.278 1508.29 123.496 1498.09 133.314 C 1483.35 139.856 1487.17 122.812 1486.63 115.051 C 1486.45 112.303 1486.24 110.834 1486.96 108.16 z"/>
<path transform="translate(0,0)" fill="rgb(4,8,21)" d="M 1559.27 122.212 C 1563.15 113.45 1571.44 109.629 1577.8 118.082 L 1577.86 120.038 L 1576.55 121.083 C 1572.62 119.305 1570.11 117.454 1566.36 118.678 L 1565.62 120.603 C 1567.85 125.561 1577.34 122.608 1579.52 131.979 C 1576.75 140.4 1563.89 141.48 1559.85 132.878 C 1559.65 132.462 1559.47 132.041 1559.3 131.615 L 1557.86 131.45 C 1556.12 134.86 1553.05 138.606 1549.18 138.583 C 1530.86 138.477 1535.39 105.713 1553.99 116.153 C 1555.73 117.133 1555.79 118.568 1555.9 120.287 L 1553.92 121.712 C 1556.28 122.629 1556.77 122.62 1559.27 122.212 z"/>
<path transform="translate(0,0)" fill="rgb(129,142,163)" d="M 1559.27 122.212 C 1563.15 113.45 1571.44 109.629 1577.8 118.082 L 1577.86 120.038 L 1576.55 121.083 C 1572.62 119.305 1570.11 117.454 1566.36 118.678 L 1565.62 120.603 C 1567.85 125.561 1577.34 122.608 1579.52 131.979 C 1576.75 140.4 1563.89 141.48 1559.85 132.878 C 1559.65 132.462 1559.47 132.041 1559.3 131.615 C 1565.94 130.57 1563.45 134.914 1573.1 133.611 L 1573.92 132.515 C 1570.03 126.984 1565.24 128.564 1559.27 122.212 z"/>
<path transform="translate(0,0)" fill="rgb(129,142,163)" d="M 1557.86 131.45 C 1556.12 134.86 1553.05 138.606 1549.18 138.583 C 1530.86 138.477 1535.39 105.713 1553.99 116.153 C 1555.73 117.133 1555.79 118.568 1555.9 120.287 L 1553.92 121.712 C 1550.31 118.83 1551.56 119.088 1547.19 118.457 C 1541.03 121.49 1540.96 129.1 1545.52 133.419 C 1552.59 134.941 1551.23 130.363 1557.86 131.45 z"/>
<path transform="translate(0,0)" fill="rgb(4,8,21)" d="M 3679.79 56.4343 C 3683.98 55.7202 3706.12 56.0268 3711.38 56.0373 L 3779.31 56.1276 L 3910.87 56.121 C 3917.96 56.1189 3955.85 55.498 3960.6 56.6019 L 3961.63 58.5542 C 3947.45 59.2707 3928.15 58.6876 3913.69 58.6915 L 3820.72 58.7068 L 3730.74 58.7058 C 3715.29 58.703 3695.89 59.2366 3680.67 58.3898 L 3679.79 56.4343 z"/>
<path transform="translate(0,0)" fill="rgb(129,142,163)" d="M 693.126 130.626 C 695.291 131.822 694.669 131.218 695.795 133.481 L 694.502 135.739 C 691.08 138.031 685.259 139.967 681.585 137.252 L 681.428 137.134 C 678.261 134.792 679.078 129.68 676.042 127.889 C 673.507 132.825 676.067 132.743 674.477 137.192 C 670.409 139.502 660.93 138.365 656.922 135.476 C 654.56 132.743 654.311 117.384 657.109 114.65 L 658.895 114.915 C 660.616 117.826 659.506 127.213 660.57 131.916 C 662.281 134.097 662.706 134.707 665.346 135.457 C 672.521 132.053 668.376 120.348 671.684 115.082 L 673.604 114.699 C 675.639 116.632 675.273 120.831 675.878 124.67 L 676.8 125.088 C 677.191 123.842 678.447 119.23 678.984 118.484 C 683.816 111.775 693.768 112.491 695.837 120.893 L 699.907 118.021 C 699.405 121.524 699.346 127.789 697.321 129.568 C 694.985 129.772 694.681 129.407 693.126 130.626 z"/>
<path transform="translate(0,0)" fill="rgb(4,8,21)" d="M 693.126 130.626 C 690.224 133.825 689.038 134.241 685.061 133.648 C 680.819 130.36 680.968 124.476 683.323 120.104 C 690.16 115.784 688.327 121.72 695.837 120.893 L 699.907 118.021 C 699.405 121.524 699.346 127.789 697.321 129.568 C 694.985 129.772 694.681 129.407 693.126 130.626 z"/>
<path transform="translate(0,0)" fill="rgb(129,142,163)" d="M 1284.9 130.867 C 1284.84 126.428 1284.29 121.12 1287.73 117.689 C 1292.09 113.345 1299.46 112.257 1304.74 115.596 C 1306.41 118.793 1305.65 135.916 1305.85 140.947 C 1300.74 148.729 1291.33 152.896 1286.31 143.462 C 1291.83 141.455 1296.94 145.951 1300.42 139.912 L 1300.22 137.998 C 1296.45 136.265 1289.47 141.682 1285.03 132.179 L 1284.9 130.867 z"/>
<path transform="translate(0,0)" fill="rgb(4,8,21)" d="M 1291.57 118.332 C 1303 118.048 1301.27 127.268 1297.62 134.43 L 1293.45 133.893 C 1287.7 129.411 1289.44 124.622 1291.57 118.332 z"/>
<path transform="translate(0,0)" fill="rgb(129,142,163)" d="M 646.15 103.552 C 647.334 104.073 648.823 104.47 649.084 105.736 C 650.311 111.699 650.584 132.267 648.999 137.069 C 643.896 137.727 640.132 138.337 634.934 138.584 C 621.614 127.17 626.891 116.572 643.136 113.675 C 645.674 110.838 642.882 108.513 646.15 103.552 z"/>
<path transform="translate(0,0)" fill="rgb(4,8,21)" d="M 635.469 118.365 C 637.464 118.335 638.945 118.613 640.909 118.924 C 646.613 124.297 644.826 128.063 641.718 134.523 C 637.301 133.872 638.322 134.584 634.961 131.925 C 632.53 127.268 634.014 123.273 635.469 118.365 z"/>
<path transform="translate(0,0)" fill="rgb(129,142,163)" d="M 929.886 119.119 L 928.347 116.397 C 930.007 113.597 931.949 109.06 933.575 108.614 C 936.098 112.37 936.08 113.593 939.762 114.941 C 947.664 112.258 942.646 108.145 947.824 104.622 C 949.764 104.161 951 103.703 952.9 104.318 L 953.464 105.525 C 951.738 107.953 950.694 109.235 948.707 111.427 L 949.267 113.019 L 952.916 114.706 C 953.15 117.94 951.591 117.582 950.182 121.566 C 948.807 125.455 948.811 135.546 947.187 137.973 C 941.947 137.041 944.663 123.44 943.735 117.881 C 941.174 124.277 942.738 131.617 940.804 133.608 L 938.961 134.035 C 939.858 136.203 939.812 135.372 939.314 137.644 C 936.424 138.951 937.537 138.719 933.994 137.88 C 927.654 131.674 933.082 125.161 929.976 119.288 L 929.886 119.119 z"/>
<path transform="translate(0,0)" fill="rgb(4,8,21)" d="M 938.961 134.035 C 938.473 133.916 936.91 133.047 936.373 132.765 C 934.634 126.955 934.196 125.229 936.701 119.738 C 939.774 117.396 939.392 118.074 943.735 117.881 C 941.174 124.277 942.738 131.617 940.804 133.608 L 938.961 134.035 z"/>
<path transform="translate(0,0)" fill="rgb(129,142,163)" d="M 1174.82 104.222 C 1183.23 103.78 1194.87 102.22 1198.96 111.86 C 1198.64 122.224 1186.58 121.925 1179.11 121.877 C 1179.85 125.218 1180.13 134.5 1178.21 137.974 L 1176.13 138.489 L 1174.75 137.139 C 1173.55 131.416 1174.07 110.37 1174.82 104.222 z"/>
<path transform="translate(0,0)" fill="rgb(4,8,21)" d="M 1180.43 108.2 C 1181.79 108.176 1183.14 108.165 1184.5 108.168 C 1188.7 108.174 1190.33 108.048 1193.14 110.862 C 1193.84 113.496 1192.96 114.864 1191.82 117.273 C 1187.01 117.478 1181.97 118.567 1178.93 114.39 C 1179 111.438 1179.05 110.795 1180.43 108.2 z"/>
<path transform="translate(0,0)" fill="rgb(129,142,163)" d="M 560.273 104.271 C 568.773 103.762 580.773 102.203 584.834 112.065 C 584.423 121.605 574.253 122.009 566.953 121.756 C 562.751 123.389 567.372 132.679 562.814 138.329 L 560.922 137.48 C 559.212 134.282 559.848 109.12 560.273 104.271 z"/>
<path transform="translate(0,0)" fill="rgb(4,8,21)" d="M 565.237 108.371 C 568.975 108.264 574.929 107.539 577.698 109.699 C 579.496 113.479 578.98 112.564 578.631 117.029 C 574.926 117.3 569.33 118.188 566.265 116.48 C 564.222 113.078 564.968 112.917 565.237 108.371 z"/>
<path transform="translate(0,0)" fill="rgb(129,142,163)" d="M 867.668 104.209 C 876.049 103.786 888.023 102.317 891.998 112.055 C 891.458 121.952 880.604 121.965 873.172 121.696 C 869.666 125.516 875.04 132.417 870.451 137.777 L 868.801 137.534 C 865.872 132.768 866.749 110.172 867.668 104.209 z"/>
<path transform="translate(0,0)" fill="rgb(4,8,21)" d="M 872.885 108.279 C 876.789 108.191 882.492 107.503 885.336 110.05 C 886.521 113.997 886.19 112.951 885.22 117.2 C 879.764 117.531 876.015 118.553 872.141 115.133 C 871.696 112.033 871.998 111.177 872.885 108.279 z"/>
<path transform="translate(0,0)" fill="rgb(129,142,163)" d="M 961.862 114.204 C 979.026 113.119 981.888 128.12 970.256 138.505 C 953.604 139.428 950.353 124.343 961.862 114.204 z"/>
<path transform="translate(0,0)" fill="rgb(4,8,21)" d="M 964.779 117.332 C 975.463 120.33 973.191 128.916 967.465 135.386 C 957.484 132.064 958.089 123.603 964.779 117.332 z"/>
<path transform="translate(0,0)" fill="rgb(129,142,163)" d="M 609.883 114.201 C 611.408 114.104 613.034 114.027 614.558 114.086 C 617.449 114.225 620.163 115.515 622.096 117.668 C 628.408 124.605 624.209 133.171 618.249 138.501 C 616.8 138.578 615.146 138.639 613.705 138.542 C 610.767 138.356 608.025 136.999 606.096 134.775 C 600.012 127.809 603.763 119.519 609.883 114.201 z"/>
<path transform="translate(0,0)" fill="rgb(4,8,21)" d="M 612.741 117.33 C 623.39 120.141 621.384 129.009 615.478 135.421 C 605.507 132.157 605.955 123.55 612.741 117.33 z"/>
<path transform="translate(0,0)" fill="rgb(129,142,163)" d="M 1518.74 114.17 C 1523.9 113.872 1527.58 113.876 1531.22 118.104 C 1533.19 120.416 1534.15 123.417 1533.9 126.441 C 1533.42 132.804 1531.25 134.746 1526.72 138.61 C 1525.56 138.655 1524.4 138.652 1523.24 138.6 C 1509.58 137.919 1508.86 122.905 1518.74 114.17 z"/>
<path transform="translate(0,0)" fill="rgb(4,8,21)" d="M 1520.69 117.622 C 1531.61 118.88 1530.49 128.056 1525.07 134.83 C 1522.17 134.482 1521.65 134.306 1519.17 132.751 C 1514.95 127.254 1516.61 122.531 1520.69 117.622 z"/>
<path transform="translate(0,0)" fill="rgb(129,142,163)" d="M 1016 117.842 C 1009.78 128.781 1015.74 130.882 1011.63 137.558 L 1009.55 138.065 C 1004.94 132.364 1011.87 123.134 1005.46 118.4 C 1001.9 118.274 1002.94 117.809 1000.64 119.883 C 997.86 126.137 1000.99 133.558 997.973 138.093 L 996.47 138.157 C 994.287 134.374 994.371 121.504 993.868 115.787 L 994.703 114.648 C 996.103 114.781 1001.1 115.983 1000.53 116.219 C 1003.57 114.946 1004.61 113.378 1008.4 114.063 C 1008.44 114.07 1012.51 116.937 1012.53 116.936 C 1016.58 116.813 1022.33 112.399 1025.17 116.172 C 1027.39 119.13 1027.55 124.932 1027.24 128.689 C 1026.97 131.934 1026.23 135.064 1024.46 137.918 L 1023.85 138.343 C 1021.02 135.221 1023.34 125.118 1020.55 118.651 L 1016 117.842 z"/>
<path transform="translate(0,0)" fill="rgb(244,243,251)" d="M 237.829 107.188 C 241.653 106.99 244.471 106.271 246.904 109.485 C 247.572 115.699 247.829 143.177 246.46 148.5 C 242.556 148.203 240.363 148.424 237.676 146.103 C 236.861 140.078 236.828 112.948 237.829 107.188 z"/>
<path transform="translate(0,0)" fill="rgb(129,142,163)" d="M 920.502 122.379 C 919.469 121.072 917.57 118.943 915.922 118.63 L 915.747 118.598 C 913.615 118.194 909.656 120.181 907.524 121.096 L 905.931 120.037 C 907.01 114.583 912.555 112.71 917.588 112.993 C 927.766 118.109 922.377 127.356 925.949 134.99 C 926.832 135.945 926.629 135.998 926.939 137.369 C 923.81 139.115 925.373 138.016 922.246 136.985 C 915.475 134.752 912.006 141.463 905.577 135.738 C 904.374 132.88 903.924 132.001 904.7 128.904 C 908.643 122.941 914.188 125.965 920.502 122.379 z"/>
<path transform="translate(0,0)" fill="rgb(129,142,163)" d="M 1239.84 133.738 C 1242.91 131.579 1241.98 131.543 1245.26 131.78 L 1245.82 133.68 C 1243.22 139.62 1236.18 140.096 1231.45 136.154 C 1221.26 127.653 1230.2 107.448 1242.82 115.799 C 1244.66 117.014 1244.85 118.665 1244.87 120.53 L 1242.84 121.045 L 1239.87 119.033 C 1238.55 124.262 1236.11 122.144 1236.41 125.967 C 1236.73 130.037 1239.26 128.386 1239.84 133.738 z"/>
<path transform="translate(0,0)" fill="rgb(4,8,21)" d="M 1239.84 133.738 C 1237.61 134.098 1237.19 134.055 1235.06 133.306 C 1230.89 129.292 1230.8 124.289 1234.3 119.693 C 1237.4 118.216 1236.18 118.491 1239.87 119.033 C 1238.55 124.262 1236.11 122.144 1236.41 125.967 C 1236.73 130.037 1239.26 128.386 1239.84 133.738 z"/>
<path transform="translate(0,0)" fill="rgb(129,142,163)" d="M 1269.91 114.369 C 1271.26 114.11 1273.25 114.441 1274.68 114.597 C 1281.75 118.858 1282.51 135.127 1277.61 137.707 C 1272.76 132.48 1280.81 121.776 1268.28 117.067 C 1263.39 125.439 1266.54 127.387 1262.21 138.023 L 1260.87 138.137 C 1260.3 134.983 1260.54 120.675 1260.72 117.021 C 1263 114.594 1264.3 118.049 1269.91 114.369 z"/>
<path transform="translate(0,0)" fill="rgb(4,8,21)" d="M 3653.4 83.656 C 3653.76 83.7848 3654.16 83.9518 3654.42 84.239 C 3657.49 87.6162 3655.73 159.999 3655.56 168.922 L 3654.05 168.618 C 3652.53 165.926 3653.21 92.0631 3653.4 83.656 z"/>
<path transform="translate(0,0)" fill="rgb(129,142,163)" d="M 699.907 118.021 L 698.477 116.799 C 699.021 114.325 701.102 109.602 703.5 108.479 C 707.537 113.665 701.731 110.554 709.485 115.494 C 708.029 119.948 705.415 116.642 705.077 123.25 C 705.026 125.279 704.64 131.373 705.554 132.795 L 705.626 132.909 C 707.207 135.374 709.346 133.246 709.431 137.256 C 706.74 138.728 707.633 138.32 704.024 137.998 C 697.242 132.519 702.514 125.303 699.907 118.021 z"/>
<path transform="translate(0,0)" fill="rgb(4,8,21)" d="M 131.173 94.361 L 132.572 94.9313 C 135.076 98.9364 133.749 140.336 133.581 148.485 L 132.081 147.781 C 129.552 144.535 130.556 100.871 131.173 94.361 z"/>
<path transform="translate(0,0)" fill="rgb(129,142,163)" d="M 897.019 103.623 L 898.755 104.76 C 901.089 108.143 900.044 133.734 899.376 138.799 L 896.899 137.682 C 894.525 133.955 894.673 107.758 897.019 103.623 z"/>
<path transform="translate(0,0)" fill="rgb(129,142,163)" d="M 597.264 114.869 L 598.247 114.628 L 599.628 115.96 L 598.689 117.653 L 595.64 118.407 C 588.572 123.126 598.022 134.499 588.889 138.763 C 588.049 134.558 588.249 119.913 589.148 115.642 L 590.441 114.898 L 594.185 116.38 L 597.264 114.869 z"/>
<path transform="translate(0,0)" fill="rgb(129,142,163)" d="M 1211.73 114.29 L 1213.18 114.878 L 1213.75 116.387 C 1199.79 125.977 1212.51 130.027 1204.45 139.382 C 1202.07 135.522 1201.71 118.63 1204.58 115.012 L 1208.51 116.257 L 1211.73 114.29 z"/>
<path transform="translate(0,0)" fill="rgb(129,142,163)" d="M 991.131 114.579 L 992.727 115.473 C 992.448 118.76 988.472 117.648 987.443 120.577 C 984.894 127.832 988.912 133.487 983.441 139.32 C 981.092 135.109 981.76 121.57 982.451 116.554 C 984.437 113.923 985.58 117.264 991.131 114.579 z"/>
<path transform="translate(0,0)" fill="rgb(4,8,21)" d="M 135.956 150.464 C 145.672 150.32 166.839 149.736 177.345 150.694 C 178.096 151.421 178.743 152.047 179.286 152.573 C 173.848 153.314 141.345 153.541 136.743 152.291 L 135.956 150.464 z"/>
<path transform="translate(0,0)" fill="rgb(129,142,163)" d="M 1252.17 113.722 C 1257.12 115.864 1255.38 134.126 1254.43 138.826 C 1253.24 138.267 1251.44 137.617 1251.2 136.142 C 1250.31 130.708 1249.85 118.419 1252.17 113.722 z"/>
<path transform="translate(0,0)" fill="rgb(129,142,163)" d="M 1220.19 113.694 C 1225.01 115.835 1223.35 134.208 1222.42 138.816 C 1221.24 138.255 1219.45 137.586 1219.19 136.145 C 1218.22 130.724 1217.9 118.406 1220.19 113.694 z"/>
<path transform="translate(0,0)" fill="rgb(4,8,21)" d="M 149.134 133.217 C 157.117 135.23 172.902 132.731 178.216 134.72 L 178.435 136.602 C 172.826 136.743 152.365 137.697 148.713 135.829 L 149.134 133.217 z"/>
<path transform="translate(0,0)" fill="rgb(4,8,21)" d="M 864.39 103.692 C 866.065 107.491 865.613 134.475 864.506 139.53 C 861.897 135.735 862.077 108.219 864.39 103.692 z"/>
<path transform="translate(0,0)" fill="rgb(4,8,21)" d="M 284.376 106.93 C 281.082 99.6598 277.088 106.319 272.017 102.717 C 274.233 97.55 288.742 101.069 291.639 105.766 C 290.487 106.827 286.709 106.863 284.931 107.021 L 284.376 106.93 z"/>
<path transform="translate(0,0)" fill="rgb(4,8,21)" d="M 318.047 130.091 C 318.333 123.811 318.058 118.327 319.943 112.387 L 320.288 112.955 L 319.645 114.417 L 320.576 114.257 C 322.028 122.544 321.164 124.868 321.937 131.313 L 320.798 132.845 L 319.295 132.781 L 318.047 130.091 z"/>
<path transform="translate(0,0)" fill="rgb(4,8,21)" d="M 1016 117.842 L 1020.55 118.651 C 1017.52 124.973 1020.22 132.157 1017.05 137.91 C 1016.61 131.226 1016.26 124.536 1016 117.842 z"/>
<path transform="translate(0,0)" fill="rgb(4,8,21)" d="M 1029.9 117.586 L 1031.19 119.248 C 1031.89 124.275 1032.26 134.385 1030.71 139.186 L 1029.42 137.427 C 1028.64 132.396 1028.73 122.517 1029.9 117.586 z"/>
<path transform="translate(0,0)" fill="rgb(4,8,21)" d="M 1480.8 140.496 C 1486.18 139.927 1496.98 138.572 1500.67 142.437 C 1494.22 142.834 1485.61 144.304 1480.8 140.496 z"/>
<path transform="translate(0,0)" fill="rgb(4,8,21)" d="M 656.952 140.498 C 661.808 139.988 672.848 139.045 676.369 142.052 C 671.571 143.392 660.894 143.896 656.952 140.498 z"/>
<path transform="translate(0,0)" fill="rgb(4,8,21)" d="M 632.21 140.423 C 636.234 139.892 645.42 139.847 649.304 140.574 L 650.537 142.611 C 644.968 142.448 635.471 144.731 632.21 140.423 z"/>
<path transform="translate(0,0)" fill="rgb(4,8,21)" d="M 929.886 119.119 C 929.347 123.3 929.594 131.632 927.787 133.836 L 925.949 134.99 C 926.885 130.047 926.185 123.647 927.594 119.788 L 929.886 119.119 z"/>
<path transform="translate(0,0)" fill="rgb(4,8,21)" d="M 1561.97 140.433 C 1566.3 140.136 1571.63 139.486 1575.75 140.578 L 1576.4 142.467 C 1571.43 142.894 1565.41 144.284 1561.97 140.433 z"/>
<path transform="translate(0,0)" fill="rgb(4,8,21)" d="M 873.292 123.446 C 879.018 123.04 884.298 121.965 888.617 125.428 C 883.044 125.94 877.148 127.692 873.292 123.446 z"/>
<path transform="translate(0,0)" fill="rgb(4,8,21)" d="M 312.713 150.441 C 317.438 150.148 323.421 148.795 326.425 152.536 C 321.894 152.977 314.987 154.777 312.713 150.441 z"/>
<path transform="translate(0,0)" fill="rgb(4,8,21)" d="M 566.289 123.447 C 571.157 123.098 577.122 121.855 580.586 125.475 C 575.24 126.018 569.973 127.58 566.289 123.447 z"/>
<path transform="translate(0,0)" fill="rgb(4,8,21)" d="M 1288.39 150.5 C 1289.72 150.376 1291.05 150.265 1292.38 150.167 C 1297.33 149.802 1299.23 149.515 1302.61 152.437 C 1297.51 152.957 1292.09 154.415 1288.39 150.5 z"/>
<path transform="translate(0,0)" fill="rgb(4,8,21)" d="M 240.09 86.205 C 242.847 86.408 246.327 86.1888 248.394 88.001 L 246.53 89.5445 C 242.657 89.7087 240.969 89.9067 237.248 88.7516 L 237.222 87.5109 L 240.09 86.205 z"/>
<path transform="translate(0,0)" fill="rgb(4,8,21)" d="M 959.419 140.501 C 962.929 140.134 970.497 139.024 973.159 141.637 C 968.99 143.371 962.712 143.997 959.419 140.501 z"/>
<path transform="translate(0,0)" fill="rgb(4,8,21)" d="M 607.343 140.502 C 612.457 139.95 617.027 138.568 620.653 142.474 C 615.688 142.911 611.003 144.134 607.343 140.502 z"/>
<path transform="translate(0,0)" fill="rgb(4,8,21)" d="M 1541.6 140.444 C 1546.09 140.004 1552.05 138.459 1554.54 142.528 C 1550.21 142.894 1543.96 144.349 1541.6 140.444 z"/>
<path transform="translate(0,0)" fill="rgb(4,8,21)" d="M 1516.1 140.488 C 1521.11 139.984 1526.02 138.61 1529.62 142.452 C 1523.76 143.006 1520.46 143.902 1516.1 140.488 z"/>
<path transform="translate(0,0)" fill="rgb(4,8,21)" d="M 1231.18 140.505 C 1235.86 140.001 1240.7 138.996 1244.29 141.869 C 1239.63 143.283 1234.87 143.891 1231.18 140.505 z"/>
<path transform="translate(0,0)" fill="rgb(4,8,21)" d="M 681.132 140.428 C 685.525 139.982 688.038 139.54 692.335 140.53 L 693.544 142.518 C 688.91 142.941 684.115 144.221 681.132 140.428 z"/>
<path transform="translate(0,0)" fill="rgb(4,8,21)" d="M 905.353 140.51 C 909.886 139.987 914.368 139.258 918.151 141.628 C 913.863 143.316 908.758 143.909 905.353 140.51 z"/>
<path transform="translate(0,0)" fill="rgb(4,8,21)" d="M 1285.03 132.179 L 1284.28 136.64 L 1283.04 137.12 C 1282.7 136.261 1282.38 135.394 1282.09 134.519 C 1281.14 131.646 1280.81 128.908 1282.15 126.241 L 1284.9 130.867 L 1285.03 132.179 z"/>
<path transform="translate(0,0)" fill="rgb(4,8,21)" d="M 251.799 90.5786 C 254.542 94.4538 253.806 97.4972 252.404 101.622 C 249.155 98.5748 250.06 94.0909 251.799 90.5786 z"/>
</svg>