<!-- RECRAFT VECTORIZE from logo/options-w3/mock/T4-liberation-tracked-navbar-light.png -->
<svg version="1.1" xmlns="http://www.w3.org/2000/svg" style="display: block;" viewBox="0 0 4096 256" width="4096" height="256" preserveAspectRatio="none">
<path transform="translate(0,0)" fill="rgb(255,255,255)" d="M 0 0 L 4096 0 L 4096 256 L 0 256 L 0 0 z"/>
<path transform="translate(0,0)" fill="rgb(66,55,201)" d="M 3680.91 61.8566 C 3683.63 59.9241 3849.92 60.7553 3867.05 60.7594 L 3927.21 60.7519 C 3936.24 60.752 3952.4 60.2989 3960.99 61.3772 C 3962.48 63.0933 3979.07 74.2388 3980.27 77.7383 C 3984.31 89.5547 3985.06 103.886 3984.07 117.032 C 3982.05 143.711 3993.12 170.993 3966.07 187.995 C 3963.13 189.842 3963.04 188.614 3960.83 191.422 C 3945.93 193.156 3682.86 191.805 3681.03 191.015 C 3679.43 188.788 3677.09 189.53 3675.83 188.29 C 3671.05 183.608 3661.65 177.32 3660.63 170.622 C 3660.41 169.228 3659.6 168.951 3658.42 167.918 C 3657.17 161.228 3656.94 88.3365 3658.9 84.9382 C 3661.5 82.946 3660.06 80.4807 3661.74 78.2938 C 3665.57 73.3024 3670.52 68.6285 3675.41 64.7077 C 3676.45 63.8735 3677.51 64.5511 3680.91 61.8566 z"/>
<path transform="translate(0,0)" fill="rgb(53,40,197)" d="M 3680.91 61.8566 C 3683.63 59.9241 3849.92 60.7553 3867.05 60.7594 L 3927.21 60.7519 C 3936.24 60.752 3952.4 60.2989 3960.99 61.3772 L 3959.96 64.4426 C 3959.67 64.5852 3701.96 66.3098 3683.07 64.8609 C 3681.01 63.5169 3681.48 64.2155 3680.91 61.8566 z"/>
<path transform="translate(0,0)" fill="rgb(53,40,197)" d="M 3681.03 191.015 L 3681.65 188.136 C 3683.72 187.061 3726.88 187.682 3732.41 187.685 L 3907.09 187.702 C 3914.19 187.702 3957.67 186.556 3960.17 188.942 L 3960.83 191.422 C 3945.93 193.156 3682.86 191.805 3681.03 191.015 z"/>
<path transform="translate(0,0)" fill="rgb(53,40,197)" d="M 3658.42 167.918 C 3657.17 161.228 3656.94 88.3365 3658.9 84.9382 L 3661.32 86.3111 C 3662.64 92.6078 3662.6 163.644 3660.48 167.005 L 3658.42 167.918 z"/>
<path transform="translate(0,0)" fill="rgb(255,255,255)" d="M 3903.58 133.853 C 3901.22 136.411 3898.74 138.432 3895.2 138.559 C 3872.56 139.366 3886.91 98.5875 3902.31 119.019 C 3903.75 120.931 3903.48 122.204 3905.94 123.139 C 3908.25 114.093 3911.13 114.264 3919.8 114.876 C 3923.64 111.559 3919.81 108.54 3923.91 104.433 L 3925.85 105.111 L 3926.89 107.479 C 3927.55 113.426 3928.18 131.832 3927.09 137.483 C 3926.21 137.995 3913.32 139.641 3911.46 139.484 C 3908.22 137.683 3905.32 134.064 3903.58 133.853 z"/>
<path transform="translate(0,0)" fill="rgb(53,40,197)" d="M 3905.72 127.419 C 3907.05 134.01 3909.13 139.574 3917 137.742 C 3919.84 137.081 3922.91 138.566 3925.84 136.275 C 3926.92 132.055 3926.02 114.62 3926.89 107.479 C 3927.55 113.426 3928.18 131.832 3927.09 137.483 C 3926.21 137.995 3913.32 139.641 3911.46 139.484 C 3908.22 137.683 3905.32 134.064 3903.58 133.853 C 3900.1 129.588 3897.29 136.067 3891.47 133.96 C 3888.85 131.681 3889.36 132.69 3888.54 129.654 C 3890.42 128.061 3901.79 127.81 3905.72 127.419 z"/>
<path transform="translate(0,0)" fill="rgb(53,40,197)" d="M 3914.8 117.382 C 3924.68 120.759 3921.77 128.607 3917.85 135.404 C 3915.15 134.594 3914.65 134.298 3912.4 132.614 C 3908.86 126.71 3909.89 122.008 3914.8 117.382 z"/>
<path transform="translate(0,0)" fill="rgb(255,255,255)" d="M 3727.74 120.386 C 3730.88 120.496 3737.09 120.149 3739.31 122.62 C 3742.52 126.194 3742.08 130.149 3738.73 133.543 C 3735.36 136.911 3730.79 138.807 3726.02 138.817 C 3716.72 138.81 3710.43 129.953 3710.48 121.276 C 3710.5 116.443 3712.46 111.821 3715.93 108.45 C 3723.99 100.585 3738.68 102.885 3738.45 113.236 L 3735.84 115.034 C 3739.05 118.438 3743.61 115.615 3745.08 119.498 C 3743.74 123.968 3743.12 125.543 3743.77 130.139 L 3742.97 129.83 C 3742.75 126.394 3742.65 122.953 3742.64 119.51 C 3738.32 119.502 3731.69 119.178 3727.74 120.386 z"/>
<path transform="translate(0,0)" fill="rgb(53,40,197)" d="M 3727.74 120.386 L 3727.29 122.585 C 3729.51 126.335 3734.71 124.117 3736.65 129.036 C 3734.66 132.078 3727.78 135.64 3724.48 134.708 C 3708.31 130.137 3719.3 91.6533 3735.84 115.034 C 3739.05 118.438 3743.61 115.615 3745.08 119.498 C 3743.74 123.968 3743.12 125.543 3743.77 130.139 L 3742.97 129.83 C 3742.75 126.394 3742.65 122.953 3742.64 119.51 C 3738.32 119.502 3731.69 119.178 3727.74 120.386 z"/>
<path transform="translate(0,0)" fill="rgb(255,255,255)" d="M 3853.33 136.105 C 3848.58 141.871 3847.05 136.177 3844.6 136.402 C 3840.64 136.764 3837.23 141.158 3831.15 137.762 C 3822.52 123.75 3840.11 126.406 3843.83 121.528 C 3842.08 118.872 3842.94 119.615 3839.87 118.386 C 3836.57 119.309 3835.15 119.93 3832.07 121.379 L 3830.57 120.49 L 3830.55 118.243 C 3832.24 116.163 3834.44 114.808 3837.09 114.485 C 3852.19 112.645 3848.72 125.276 3850.25 134.009 L 3853.33 136.105 z"/>
<path transform="translate(0,0)" fill="rgb(255,255,255)" d="M 3752.61 114.109 C 3759.47 113.828 3767.1 116.507 3767.65 124.419 C 3764.27 130.346 3754.92 126.882 3751.08 130.207 C 3752.25 132.916 3751.73 132.055 3754.53 133.939 C 3757.53 134.715 3759.88 133.677 3762.81 132.744 C 3763.79 131.974 3763.52 132.206 3765.05 132.268 L 3765.29 133.762 C 3757.52 147.888 3733.59 129.982 3752.61 114.109 z"/>
<path transform="translate(0,0)" fill="rgb(255,255,255)" d="M 3798.48 114.079 C 3804.55 113.832 3808.27 113.365 3812.05 119.071 L 3810.99 120.015 C 3807.18 119.797 3803.38 119.489 3799.58 119.091 L 3798.79 120.455 C 3803.58 126.244 3812.31 124.346 3813.17 132.219 C 3811.61 135.519 3810.54 136.239 3807.75 138.519 C 3802.58 138.699 3795.64 139.383 3793.92 133.016 C 3796.08 131.847 3803.36 133.479 3807.63 133.384 L 3808.31 132.093 C 3805.68 126.108 3796.58 128.548 3793.96 121.305 C 3794.53 117.792 3796.03 116.609 3798.48 114.079 z"/>
<path transform="translate(0,0)" fill="rgb(255,255,255)" d="M 3819.29 107.61 C 3820.95 108.504 3825.69 114.716 3823.95 117.848 C 3818.72 127.257 3822.75 131.918 3827.5 137.945 C 3822.71 138.314 3823.51 138.937 3819.7 136.918 C 3814.63 130.103 3814.86 114.947 3819.29 107.61 z"/>
<path transform="translate(0,0)" fill="rgb(255,255,255)" d="M 3871.56 114.289 C 3872.56 110.393 3871.88 110.883 3874.55 108.153 C 3876.9 110.884 3874.88 112.17 3877.51 113.611 C 3878.51 114.154 3879.38 114.87 3880.24 115.607 C 3877.73 123.29 3874.41 120.834 3876.11 132.493 L 3880.7 135.99 L 3880.4 137.513 C 3877.39 138.774 3878.49 138.728 3875.48 137.997 C 3868.38 130.914 3875.44 123.264 3867.82 115.059 L 3871.56 114.289 z"/>
<path transform="translate(0,0)" fill="rgb(255,255,255)" d="M 3774.37 107.678 L 3776.11 108.976 C 3776.71 115.544 3784.12 111.864 3776.63 123.514 C 3774.39 127.007 3779.44 133.644 3782.51 137.357 C 3780.02 138.337 3779.11 138.219 3776.43 138.098 C 3768.25 133.158 3776.13 124.751 3770.42 117.102 C 3770.57 114.739 3772.96 111.68 3774.37 107.678 z"/>
<path transform="translate(0,0)" fill="rgb(255,255,255)" d="M 3860.16 115.832 C 3863.03 114.472 3863.69 114.399 3866.84 114.712 C 3864.82 119.728 3857.27 122.32 3859.15 133.293 C 3859.38 134.642 3859.26 136.561 3858.23 137.535 C 3855.27 133.249 3853.29 118.319 3857.45 114.901 L 3860.16 115.832 z"/>
<path transform="translate(0,0)" fill="rgb(53,40,197)" d="M 3860.16 115.832 C 3859 110.749 3857.95 114.47 3855.53 111.182 C 3859.56 109.949 3866.41 108.383 3870.39 110.319 L 3871.56 114.289 L 3867.82 115.059 L 3866.84 114.712 C 3863.69 114.399 3863.03 114.472 3860.16 115.832 z"/>
<path transform="translate(0,0)" fill="rgb(53,40,197)" d="M 3909.05 140.427 C 3913.36 139.87 3922.05 139.76 3926.25 140.659 L 3927.48 142.597 C 3921.98 142.464 3912.22 144.724 3909.05 140.427 z"/>
<path transform="translate(0,0)" fill="rgb(53,40,197)" d="M 3850.25 134.009 C 3852.5 126.737 3851.03 123.326 3853.16 116.95 C 3854.13 121.701 3854.17 131.346 3853.33 136.105 L 3850.25 134.009 z"/>
<path transform="translate(0,0)" fill="rgb(53,40,197)" d="M 3718.31 140.525 C 3723.37 139.802 3732.05 138.699 3735.61 142.439 C 3732.76 142.626 3729.91 142.772 3727.05 142.878 C 3722.94 142.998 3721.04 143.088 3718.31 140.525 z"/>
<path transform="translate(0,0)" fill="rgb(53,40,197)" d="M 3795.57 140.462 C 3800.27 140.09 3807.87 138.366 3810.52 142.496 C 3806.04 142.788 3798.02 144.311 3795.57 140.462 z"/>
<path transform="translate(0,0)" fill="rgb(53,40,197)" d="M 3768.67 118.445 L 3770.62 120.166 C 3771.09 123.41 3771.47 131.438 3769.56 134.085 L 3768.92 133.469 C 3768.44 129.363 3768.55 122.687 3768.67 118.445 z"/>
<path transform="translate(0,0)" fill="rgb(53,40,197)" d="M 3750.18 140.428 C 3754.71 140.005 3760.98 138.452 3763.53 142.518 C 3758.89 142.899 3753.13 144.234 3750.18 140.428 z"/>
<path transform="translate(0,0)" fill="rgb(53,40,197)" d="M 3749.39 110.529 C 3753.76 109.965 3760.5 108.862 3764.19 111.681 C 3759.55 113.308 3753.3 113.707 3749.39 110.529 z"/>
<path transform="translate(0,0)" fill="rgb(53,40,197)" d="M 3887.56 140.452 C 3890.9 140.112 3897.12 139.474 3900.04 140.724 L 3900.44 142.477 C 3895.65 142.901 3893.43 143.222 3888.73 142.302 L 3887.56 140.452 z"/>
<path transform="translate(0,0)" fill="rgb(53,40,197)" d="M 3830.83 140.419 C 3835.22 139.956 3840.04 138.527 3842.53 142.517 C 3837.74 142.95 3834.23 144.055 3830.83 140.419 z"/>
<path transform="translate(0,0)" fill="rgb(53,40,197)" d="M 3817.82 140.441 C 3821.18 139.982 3823.02 139.543 3826.31 140.512 L 3827.1 142.603 C 3823.8 142.913 3821.98 143.245 3818.75 142.319 L 3817.82 140.441 z"/>
<path transform="translate(0,0)" fill="rgb(1,2,11)" d="M 189.911 107.273 C 197.708 107.209 193.364 107.552 200.403 110.061 C 202.986 110.159 208.417 106.167 210.789 106.286 C 229.171 107.208 229.274 134.038 219.799 144.654 C 216.132 148.763 212.641 148.567 207.626 148.766 L 198.602 142.87 C 198.951 149.003 201.322 162.353 194.773 165.05 C 192.016 164.268 191.615 163.871 189.788 161.65 C 188.831 155.331 188.352 112.084 189.911 107.273 z"/>
<path transform="translate(0,0)" fill="rgb(255,255,255)" d="M 202.971 114.39 C 218.723 113.907 218.003 133.006 210.001 141.698 C 194.846 140.907 197.642 123.893 202.971 114.39 z"/>
<path transform="translate(0,0)" fill="rgb(1,2,11)" d="M 272.544 107.157 C 301.83 103.803 306.593 135.54 285.474 147.975 C 280.907 148.421 275.001 149.178 270.748 147.028 C 254.302 138.716 254.34 113.476 272.544 107.157 z"/>
<path transform="translate(0,0)" fill="rgb(255,255,255)" d="M 274.602 113.678 C 291.819 113.112 290.782 131.655 281.835 141.609 C 265.712 142.983 267.127 123.502 274.602 113.678 z"/>
<path transform="translate(0,0)" fill="rgb(1,2,11)" d="M 137.236 94.5913 C 149.194 95.4163 163.096 93.5131 174.552 95.7424 C 175.247 95.8778 175.816 97.5177 176.23 98.3658 C 174.369 106.82 154.35 103.629 147.006 103.446 C 146.944 107.704 146.89 110.324 147.493 114.529 C 152.19 121.293 167.332 114.037 172.927 118.024 C 174.387 121.203 174.217 119.9 173.547 123.398 C 169.564 126.685 154.94 125.056 149.157 125.057 C 146.101 126.669 146.957 136.151 146.959 139.447 C 154.833 139.487 170.224 137.575 176.407 141.086 C 178.138 143.724 177.932 142.674 177.476 145.666 C 173.141 149.193 145.165 147.91 136.966 148.161 C 137.125 130.348 136.753 112.383 137.236 94.5913 z"/>
<path transform="translate(0,0)" fill="rgb(1,2,11)" d="M 305.216 107.355 C 306.976 107.256 312.294 107.077 312.931 108.247 C 316.024 113.928 315.914 129.468 320.599 133.555 C 324.55 128.481 323.9 110.857 329.139 107.491 C 341.65 103.828 340.414 124.759 345.193 132.996 C 348.239 131.037 348.221 114.664 355.96 106.132 L 359.021 107.199 C 360.547 111.951 358.818 116.908 357.622 121.747 C 354.681 130.878 354.862 148.659 343.971 148.571 C 335.774 144.831 338.86 126.027 333.123 119.261 C 326.51 121.158 329.674 140.186 325.136 145.25 C 321.772 149.004 317.837 149.005 314.092 145.949 C 312.749 141.412 304.347 110.072 305.216 107.355 z"/>
<path transform="translate(0,0)" fill="rgb(162,175,193)" d="M 1482.02 104.242 C 1486.97 103.983 1492.8 104.1 1497.83 104.072 C 1499.37 104.981 1501.09 106.042 1502.49 107.152 C 1506.05 110.018 1508.34 114.177 1508.84 118.721 C 1509.48 124.43 1507.62 129.7 1504.08 134.12 C 1496.26 140.193 1491.55 138.738 1481.49 138.254 C 1481.46 129.983 1480.93 111.692 1482.02 104.242 z"/>
<path transform="translate(0,0)" fill="rgb(255,255,255)" d="M 1486.93 108.223 C 1488.35 108.17 1489.77 108.145 1491.19 108.149 C 1505.75 108.248 1507.89 124.013 1497.79 133.639 C 1481.84 136.172 1486.62 126.091 1486.19 114.535 C 1486.11 112.59 1486.48 110.106 1486.93 108.223 z"/>
<path transform="translate(0,0)" fill="rgb(162,175,193)" d="M 1290.92 114.267 C 1293.82 113.957 1300.9 114.144 1303.55 115.348 C 1307.67 119.521 1305.62 132.867 1305.9 140.93 C 1305.37 141.745 1304.84 142.549 1304.28 143.341 C 1298.97 150.912 1293.26 150.019 1286.65 145.109 L 1286.56 142.57 C 1289.82 140.422 1292.04 144.455 1298.28 143.864 C 1300.58 141.661 1299.96 142.622 1300.39 138.92 C 1299.08 137.575 1298.96 137.818 1296.95 138.154 C 1281.77 140.7 1281.53 121.83 1290.92 114.267 z"/>
<path transform="translate(0,0)" fill="rgb(255,255,255)" d="M 1291.52 118.389 C 1303.11 117.892 1301.2 127.375 1297.66 134.549 L 1292.99 133.795 C 1287.53 130.193 1289.73 123.495 1291.52 118.389 z"/>
<path transform="translate(0,0)" fill="rgb(162,175,193)" d="M 646.092 103.574 C 647.017 103.997 648.581 104.482 648.834 105.242 C 650.656 110.719 650.514 132.267 648.834 136.958 C 644.748 138.082 639.12 138.357 634.852 138.515 C 633.014 137.071 631.238 135.591 630.325 133.37 C 628.78 129.612 628.015 123.313 629.663 119.503 C 633.397 110.864 638.816 116.912 644.151 114.641 C 644.185 114.627 645.453 105.22 646.092 103.574 z"/>
<path transform="translate(0,0)" fill="rgb(255,255,255)" d="M 637.611 117.24 C 647.855 119.646 645.062 128.372 641.604 135.064 C 630.79 133.232 631.669 123.83 637.611 117.24 z"/>
<path transform="translate(0,0)" fill="rgb(162,175,193)" d="M 1174.78 104.209 C 1183.16 103.781 1198.93 102.263 1198.83 114.765 C 1194.86 122.629 1186.84 121.937 1179.37 121.761 C 1178.24 128.902 1181.19 128.261 1177.32 137.865 L 1175.96 138.172 C 1173.72 131.61 1173.83 111.326 1174.78 104.209 z"/>
<path transform="translate(0,0)" fill="rgb(255,255,255)" d="M 1179.91 108.302 C 1184 108.193 1189.35 107.435 1192.41 109.818 C 1193.91 113.605 1193.42 112.806 1192.73 117.224 C 1190.79 117.353 1188.84 117.456 1186.9 117.533 C 1182.91 117.673 1181.92 117.623 1179.25 115.135 C 1178.82 112.054 1179.09 111.199 1179.91 108.302 z"/>
<path transform="translate(0,0)" fill="rgb(162,175,193)" d="M 560.277 104.279 C 568.81 103.766 580.804 102.19 584.841 112.089 C 584.15 121.929 573.638 121.96 566.159 121.766 C 562.585 125.902 567.269 131.875 563.744 137.71 L 561.53 137.899 L 560.024 136.48 C 559.498 130.399 559.743 110.346 560.277 104.279 z"/>
<path transform="translate(0,0)" fill="rgb(255,255,255)" d="M 565.493 108.25 C 569.451 108.174 575.258 107.415 578.107 109.882 C 579.462 113.522 578.925 113.121 578.223 117.29 C 573.348 117.566 568.528 118.679 564.888 115.124 C 564.424 112.044 564.706 111.16 565.493 108.25 z"/>
<path transform="translate(0,0)" fill="rgb(162,175,193)" d="M 867.708 104.225 C 876.083 103.808 888.01 102.344 891.987 112.059 C 891.352 121.881 880.631 121.939 873.18 121.739 C 870.459 126.442 874.345 133.189 869.766 138.322 C 865.503 136.595 866.832 109.213 867.708 104.225 z"/>
<path transform="translate(0,0)" fill="rgb(255,255,255)" d="M 872.584 108.242 C 877.715 108.054 881.622 107.214 885.554 110.133 C 886.803 112.912 886.127 114.471 885.323 117.341 C 879.803 117.62 876.444 118.526 872.223 115.501 C 871.386 112.547 871.883 111.148 872.584 108.242 z"/>
<path transform="translate(0,0)" fill="rgb(162,175,193)" d="M 656.562 113.492 C 663.55 116.451 657.496 127.675 661.157 132.944 C 663.651 134.374 664.161 134.48 667.016 134.143 C 673.127 129.122 667.775 120.467 671.928 114.748 L 673.738 115.07 C 675.212 117.581 675.667 120.975 676.238 123.869 C 677.46 123.412 680.038 117.77 681.387 115.661 C 686.189 112.259 694.036 113.863 695.334 120.369 C 692.953 120.331 688.992 119.297 686.548 118.748 C 683.019 119.851 684.038 119.439 681.539 122.496 C 681.565 127.191 681.195 129.26 684.346 132.508 C 688.296 133.98 691.321 133.383 695.515 132.968 L 695.273 134.199 C 687.811 141.917 679.638 139.522 677.309 128.465 L 676.536 128.451 C 675.578 131.575 674.592 134.69 673.578 137.797 C 662.456 138.621 652.886 137.555 654.8 122.78 C 655.262 119.215 654.841 117.052 656.562 113.492 z"/>
<path transform="translate(0,0)" fill="rgb(162,175,193)" d="M 961.867 114.209 C 978.98 113.085 981.874 128.208 970.342 138.436 C 953.46 139.436 950.365 124.207 961.867 114.209 z"/>
<path transform="translate(0,0)" fill="rgb(255,255,255)" d="M 964.612 117.364 C 975.463 119.895 973.464 128.972 967.556 135.44 C 957.618 132.422 957.782 123.551 964.612 117.364 z"/>
<path transform="translate(0,0)" fill="rgb(162,175,193)" d="M 609.812 114.213 C 627.029 113.1 629.677 128.295 618.287 138.49 C 601.552 139.469 598.468 124.293 609.812 114.213 z"/>
<path transform="translate(0,0)" fill="rgb(255,255,255)" d="M 611.587 117.722 C 613.925 117.911 615.64 118.15 617.533 119.643 C 619.072 120.87 620.058 122.66 620.271 124.617 C 620.754 129.087 618.815 131.699 616.226 134.989 C 613.523 134.554 612.97 134.29 610.554 132.99 C 606.077 127.649 607.654 122.753 611.587 117.722 z"/>
<path transform="translate(0,0)" fill="rgb(162,175,193)" d="M 1518.65 114.178 C 1535.79 113.16 1538.84 128.491 1526.73 138.602 C 1525.69 138.645 1524.64 138.648 1523.6 138.612 C 1509.59 138.077 1508.8 123.035 1518.65 114.178 z"/>
<path transform="translate(0,0)" fill="rgb(255,255,255)" d="M 1520.58 117.638 C 1522.57 117.88 1524.46 118.193 1526.09 119.434 C 1527.77 120.699 1528.86 122.601 1529.09 124.691 C 1529.56 128.95 1527.65 131.735 1525.17 134.892 C 1522.21 134.529 1521.66 134.371 1519.14 132.797 C 1514.92 127.293 1516.5 122.589 1520.58 117.638 z"/>
<path transform="translate(0,0)" fill="rgb(162,175,193)" d="M 1001.22 114.384 C 1005.46 113.77 1005.84 113.59 1009.6 115.631 C 1013.27 117.627 1017.77 114.85 1022.18 114.333 C 1028.89 117.553 1028.68 135.786 1024.26 138.253 C 1021.45 134.902 1023.34 123.422 1019.47 118.648 C 1016.57 118.016 1017.61 117.876 1014.91 119.466 C 1013.26 122.967 1013.19 123.885 1013.06 127.75 C 1013.29 131.815 1014.4 136.529 1010.12 138.291 C 1005.09 133.839 1010.03 126.534 1007.57 120.068 C 1004.71 117.836 1005.85 118.159 1002.57 117.963 C 998.145 120.747 1000.5 133.189 997.625 138.146 L 996.104 138.024 C 994.01 135.698 993.923 117.681 995.441 114.746 C 997.561 114.361 997.434 114.846 999.818 116.197 L 1001.22 114.384 z"/>
<path transform="translate(0,0)" fill="rgb(1,2,11)" d="M 238.027 107.303 L 238.642 107.272 C 242.558 107.093 244.17 106.758 246.726 109.089 C 247.534 115.437 247.699 142.643 246.429 148.447 C 243.17 148.215 240.205 148.533 237.779 146.27 C 237.064 141.276 236.756 111.648 238.027 107.303 z"/>
<path transform="translate(0,0)" fill="rgb(162,175,193)" d="M 948.421 103.588 C 950.839 103.802 951.619 103.773 953.429 105.36 C 952.934 109.884 949.674 107.002 949.008 112.453 C 950.629 113.647 951.685 114.284 953.441 115.267 L 953.02 117.423 C 943.047 122.272 954.314 133.283 946.499 137.983 L 944.834 137.308 C 941.888 130.68 947.296 121.738 941.534 117.866 C 937.658 117.957 939.041 117.542 935.762 119.474 L 935.492 121.75 C 935.441 122.997 935.175 128.916 935.389 129.547 C 937.348 135.35 939.489 133.212 938.542 138.969 L 937.416 139.399 C 928.708 135.142 928.13 117.842 931.677 109.653 C 934.964 107.8 934.382 113.778 941.438 114.543 C 943.568 113.07 945.063 107.749 948.421 103.588 z"/>
<path transform="translate(0,0)" fill="rgb(162,175,193)" d="M 910.481 114.264 C 913.903 114.002 916.548 113.669 919.74 115.406 C 923.864 117.65 927.787 135.157 925.735 138.242 L 923.726 138.549 L 920.111 135.525 C 916.379 135.519 916.995 137.643 910.485 139.133 C 907.429 138.151 905.442 135.949 903.875 133.273 C 904.406 124.575 915.98 125.824 918.43 120.394 L 917.21 119.069 L 906.24 120.285 L 905.18 119.408 C 905.961 117.783 908.971 115.534 910.481 114.264 z"/>
<path transform="translate(0,0)" fill="rgb(162,175,193)" d="M 1564.59 114.132 C 1568.28 113.915 1569.7 113.962 1573.37 114.432 C 1575.74 115.974 1577.39 116.835 1578.83 119.335 C 1576.84 120.366 1569.19 119.273 1566 119.121 L 1565.23 120.18 C 1567.32 123.327 1574.05 125.396 1578.33 128.376 C 1579.97 131.361 1579.84 130.216 1579.34 133.318 C 1577.31 136.123 1576.52 136.659 1573.76 138.603 C 1572.51 138.658 1571.25 138.677 1570 138.661 C 1566.55 138.598 1563.04 137.858 1560.57 135.29 C 1560.4 132.607 1560.1 133.474 1561.83 131.478 C 1564.44 132.136 1565.7 132.963 1567.97 134.282 C 1570.45 134.097 1572.37 134.189 1574.21 132.458 C 1573.02 125.365 1562.77 129.419 1560.38 121.302 C 1560.92 117.93 1562.36 116.656 1564.59 114.132 z"/>
<path transform="translate(0,0)" fill="rgb(162,175,193)" d="M 1269.84 114.394 C 1271.22 114.107 1273.24 114.436 1274.7 114.591 C 1281.81 118.849 1282.37 135.184 1277.65 137.702 C 1272.84 132.758 1280.24 122.313 1269.06 117.115 C 1261.09 125.925 1266.92 132.883 1263.31 138.148 C 1260.23 134.569 1257.88 118.452 1261.87 114.914 C 1263.55 115.368 1265.21 115.854 1266.87 116.369 L 1269.84 114.394 z"/>
<path transform="translate(0,0)" fill="rgb(162,175,193)" d="M 1233.87 114.067 C 1239.67 113.832 1242.44 113.848 1245.17 119.181 L 1244.25 120.281 C 1241.98 119.642 1240.69 119.231 1238.53 118.291 C 1229.8 120.058 1230.03 129.171 1235.93 133.867 C 1238.97 134.521 1239.92 133.878 1242.59 132.471 C 1243.95 131.352 1243.32 131.596 1245.31 131.705 L 1245.67 133.765 C 1238.1 147.877 1215.98 129.947 1233.87 114.067 z"/>
<path transform="translate(0,0)" fill="rgb(162,175,193)" d="M 1544.36 114.163 C 1549.49 113.933 1555.09 114.053 1556.25 120.217 C 1553.5 121.144 1550.2 118.529 1545.46 118.867 C 1540.32 123.154 1541.26 130.442 1546.89 133.965 C 1549.97 134.447 1551.12 133.487 1553.7 131.875 L 1555.71 131.703 L 1556.32 133.346 C 1548.38 148.758 1526.32 129.137 1544.36 114.163 z"/>
<path transform="translate(0,0)" fill="rgb(162,175,193)" d="M 702.369 107.656 C 702.592 107.801 702.816 107.945 703.039 108.09 C 716.141 120.516 694.774 123.97 710.821 136.765 C 708.113 138.427 706.45 138.708 703.419 137.869 C 697.424 133.011 703.63 122.317 698.802 117.079 C 698.159 116.383 701.621 109.792 702.369 107.656 z"/>
<path transform="translate(0,0)" fill="rgb(162,175,193)" d="M 897.02 103.637 C 898.004 104.268 899.442 105.057 899.572 106.306 C 900.216 112.475 900.994 134.323 898.611 139.289 C 897.525 138.532 896.053 137.281 895.901 135.988 C 895.216 130.169 894.462 108.127 897.02 103.637 z"/>
<path transform="translate(0,0)" fill="rgb(162,175,193)" d="M 597.317 114.873 L 598.001 114.641 L 599.434 115.361 C 598.347 119.761 595.219 117.27 593.692 120.591 C 592.063 124.132 593.725 132.367 592.46 135.953 L 592.254 136.532 C 591.785 137.827 590.442 138.042 588.868 138.78 C 588.088 134.913 588.333 119.617 589.122 115.652 L 590.435 114.88 L 594.271 116.348 L 597.317 114.873 z"/>
<path transform="translate(0,0)" fill="rgb(162,175,193)" d="M 1211.6 114.375 L 1213.19 114.877 L 1213.78 116.402 C 1210.8 118.456 1210.09 119.152 1207.73 121.888 C 1204.93 129.147 1210.44 132.471 1204.45 139.383 C 1201.94 135.347 1202.47 120.908 1203.35 116.066 C 1206.15 113.868 1205.91 117.52 1211.6 114.375 z"/>
<path transform="translate(0,0)" fill="rgb(162,175,193)" d="M 991.102 114.581 C 992.105 114.982 992.069 115.313 992.759 116.355 C 979.049 126.351 991.881 130.52 983.449 139.303 C 981.11 135.137 981.78 121.562 982.433 116.561 C 984.402 113.929 985.665 117.094 991.102 114.581 z"/>
<path transform="translate(0,0)" fill="rgb(162,175,193)" d="M 1252.11 113.824 C 1257.19 115.656 1255.28 134.184 1254.46 138.821 L 1252.33 137.851 C 1249.46 134.919 1250.25 117.707 1252.11 113.824 z"/>
<path transform="translate(0,0)" fill="rgb(162,175,193)" d="M 1220.19 113.716 C 1221.14 114.13 1222 115.261 1222.71 116.06 C 1223.52 121.806 1223.46 133.128 1222.43 138.821 C 1221.24 138.265 1219.44 137.621 1219.18 136.152 C 1218.26 130.727 1217.87 118.413 1220.19 113.716 z"/>
</svg>