<!-- RECRAFT VECTORIZE from logo/options-w3/C1-heavy-light.png -->
<svg version="1.1" xmlns="http://www.w3.org/2000/svg" style="display: block;" viewBox="0 0 2048 753" width="696" height="256" preserveAspectRatio="none">
<path transform="translate(0,0)" fill="rgb(255,255,255)" d="M 0 0 L 2048 0 L 2048 753 L 0 753 L 0 0 z"/>
<path transform="translate(0,0)" fill="rgb(12,17,32)" d="M 152.628 68.5445 C 193.335 67.2965 240.164 68.4225 281.271 68.4187 L 487.046 68.5946 L 487.015 174.992 C 409.107 175.938 329.253 175.032 251.183 175.039 L 251.181 209.161 L 419.661 209.013 C 420.642 240.15 419.801 276.523 419.709 308.017 L 279.5 308.016 L 251.239 308.041 C 250.982 319.218 251.202 331.192 251.208 342.433 C 278.106 341.752 306.981 342.257 333.997 342.255 L 487.01 342.34 L 487.046 448.458 C 474.517 448.831 461.236 448.673 448.679 448.548 C 349.931 447.565 250.699 449.943 151.999 448.356 L 152.132 178.841 L 151.99 106.819 C 151.965 98.1532 151.457 76.0034 152.628 68.5445 z"/>
<path transform="translate(0,0)" fill="rgb(12,17,32)" d="M 540.283 175.071 L 639.043 175.136 L 638.901 204.298 C 667.677 183.391 697.56 172.965 733.46 175.42 C 769.796 177.807 803.648 194.694 827.41 222.287 C 851.049 249.476 862.924 284.94 860.424 320.881 C 858.084 357.641 840.93 391.879 812.887 415.76 C 782.865 441.757 748.605 450.43 709.764 447.72 C 682.017 444.84 660.961 435.626 638.893 419.146 L 638.87 601.005 L 540.298 600.914 C 539.453 553.317 540.233 503.296 540.23 455.539 L 540.283 175.071 z"/>
<path transform="translate(0,0)" fill="rgb(255,255,255)" d="M 719.707 250.387 C 753.403 248.028 782.711 273.25 785.4 306.922 C 788.089 340.593 763.154 370.147 729.51 373.164 C 695.399 376.224 665.343 350.866 662.617 316.726 C 659.891 282.586 685.542 252.78 719.707 250.387 z"/>
<path transform="translate(0,0)" fill="rgb(12,17,32)" d="M 1804.82 175.04 L 1848.5 175.099 L 1894.58 175.139 C 1881.43 198.131 1866.94 230.697 1854.48 254.873 C 1821.6 318.685 1790.81 384.854 1757.64 448.47 C 1723.09 448.764 1685.48 448.951 1651.11 448.25 C 1654.3 434.39 1657.45 409.636 1659.83 394.673 L 1677.22 285.007 C 1664.12 308.357 1648.57 343.299 1636.4 368.11 C 1625.13 391.092 1607.35 425.311 1597.93 448.282 C 1586.83 448.972 1571.37 448.523 1560.02 448.521 L 1490.66 448.409 L 1422.96 175.121 L 1537 175.165 C 1538.54 235.592 1543.89 296.84 1546.09 357.336 C 1546.99 382.285 1548.32 409.141 1550.63 433.917 C 1569.44 348.448 1595.94 260.913 1615.71 175.154 C 1652.84 174.354 1692.83 175.102 1730.17 175.181 C 1732.2 223.736 1733.81 272.308 1735 320.891 C 1736.17 356.994 1738.32 397.32 1738.11 433.172 C 1746.46 408.983 1755.73 367.536 1762.39 341.356 L 1804.82 175.04 z"/>
<path transform="translate(0,0)" fill="rgb(12,17,32)" d="M 1202.91 160.426 C 1286.73 152.481 1361.05 214.158 1368.69 298.005 C 1376.33 381.852 1314.39 455.948 1230.51 463.287 C 1147.07 470.588 1073.43 409.027 1065.83 325.608 C 1058.23 242.189 1119.52 168.331 1202.91 160.426 z"/>
<path transform="translate(0,0)" fill="rgb(255,255,255)" d="M 1207.73 236.389 C 1249.67 231.064 1287.9 260.958 1292.84 302.939 C 1297.78 344.92 1267.54 382.876 1225.52 387.438 C 1184.03 391.942 1146.66 362.171 1141.78 320.726 C 1136.9 279.281 1166.33 241.645 1207.73 236.389 z"/>
<path transform="translate(0,0)" fill="rgb(12,17,32)" d="M 932.778 175.234 C 954.02 174.405 976.152 175.071 997.425 175.212 C 1022.18 175.376 1017.26 203.823 1017.21 220.83 L 1017.06 277.374 L 1017.12 379.744 C 1017.13 396.797 1017.27 414.049 1017.05 431.107 C 1017.01 434.138 1015.31 438.998 1013.58 441.462 C 1010.51 445.824 1006.89 447.386 1001.88 448.341 C 987.483 448.864 943.087 449.246 929.825 447.776 C 925.999 444.991 921.411 441.773 919.767 437.126 C 916.937 429.123 917.667 218.956 918.471 196.596 C 918.604 192.875 918.593 188.18 920.273 184.785 C 922.981 179.312 927.219 177.001 932.778 175.234 z"/>
<path transform="translate(0,0)" fill="rgb(12,17,32)" d="M 959.771 71.4634 C 980.995 67.0579 1001.78 80.6513 1006.26 101.861 C 1010.73 123.071 997.208 143.904 976.013 148.448 C 954.72 153.013 933.769 139.411 929.274 118.103 C 924.778 96.7954 938.448 75.8893 959.771 71.4634 z"/>
</svg>