<!-- RECRAFT VECTORIZE from logo/options-w3/C1-heavy-dark.png -->
<svg version="1.1" xmlns="http://www.w3.org/2000/svg" style="display: block;" viewBox="0 0 2048 753" width="696" height="256" preserveAspectRatio="none">
<path transform="translate(0,0)" fill="rgb(12,17,32)" d="M 0 0 L 2048 0 L 2048 753 L 0 753 L 0 0 z"/>
<path transform="translate(0,0)" fill="rgb(251,252,252)" d="M 152.195 68.5372 C 165.967 68.1973 179.986 68.254 193.773 68.3409 C 291.484 68.9565 389.407 67.4046 487.097 68.5373 L 487.044 175.049 L 251.178 175.051 C 251.104 186.415 251.109 197.779 251.192 209.143 C 306.92 208.36 363.927 208.957 419.752 208.942 C 420.58 240.626 419.818 276.119 419.814 308.092 C 373.378 307.567 326.013 308.045 279.5 308.034 L 251.196 308.041 C 251.08 319.454 251.089 330.868 251.224 342.281 C 327.012 341.112 411.288 341.255 487.061 342.352 L 487.114 448.57 C 443.072 449.233 397.59 448.666 353.456 448.672 L 151.941 448.518 L 152.017 177.792 C 152.002 141.775 151.502 104.474 152.195 68.5372 z"/>
<path transform="translate(0,0)" fill="rgb(251,252,252)" d="M 540.08 175.1 C 572.484 174.567 606.651 174.934 639.1 175.136 L 639.092 204.392 C 664.635 183.732 698.114 173.593 730.821 175.252 C 767.36 176.9 801.685 193.23 826.015 220.54 C 850.437 247.856 862.851 283.844 860.465 320.408 C 858.318 356.597 841.816 390.433 814.62 414.405 C 783.589 441.818 749.588 450.299 709.544 447.865 C 682.29 444.69 660.815 436.019 639.07 419.23 L 638.926 601.016 L 540.184 600.945 C 539.391 553.615 540.101 503.939 540.097 456.422 L 540.08 175.1 z"/>
<path transform="translate(0,0)" fill="rgb(12,17,32)" d="M 722.052 250.329 C 755.895 249.263 784.236 275.747 785.462 309.585 C 786.688 343.422 760.337 371.888 726.506 373.273 C 692.448 374.668 663.75 348.102 662.516 314.038 C 661.282 279.974 687.983 251.402 722.052 250.329 z"/>
<path transform="translate(0,0)" fill="rgb(251,252,252)" d="M 1804.63 175.022 L 1846.5 175.042 L 1894.61 175.082 C 1880.11 200.608 1861.6 240.742 1848.07 267.828 L 1757.87 448.642 C 1722.56 448.651 1686.23 449.082 1651.01 448.275 C 1653.04 439.838 1655.32 422.096 1656.76 413.053 L 1669.65 331.944 C 1672.01 317.026 1674.46 297.809 1678.02 283.49 C 1657.57 322.087 1639.67 363.007 1619.94 402.061 C 1612.72 416.336 1603.71 433.711 1598.04 448.45 C 1564.7 449.63 1524.09 448.645 1490.37 448.449 C 1484.9 421.097 1475.56 387.595 1468.7 360.05 L 1422.87 175.098 C 1460.94 174.929 1499 174.967 1537.07 175.212 L 1544.48 324.514 C 1546.33 360.605 1547.66 399.055 1550.61 434.897 C 1554.51 410.577 1564.45 378.306 1570.35 353.879 C 1584.66 294.552 1602.13 234.508 1615.61 175.108 C 1652.61 174.318 1693.01 174.915 1730.2 175.164 C 1731.27 188.714 1731.33 206.546 1731.73 220.376 L 1734.06 289.954 C 1735.61 335.175 1738.79 389.356 1737.97 433.868 C 1747.18 404.314 1755.64 367.244 1763.5 336.534 L 1804.63 175.022 z"/>
<path transform="translate(0,0)" fill="rgb(251,252,252)" d="M 1202.01 160.454 C 1285.8 152.014 1360.5 213.247 1368.66 297.061 C 1376.83 380.875 1315.35 455.377 1231.51 463.269 C 1148.06 471.124 1073.98 409.992 1065.85 326.565 C 1057.72 243.139 1118.61 168.856 1202.01 160.454 z"/>
<path transform="translate(0,0)" fill="rgb(12,17,32)" d="M 1208.36 236.355 C 1250.18 231.395 1288.06 261.39 1292.81 303.232 C 1297.57 345.074 1267.39 382.804 1225.52 387.355 C 1183.95 391.875 1146.53 361.948 1141.81 320.394 C 1137.09 278.84 1166.83 241.28 1208.36 236.355 z"/>
<path transform="translate(0,0)" fill="rgb(251,252,252)" d="M 931.68 175.248 C 946.125 174.451 994.112 172.927 1005.39 176.924 C 1010.35 178.685 1013.71 181.924 1015.87 186.736 C 1018.52 192.629 1018.27 431.683 1015.81 437.579 C 1013.57 442.971 1009.43 446.047 1004.15 448.17 C 990.042 449.085 942.966 449.233 929.612 447.793 C 926.094 445.293 921.908 441.877 919.984 437.955 C 918.11 434.134 918.346 428.713 918.212 424.529 C 917.408 399.502 916.698 193.953 919.5 186.079 C 921.538 180.35 926.544 177.691 931.68 175.248 z"/>
<path transform="translate(0,0)" fill="rgb(251,252,252)" d="M 959.2 71.5227 C 980.463 66.7988 1001.52 80.2226 1006.22 101.492 C 1010.92 122.761 997.466 143.805 976.191 148.474 C 954.955 153.134 933.957 139.712 929.27 118.482 C 924.582 97.2526 937.976 76.2379 959.2 71.5227 z"/>
</svg>