<!-- RECRAFT VECTORIZE from logo/options-w3/C2-heavier-light.png -->
<svg version="1.1" xmlns="http://www.w3.org/2000/svg" style="display: block;" viewBox="0 0 2048 696" width="753" height="256" preserveAspectRatio="none">
<path transform="translate(0,0)" fill="rgb(255,255,255)" d="M 0 0 L 2048 0 L 2048 696 L 0 696 L 0 0 z"/>
<path transform="translate(0,0)" fill="rgb(12,17,32)" d="M 507.896 161.902 L 616.001 161.958 L 615.999 193.822 C 629.025 183.682 641.081 176.64 656.701 170.901 C 693.946 157.356 735.026 159.019 771.056 175.528 C 807.01 192.173 834.852 222.454 848.427 259.675 C 862.023 297.115 860.211 338.419 843.389 374.525 C 825.651 412.463 795.192 438.243 756.182 452.367 C 708.419 469.379 655.846 458.582 616.015 428.29 L 615.938 555.51 C 581.065 554.561 542.941 555.292 507.903 555.318 L 507.896 161.902 z"/>
<path transform="translate(0,0)" fill="rgb(255,255,255)" d="M 698.814 244.495 C 735.615 239.222 769.702 264.84 774.873 301.656 C 780.043 338.472 754.331 372.488 717.501 377.557 C 680.814 382.606 646.96 357.016 641.81 320.344 C 636.659 283.671 662.155 249.746 698.814 244.495 z"/>
<path transform="translate(0,0)" fill="rgb(12,17,32)" d="M 140.662 63.2747 C 176.151 62.518 214.281 63.2145 249.944 63.2117 L 450.067 63.3028 L 450.032 178.072 C 385.57 178.901 320.538 177.965 256.05 177.803 C 253.603 177.796 251.541 178.135 249.399 179.358 C 248.029 181.847 248.243 180.786 248.879 183.748 C 252.029 186.607 287.446 185.181 294.638 185.184 L 387.814 185.234 L 387.774 292.737 L 262.75 292.76 C 256.746 292.423 251.053 291.001 247.71 297.037 L 248.229 297.952 C 252.337 301.434 311.231 300.09 320.834 300.082 L 450.032 300.055 L 450.064 414.528 C 412.393 415.614 369.571 414.614 331.559 414.618 L 140.406 414.464 C 142.355 298.943 140.51 179.225 140.662 63.2747 z"/>
<path transform="translate(0,0)" fill="rgb(12,17,32)" d="M 1227.77 123.403 C 1318.98 113.232 1401.11 179.088 1411 270.333 C 1420.89 361.577 1354.79 443.503 1263.51 453.116 C 1172.63 462.688 1091.13 396.929 1081.29 306.078 C 1071.44 215.226 1136.95 133.53 1227.77 123.403 z"/>
<path transform="translate(0,0)" fill="rgb(255,255,255)" d="M 1242.89 205.362 C 1288.64 203.541 1327.21 239.154 1329.04 284.91 C 1330.87 330.665 1295.26 369.24 1249.5 371.073 C 1203.74 372.906 1165.16 337.29 1163.33 291.526 C 1161.5 245.762 1197.12 207.183 1242.89 205.362 z"/>
<path transform="translate(0,0)" fill="rgb(12,17,32)" d="M 1823.3 161.88 L 1842.72 161.923 L 1906.11 162.011 C 1892.87 185.579 1879.07 216.088 1866.59 240.577 C 1837.21 298.234 1809.15 356.973 1779.62 414.566 C 1743.07 414.59 1700.93 415.606 1664.84 414.218 C 1666.87 408.678 1668.86 401.777 1670.44 396.061 C 1680.87 358.323 1695.17 320.148 1704.38 282.246 C 1679.97 326.167 1655.79 370.215 1631.83 414.386 C 1620.13 415.119 1603.79 414.587 1591.61 414.587 L 1516.49 414.49 L 1470.38 161.968 L 1592.01 162.015 L 1589.56 303.631 C 1588.96 331.889 1586.82 373.248 1588.34 400.725 C 1593.18 376.446 1601.5 347.109 1607.76 322.73 C 1621.66 269.221 1635.25 215.629 1648.51 161.957 L 1770.54 161.992 L 1764.9 322.182 C 1763.9 347.383 1763.83 374.903 1761.78 399.784 C 1767.8 384.172 1777.01 342.377 1781.74 324.365 C 1795.92 270.423 1808.91 215.814 1823.3 161.88 z"/>
<path transform="translate(0,0)" fill="rgb(12,17,32)" d="M 934.748 162.193 C 956.022 161.399 993.205 161.163 1014.19 162.363 C 1018.63 165.08 1023.54 168.272 1025.89 173.105 C 1027.65 176.72 1027.64 181.265 1027.8 185.211 C 1028.77 208.21 1029.22 395.546 1026.36 402.979 C 1024.17 408.668 1019.09 411.609 1013.87 414.054 C 1003.17 415.041 987.151 414.602 976.098 414.619 C 963.03 414.638 946.273 415.099 933.519 413.859 C 926.427 409.763 921.093 404.665 920.652 395.994 C 919.989 382.929 920.23 369.806 920.229 356.719 L 920.24 284.884 L 920.271 216.494 C 920.275 203.762 919.721 186.296 921.187 174.003 C 925.806 167.01 926.966 165.433 934.748 162.193 z"/>
<path transform="translate(0,0)" fill="rgb(12,17,32)" d="M 966.278 66.3777 C 989.683 62.0192 1012.17 77.5414 1016.38 100.973 C 1020.6 124.404 1004.95 146.793 981.49 150.871 C 958.232 154.916 936.072 139.42 931.889 116.186 C 927.706 92.9514 943.069 70.6996 966.278 66.3777 z"/>
</svg>