<!-- RECRAFT VECTORIZE from logo/options-w3/C2-heavier-dark.png -->
<svg version="1.1" xmlns="http://www.w3.org/2000/svg" style="display: block;" viewBox="0 0 2048 696" width="753" height="256" preserveAspectRatio="none">
<path transform="translate(0,0)" fill="rgb(12,17,32)" d="M 0 0 L 2048 0 L 2048 696 L 0 696 L 0 0 z"/>
<path transform="translate(0,0)" fill="rgb(251,252,252)" d="M 507.879 161.924 C 543.015 161.236 580.715 161.754 615.989 161.965 L 616.04 193.605 C 627.293 183.928 645.709 174.599 659.665 169.819 C 697.289 157.014 738.447 159.585 774.186 176.971 C 809.776 194.455 836.935 225.396 849.656 262.953 C 862.362 300.648 859.604 341.843 841.987 377.508 C 823.377 414.952 792.567 440.161 753.247 453.371 C 707.695 469.501 653.732 457.41 616.09 428.348 C 615.364 470.106 615.969 513.616 615.949 555.515 L 507.879 555.359 L 507.879 161.924 z"/>
<path transform="translate(0,0)" fill="rgb(12,17,32)" d="M 698.953 244.519 C 735.83 239.311 769.896 265.124 774.86 302.035 C 779.824 338.946 753.787 372.84 716.844 377.56 C 680.244 382.236 646.733 356.494 641.815 319.926 C 636.898 283.358 662.418 249.677 698.953 244.519 z"/>
<path transform="translate(0,0)" fill="rgb(251,252,252)" d="M 140.523 63.2712 C 152.273 62.9991 164.325 63.0895 176.091 63.1623 C 267.362 63.7264 358.823 62.2934 450.075 63.3282 L 450.034 178.157 C 429.958 178.225 253.612 176.829 248.964 179.451 C 248.686 182.826 248.3 181.968 249.677 184.726 C 256.895 185.872 281.911 185.02 291.201 185.025 L 387.858 185.093 L 387.857 293.021 L 265.5 293.019 C 259.807 292.789 253.117 291.44 249.101 295.987 L 249.452 297.677 C 254.719 301.441 304.75 299.805 314.906 299.807 L 450.044 300.1 L 450.1 414.634 C 410.464 415.304 369.118 414.717 329.371 414.722 L 140.262 414.575 C 142.025 298.545 140.145 179.645 140.523 63.2712 z"/>
<path transform="translate(0,0)" fill="rgb(251,252,252)" d="M 1240.39 122.424 C 1331.84 119.245 1408.59 190.714 1411.93 282.157 C 1415.27 373.599 1343.94 450.478 1252.5 453.98 C 1160.84 457.491 1083.72 385.94 1080.38 294.269 C 1077.03 202.598 1148.71 125.612 1240.39 122.424 z"/>
<path transform="translate(0,0)" fill="rgb(12,17,32)" d="M 1243.56 205.385 C 1289.16 203.941 1327.35 239.635 1328.99 285.233 C 1330.63 330.83 1295.09 369.17 1249.5 370.999 C 1203.64 372.839 1165.02 337.047 1163.37 291.177 C 1161.73 245.307 1197.68 206.838 1243.56 205.385 z"/>
<path transform="translate(0,0)" fill="rgb(251,252,252)" d="M 1822.95 161.868 L 1842.5 161.862 L 1906.11 161.951 C 1892.83 185.461 1875.93 221.967 1863.39 247.074 L 1779.77 414.714 C 1742.67 414.718 1701.58 415.55 1664.81 414.281 L 1690.07 331.021 C 1694.46 316.513 1700.97 296.871 1704.2 282.602 C 1681.44 325.528 1653.08 371.808 1631.95 414.496 C 1593.97 415.218 1554.4 414.641 1516.3 414.589 C 1513.43 392.747 1507.01 364.097 1503.2 341.928 C 1492.91 282.053 1480.25 221.884 1470.38 161.963 C 1508.93 161.024 1553.41 161.691 1592.05 162.02 L 1589.41 314.516 C 1588.92 340.029 1586.99 376.573 1588.24 401.163 C 1593.17 375.575 1602.27 343.68 1608.82 318.108 L 1648.5 161.951 C 1686.97 160.755 1731.63 161.843 1770.69 161.961 C 1766.89 240.05 1767.14 323.028 1761.67 400.412 C 1769.51 375.691 1777.44 340.544 1784.09 314.638 L 1822.95 161.868 z"/>
<path transform="translate(0,0)" fill="rgb(251,252,252)" d="M 933.945 162.273 C 945.625 160.982 1001.39 161.644 1014.24 162.29 C 1024.78 168.728 1027.78 172.768 1027.85 185.481 C 1028.24 252.692 1027.91 319.927 1027.97 387.142 C 1027.99 401.061 1027.81 407.458 1014.48 413.942 C 1000.92 415.294 947.056 415.249 933.003 413.812 C 927 410.007 925.315 407.666 921.269 402.069 C 918.739 388.196 918.946 182.12 921.501 174.079 C 923.378 168.17 928.81 165.001 933.945 162.273 z"/>
<path transform="translate(0,0)" fill="rgb(251,252,252)" d="M 965.455 66.5025 C 988.767 61.6949 1011.55 76.7506 1016.26 100.082 C 1020.97 123.412 1005.83 146.131 982.477 150.751 C 959.26 155.346 936.697 140.303 932.01 117.104 C 927.323 93.9052 942.275 71.2829 965.455 66.5025 z"/>
</svg>