<!-- RECRAFT VECTORIZE from logo/options-w3/C3-wide-heavy-light.png -->
<svg version="1.1" xmlns="http://www.w3.org/2000/svg" style="display: block;" viewBox="0 0 2048 695" width="754" height="256" preserveAspectRatio="none">
<path transform="translate(0,0)" fill="rgb(255,255,255)" d="M 0 0 L 2048 0 L 2048 695 L 0 695 L 0 0 z"/>
<path transform="translate(0,0)" fill="rgb(12,17,32)" d="M 140.321 63.1945 C 179.164 62.3434 221.046 63.1294 260.089 63.1275 L 486.134 63.2054 L 486.083 168.895 L 238.643 169 L 238.645 189.1 C 296.476 190.281 358.894 189.21 416.946 189.102 L 416.934 287.951 L 290.5 287.919 L 238.704 288.06 L 238.694 308.257 C 266.676 309.057 297.553 308.459 325.735 308.456 L 486.096 308.41 L 486.154 413.969 L 140.177 413.926 L 140.321 63.1945 z"/>
<path transform="translate(0,0)" fill="rgb(12,17,32)" d="M 539.25 161.65 L 637.929 161.759 L 637.781 190.595 C 659.584 175.006 679.461 165.586 706.453 162.555 C 742.705 158.21 779.18 168.637 807.659 191.484 C 835.801 213.995 853.835 246.772 857.787 282.592 C 861.93 318.87 851.318 355.292 828.337 383.667 C 805.596 411.986 772.395 429.935 736.246 433.455 C 702.593 439.511 664.629 424.413 637.755 405.131 C 638.456 454.285 638.035 505.487 637.792 554.707 C 604.955 554.533 572.118 554.561 539.281 554.788 C 538.25 509.008 539.155 459.768 539.151 413.568 L 539.25 161.65 z"/>
<path transform="translate(0,0)" fill="rgb(255,255,255)" d="M 711.535 237.53 C 745.051 231.491 777.076 253.894 782.893 287.449 C 788.71 321.004 766.096 352.88 732.503 358.476 C 699.223 364.02 667.707 341.661 661.944 308.418 C 656.181 275.174 678.331 243.512 711.535 237.53 z"/>
<path transform="translate(0,0)" fill="rgb(12,17,32)" d="M 1209.93 135.407 C 1294.09 132.756 1364.46 198.836 1367.11 282.997 C 1369.75 367.157 1303.66 437.524 1219.5 440.16 C 1135.35 442.796 1065 376.719 1062.35 292.569 C 1059.71 208.419 1125.78 138.057 1209.93 135.407 z"/>
<path transform="translate(0,0)" fill="rgb(255,255,255)" d="M 1203.04 212.455 C 1244.64 205.985 1283.62 234.461 1290.1 276.065 C 1296.58 317.669 1268.12 356.653 1226.52 363.147 C 1184.9 369.643 1145.9 341.164 1139.41 299.544 C 1132.93 257.923 1161.42 218.928 1203.04 212.455 z"/>
<path transform="translate(0,0)" fill="rgb(12,17,32)" d="M 1620.04 161.664 L 1732.98 161.818 C 1735.42 209.637 1738.16 257.44 1741.2 305.224 C 1742.77 332.55 1743.96 374.995 1747.8 400.45 C 1752.26 377.293 1762.2 347.58 1768.58 324.195 C 1783.31 270.238 1800.68 215.815 1814.68 161.737 L 1851.5 161.718 L 1907.49 161.845 C 1893.76 184.927 1879.73 211.352 1866.54 234.952 L 1766.34 413.959 L 1660.62 413.942 C 1669.52 367.042 1674.91 317.875 1683.75 270.703 C 1678.45 277.291 1662 307.184 1656.74 316.35 L 1600.73 413.952 L 1494.98 413.968 L 1420.54 161.895 C 1456.57 160.867 1496.63 161.729 1532.97 161.746 C 1534.39 202.033 1540.41 254.279 1543.59 295.318 L 1548.34 357.129 C 1549.38 370.543 1550.09 386.913 1553.04 399.827 C 1558.33 374.07 1569.66 338.162 1577.04 312.331 L 1620.04 161.664 z"/>
<path transform="translate(0,0)" fill="rgb(12,17,32)" d="M 927.916 162.196 C 940.057 160.974 989.809 161.38 1002.43 162.222 C 1008.13 165.76 1010.12 168.146 1013.79 173.553 C 1015.64 189.315 1015.67 393.682 1013.51 401.758 C 1011.95 407.597 1007.43 410.489 1002.56 413.358 C 995.291 414.197 987.043 414.103 979.629 414.049 C 913.234 413.564 916.053 423.006 916.106 354.823 L 916.076 281.014 L 916.047 213.68 C 916.047 201.263 915.425 184.962 917.306 172.746 C 918.025 168.078 924.011 164.485 927.916 162.196 z"/>
<path transform="translate(0,0)" fill="rgb(12,17,32)" d="M 956.095 66.4493 C 969.82 63.1561 984.255 67.495 993.89 77.8093 C 1003.53 88.1237 1006.87 102.821 1002.65 116.29 C 998.433 129.759 987.299 139.921 973.502 142.895 C 952.51 147.419 931.784 134.213 927.016 113.275 C 922.249 92.3369 935.213 71.4596 956.095 66.4493 z"/>
</svg>