<!-- RECRAFT VECTORIZE from logo/options-w3/C3-wide-heavy-dark.png -->
<svg version="1.1" xmlns="http://www.w3.org/2000/svg" style="display: block;" viewBox="0 0 2048 695" width="754" height="256" preserveAspectRatio="none">
<path transform="translate(0,0)" fill="rgb(12,17,32)" d="M 0 0 L 2048 0 L 2048 695 L 0 695 L 0 0 z"/>
<path transform="translate(0,0)" fill="rgb(251,252,252)" d="M 140.238 63.1775 C 181.636 62.3378 225.628 63.0853 267.195 63.0818 L 486.279 63.1864 L 486.266 168.917 L 238.82 169.02 L 238.84 189.086 C 297.031 190.116 358.502 189.159 416.911 189.083 L 416.951 288.007 L 290.5 288.057 L 238.851 288.138 L 238.877 308.257 C 266.312 308.893 296.084 308.359 323.735 308.36 L 486.214 308.375 L 486.314 414.014 L 140.082 413.975 C 141.425 297.881 140.162 179.494 140.238 63.1775 z"/>
<path transform="translate(0,0)" fill="rgb(251,252,252)" d="M 539.233 161.64 C 570.702 160.868 606.39 161.394 638.032 161.732 L 637.813 190.113 C 660.202 175.215 677.738 166.091 704.991 162.688 C 740.969 157.969 777.338 167.849 805.983 190.124 C 834.672 212.337 853.294 245.094 857.709 281.107 C 862.24 317.307 852.051 353.811 829.426 382.431 C 805.892 412.402 773.745 429.038 736.245 433.581 C 702.542 439.488 664.977 424.693 638.034 405.408 L 637.882 554.729 L 539.258 554.84 C 538.283 510.981 539.18 463.891 539.178 419.759 L 539.233 161.64 z"/>
<path transform="translate(0,0)" fill="rgb(12,17,32)" d="M 711.968 237.504 C 745.409 231.714 777.191 254.191 782.876 287.65 C 788.56 321.109 765.984 352.82 732.507 358.4 C 699.179 363.955 667.638 341.5 661.979 308.189 C 656.32 274.879 678.675 243.268 711.968 237.504 z"/>
<path transform="translate(0,0)" fill="rgb(251,252,252)" d="M 1208.29 135.415 C 1292.38 131.865 1363.45 197.103 1367.09 281.187 C 1370.74 365.271 1305.58 436.415 1221.5 440.157 C 1137.29 443.905 1066 378.62 1062.35 294.4 C 1058.7 210.179 1124.07 138.97 1208.29 135.415 z"/>
<path transform="translate(0,0)" fill="rgb(12,17,32)" d="M 1203.4 212.447 C 1244.93 206.187 1283.69 234.716 1290.06 276.23 C 1296.43 317.744 1268.01 356.585 1226.51 363.069 C 1184.86 369.577 1145.84 341.021 1139.44 299.348 C 1133.04 257.676 1161.71 218.731 1203.4 212.447 z"/>
<path transform="translate(0,0)" fill="rgb(251,252,252)" d="M 1619.97 161.619 C 1657.65 161.473 1695.33 161.535 1733.01 161.807 C 1735.52 210.24 1738.3 258.659 1741.34 307.061 C 1743.05 335.761 1744.28 372.294 1747.86 400.437 C 1752.44 375.971 1762.39 346.634 1769.09 322.137 C 1783.68 268.798 1800.73 215.139 1814.64 161.667 L 1849.75 161.625 C 1869.03 161.56 1888.31 161.627 1907.59 161.827 C 1891.97 187.516 1874.68 220.486 1859.78 247.132 L 1766.56 414.03 L 1660.7 413.942 C 1667.03 382.037 1670.61 345.855 1676.5 313.555 C 1679.2 298.755 1680.42 284.898 1684.17 269.991 C 1677.36 279.193 1662.58 306.361 1656.18 317.501 L 1600.85 414.018 L 1494.69 414.004 C 1489.49 390.647 1476.18 350.327 1468.98 326.023 L 1420.41 161.861 C 1455.28 160.587 1497.67 161.427 1532.98 161.774 L 1545.53 319.09 C 1547.21 340.4 1549.18 381.102 1553.22 400.283 C 1556.64 378.838 1569.79 337.246 1576.23 314.751 L 1619.97 161.619 z"/>
<path transform="translate(0,0)" fill="rgb(251,252,252)" d="M 927.815 162.134 C 938.827 160.841 991.049 161.339 1002.66 162.194 C 1007.06 165.306 1013.43 170.109 1013.86 175.72 C 1015.2 193.355 1014.67 212.097 1014.67 229.763 L 1014.69 318.478 L 1014.67 371.072 C 1014.67 380.479 1015.05 392.334 1013.65 401.598 C 1012.85 406.88 1007.26 410.631 1002.97 413.315 C 987.186 415.157 969.203 413.63 953.159 414.206 C 939.124 414.71 916.931 415.92 916.306 396.378 C 915.796 380.468 916.034 364.515 916.031 348.623 L 916.038 259.814 L 916.061 205.056 C 916.062 195.058 915.603 182.834 917.079 173.039 C 917.772 168.442 924.05 164.524 927.815 162.134 z"/>
<path transform="translate(0,0)" fill="rgb(251,252,252)" d="M 961.778 65.4535 C 983.416 63.5458 1002.49 79.5673 1004.35 101.21 C 1006.21 122.852 990.146 141.892 968.5 143.702 C 946.922 145.507 927.955 129.505 926.102 107.931 C 924.249 86.3576 940.209 67.3551 961.778 65.4535 z"/>
</svg>