<!-- RECRAFT VECTORIZE from logo/options-w3/L1-dejavu-lockup-light.png -->
<svg version="1.1" xmlns="http://www.w3.org/2000/svg" style="display: block;" viewBox="0 0 2048 780" width="672" height="256" preserveAspectRatio="none">
<path transform="translate(0,0)" fill="rgb(255,255,255)" d="M 0 0 L 2048 0 L 2048 780 L 0 780 L 0 0 z"/>
<path transform="translate(0,0)" fill="rgb(48,47,130)" d="M 282.371 85.4817 L 525.227 85.4593 L 593.82 85.3893 C 608.811 85.3777 630.418 84.8026 644.704 87.5586 C 667.284 91.9145 692.714 106.277 709.104 122.097 C 736.574 148.611 755.449 182.545 755.633 221.521 C 755.759 248.131 755.772 274.654 755.747 301.21 L 755.709 445.668 L 755.758 524.501 C 755.779 543.725 756.667 569.215 752.98 587.48 C 748.062 611.952 736.344 634.543 719.171 652.659 C 691.514 681.917 659.579 693.467 620.238 694.524 L 380.528 694.531 L 311.01 694.619 C 297.68 694.632 283.143 695.03 269.953 693.919 C 204.638 688.415 146.15 623.128 146.525 557.787 C 146.681 530.785 146.339 504.335 146.359 477.622 L 146.36 334.185 L 146.346 256.871 C 146.34 236.925 145.393 210.522 149.287 191.556 C 154.252 167.392 165.87 145.097 182.831 127.185 C 210.663 97.7306 242.914 86.6108 282.371 85.4817 z"/>
<path transform="translate(0,0)" fill="rgb(255,255,255)" d="M 342.04 225.124 C 351.98 224.916 362.044 224.953 371.99 225.001 C 435.679 225.307 499.48 224.431 563.156 225.169 L 563.081 286.92 L 424.459 287.002 C 424.355 306.658 424.359 326.316 424.472 345.973 L 554.98 346.087 C 555.05 366.712 554.99 387.338 554.801 407.962 C 516.306 408.42 477.719 407.754 439.215 407.977 C 434.63 408.003 430.29 408.047 425.701 408.344 C 423.781 410.837 424.402 412.459 424.326 416.101 L 424.444 480.584 C 472.093 481.151 520.068 480.211 567.834 480.796 L 567.741 542.297 C 494.398 543.763 415.525 542.744 341.874 542.273 L 342.04 225.124 z"/>
<path transform="translate(0,0)" fill="rgb(12,18,34)" d="M 1237.98 315.422 C 1319.07 317.283 1315.02 457.453 1238.51 458.235 C 1219.6 458.428 1206.92 448.458 1194.4 435.562 C 1194.76 453.765 1194.47 472.966 1194.47 491.245 L 1194.54 506.172 C 1180.14 506.298 1165.74 506.311 1151.34 506.213 C 1149.93 462.85 1152.1 418.172 1151.24 374.666 C 1150.89 357.112 1150.46 335.466 1151.95 318.181 C 1166.24 318.124 1180.52 318.254 1194.8 318.572 C 1194.69 324.936 1194.38 331.527 1194.17 337.911 C 1209.74 322.532 1216.01 316.978 1237.98 315.422 z"/>
<path transform="translate(0,0)" fill="rgb(255,255,255)" d="M 1215.82 347.312 C 1230.91 345.92 1244.13 349.672 1248.99 365.102 C 1255.87 386.882 1254.57 416.999 1230.33 426.054 C 1194.74 431.276 1189.57 392.049 1197.38 366.381 C 1200.28 356.848 1206.98 351.351 1215.82 347.312 z"/>
<path transform="translate(0,0)" fill="rgb(12,18,34)" d="M 1744.07 318.027 L 1785.63 318.222 C 1782.49 331.261 1779.08 344.235 1775.41 357.137 C 1773.45 367.741 1768.04 385.971 1765.19 396.869 C 1760.29 415.642 1755.24 436.792 1749.35 455.133 C 1734.16 454.71 1717.72 454.853 1702.46 454.755 C 1694.99 424.496 1688.07 391.095 1679.15 361.403 C 1672.6 391.019 1664.19 425.621 1656.43 454.914 L 1609.69 455.009 C 1607.46 447.586 1605.4 440.02 1603.5 432.501 C 1593.9 394.4 1582.75 356.398 1573.72 318.176 C 1587.49 318.311 1601.49 318.165 1615.28 318.154 C 1623.22 349.35 1630.71 380.659 1637.75 412.07 C 1647.31 382.231 1653.52 348.751 1661.67 318.261 C 1673.81 318.103 1685.94 318.173 1698.07 318.471 C 1701.78 338.885 1715.42 392.815 1721.79 411.131 C 1727.3 381.952 1736.34 346.824 1744.07 318.027 z"/>
<path transform="translate(0,0)" fill="rgb(12,18,34)" d="M 1464.81 316.336 C 1503.57 310.476 1545.2 326.684 1552.25 369.316 C 1559.58 413.628 1541.85 448.195 1495.94 456.737 C 1453.99 461.963 1412.73 448.178 1405.62 402.087 C 1398.6 356.527 1419.17 323.672 1464.81 316.336 z"/>
<path transform="translate(0,0)" fill="rgb(255,255,255)" d="M 1476.31 346.306 C 1492.4 346.264 1503.69 354.184 1506.92 369.934 C 1511.54 392.386 1509.36 420.74 1483.3 427.129 C 1446.05 427.917 1442.63 383.638 1456.67 357.964 C 1460.46 351.02 1468.71 347.617 1476.31 346.306 z"/>
<path transform="translate(0,0)" fill="rgb(12,18,34)" d="M 983.067 273.521 C 1024.06 272.59 1068.06 273.159 1109.21 273.415 L 1109.01 308.518 C 1082.64 308.402 1056.27 308.419 1029.91 308.57 C 1029.51 319.201 1029.78 331.338 1029.78 342.082 L 1104.14 342.184 C 1104.25 353.955 1104.11 365.94 1104.1 377.731 C 1093.74 377.872 1035.52 376.412 1030.39 378.9 L 1029.74 381.75 L 1029.89 419.686 L 1112.07 419.93 L 1111.84 454.747 C 1069.79 455.563 1025.3 454.826 983.049 454.827 C 982.06 395.872 982.638 332.645 983.067 273.521 z"/>
<path transform="translate(0,0)" fill="rgb(12,18,34)" d="M 1329.45 318.236 C 1343.6 318.045 1358.05 318.168 1372.23 318.137 C 1373.17 362.768 1372.49 410.115 1372.27 454.919 L 1329.37 454.876 C 1328 413.954 1328.76 359.475 1329.45 318.236 z"/>
<path transform="translate(0,0)" fill="rgb(12,18,34)" d="M 1329.36 265.647 L 1372.3 265.622 C 1372.81 276.229 1372.33 289.785 1372.22 300.61 C 1357.9 300.928 1343.58 300.973 1329.27 300.745 C 1329.17 289.046 1329.2 277.346 1329.36 265.647 z"/>
</svg>