<!-- RECRAFT VECTORIZE from logo/options-w3/L2-liberation-lockup-light.png -->
<svg version="1.1" xmlns="http://www.w3.org/2000/svg" style="display: block;" viewBox="0 0 2048 804" width="652" height="256" preserveAspectRatio="none">
<path transform="translate(0,0)" fill="rgb(255,255,255)" d="M 0 0 L 2048 0 L 2048 804 L 0 804 L 0 0 z"/>
<path transform="translate(0,0)" fill="rgb(48,47,130)" d="M 280.699 88.4167 C 308.443 87.364 339.896 88.0545 367.856 88.0663 L 521.049 88.0641 L 605.401 88.0153 C 622.413 88.0101 648.045 86.9265 664.27 90.1805 C 721.73 101.704 775.114 160.421 778.318 219.605 C 779.633 243.884 778.922 270.726 778.925 295.248 L 778.9 434.14 L 778.916 535.794 C 778.907 554.89 779.77 585.904 776.515 603.603 C 771.994 627.484 761.264 649.754 745.405 668.173 C 720.278 697.132 687.49 712.843 649.494 715.587 C 630.118 717.521 601.521 715.951 581.222 715.938 L 451.6 715.927 L 336.031 715.977 C 314.674 715.981 286.497 717.009 265.861 713.779 C 245.278 710.557 219.176 695.76 203.756 682.35 C 176.87 658.969 153.141 621.87 151.551 585.388 C 150.474 560.668 150.918 534.054 150.907 509.104 L 150.88 370.137 L 150.901 269.27 C 150.909 248.984 149.847 219.021 153.39 200.004 C 157.822 176.173 168.502 153.945 184.339 135.594 C 209.482 106.527 242.717 91.1592 280.699 88.4167 z"/>
<path transform="translate(0,0)" fill="rgb(255,255,255)" d="M 343.047 244.974 C 423.988 243.817 509.343 244.633 590.403 244.996 C 590.458 261.968 590.404 278.94 590.241 295.912 L 409.072 295.939 L 409.097 374.898 C 463.045 374.159 523.338 373.815 577.13 375.035 L 576.946 425.748 C 529.16 426.433 480.361 425.935 432.5 425.92 L 408.999 425.973 L 409.057 508.112 L 599.569 508.223 C 599.178 524.794 599.358 542.35 599.259 558.998 C 514.364 559.875 427.962 559.228 342.967 559.025 L 343.047 244.974 z"/>
<path transform="translate(0,0)" fill="rgb(12,18,34)" d="M 1262.97 327.273 C 1317.17 321.409 1327.73 369.572 1324.46 413.744 C 1323.26 429.961 1316.31 453.716 1302.12 463.606 C 1273.3 483.68 1247.23 475.218 1226.29 449.778 C 1227.37 466.293 1227.06 483.885 1227.06 500.512 L 1227.11 527.57 C 1214.9 527.754 1202.68 527.756 1190.47 527.577 C 1189.29 461.894 1191.1 395.469 1189.83 329.237 C 1201.8 329.236 1213.77 329.299 1225.73 329.425 L 1226.42 351.902 C 1237.88 336.431 1244.31 330.556 1262.97 327.273 z"/>
<path transform="translate(0,0)" fill="rgb(255,255,255)" d="M 1251.12 352.276 C 1266.97 350.818 1279.51 357.244 1283.5 373.096 C 1289.44 396.673 1291.3 439.622 1262.71 448.815 C 1247.89 449.813 1235.82 444.12 1231.18 429.609 C 1223.04 404.164 1222.39 364.055 1251.12 352.276 z"/>
<path transform="translate(0,0)" fill="rgb(12,18,34)" d="M 1484.58 327.346 C 1525.29 323.063 1559.13 341.91 1564.21 384.594 C 1569.76 431.221 1552.28 467.254 1503.25 473.7 C 1439.42 480.236 1409.89 428.308 1426.3 371.422 C 1434.37 343.475 1457.39 330.639 1484.58 327.346 z"/>
<path transform="translate(0,0)" fill="rgb(255,255,255)" d="M 1488.54 352.155 C 1505.85 350.571 1520.27 358.909 1524.13 375.927 C 1529.91 401.419 1530.4 439.787 1500.07 448.597 C 1481.74 450.425 1467.27 442.62 1463.28 424.213 C 1457.44 397.302 1456.99 361.059 1488.54 352.155 z"/>
<path transform="translate(0,0)" fill="rgb(12,18,34)" d="M 1010.23 286.413 C 1057.93 287.298 1107.89 286.629 1155.74 286.583 L 1155.56 315.805 C 1121.27 316.695 1083.31 316.022 1048.84 315.919 C 1048.01 331.208 1048.41 347.841 1048.66 363.215 C 1081.75 363.022 1114.83 363.106 1147.91 363.466 L 1147.66 392.669 C 1120.25 393.399 1090.62 392.853 1063.04 392.862 L 1048.8 392.868 C 1048.07 408.953 1048.4 425.589 1048.49 441.729 C 1085.46 442.326 1123.98 441.793 1161.08 441.812 L 1161.05 471.083 C 1114.28 472.978 1057.54 471.43 1010 471.54 C 1009.34 411.773 1009.07 346.04 1010.23 286.413 z"/>
<path transform="translate(0,0)" fill="rgb(12,18,34)" d="M 1752.68 329.078 C 1763.72 329.271 1774.75 329.275 1785.79 329.09 C 1783.13 341.711 1779.41 355.083 1776.15 367.638 C 1766.98 402.072 1758.04 436.568 1749.33 471.123 C 1737 472.018 1722.09 471.619 1709.67 471.518 C 1708.83 467.195 1707.71 462.584 1706.62 458.298 C 1697.98 424.435 1690.58 389.649 1680.72 356.149 C 1670.33 391.579 1660.46 435.37 1651.22 471.626 C 1639.42 471.652 1623.1 472.123 1611.7 471.05 C 1601.48 424.5 1585.27 375.119 1576 329.163 L 1609.88 329.227 C 1616.17 356.202 1621.29 383.559 1627.35 410.599 C 1629.27 419.165 1630.8 427.284 1633.94 435.518 C 1637.54 425.194 1640.96 409.713 1643.74 398.725 C 1649.62 375.629 1655.31 352.486 1660.82 329.298 C 1673.99 329.028 1687.65 329.275 1700.86 329.346 C 1706.16 354.879 1713.85 380.57 1719.71 406.029 C 1722.07 416.289 1724.97 427.076 1728.32 437.037 C 1737.36 404.9 1743.97 363.048 1752.68 329.078 z"/>
<path transform="translate(0,0)" fill="rgb(12,18,34)" d="M 1355.86 329.128 L 1392.13 329.233 L 1392.18 421.708 C 1392.2 436.753 1392.89 456.764 1391.94 471.205 C 1380.51 471.852 1367.08 471.558 1355.48 471.559 C 1355.24 424.828 1354.74 375.71 1355.86 329.128 z"/>
<path transform="translate(0,0)" fill="rgb(12,18,34)" d="M 1355.83 276.533 C 1367.61 276.213 1380.48 276.621 1392.34 276.78 C 1392.32 284.382 1392.62 295.702 1391.82 302.987 C 1379.72 303.203 1367.63 303.256 1355.53 303.145 C 1355.31 294.25 1355.61 285.425 1355.83 276.533 z"/>
</svg>