<!-- RECRAFT VECTORIZE from logo/options-w3/T1-dejavu-bold-light.png -->
<svg version="1.1" xmlns="http://www.w3.org/2000/svg" style="display: block;" viewBox="0 0 2048 787" width="666" height="256" preserveAspectRatio="none">
<path transform="translate(0,0)" fill="rgb(255,255,255)" d="M 0 0 L 2048 0 L 2048 787 L 0 787 L 0 0 z"/>
<path transform="translate(0,0)" fill="rgb(12,17,32)" d="M 712.573 233.342 C 719.729 232.362 731.28 232.395 738.092 233.065 C 824.5 241.563 857.525 331.951 849.548 407.747 C 845.074 450.252 832.141 486.078 798.483 514.97 C 774.028 535.961 744.788 542.042 713.444 539.389 C 674.907 535.778 653.425 518.674 629.733 490.319 L 629.814 593.5 L 629.751 644.214 C 599.36 644.835 566.592 644.365 536.156 644.213 L 536.233 239.699 C 565.572 238.693 600.086 239.468 629.793 239.423 C 629.826 253.746 629.765 268.07 629.609 282.393 C 654.271 253.83 673.393 237.741 712.573 233.342 z"/>
<path transform="translate(0,0)" fill="rgb(255,255,255)" d="M 681.776 301.261 C 719.735 297.127 745.185 317.247 751.18 354.597 C 758.226 398.49 756.023 461.196 702.421 471.531 C 688.94 473.242 672.446 471.631 660.545 463.777 C 622.206 438.473 622.946 361.04 644.372 325.236 C 652.653 311.397 666.41 304.341 681.776 301.261 z"/>
<path transform="translate(0,0)" fill="rgb(12,17,32)" d="M 1812.71 239.245 C 1842.34 239.818 1873.59 239.636 1903.26 239.465 C 1896.36 268.462 1887.7 299.282 1880.11 328.24 L 1826.15 532.873 L 1723.76 532.72 C 1720.77 516.809 1715.1 496.094 1711.14 480.019 L 1687.95 385.72 C 1683.77 368.723 1678.21 348.26 1675.49 331.256 C 1669.11 348.476 1663.75 376.28 1658.94 394.651 C 1647.03 440.115 1637.32 487.558 1625.15 532.905 L 1522.85 532.773 C 1498.28 435.065 1470.89 337.485 1446 239.79 L 1466.29 239.488 C 1489.66 239.435 1514.25 239.039 1537.51 239.839 C 1540.26 257.94 1547.96 284.454 1552.24 303.172 C 1562.79 349.303 1576.03 396.15 1585.72 442.381 L 1635.55 239.46 L 1714.21 239.361 C 1716.61 254.084 1723.01 277.235 1726.71 292.274 L 1750.26 387.728 C 1754.41 404.604 1759.65 423.738 1761.93 440.754 C 1780.99 376.218 1794.99 304.813 1812.71 239.245 z"/>
<path transform="translate(0,0)" fill="rgb(12,17,32)" d="M 1239.96 232.434 C 1332.77 230.355 1401.3 281.569 1403.66 378.454 C 1406.2 482.287 1348.02 536.432 1247.44 540.02 C 1202.48 539.864 1162.57 532.954 1126.98 501.511 C 1069.09 450.364 1066.99 336.66 1118.01 280.193 C 1151.03 243.642 1193.04 234.558 1239.96 232.434 z"/>
<path transform="translate(0,0)" fill="rgb(255,255,255)" d="M 1232.19 300.275 C 1269.07 295.523 1296.36 315.675 1302.86 351.801 C 1310.96 396.858 1308.96 460.023 1254.89 472.433 C 1215.91 477.121 1188.78 457.352 1182.36 418.609 C 1174.92 373.782 1177.55 310.86 1232.19 300.275 z"/>
<path transform="translate(0,0)" fill="rgb(12,17,32)" d="M 174.372 142.018 C 263.043 140.525 357.14 141.789 446.071 142.032 L 446.084 217.548 C 391.383 219.183 330.441 217.597 275.089 217.84 C 274.661 241.82 274.993 266.764 274.978 290.82 C 326.904 292.098 383.667 290.955 435.986 290.973 L 435.907 367.039 C 383.106 368.04 328.14 366.858 275.008 367.215 L 274.963 378.5 L 274.94 456.647 C 333.155 457.728 393.575 456.609 452.082 456.898 L 452.035 532.598 C 422.061 533.745 384.68 532.746 354.202 532.749 L 174.262 532.654 L 174.372 142.018 z"/>
<path transform="translate(0,0)" fill="rgb(12,17,32)" d="M 920.209 239.66 L 1013.83 239.679 C 1012.64 336.533 1013.77 435.652 1013.67 532.686 C 983.223 533.234 950.76 532.753 920.172 532.768 C 919.491 496.952 920.09 459.058 920.084 423.103 L 920.209 239.66 z"/>
<path transform="translate(0,0)" fill="rgb(12,17,32)" d="M 920.217 125.045 L 1013.7 125.139 L 1013.75 201.634 C 984.193 202.57 950.053 201.822 920.152 201.839 C 920.035 176.241 920.057 150.642 920.217 125.045 z"/>
</svg>