<!-- RECRAFT VECTORIZE from logo/options-w3/T1-dejavu-bold-dark.png -->
<svg version="1.1" xmlns="http://www.w3.org/2000/svg" style="display: block;" viewBox="0 0 2048 787" width="666" height="256" preserveAspectRatio="none">
<path transform="translate(0,0)" fill="rgb(12,17,32)" d="M 0 0 L 2048 0 L 2048 787 L 0 787 L 0 0 z"/>
<path transform="translate(0,0)" fill="rgb(251,252,252)" d="M 712.662 233.32 C 719.079 232.353 732.366 232.37 738.494 233.055 C 825.69 242.805 856.781 331.097 849.672 407.455 C 842.633 483.052 795.701 547.141 713.594 539.539 C 674.952 535.961 653.806 519.043 629.747 490.479 C 630.367 523.784 629.82 559.047 629.838 592.5 L 629.802 644.314 L 536.04 644.155 L 536.204 239.427 C 566.416 238.73 599.59 239.278 629.87 239.431 C 629.888 253.001 630.32 269.647 629.172 282.923 C 653.957 253.28 673.264 238.222 712.662 233.32 z"/>
<path transform="translate(0,0)" fill="rgb(12,17,32)" d="M 680.835 301.248 C 732.049 297.405 751.079 327.29 753.468 376.134 C 755.352 414.663 749.407 460.994 704.798 471.063 C 624.988 485.708 616.562 376.51 643.586 326.562 C 651.281 312.339 665.445 304.794 680.835 301.248 z"/>
<path transform="translate(0,0)" fill="rgb(251,252,252)" d="M 1812.66 239.191 C 1842.84 239.584 1873.01 238.917 1903.25 239.65 C 1896.7 265.65 1889.94 291.6 1883 317.5 L 1826.36 532.972 L 1723.61 532.855 C 1714.92 488.304 1699.8 439.32 1690.01 394.571 C 1685.73 374.996 1677.2 348.887 1676.19 329.512 C 1669.37 348.193 1662.28 381.428 1657.33 401.727 L 1625.25 532.989 C 1591.32 532.567 1556.63 532.881 1522.64 532.843 C 1517.88 509.755 1508.68 478.59 1502.49 455.097 L 1462.74 303.703 C 1458.07 285.624 1449.34 257.715 1446.2 240.586 L 1448 239.513 C 1473.18 238.725 1512.45 238.53 1537.39 239.663 C 1540.59 256.691 1545.8 276.421 1549.95 293.524 L 1572.51 385.61 C 1576.89 403.48 1582.79 425.133 1585.57 442.98 L 1635.41 239.299 C 1660.79 239.265 1688.79 238.643 1713.96 239.438 C 1726.69 294.629 1741.36 349.571 1754.58 404.661 C 1757.47 416.686 1760.82 427.998 1761.47 440.424 C 1768.81 419.376 1773.5 395.55 1779.19 373.855 C 1790.81 329.518 1800.54 283.268 1812.66 239.191 z"/>
<path transform="translate(0,0)" fill="rgb(251,252,252)" d="M 1239.45 232.439 L 1240.06 232.409 C 1350.66 227.727 1416.78 305.92 1402.08 413.548 C 1390.25 500.128 1330.11 537.303 1248.65 540.05 C 1203.17 540.233 1162.5 533.149 1126.68 501.324 C 1068.95 450.026 1066.98 336.077 1118.29 279.779 C 1151.09 243.798 1193.02 234.47 1239.45 232.439 z"/>
<path transform="translate(0,0)" fill="rgb(12,17,32)" d="M 1231.72 300.356 C 1268.24 296.219 1295.61 314.089 1302.49 350.496 C 1311.09 395.955 1309.27 459.374 1254.99 472.358 C 1215.23 477.072 1188.4 456.832 1182 416.74 C 1175.13 373.656 1178.45 310.201 1231.72 300.356 z"/>
<path transform="translate(0,0)" fill="rgb(251,252,252)" d="M 174.176 142.006 C 233.483 140.85 293.312 142.399 352.673 141.803 C 383.676 141.492 415.243 141.568 446.227 142.044 C 445.85 166.975 446.184 192.7 446.196 217.693 L 275.178 217.874 C 275.024 242.183 275.004 266.494 275.117 290.804 L 435.99 290.868 L 435.942 367.033 C 382.926 367.771 328.312 367.096 275.17 367.181 L 275.057 376.75 L 275.067 456.641 C 333.649 457.626 393.3 456.166 452.13 456.903 L 452.071 532.733 C 419.919 533.411 385.406 532.837 353.061 532.841 L 174.147 532.732 L 174.176 142.006 z"/>
<path transform="translate(0,0)" fill="rgb(251,252,252)" d="M 920.266 239.45 C 950 238.902 984.214 238.97 1013.9 239.644 L 1013.86 532.741 L 920.085 532.76 L 920.028 363.611 C 920.02 322.752 919.426 280.196 920.266 239.45 z"/>
<path transform="translate(0,0)" fill="rgb(251,252,252)" d="M 920.204 125.068 L 1013.82 125.111 L 1013.87 201.781 C 982.903 202.131 951.166 201.838 920.149 201.857 C 919.976 176.261 919.994 150.664 920.204 125.068 z"/>
</svg>