<!-- RECRAFT VECTORIZE from logo/options-w3/T2-dejavu-tracked-dark.png -->
<svg version="1.1" xmlns="http://www.w3.org/2000/svg" style="display: block;" viewBox="0 0 2048 751" width="698" height="256" preserveAspectRatio="none">
<path transform="translate(0,0)" fill="rgb(12,17,32)" d="M 0 0 L 2048 0 L 2048 751 L 0 751 L 0 0 z"/>
<path transform="translate(0,0)" fill="rgb(251,252,252)" d="M 706.392 222.396 C 710.724 221.713 719.312 221.805 723.717 222.06 C 806.016 227.84 838.844 308.123 834.918 380.204 C 830.974 452.609 789.675 519.381 709.089 515.237 C 669.487 513.2 649.816 496.896 624.335 468.62 C 625.926 497.049 624.565 540.713 624.524 570.25 L 624.608 614.818 L 535.028 614.833 L 535.153 228.428 C 564.711 228.382 595.129 227.979 624.619 228.609 C 624.571 240.355 625.291 258.582 623.704 269.405 C 649.174 240.645 666.298 226.438 706.392 222.396 z"/>
<path transform="translate(0,0)" fill="rgb(12,17,32)" d="M 674.442 287.267 C 723.406 282.782 741.358 317.53 742.453 361.592 C 743.395 399.473 737.335 441.331 693.665 449.94 C 657.347 453.109 632.995 434.914 627.152 398.764 C 620.269 356.176 622.991 297.622 674.442 287.267 z"/>
<path transform="translate(0,0)" fill="rgb(251,252,252)" d="M 1822.26 228.34 C 1851.18 228.162 1880.11 228.282 1909.03 228.702 L 1890.17 301.339 C 1883.71 323.576 1877.68 348.58 1871.74 371.134 L 1835.63 508.424 C 1803.27 508.851 1770.03 508.493 1737.6 508.502 C 1723.84 444.817 1703.55 377.943 1690.73 314.827 C 1686.94 335.251 1679.49 362.136 1674.43 382.793 L 1643.59 508.702 C 1611.71 507.885 1577.73 508.589 1545.58 508.342 C 1530.14 442.247 1509.75 374.82 1493.38 308.737 C 1487.12 283.484 1477.56 253.419 1472.58 228.378 L 1559.19 228.344 L 1588.93 350.508 C 1594.58 373.67 1600.37 400.01 1607.26 422.546 C 1608.17 409.262 1618.46 370.857 1622.16 355.759 L 1653.44 228.423 C 1677.91 228.377 1704.18 227.878 1728.5 228.691 C 1738.06 272.032 1750.11 315.744 1760.29 359.015 C 1765.16 379.715 1770.73 399.624 1774.74 420.619 L 1822.26 228.34 z"/>
<path transform="translate(0,0)" fill="rgb(251,252,252)" d="M 1239.62 222.422 C 1276.98 217.043 1330.24 229.08 1359.25 252.716 C 1387.91 276.063 1403.94 307.875 1407.78 344.423 C 1412.11 386.38 1406.69 430.98 1379.38 464.865 C 1351.41 499.547 1316.45 510.143 1274.61 514.854 C 1227.75 516.422 1186.69 513.153 1148.32 481.685 C 1119.26 457.252 1105.38 423.223 1102.49 386.31 C 1095.07 291.702 1143.85 230.065 1239.62 222.422 z"/>
<path transform="translate(0,0)" fill="rgb(12,17,32)" d="M 1248.07 286.302 C 1283.32 282.985 1307.62 303.353 1313.1 337.698 C 1319.97 380.837 1317.94 440.973 1265.12 450.969 C 1224.59 453.783 1201.73 433.047 1196.5 392.389 C 1191.14 350.664 1196.28 293.139 1248.07 286.302 z"/>
<path transform="translate(0,0)" fill="rgb(251,252,252)" d="M 166.288 135.515 C 232.617 133.576 300.173 136.346 366.614 135.217 C 385.94 134.888 406.814 134.842 426.039 135.611 L 426.018 207.763 L 262.821 207.909 C 262.589 231.126 262.549 254.345 262.702 277.563 C 313.024 276.901 365.81 277.172 416.173 277.585 L 416.084 350.213 C 381.95 350.792 347.243 349.927 313.107 350.264 C 298.046 350.412 278.59 349.531 263.854 350.606 C 262.131 352.552 262.63 356.686 262.642 359.5 L 262.631 435.77 C 318.627 436.59 375.553 435.492 431.754 435.991 L 431.657 508.224 C 399.538 509.123 363.702 508.4 331.324 508.404 L 166.234 508.221 L 166.288 135.515 z"/>
<path transform="translate(0,0)" fill="rgb(251,252,252)" d="M 927.313 228.481 C 955.497 228.446 985.907 227.857 1013.92 228.808 L 1013.83 435.576 C 1013.82 446.968 1015.4 499.26 1013.33 507.467 L 1011.25 508.321 C 982.225 508.454 953.199 508.423 924.174 508.227 C 924.17 486.667 923.517 231.485 924.974 228.988 L 927.313 228.481 z"/>
<path transform="translate(0,0)" fill="rgb(251,252,252)" d="M 924.334 119.407 C 953.549 118.966 984.483 119.46 1013.81 119.493 C 1014.11 143.652 1013.88 168.321 1013.91 192.521 C 984.603 193.113 953.663 192.588 924.233 192.565 C 924.067 168.179 924.101 143.792 924.334 119.407 z"/>
</svg>