<!-- RECRAFT VECTORIZE from logo/options-w3/T2-dejavu-tracked-light.png -->
<svg version="1.1" xmlns="http://www.w3.org/2000/svg" style="display: block;" viewBox="0 0 2048 751" width="698" height="256" preserveAspectRatio="none">
<path transform="translate(0,0)" fill="rgb(255,255,255)" d="M 0 0 L 2048 0 L 2048 751 L 0 751 L 0 0 z"/>
<path transform="translate(0,0)" fill="rgb(12,17,32)" d="M 706.358 222.399 C 797.815 212.203 841.429 306.182 834.617 383.914 C 828.293 456.077 788.3 520.499 706.815 514.921 C 667.827 512.252 648.478 495.917 624.035 467.957 C 624.837 501.064 624.331 536.221 624.334 569.5 C 624.222 584.587 624.306 599.675 624.584 614.76 C 596.662 615.718 563.454 614.92 535.129 614.919 C 534.583 564.315 535.091 512.824 535.086 462.14 L 535.21 228.68 C 564.554 228.202 595.251 228.526 624.584 228.712 L 624.03 269.464 C 648.457 241.147 667.248 225.958 706.358 222.399 z"/>
<path transform="translate(0,0)" fill="rgb(255,255,255)" d="M 674.162 287.405 C 727.627 280.989 743.667 325.527 742.656 370.39 C 741.851 406.112 734.223 442.006 694.087 449.891 C 657.733 453.563 633.232 435.231 627.184 399.23 C 620.06 356.828 622.788 297.64 674.162 287.405 z"/>
<path transform="translate(0,0)" fill="rgb(12,17,32)" d="M 1822.33 228.526 L 1909.04 228.703 C 1898.58 271.618 1885.97 314.823 1875.31 357.856 C 1861.27 405.406 1848.3 459.864 1835.58 508.279 L 1737.78 508.439 C 1724.63 445.259 1704.16 378.447 1690.51 315.089 C 1687.51 333.022 1679.1 363.303 1674.61 381.655 L 1643.62 508.569 C 1611.26 507.64 1578.09 508.809 1545.52 508.108 C 1539.46 479.023 1528.2 440.661 1520.5 411.43 L 1472.41 228.678 C 1496.65 228.216 1521.99 228.547 1546.33 228.5 L 1559.35 228.645 L 1587.8 346.09 C 1593.88 371.081 1599.94 397.743 1606.91 422.39 C 1609.9 402.407 1618.5 371.128 1623.56 350.534 L 1653.44 228.725 C 1676.13 227.912 1706.01 228.354 1728.67 228.815 C 1732.49 249.357 1739.6 275.39 1744.68 296.018 C 1754.98 337.133 1765.02 378.314 1774.79 419.558 C 1781.36 396.887 1787.12 371.091 1792.81 347.997 L 1822.33 228.526 z"/>
<path transform="translate(0,0)" fill="rgb(12,17,32)" d="M 1240.11 222.415 C 1325.22 217.238 1398.82 253.612 1407.92 346.961 C 1417.2 442.153 1371.17 505.542 1273.93 514.809 C 1227.89 516.417 1186.03 512.521 1148.37 481.632 C 1090.33 434.024 1086.85 326.226 1133.98 269.997 C 1160.98 237.777 1199.44 225.528 1240.11 222.415 z"/>
<path transform="translate(0,0)" fill="rgb(255,255,255)" d="M 1247.63 286.201 C 1282.58 283.798 1306.85 301.428 1312.87 336.182 C 1320.31 379.079 1318.36 440.083 1266.19 450.915 C 1251.2 451.925 1236.21 451.565 1223.22 442.436 C 1187.01 416.999 1187.95 341.98 1210.1 307.818 C 1218.89 294.269 1232.41 288.851 1247.63 286.201 z"/>
<path transform="translate(0,0)" fill="rgb(12,17,32)" d="M 166.621 135.537 C 202.868 134.708 241.891 135.384 278.325 135.379 C 327.54 135.215 376.756 135.298 425.97 135.627 C 425.671 159.473 425.913 183.73 425.933 207.609 C 373.709 209.125 315.462 207.696 262.665 207.883 C 262.063 230.575 262.474 254.738 262.491 277.538 C 310.424 279.227 367.668 277.731 416.13 277.75 L 416.05 350.233 C 380.543 351.137 343.27 349.594 307.645 350.257 C 297.803 350.441 272.178 349.422 263.622 350.755 C 261.807 352.97 262.359 356.505 262.452 359.5 L 262.399 435.78 C 317.829 436.832 376.015 435.801 431.745 435.981 C 431.135 459.556 431.53 484.538 431.694 508.143 C 401.873 508.963 368.304 508.248 338.222 508.251 L 166.36 508.177 L 166.414 258.492 C 166.398 219.113 165.389 174.596 166.621 135.537 z"/>
<path transform="translate(0,0)" fill="rgb(12,17,32)" d="M 924.357 228.807 C 953.338 228.106 984.688 228.672 1013.86 228.765 L 1013.77 508.109 C 984.483 508.738 953.77 508.251 924.376 508.224 C 923.704 475.578 924.292 440.714 924.286 407.919 L 924.357 228.807 z"/>
<path transform="translate(0,0)" fill="rgb(12,17,32)" d="M 924.389 119.392 L 1013.75 119.483 L 1013.7 192.206 C 989.439 193.869 949.632 192.556 924.33 192.469 L 924.389 119.392 z"/>
</svg>