<!-- RECRAFT VECTORIZE from logo/options-w3/T3-liberation-bold-dark.png -->
<svg version="1.1" xmlns="http://www.w3.org/2000/svg" style="display: block;" viewBox="0 0 2048 843" width="622" height="256" preserveAspectRatio="none">
<path transform="translate(0,0)" fill="rgb(12,17,32)" d="M 0 0 L 2048 0 L 2048 843 L 0 843 L 0 0 z"/>
<path transform="translate(0,0)" fill="rgb(252,252,252)" d="M 760.537 252.421 C 884.186 248.961 894.838 395.935 875.217 485.886 C 868.229 517.925 848.435 551.903 819.54 568.535 C 779.271 591.715 718.341 588.353 684.462 554.824 C 674.769 545.31 669.139 535.919 662.46 524.391 C 664.676 540.932 664.71 566.164 664.76 583.29 L 664.768 656.5 L 664.845 702.605 C 637.915 703.329 608.644 702.769 581.625 702.633 L 581.769 474.079 C 582.46 402.278 581.896 330.471 580.078 258.69 L 660.437 258.845 C 662.063 275.162 664.118 295.851 662.64 311.975 C 669.252 302.919 673.377 293.91 681.367 284.975 C 703.062 260.711 729.716 254.484 760.537 252.421 z"/>
<path transform="translate(0,0)" fill="rgb(12,17,32)" d="M 722.085 310.266 C 795.213 300.829 799.805 388.516 795.856 439.986 C 792.919 478.279 783.881 517.525 741.187 525.935 C 698.646 530.571 674.166 502.232 667.258 462.188 C 658.639 412.225 658.965 322.712 722.085 310.266 z"/>
<path transform="translate(0,0)" fill="rgb(252,252,252)" d="M 1248.11 253.412 C 1342.78 248.998 1408.07 292.153 1418.02 390.709 C 1425.97 469.417 1400.7 548.374 1318.16 574.703 C 1302.44 579.717 1289.37 581.306 1273.23 582.887 C 1226.29 584.108 1187.05 578.999 1149.18 546.813 C 1116.3 517.936 1102 476.627 1099.44 434.145 C 1093.3 332.387 1141.58 260.005 1248.11 253.412 z"/>
<path transform="translate(0,0)" fill="rgb(12,17,32)" d="M 1251.39 310.318 C 1294.97 305.825 1322.72 331.689 1329.34 374.004 C 1335.46 413.041 1336.27 464.875 1314.3 499.338 C 1303.99 515.506 1287.65 522.525 1269.53 525.81 C 1218.88 531.206 1192.77 498.902 1187.69 451.379 C 1181.88 397.122 1182.77 319.472 1251.39 310.318 z"/>
<path transform="translate(0,0)" fill="rgb(252,252,252)" d="M 178.699 162.49 C 197.45 161.795 219.818 162.342 238.927 162.338 L 353.074 162.326 L 446.511 162.331 C 465.166 162.332 486.187 161.865 504.639 162.955 C 504.351 184.907 504.597 207.381 504.604 229.374 C 476.968 230.13 446.798 229.552 419.01 229.559 L 265.086 229.402 C 264.57 263.667 265.019 299.418 265.013 333.785 L 486.173 333.898 L 486.136 401.073 L 295.5 401.122 L 265.042 401.166 L 265.029 510.132 L 516.5 510.192 C 516.614 532.727 516.54 555.263 516.279 577.797 C 466.845 578.39 416.286 577.858 366.778 577.864 L 178.419 577.663 L 178.355 311.244 C 178.356 263.11 177.275 210.328 178.699 162.49 z"/>
<path transform="translate(0,0)" fill="rgb(252,252,252)" d="M 1441.21 258.774 C 1467.06 258.9 1492.9 258.824 1518.75 258.544 C 1537.21 339.667 1553.6 421.838 1571.82 503.202 C 1588.78 422.475 1614.6 339.512 1632.28 258.79 L 1721.59 258.856 C 1733.6 313.941 1750.41 370.652 1763.1 425.725 C 1768.53 449.321 1778.37 480.77 1781.03 504.223 C 1788.79 476.189 1795.08 443.737 1801.5 414.929 L 1836.2 258.623 C 1861.45 258.956 1887.02 258.755 1912.29 258.752 C 1907.67 281.546 1899.02 311.986 1892.73 334.875 C 1886.67 361.44 1877.88 392.076 1870.9 418.687 L 1829.19 577.764 C 1800 577.89 1770.81 577.858 1741.62 577.667 C 1721.54 491.835 1698.95 402.462 1677.06 317.05 C 1671.88 344.021 1661.29 380.976 1654.26 408.472 L 1610.86 577.965 C 1582.07 577.462 1552.25 577.85 1523.38 577.845 C 1515.34 541.287 1503.38 499.05 1493.9 462.448 L 1441.21 258.774 z"/>
<path transform="translate(0,0)" fill="rgb(252,252,252)" d="M 949.976 258.643 L 1032.66 258.887 L 1032.69 577.764 C 1005.59 578.27 977.165 577.851 949.957 577.871 L 949.976 258.643 z"/>
<path transform="translate(0,0)" fill="rgb(252,252,252)" d="M 950.027 140.391 C 976.235 139.767 1006.63 140.063 1032.79 140.5 C 1032.62 160.711 1032.61 180.923 1032.76 201.135 C 1006.36 201.993 976.62 201.34 949.967 201.352 C 949.871 181.032 949.891 160.711 950.027 140.391 z"/>
</svg>