<!-- RECRAFT VECTORIZE from logo/options-w3/T3-liberation-bold-light.png -->
<svg version="1.1" xmlns="http://www.w3.org/2000/svg" style="display: block;" viewBox="0 0 2048 843" width="622" height="256" preserveAspectRatio="none">
<path transform="translate(0,0)" fill="rgb(255,255,255)" d="M 0 0 L 2048 0 L 2048 843 L 0 843 L 0 0 z"/>
<path transform="translate(0,0)" fill="rgb(12,17,32)" d="M 760.857 252.434 C 879.814 244.298 894.918 395.322 876.375 480.556 C 860.44 553.807 807.641 596.005 731.575 579.974 C 696.971 572.682 680.278 553.268 662.631 525.067 C 665.802 565.95 664.604 615.987 664.57 657.5 L 664.637 702.64 C 637.852 703.33 608.597 702.734 581.707 702.673 L 581.842 462.071 C 581.84 394.439 582.561 326.393 580.024 258.84 L 660.297 258.979 C 662.454 276.627 663.291 294.412 662.801 312.185 C 669.165 302.855 673.667 293.768 681.366 285.116 C 703.324 260.438 729.707 254.685 760.857 252.434 z"/>
<path transform="translate(0,0)" fill="rgb(255,255,255)" d="M 721.922 310.262 C 795.577 300.896 799.661 388.181 795.942 440.037 C 794.349 462.25 790.277 485.439 777.366 504.087 C 767.706 518.037 755.243 523.639 739.094 526.341 C 680.943 531.974 664.13 474.174 663.409 426.965 C 662.725 382.223 668.808 320.779 721.922 310.262 z"/>
<path transform="translate(0,0)" fill="rgb(12,17,32)" d="M 1249.79 253.441 C 1344.79 248.541 1409.29 295.245 1418.05 392.645 C 1425.27 472.876 1399.01 551.08 1314.08 575.868 C 1298.83 580.317 1286.44 581.562 1270.92 582.862 C 1224.21 583.647 1185.58 578.226 1148.14 545.777 C 1115.52 516.557 1101.11 473.621 1099.17 430.993 C 1094.57 329.89 1143.77 258.958 1249.79 253.441 z"/>
<path transform="translate(0,0)" fill="rgb(255,255,255)" d="M 1250.62 310.325 C 1293.41 305.54 1322.04 330.286 1329.12 372.175 C 1335.74 411.356 1336.46 463.835 1314.84 498.668 C 1304.76 514.908 1288.65 522.217 1270.61 525.772 C 1187.31 534.533 1181.6 449.864 1187.16 387.933 C 1190.73 348.183 1208.44 316.117 1250.62 310.325 z"/>
<path transform="translate(0,0)" fill="rgb(12,17,32)" d="M 178.748 162.618 L 504.587 162.823 C 504.468 184.904 504.493 206.986 504.663 229.067 C 477.923 230.326 446.03 229.486 418.906 229.485 L 265.042 229.497 L 265.004 333.862 L 486.14 333.939 L 486.074 400.916 C 424.869 401.776 361.852 401.004 300.5 401.01 L 265.044 401.083 L 265.01 510.283 L 516.176 510.201 C 516.284 532.735 516.278 555.268 516.159 577.802 L 178.632 577.733 C 178.277 560.436 178.355 542.577 178.532 525.273 C 179.765 404.588 176.762 283.229 178.748 162.618 z"/>
<path transform="translate(0,0)" fill="rgb(12,17,32)" d="M 1836.42 258.64 C 1861.7 258.923 1886.98 258.992 1912.26 258.845 C 1908.33 278.819 1898.58 313.269 1893.06 333.337 C 1873.27 414.052 1850.17 496.961 1829.21 577.732 C 1802.64 578.109 1767.73 578.564 1741.54 577.464 C 1726.97 510.079 1707.41 442.625 1691.83 375.362 C 1687.53 356.786 1682.6 336.32 1677.03 318.21 C 1656.77 404 1632.44 492.112 1610.96 577.928 C 1581.83 577.717 1552.69 577.684 1523.56 577.827 C 1497.99 471.654 1467.07 365.018 1441.57 258.822 C 1467.34 258.969 1493.11 258.937 1518.87 258.727 C 1536.09 340.29 1553.75 421.761 1571.84 503.136 C 1574.61 484.968 1583.88 452.678 1588.66 433.745 L 1616.24 324.59 C 1621.61 303.287 1627.88 280.172 1632.31 258.882 C 1661.15 258.417 1692.95 258.641 1721.77 259.134 C 1725.59 278.428 1731.91 301.599 1736.73 320.949 L 1764.81 433.159 C 1770.5 455.853 1777.46 481.15 1781.19 503.935 C 1788.5 478.479 1795 445.031 1800.87 418.576 L 1836.42 258.64 z"/>
<path transform="translate(0,0)" fill="rgb(12,17,32)" d="M 950.001 258.637 C 976.842 259.371 1005.39 258.949 1032.36 258.994 L 1032.47 577.767 L 949.942 577.895 C 949.33 538.909 949.884 498.338 949.879 459.246 L 950.001 258.637 z"/>
<path transform="translate(0,0)" fill="rgb(12,17,32)" d="M 949.998 140.274 L 1032.67 140.419 C 1031.63 158.153 1032.31 182.917 1032.34 201.026 C 1005.74 201.703 976.767 201.171 949.95 201.299 C 949.836 180.957 949.852 160.615 949.998 140.274 z"/>
</svg>