<!-- RECRAFT VECTORIZE from logo/options-w3/T4-liberation-tracked-light.png -->
<svg version="1.1" xmlns="http://www.w3.org/2000/svg" style="display: block;" viewBox="0 0 2048 796" width="659" height="256" preserveAspectRatio="none">
<path transform="translate(0,0)" fill="rgb(255,255,255)" d="M 0 0 L 2048 0 L 2048 796 L 0 796 L 0 0 z"/>
<path transform="translate(0,0)" fill="rgb(12,17,32)" d="M 745.985 238.424 C 784.453 235.101 821.887 254.384 840.022 288.825 C 867.082 341.781 867.694 407.311 853.546 464.261 C 837.06 530.621 779.259 563.807 713.797 546.174 C 685.336 538.508 668.835 520.607 654.923 495.574 C 654.915 497.336 654.934 499.097 654.991 500.858 C 656.333 542.069 656.013 583.269 656.001 624.5 L 656.041 663.242 C 636.347 664.537 598.503 663.637 578.212 663.356 L 578.195 421.665 C 578.188 361.584 578.73 304.309 575.993 244.221 C 601.286 244.446 626.58 244.478 651.873 244.317 C 654.534 258.759 654.895 281.188 655.059 295.797 C 676.455 254.501 699.729 241.806 745.985 238.424 z"/>
<path transform="translate(0,0)" fill="rgb(255,255,255)" d="M 715.356 292.316 C 759.154 290.613 777.266 326.485 779.748 365.299 C 782.782 412.748 785.222 491.179 722.719 497.279 C 681.004 497.824 662.53 466.988 657.275 428.511 C 652.276 391.906 653.628 344.804 675.572 313.797 C 685.513 299.752 698.834 294.684 715.356 292.316 z"/>
<path transform="translate(0,0)" fill="rgb(12,17,32)" d="M 1262.02 239.412 C 1301.72 237.08 1346.44 244.275 1377.93 270.546 C 1438.86 321.387 1440.83 442.466 1392 502.005 C 1366.13 533.554 1329.19 546.498 1289.56 550.083 C 1245.81 551.717 1208.08 547.143 1172.49 517.624 C 1141.47 491.253 1126.79 452.725 1124.05 413.052 C 1117.42 317.27 1160.48 247.146 1262.02 239.412 z"/>
<path transform="translate(0,0)" fill="rgb(255,255,255)" d="M 1264.64 293.204 C 1306.12 289.166 1333.58 309.27 1340.72 351.398 C 1346.99 388.386 1347.41 438.657 1326.96 471.405 C 1317.53 486.506 1301.89 493.283 1285 496.632 C 1240.95 501.553 1214.34 475.692 1208.33 433.496 C 1200.96 381.722 1199.86 305.018 1264.64 293.204 z"/>
<path transform="translate(0,0)" fill="rgb(12,17,32)" d="M 169.261 153.524 C 271.231 153.462 374.715 152.62 476.568 153.754 L 476.715 216.39 C 451.027 217.324 422.541 216.737 396.687 216.737 L 250.25 216.818 C 249.591 248.643 250.174 283.144 250.175 315.154 L 459.135 315.28 L 459.101 378.544 C 401.584 379.774 340.313 378.702 282.5 378.701 L 250.238 378.804 C 249.794 412.876 250.157 447.79 250.181 481.929 L 487.834 481.92 L 487.804 545.525 L 168.721 545.417 C 167.114 457.717 168.697 364.991 168.683 276.888 L 168.573 195.311 C 168.557 186.005 168.015 161.347 169.261 153.524 z"/>
<path transform="translate(0,0)" fill="rgb(12,17,32)" d="M 1848.28 244.176 C 1872.22 244.43 1896.16 244.492 1920.09 244.362 C 1914.84 267.415 1907.87 292.274 1901.84 315.319 L 1841.47 545.49 C 1814.32 545.517 1785.71 545.993 1758.69 545.3 C 1745.89 483.951 1727.2 422.216 1713.39 360.944 C 1708.91 341.043 1703.52 318.828 1697.42 299.572 C 1692.78 325.935 1681.72 364.283 1674.92 390.798 L 1635.21 545.715 C 1607.72 545.423 1580.24 545.388 1552.75 545.61 C 1546.85 519.263 1538.94 492.383 1532.5 466.08 C 1514.46 392.48 1492.7 317.873 1475.44 244.267 C 1499.77 244.502 1524.11 244.485 1548.44 244.217 C 1553.4 271.081 1560.73 301.797 1566.5 328.76 C 1576.83 377.863 1587.58 426.879 1598.73 475.802 C 1600.89 457.52 1611.16 423.216 1615.74 403.974 C 1628.32 351.01 1643.81 297.4 1655.67 244.335 C 1683.3 244.416 1712.82 243.801 1740.28 244.808 C 1742.77 259.772 1748.85 281.657 1752.63 296.834 L 1779.46 403.98 C 1785.13 426.558 1792.57 453.249 1796.07 475.781 C 1803.52 450.425 1810.21 415.897 1816.03 389.599 L 1848.28 244.176 z"/>
<path transform="translate(0,0)" fill="rgb(12,17,32)" d="M 954.205 244.316 L 1032.22 244.665 L 1032.1 456.366 L 1032.28 513.662 C 1032.31 521.579 1032.74 538.472 1031.75 545.428 C 1008.72 546.516 977.812 545.586 954.165 545.602 C 952.957 446.565 953.666 343.497 954.205 244.316 z"/>
<path transform="translate(0,0)" fill="rgb(12,17,32)" d="M 954.122 132.63 C 980.195 132.396 1006.27 132.456 1032.34 132.809 C 1032.16 151.815 1032.12 170.822 1032.23 189.829 C 1007.66 190.675 979.07 189.994 954.182 190.024 C 953.837 171.23 954.13 151.497 954.122 132.63 z"/>
</svg>