<!-- RECRAFT VECTORIZE from logo/options-w3/T4-liberation-tracked-dark.png -->
<svg version="1.1" xmlns="http://www.w3.org/2000/svg" style="display: block;" viewBox="0 0 2048 796" width="659" height="256" preserveAspectRatio="none">
<path transform="translate(0,0)" fill="rgb(12,17,32)" d="M 0 0 L 2048 0 L 2048 796 L 0 796 L 0 0 z"/>
<path transform="translate(0,0)" fill="rgb(252,252,252)" d="M 745.648 238.383 C 791.236 237.057 827.214 256.288 845.533 299.62 C 867.915 354.81 868.121 422.774 848.777 479.029 C 827.846 539.899 764.398 565.06 705.368 543.4 C 682.215 534.904 664.849 516.887 655.031 494.294 C 654.963 497.525 654.995 500.745 655.108 503.973 C 656.46 542.482 656.117 580.969 656.103 619.5 L 656.158 663.285 C 632.493 664.337 602.018 663.732 578.043 663.225 L 578.079 449.607 C 578.081 380.071 578.596 313.598 576.092 244.189 L 651.813 244.173 C 654.573 257.252 654.892 282.219 655.015 295.507 C 675.859 254.706 700.369 241.742 745.648 238.383 z"/>
<path transform="translate(0,0)" fill="rgb(12,17,32)" d="M 716.41 292.379 C 782.819 290.297 783.199 371.918 779.77 419.499 C 778.28 440.188 773.203 462.718 760.135 479.266 C 750.243 491.794 737.034 495.864 721.744 497.286 C 678.24 497.213 660.183 461.856 656.591 422.951 C 652.093 374.236 654.464 299.298 716.41 292.379 z"/>
<path transform="translate(0,0)" fill="rgb(252,252,252)" d="M 1260.7 239.417 C 1350.47 233.732 1415.9 274.728 1424.76 368.807 C 1433.77 464.438 1394.5 539.91 1291.24 550.054 C 1199.23 556.163 1132.26 511.208 1124.23 415.307 C 1116.17 318.88 1159.21 248.162 1260.7 239.417 z"/>
<path transform="translate(0,0)" fill="rgb(12,17,32)" d="M 1265.33 293.288 C 1309.98 289.084 1336.76 313.739 1341.67 357.372 C 1347.55 409.585 1349.32 486.173 1283.3 496.679 C 1237.21 501.431 1212.77 471.388 1207.47 428.379 C 1201.27 378.012 1201.85 303.088 1265.33 293.288 z"/>
<path transform="translate(0,0)" fill="rgb(252,252,252)" d="M 168.808 153.382 C 223.864 151.757 285.749 153.255 341.495 153.254 L 423.691 153.257 C 440.73 153.256 459.748 152.844 476.622 153.88 C 476.103 173.968 476.631 196.413 476.656 216.69 C 402.686 218.002 324.55 216.789 250.297 216.763 C 249.847 249.141 250.203 282.619 250.182 315.074 C 319.348 315.885 389.837 315.075 459.161 315.205 L 459.109 378.787 L 279.5 378.835 L 250.254 378.89 L 250.228 481.8 L 487.936 481.897 L 487.904 545.498 C 439.552 546.583 387.698 545.627 339.114 545.65 C 282.937 545.677 224.472 546.462 168.451 545.343 C 169.724 514.882 168.522 474.989 168.52 443.947 L 168.518 257.792 C 168.52 223.524 167.971 187.549 168.808 153.382 z"/>
<path transform="translate(0,0)" fill="rgb(252,252,252)" d="M 1475.25 244.172 C 1499.6 244.319 1523.95 244.286 1548.3 244.073 C 1562.8 307.594 1575.42 371.701 1589.58 435.309 C 1592.59 448.829 1595.33 462.297 1599.24 475.605 C 1600.26 459.219 1610.68 424.495 1614.97 406.763 C 1628.05 352.638 1643.09 298.505 1655.64 244.249 C 1683.75 244.093 1711.87 244.148 1739.98 244.415 C 1750.85 296.032 1767.24 350.242 1779.02 401.944 C 1784.05 424 1793.87 453.919 1795.68 475.512 C 1802.43 455.57 1810.15 415.475 1815.03 393.522 L 1848.04 244.138 L 1920.05 244.213 C 1915.24 266.627 1908.07 291.812 1902.18 314.219 L 1841.46 545.502 C 1814.92 546.047 1785.23 545.765 1758.71 545.369 C 1753.26 517.424 1742.96 480.805 1736.05 452.701 C 1723.48 401.659 1710.93 349.867 1697.67 299.047 C 1692.94 325.499 1682.02 363.443 1675.12 390.371 L 1635.21 545.763 C 1608 545.264 1579.89 545.605 1552.61 545.597 C 1546.94 517.196 1536.25 481.911 1529.06 452.965 C 1511.77 383.387 1492.24 313.812 1475.25 244.172 z"/>
<path transform="translate(0,0)" fill="rgb(252,252,252)" d="M 954.049 244.269 C 980.103 244.084 1006.16 244.169 1032.21 244.522 L 1032.19 438.981 C 1032.2 471.48 1033.58 514.22 1031.9 545.492 C 1008 546.264 977.876 545.8 953.973 545.421 L 954.049 244.269 z"/>
<path transform="translate(0,0)" fill="rgb(252,252,252)" d="M 957.894 132.461 C 982.162 132.454 1008.24 132.017 1032.35 132.918 C 1032.24 143.097 1032.97 181.013 1031.71 188.981 L 1030.07 190.107 L 953.971 190.061 C 953.903 181.952 952.839 138.383 954.936 133.257 L 957.894 132.461 z"/>
</svg>