<!-- RECRAFT VECTORIZE from logo/options-w3/T5-freesans-bold-light.png -->
<svg version="1.1" xmlns="http://www.w3.org/2000/svg" style="display: block;" viewBox="0 0 2048 859" width="610" height="256" preserveAspectRatio="none">
<path transform="translate(0,0)" fill="rgb(255,255,255)" d="M 0 0 L 2048 0 L 2048 859 L 0 859 L 0 0 z"/>
<path transform="translate(0,0)" fill="rgb(12,17,32)" d="M 733.672 286.398 C 745.581 285.162 761.149 286.286 772.83 288.897 C 804.299 295.556 830.216 317.618 846.781 344.938 C 893.093 421.318 883.472 549.155 803.521 600.055 C 779.224 615.523 746.385 620.155 718.621 613.717 C 690.382 607.169 671.865 589.529 657.081 565.437 C 657.546 598.206 657.219 631.678 657.237 664.5 L 657.147 728.771 C 630.749 729.268 602.944 728.829 576.433 728.838 C 576.082 709.421 576.116 689.68 576.264 670.258 C 577.231 543.761 574.796 416.842 576.473 290.393 L 657.244 290.577 L 657.132 337.175 C 677.741 305.792 694.982 290.394 733.672 286.398 z"/>
<path transform="translate(0,0)" fill="rgb(255,255,255)" d="M 719.589 353.309 C 771.59 350.38 791.593 399.886 793.277 444.275 C 794.93 487.84 781.465 541.632 731.013 548.655 C 686.503 550.229 665.572 517.445 659.216 476.796 C 652.037 430.886 663.36 360.932 719.589 353.309 z"/>
<path transform="translate(0,0)" fill="rgb(12,17,32)" d="M 187.049 181.348 C 199.033 181.657 211.63 181.529 223.632 181.428 C 312.603 180.68 401.995 182.764 490.914 181.334 L 491.024 253.537 L 273.548 253.682 C 273.389 285.486 273.422 317.292 273.646 349.096 L 474.624 349.024 C 475.28 372.28 474.805 397.678 474.82 421.096 C 411.37 422.319 344.013 421.186 280.246 421.147 C 276.199 421.236 276.369 420.565 273.765 422.597 C 272.866 428.614 273.401 449.94 273.409 457.039 L 273.656 530.938 L 501.722 531 C 501.417 554.803 501.375 578.61 501.598 602.414 C 468.056 603.933 426.168 602.795 391.707 602.796 L 186.82 602.722 C 185.579 503.384 187.439 403.536 186.74 304.129 C 186.454 263.504 186.169 221.941 187.049 181.348 z"/>
<path transform="translate(0,0)" fill="rgb(12,17,32)" d="M 1249.89 286.426 C 1346.46 278.829 1410.09 332.476 1418.44 429.046 C 1426.77 525.275 1384.9 607.274 1280.21 615.408 L 1279.66 615.464 C 1186.86 624.048 1119.91 566.374 1112.61 473.896 C 1104.97 377.29 1144.24 294.889 1249.89 286.426 z"/>
<path transform="translate(0,0)" fill="rgb(255,255,255)" d="M 1257.34 351.361 C 1301.38 347.675 1327.3 376.906 1335.72 418.03 C 1345.82 467.388 1334.68 538.071 1276.19 549.96 C 1228.41 554.469 1201.94 522.717 1194.44 477.728 C 1186.3 428.825 1199 360.583 1257.34 351.361 z"/>
<path transform="translate(0,0)" fill="rgb(12,17,32)" d="M 1643.82 290.219 C 1670.84 290.551 1697.87 290.593 1724.89 290.346 C 1735.87 347.152 1749.71 403.91 1761.11 460.68 C 1764.34 476.765 1767.87 494.4 1772.59 509.986 C 1775.72 485.851 1783.8 452.997 1789.09 428.639 L 1819.03 290.23 C 1846.8 290.757 1874.75 290.342 1902.62 290.773 C 1895.51 312.817 1888.52 340.652 1882.12 363.362 C 1858.61 440.86 1836.47 524.624 1814.22 602.933 L 1730.49 602.835 C 1719.84 547.917 1706.78 493.136 1695.67 438.269 C 1691.9 419.622 1688 400.729 1682.45 382.529 C 1679.36 406.249 1670.94 439.379 1665.51 463.41 L 1634.16 602.816 C 1607.95 603.173 1576.41 603.506 1550.45 602.587 C 1544.26 575.634 1534.18 543.049 1526.52 515.863 L 1484.02 364.748 C 1477.52 341.656 1468.52 313.247 1463.5 290.447 C 1490.75 291.24 1519.62 290.123 1547.37 290.743 C 1550.57 310.301 1556.62 332.222 1560.7 351.817 C 1571.44 403.353 1586.41 457.436 1595.93 508.9 C 1601.55 492.168 1609.93 448.048 1613.96 429.084 C 1623.69 383.219 1634.88 336.09 1643.82 290.219 z"/>
<path transform="translate(0,0)" fill="rgb(12,17,32)" d="M 952.486 290.366 L 1033.27 290.595 L 1033.28 602.548 C 1007.59 603.438 978.495 602.769 952.557 602.746 C 951.618 562.432 952.298 519.457 952.294 478.956 L 952.486 290.366 z"/>
<path transform="translate(0,0)" fill="rgb(12,17,32)" d="M 952.726 181.27 C 974.585 182.425 1011.01 181.679 1033.22 181.364 C 1033.6 205.235 1032.79 229.421 1033.58 253.297 C 1009.12 254.528 977.44 253.627 952.443 253.624 C 951.939 231.933 951.882 202.607 952.726 181.27 z"/>
</svg>