<!-- RECRAFT VECTORIZE from logo/options-w3/T5-freesans-bold-dark.png -->
<svg version="1.1" xmlns="http://www.w3.org/2000/svg" style="display: block;" viewBox="0 0 2048 859" width="610" height="256" preserveAspectRatio="none">
<path transform="translate(0,0)" fill="rgb(12,17,32)" d="M 0 0 L 2048 0 L 2048 859 L 0 859 L 0 0 z"/>
<path transform="translate(0,0)" fill="rgb(252,252,252)" d="M 732.592 286.357 C 745.812 284.567 768.693 286.828 781.447 291.152 C 901.49 331.851 904.911 549.876 795.406 604.703 C 746.219 629.33 683.664 616.876 657.227 564.586 C 658.975 590.878 657.518 634.991 657.464 662.5 L 657.367 728.908 L 576.42 728.915 C 574.82 677.41 576.288 618.884 576.285 566.642 L 576.423 290.485 C 603.51 290.227 630.6 290.275 657.686 290.63 C 657.185 306.357 658.175 321.437 656.849 337.391 C 677.086 306.038 694.447 291.077 732.592 286.357 z"/>
<path transform="translate(0,0)" fill="rgb(12,17,32)" d="M 721.518 353.35 C 735.352 352.281 749.094 356.35 760.116 364.779 C 810.239 403.539 807.954 539.154 729.817 548.661 C 683.471 549.871 663.247 512.265 658.584 470.718 C 653.451 424.984 665.67 358.796 721.518 353.35 z"/>
<path transform="translate(0,0)" fill="rgb(252,252,252)" d="M 186.743 181.359 C 222.919 180.618 261.324 181.214 297.661 181.21 L 490.974 181.305 L 490.993 253.506 C 421.2 255.167 344.092 253.622 273.667 253.564 C 273.106 284.637 273.358 317.944 273.667 349.03 L 474.632 348.984 C 475.211 372.437 474.796 397.586 474.825 421.17 L 280.75 421.166 C 278.842 421.134 276.872 421.297 274.961 421.413 C 272.297 424.336 273.554 518.471 273.693 530.947 C 347.652 530.023 427.885 529.781 501.751 531.044 C 501.503 554.935 501.477 578.827 501.674 602.719 C 398.525 604.147 290.008 603.417 186.688 602.732 C 186.167 586.626 186.407 569.578 186.542 553.436 C 187.58 429.55 185.005 305.193 186.743 181.359 z"/>
<path transform="translate(0,0)" fill="rgb(252,252,252)" d="M 1248.83 286.413 C 1344.71 278.622 1409.44 330.693 1418.4 427.702 C 1427.26 523.566 1386.2 606.686 1281.25 615.436 C 1280.55 615.521 1279.85 615.594 1279.15 615.657 C 1187.41 623.792 1120.61 567.221 1112.7 475.799 C 1104.29 378.539 1142.85 296.177 1248.83 286.413 z"/>
<path transform="translate(0,0)" fill="rgb(12,17,32)" d="M 1257.65 351.407 C 1299.7 347.026 1327.04 376.842 1335.12 415.851 C 1345.68 466.793 1335.91 536.814 1275.94 550.016 C 1221.85 554.807 1196.7 513.095 1192.91 464.213 C 1189.23 416.901 1203.72 360.026 1257.65 351.407 z"/>
<path transform="translate(0,0)" fill="rgb(252,252,252)" d="M 1643.75 290.239 L 1725.09 290.36 C 1733.82 340.916 1747.8 392.615 1757.5 443.189 C 1761.59 464.503 1766.75 490.344 1772.87 510.886 C 1774.49 489.829 1784.05 450.97 1788.81 429.106 L 1818.89 290.383 C 1844.87 290.102 1876.95 289.725 1902.57 290.889 L 1880.91 367.76 L 1814.45 602.955 L 1730.45 602.917 L 1699.74 458.125 C 1694.22 432.596 1689.33 407.468 1682.93 382.126 C 1670.97 452.676 1648.78 531.49 1634.4 602.849 C 1606.8 603.302 1578.17 602.916 1550.49 602.921 C 1543.72 573.906 1462.94 295.123 1464.24 291.127 L 1466.48 290.472 C 1489.73 289.818 1524.42 289.789 1547.4 290.747 C 1550.54 309.176 1556.03 330.983 1560.24 349.448 L 1582.76 448.014 C 1586.94 466.349 1593.54 491.775 1595.81 509.806 C 1603 482.627 1609.33 450.023 1615.36 422.251 C 1624.85 378.511 1634.86 334.062 1643.75 290.239 z"/>
<path transform="translate(0,0)" fill="rgb(252,252,252)" d="M 952.479 290.476 C 979.537 290.234 1006.6 290.288 1033.65 290.637 L 1033.48 601.637 C 1030.37 603.847 962.134 602.825 952.624 602.794 C 951.226 568.054 952.353 524.976 952.351 489.683 L 952.479 290.476 z"/>
<path transform="translate(0,0)" fill="rgb(252,252,252)" d="M 952.589 181.262 L 1033.53 181.321 C 1033.51 204.905 1033.11 229.885 1033.8 253.348 C 1009.65 254.585 977.158 253.669 952.401 253.453 C 952.235 229.389 952.297 205.324 952.589 181.262 z"/>
</svg>