<!-- RECRAFT VECTORIZE from logo/options-w3/T6-dejavu-lower-dark.png -->
<svg version="1.1" xmlns="http://www.w3.org/2000/svg" style="display: block;" viewBox="0 0 2048 764" width="686" height="256" preserveAspectRatio="none">
<path transform="translate(0,0)" fill="rgb(12,17,32)" d="M 0 0 L 2048 0 L 2048 764 L 0 764 L 0 0 z"/>
<path transform="translate(0,0)" fill="rgb(251,252,252)" d="M 707.012 226.382 C 749.021 221.404 786.985 239.574 810.936 274.125 C 874.016 365.12 833.553 546.054 695.803 522.372 C 666.67 517.364 642.361 499.888 625.661 475.848 C 624.64 508.927 625.291 545.154 625.299 578.5 L 625.318 625.504 L 534.063 625.426 L 534.135 232.504 C 560.772 231.283 598.331 232.323 625.278 232.451 L 625.412 274.46 C 627.25 271.845 629.162 269.283 631.145 266.776 C 651.121 241.976 675.894 229.826 707.012 226.382 z"/>
<path transform="translate(0,0)" fill="rgb(12,17,32)" d="M 675.431 292.326 C 714.397 289.727 737.646 307.777 743.495 347.736 C 749.573 389.253 746.006 449.653 694.243 457.837 C 658.304 460.301 634.471 442.671 628.255 406.971 C 620.759 363.919 623.433 303.199 675.431 292.326 z"/>
<path transform="translate(0,0)" fill="rgb(251,252,252)" d="M 1465.58 232.5 C 1492.31 231.403 1525.77 232.271 1553.16 232.229 L 1580.22 343.725 C 1587.09 371.872 1593.98 402.177 1601.95 429.855 C 1603.15 415.005 1612.94 379.355 1616.91 363.169 L 1648.8 232.332 C 1674.29 232.233 1699.78 232.268 1725.26 232.439 C 1737.97 286.892 1752.08 341.11 1765.18 395.477 C 1767.79 406.345 1770.58 417.149 1773.57 427.92 C 1776.36 408.284 1783.54 384.141 1788.1 364.57 C 1798.29 320.818 1811.02 276.372 1820.41 232.524 C 1848.01 231.462 1881.36 232.346 1909.36 232.417 C 1903.34 256.681 1896.48 281.52 1890.11 305.758 L 1834.31 517.312 C 1801.38 516.961 1767.83 517.252 1734.85 517.26 C 1723.07 466.488 1709.63 415.898 1697.64 365.16 C 1694.14 350.319 1690.42 335.109 1685.96 320.546 C 1684.4 335.882 1675.13 370.015 1671.11 386.481 C 1660.27 429.988 1649.68 473.559 1639.36 517.191 L 1539.4 517.221 C 1532.67 490.115 1464.71 235.828 1465.58 232.5 z"/>
<path transform="translate(0,0)" fill="rgb(251,252,252)" d="M 1233.95 226.413 C 1318.45 217.48 1398.31 259.715 1406.86 351.713 C 1412.59 413.354 1397.66 472.901 1339.16 505.088 C 1316.21 517.716 1295.57 521.243 1269.99 523.822 C 1181.21 528.356 1106.14 494.435 1096.42 395.442 C 1087.02 299.662 1136.36 234.86 1233.95 226.413 z"/>
<path transform="translate(0,0)" fill="rgb(12,17,32)" d="M 1243.44 291.278 C 1292.9 287.414 1311.62 321.592 1313.06 366.822 C 1314.35 407.251 1307.45 451.184 1260.28 458.914 C 1219.97 460.677 1197.8 441.187 1192.01 400.421 C 1186.02 358.164 1191.22 299.002 1243.44 291.278 z"/>
<path transform="translate(0,0)" fill="rgb(251,252,252)" d="M 283.607 226.41 C 333.62 220.955 386.678 236.21 418.716 276.69 C 449.245 315.263 449.721 353.886 449.724 399.979 C 379.507 400.964 307.049 400.079 236.656 400.095 C 249.707 495.627 366.736 464.286 425.206 435.303 L 436.141 429.618 L 436.231 500.062 C 400.384 512.475 374.879 519.067 337.199 523.06 C 244.985 532.651 153.47 500.064 144.943 393.698 C 137.261 297.889 186.329 234.684 283.607 226.41 z"/>
<path transform="translate(0,0)" fill="rgb(12,17,32)" d="M 297.466 286.397 C 337.176 286.557 352.497 306.387 356.2 343.956 L 297.5 343.918 L 237.771 343.858 C 244.855 308.034 260.024 289.6 297.466 286.397 z"/>
<path transform="translate(0,0)" fill="rgb(251,252,252)" d="M 923.464 232.459 C 950.666 231.97 986.902 231.622 1013.76 232.786 C 1013.66 259.137 1014.43 514.652 1012.74 517.083 L 922.476 517.058 C 922.48 488.815 921.623 236.145 923.464 232.459 z"/>
<path transform="translate(0,0)" fill="rgb(251,252,252)" d="M 923.557 121.472 L 1013.64 121.675 C 1013.66 129.583 1014.59 192.98 1012.71 195.893 L 922.609 195.893 C 922.493 186.197 921.475 125.913 923.557 121.472 z"/>
</svg>