<!-- RECRAFT VECTORIZE from logo/options-w3/T6-dejavu-lower-light.png -->
<svg version="1.1" xmlns="http://www.w3.org/2000/svg" style="display: block;" viewBox="0 0 2048 764" width="686" height="256" preserveAspectRatio="none">
<path transform="translate(0,0)" fill="rgb(255,255,255)" d="M 0 0 L 2048 0 L 2048 764 L 0 764 L 0 0 z"/>
<path transform="translate(0,0)" fill="rgb(12,17,32)" d="M 706.784 226.394 C 886.19 207.264 884.35 551.719 698.771 522.745 C 666.666 517.733 644.58 501.401 625.498 475.782 C 624.828 508.712 625.295 543.431 625.29 576.5 L 625.321 625.314 C 600.761 626.884 560.36 625.602 534.24 625.551 L 534.309 232.635 C 562.905 231.74 596.628 232.419 625.321 232.653 L 625.429 274.318 C 627.267 271.908 629.141 269.525 631.048 267.17 C 651.145 242.448 675.338 229.665 706.784 226.394 z"/>
<path transform="translate(0,0)" fill="rgb(255,255,255)" d="M 676.286 292.318 C 727.113 288.532 744.119 322.63 745.464 369.109 C 746.587 407.869 739.041 450.401 694.131 457.939 C 657.013 460.001 634.058 442.661 627.977 405.567 C 620.898 362.387 623.756 302.223 676.286 292.318 z"/>
<path transform="translate(0,0)" fill="rgb(12,17,32)" d="M 1480.74 232.493 C 1504.92 232.588 1529.1 232.508 1553.28 232.253 C 1556.28 250.087 1564.93 281.134 1569.57 300.096 C 1579.87 343.057 1590.45 385.953 1601.29 428.783 C 1604.78 410.199 1610.95 388.67 1615.33 369.959 C 1626.03 324.309 1638.62 278.39 1648.72 232.647 C 1671.94 231.592 1701.51 232.419 1725.22 232.401 C 1736.43 282.285 1750.02 331.941 1761.71 381.748 C 1765.27 396.907 1768.98 412.544 1773.47 427.411 C 1786.78 362.813 1806.66 297.278 1820.42 232.837 C 1845.64 231.372 1883.56 232.456 1909.35 232.764 L 1887.83 314.113 L 1834.32 517.129 L 1735.05 517.2 L 1704.3 391.914 C 1699.16 370.945 1692.65 340.812 1685.82 321.103 C 1684.22 336.529 1675.55 367.129 1671.84 383.094 C 1661.52 427.53 1648.94 472.448 1639.53 517.017 C 1606.42 517.439 1572.65 517.11 1539.48 517.084 C 1516.61 422.781 1488.69 327.258 1464.93 232.841 L 1480.74 232.493 z"/>
<path transform="translate(0,0)" fill="rgb(12,17,32)" d="M 1234.12 226.411 L 1234.61 226.369 C 1323.41 219.069 1399.61 260.431 1407.32 356.673 C 1414.85 450.745 1367.73 515.934 1270.25 523.625 C 1225.03 526.656 1179.75 520.038 1143.03 490.132 C 1083.97 442.03 1080.37 332.747 1127.48 275.476 C 1154.26 242.909 1192.97 229.878 1234.12 226.411 z"/>
<path transform="translate(0,0)" fill="rgb(255,255,255)" d="M 1243.36 291.213 C 1281.37 289.294 1304.95 307.195 1310.94 345.246 C 1317.89 389.417 1314.48 449.128 1261.11 458.931 C 1246.31 459.672 1231.25 458.991 1218.48 449.811 C 1182.41 423.891 1183.35 347.822 1205.44 313.381 C 1214.22 299.697 1228.17 293.966 1243.36 291.213 z"/>
<path transform="translate(0,0)" fill="rgb(12,17,32)" d="M 283.651 226.415 C 325.65 220.109 379.151 235.337 408.886 265.769 C 448.509 306.323 449.319 347.758 449.508 399.866 C 380.112 401.302 306.483 399.865 236.585 400.036 C 248.348 495.147 365.429 464.433 423.404 436.262 L 436.028 429.996 L 436.144 499.926 C 363.988 527.876 255.301 541.379 190.931 488.724 C 132.731 441.116 129.12 332.487 176.174 276.194 C 204.107 242.776 242.016 229.95 283.651 226.415 z"/>
<path transform="translate(0,0)" fill="rgb(255,255,255)" d="M 295.282 286.431 C 335.524 284.216 352.694 306.612 356.21 343.999 L 299.5 344.03 L 237.47 343.916 C 245.392 309.278 258.014 290.519 295.282 286.431 z"/>
<path transform="translate(0,0)" fill="rgb(12,17,32)" d="M 922.723 232.753 C 952.018 232.04 984.37 232.577 1013.69 232.73 C 1012.65 326.871 1013.57 422.644 1013.59 516.913 C 986.053 518.035 950.838 517.071 922.729 517.054 C 922.087 483.464 922.652 447.886 922.646 414.162 L 922.723 232.753 z"/>
<path transform="translate(0,0)" fill="rgb(12,17,32)" d="M 922.895 121.527 C 952.83 121.156 983.542 121.564 1013.54 121.618 L 1013.61 195.709 C 984.813 196.665 951.81 195.859 922.697 195.842 C 922.633 171.637 922.112 145.582 922.895 121.527 z"/>
</svg>