<!-- RECRAFT VECTORIZE from logo/reverse/icon-vision-v1.png -->
<svg version="1.1" xmlns="http://www.w3.org/2000/svg" style="display: block;" viewBox="0 0 2048 2048" width="512" height="512" preserveAspectRatio="none">
<defs>
	<linearGradient id="Gradient1" gradientUnits="userSpaceOnUse" x1="130.085" y1="128.907" x2="1917.41" y2="1917.6">
		<stop class="stop0" offset="0" stop-opacity="1" stop-color="rgb(76,68,203)"/>
		<stop class="stop1" offset="1" stop-opacity="1" stop-color="rgb(131,97,216)"/>
	</linearGradient>
</defs>
<path transform="translate(0,0)" fill="url(#Gradient1)" d="M 405.271 0 L 1638.67 0 C 1648.19 4.33895 1670.41 4.20788 1681.57 6.77956 C 1698.37 10.6509 1714.35 14.6351 1730.63 20.4487 C 1858.55 67.4732 1961.48 165.094 2015.2 290.359 C 2026.75 316.76 2035.35 343.977 2041.36 372.17 C 2043.45 381.953 2045.59 403.941 2048 411.497 L 2048 1643.87 C 2045.5 1654.18 2044.75 1665.61 2043.2 1676.18 C 2040.86 1692.19 2037.6 1708.05 2033.43 1723.68 C 2004.78 1829.07 1937.99 1920.05 1846.03 1978.95 C 1801.69 2007.11 1752.76 2027.28 1701.46 2038.56 C 1692.23 2040.6 1653.98 2046.08 1649.44 2048 L 402.489 2048 C 397.421 2046.28 390.474 2045.12 385.192 2044.28 C 200.082 2015.06 44.6907 1852.94 6.0675 1672.22 C 3.76906 1661.47 3.38051 1648.1 0 1637.51 L 0 405.202 C 1.49007 401.053 4.60143 370.871 6.31189 361.83 C 13.5523 321.42 26.468 282.237 44.6757 245.442 C 98.2534 135.99 194.993 53.7955 311.661 18.5978 C 332.025 12.5204 352.778 7.83244 373.778 4.56611 C 383.124 3.07159 396.945 3.18011 405.271 0 z"/>
<path transform="translate(0,0)" fill="rgb(254,254,254)" d="M 431.929 599.953 L 769.935 599.878 L 866.502 599.828 C 906.679 599.8 942.39 594.664 973.616 625.154 C 990.518 641.653 1000.01 664.301 999.908 687.92 C 999.947 711.314 990.676 733.761 974.141 750.309 C 962.842 761.716 948.517 769.654 932.855 773.186 C 915.672 776.895 895.571 776.099 877.81 776.107 L 820.521 776.117 L 608.105 776.141 L 608.105 935.918 L 791.329 935.85 C 815.445 935.844 839.636 935.901 863.748 935.923 C 891.178 935.949 912.649 941 932.985 960.525 C 950.204 977.12 959.938 1000 959.956 1023.91 C 959.979 1047.31 950.682 1069.75 934.12 1086.28 C 922.971 1097.56 908.858 1105.47 893.411 1109.08 C 872.856 1113.69 817.964 1112.12 794.879 1112.12 L 626.19 1112.09 L 608.1 1112.14 L 608.102 1271.92 L 821.607 1271.86 L 879.549 1271.84 C 916.648 1271.86 945.146 1269.17 973.648 1297.26 C 990.477 1313.85 999.999 1336.46 1000.11 1360.1 C 1000.24 1383.53 990.258 1405.48 974.11 1422.28 C 944.991 1452.57 906.878 1448.14 868.464 1448.13 L 774.032 1448.06 L 431.946 1448.03 L 431.929 599.953 z"/>
<path transform="translate(0,0)" fill="rgb(254,254,254)" d="M 1259.03 600.41 C 1270.09 599.277 1292.29 601.021 1303.21 602.504 C 1392.34 614.351 1468.77 665.617 1522.95 735.936 C 1666.51 922.288 1644.23 1236.5 1452.27 1382.78 C 1406.09 1418.25 1351.02 1440.3 1293.11 1446.51 C 1279.44 1447.88 1265.67 1448.74 1252.01 1446.91 C 1245.03 1446.63 1233.58 1443 1227.21 1440.08 C 1205.95 1430.27 1189.5 1412.37 1181.5 1390.36 C 1172.92 1366.73 1174.91 1342.79 1185.41 1320.22 C 1159.48 1320.27 1138.15 1315.78 1118.04 1298.26 C 1100.51 1282.98 1089.83 1261.33 1088.38 1238.12 C 1085.73 1194.92 1113.54 1156.02 1155.42 1146.53 C 1181.56 1140.61 1197.21 1146.75 1220.65 1126.61 C 1253.96 1097.98 1266.25 1053.62 1263.22 1010.98 C 1261.92 973.155 1235.03 917.179 1194.97 907.208 C 1163.72 899.431 1147.32 907.52 1118.3 882.425 C 1100.48 866.983 1089.65 845.006 1088.25 821.469 C 1086.84 797.763 1094.95 774.474 1110.77 756.761 C 1131.9 733.446 1155.39 728.891 1185.01 727.414 C 1180.7 718.301 1177.66 706.941 1176.62 696.927 C 1174.14 673.624 1181.1 650.298 1195.95 632.17 C 1212.67 611.768 1233.37 602.795 1259.03 600.41 z"/>
<path transform="translate(0,0)" fill="rgb(211,208,226)" d="M 1412.61 892.682 C 1415.87 896.165 1419.54 906.003 1421.21 910.646 C 1432.82 942.911 1440.08 976.617 1438.47 1011.07 C 1437.76 1010.08 1433.85 946.727 1427.32 937.196 C 1427.64 937.66 1412.8 893.602 1412.61 892.682 z"/>
<path transform="translate(0,0)" fill="rgb(211,208,226)" d="M 1436.77 1062.44 C 1444.37 1074.12 1417.51 1146.92 1411.09 1161.42 C 1409.5 1157.83 1415.41 1146.57 1417.31 1141.83 C 1427.98 1115.19 1432.76 1090.62 1436.77 1062.44 z"/>
</svg>