<!-- RECRAFT VECTORIZE from logo/options-v2/ai-inspired/AI1-e-ring-flat.png -->
<svg version="1.1" xmlns="http://www.w3.org/2000/svg" style="display: block;" viewBox="0 0 2048 2048" width="512" height="512" preserveAspectRatio="none">
<path transform="translate(0,0)" fill="rgb(77,77,147)" d="M 0 0 L 389.25 0 L 1656.97 0 L 2048 0 L 2048 392.48 L 2048 1656.95 L 2048 2048 L 1653.92 2048 L 390.216 2048 L 0 2048 L 0 1657.58 L 0 392.268 L 0 0 z"/>
<path transform="translate(0,0)" fill="rgb(253,253,252)" d="M 1656.97 0 L 2048 0 L 2048 392.48 C 2046.18 388.504 2041.99 355.914 2040.63 348.444 C 2037.55 331.962 2033.48 315.681 2028.45 299.689 C 1986.95 167.106 1883.51 63.0257 1751.18 20.7122 C 1731.38 14.322 1711.55 9.4238 1691.04 5.96174 C 1684.35 4.83404 1661.42 2.75226 1656.97 0 z"/>
<path transform="translate(0,0)" fill="rgb(253,253,252)" d="M 0 0 L 389.25 0 C 383.883 3.13791 346.8 7.43167 337.622 9.34802 C 323.034 12.5455 308.612 16.4582 294.409 21.072 C 137.05 72.5895 21.6683 211.576 3.16308 376.443 C 2.73408 380.265 1.75598 389.233 0 392.268 L 0 0 z"/>
<path transform="translate(0,0)" fill="rgb(253,253,252)" d="M 2048 1656.95 L 2048 2048 L 1653.92 2048 C 1656.3 2046.61 1710.64 2038.97 1720.38 2036.51 C 1753.39 2028.14 1784.48 2016.69 1814.91 2001.34 C 1918.85 1948.46 1996.7 1855.44 2030.43 1743.8 C 2036.71 1723.08 2041.53 1702.13 2044.22 1680.64 C 2045.08 1673.77 2045.68 1663.07 2048 1656.95 z"/>
<path transform="translate(0,0)" fill="rgb(253,253,252)" d="M 0 1657.58 C 3.07028 1668.28 4.21197 1682.3 5.97761 1693.49 C 8.41286 1708.39 11.7177 1723.14 15.8751 1737.65 C 45.941 1843.61 115.851 1933.82 210.955 1989.38 C 249.973 2012.17 292.335 2028.69 336.486 2038.32 C 345.967 2040.47 385.66 2045.55 390.216 2048 L 0 2048 L 0 1657.58 z"/>
<path transform="translate(0,0)" fill="rgb(253,253,252)" d="M 452.991 519.051 L 1197.9 519.362 L 1198.03 625.061 C 1148.31 639.143 1109.79 660.701 1068 689.919 C 1056.29 689.197 1040.2 689.67 1028.26 689.677 L 955.386 689.732 L 779.414 689.732 C 741.249 689.777 701.169 690.412 663.169 689.373 L 663.122 939.065 L 1138.72 939.177 L 1138.81 1109.08 C 1092.23 1108.39 1044.11 1109 997.428 1109 L 717.5 1109.05 L 663.122 1108.95 L 663.052 1358.64 C 674.478 1357.64 694.79 1358.27 707.075 1358.24 L 795.14 1358.2 L 1067.08 1358.15 C 1099.27 1381.83 1158.66 1415.29 1197.99 1422.84 C 1197.53 1457.76 1197.97 1493.65 1197.98 1528.66 L 453.016 1528.66 L 452.991 519.051 z"/>
<path transform="translate(0,0)" fill="rgb(253,253,252)" d="M 1301.13 656.434 C 1356.07 654.578 1410.71 665.126 1461.01 687.295 C 1551.05 726.441 1621.85 799.748 1657.85 891.093 C 1693.05 981.449 1691.04 1082.07 1652.25 1170.94 C 1613.39 1260.22 1540.68 1330.43 1450.09 1366.15 C 1357.95 1402.95 1254.91 1401.32 1163.97 1361.63 C 1067.92 1319.26 1001.99 1245.08 964.479 1148.04 C 995.57 1148.62 1028.51 1148.02 1059.75 1147.98 C 1080.75 1194.98 1121.54 1235.71 1164.45 1263.23 C 1175.27 1269.8 1186.48 1275.69 1198.03 1280.87 C 1267.4 1311.45 1346.09 1313.17 1416.72 1285.63 C 1486.31 1258.12 1542.26 1204.32 1572.49 1135.87 C 1601.86 1067.52 1602.84 990.297 1575.21 921.229 C 1547.43 851.723 1493.23 796.067 1424.48 766.467 C 1355.65 737.17 1278.07 736.047 1208.42 763.339 C 1148.95 787.198 1085.8 840.545 1060.31 900.05 C 1030.24 899.402 994.808 899.284 964.702 899.956 C 1024.11 752.691 1141.76 664.855 1301.13 656.434 z"/>
</svg>