<!-- RECRAFT VECTORIZE from logo/options-v2/ai-inspired/AI2-bars.png -->
<svg version="1.1" xmlns="http://www.w3.org/2000/svg" style="display: block;" viewBox="0 0 2048 2048" width="512" height="512" preserveAspectRatio="none">
<path transform="translate(0,0)" fill="rgb(59,53,128)" d="M 0 0 L 418.058 0 L 1626.14 0 L 2048 0 L 2048 412.237 L 2048 1639.75 L 2048 2048 L 1640.8 2048 L 408.234 2048 L 0 2048 L 0 1623.65 L 0 426.115 L 0 0 z"/>
<path transform="translate(0,0)" fill="rgb(252,252,252)" d="M 0 0 L 418.058 0 C 414.522 2.13972 405.724 3.22991 401.358 3.83142 C 371.34 7.96627 342.816 14.3879 314.03 23.9474 C 173.965 71.0902 65.0173 182.565 21.0978 323.674 C 16.3789 338.589 12.512 353.761 9.51579 369.115 C 7.50491 379.23 2.36251 421.761 0 426.115 L 0 0 z"/>
<path transform="translate(0,0)" fill="rgb(252,252,252)" d="M 1626.14 0 L 2048 0 L 2048 412.237 C 2045.68 405.272 2041.99 378.215 2040 368.27 C 2033.91 339.286 2025.17 310.925 2013.87 283.548 C 1961.87 158.543 1857.49 62.7533 1728.49 21.6465 C 1712 16.5288 1695.25 12.2867 1678.31 8.9379 C 1669.94 7.29842 1629.15 1.87456 1626.14 0 z"/>
<path transform="translate(0,0)" fill="rgb(252,252,252)" d="M 0 1623.65 C 3.01367 1634.56 3.67041 1648.94 5.40031 1660.4 C 8.36165 1679.15 12.4575 1697.71 17.6652 1715.96 C 50.194 1829.54 125.104 1926.29 226.921 1986.22 C 268.229 2010.54 313.101 2028.23 359.897 2038.63 C 368.654 2040.67 403.944 2046.11 408.234 2048 L 0 2048 L 0 1623.65 z"/>
<path transform="translate(0,0)" fill="rgb(252,252,252)" d="M 2048 1639.75 L 2048 2048 L 1640.8 2048 C 1645.52 2045.47 1685.38 2040.05 1693.74 2038.05 C 1732.93 2028.78 1770.75 2014.47 1806.27 1995.48 C 1912.22 1938.42 1991.93 1842.52 2028.67 1727.93 C 2034.33 1709.77 2038.76 1691.25 2041.93 1672.5 C 2043.68 1662.62 2044.98 1649.04 2048 1639.75 z"/>
<path transform="translate(0,0)" fill="rgb(252,252,252)" d="M 514.397 1281.39 C 528.287 1280.24 556.165 1281.04 570.687 1281.05 L 679.565 1281.09 L 1023.39 1281.07 L 1368.74 1281.06 L 1478.89 1281 C 1498.27 1280.99 1518.51 1280.7 1537.83 1281.45 C 1550.31 1282.57 1561.91 1287.64 1571.72 1295.19 C 1595.58 1313.55 1597.83 1340.76 1597.04 1368.71 C 1596.51 1387.11 1598.31 1406.7 1594.79 1424.95 C 1593.19 1433.26 1587.82 1442.81 1582.6 1449.42 C 1571.33 1463.26 1556.12 1472.22 1538.25 1474.04 C 1521.89 1475.57 1497.24 1474.85 1480.23 1474.85 L 1380.51 1474.84 L 1059.19 1474.81 L 693.847 1474.83 L 576.761 1474.85 C 555.75 1474.85 533.995 1475.17 513.043 1474.38 C 499.171 1473.85 488.446 1468.45 477.686 1460.35 C 465.703 1451.33 454.202 1431.84 453.828 1416.23 C 453.955 1389.31 450.805 1357.27 455.502 1330.93 C 460.527 1302.75 487.468 1283.89 514.397 1281.39 z"/>
<path transform="translate(0,0)" fill="rgb(252,252,252)" d="M 523.127 574.481 C 597.857 573.217 676.344 574.366 751.34 574.369 L 1197.96 574.39 L 1426.04 574.423 L 1496.5 574.308 C 1525.51 574.251 1551.47 570.604 1575.03 591.347 C 1600.88 614.121 1596.87 646.009 1597.02 676.984 C 1597.15 702.17 1598.23 727.203 1579.48 746.673 C 1564.63 762.191 1549.85 767.3 1528.67 767.975 L 832.81 768.038 L 618.32 768.04 L 550.547 768.062 C 522.573 768.063 497.035 771.636 474.369 751.119 C 445.638 725.615 455.034 689.933 453.203 657.253 C 450.5 608.998 471.787 576.145 523.127 574.481 z"/>
<path transform="translate(0,0)" fill="rgb(252,252,252)" d="M 826.244 927.499 L 1109.42 927.544 L 1190.17 927.419 C 1208.2 927.44 1229.94 926.366 1247.2 929.699 C 1276.63 935.947 1296.54 962.706 1297.09 991.953 C 1298.23 1052.36 1306.91 1119.62 1224.48 1121.43 L 936.96 1121.45 L 854.885 1121.55 C 825.001 1121.57 797.037 1125.72 773.465 1103.95 C 746.286 1079.77 754.739 1049.96 752.752 1019.01 C 749.278 964.89 766.199 928.768 826.244 927.499 z"/>
</svg>