<!-- RECRAFT VECTORIZE from logo/options-v2/ai-inspired/AI3-window-E.png -->
<svg version="1.1" xmlns="http://www.w3.org/2000/svg" style="display: block;" viewBox="0 0 2048 2048" width="512" height="512" preserveAspectRatio="none">
<path transform="translate(0,0)" fill="rgb(103,66,152)" d="M 0 0 L 377.075 0 L 1668.77 0 L 2048 0 L 2048 377.247 L 2048 1671.74 L 2048 2048 L 1666.03 2048 L 379.181 2048 L 0 2048 L 0 1667.85 L 0 381.465 L 0 0 z"/>
<path transform="translate(0,0)" fill="rgb(254,254,254)" d="M 0 0 L 377.075 0 C 371.771 3.26546 349.914 4.51258 342.889 5.90865 C 323.477 9.7665 304.384 14.1246 285.539 20.2554 C 158.029 61.9006 58.5 162.593 18.3394 290.578 C 13.2773 306.875 9.36321 323.506 6.62596 340.35 C 5.47239 347.455 2.0003 376.794 0 381.465 L 0 0 z"/>
<path transform="translate(0,0)" fill="rgb(254,254,254)" d="M 1668.77 0 L 2048 0 L 2048 377.247 C 2045.13 370.607 2042.51 341.564 2040.42 332.236 C 2036.36 313.511 2030.95 294.625 2024.76 276.469 C 1976.59 135.197 1849.04 29.4392 1702.08 5.62006 C 1694.77 4.4353 1673.94 3.05078 1668.77 0 z"/>
<path transform="translate(0,0)" fill="rgb(254,254,254)" d="M 0 1667.85 L 0.285868 1669.05 C 2.52045 1678.9 3.49287 1690.82 4.99008 1701 C 7.38715 1716.27 10.6475 1731.39 14.7556 1746.3 C 42.3861 1844.56 105.374 1929.14 191.605 1983.77 C 242.975 2016.5 300.888 2037.56 361.254 2044.51 C 366.039 2045.06 375.314 2045.99 379.181 2048 L 0 2048 L 0 1667.85 z"/>
<path transform="translate(0,0)" fill="rgb(254,254,254)" d="M 2048 1671.74 L 2048 2048 L 1666.03 2048 C 1668.38 2046.56 1710.34 2041.39 1717.97 2039.81 C 1753.89 2032.37 1788.68 2020.26 1821.45 2003.78 C 1921.97 1952.44 1997.55 1862.76 2031.12 1755 C 2038.03 1732.45 2041.95 1709.17 2045.16 1685.85 C 2045.82 1681.07 2046.36 1676.31 2048 1671.74 z"/>
<path transform="translate(0,0)" fill="rgb(254,254,254)" d="M 413.033 484.347 C 434.992 483.079 463.182 483.845 485.612 483.854 L 615.36 483.905 L 1025.92 483.957 L 1428.56 483.934 L 1559.66 483.891 C 1581.62 483.886 1610.09 483.041 1631.47 484.29 C 1643.93 484.933 1655.95 489.092 1666.14 496.286 C 1678.97 505.455 1687.72 519.275 1690.52 534.802 C 1692.7 547.639 1692.15 566 1692.13 579.489 L 1692.03 642.974 L 1692.02 872.856 L 1692.04 1298.5 L 1692.04 1433.11 C 1692.06 1455.65 1692.51 1478.32 1691.98 1500.84 C 1691.16 1535.02 1669.39 1558.02 1636.18 1563.3 C 1625.67 1564.63 1600.28 1564.04 1589.12 1564.04 L 1498.9 1564.03 L 1197.92 1563.97 L 676.108 1563.98 L 508.118 1564.04 C 478.183 1564.06 447.961 1564.33 418.044 1563.8 C 405.053 1563.56 391.898 1559.45 381.377 1551.62 C 368.303 1542 359.59 1527.58 357.157 1511.53 C 355.283 1498.6 355.876 1479.12 355.91 1465.59 L 355.971 1398.33 L 355.941 1156.36 L 355.97 747.462 L 355.948 615.306 C 355.943 593.916 356.085 572.319 356.005 550.944 C 355.866 514.217 376.61 489.564 413.033 484.347 z"/>
<path transform="translate(0,0)" fill="rgb(103,66,152)" d="M 880.934 544.891 L 1632.94 544.998 C 1632.58 596.704 1632.51 648.411 1632.73 700.117 L 1632.59 897.569 L 1632.92 1502.83 L 880.935 1502.97 L 880.934 544.891 z"/>
<path transform="translate(0,0)" fill="rgb(103,66,152)" d="M 501.214 729.488 C 512.125 729.975 524.648 729.881 535.606 729.74 C 608.903 728.798 682.889 731.168 756.123 729.261 C 755.951 757.548 755.977 785.836 756.203 814.122 C 741.73 815.371 713.4 814.562 698.158 814.559 C 663.432 814.707 628.706 814.574 593.982 814.162 L 594.036 978.721 L 723.179 978.245 L 723.11 1063.15 L 594.011 1063.08 L 593.975 1190.79 L 594.015 1233.73 C 610.542 1232.82 629.834 1233.7 646.531 1233.57 C 682.821 1233.3 719.935 1234.24 756.164 1233.41 C 755.942 1261.67 755.941 1289.92 756.162 1318.17 C 735.383 1319.65 702.096 1318.09 680.197 1318.37 C 620.845 1319.13 560.268 1317.32 500.956 1318.69 L 500.991 901.438 C 501.018 847.783 499.35 782.347 501.214 729.488 z"/>
</svg>