<!-- RECRAFT VECTORIZE from logo/options-v2/ai-inspired/AI4-solid-e.png -->
<svg version="1.1" xmlns="http://www.w3.org/2000/svg" style="display: block;" viewBox="0 0 2048 2048" width="512" height="512" preserveAspectRatio="none">
<path transform="translate(0,0)" fill="rgb(29,48,85)" d="M 0 0 L 416.88 0 L 1629.15 0 L 2048 0 L 2048 410.583 L 2048 1635.49 L 2048 2048 L 1635.04 2048 L 414.357 2048 L 0 2048 L 0 1630.76 L 0 421.254 L 0 0 z"/>
<path transform="translate(0,0)" fill="rgb(254,254,254)" d="M 0 0 L 416.88 0 C 413.657 2.01327 378.726 5.91294 371.905 7.16404 C 354.769 10.2512 337.835 14.3735 321.197 19.5084 C 192.542 59.2702 87.9715 153.748 35.4004 277.722 C 22.8267 307.799 13.4792 339.125 7.51461 371.174 C 6.1973 378.594 1.78024 418.349 0 421.254 L 0 0 z"/>
<path transform="translate(0,0)" fill="rgb(254,254,254)" d="M 1629.15 0 L 2048 0 L 2048 410.583 C 2044.83 403.759 2042.42 376.047 2040.18 366.146 C 2033.7 337.455 2026.12 309.151 2014.88 281.912 C 1962.34 154.704 1855.28 57.944 1723.43 18.5053 C 1697.61 10.567 1672.34 5.54296 1645.42 3.03574 C 1641.22 2.64486 1632.52 2.16746 1629.15 0 z"/>
<path transform="translate(0,0)" fill="rgb(254,254,254)" d="M 0 1630.76 C 2.87824 1639.59 3.19369 1654.11 4.65895 1663.77 C 7.64709 1682.5 11.742 1701.04 16.9221 1719.29 C 50.5555 1836.43 129.859 1935.14 237.004 1993.23 C 276.494 2014.68 318.919 2030.21 362.922 2039.34 C 372.652 2041.45 410.82 2046.2 414.357 2048 L 0 2048 L 0 1630.76 z"/>
<path transform="translate(0,0)" fill="rgb(254,254,254)" d="M 1635.04 2048 C 1637.16 2046.37 1677.9 2041.28 1686.27 2039.5 C 1727.25 2030.73 1766.87 2016.48 1804.05 1997.15 C 1912.96 1940.43 1994.44 1842.26 2030.13 1724.78 C 2035.59 1707.1 2039.72 1689.03 2042.48 1670.73 C 2043.99 1660.94 2044.89 1644.17 2048 1635.49 L 2048 2048 L 1635.04 2048 z"/>
<path transform="translate(0,0)" fill="rgb(254,254,254)" d="M 1026.5 386.436 C 1190.76 376.821 1365.38 451.435 1471.65 577.08 C 1604.43 734.063 1625.14 918.016 1609.82 1115.66 C 1583.54 1114.3 1545.36 1115.47 1518.31 1115.49 L 1340.91 1115.52 L 700.141 1115.5 C 703 1132.61 704.979 1147.97 708.891 1164.85 C 750.813 1345.78 906.612 1453.44 1089.95 1445.54 C 1216.64 1440.08 1323.11 1391.86 1410.37 1299.04 L 1428.5 1317.11 L 1559.02 1445.56 C 1549.6 1456.09 1540.45 1466.85 1531 1477.41 C 1424.37 1596.53 1269.4 1653.03 1112.39 1661.57 C 939.647 1671.64 762.64 1625.17 632.692 1506.78 C 380.429 1276.95 366.242 830.751 596.584 580.855 C 709.971 457.843 860.856 393.967 1026.5 386.436 z"/>
<path transform="translate(0,0)" fill="rgb(29,48,85)" d="M 1013.1 602.405 C 1018.66 601.725 1025.47 601.82 1031.13 601.623 C 1127.05 598.016 1222.55 634.041 1283.6 710.096 C 1330.64 768.688 1360.48 853.92 1362.13 929.248 L 1048.5 929.081 C 932.398 929.084 813.545 927.808 697.61 929.399 C 704.784 855.122 737.812 771.604 786.559 714.931 C 845.976 645.854 923.391 609.815 1013.1 602.405 z"/>
</svg>